<?xml version="1.0" standalone="no"?><!DOCTYPE svg PUBLIC "-//W3C//DTD SVG 1.1//EN" "http://www.w3.org/Graphics/SVG/1.1/DTD/svg11.dtd"><svg t="1707710318611" class="icon" viewBox="0 0 1024 1024" version="1.1" xmlns="http://www.w3.org/2000/svg" p-id="9355" xmlns:xlink="http://www.w3.org/1999/xlink" width="48" height="48"><path d="M243.9168 184.32H124.7232A22.3232 22.3232 0 0 0 102.4 206.6432v692.6336A22.3232 22.3232 0 0 0 124.7232 921.6h119.3984A22.3232 22.3232 0 0 0 266.24 899.2768V206.6432A22.3232 22.3232 0 0 0 243.9168 184.32z m-10.4448 139.264H135.168c-6.7584 0-12.288-7.3728-12.288-16.384s5.5296-16.384 12.288-16.384h98.304c6.7584 0 12.288 7.3728 12.288 16.384s-5.5296 16.384-12.288 16.384zM529.6128 184.32h-117.1456A23.3472 23.3472 0 0 0 389.12 207.6672v690.5856A23.3472 23.3472 0 0 0 412.4672 921.6h117.1456A23.3472 23.3472 0 0 0 552.96 898.2528V207.6672A23.3472 23.3472 0 0 0 529.6128 184.32z m-8.8064 138.6496h-97.4848a15.7696 15.7696 0 0 1 0-31.5392h97.4848a15.7696 15.7696 0 0 1 0 31.5392zM955.8016 857.9072l-28.0576-93.184L757.76 200.704a25.6 25.6 0 0 0-31.9488-16.384l-107.9296 32.5632a25.6 25.6 0 0 0-16.9984 31.744L798.72 905.216a25.6 25.6 0 0 0 31.744 16.9984l107.9296-32.5632a25.6 25.6 0 0 0 17.408-31.744z m-56.1152-69.2224l-83.5584 25.1904a15.5648 15.5648 0 0 1-4.3008 0 14.9504 14.9504 0 0 1-4.3008-29.2864l83.5584-25.1904a14.9504 14.9504 0 1 1 8.6016 28.672z" fill="#0090FF" p-id="9356"></path></svg>