<?xml version="1.0" standalone="no"?><!DOCTYPE svg PUBLIC "-//W3C//DTD SVG 1.1//EN" "http://www.w3.org/Graphics/SVG/1.1/DTD/svg11.dtd"><svg t="1707706145426" class="icon" viewBox="0 0 1026 1024" version="1.1" xmlns="http://www.w3.org/2000/svg" p-id="3238" xmlns:xlink="http://www.w3.org/1999/xlink" width="48.09375" height="48"><path d="M1024 143.36c-2.56-7.68-2.56-12.8-5.12-20.48-17.92-69.12-84.48-122.88-163.84-122.88H168.96C94.72 0 33.28 46.08 10.24 117.76c0 2.56-2.56 7.68-2.56 10.24C0 145.92 0 161.28 0 179.2v675.84c0 7.68 0 17.92 2.56 25.6 2.56 15.36 5.12 28.16 12.8 40.96 20.48 51.2 58.88 81.92 110.08 94.72 2.56 2.56 10.24 2.56 12.8 7.68h747.52c2.56-5.12 12.8-2.56 15.36-7.68 51.2-12.8 89.6-46.08 110.08-94.72 7.68-10.24 7.68-25.6 15.36-33.28v-10.24V153.6c0-2.56 0-5.12-2.56-10.24z m-179.2 51.2v235.52c-23.04 2.56-48.64 2.56-71.68 0v-25.6-15.36-186.88-7.68c0-2.56 2.56-7.68 5.12-7.68h61.44c2.56 0 5.12 5.12 5.12 7.68zM248.32 174.08c64-15.36 130.56 15.36 161.28 76.8l7.68 15.36v7.68c0 5.12 2.56 10.24 5.12 15.36v46.08c-17.92 69.12-58.88 107.52-122.88 117.76-79.36 10.24-153.6-51.2-156.16-133.12v-33.28c0-7.68 2.56-15.36 7.68-23.04 17.92-46.08 48.64-79.36 97.28-89.6z m591.36 448c-56.32 192-268.8 299.52-458.24 227.84-120.32-43.52-189.44-133.12-225.28-253.44 15.36-2.56 30.72-2.56 46.08-2.56h46.08c17.92 0 33.28 2.56 51.2 2.56 28.16 102.4 125.44 181.76 232.96 189.44 112.64 7.68 220.16-56.32 261.12-161.28 10.24-23.04 20.48-38.4 46.08-33.28 2.56 2.56 2.56 5.12 5.12 7.68-5.12 5.12-2.56 15.36-5.12 23.04z" fill="#FE8801" p-id="3239"></path></svg>