<svg id="svg" version="1.1" xmlns="http://www.w3.org/2000/svg" xmlns:xlink="http://www.w3.org/1999/xlink" width="48" height="48" viewBox="0 0 400 400"><g id="svgg"><path id="path0" d="M184.600 77.253 C 182.620 77.443,179.650 77.944,178.000 78.366 C 176.350 78.788,173.380 79.428,171.400 79.788 C 167.844 80.435,160.884 82.514,157.000 84.091 C 155.900 84.537,153.563 85.430,151.806 86.074 C 150.049 86.719,148.331 87.501,147.986 87.812 C 147.642 88.124,146.567 88.659,145.597 89.001 C 144.628 89.343,143.016 90.134,142.017 90.759 C 141.018 91.384,139.660 92.163,139.000 92.491 C 137.231 93.368,133.284 95.776,131.000 97.370 C 125.593 101.144,124.347 102.109,119.653 106.160 C 109.235 115.148,101.756 123.856,94.881 135.000 C 93.795 136.760,92.431 139.100,91.850 140.200 C 91.268 141.300,90.622 142.470,90.413 142.800 C 89.660 143.988,86.480 151.035,85.991 152.600 C 85.716 153.480,85.076 155.028,84.569 156.039 C 84.063 157.051,83.265 159.378,82.797 161.211 C 82.329 163.044,81.695 165.029,81.388 165.622 C 81.082 166.216,80.534 168.299,80.172 170.251 C 79.809 172.203,79.089 175.600,78.572 177.800 C 76.191 187.921,76.088 212.433,78.387 221.600 C 78.801 223.250,79.433 226.220,79.791 228.200 C 80.434 231.753,82.510 238.707,84.091 242.600 C 84.537 243.700,85.407 245.950,86.023 247.600 C 87.221 250.810,92.907 262.187,93.830 263.224 C 94.136 263.567,94.794 264.567,95.293 265.447 C 100.065 273.862,109.289 284.811,118.211 292.651 C 123.923 297.672,126.673 299.844,130.363 302.250 C 131.332 302.883,133.132 304.069,134.363 304.887 C 137.747 307.137,151.048 314.000,152.025 314.000 C 152.277 314.000,153.327 314.424,154.358 314.941 C 155.388 315.459,156.854 316.071,157.616 316.303 C 158.377 316.534,161.340 317.445,164.200 318.327 C 167.060 319.210,171.380 320.321,173.800 320.796 C 176.220 321.271,179.370 321.924,180.800 322.247 C 187.525 323.766,213.424 323.350,220.400 321.612 C 222.050 321.200,225.361 320.481,227.758 320.012 C 230.156 319.543,232.598 318.911,233.187 318.607 C 233.775 318.303,235.774 317.669,237.628 317.199 C 239.483 316.729,241.552 316.022,242.228 315.629 C 242.903 315.235,244.421 314.592,245.602 314.199 C 247.837 313.457,259.162 307.813,261.600 306.227 C 262.370 305.725,263.810 304.830,264.800 304.237 C 266.574 303.174,269.104 301.398,272.330 298.952 C 277.378 295.125,278.556 290.473,275.631 285.921 C 275.023 284.974,274.002 283.370,273.363 282.355 C 270.889 278.429,270.042 277.340,268.105 275.600 C 260.843 269.075,252.134 269.082,243.109 275.620 C 242.213 276.269,241.272 276.800,241.018 276.800 C 240.764 276.800,239.666 277.365,238.578 278.055 C 237.490 278.746,235.637 279.642,234.460 280.048 C 233.282 280.453,231.752 281.134,231.060 281.560 C 230.367 281.987,228.360 282.707,226.600 283.159 C 224.840 283.612,222.448 284.348,221.285 284.795 C 215.832 286.891,199.465 288.071,190.200 287.037 C 180.633 285.970,174.790 284.611,168.200 281.921 C 167.100 281.472,165.030 280.663,163.600 280.123 C 162.170 279.583,160.730 278.905,160.400 278.615 C 160.070 278.326,158.540 277.430,157.000 276.625 C 148.544 272.204,138.682 264.124,132.994 256.957 C 132.140 255.881,131.241 254.820,130.996 254.600 C 130.526 254.178,127.734 250.243,125.927 247.455 C 124.376 245.062,120.163 237.174,119.809 236.000 C 119.644 235.450,119.168 234.370,118.752 233.600 C 112.217 221.500,110.169 190.417,115.035 177.176 C 115.393 176.199,116.187 173.780,116.798 171.800 C 123.060 151.518,139.558 132.260,159.400 122.075 C 163.504 119.968,169.730 117.200,170.364 117.200 C 170.634 117.200,172.762 116.569,175.092 115.797 C 190.249 110.779,214.382 111.785,229.800 118.079 C 230.900 118.528,232.970 119.337,234.400 119.877 C 235.830 120.417,237.277 121.108,237.615 121.414 C 237.953 121.719,239.123 122.361,240.215 122.841 C 241.307 123.320,242.920 124.198,243.800 124.792 C 246.595 126.680,248.546 127.974,250.500 129.239 C 251.545 129.915,252.400 130.618,252.400 130.802 C 252.400 130.985,253.022 131.519,253.781 131.989 C 259.673 135.630,258.861 139.926,251.437 144.400 C 250.525 144.950,249.333 145.721,248.789 146.113 C 248.245 146.504,246.270 147.808,244.400 149.010 C 242.530 150.211,240.190 151.750,239.200 152.429 C 238.210 153.109,236.140 154.447,234.600 155.404 C 233.060 156.361,231.260 157.581,230.600 158.116 C 229.940 158.650,228.770 159.405,228.000 159.792 C 227.230 160.179,225.880 161.020,225.000 161.661 C 222.056 163.806,220.612 164.762,219.000 165.630 C 218.120 166.105,216.680 167.018,215.800 167.660 C 213.136 169.603,211.506 170.686,209.200 172.046 C 207.990 172.759,206.550 173.680,206.000 174.092 C 205.450 174.504,203.470 175.817,201.600 177.010 C 198.248 179.149,197.761 179.472,193.800 182.184 C 192.700 182.937,190.979 184.000,189.975 184.545 C 188.971 185.091,187.902 185.836,187.600 186.200 C 187.298 186.564,186.229 187.309,185.225 187.854 C 179.815 190.794,176.541 194.021,174.385 198.537 L 172.727 202.008 172.869 206.104 C 173.023 210.554,174.155 213.648,177.426 218.556 C 185.284 230.348,186.306 230.304,205.000 217.379 C 206.100 216.618,207.270 215.872,207.600 215.721 C 208.183 215.454,211.540 213.284,215.200 210.808 C 216.190 210.138,218.260 208.797,219.800 207.827 C 221.340 206.858,223.410 205.509,224.400 204.829 C 225.390 204.150,227.730 202.610,229.600 201.407 C 231.470 200.204,233.540 198.851,234.200 198.400 C 234.860 197.949,236.930 196.599,238.800 195.400 C 240.670 194.201,242.740 192.844,243.400 192.384 C 244.060 191.924,246.130 190.572,248.000 189.380 C 249.870 188.188,252.210 186.655,253.200 185.974 C 254.190 185.293,256.260 183.953,257.800 182.996 C 259.340 182.039,261.140 180.819,261.800 180.284 C 262.460 179.750,263.630 178.995,264.400 178.608 C 265.170 178.221,266.520 177.380,267.400 176.739 C 270.404 174.550,271.800 173.631,273.600 172.656 C 274.590 172.120,276.058 171.168,276.862 170.540 C 277.666 169.913,278.836 169.087,279.462 168.704 C 281.065 167.724,285.696 164.749,287.058 163.825 C 287.686 163.399,289.550 162.190,291.200 161.138 C 292.850 160.087,294.650 158.888,295.200 158.474 C 295.750 158.061,296.650 157.490,297.200 157.206 C 306.673 152.317,309.124 143.685,303.444 135.218 C 302.921 134.438,301.797 132.736,300.946 131.435 C 297.866 126.723,297.300 125.909,296.934 125.656 C 296.729 125.515,296.130 124.770,295.604 124.000 C 291.977 118.698,281.354 107.944,274.861 103.000 C 273.705 102.120,271.948 100.725,270.955 99.900 C 269.963 99.075,269.007 98.400,268.831 98.400 C 268.654 98.400,267.810 97.842,266.955 97.160 C 266.100 96.477,264.590 95.475,263.600 94.932 C 262.610 94.389,260.450 93.154,258.800 92.188 C 257.150 91.222,255.170 90.146,254.400 89.798 C 253.630 89.449,251.740 88.550,250.200 87.799 C 246.711 86.097,242.924 84.538,239.800 83.518 C 238.480 83.087,236.320 82.368,235.000 81.921 C 222.217 77.589,201.294 75.652,184.600 77.253 M303.426 196.826 C 302.560 197.042,301.300 197.638,300.626 198.150 C 299.952 198.662,298.770 199.403,298.000 199.796 C 297.230 200.189,296.029 200.981,295.331 201.555 C 294.633 202.130,292.590 203.500,290.793 204.600 C 288.995 205.700,287.046 206.980,286.462 207.444 C 285.878 207.908,284.823 208.583,284.119 208.944 C 280.957 210.565,277.712 215.639,278.212 218.181 C 278.639 220.355,280.114 223.749,281.610 226.000 C 282.414 227.210,283.699 229.190,284.466 230.400 C 293.785 245.108,294.851 246.172,300.000 245.908 C 302.824 245.763,303.187 245.632,306.200 243.678 C 307.960 242.536,310.300 241.068,311.400 240.417 C 314.290 238.706,319.095 234.178,320.062 232.253 C 320.519 231.344,321.126 230.330,321.411 230.000 C 322.655 228.557,323.299 224.791,323.113 220.036 C 322.920 215.106,322.826 214.793,320.090 209.979 C 313.207 197.868,309.856 195.223,303.426 196.826 " stroke="none" fill="#f8fbfc" fill-rule="evenodd"></path><path id="path1" d="M20.000 0.800 C 20.000 1.480,19.733 1.600,18.226 1.600 C 15.616 1.600,14.425 2.176,14.146 3.572 C 13.941 4.593,13.707 4.774,12.454 4.879 C 11.136 4.989,10.988 5.121,10.875 6.300 C 10.772 7.365,10.578 7.600,9.803 7.600 C 8.592 7.600,7.600 8.592,7.600 9.803 C 7.600 10.578,7.365 10.772,6.300 10.875 C 5.111 10.989,4.989 11.129,4.875 12.515 C 4.766 13.829,4.595 14.061,3.580 14.264 C 2.312 14.518,1.607 16.099,1.602 18.700 C 1.600 19.733,1.435 20.000,0.800 20.000 C 0.001 20.000,0.000 20.267,0.000 200.000 C 0.000 379.733,0.001 380.000,0.800 380.000 C 1.435 380.000,1.600 380.267,1.602 381.300 C 1.607 383.901,2.312 385.482,3.580 385.736 C 4.595 385.939,4.766 386.171,4.875 387.485 C 4.989 388.871,5.111 389.011,6.300 389.125 C 7.365 389.228,7.600 389.422,7.600 390.197 C 7.600 391.408,8.592 392.400,9.803 392.400 C 10.578 392.400,10.772 392.635,10.875 393.700 C 10.988 394.879,11.136 395.011,12.454 395.121 C 13.707 395.226,13.941 395.407,14.146 396.428 C 14.425 397.824,15.616 398.400,18.226 398.400 C 19.733 398.400,20.000 398.520,20.000 399.200 C 20.000 399.999,20.267 400.000,200.000 400.000 C 379.733 400.000,380.000 399.999,380.000 399.200 C 380.000 398.520,380.267 398.400,381.774 398.400 C 384.384 398.400,385.575 397.824,385.854 396.428 C 386.059 395.407,386.293 395.226,387.546 395.121 C 388.864 395.011,389.012 394.879,389.125 393.700 C 389.228 392.635,389.422 392.400,390.197 392.400 C 391.408 392.400,392.400 391.408,392.400 390.197 C 392.400 389.422,392.635 389.228,393.700 389.125 C 394.879 389.012,395.011 388.864,395.121 387.546 C 395.226 386.293,395.407 386.059,396.428 385.854 C 397.824 385.575,398.400 384.384,398.400 381.774 C 398.400 380.267,398.520 380.000,399.200 380.000 C 399.999 380.000,400.000 379.733,400.000 200.000 C 400.000 20.267,399.999 20.000,399.200 20.000 C 398.520 20.000,398.400 19.733,398.400 18.226 C 398.400 15.616,397.824 14.425,396.428 14.146 C 395.407 13.941,395.226 13.707,395.121 12.454 C 395.011 11.136,394.879 10.988,393.700 10.875 C 392.635 10.772,392.400 10.578,392.400 9.803 C 392.400 8.592,391.408 7.600,390.197 7.600 C 389.422 7.600,389.228 7.365,389.125 6.300 C 389.012 5.121,388.864 4.989,387.546 4.879 C 386.293 4.774,386.059 4.593,385.854 3.572 C 385.575 2.176,384.384 1.600,381.774 1.600 C 380.267 1.600,380.000 1.480,380.000 0.800 C 380.000 0.001,379.733 0.000,200.000 0.000 C 20.267 0.000,20.000 0.001,20.000 0.800 M212.600 77.204 C 218.065 77.728,230.114 80.265,235.000 81.921 C 236.320 82.368,238.480 83.087,239.800 83.518 C 242.924 84.538,246.711 86.097,250.200 87.799 C 251.740 88.550,253.630 89.449,254.400 89.798 C 255.170 90.146,257.150 91.222,258.800 92.188 C 260.450 93.154,262.610 94.389,263.600 94.932 C 264.590 95.475,266.100 96.477,266.955 97.160 C 267.810 97.842,268.654 98.400,268.831 98.400 C 269.007 98.400,269.963 99.075,270.955 99.900 C 271.948 100.725,273.705 102.120,274.861 103.000 C 281.354 107.944,291.977 118.698,295.604 124.000 C 296.130 124.770,296.729 125.515,296.934 125.656 C 297.300 125.909,297.866 126.723,300.946 131.435 C 301.797 132.736,302.921 134.438,303.444 135.218 C 309.124 143.685,306.673 152.317,297.200 157.206 C 296.650 157.490,295.750 158.061,295.200 158.474 C 294.650 158.888,292.850 160.087,291.200 161.138 C 289.550 162.190,287.686 163.399,287.058 163.825 C 285.696 164.749,281.065 167.724,279.462 168.704 C 278.836 169.087,277.666 169.913,276.862 170.540 C 276.058 171.168,274.590 172.120,273.600 172.656 C 271.800 173.631,270.404 174.550,267.400 176.739 C 266.520 177.380,265.170 178.221,264.400 178.608 C 263.630 178.995,262.460 179.750,261.800 180.284 C 261.140 180.819,259.340 182.039,257.800 182.996 C 256.260 183.953,254.190 185.293,253.200 185.974 C 252.210 186.655,249.870 188.188,248.000 189.380 C 246.130 190.572,244.060 191.924,243.400 192.384 C 242.740 192.844,240.670 194.201,238.800 195.400 C 236.930 196.599,234.860 197.949,234.200 198.400 C 233.540 198.851,231.470 200.204,229.600 201.407 C 227.730 202.610,225.390 204.150,224.400 204.829 C 223.410 205.509,221.340 206.858,219.800 207.827 C 218.260 208.797,216.190 210.138,215.200 210.808 C 211.540 213.284,208.183 215.454,207.600 215.721 C 207.270 215.872,206.100 216.618,205.000 217.379 C 186.306 230.304,185.284 230.348,177.426 218.556 C 174.155 213.648,173.023 210.554,172.869 206.104 L 172.727 202.008 174.385 198.537 C 176.541 194.021,179.815 190.794,185.225 187.854 C 186.229 187.309,187.298 186.564,187.600 186.200 C 187.902 185.836,188.971 185.091,189.975 184.545 C 190.979 184.000,192.700 182.937,193.800 182.184 C 197.761 179.472,198.248 179.149,201.600 177.010 C 203.470 175.817,205.450 174.504,206.000 174.092 C 206.550 173.680,207.990 172.759,209.200 172.046 C 211.506 170.686,213.136 169.603,215.800 167.660 C 216.680 167.018,218.120 166.105,219.000 165.630 C 220.612 164.762,222.056 163.806,225.000 161.661 C 225.880 161.020,227.230 160.179,228.000 159.792 C 228.770 159.405,229.940 158.650,230.600 158.116 C 231.260 157.581,233.060 156.361,234.600 155.404 C 236.140 154.447,238.210 153.109,239.200 152.429 C 240.190 151.750,242.530 150.211,244.400 149.010 C 246.270 147.808,248.245 146.504,248.789 146.113 C 249.333 145.721,250.525 144.950,251.437 144.400 C 258.861 139.926,259.673 135.630,253.781 131.989 C 253.022 131.519,252.400 130.985,252.400 130.802 C 252.400 130.618,251.545 129.915,250.500 129.239 C 248.546 127.974,246.595 126.680,243.800 124.792 C 242.920 124.198,241.307 123.320,240.215 122.841 C 239.123 122.361,237.953 121.719,237.615 121.414 C 237.277 121.108,235.830 120.417,234.400 119.877 C 232.970 119.337,230.900 118.528,229.800 118.079 C 214.382 111.785,190.249 110.779,175.092 115.797 C 172.762 116.569,170.634 117.200,170.364 117.200 C 169.730 117.200,163.504 119.968,159.400 122.075 C 145.956 128.976,133.406 140.478,125.728 152.936 C 121.803 159.304,118.505 166.270,116.798 171.800 C 116.187 173.780,115.393 176.199,115.035 177.176 C 110.169 190.417,112.217 221.500,118.752 233.600 C 119.168 234.370,119.644 235.450,119.809 236.000 C 120.163 237.174,124.376 245.062,125.927 247.455 C 127.734 250.243,130.526 254.178,130.996 254.600 C 131.241 254.820,132.140 255.881,132.994 256.957 C 138.682 264.124,148.544 272.204,157.000 276.625 C 158.540 277.430,160.070 278.326,160.400 278.615 C 160.730 278.905,162.170 279.583,163.600 280.123 C 165.030 280.663,167.100 281.472,168.200 281.921 C 182.854 287.903,209.450 289.343,221.285 284.795 C 222.448 284.348,224.840 283.612,226.600 283.159 C 228.360 282.707,230.367 281.987,231.060 281.560 C 231.752 281.134,233.282 280.453,234.460 280.048 C 235.637 279.642,237.490 278.746,238.578 278.055 C 239.666 277.365,240.764 276.800,241.018 276.800 C 241.272 276.800,242.213 276.269,243.109 275.620 C 252.134 269.082,260.843 269.075,268.105 275.600 C 270.042 277.340,270.889 278.429,273.363 282.355 C 274.002 283.370,275.023 284.974,275.631 285.921 C 278.556 290.473,277.378 295.125,272.330 298.952 C 269.104 301.398,266.574 303.174,264.800 304.237 C 263.810 304.830,262.370 305.725,261.600 306.227 C 259.162 307.813,247.837 313.457,245.602 314.199 C 244.421 314.592,242.903 315.235,242.228 315.629 C 241.552 316.022,239.483 316.729,237.628 317.199 C 235.774 317.669,233.775 318.303,233.187 318.607 C 232.598 318.911,230.156 319.543,227.758 320.012 C 225.361 320.481,222.050 321.200,220.400 321.612 C 213.424 323.350,187.525 323.766,180.800 322.247 C 179.370 321.924,176.220 321.271,173.800 320.796 C 171.380 320.321,167.060 319.210,164.200 318.327 C 161.340 317.445,158.377 316.534,157.616 316.303 C 156.854 316.071,155.388 315.459,154.358 314.941 C 153.327 314.424,152.277 314.000,152.025 314.000 C 151.048 314.000,137.747 307.137,134.363 304.887 C 133.132 304.069,131.332 302.883,130.363 302.250 C 117.786 294.048,102.292 277.788,95.293 265.447 C 94.794 264.567,94.136 263.567,93.830 263.224 C 92.907 262.187,87.221 250.810,86.023 247.600 C 85.407 245.950,84.537 243.700,84.091 242.600 C 82.510 238.707,80.434 231.753,79.791 228.200 C 79.433 226.220,78.801 223.250,78.387 221.600 C 76.088 212.433,76.191 187.921,78.572 177.800 C 79.089 175.600,79.809 172.203,80.172 170.251 C 80.534 168.299,81.082 166.216,81.388 165.622 C 81.695 165.029,82.329 163.044,82.797 161.211 C 83.265 159.378,84.063 157.051,84.569 156.039 C 85.076 155.028,85.716 153.480,85.991 152.600 C 86.480 151.035,89.660 143.988,90.413 142.800 C 90.622 142.470,91.268 141.300,91.850 140.200 C 98.212 128.157,107.888 116.311,119.653 106.160 C 124.347 102.109,125.593 101.144,131.000 97.370 C 133.284 95.776,137.231 93.368,139.000 92.491 C 139.660 92.163,141.018 91.384,142.017 90.759 C 143.016 90.134,144.628 89.343,145.597 89.001 C 146.567 88.659,147.642 88.124,147.986 87.812 C 148.331 87.501,150.049 86.719,151.806 86.074 C 153.563 85.430,155.900 84.537,157.000 84.091 C 160.884 82.514,167.844 80.435,171.400 79.788 C 173.380 79.428,176.350 78.788,178.000 78.366 C 183.639 76.924,202.921 76.276,212.600 77.204 M311.011 197.607 C 312.320 198.416,315.834 202.777,317.800 206.032 C 322.610 213.997,322.907 214.781,323.113 220.036 C 323.299 224.791,322.655 228.557,321.411 230.000 C 321.126 230.330,320.519 231.344,320.062 232.253 C 319.095 234.178,314.290 238.706,311.400 240.417 C 310.300 241.068,307.960 242.536,306.200 243.678 C 303.187 245.632,302.824 245.763,300.000 245.908 C 294.851 246.172,293.785 245.108,284.466 230.400 C 283.699 229.190,282.414 227.210,281.610 226.000 C 280.114 223.749,278.639 220.355,278.212 218.181 C 277.712 215.639,280.957 210.565,284.119 208.944 C 284.823 208.583,285.878 207.908,286.462 207.444 C 287.046 206.980,288.995 205.700,290.793 204.600 C 292.590 203.500,294.633 202.130,295.331 201.555 C 296.029 200.981,297.230 200.189,298.000 199.796 C 298.770 199.403,299.952 198.662,300.626 198.150 C 303.153 196.229,308.343 195.958,311.011 197.607 " stroke="none" fill="#04b4fc" fill-rule="evenodd"></path></g></svg>