<?xml version="1.0" standalone="no"?><!DOCTYPE svg PUBLIC "-//W3C//DTD SVG 1.1//EN" "http://www.w3.org/Graphics/SVG/1.1/DTD/svg11.dtd"><svg t="1707710005505" class="icon" viewBox="0 0 1024 1024" version="1.1" xmlns="http://www.w3.org/2000/svg" p-id="6371" xmlns:xlink="http://www.w3.org/1999/xlink" width="48" height="48"><path d="M427.2 615.7c-0.1 15.3 12.2 27.7 27.5 27.8h0.2c15.2 0 27.6-12.3 27.7-27.5l0.4-68c0.6-106.1 87.4-192.9 193.5-193.4l60.4-0.3-59.8 59.7c-10.8 10.8-10.8 28.3 0 39.1 5.4 5.4 12.5 8.1 19.6 8.1 7.1 0 14.2-2.7 19.6-8.1l87-87c11.4-11.4 17.6-26.5 17.6-42.5 0-16.1-6.3-31.2-17.6-42.5l-78-78c-10.8-10.8-28.3-10.8-39.1 0s-10.8 28.3 0 39.1L743 299l-66.7 0.4c-136.4 0.6-247.9 112.1-248.7 248.3l-0.4 68z" fill="#E73F32" p-id="6372"></path><path d="M815.6 552.4c-15.3 0-27.7 12.4-27.7 27.7v156.7c0 20.3-18.4 36.9-41 36.9H275.8c-22.6 0-41-16.5-41-36.9V294.3c0-20.3 18.4-36.9 41-36.9h191.4c15.3 0 27.7-12.4 27.7-27.7S482.5 202 467.2 202H275.8c-53.1 0-96.3 41.4-96.3 92.2v442.5c0 50.8 43.2 92.2 96.3 92.2h471.1c53.1 0 96.3-41.4 96.3-92.2V580.1c0-15.3-12.4-27.7-27.6-27.7z" fill="#1A1A1A" p-id="6373"></path></svg>