<?xml version="1.0" standalone="no"?><!DOCTYPE svg PUBLIC "-//W3C//DTD SVG 1.1//EN" "http://www.w3.org/Graphics/SVG/1.1/DTD/svg11.dtd"><svg t="1707706422545" class="icon" viewBox="0 0 1024 1024" version="1.1" xmlns="http://www.w3.org/2000/svg" p-id="11932" xmlns:xlink="http://www.w3.org/1999/xlink" width="48" height="48"><path d="M0 0m64 0l896 0q64 0 64 64l0 896q0 64-64 64l-896 0q-64 0-64-64l0-896q0-64 64-64Z" fill="#FFFFFF" p-id="11933"></path><path d="M1024 736v224a64 64 0 0 1-64 64H512v-288h512z" fill="#82E6FF" p-id="11934"></path><path d="M960 0a64 64 0 0 1 64 64v557.056H512V0h448zM384 736v288H64a64 64 0 0 1-64-64v-224h384z" fill="#EBF2F2" p-id="11935"></path><path d="M379.104 0v621.088H0V64a64 64 0 0 1 64-64h315.104z" fill="#C3F99D" p-id="11936"></path><path d="M871.136 125.024L72.608 527.872l250.048 137.6z" fill="#0085FE" p-id="11937"></path><path d="M871.136 125.024L379.104 842.88l-56.448-177.344z" fill="#0055F0" p-id="11938"></path><path d="M729.984 391.2L379.104 842.88l24.192-129.056z" fill="#0A24BD" p-id="11939"></path><path d="M871.136 125.024l-158.528 774.336-309.312-185.536z" fill="#0085FE" p-id="11940"></path><path d="M871.136 125.024c-90.72 90.752-182.336 180.64-273.44 271.04-91.712 89.76-182.944 180-275.04 269.376 90.72-90.752 182.304-180.64 273.44-271.008 91.68-89.792 182.944-180.032 275.04-269.44" fill="#88FCF9" fill-opacity=".69" p-id="11941"></path><path d="M638.08 420.128c-76.928 96.544-157.312 197.504-234.72 293.696 75.84-97.376 156.64-198.048 232.96-295.072 76.96-96.544 157.44-197.536 234.816-293.76-75.872 97.408-156.736 198.08-233.024 295.136z" fill="#88FCF9" p-id="11942"></path><path d="M403.296 713.824l-11.744 64.64-12.48 64.416 11.776-64.576z" fill="#0096FC" p-id="11943"></path></svg>