<?xml version="1.0" standalone="no"?><!DOCTYPE svg PUBLIC "-//W3C//DTD SVG 1.1//EN" "http://www.w3.org/Graphics/SVG/1.1/DTD/svg11.dtd"><svg t="1707706186334" class="icon" viewBox="0 0 1024 1024" version="1.1" xmlns="http://www.w3.org/2000/svg" p-id="21663" xmlns:xlink="http://www.w3.org/1999/xlink" width="48" height="48"><path d="M424.6528 49.8176c-141.824 29.0816-271.7184 128.9728-332.5952 256.4608-37.12 77.568-57.1904 175.9744-49.7664 242.3296 11.1616 102.144 49.7664 199.0656 106.1888 265.4208l26.7264 31.3344 5.2224-25.344c7.424-34.304-1.4848-74.5472-28.9792-137.9328-51.968-117.8112-49.7664-230.4 6.7072-344.4736 81.664-167.0144 266.5472-255.744 443.9552-213.9648 201.216 47.7184 337.0496 246.784 306.6368 448.8192-20.0704 130.4576-100.9664 242.3296-218.2656 299.7248-113.6128 55.9104-227.1744 58.1632-342.272 6.7072-41.5744-18.6368-66.0992-24.6272-109.1584-26.112l-55.7056-2.9696 33.4336 30.5664c37.888 35.0208 132.9152 83.5072 193.024 97.6896 52.736 12.6976 155.1872 12.6976 207.872 0 22.272-5.2224 69.0688-23.0912 103.936-39.5264 50.4832-24.6272 75.008-42.496 123.2384-90.9824 76.4928-76.8 115.0976-150.5792 133.632-260.1984 12.6464-68.608 12.6464-76.032 0-145.408-18.5856-108.8512-57.1904-182.6816-133.632-259.4304-48.2816-48.4864-72.7552-66.3552-123.2384-90.2144-103.936-49.9712-196.7104-63.3856-296.96-42.496z" fill="#3366FF" p-id="21664"></path><path d="M224.2048 410.6752c-11.8784 11.9296-13.3632 18.6368-7.424 29.7984 8.9088 16.384 29.696 19.4048 43.0592 5.9392 13.3632-13.4144 10.3936-34.304-5.9392-43.264-11.1104-5.888-17.8176-4.4032-29.696 7.5264zM320.7168 515.072v111.8208l26.0096-12.6976c20.7872-9.6768 26.0096-17.152 26.0096-33.536 0-20.8896 0.768-20.8896 44.544-20.8896 41.5744 0 44.544-1.4848 55.7056-22.3744 5.9392-11.9296 11.1616-23.0912 11.1616-26.112 0-2.2528-25.2416-3.7376-55.7056-3.7376H372.6848V456.0896l46.0288-2.2528c43.8272-2.2528 46.0288-2.9696 55.7056-26.8288l9.6768-23.8592H320.7168v111.9232zM521.1648 515.072v111.8208H593.92c71.2704 0 73.5232-0.768 81.664-18.6368 5.2224-10.4448 8.9088-22.3744 8.9088-26.112 0-4.4544-25.2416-7.4752-55.7056-7.4752h-55.7056V403.2h-52.0192v111.872zM654.7968 406.9376c0 2.2528 17.1008 26.8288 37.12 53.6576l37.12 49.2032V626.8928l26.0096-12.6976c26.0096-12.6976 26.0096-12.6976 26.0096-59.648 0-45.4656 1.4848-49.9712 37.888-97.6896l37.888-49.9712-28.2112-2.2528c-24.5248-2.2528-31.1808 0.768-51.2512 25.344l-23.7568 27.5968-20.0704-26.8288c-17.8176-23.0912-25.2416-27.5968-49.7664-27.5968-16.3328 0.0512-28.9792 1.5872-28.9792 3.7888zM216.7808 564.992c0 34.304 1.4848 61.9008 3.7376 61.9008 2.9696 0 14.1312-5.2224 26.7264-11.1616 21.5552-11.9296 22.272-13.4144 20.0704-61.1328l-2.2528-49.2032-24.5248-0.768-23.7568-0.768v61.1328z" fill="#3366FF" p-id="21665"></path></svg>