<svg id="svg" version="1.1" xmlns="http://www.w3.org/2000/svg" xmlns:xlink="http://www.w3.org/1999/xlink" width="48" height="48" viewBox="0 0 400 400"><g id="svgg"><path id="path0" d="M186.800 61.459 C 186.030 61.552,184.140 61.882,182.600 62.191 C 181.060 62.500,178.630 62.856,177.200 62.982 C 174.454 63.224,169.011 64.407,165.000 65.635 C 163.680 66.039,161.790 66.492,160.800 66.641 C 159.810 66.790,158.370 67.225,157.600 67.607 C 156.830 67.990,155.570 68.438,154.800 68.605 C 154.030 68.771,152.773 69.243,152.006 69.653 C 151.239 70.064,150.316 70.400,149.954 70.400 C 148.839 70.400,133.748 77.577,130.600 79.605 C 129.940 80.030,128.770 80.744,128.000 81.193 C 125.284 82.775,121.491 85.220,120.380 86.105 C 119.761 86.597,118.604 87.450,117.809 88.000 C 108.489 94.446,94.446 108.489,88.000 117.809 C 87.450 118.604,86.597 119.761,86.105 120.380 C 85.220 121.491,82.775 125.284,81.193 128.000 C 80.744 128.770,80.030 129.940,79.605 130.600 C 77.577 133.748,70.400 148.839,70.400 149.954 C 70.400 150.316,70.064 151.239,69.653 152.006 C 69.243 152.773,68.771 154.030,68.605 154.800 C 68.438 155.570,67.990 156.830,67.607 157.600 C 67.225 158.370,66.790 159.810,66.641 160.800 C 66.492 161.790,66.039 163.680,65.635 165.000 C 64.407 169.011,63.224 174.454,62.982 177.200 C 62.856 178.630,62.449 181.150,62.077 182.800 C 61.510 185.312,61.400 188.111,61.400 200.000 C 61.400 211.889,61.510 214.688,62.077 217.200 C 62.449 218.850,62.856 221.370,62.982 222.800 C 63.224 225.546,64.407 230.989,65.635 235.000 C 66.039 236.320,66.492 238.210,66.641 239.200 C 66.790 240.190,67.225 241.630,67.607 242.400 C 67.990 243.170,68.438 244.430,68.605 245.200 C 68.771 245.970,69.243 247.227,69.653 247.994 C 70.064 248.761,70.400 249.684,70.400 250.046 C 70.400 251.161,77.577 266.252,79.605 269.400 C 80.030 270.060,80.744 271.230,81.193 272.000 C 82.775 274.716,85.220 278.509,86.105 279.620 C 86.597 280.239,87.450 281.396,88.000 282.191 C 94.446 291.511,108.489 305.554,117.809 312.000 C 118.604 312.550,119.761 313.403,120.380 313.895 C 121.491 314.780,125.284 317.225,128.000 318.807 C 128.770 319.256,129.940 319.970,130.600 320.395 C 133.748 322.423,148.839 329.600,149.954 329.600 C 150.316 329.600,151.239 329.936,152.006 330.347 C 152.773 330.757,154.030 331.229,154.800 331.395 C 155.570 331.562,156.830 332.010,157.600 332.393 C 158.370 332.775,159.810 333.210,160.800 333.359 C 161.790 333.508,163.680 333.961,165.000 334.365 C 169.011 335.593,174.454 336.776,177.200 337.018 C 178.630 337.144,181.150 337.551,182.800 337.923 C 187.224 338.921,212.776 338.921,217.200 337.923 C 218.850 337.551,221.370 337.144,222.800 337.018 C 225.546 336.776,230.989 335.593,235.000 334.365 C 236.320 333.961,238.210 333.508,239.200 333.359 C 240.190 333.210,241.630 332.775,242.400 332.393 C 243.170 332.010,244.430 331.562,245.200 331.395 C 245.970 331.229,247.227 330.757,247.994 330.347 C 248.761 329.936,249.684 329.600,250.046 329.600 C 251.161 329.600,266.252 322.423,269.400 320.395 C 270.060 319.970,271.230 319.256,272.000 318.807 C 274.716 317.225,278.509 314.780,279.620 313.895 C 280.239 313.403,281.396 312.550,282.191 312.000 C 291.511 305.554,305.554 291.511,312.000 282.191 C 312.550 281.396,313.403 280.239,313.895 279.620 C 314.780 278.509,317.225 274.716,318.807 272.000 C 319.256 271.230,319.970 270.060,320.395 269.400 C 322.423 266.252,329.600 251.161,329.600 250.046 C 329.600 249.684,329.936 248.761,330.347 247.994 C 330.757 247.227,331.229 245.970,331.395 245.200 C 331.562 244.430,332.010 243.170,332.393 242.400 C 332.775 241.630,333.210 240.190,333.359 239.200 C 333.508 238.210,333.961 236.320,334.365 235.000 C 335.593 230.989,336.776 225.546,337.018 222.800 C 337.144 221.370,337.551 218.850,337.923 217.200 C 338.490 214.688,338.600 211.889,338.600 200.000 C 338.600 188.111,338.490 185.312,337.923 182.800 C 337.551 181.150,337.144 178.630,337.018 177.200 C 336.776 174.454,335.593 169.011,334.365 165.000 C 333.961 163.680,333.508 161.790,333.359 160.800 C 333.210 159.810,332.775 158.370,332.393 157.600 C 332.010 156.830,331.562 155.570,331.395 154.800 C 331.229 154.030,330.757 152.773,330.347 152.006 C 329.936 151.239,329.600 150.316,329.600 149.954 C 329.600 148.839,322.423 133.748,320.395 130.600 C 319.970 129.940,319.256 128.770,318.807 128.000 C 317.225 125.284,314.780 121.491,313.895 120.380 C 313.403 119.761,312.550 118.604,312.000 117.809 C 305.554 108.489,291.511 94.446,282.191 88.000 C 281.396 87.450,280.239 86.597,279.620 86.105 C 278.509 85.220,274.716 82.775,272.000 81.193 C 271.230 80.744,270.060 80.030,269.400 79.605 C 266.252 77.577,251.161 70.400,250.046 70.400 C 249.684 70.400,248.761 70.064,247.994 69.653 C 247.227 69.243,245.970 68.771,245.200 68.605 C 244.430 68.438,243.170 67.990,242.400 67.607 C 241.630 67.225,240.190 66.790,239.200 66.641 C 238.210 66.492,236.320 66.039,235.000 65.635 C 230.719 64.325,225.485 63.222,221.600 62.812 C 219.510 62.591,217.170 62.202,216.400 61.947 C 215.027 61.493,189.936 61.079,186.800 61.459 M210.539 131.385 C 213.074 131.679,215.372 132.059,215.646 132.228 C 215.920 132.398,217.416 132.857,218.972 133.249 C 222.820 134.219,227.078 135.718,227.671 136.311 C 227.940 136.580,228.335 136.800,228.548 136.800 C 229.044 136.800,233.883 139.136,235.200 140.011 C 235.750 140.376,237.010 141.195,238.000 141.832 C 245.035 146.353,253.678 154.995,258.171 162.000 C 258.806 162.990,259.624 164.250,259.989 164.800 C 260.864 166.117,263.200 170.956,263.200 171.452 C 263.200 171.665,263.420 172.060,263.689 172.329 C 264.282 172.922,265.781 177.180,266.751 181.028 C 267.143 182.584,267.607 184.087,267.781 184.369 C 268.113 184.906,268.511 187.985,269.221 195.506 C 269.875 202.434,267.685 210.800,265.218 210.800 C 265.050 210.800,264.302 211.212,263.556 211.714 C 261.673 212.984,254.620 214.383,247.991 214.801 C 244.986 214.990,241.464 215.412,240.164 215.739 C 238.864 216.065,236.990 216.458,236.000 216.613 C 227.742 217.899,217.899 227.742,216.613 236.000 C 216.458 236.990,216.065 238.864,215.739 240.164 C 215.412 241.464,214.989 245.004,214.798 248.031 C 213.725 265.057,209.306 270.444,197.274 269.395 C 191.079 268.855,184.838 268.071,184.354 267.771 C 184.080 267.602,182.584 267.143,181.028 266.751 C 177.180 265.781,172.922 264.282,172.329 263.689 C 172.060 263.420,171.665 263.200,171.452 263.200 C 170.956 263.200,166.117 260.864,164.800 259.989 C 164.250 259.624,162.990 258.806,162.000 258.171 C 154.995 253.678,146.353 245.035,141.832 238.000 C 141.195 237.010,140.376 235.750,140.011 235.200 C 139.136 233.883,136.800 229.044,136.800 228.548 C 136.800 228.335,136.580 227.940,136.311 227.671 C 135.740 227.100,134.217 222.830,133.361 219.400 C 133.032 218.080,132.516 216.280,132.214 215.400 C 131.467 213.221,130.637 205.114,130.637 200.000 C 130.637 194.886,131.467 186.779,132.214 184.600 C 132.516 183.720,133.032 181.920,133.361 180.600 C 134.217 177.170,135.740 172.900,136.311 172.329 C 136.580 172.060,136.800 171.665,136.800 171.452 C 136.800 170.956,139.136 166.117,140.011 164.800 C 140.376 164.250,141.194 162.990,141.829 162.000 C 146.322 154.995,154.965 146.353,162.000 141.832 C 162.990 141.195,164.250 140.376,164.800 140.011 C 166.117 139.136,170.956 136.800,171.452 136.800 C 171.665 136.800,172.060 136.580,172.329 136.311 C 172.900 135.740,177.170 134.217,180.600 133.361 C 181.920 133.032,183.720 132.513,184.600 132.208 C 185.480 131.903,188.540 131.446,191.400 131.191 C 194.260 130.937,196.870 130.664,197.200 130.586 C 198.156 130.360,205.516 130.801,210.539 131.385 " stroke="none" fill="#0d54fc" fill-rule="evenodd"></path><path id="path1" d="M67.600 0.400 C 67.600 0.621,66.550 0.800,65.250 0.800 C 61.788 0.800,60.400 1.158,60.400 2.050 C 60.400 2.712,60.071 2.800,57.600 2.800 C 54.880 2.800,54.800 2.829,54.800 3.800 C 54.800 4.771,54.720 4.800,52.000 4.800 C 49.523 4.800,49.200 4.887,49.200 5.555 C 49.200 6.142,48.802 6.369,47.400 6.579 C 45.978 6.792,45.600 7.012,45.600 7.625 C 45.600 8.216,45.321 8.400,44.421 8.400 C 43.717 8.400,42.806 8.803,42.162 9.400 C 41.569 9.950,40.839 10.400,40.542 10.400 C 40.244 10.400,40.000 10.750,40.000 11.178 C 40.000 11.823,39.674 11.977,38.100 12.078 C 36.479 12.182,36.181 12.332,36.072 13.100 C 35.990 13.678,35.668 14.000,35.172 14.000 C 34.682 14.000,34.400 14.276,34.400 14.755 C 34.400 15.342,34.002 15.569,32.600 15.779 C 31.178 15.992,30.800 16.212,30.800 16.825 C 30.800 17.385,30.523 17.600,29.800 17.600 C 29.000 17.600,28.800 17.800,28.800 18.600 C 28.800 19.400,28.600 19.600,27.800 19.600 C 27.067 19.600,26.800 19.813,26.800 20.400 C 26.800 20.933,26.533 21.200,26.000 21.200 C 25.413 21.200,25.200 21.467,25.200 22.200 C 25.200 23.000,25.000 23.200,24.200 23.200 C 23.400 23.200,23.200 23.400,23.200 24.200 C 23.200 25.000,23.000 25.200,22.200 25.200 C 21.467 25.200,21.200 25.413,21.200 26.000 C 21.200 26.533,20.933 26.800,20.400 26.800 C 19.813 26.800,19.600 27.067,19.600 27.800 C 19.600 28.600,19.400 28.800,18.600 28.800 C 17.800 28.800,17.600 29.000,17.600 29.800 C 17.600 30.523,17.385 30.800,16.825 30.800 C 16.212 30.800,15.992 31.178,15.779 32.600 C 15.569 34.002,15.342 34.400,14.755 34.400 C 14.276 34.400,14.000 34.682,14.000 35.172 C 14.000 35.668,13.678 35.990,13.100 36.072 C 12.456 36.164,12.164 36.512,12.073 37.300 C 12.002 37.922,11.701 38.400,11.381 38.400 C 11.070 38.400,10.705 38.895,10.570 39.500 C 10.084 41.684,9.962 41.917,9.187 42.119 C 8.566 42.282,8.400 42.671,8.400 43.963 C 8.400 45.302,8.262 45.600,7.643 45.600 C 6.781 45.600,6.400 46.345,6.400 48.033 C 6.400 48.933,6.217 49.200,5.600 49.200 C 4.876 49.200,4.800 49.467,4.800 52.000 C 4.800 54.720,4.771 54.800,3.800 54.800 C 2.829 54.800,2.800 54.880,2.800 57.600 C 2.800 60.081,2.714 60.400,2.043 60.400 C 1.072 60.400,0.800 61.151,0.800 63.833 C 0.800 65.025,0.620 66.000,0.400 66.000 C 0.134 66.000,0.000 110.933,0.000 200.000 C 0.000 284.790,0.140 334.000,0.382 334.000 C 0.592 334.000,0.817 335.215,0.882 336.700 C 0.989 339.153,1.082 339.412,1.900 339.528 C 2.734 339.646,2.800 339.858,2.800 342.428 C 2.800 345.118,2.830 345.200,3.800 345.200 C 4.771 345.200,4.800 345.280,4.800 348.000 C 4.800 350.506,4.882 350.800,5.577 350.800 C 6.205 350.800,6.378 351.126,6.477 352.500 C 6.579 353.913,6.752 354.222,7.500 354.328 C 8.279 354.438,8.400 354.695,8.400 356.228 C 8.400 357.203,8.567 358.000,8.771 358.000 C 9.525 358.000,10.400 359.290,10.400 360.402 C 10.400 361.182,10.646 361.624,11.175 361.792 C 11.601 361.927,12.006 362.434,12.075 362.919 C 12.154 363.479,12.528 363.847,13.100 363.928 C 13.795 364.027,14.000 364.318,14.000 365.205 C 14.000 365.871,14.313 366.575,14.743 366.877 C 15.151 367.165,15.607 367.786,15.756 368.257 C 15.905 368.728,16.381 369.206,16.813 369.319 C 17.280 369.441,17.600 369.866,17.600 370.363 C 17.600 370.989,17.852 371.200,18.600 371.200 C 19.400 371.200,19.600 371.400,19.600 372.200 C 19.600 372.933,19.813 373.200,20.400 373.200 C 20.933 373.200,21.200 373.467,21.200 374.000 C 21.200 374.587,21.467 374.800,22.200 374.800 C 23.000 374.800,23.200 375.000,23.200 375.800 C 23.200 376.600,23.400 376.800,24.200 376.800 C 25.000 376.800,25.200 377.000,25.200 377.800 C 25.200 378.533,25.413 378.800,26.000 378.800 C 26.533 378.800,26.800 379.067,26.800 379.600 C 26.800 380.187,27.067 380.400,27.800 380.400 C 28.600 380.400,28.800 380.600,28.800 381.400 C 28.800 382.148,29.011 382.400,29.637 382.400 C 30.134 382.400,30.559 382.720,30.681 383.187 C 30.794 383.619,31.272 384.095,31.743 384.244 C 32.214 384.393,32.835 384.849,33.123 385.257 C 33.425 385.687,34.129 386.000,34.795 386.000 C 35.682 386.000,35.973 386.205,36.072 386.900 C 36.153 387.472,36.521 387.846,37.081 387.925 C 37.566 387.994,38.073 388.399,38.208 388.825 C 38.376 389.354,38.818 389.600,39.598 389.600 C 40.710 389.600,42.000 390.475,42.000 391.229 C 42.000 391.433,42.797 391.600,43.772 391.600 C 45.305 391.600,45.562 391.721,45.672 392.500 C 45.778 393.248,46.087 393.421,47.500 393.523 C 48.874 393.622,49.200 393.795,49.200 394.423 C 49.200 395.118,49.494 395.200,52.000 395.200 C 54.720 395.200,54.800 395.229,54.800 396.200 C 54.800 397.170,54.882 397.200,57.572 397.200 C 60.142 397.200,60.354 397.266,60.472 398.100 C 60.588 398.918,60.847 399.011,63.300 399.118 C 64.785 399.183,66.000 399.408,66.000 399.618 C 66.000 399.860,115.210 400.000,200.000 400.000 C 289.067 400.000,334.000 399.866,334.000 399.600 C 334.000 399.380,334.975 399.200,336.167 399.200 C 338.849 399.200,339.600 398.928,339.600 397.957 C 339.600 397.286,339.919 397.200,342.400 397.200 C 345.120 397.200,345.200 397.171,345.200 396.200 C 345.200 395.229,345.280 395.200,348.000 395.200 C 350.533 395.200,350.800 395.124,350.800 394.400 C 350.800 393.783,351.067 393.600,351.967 393.600 C 353.655 393.600,354.400 393.219,354.400 392.357 C 354.400 391.738,354.698 391.600,356.037 391.600 C 357.341 391.600,357.718 391.436,357.885 390.796 C 358.004 390.342,358.554 389.890,359.148 389.758 C 361.277 389.287,361.600 389.135,361.600 388.600 C 361.600 388.299,362.095 387.996,362.700 387.927 C 363.488 387.836,363.836 387.544,363.928 386.900 C 364.010 386.322,364.332 386.000,364.828 386.000 C 365.318 386.000,365.600 385.724,365.600 385.245 C 365.600 384.658,365.998 384.431,367.400 384.221 C 368.822 384.008,369.200 383.788,369.200 383.175 C 369.200 382.615,369.477 382.400,370.200 382.400 C 371.000 382.400,371.200 382.200,371.200 381.400 C 371.200 380.600,371.400 380.400,372.200 380.400 C 372.933 380.400,373.200 380.187,373.200 379.600 C 373.200 379.067,373.467 378.800,374.000 378.800 C 374.587 378.800,374.800 378.533,374.800 377.800 C 374.800 377.000,375.000 376.800,375.800 376.800 C 376.600 376.800,376.800 376.600,376.800 375.800 C 376.800 375.000,377.000 374.800,377.800 374.800 C 378.533 374.800,378.800 374.587,378.800 374.000 C 378.800 373.467,379.067 373.200,379.600 373.200 C 380.187 373.200,380.400 372.933,380.400 372.200 C 380.400 371.400,380.600 371.200,381.400 371.200 C 382.200 371.200,382.400 371.000,382.400 370.200 C 382.400 369.477,382.615 369.200,383.175 369.200 C 383.788 369.200,384.008 368.822,384.221 367.400 C 384.431 365.998,384.658 365.600,385.245 365.600 C 385.724 365.600,386.000 365.318,386.000 364.828 C 386.000 364.332,386.322 364.010,386.900 363.928 C 387.668 363.819,387.818 363.521,387.922 361.900 C 388.023 360.326,388.177 360.000,388.822 360.000 C 389.250 360.000,389.600 359.756,389.600 359.458 C 389.600 359.161,390.050 358.431,390.600 357.838 C 391.197 357.194,391.600 356.283,391.600 355.579 C 391.600 354.679,391.784 354.400,392.375 354.400 C 392.988 354.400,393.208 354.022,393.421 352.600 C 393.631 351.198,393.858 350.800,394.445 350.800 C 395.113 350.800,395.200 350.477,395.200 348.000 C 395.200 345.280,395.229 345.200,396.200 345.200 C 397.171 345.200,397.200 345.120,397.200 342.400 C 397.200 339.929,397.288 339.600,397.950 339.600 C 398.842 339.600,399.200 338.212,399.200 334.750 C 399.200 333.450,399.379 332.400,399.600 332.400 C 399.866 332.400,400.000 288.000,400.000 200.000 C 400.000 112.000,399.866 67.600,399.600 67.600 C 399.375 67.600,399.200 66.475,399.200 65.026 C 399.200 62.104,398.695 60.400,397.828 60.400 C 397.376 60.400,397.209 59.763,397.118 57.700 C 397.011 55.247,396.918 54.988,396.100 54.872 C 395.266 54.754,395.200 54.542,395.200 51.972 C 395.200 49.530,395.111 49.200,394.451 49.200 C 393.889 49.200,393.640 48.808,393.451 47.627 C 393.277 46.540,392.952 45.975,392.400 45.800 C 391.889 45.638,391.600 45.195,391.600 44.573 C 391.600 43.886,391.378 43.600,390.845 43.600 C 390.258 43.600,390.031 43.202,389.821 41.800 C 389.611 40.399,389.384 40.000,388.797 40.000 C 388.182 40.000,388.021 39.651,387.922 38.100 C 387.818 36.479,387.668 36.181,386.900 36.072 C 386.322 35.990,386.000 35.668,386.000 35.172 C 386.000 34.667,385.724 34.400,385.200 34.400 C 384.610 34.400,384.400 34.133,384.400 33.382 C 384.400 32.822,383.964 31.928,383.432 31.396 C 382.900 30.863,382.403 30.106,382.328 29.714 C 382.253 29.321,381.789 28.942,381.296 28.872 C 380.649 28.780,380.400 28.474,380.400 27.772 C 380.400 27.067,380.181 26.800,379.600 26.800 C 379.067 26.800,378.800 26.533,378.800 26.000 C 378.800 25.413,378.533 25.200,377.800 25.200 C 377.000 25.200,376.800 25.000,376.800 24.200 C 376.800 23.400,376.600 23.200,375.800 23.200 C 375.000 23.200,374.800 23.000,374.800 22.200 C 374.800 21.467,374.587 21.200,374.000 21.200 C 373.467 21.200,373.200 20.933,373.200 20.400 C 373.200 19.819,372.933 19.600,372.228 19.600 C 371.526 19.600,371.220 19.351,371.128 18.704 C 371.058 18.211,370.679 17.747,370.286 17.672 C 369.894 17.597,369.137 17.100,368.604 16.568 C 368.072 16.036,367.178 15.600,366.618 15.600 C 365.867 15.600,365.600 15.390,365.600 14.800 C 365.600 14.276,365.333 14.000,364.828 14.000 C 364.332 14.000,364.010 13.678,363.928 13.100 C 363.819 12.332,363.521 12.182,361.900 12.078 C 360.349 11.979,360.000 11.818,360.000 11.203 C 360.000 10.616,359.601 10.389,358.200 10.179 C 356.798 9.969,356.400 9.742,356.400 9.155 C 356.400 8.622,356.114 8.400,355.427 8.400 C 354.805 8.400,354.362 8.111,354.200 7.600 C 354.025 7.048,353.460 6.723,352.373 6.549 C 351.192 6.360,350.800 6.111,350.800 5.549 C 350.800 4.889,350.470 4.800,348.028 4.800 C 345.458 4.800,345.246 4.734,345.128 3.900 C 345.012 3.082,344.753 2.989,342.300 2.882 C 340.237 2.791,339.600 2.624,339.600 2.172 C 339.600 1.305,337.896 0.800,334.974 0.800 C 333.525 0.800,332.400 0.625,332.400 0.400 C 332.400 0.134,288.000 0.000,200.000 0.000 C 112.000 0.000,67.600 0.134,67.600 0.400 M216.400 61.947 C 217.170 62.202,219.510 62.591,221.600 62.812 C 225.485 63.222,230.719 64.325,235.000 65.635 C 236.320 66.039,238.210 66.492,239.200 66.641 C 240.190 66.790,241.630 67.225,242.400 67.607 C 243.170 67.990,244.430 68.438,245.200 68.605 C 245.970 68.771,247.227 69.243,247.994 69.653 C 248.761 70.064,249.684 70.400,250.046 70.400 C 251.161 70.400,266.252 77.577,269.400 79.605 C 270.060 80.030,271.230 80.744,272.000 81.193 C 274.716 82.775,278.509 85.220,279.620 86.105 C 280.239 86.597,281.396 87.450,282.191 88.000 C 291.511 94.446,305.554 108.489,312.000 117.809 C 312.550 118.604,313.403 119.761,313.895 120.380 C 314.780 121.491,317.225 125.284,318.807 128.000 C 319.256 128.770,319.970 129.940,320.395 130.600 C 322.423 133.748,329.600 148.839,329.600 149.954 C 329.600 150.316,329.936 151.239,330.347 152.006 C 330.757 152.773,331.229 154.030,331.395 154.800 C 331.562 155.570,332.010 156.830,332.393 157.600 C 332.775 158.370,333.210 159.810,333.359 160.800 C 333.508 161.790,333.961 163.680,334.365 165.000 C 335.593 169.011,336.776 174.454,337.018 177.200 C 337.144 178.630,337.551 181.150,337.923 182.800 C 338.490 185.312,338.600 188.111,338.600 200.000 C 338.600 211.889,338.490 214.688,337.923 217.200 C 337.551 218.850,337.144 221.370,337.018 222.800 C 336.776 225.546,335.593 230.989,334.365 235.000 C 333.961 236.320,333.508 238.210,333.359 239.200 C 333.210 240.190,332.775 241.630,332.393 242.400 C 332.010 243.170,331.562 244.430,331.395 245.200 C 331.229 245.970,330.757 247.227,330.347 247.994 C 329.936 248.761,329.600 249.684,329.600 250.046 C 329.600 251.161,322.423 266.252,320.395 269.400 C 319.970 270.060,319.256 271.230,318.807 272.000 C 317.225 274.716,314.780 278.509,313.895 279.620 C 313.403 280.239,312.550 281.396,312.000 282.191 C 305.554 291.511,291.511 305.554,282.191 312.000 C 281.396 312.550,280.239 313.403,279.620 313.895 C 278.509 314.780,274.716 317.225,272.000 318.807 C 271.230 319.256,270.060 319.970,269.400 320.395 C 266.252 322.423,251.161 329.600,250.046 329.600 C 249.684 329.600,248.761 329.936,247.994 330.347 C 247.227 330.757,245.970 331.229,245.200 331.395 C 244.430 331.562,243.170 332.010,242.400 332.393 C 241.630 332.775,240.190 333.210,239.200 333.359 C 238.210 333.508,236.320 333.961,235.000 334.365 C 230.989 335.593,225.546 336.776,222.800 337.018 C 221.370 337.144,218.850 337.551,217.200 337.923 C 212.776 338.921,187.224 338.921,182.800 337.923 C 181.150 337.551,178.630 337.144,177.200 337.018 C 174.454 336.776,169.011 335.593,165.000 334.365 C 163.680 333.961,161.790 333.508,160.800 333.359 C 159.810 333.210,158.370 332.775,157.600 332.393 C 156.830 332.010,155.570 331.562,154.800 331.395 C 154.030 331.229,152.773 330.757,152.006 330.347 C 151.239 329.936,150.316 329.600,149.954 329.600 C 148.839 329.600,133.748 322.423,130.600 320.395 C 129.940 319.970,128.770 319.256,128.000 318.807 C 125.284 317.225,121.491 314.780,120.380 313.895 C 119.761 313.403,118.604 312.550,117.809 312.000 C 108.489 305.554,94.446 291.511,88.000 282.191 C 87.450 281.396,86.597 280.239,86.105 279.620 C 85.220 278.509,82.775 274.716,81.193 272.000 C 80.744 271.230,80.030 270.060,79.605 269.400 C 77.577 266.252,70.400 251.161,70.400 250.046 C 70.400 249.684,70.064 248.761,69.653 247.994 C 69.243 247.227,68.771 245.970,68.605 245.200 C 68.438 244.430,67.990 243.170,67.607 242.400 C 67.225 241.630,66.790 240.190,66.641 239.200 C 66.492 238.210,66.039 236.320,65.635 235.000 C 64.407 230.989,63.224 225.546,62.982 222.800 C 62.856 221.370,62.449 218.850,62.077 217.200 C 61.510 214.688,61.400 211.889,61.400 200.000 C 61.400 188.111,61.510 185.312,62.077 182.800 C 62.449 181.150,62.856 178.630,62.982 177.200 C 63.224 174.454,64.407 169.011,65.635 165.000 C 66.039 163.680,66.492 161.790,66.641 160.800 C 66.790 159.810,67.225 158.370,67.607 157.600 C 67.990 156.830,68.438 155.570,68.605 154.800 C 68.771 154.030,69.243 152.773,69.653 152.006 C 70.064 151.239,70.400 150.316,70.400 149.954 C 70.400 148.839,77.577 133.748,79.605 130.600 C 80.030 129.940,80.744 128.770,81.193 128.000 C 82.775 125.284,85.220 121.491,86.105 120.380 C 86.597 119.761,87.450 118.604,88.000 117.809 C 94.446 108.489,108.489 94.446,117.809 88.000 C 118.604 87.450,119.761 86.597,120.380 86.105 C 121.491 85.220,125.284 82.775,128.000 81.193 C 128.770 80.744,129.940 80.030,130.600 79.605 C 133.748 77.577,148.839 70.400,149.954 70.400 C 150.316 70.400,151.239 70.064,152.006 69.653 C 152.773 69.243,154.030 68.771,154.800 68.605 C 155.570 68.438,156.830 67.990,157.600 67.607 C 158.370 67.225,159.810 66.790,160.800 66.641 C 161.790 66.492,163.680 66.039,165.000 65.635 C 169.011 64.407,174.454 63.224,177.200 62.982 C 178.630 62.856,181.060 62.500,182.600 62.191 C 187.022 61.303,187.468 61.284,201.600 61.386 C 210.429 61.450,215.478 61.642,216.400 61.947 M197.200 130.586 C 196.870 130.664,194.260 130.937,191.400 131.191 C 188.540 131.446,185.480 131.903,184.600 132.208 C 183.720 132.513,181.920 133.032,180.600 133.361 C 177.170 134.217,172.900 135.740,172.329 136.311 C 172.060 136.580,171.665 136.800,171.452 136.800 C 170.956 136.800,166.117 139.136,164.800 140.011 C 164.250 140.376,162.990 141.195,162.000 141.832 C 154.965 146.353,146.322 154.995,141.829 162.000 C 141.194 162.990,140.376 164.250,140.011 164.800 C 139.136 166.117,136.800 170.956,136.800 171.452 C 136.800 171.665,136.580 172.060,136.311 172.329 C 135.740 172.900,134.217 177.170,133.361 180.600 C 133.032 181.920,132.516 183.720,132.214 184.600 C 131.467 186.779,130.637 194.886,130.637 200.000 C 130.637 205.114,131.467 213.221,132.214 215.400 C 132.516 216.280,133.032 218.080,133.361 219.400 C 134.217 222.830,135.740 227.100,136.311 227.671 C 136.580 227.940,136.800 228.335,136.800 228.548 C 136.800 229.044,139.136 233.883,140.011 235.200 C 140.376 235.750,141.195 237.010,141.832 238.000 C 146.353 245.035,154.995 253.678,162.000 258.171 C 162.990 258.806,164.250 259.624,164.800 259.989 C 166.117 260.864,170.956 263.200,171.452 263.200 C 171.665 263.200,172.060 263.420,172.329 263.689 C 172.922 264.282,177.180 265.781,181.028 266.751 C 182.584 267.143,184.080 267.602,184.354 267.771 C 184.838 268.071,191.079 268.855,197.274 269.395 C 209.306 270.444,213.725 265.057,214.798 248.031 C 214.989 245.004,215.412 241.464,215.739 240.164 C 216.065 238.864,216.458 236.990,216.613 236.000 C 217.899 227.742,227.742 217.899,236.000 216.613 C 236.990 216.458,238.864 216.065,240.164 215.739 C 241.464 215.412,244.986 214.990,247.991 214.801 C 254.620 214.383,261.673 212.984,263.556 211.714 C 264.302 211.212,265.050 210.800,265.218 210.800 C 267.685 210.800,269.875 202.434,269.221 195.506 C 268.511 187.985,268.113 184.906,267.781 184.369 C 267.607 184.087,267.143 182.584,266.751 181.028 C 265.781 177.180,264.282 172.922,263.689 172.329 C 263.420 172.060,263.200 171.665,263.200 171.452 C 263.200 170.956,260.864 166.117,259.989 164.800 C 259.624 164.250,258.806 162.990,258.171 162.000 C 253.678 154.995,245.035 146.353,238.000 141.832 C 237.010 141.195,235.750 140.376,235.200 140.011 C 233.883 139.136,229.044 136.800,228.548 136.800 C 228.335 136.800,227.940 136.580,227.671 136.311 C 227.078 135.718,222.820 134.219,218.972 133.249 C 217.416 132.857,215.920 132.398,215.646 132.228 C 214.594 131.578,198.909 130.182,197.200 130.586 " stroke="none" fill="#fcfcfc" fill-rule="evenodd"></path></g></svg>