<?xml version="1.0" standalone="no"?><!DOCTYPE svg PUBLIC "-//W3C//DTD SVG 1.1//EN" "http://www.w3.org/Graphics/SVG/1.1/DTD/svg11.dtd"><svg t="1707706656100" class="icon" viewBox="0 0 1024 1024" version="1.1" xmlns="http://www.w3.org/2000/svg" p-id="20954" xmlns:xlink="http://www.w3.org/1999/xlink" width="48" height="48"><path d="M0 0m225.890154 0l572.219692 0q225.890154 0 225.890154 225.890154l0 572.219692q0 225.890154-225.890154 225.890154l-572.219692 0q-225.890154 0-225.890154-225.890154l0-572.219692q0-225.890154 225.890154-225.890154Z" fill="#11A45C" p-id="20955"></path><path d="M320.558989 292.925657C452.74254 292.925657 578.572891 420.359729 578.572891 420.359729l-56.598985 44.01595s-111.742287-95.149951-201.414917-95.149951c-61.348465 0-140.794294 44.830147-140.794294 138.438059 0 91.288686 58.202706 143.175202 141.583818 143.175202 217.119038 0 294.196297-357.913333 362.687484-357.913332 44.842483 0 74.893732 104.735263 127.434072 192.717819 62.915176 105.401424 111.877986 202.315467 111.877986 206.090378 0 21.243124-19.849121 39.328153-34.011204 39.328153S617.111521 539.923235 617.111521 539.923235l63.717036-46.409194 81.012541 55.056947-79.433494-144.729577c-24.783645 24.771308-143.95239 327.232932-357.123809 327.232932-83.381112 0-224.520824-61.373137-224.520823-224.187743-0.049345-92.041201 69.55211-213.960943 219.796017-213.960943z" fill="#FFFFFF" p-id="20956"></path></svg>