<svg id="svg" version="1.1" xmlns="http://www.w3.org/2000/svg" xmlns:xlink="http://www.w3.org/1999/xlink" width="47" height="47" viewBox="0 0 400 400"><g id="svgg"><path id="path0" d="M194.367 45.362 C 194.275 45.450,190.660 45.726,186.333 45.975 C 182.007 46.223,177.482 46.683,176.279 46.996 C 175.075 47.310,172.495 47.760,170.545 47.997 C 168.595 48.234,165.964 48.782,164.698 49.214 C 163.433 49.646,161.993 50.008,161.498 50.018 C 161.004 50.027,159.880 50.301,159.000 50.625 C 158.120 50.950,156.320 51.474,155.000 51.790 C 152.047 52.497,146.834 54.274,146.221 54.783 C 145.972 54.989,145.056 55.330,144.184 55.541 C 142.557 55.934,138.668 57.421,137.600 58.058 C 137.270 58.255,136.370 58.687,135.600 59.018 C 134.830 59.349,133.930 59.800,133.600 60.021 C 133.270 60.242,132.660 60.536,132.244 60.673 C 131.055 61.066,123.072 65.195,122.403 65.764 C 122.071 66.046,120.720 66.878,119.400 67.613 C 118.080 68.349,116.550 69.248,116.000 69.613 C 115.450 69.977,114.190 70.793,113.200 71.425 C 112.210 72.058,110.590 73.219,109.600 74.006 C 108.610 74.793,107.350 75.736,106.800 76.102 C 103.978 77.981,98.590 82.438,94.492 86.284 C 91.963 88.658,89.767 90.690,89.612 90.800 C 87.448 92.344,73.489 109.321,70.600 113.924 C 70.380 114.274,69.345 115.910,68.300 117.558 C 67.255 119.207,66.400 120.768,66.400 121.029 C 66.400 121.289,66.120 121.735,65.777 122.019 C 65.434 122.304,64.888 123.091,64.563 123.768 C 64.238 124.446,63.529 125.720,62.989 126.600 C 62.448 127.480,61.720 128.830,61.371 129.600 C 61.023 130.370,60.012 132.530,59.125 134.400 C 55.912 141.177,53.600 146.720,53.600 147.647 C 53.600 147.885,53.339 148.646,53.021 149.340 C 52.011 151.538,50.765 155.301,50.020 158.400 C 48.368 165.277,47.905 167.095,47.347 168.911 C 47.024 169.962,46.507 173.022,46.200 175.711 C 45.892 178.400,45.437 181.230,45.189 182.000 C 44.035 185.582,44.027 217.946,45.179 220.954 C 45.423 221.589,45.890 224.410,46.218 227.224 C 46.545 230.037,47.055 233.027,47.350 233.869 C 47.645 234.711,48.020 236.300,48.183 237.400 C 48.346 238.500,48.649 239.719,48.858 240.108 C 49.066 240.498,49.574 242.298,49.987 244.108 C 50.854 247.915,51.746 250.717,52.833 253.044 C 53.255 253.948,53.600 254.889,53.600 255.136 C 53.600 255.637,55.285 260.139,56.394 262.600 C 59.941 270.475,63.389 277.414,64.260 278.431 C 64.557 278.779,64.805 279.229,64.812 279.431 C 64.818 279.634,65.718 281.150,66.811 282.800 C 67.904 284.450,68.799 286.003,68.799 286.251 C 68.800 286.499,69.089 286.942,69.442 287.235 C 69.795 287.527,70.248 288.135,70.450 288.584 C 70.652 289.033,71.308 290.052,71.909 290.849 C 72.509 291.645,74.131 293.805,75.514 295.649 C 80.901 302.831,88.286 310.940,94.600 316.608 C 97.240 318.977,99.685 321.205,100.033 321.558 C 100.381 321.911,101.191 322.594,101.833 323.076 C 102.475 323.557,104.440 325.043,106.200 326.376 C 109.128 328.595,114.096 332.003,117.600 334.196 C 118.370 334.678,119.540 335.410,120.200 335.824 C 121.886 336.881,123.538 337.824,125.400 338.792 C 126.280 339.250,127.270 339.786,127.600 339.984 C 127.930 340.181,130.360 341.361,133.000 342.605 C 135.640 343.849,138.141 345.050,138.558 345.273 C 139.318 345.680,142.237 346.752,145.600 347.860 C 146.590 348.185,147.940 348.701,148.600 349.006 C 150.523 349.893,155.660 351.529,157.400 351.809 C 158.280 351.950,160.080 352.404,161.400 352.818 C 165.352 354.057,170.752 355.174,175.000 355.631 C 177.200 355.868,180.170 356.349,181.600 356.699 C 185.501 357.655,213.767 357.629,217.716 356.667 C 219.209 356.302,222.089 355.823,224.116 355.601 C 227.865 355.191,232.916 354.146,237.600 352.811 C 239.030 352.403,241.280 351.798,242.600 351.465 C 247.392 350.259,250.442 349.208,255.111 347.153 C 256.052 346.739,257.104 346.400,257.449 346.400 C 257.960 346.400,264.403 343.503,267.300 341.970 C 268.467 341.353,269.286 340.940,272.000 339.602 C 273.430 338.896,275.410 337.804,276.400 337.173 C 278.233 336.006,278.845 335.636,283.832 332.679 C 285.390 331.756,286.954 330.730,287.308 330.400 C 287.663 330.070,288.601 329.350,289.394 328.800 C 290.188 328.250,291.880 326.990,293.155 326.000 C 294.430 325.010,296.072 323.750,296.804 323.200 C 304.463 317.448,316.198 305.338,322.969 296.200 C 327.717 289.791,328.573 288.581,329.873 286.439 C 331.296 284.095,333.735 280.030,335.178 277.600 C 335.635 276.830,336.170 275.930,336.367 275.600 C 336.713 275.021,339.905 268.309,341.788 264.200 C 342.293 263.100,342.996 261.570,343.351 260.800 C 343.706 260.030,344.257 258.590,344.575 257.600 C 344.893 256.610,345.713 254.270,346.398 252.400 C 347.801 248.565,349.050 244.364,349.667 241.400 C 349.896 240.300,350.425 238.306,350.843 236.968 C 351.261 235.631,351.777 233.201,351.990 231.568 C 352.203 229.936,352.642 227.340,352.965 225.800 C 354.411 218.898,355.288 201.752,354.618 193.475 C 353.660 181.645,353.204 177.262,352.825 176.266 C 352.634 175.763,352.275 173.690,352.028 171.658 C 351.781 169.627,351.319 167.298,351.000 166.482 C 350.682 165.667,350.157 163.830,349.833 162.400 C 348.633 157.092,347.923 154.555,347.171 152.889 C 346.747 151.948,346.398 150.868,346.396 150.489 C 346.394 150.110,345.950 148.900,345.409 147.800 C 344.868 146.700,344.419 145.507,344.413 145.148 C 344.406 144.790,343.936 143.440,343.369 142.148 C 341.632 138.191,340.348 135.429,339.953 134.800 C 339.746 134.470,339.464 133.860,339.327 133.444 C 338.865 132.044,334.834 124.370,334.013 123.326 C 333.566 122.757,333.200 122.074,333.200 121.808 C 333.200 121.542,332.840 120.998,332.400 120.600 C 331.960 120.202,331.600 119.689,331.600 119.460 C 331.600 119.230,331.150 118.358,330.600 117.522 C 330.050 116.685,329.110 115.235,328.511 114.300 C 327.523 112.757,326.814 111.770,324.992 109.400 C 324.654 108.960,323.380 107.250,322.162 105.600 C 320.021 102.700,317.879 100.210,312.400 94.251 C 306.035 87.330,297.214 79.575,289.474 74.099 C 286.039 71.668,284.957 70.932,283.634 70.127 C 282.845 69.646,281.570 68.869,280.800 68.400 C 278.856 67.216,276.458 65.781,274.800 64.811 C 274.030 64.360,273.130 63.828,272.800 63.629 C 271.439 62.806,262.911 58.800,262.521 58.800 C 262.288 58.800,261.883 58.542,261.621 58.226 C 261.359 57.910,260.572 57.529,259.872 57.380 C 259.173 57.230,258.150 56.862,257.600 56.563 C 256.588 56.011,253.454 54.872,249.800 53.727 C 248.700 53.383,247.608 52.948,247.372 52.762 C 247.137 52.575,245.776 52.151,244.347 51.820 C 242.918 51.488,240.973 50.943,240.024 50.609 C 239.076 50.274,237.868 50.000,237.340 50.000 C 236.812 50.000,235.350 49.637,234.090 49.193 C 232.831 48.750,230.810 48.287,229.600 48.166 C 228.390 48.045,225.690 47.601,223.600 47.180 C 218.249 46.102,195.089 44.661,194.367 45.362 M212.658 64.806 C 215.769 64.999,219.369 65.419,220.658 65.741 C 221.946 66.062,224.080 66.439,225.400 66.578 C 226.720 66.718,228.970 67.175,230.400 67.595 C 231.830 68.014,234.080 68.615,235.400 68.931 C 238.524 69.676,242.311 70.870,245.800 72.209 C 247.340 72.800,249.519 73.607,250.642 74.002 C 251.765 74.397,253.025 74.906,253.442 75.131 C 254.280 75.585,263.047 79.762,264.000 80.162 C 264.330 80.300,265.410 80.949,266.400 81.605 C 267.390 82.260,268.650 83.023,269.200 83.300 C 270.280 83.843,271.481 84.593,274.600 86.673 C 277.861 88.847,278.499 89.300,280.675 90.989 C 281.816 91.875,283.393 93.050,284.181 93.600 C 288.765 96.804,303.196 111.235,306.400 115.819 C 306.950 116.607,308.126 118.184,309.013 119.325 C 309.899 120.466,310.929 121.850,311.299 122.400 C 311.670 122.950,312.491 124.129,313.122 125.019 C 313.754 125.910,314.941 127.800,315.761 129.219 C 316.580 130.639,317.777 132.610,318.419 133.600 C 319.061 134.590,319.700 135.670,319.838 136.000 C 319.977 136.330,321.060 138.593,322.245 141.028 C 323.430 143.464,324.400 145.647,324.400 145.879 C 324.400 146.112,324.658 146.517,324.974 146.779 C 325.290 147.041,325.669 147.828,325.816 148.528 C 325.964 149.227,326.326 150.340,326.621 151.000 C 326.916 151.660,327.505 153.190,327.929 154.400 C 328.353 155.610,328.897 157.140,329.138 157.800 C 330.062 160.334,331.600 165.682,331.600 166.362 C 331.600 166.754,331.938 168.058,332.352 169.260 C 332.765 170.461,333.234 172.569,333.393 173.943 C 333.553 175.317,333.932 177.377,334.236 178.521 C 334.539 179.664,334.976 183.030,335.205 186.000 C 335.434 188.970,335.805 193.594,336.028 196.275 C 336.302 199.564,336.303 202.818,336.031 206.275 C 335.809 209.094,335.439 213.837,335.210 216.815 C 334.980 219.794,334.610 222.854,334.387 223.615 C 334.163 224.377,333.797 226.350,333.572 228.000 C 333.347 229.650,332.826 232.080,332.414 233.400 C 332.003 234.720,331.553 236.520,331.414 237.400 C 331.136 239.164,329.885 243.208,328.754 246.000 C 328.353 246.990,327.834 248.557,327.602 249.483 C 327.369 250.409,327.021 251.263,326.829 251.382 C 326.637 251.500,326.266 252.489,326.005 253.579 C 325.744 254.669,325.276 255.771,324.965 256.029 C 324.654 256.287,324.400 256.687,324.400 256.917 C 324.400 257.318,323.612 259.053,320.821 264.800 C 320.126 266.230,319.031 268.210,318.387 269.200 C 317.743 270.190,317.036 271.408,316.816 271.906 C 316.596 272.404,316.076 273.304,315.662 273.906 C 315.247 274.508,314.209 276.056,313.354 277.347 C 312.499 278.637,311.440 280.187,311.000 280.790 C 310.560 281.394,309.846 282.408,309.414 283.044 C 304.571 290.169,289.760 305.628,284.407 309.147 C 283.860 309.506,283.113 310.070,282.747 310.400 C 282.381 310.730,281.428 311.450,280.631 312.000 C 279.833 312.550,278.215 313.720,277.034 314.600 C 275.853 315.480,274.373 316.495,273.744 316.855 C 273.115 317.215,271.543 318.160,270.252 318.955 C 268.960 319.750,267.773 320.400,267.614 320.400 C 267.454 320.400,267.013 320.744,266.633 321.164 C 266.252 321.584,265.474 322.045,264.902 322.189 C 264.331 322.332,263.435 322.786,262.913 323.197 C 262.390 323.608,261.443 324.059,260.809 324.198 C 260.174 324.337,259.441 324.710,259.179 325.026 C 258.917 325.342,258.502 325.600,258.257 325.600 C 258.012 325.600,256.909 326.034,255.806 326.565 C 251.967 328.412,250.170 329.187,248.390 329.766 C 247.406 330.086,245.340 330.827,243.800 331.414 C 242.260 332.001,240.280 332.664,239.400 332.888 C 238.520 333.112,236.360 333.701,234.600 334.197 C 229.164 335.727,224.332 336.743,221.200 337.016 C 219.550 337.160,217.120 337.567,215.800 337.921 C 212.649 338.765,186.828 338.900,184.126 338.087 C 183.206 337.810,180.180 337.317,177.402 336.992 C 174.623 336.668,172.034 336.232,171.647 336.025 C 171.260 335.818,169.696 335.435,168.171 335.173 C 166.647 334.912,164.948 334.469,164.395 334.188 C 163.842 333.907,162.492 333.553,161.395 333.400 C 160.298 333.247,158.763 332.803,157.984 332.412 C 157.205 332.020,155.945 331.566,155.184 331.401 C 154.423 331.237,153.132 330.764,152.316 330.351 C 151.500 329.938,150.544 329.600,150.191 329.600 C 149.504 329.600,147.346 328.664,141.000 325.613 C 138.800 324.555,136.730 323.576,136.400 323.437 C 136.070 323.298,135.080 322.744,134.200 322.206 C 133.320 321.668,132.046 320.962,131.368 320.637 C 130.691 320.312,129.904 319.766,129.619 319.423 C 129.335 319.080,128.899 318.798,128.651 318.795 C 127.969 318.787,119.354 313.058,118.400 311.978 C 118.290 311.854,117.014 310.913,115.565 309.887 C 110.409 306.238,95.238 291.342,92.868 287.600 C 92.519 287.050,91.823 286.060,91.321 285.400 C 90.818 284.740,90.138 283.840,89.810 283.400 C 89.482 282.960,88.805 282.066,88.307 281.414 C 87.280 280.071,83.797 274.757,82.620 272.738 C 79.385 267.188,78.442 265.485,77.337 263.200 C 73.821 255.928,72.468 252.872,72.201 251.600 C 72.040 250.830,71.662 249.750,71.363 249.200 C 70.597 247.795,69.230 243.804,68.623 241.200 C 68.341 239.990,67.821 238.100,67.468 237.000 C 66.461 233.864,65.576 230.051,65.149 227.000 C 64.933 225.460,64.366 222.130,63.890 219.600 C 62.878 214.228,62.636 189.361,63.557 185.400 C 63.813 184.300,64.203 182.050,64.425 180.400 C 65.241 174.314,66.076 170.370,67.599 165.400 C 68.003 164.080,68.452 162.301,68.595 161.446 C 68.739 160.591,69.204 159.244,69.628 158.452 C 70.053 157.660,70.400 156.647,70.400 156.200 C 70.400 155.753,70.736 154.761,71.147 153.994 C 71.557 153.227,72.030 151.970,72.197 151.200 C 72.364 150.430,72.821 149.170,73.213 148.400 C 73.605 147.630,74.852 145.020,75.983 142.600 C 78.436 137.356,79.942 134.418,80.596 133.600 C 80.860 133.270,81.678 131.920,82.413 130.600 C 83.149 129.280,84.048 127.750,84.413 127.200 C 84.777 126.650,85.592 125.390,86.224 124.400 C 86.856 123.410,87.649 122.298,87.986 121.929 C 88.324 121.561,89.050 120.607,89.600 119.811 C 92.684 115.347,100.600 106.182,104.455 102.615 C 109.906 97.570,114.872 93.345,117.401 91.600 C 118.198 91.050,119.784 89.862,120.925 88.961 C 122.066 88.059,123.540 87.019,124.200 86.649 C 124.860 86.279,125.940 85.626,126.600 85.199 C 127.260 84.772,128.465 84.059,129.277 83.615 C 130.089 83.171,131.383 82.380,132.153 81.857 C 132.923 81.335,135.139 80.149,137.077 79.221 C 139.015 78.294,140.870 77.398,141.200 77.230 C 146.114 74.731,147.507 74.146,152.400 72.529 C 153.390 72.202,154.920 71.609,155.800 71.212 C 156.680 70.814,158.114 70.364,158.986 70.210 C 159.859 70.057,161.029 69.700,161.586 69.418 C 162.144 69.135,163.500 68.773,164.600 68.614 C 165.700 68.454,167.219 68.066,167.976 67.751 C 168.733 67.435,171.253 66.911,173.576 66.586 C 175.899 66.260,178.410 65.793,179.155 65.548 C 181.100 64.907,196.539 64.052,202.200 64.271 C 204.840 64.373,209.546 64.614,212.658 64.806 M146.868 126.700 C 146.669 127.085,146.387 129.560,146.240 132.200 C 146.093 134.840,145.714 138.632,145.397 140.626 C 145.081 142.620,144.628 147.189,144.389 150.779 C 144.151 154.369,143.791 158.138,143.589 159.153 C 143.386 160.169,142.942 164.579,142.601 168.952 C 142.259 173.326,141.812 177.656,141.606 178.573 C 141.400 179.491,141.042 183.113,140.810 186.621 C 140.578 190.129,140.123 194.800,139.799 197.000 C 139.476 199.200,139.031 203.610,138.812 206.800 C 138.592 209.990,138.152 214.400,137.835 216.600 C 137.517 218.800,137.142 222.670,137.000 225.200 C 136.859 227.730,136.483 231.486,136.164 233.546 C 135.845 235.607,135.408 240.017,135.194 243.346 C 134.979 246.676,134.539 251.110,134.216 253.200 C 133.892 255.290,133.450 259.631,133.233 262.847 C 133.016 266.063,132.613 270.250,132.338 272.152 C 131.577 277.420,129.970 276.979,150.397 277.112 L 167.565 277.225 168.131 276.312 C 168.900 275.072,169.921 268.257,170.423 261.006 C 170.652 257.710,171.019 254.208,171.239 253.226 C 171.459 252.243,171.906 248.028,172.232 243.859 C 172.557 239.691,172.998 235.500,173.212 234.546 C 173.426 233.593,173.781 230.155,174.001 226.906 C 174.221 223.658,174.671 219.290,175.002 217.200 C 175.332 215.110,175.762 211.300,175.957 208.733 C 176.422 202.630,176.736 202.242,177.829 206.421 C 178.966 210.764,179.981 213.635,180.661 214.431 C 180.957 214.779,181.200 215.249,181.200 215.476 C 181.200 215.871,183.860 219.940,189.780 228.600 C 191.284 230.800,192.861 233.050,193.286 233.600 C 193.711 234.150,194.720 235.611,195.529 236.847 C 196.338 238.082,197.855 240.332,198.900 241.847 C 201.102 245.039,201.424 245.515,204.272 249.800 C 205.442 251.560,206.998 253.900,207.731 255.000 C 208.463 256.100,209.409 257.522,209.831 258.160 C 211.183 260.199,213.740 263.929,217.298 269.050 C 218.234 270.398,219.681 272.496,220.514 273.713 C 221.347 274.930,222.320 276.167,222.675 276.463 C 223.396 277.061,266.983 277.484,267.846 276.901 C 268.735 276.301,268.794 275.015,267.981 274.000 C 267.540 273.450,266.090 271.560,264.757 269.800 C 263.425 268.040,261.045 264.920,259.468 262.866 C 257.891 260.812,256.330 258.735,256.000 258.250 C 255.249 257.147,253.076 254.268,252.793 254.000 C 252.571 253.791,247.623 247.262,244.303 242.800 C 243.240 241.370,242.151 239.930,241.884 239.600 C 239.870 237.113,233.218 228.227,231.819 226.156 C 231.390 225.520,230.802 224.730,230.512 224.400 C 229.782 223.569,226.395 219.116,225.278 217.518 C 224.770 216.793,223.510 215.027,222.478 213.593 C 214.798 202.928,214.497 196.905,221.230 188.600 C 223.124 186.265,237.340 172.081,278.013 131.947 C 281.785 128.225,283.016 126.776,282.687 126.447 C 282.369 126.129,275.937 126.000,260.333 126.000 L 238.427 126.000 233.713 130.556 C 231.121 133.061,227.650 136.408,226.000 137.993 C 204.921 158.237,188.874 174.080,186.895 176.600 C 184.262 179.952,183.748 180.646,182.746 182.200 C 182.178 183.080,181.486 184.385,181.208 185.100 C 180.930 185.815,180.552 186.400,180.368 186.400 C 180.183 186.400,179.815 187.165,179.549 188.100 C 178.281 192.557,177.619 189.161,178.547 182.957 C 178.914 180.498,179.399 175.992,179.623 172.943 C 179.847 169.894,180.285 165.870,180.596 164.000 C 180.907 162.130,181.276 158.620,181.415 156.200 C 181.555 153.780,182.001 149.370,182.406 146.400 C 182.812 143.430,183.252 139.200,183.384 137.000 C 183.516 134.800,183.823 131.585,184.065 129.856 C 184.428 127.263,184.408 126.651,183.952 126.362 C 182.752 125.602,147.267 125.925,146.868 126.700 " stroke="none" fill="#f8fafc" fill-rule="evenodd"></path><path id="path1" d="M68.400 0.400 C 68.400 0.629,67.199 0.800,65.597 0.800 C 63.106 0.800,62.698 0.911,61.925 1.800 C 61.206 2.627,60.696 2.800,58.974 2.800 C 57.195 2.800,56.797 2.945,56.237 3.800 C 55.672 4.663,55.284 4.800,53.418 4.800 C 51.626 4.800,51.211 4.934,51.007 5.578 C 50.824 6.156,50.328 6.387,49.080 6.478 C 47.687 6.579,47.378 6.754,47.272 7.500 C 47.162 8.279,46.905 8.400,45.372 8.400 C 43.903 8.400,43.600 8.529,43.600 9.153 C 43.600 9.921,42.592 10.384,40.900 10.395 C 40.268 10.398,40.000 10.639,40.000 11.200 C 40.000 11.771,39.733 12.000,39.070 12.000 C 38.558 12.000,37.717 12.450,37.200 13.000 C 36.683 13.550,35.842 14.000,35.330 14.000 C 34.678 14.000,34.400 14.231,34.400 14.772 C 34.400 15.268,34.078 15.590,33.500 15.672 C 32.922 15.754,32.554 16.122,32.472 16.700 C 32.391 17.272,32.068 17.600,31.586 17.600 C 31.169 17.600,30.635 17.960,30.400 18.401 C 30.164 18.841,29.348 19.462,28.586 19.780 C 27.824 20.099,27.200 20.553,27.200 20.789 C 27.200 21.026,26.750 21.391,26.200 21.600 C 25.650 21.809,25.200 22.242,25.200 22.562 C 25.200 22.882,24.795 23.202,24.300 23.272 C 23.722 23.354,23.354 23.722,23.272 24.300 C 23.190 24.878,22.868 25.200,22.372 25.200 C 21.871 25.200,21.600 25.476,21.600 25.986 C 21.600 26.418,21.259 26.954,20.842 27.177 C 20.425 27.401,19.889 28.143,19.651 28.827 C 19.412 29.511,18.853 30.166,18.409 30.282 C 17.891 30.417,17.600 30.826,17.600 31.419 C 17.600 32.074,17.337 32.382,16.700 32.472 C 16.122 32.554,15.754 32.922,15.672 33.500 C 15.590 34.078,15.268 34.400,14.772 34.400 C 14.231 34.400,14.000 34.678,14.000 35.330 C 14.000 35.842,13.550 36.683,13.000 37.200 C 12.450 37.717,12.000 38.558,12.000 39.070 C 12.000 39.733,11.771 40.000,11.200 40.000 C 10.639 40.000,10.398 40.268,10.395 40.900 C 10.384 42.592,9.921 43.600,9.153 43.600 C 8.529 43.600,8.400 43.903,8.400 45.372 C 8.400 46.905,8.279 47.162,7.500 47.272 C 6.756 47.378,6.579 47.688,6.479 49.059 C 6.388 50.307,6.165 50.768,5.579 50.921 C 4.946 51.087,4.800 51.478,4.800 53.005 C 4.800 54.534,4.613 55.032,3.800 55.671 C 2.941 56.347,2.800 56.781,2.800 58.757 C 2.800 60.710,2.650 61.186,1.800 61.925 C 0.925 62.686,0.800 63.120,0.800 65.397 C 0.800 66.866,0.626 68.000,0.400 68.000 C 0.134 68.000,0.000 112.467,0.000 200.600 C 0.000 288.733,0.134 333.200,0.400 333.200 C 0.620 333.200,0.800 334.078,0.800 335.150 C 0.800 338.219,1.188 339.600,2.050 339.600 C 2.712 339.600,2.800 339.929,2.800 342.400 C 2.800 345.120,2.829 345.200,3.800 345.200 C 4.766 345.200,4.800 345.291,4.800 347.837 C 4.800 350.092,4.910 350.504,5.560 350.674 C 6.103 350.816,6.395 351.375,6.585 352.636 C 6.793 354.024,7.014 354.400,7.625 354.400 C 8.215 354.400,8.400 354.679,8.400 355.567 C 8.400 357.119,8.768 358.000,9.416 358.000 C 9.707 358.000,10.074 358.405,10.230 358.900 C 10.387 359.395,10.835 360.079,11.226 360.420 C 11.617 360.761,11.996 361.661,12.069 362.420 C 12.171 363.497,12.397 363.828,13.100 363.928 C 13.628 364.003,14.000 364.335,14.000 364.732 C 14.000 365.103,14.351 365.627,14.780 365.895 C 15.209 366.163,15.679 367.016,15.825 367.791 C 16.016 368.812,16.297 369.200,16.845 369.200 C 17.384 369.200,17.600 369.486,17.600 370.200 C 17.600 371.000,17.800 371.200,18.600 371.200 C 19.400 371.200,19.600 371.400,19.600 372.200 C 19.600 372.933,19.813 373.200,20.400 373.200 C 20.933 373.200,21.200 373.467,21.200 374.000 C 21.200 374.587,21.467 374.800,22.200 374.800 C 23.000 374.800,23.200 375.000,23.200 375.800 C 23.200 376.600,23.400 376.800,24.200 376.800 C 25.000 376.800,25.200 377.000,25.200 377.800 C 25.200 378.533,25.413 378.800,26.000 378.800 C 26.533 378.800,26.800 379.067,26.800 379.600 C 26.800 380.187,27.067 380.400,27.800 380.400 C 28.600 380.400,28.800 380.600,28.800 381.400 C 28.800 382.200,29.000 382.400,29.800 382.400 C 30.533 382.400,30.800 382.613,30.800 383.200 C 30.800 383.668,31.067 384.000,31.442 384.000 C 31.795 384.000,32.619 384.450,33.273 385.000 C 33.927 385.550,34.795 386.000,35.203 386.000 C 35.667 386.000,35.992 386.336,36.072 386.900 C 36.154 387.479,36.522 387.846,37.101 387.928 C 37.596 387.998,38.188 388.403,38.415 388.828 C 38.646 389.261,39.249 389.600,39.786 389.600 C 40.741 389.600,42.000 390.526,42.000 391.229 C 42.000 391.433,42.797 391.600,43.772 391.600 C 45.305 391.600,45.562 391.721,45.672 392.500 C 45.778 393.248,46.087 393.421,47.500 393.523 C 48.874 393.622,49.200 393.795,49.200 394.423 C 49.200 395.118,49.494 395.200,52.000 395.200 C 54.720 395.200,54.800 395.229,54.800 396.200 C 54.800 397.170,54.882 397.200,57.572 397.200 C 60.142 397.200,60.354 397.266,60.472 398.100 C 60.588 398.918,60.847 399.011,63.300 399.118 C 64.785 399.183,66.000 399.408,66.000 399.618 C 66.000 399.860,115.210 400.000,200.000 400.000 C 289.067 400.000,334.000 399.866,334.000 399.600 C 334.000 399.380,334.975 399.200,336.167 399.200 C 338.849 399.200,339.600 398.928,339.600 397.957 C 339.600 397.286,339.919 397.200,342.400 397.200 C 345.120 397.200,345.200 397.171,345.200 396.200 C 345.200 395.229,345.280 395.200,348.000 395.200 C 350.533 395.200,350.800 395.124,350.800 394.400 C 350.800 393.783,351.067 393.600,351.967 393.600 C 353.655 393.600,354.400 393.219,354.400 392.357 C 354.400 391.787,354.689 391.600,355.567 391.600 C 357.110 391.600,358.000 391.233,358.000 390.596 C 358.000 390.311,358.573 389.878,359.274 389.634 C 359.975 389.390,360.830 388.939,361.174 388.631 C 361.518 388.324,362.250 388.012,362.800 387.936 C 363.479 387.844,363.841 387.511,363.928 386.900 C 364.010 386.322,364.332 386.000,364.828 386.000 C 365.318 386.000,365.600 385.724,365.600 385.245 C 365.600 384.658,365.998 384.431,367.400 384.221 C 368.795 384.012,369.200 383.783,369.200 383.203 C 369.200 382.732,369.533 382.408,370.100 382.328 C 370.678 382.246,371.046 381.878,371.128 381.300 C 371.220 380.649,371.524 380.400,372.228 380.400 C 372.933 380.400,373.200 380.181,373.200 379.600 C 373.200 379.067,373.467 378.800,374.000 378.800 C 374.587 378.800,374.800 378.533,374.800 377.800 C 374.800 377.000,375.000 376.800,375.800 376.800 C 376.600 376.800,376.800 376.600,376.800 375.800 C 376.800 375.000,377.000 374.800,377.800 374.800 C 378.533 374.800,378.800 374.587,378.800 374.000 C 378.800 373.467,379.067 373.200,379.600 373.200 C 380.181 373.200,380.400 372.933,380.400 372.228 C 380.400 371.524,380.649 371.220,381.300 371.128 C 381.863 371.048,382.246 370.679,382.322 370.141 C 382.390 369.668,382.790 369.191,383.211 369.081 C 383.746 368.941,384.057 368.385,384.240 367.240 C 384.439 365.997,384.684 365.600,385.251 365.600 C 385.719 365.600,386.000 365.316,386.000 364.843 C 386.000 364.370,386.374 363.993,387.000 363.836 C 387.881 363.615,388.000 363.371,388.000 361.792 C 388.000 360.302,388.127 360.000,388.755 360.000 C 389.303 360.000,389.584 359.612,389.775 358.591 C 389.921 357.816,390.391 356.963,390.820 356.695 C 391.249 356.427,391.600 355.867,391.600 355.450 C 391.600 355.033,392.050 354.275,392.600 353.765 C 393.150 353.255,393.600 352.423,393.600 351.915 C 393.600 351.408,393.960 350.768,394.400 350.493 C 395.055 350.084,395.200 349.560,395.200 347.597 C 395.200 345.512,395.299 345.200,395.957 345.200 C 396.915 345.200,397.200 344.449,397.200 341.931 C 397.200 340.343,397.384 339.779,398.090 339.208 C 398.838 338.602,399.005 337.999,399.134 335.443 C 399.218 333.770,399.448 332.400,399.644 332.400 C 399.851 332.400,400.000 277.335,400.000 200.400 C 400.000 112.667,399.866 68.400,399.600 68.400 C 399.380 68.400,399.198 67.365,399.195 66.100 C 399.187 63.036,398.874 62.000,397.953 62.000 C 397.294 62.000,397.200 61.681,397.200 59.446 C 397.200 57.163,397.094 56.822,396.200 56.237 C 395.337 55.672,395.200 55.284,395.200 53.418 C 395.200 51.626,395.066 51.211,394.422 51.007 C 393.844 50.824,393.613 50.328,393.522 49.080 C 393.421 47.687,393.246 47.378,392.500 47.272 C 391.721 47.162,391.600 46.905,391.600 45.372 C 391.600 43.870,391.479 43.600,390.805 43.600 C 390.182 43.600,389.952 43.241,389.745 41.947 C 389.564 40.815,389.248 40.233,388.740 40.100 C 388.281 39.980,388.000 39.545,388.000 38.953 C 388.000 38.429,387.807 38.000,387.571 38.000 C 386.798 38.000,386.000 36.878,386.000 35.791 C 386.000 35.072,385.747 34.659,385.222 34.522 C 384.795 34.410,384.390 33.932,384.322 33.459 C 384.247 32.930,383.864 32.552,383.325 32.475 C 382.779 32.398,382.402 32.021,382.325 31.475 C 382.246 30.921,381.870 30.553,381.300 30.472 C 380.722 30.390,380.400 30.068,380.400 29.572 C 380.400 29.147,380.033 28.433,379.584 27.984 C 379.135 27.535,378.600 26.725,378.394 26.184 C 378.188 25.643,377.758 25.200,377.438 25.200 C 377.118 25.200,376.798 24.795,376.728 24.300 C 376.646 23.722,376.278 23.354,375.700 23.272 C 375.205 23.202,374.800 22.882,374.800 22.562 C 374.800 22.242,374.357 21.812,373.816 21.606 C 373.275 21.400,372.465 20.865,372.016 20.416 C 371.567 19.967,370.853 19.600,370.428 19.600 C 369.932 19.600,369.610 19.278,369.528 18.700 C 369.447 18.130,369.079 17.754,368.525 17.675 C 367.979 17.598,367.602 17.221,367.525 16.675 C 367.448 16.136,367.070 15.753,366.541 15.678 C 366.068 15.610,365.590 15.205,365.478 14.778 C 365.341 14.253,364.928 14.000,364.209 14.000 C 363.122 14.000,362.000 13.202,362.000 12.429 C 362.000 12.193,361.571 12.000,361.047 12.000 C 360.455 12.000,360.020 11.719,359.900 11.260 C 359.767 10.752,359.185 10.436,358.053 10.255 C 356.759 10.048,356.400 9.818,356.400 9.195 C 356.400 8.521,356.130 8.400,354.628 8.400 C 353.095 8.400,352.838 8.279,352.728 7.500 C 352.622 6.754,352.313 6.579,350.920 6.478 C 349.672 6.387,349.176 6.156,348.993 5.578 C 348.789 4.934,348.374 4.800,346.582 4.800 C 344.716 4.800,344.328 4.663,343.763 3.800 C 343.178 2.906,342.837 2.800,340.554 2.800 C 338.319 2.800,338.000 2.706,338.000 2.047 C 338.000 1.126,336.964 0.813,333.900 0.805 C 332.635 0.802,331.600 0.620,331.600 0.400 C 331.600 0.134,287.467 0.000,200.000 0.000 C 112.533 0.000,68.400 0.134,68.400 0.400 M210.545 45.807 C 215.635 46.141,221.510 46.759,223.600 47.180 C 225.690 47.601,228.390 48.045,229.600 48.166 C 230.810 48.287,232.831 48.750,234.090 49.193 C 235.350 49.637,236.812 50.000,237.340 50.000 C 237.868 50.000,239.076 50.274,240.024 50.609 C 240.973 50.943,242.918 51.488,244.347 51.820 C 245.776 52.151,247.137 52.575,247.372 52.762 C 247.608 52.948,248.700 53.383,249.800 53.727 C 253.454 54.872,256.588 56.011,257.600 56.563 C 258.150 56.862,259.173 57.230,259.872 57.380 C 260.572 57.529,261.359 57.910,261.621 58.226 C 261.883 58.542,262.288 58.800,262.521 58.800 C 262.911 58.800,271.439 62.806,272.800 63.629 C 273.130 63.828,274.030 64.360,274.800 64.811 C 276.458 65.781,278.856 67.216,280.800 68.400 C 281.570 68.869,282.845 69.646,283.634 70.127 C 284.957 70.932,286.039 71.668,289.474 74.099 C 297.214 79.575,306.035 87.330,312.400 94.251 C 317.879 100.210,320.021 102.700,322.162 105.600 C 323.380 107.250,324.654 108.960,324.992 109.400 C 326.814 111.770,327.523 112.757,328.511 114.300 C 329.110 115.235,330.050 116.685,330.600 117.522 C 331.150 118.358,331.600 119.230,331.600 119.460 C 331.600 119.689,331.960 120.202,332.400 120.600 C 332.840 120.998,333.200 121.542,333.200 121.808 C 333.200 122.074,333.566 122.757,334.013 123.326 C 334.834 124.370,338.865 132.044,339.327 133.444 C 339.464 133.860,339.746 134.470,339.953 134.800 C 340.348 135.429,341.632 138.191,343.369 142.148 C 343.936 143.440,344.406 144.790,344.413 145.148 C 344.419 145.507,344.868 146.700,345.409 147.800 C 345.950 148.900,346.394 150.110,346.396 150.489 C 346.398 150.868,346.747 151.948,347.171 152.889 C 347.923 154.555,348.633 157.092,349.833 162.400 C 350.157 163.830,350.682 165.667,351.000 166.482 C 351.319 167.298,351.781 169.627,352.028 171.658 C 352.275 173.690,352.634 175.763,352.825 176.266 C 353.204 177.262,353.660 181.645,354.618 193.475 C 355.288 201.752,354.411 218.898,352.965 225.800 C 352.642 227.340,352.203 229.936,351.990 231.568 C 351.777 233.201,351.261 235.631,350.843 236.968 C 350.425 238.306,349.896 240.300,349.667 241.400 C 349.050 244.364,347.801 248.565,346.398 252.400 C 345.713 254.270,344.893 256.610,344.575 257.600 C 344.257 258.590,343.706 260.030,343.351 260.800 C 342.996 261.570,342.293 263.100,341.788 264.200 C 339.905 268.309,336.713 275.021,336.367 275.600 C 336.170 275.930,335.635 276.830,335.178 277.600 C 333.735 280.030,331.296 284.095,329.873 286.439 C 328.573 288.581,327.717 289.791,322.969 296.200 C 316.198 305.338,304.463 317.448,296.804 323.200 C 296.072 323.750,294.430 325.010,293.155 326.000 C 291.880 326.990,290.188 328.250,289.394 328.800 C 288.601 329.350,287.663 330.070,287.308 330.400 C 286.954 330.730,285.390 331.756,283.832 332.679 C 278.845 335.636,278.233 336.006,276.400 337.173 C 275.410 337.804,273.430 338.896,272.000 339.602 C 269.286 340.940,268.467 341.353,267.300 341.970 C 264.403 343.503,257.960 346.400,257.449 346.400 C 257.104 346.400,256.052 346.739,255.111 347.153 C 250.442 349.208,247.392 350.259,242.600 351.465 C 241.280 351.798,239.030 352.403,237.600 352.811 C 232.916 354.146,227.865 355.191,224.116 355.601 C 222.089 355.823,219.209 356.302,217.716 356.667 C 213.767 357.629,185.501 357.655,181.600 356.699 C 180.170 356.349,177.200 355.868,175.000 355.631 C 170.752 355.174,165.352 354.057,161.400 352.818 C 160.080 352.404,158.280 351.950,157.400 351.809 C 155.660 351.529,150.523 349.893,148.600 349.006 C 147.940 348.701,146.590 348.185,145.600 347.860 C 142.237 346.752,139.318 345.680,138.558 345.273 C 138.141 345.050,135.640 343.849,133.000 342.605 C 130.360 341.361,127.930 340.181,127.600 339.984 C 127.270 339.786,126.280 339.250,125.400 338.792 C 123.538 337.824,121.886 336.881,120.200 335.824 C 119.540 335.410,118.370 334.678,117.600 334.196 C 114.096 332.003,109.128 328.595,106.200 326.376 C 104.440 325.043,102.475 323.557,101.833 323.076 C 101.191 322.594,100.381 321.911,100.033 321.558 C 99.685 321.205,97.240 318.977,94.600 316.608 C 88.286 310.940,80.901 302.831,75.514 295.649 C 74.131 293.805,72.509 291.645,71.909 290.849 C 71.308 290.052,70.652 289.033,70.450 288.584 C 70.248 288.135,69.795 287.527,69.442 287.235 C 69.089 286.942,68.800 286.499,68.799 286.251 C 68.799 286.003,67.904 284.450,66.811 282.800 C 65.718 281.150,64.818 279.634,64.812 279.431 C 64.805 279.229,64.557 278.779,64.260 278.431 C 63.389 277.414,59.941 270.475,56.394 262.600 C 55.285 260.139,53.600 255.637,53.600 255.136 C 53.600 254.889,53.255 253.948,52.833 253.044 C 51.746 250.717,50.854 247.915,49.987 244.108 C 49.574 242.298,49.066 240.498,48.858 240.108 C 48.649 239.719,48.346 238.500,48.183 237.400 C 48.020 236.300,47.645 234.711,47.350 233.869 C 47.055 233.027,46.545 230.037,46.218 227.224 C 45.890 224.410,45.423 221.589,45.179 220.954 C 44.027 217.946,44.035 185.582,45.189 182.000 C 45.437 181.230,45.892 178.400,46.200 175.711 C 46.507 173.022,47.024 169.962,47.347 168.911 C 47.905 167.095,48.368 165.277,50.020 158.400 C 50.765 155.301,52.011 151.538,53.021 149.340 C 53.339 148.646,53.600 147.885,53.600 147.647 C 53.600 146.720,55.912 141.177,59.125 134.400 C 60.012 132.530,61.023 130.370,61.371 129.600 C 61.720 128.830,62.448 127.480,62.989 126.600 C 63.529 125.720,64.238 124.446,64.563 123.768 C 64.888 123.091,65.434 122.304,65.777 122.019 C 66.120 121.735,66.400 121.289,66.400 121.029 C 66.400 120.768,67.255 119.207,68.300 117.558 C 69.345 115.910,70.380 114.274,70.600 113.924 C 73.489 109.321,87.448 92.344,89.612 90.800 C 89.767 90.690,91.963 88.658,94.492 86.284 C 98.590 82.438,103.978 77.981,106.800 76.102 C 107.350 75.736,108.610 74.793,109.600 74.006 C 110.590 73.219,112.210 72.058,113.200 71.425 C 114.190 70.793,115.450 69.977,116.000 69.613 C 116.550 69.248,118.080 68.349,119.400 67.613 C 120.720 66.878,122.071 66.046,122.403 65.764 C 123.072 65.195,131.055 61.066,132.244 60.673 C 132.660 60.536,133.270 60.242,133.600 60.021 C 133.930 59.800,134.830 59.349,135.600 59.018 C 136.370 58.687,137.270 58.255,137.600 58.058 C 138.668 57.421,142.557 55.934,144.184 55.541 C 145.056 55.330,145.972 54.989,146.221 54.783 C 146.834 54.274,152.047 52.497,155.000 51.790 C 156.320 51.474,158.120 50.950,159.000 50.625 C 159.880 50.301,161.004 50.027,161.498 50.018 C 161.993 50.008,163.433 49.646,164.698 49.214 C 165.964 48.782,168.595 48.234,170.545 47.997 C 172.495 47.760,175.075 47.310,176.279 46.996 C 177.482 46.683,182.007 46.223,186.333 45.975 C 190.660 45.726,194.275 45.450,194.367 45.362 C 194.709 45.030,201.579 45.219,210.545 45.807 M188.955 64.593 C 184.310 64.873,179.900 65.302,179.155 65.548 C 178.410 65.793,175.899 66.260,173.576 66.586 C 171.253 66.911,168.733 67.435,167.976 67.751 C 167.219 68.066,165.700 68.454,164.600 68.614 C 163.500 68.773,162.144 69.135,161.586 69.418 C 161.029 69.700,159.859 70.057,158.986 70.210 C 158.114 70.364,156.680 70.814,155.800 71.212 C 154.920 71.609,153.390 72.202,152.400 72.529 C 147.507 74.146,146.114 74.731,141.200 77.230 C 140.870 77.398,139.015 78.294,137.077 79.221 C 135.139 80.149,132.923 81.335,132.153 81.857 C 131.383 82.380,130.089 83.171,129.277 83.615 C 128.465 84.059,127.260 84.772,126.600 85.199 C 125.940 85.626,124.860 86.279,124.200 86.649 C 123.540 87.019,122.066 88.059,120.925 88.961 C 119.784 89.862,118.198 91.050,117.401 91.600 C 114.872 93.345,109.906 97.570,104.455 102.615 C 100.600 106.182,92.684 115.347,89.600 119.811 C 89.050 120.607,88.324 121.561,87.986 121.929 C 87.649 122.298,86.856 123.410,86.224 124.400 C 85.592 125.390,84.777 126.650,84.413 127.200 C 84.048 127.750,83.149 129.280,82.413 130.600 C 81.678 131.920,80.860 133.270,80.596 133.600 C 79.942 134.418,78.436 137.356,75.983 142.600 C 74.852 145.020,73.605 147.630,73.213 148.400 C 72.821 149.170,72.364 150.430,72.197 151.200 C 72.030 151.970,71.557 153.227,71.147 153.994 C 70.736 154.761,70.400 155.753,70.400 156.200 C 70.400 156.647,70.053 157.660,69.628 158.452 C 69.204 159.244,68.739 160.591,68.595 161.446 C 68.452 162.301,68.003 164.080,67.599 165.400 C 66.076 170.370,65.241 174.314,64.425 180.400 C 64.203 182.050,63.813 184.300,63.557 185.400 C 62.636 189.361,62.878 214.228,63.890 219.600 C 64.366 222.130,64.933 225.460,65.149 227.000 C 65.576 230.051,66.461 233.864,67.468 237.000 C 67.821 238.100,68.341 239.990,68.623 241.200 C 69.230 243.804,70.597 247.795,71.363 249.200 C 71.662 249.750,72.040 250.830,72.201 251.600 C 72.468 252.872,73.821 255.928,77.337 263.200 C 78.442 265.485,79.385 267.188,82.620 272.738 C 83.797 274.757,87.280 280.071,88.307 281.414 C 88.805 282.066,89.482 282.960,89.810 283.400 C 90.138 283.840,90.818 284.740,91.321 285.400 C 91.823 286.060,92.519 287.050,92.868 287.600 C 95.238 291.342,110.409 306.238,115.565 309.887 C 117.014 310.913,118.290 311.854,118.400 311.978 C 119.354 313.058,127.969 318.787,128.651 318.795 C 128.899 318.798,129.335 319.080,129.619 319.423 C 129.904 319.766,130.691 320.312,131.368 320.637 C 132.046 320.962,133.320 321.668,134.200 322.206 C 135.080 322.744,136.070 323.298,136.400 323.437 C 136.730 323.576,138.800 324.555,141.000 325.613 C 147.346 328.664,149.504 329.600,150.191 329.600 C 150.544 329.600,151.500 329.938,152.316 330.351 C 153.132 330.764,154.423 331.237,155.184 331.401 C 155.945 331.566,157.205 332.020,157.984 332.412 C 158.763 332.803,160.298 333.247,161.395 333.400 C 162.492 333.553,163.842 333.907,164.395 334.188 C 164.948 334.469,166.647 334.912,168.171 335.173 C 169.696 335.435,171.260 335.818,171.647 336.025 C 172.034 336.232,174.623 336.668,177.402 336.992 C 180.180 337.317,183.206 337.810,184.126 338.087 C 186.828 338.900,212.649 338.765,215.800 337.921 C 217.120 337.567,219.550 337.160,221.200 337.016 C 224.332 336.743,229.164 335.727,234.600 334.197 C 236.360 333.701,238.520 333.112,239.400 332.888 C 240.280 332.664,242.260 332.001,243.800 331.414 C 245.340 330.827,247.406 330.086,248.390 329.766 C 250.170 329.187,251.967 328.412,255.806 326.565 C 256.909 326.034,258.012 325.600,258.257 325.600 C 258.502 325.600,258.917 325.342,259.179 325.026 C 259.441 324.710,260.174 324.337,260.809 324.198 C 261.443 324.059,262.390 323.608,262.913 323.197 C 263.435 322.786,264.331 322.332,264.902 322.189 C 265.474 322.045,266.252 321.584,266.633 321.164 C 267.013 320.744,267.454 320.400,267.614 320.400 C 267.773 320.400,268.960 319.750,270.252 318.955 C 271.543 318.160,273.115 317.215,273.744 316.855 C 274.373 316.495,275.853 315.480,277.034 314.600 C 278.215 313.720,279.833 312.550,280.631 312.000 C 281.428 311.450,282.381 310.730,282.747 310.400 C 283.113 310.070,283.860 309.506,284.407 309.147 C 289.760 305.628,304.571 290.169,309.414 283.044 C 309.846 282.408,310.560 281.394,311.000 280.790 C 311.440 280.187,312.499 278.637,313.354 277.347 C 314.209 276.056,315.247 274.508,315.662 273.906 C 316.076 273.304,316.596 272.404,316.816 271.906 C 317.036 271.408,317.743 270.190,318.387 269.200 C 319.031 268.210,320.126 266.230,320.821 264.800 C 323.612 259.053,324.400 257.318,324.400 256.917 C 324.400 256.687,324.654 256.287,324.965 256.029 C 325.276 255.771,325.744 254.669,326.005 253.579 C 326.266 252.489,326.637 251.500,326.829 251.382 C 327.021 251.263,327.369 250.409,327.602 249.483 C 327.834 248.557,328.353 246.990,328.754 246.000 C 329.885 243.208,331.136 239.164,331.414 237.400 C 331.553 236.520,332.003 234.720,332.414 233.400 C 332.826 232.080,333.347 229.650,333.572 228.000 C 333.797 226.350,334.163 224.377,334.387 223.615 C 334.610 222.854,334.980 219.794,335.210 216.815 C 335.439 213.837,335.809 209.094,336.031 206.275 C 336.303 202.818,336.302 199.564,336.028 196.275 C 335.805 193.594,335.434 188.970,335.205 186.000 C 334.976 183.030,334.539 179.664,334.236 178.521 C 333.932 177.377,333.553 175.317,333.393 173.943 C 333.234 172.569,332.765 170.461,332.352 169.260 C 331.938 168.058,331.600 166.754,331.600 166.362 C 331.600 165.682,330.062 160.334,329.138 157.800 C 328.897 157.140,328.353 155.610,327.929 154.400 C 327.505 153.190,326.916 151.660,326.621 151.000 C 326.326 150.340,325.964 149.227,325.816 148.528 C 325.669 147.828,325.290 147.041,324.974 146.779 C 324.658 146.517,324.400 146.112,324.400 145.879 C 324.400 145.647,323.430 143.464,322.245 141.028 C 321.060 138.593,319.977 136.330,319.838 136.000 C 319.700 135.670,319.061 134.590,318.419 133.600 C 317.777 132.610,316.580 130.639,315.761 129.219 C 314.941 127.800,313.754 125.910,313.122 125.019 C 312.491 124.129,311.670 122.950,311.299 122.400 C 310.929 121.850,309.899 120.466,309.013 119.325 C 308.126 118.184,306.950 116.607,306.400 115.819 C 303.196 111.235,288.765 96.804,284.181 93.600 C 283.393 93.050,281.816 91.875,280.675 90.989 C 278.499 89.300,277.861 88.847,274.600 86.673 C 271.481 84.593,270.280 83.843,269.200 83.300 C 268.650 83.023,267.390 82.260,266.400 81.605 C 265.410 80.949,264.330 80.300,264.000 80.162 C 263.047 79.762,254.280 75.585,253.442 75.131 C 253.025 74.906,251.765 74.397,250.642 74.002 C 249.519 73.607,247.340 72.800,245.800 72.209 C 242.311 70.870,238.524 69.676,235.400 68.931 C 234.080 68.615,231.830 68.014,230.400 67.595 C 228.970 67.175,226.720 66.718,225.400 66.578 C 224.080 66.439,221.946 66.062,220.658 65.741 C 218.360 65.167,211.732 64.639,202.200 64.271 C 199.560 64.169,193.600 64.314,188.955 64.593 M183.952 126.362 C 184.408 126.651,184.428 127.263,184.065 129.856 C 183.823 131.585,183.516 134.800,183.384 137.000 C 183.252 139.200,182.812 143.430,182.406 146.400 C 182.001 149.370,181.555 153.780,181.415 156.200 C 181.276 158.620,180.907 162.130,180.596 164.000 C 180.285 165.870,179.847 169.894,179.623 172.943 C 179.399 175.992,178.914 180.498,178.547 182.957 C 177.619 189.161,178.281 192.557,179.549 188.100 C 179.815 187.165,180.183 186.400,180.368 186.400 C 180.552 186.400,180.930 185.815,181.208 185.100 C 181.486 184.385,182.178 183.080,182.746 182.200 C 183.748 180.646,184.262 179.952,186.895 176.600 C 188.874 174.080,204.921 158.237,226.000 137.993 C 227.650 136.408,231.121 133.061,233.713 130.556 L 238.427 126.000 260.333 126.000 C 275.937 126.000,282.369 126.129,282.687 126.447 C 283.016 126.776,281.785 128.225,278.013 131.947 C 237.340 172.081,223.124 186.265,221.230 188.600 C 214.497 196.905,214.798 202.928,222.478 213.593 C 223.510 215.027,224.770 216.793,225.278 217.518 C 226.395 219.116,229.782 223.569,230.512 224.400 C 230.802 224.730,231.390 225.520,231.819 226.156 C 233.218 228.227,239.870 237.113,241.884 239.600 C 242.151 239.930,243.240 241.370,244.303 242.800 C 247.623 247.262,252.571 253.791,252.793 254.000 C 253.076 254.268,255.249 257.147,256.000 258.250 C 256.330 258.735,257.891 260.812,259.468 262.866 C 261.045 264.920,263.425 268.040,264.757 269.800 C 266.090 271.560,267.540 273.450,267.981 274.000 C 268.794 275.015,268.735 276.301,267.846 276.901 C 266.983 277.484,223.396 277.061,222.675 276.463 C 222.320 276.167,221.347 274.930,220.514 273.713 C 219.681 272.496,218.234 270.398,217.298 269.050 C 213.740 263.929,211.183 260.199,209.831 258.160 C 209.409 257.522,208.463 256.100,207.731 255.000 C 206.998 253.900,205.442 251.560,204.272 249.800 C 201.424 245.515,201.102 245.039,198.900 241.847 C 197.855 240.332,196.338 238.082,195.529 236.847 C 194.720 235.611,193.711 234.150,193.286 233.600 C 192.861 233.050,191.284 230.800,189.780 228.600 C 183.860 219.940,181.200 215.871,181.200 215.476 C 181.200 215.249,180.957 214.779,180.661 214.431 C 179.981 213.635,178.966 210.764,177.829 206.421 C 176.736 202.242,176.422 202.630,175.957 208.733 C 175.762 211.300,175.332 215.110,175.002 217.200 C 174.671 219.290,174.221 223.658,174.001 226.906 C 173.781 230.155,173.426 233.593,173.212 234.546 C 172.998 235.500,172.557 239.691,172.232 243.859 C 171.906 248.028,171.459 252.243,171.239 253.226 C 171.019 254.208,170.652 257.710,170.423 261.006 C 169.921 268.257,168.900 275.072,168.131 276.312 L 167.565 277.225 150.397 277.112 C 129.970 276.979,131.577 277.420,132.338 272.152 C 132.613 270.250,133.016 266.063,133.233 262.847 C 133.450 259.631,133.892 255.290,134.216 253.200 C 134.539 251.110,134.979 246.676,135.194 243.346 C 135.408 240.017,135.845 235.607,136.164 233.546 C 136.483 231.486,136.859 227.730,137.000 225.200 C 137.142 222.670,137.517 218.800,137.835 216.600 C 138.152 214.400,138.592 209.990,138.812 206.800 C 139.031 203.610,139.476 199.200,139.799 197.000 C 140.123 194.800,140.578 190.129,140.810 186.621 C 141.042 183.113,141.400 179.491,141.606 178.573 C 141.812 177.656,142.259 173.326,142.601 168.952 C 142.942 164.579,143.386 160.169,143.589 159.153 C 143.791 158.138,144.151 154.369,144.389 150.779 C 144.628 147.189,145.081 142.620,145.397 140.626 C 145.714 138.632,146.093 134.840,146.240 132.200 C 146.387 129.560,146.669 127.085,146.868 126.700 C 147.267 125.925,182.752 125.602,183.952 126.362 " stroke="none" fill="#1c84fc" fill-rule="evenodd"></path></g></svg>