<svg id="svg" version="1.1" xmlns="http://www.w3.org/2000/svg" xmlns:xlink="http://www.w3.org/1999/xlink" width="48" height="48" viewBox="0 0 400 400"><g id="svgg"><path id="path0" d="M150.500 84.730 C 150.225 84.904,149.633 86.567,149.183 88.424 C 147.303 96.200,145.873 101.034,143.807 106.600 C 143.235 108.140,142.526 110.120,142.230 111.000 C 141.934 111.880,141.392 113.320,141.026 114.200 C 140.363 115.791,140.187 116.191,138.289 120.400 C 133.457 131.119,127.506 141.370,122.850 146.993 C 120.295 150.078,120.235 149.948,126.898 155.717 C 130.471 158.811,130.837 158.883,133.456 157.009 C 146.785 147.471,163.097 138.593,176.800 133.419 C 177.570 133.128,178.920 132.601,179.800 132.248 C 181.395 131.609,188.887 129.219,194.200 127.656 C 197.823 126.590,201.734 125.599,204.000 125.174 C 204.990 124.988,207.150 124.564,208.800 124.231 C 234.457 119.065,260.017 119.264,275.600 124.751 C 291.852 130.473,302.645 145.029,304.817 164.154 C 305.039 166.109,305.391 168.469,305.600 169.399 C 305.963 171.021,306.887 184.070,307.413 195.000 C 307.738 201.759,306.579 222.380,305.424 230.400 C 304.414 237.408,303.183 244.817,302.732 246.600 C 302.510 247.480,302.089 249.190,301.798 250.400 C 299.777 258.791,296.723 267.656,294.771 270.800 C 294.566 271.130,294.235 271.775,294.035 272.233 C 292.655 275.392,287.264 282.038,283.995 284.609 C 274.501 292.077,259.472 293.963,239.843 290.150 C 236.249 289.452,236.364 289.389,235.402 292.560 C 234.779 294.613,233.889 300.415,233.833 302.786 C 233.796 304.340,235.132 304.895,242.008 306.186 C 243.663 306.496,245.475 306.924,246.034 307.137 C 246.594 307.350,248.120 307.643,249.426 307.789 C 250.732 307.935,253.330 308.347,255.200 308.706 C 257.901 309.225,261.315 309.363,271.800 309.380 C 285.615 309.401,286.134 309.353,293.600 307.350 C 294.810 307.025,296.520 306.579,297.400 306.357 C 298.280 306.136,299.399 305.695,299.886 305.378 C 300.373 305.060,301.005 304.800,301.289 304.800 C 302.101 304.800,308.640 301.358,311.597 299.374 C 318.074 295.028,325.212 287.043,329.088 279.805 C 331.501 275.301,334.393 269.047,334.414 268.289 C 334.421 268.020,334.775 267.080,335.200 266.200 C 335.625 265.320,335.979 264.364,335.986 264.075 C 335.994 263.786,336.356 262.436,336.791 261.075 C 339.198 253.546,341.219 243.177,342.184 233.400 C 342.488 230.320,342.965 226.090,343.243 224.000 C 344.033 218.065,343.917 185.882,343.086 180.400 C 342.736 178.090,342.344 175.030,342.216 173.600 C 341.942 170.555,340.988 164.887,340.129 161.200 C 339.796 159.770,339.284 157.520,338.991 156.200 C 338.699 154.880,338.106 152.630,337.675 151.200 C 336.955 148.811,336.500 147.506,334.608 142.400 C 329.446 128.473,320.453 117.616,306.800 108.827 C 304.457 107.319,295.378 103.214,294.326 103.186 C 294.037 103.179,293.080 102.825,292.200 102.400 C 291.320 101.975,290.218 101.621,289.750 101.614 C 289.283 101.606,288.203 101.354,287.350 101.054 C 285.391 100.363,276.580 98.698,269.800 97.737 C 262.374 96.685,237.673 96.657,232.000 97.695 C 229.910 98.078,226.940 98.573,225.400 98.795 C 220.613 99.488,211.433 101.407,209.000 102.225 C 208.120 102.521,206.320 103.031,205.000 103.359 C 198.623 104.943,193.059 106.915,183.800 110.870 C 176.185 114.123,174.875 114.190,177.402 111.200 C 177.950 110.551,182.800 102.062,182.800 101.752 C 182.800 101.648,183.429 100.219,184.198 98.576 C 184.967 96.934,185.962 94.557,186.408 93.295 L 187.219 91.000 186.392 90.322 C 185.938 89.949,184.808 89.551,183.883 89.438 C 182.957 89.325,180.850 89.035,179.200 88.794 C 177.550 88.553,174.850 88.173,173.200 87.949 C 171.550 87.725,168.220 87.194,165.800 86.770 C 163.380 86.345,160.918 85.998,160.329 85.998 C 159.741 85.999,157.432 85.640,155.200 85.200 C 150.491 84.272,151.122 84.335,150.500 84.730 M171.520 140.878 C 171.146 141.165,169.642 143.102,168.177 145.182 C 163.097 152.398,157.762 158.641,149.902 166.571 C 140.972 175.580,141.100 175.331,143.700 178.575 C 144.635 179.741,146.191 181.799,147.157 183.148 C 149.171 185.957,149.755 186.119,152.437 184.605 C 153.407 184.058,154.650 183.385,155.200 183.110 C 156.774 182.324,163.597 178.063,165.766 176.512 C 168.311 174.693,169.742 174.534,186.255 174.239 C 196.827 174.049,199.190 174.105,199.562 174.554 C 199.878 174.935,199.982 178.142,199.907 185.249 L 199.800 195.400 196.600 195.662 C 194.840 195.806,183.140 196.141,170.600 196.408 C 150.712 196.831,147.736 196.973,147.300 197.523 C 146.556 198.461,146.594 213.965,147.343 214.989 C 147.923 215.783,168.184 215.704,190.400 214.820 C 196.498 214.578,199.155 214.605,199.533 214.915 C 200.376 215.607,200.051 257.721,199.196 258.576 C 197.765 260.006,186.352 260.800,181.596 259.799 C 173.493 258.095,171.423 253.683,173.246 242.000 C 173.710 239.030,174.177 236.031,174.284 235.335 C 174.550 233.610,173.902 233.334,168.368 232.822 C 165.856 232.590,162.090 232.131,160.000 231.803 C 157.910 231.474,155.390 231.195,154.400 231.182 C 153.410 231.169,151.250 230.912,149.600 230.612 C 147.313 230.196,146.488 230.177,146.129 230.533 C 145.432 231.225,144.089 235.509,143.785 238.012 C 143.639 239.215,143.248 241.280,142.916 242.600 C 141.853 246.835,142.008 260.244,143.164 264.000 C 146.512 274.880,153.143 280.543,165.746 283.286 C 178.497 286.061,205.777 282.330,220.600 275.785 C 221.260 275.493,222.250 275.136,222.800 274.991 C 224.439 274.559,228.971 272.746,229.380 272.359 C 229.589 272.162,230.012 272.000,230.320 272.000 C 230.627 272.000,231.446 271.744,232.140 271.430 C 232.833 271.117,234.750 270.291,236.400 269.595 C 238.050 268.898,240.120 268.005,241.000 267.610 C 241.880 267.215,243.199 266.646,243.931 266.346 C 244.663 266.046,248.623 264.153,252.731 262.139 C 257.023 260.036,260.355 258.625,260.565 258.824 C 260.766 259.014,261.262 262.462,261.667 266.485 C 262.638 276.118,262.113 275.502,268.051 273.963 C 275.001 272.161,278.868 269.486,281.874 264.400 C 283.802 261.139,283.911 254.581,282.353 235.607 C 281.797 228.829,281.626 228.677,277.288 231.102 C 272.224 233.933,260.283 239.670,255.324 241.656 C 253.634 242.333,251.969 243.046,251.625 243.242 C 250.812 243.704,244.261 246.317,242.200 247.002 C 241.320 247.294,239.340 247.995,237.800 248.558 C 236.260 249.122,234.568 249.587,234.039 249.592 L 233.078 249.600 233.300 232.316 C 233.514 215.586,233.547 215.010,234.331 214.376 C 235.174 213.693,242.018 213.286,267.200 212.422 C 283.723 211.855,288.477 208.506,289.114 196.987 C 289.365 192.440,289.786 192.615,279.906 193.158 C 272.778 193.549,243.516 194.518,237.014 194.578 C 233.621 194.609,233.613 194.586,233.606 183.744 C 233.601 175.880,233.678 174.798,234.300 174.079 C 235.015 173.251,238.713 172.981,265.056 171.827 C 275.473 171.371,279.809 167.751,281.616 158.000 C 282.625 152.555,282.362 152.193,277.666 152.554 C 275.772 152.699,267.288 152.995,258.811 153.210 C 250.335 153.425,239.440 153.777,234.600 153.992 C 220.534 154.616,192.288 154.922,191.620 154.457 C 191.141 154.124,191.359 153.647,192.865 151.727 C 197.400 145.945,197.933 144.223,195.321 143.795 C 194.484 143.658,192.630 143.303,191.200 143.007 C 189.770 142.712,187.430 142.346,186.000 142.196 C 184.570 142.045,182.230 141.688,180.800 141.403 C 176.371 140.518,172.290 140.287,171.520 140.878 M82.702 160.700 C 81.534 162.014,69.600 180.155,69.600 180.616 C 69.600 181.382,70.854 182.243,73.896 183.566 C 76.918 184.880,90.879 191.945,94.000 193.739 C 94.990 194.308,96.340 195.074,97.000 195.439 C 110.065 202.681,111.757 209.294,103.589 221.200 C 103.212 221.750,101.158 224.810,99.024 228.000 C 93.797 235.816,83.714 249.773,81.804 251.837 C 81.582 252.077,80.950 252.875,80.400 253.611 C 76.236 259.179,65.128 272.820,58.674 280.291 C 56.346 282.986,54.799 285.113,54.874 285.518 C 55.000 286.198,57.770 287.671,68.600 292.817 C 71.460 294.176,75.510 296.100,77.600 297.093 C 79.690 298.086,83.981 300.150,87.136 301.678 C 94.298 305.148,93.228 305.854,97.871 294.600 C 98.415 293.280,99.099 291.660,99.389 291.000 C 99.680 290.340,100.278 288.900,100.719 287.800 C 101.696 285.365,103.484 281.033,104.186 279.400 C 104.470 278.740,105.164 277.027,105.727 275.593 C 106.290 274.159,107.031 272.449,107.373 271.793 C 107.715 271.137,107.996 270.398,107.998 270.151 C 108.000 269.723,109.009 267.194,110.213 264.600 C 111.354 262.143,112.400 259.484,112.400 259.043 C 112.400 258.793,112.760 257.916,113.200 257.096 C 113.640 256.275,114.000 255.397,114.000 255.145 C 114.000 254.894,114.338 253.948,114.751 253.044 C 115.164 252.140,115.868 250.410,116.315 249.200 C 117.988 244.678,119.253 241.375,119.611 240.600 C 119.814 240.160,120.520 238.180,121.181 236.200 C 121.842 234.220,122.848 231.340,123.416 229.800 C 124.543 226.750,125.749 222.938,126.581 219.800 C 126.873 218.700,127.289 217.350,127.505 216.800 C 127.722 216.250,128.302 213.460,128.795 210.600 C 130.740 199.299,129.006 193.610,120.954 184.875 C 116.409 179.944,111.749 176.312,101.600 169.793 C 99.689 168.565,90.414 163.234,87.090 161.452 C 84.008 159.801,83.568 159.725,82.702 160.700 " stroke="none" fill="#fcf9f8" fill-rule="evenodd"></path><path id="path1" d="M72.200 0.294 C 71.320 0.385,70.329 0.704,69.998 1.003 C 69.667 1.302,68.407 1.674,67.198 1.831 C 65.989 1.987,64.645 2.359,64.211 2.658 C 63.777 2.956,63.057 3.202,62.611 3.204 C 62.165 3.206,60.900 3.650,59.800 4.191 C 58.700 4.732,57.468 5.181,57.063 5.187 C 56.658 5.194,55.869 5.560,55.309 6.000 C 54.750 6.440,53.978 6.800,53.595 6.800 C 53.212 6.800,52.683 7.058,52.421 7.374 C 52.159 7.690,51.405 8.067,50.745 8.212 C 50.086 8.357,49.455 8.712,49.344 9.002 C 49.233 9.291,48.660 9.648,48.071 9.795 C 47.482 9.942,46.730 10.300,46.400 10.591 C 46.070 10.882,44.881 11.633,43.757 12.260 C 40.902 13.853,37.062 16.472,36.680 17.086 C 36.504 17.369,36.142 17.600,35.876 17.600 C 35.610 17.600,35.168 17.960,34.893 18.400 C 34.618 18.840,34.158 19.200,33.871 19.200 C 33.584 19.200,31.842 20.640,30.000 22.400 C 28.158 24.160,26.525 25.600,26.371 25.600 C 26.218 25.600,25.818 26.005,25.482 26.500 C 25.147 26.995,23.845 28.474,22.589 29.787 C 21.332 31.099,20.014 32.629,19.658 33.187 C 19.302 33.744,17.974 35.517,16.706 37.126 C 15.438 38.736,14.400 40.267,14.400 40.530 C 14.400 40.793,14.040 41.232,13.600 41.507 C 13.160 41.782,12.800 42.234,12.800 42.513 C 12.800 42.791,12.169 43.976,11.398 45.147 C 10.627 46.318,9.891 47.695,9.762 48.209 C 9.633 48.722,9.291 49.233,9.002 49.344 C 8.712 49.455,8.357 50.086,8.212 50.745 C 8.067 51.405,7.702 52.150,7.400 52.400 C 7.098 52.650,6.738 53.370,6.600 54.000 C 6.462 54.630,6.090 55.359,5.774 55.621 C 5.458 55.883,5.198 56.481,5.196 56.949 C 5.194 57.417,4.750 58.700,4.209 59.800 C 3.668 60.900,3.219 62.165,3.213 62.611 C 3.206 63.057,2.956 63.777,2.658 64.211 C 2.359 64.645,1.987 65.989,1.831 67.198 C 1.674 68.407,1.243 69.731,0.873 70.140 C -0.191 71.316,-0.166 329.112,0.898 330.287 C 1.282 330.711,1.708 331.945,1.846 333.029 C 1.983 334.113,2.344 335.399,2.648 335.886 C 2.952 336.373,3.200 337.100,3.200 337.501 C 3.200 337.903,3.558 338.934,3.996 339.793 C 4.434 340.652,4.903 341.944,5.038 342.663 C 5.173 343.383,5.523 344.170,5.816 344.413 C 6.109 344.656,6.462 345.370,6.600 346.000 C 6.738 346.630,7.110 347.359,7.426 347.621 C 7.742 347.883,8.000 348.401,8.000 348.771 C 8.000 349.142,8.450 350.055,9.000 350.800 C 9.550 351.545,10.000 352.331,10.000 352.546 C 10.000 352.761,10.250 353.221,10.555 353.569 C 10.861 353.916,11.608 355.161,12.216 356.336 C 12.824 357.511,13.564 358.565,13.861 358.679 C 14.157 358.792,14.400 359.066,14.400 359.287 C 14.400 359.874,16.877 363.600,17.267 363.600 C 17.450 363.600,17.600 363.876,17.600 364.213 C 17.600 364.549,17.846 364.920,18.147 365.035 C 18.448 365.151,19.251 366.090,19.932 367.123 C 21.993 370.251,32.747 380.800,33.875 380.800 C 34.160 380.800,34.618 381.160,34.893 381.600 C 35.168 382.040,35.619 382.400,35.896 382.400 C 36.173 382.400,36.400 382.567,36.400 382.772 C 36.400 383.187,39.827 385.600,40.417 385.600 C 40.624 385.600,41.018 385.960,41.293 386.400 C 41.568 386.840,42.087 387.200,42.447 387.200 C 42.807 387.200,43.320 387.463,43.587 387.785 C 43.854 388.106,44.434 388.484,44.876 388.624 C 45.317 388.764,46.021 389.221,46.439 389.639 C 46.858 390.058,47.532 390.400,47.938 390.400 C 48.344 390.400,49.002 390.760,49.400 391.200 C 49.798 391.640,50.524 392.000,51.013 392.000 C 51.502 392.000,52.117 392.258,52.379 392.574 C 52.641 392.890,53.370 393.262,54.000 393.400 C 54.630 393.538,55.348 393.896,55.595 394.194 C 55.843 394.493,56.745 394.856,57.600 395.000 C 58.455 395.144,59.362 395.514,59.617 395.821 C 59.872 396.128,60.737 396.484,61.540 396.613 C 62.343 396.742,63.480 397.109,64.067 397.427 C 64.654 397.746,66.004 398.119,67.067 398.257 C 68.130 398.395,69.334 398.798,69.742 399.154 C 70.884 400.148,329.116 400.148,330.258 399.154 C 330.666 398.798,331.888 398.392,332.974 398.251 C 334.060 398.110,335.320 397.755,335.774 397.461 C 336.228 397.167,337.297 396.816,338.150 396.681 C 339.002 396.545,339.992 396.179,340.350 395.868 C 340.707 395.556,341.657 395.184,342.460 395.040 C 343.263 394.896,344.140 394.514,344.409 394.189 C 344.678 393.865,345.212 393.600,345.595 393.600 C 345.978 393.600,346.750 393.240,347.309 392.800 C 347.869 392.360,348.705 392.000,349.167 392.000 C 349.629 392.000,350.316 391.640,350.693 391.200 C 351.070 390.760,351.653 390.400,351.989 390.399 C 352.325 390.399,353.637 389.679,354.904 388.799 C 356.172 387.920,357.470 387.200,357.790 387.200 C 358.110 387.200,358.553 386.861,358.775 386.446 C 358.997 386.031,359.590 385.589,360.093 385.463 C 360.596 385.336,361.704 384.596,362.554 383.817 C 363.405 383.037,364.249 382.400,364.430 382.400 C 364.612 382.400,364.904 382.174,365.080 381.899 C 365.256 381.623,366.135 380.899,367.033 380.291 C 369.220 378.809,376.512 371.636,379.123 368.400 C 380.277 366.970,381.441 365.541,381.710 365.224 C 383.693 362.891,385.600 360.215,385.600 359.766 C 385.600 359.470,385.960 359.035,386.400 358.800 C 386.840 358.565,387.200 358.092,387.200 357.750 C 387.200 357.407,387.920 356.101,388.800 354.846 C 389.680 353.592,390.400 352.286,390.400 351.945 C 390.400 351.603,390.760 350.998,391.200 350.600 C 391.640 350.202,392.000 349.527,392.000 349.101 C 392.000 348.675,392.360 347.869,392.800 347.309 C 393.240 346.750,393.600 345.978,393.600 345.595 C 393.600 345.212,393.865 344.678,394.189 344.409 C 394.514 344.140,394.896 343.263,395.040 342.460 C 395.184 341.657,395.556 340.707,395.868 340.350 C 396.179 339.992,396.545 339.002,396.681 338.150 C 396.816 337.297,397.167 336.228,397.461 335.774 C 397.755 335.320,398.110 334.060,398.251 332.974 C 398.392 331.888,398.798 330.666,399.154 330.258 C 400.148 329.116,400.148 70.884,399.154 69.742 C 398.798 69.334,398.392 68.112,398.251 67.026 C 398.110 65.940,397.726 64.642,397.398 64.140 C 397.069 63.639,396.799 62.817,396.799 62.314 C 396.798 61.811,396.448 60.828,396.022 60.129 C 395.596 59.430,395.128 58.222,394.982 57.443 C 394.836 56.665,394.477 55.830,394.184 55.587 C 393.891 55.344,393.538 54.630,393.400 54.000 C 393.262 53.370,392.890 52.641,392.574 52.379 C 392.258 52.117,392.000 51.502,392.000 51.013 C 392.000 50.524,391.640 49.798,391.200 49.400 C 390.760 49.002,390.400 48.397,390.400 48.055 C 390.400 47.714,389.704 46.437,388.853 45.217 C 388.002 43.998,387.185 42.612,387.037 42.137 C 386.890 41.662,386.506 41.173,386.185 41.050 C 385.863 40.926,385.600 40.577,385.600 40.275 C 385.600 39.972,385.240 39.398,384.800 39.000 C 384.360 38.602,384.000 38.066,384.000 37.810 C 384.000 37.554,383.595 36.958,383.100 36.486 C 381.451 34.912,380.800 34.136,380.800 33.744 C 380.800 32.527,367.304 19.200,366.071 19.200 C 365.827 19.200,365.435 18.840,365.200 18.400 C 364.965 17.960,364.508 17.600,364.186 17.600 C 363.864 17.600,363.600 17.449,363.600 17.265 C 363.600 17.080,362.401 16.135,360.936 15.165 C 359.471 14.194,357.806 13.086,357.236 12.701 C 356.666 12.317,355.705 11.804,355.100 11.562 C 354.495 11.320,354.000 10.981,354.000 10.809 C 354.000 10.638,353.415 10.262,352.700 9.976 C 351.985 9.689,350.971 9.127,350.446 8.727 C 349.921 8.327,349.178 8.000,348.795 8.000 C 348.412 8.000,347.883 7.742,347.621 7.426 C 347.359 7.110,346.630 6.738,346.000 6.600 C 345.370 6.462,344.652 6.104,344.405 5.806 C 344.157 5.507,343.255 5.144,342.400 5.000 C 341.545 4.856,340.645 4.496,340.400 4.200 C 340.155 3.904,339.203 3.536,338.286 3.381 C 337.368 3.226,336.254 2.873,335.809 2.597 C 335.364 2.321,334.113 1.983,333.029 1.846 C 331.945 1.708,330.711 1.282,330.287 0.898 C 329.563 0.243,78.395 -0.345,72.200 0.294 M155.800 85.159 C 158.220 85.581,162.900 86.310,166.200 86.780 C 169.500 87.250,173.730 87.896,175.600 88.215 C 177.470 88.535,180.444 88.967,182.208 89.175 C 186.016 89.625,186.699 89.852,186.986 90.757 C 187.285 91.698,183.832 100.169,181.424 104.400 C 180.861 105.390,180.123 106.740,179.785 107.400 C 179.446 108.060,178.551 109.585,177.795 110.790 C 176.324 113.132,176.439 114.104,178.092 113.304 C 178.591 113.062,180.080 112.393,181.400 111.817 C 182.720 111.240,184.083 110.614,184.428 110.426 C 184.997 110.115,186.354 109.580,192.600 107.203 C 194.871 106.339,203.688 103.548,206.400 102.835 C 209.460 102.030,217.685 100.097,220.000 99.639 C 222.134 99.216,223.137 99.049,231.200 97.776 C 243.969 95.759,263.414 96.349,279.600 99.244 C 288.036 100.753,298.947 104.252,303.200 106.812 C 303.530 107.011,304.821 107.709,306.068 108.364 C 313.263 112.143,321.138 119.345,326.520 127.068 C 327.944 129.112,332.800 137.464,332.800 137.870 C 332.800 137.985,333.059 138.646,333.375 139.340 C 335.060 143.034,337.099 148.573,337.887 151.600 C 340.221 160.565,341.741 167.968,342.199 172.600 C 342.330 173.920,342.739 177.070,343.108 179.600 C 344.108 186.445,344.104 218.962,343.102 227.000 C 342.719 230.080,342.226 234.220,342.009 236.200 C 341.357 242.124,340.157 248.850,338.726 254.600 C 338.507 255.480,338.096 257.190,337.812 258.400 C 337.210 260.970,335.807 265.259,334.979 267.060 C 334.661 267.754,334.400 268.496,334.400 268.710 C 334.400 269.456,331.382 276.005,329.290 279.800 C 323.207 290.829,313.878 299.595,303.559 303.976 C 301.931 304.666,300.330 305.375,300.000 305.550 C 291.114 310.258,264.344 311.143,247.000 307.303 C 245.460 306.962,243.030 306.454,241.600 306.174 C 233.251 304.538,233.329 304.600,233.965 300.113 C 235.475 289.464,235.596 289.265,240.041 290.118 C 274.163 296.663,292.399 286.384,300.216 256.200 C 300.501 255.100,301.207 252.400,301.785 250.200 C 302.870 246.073,303.608 242.066,304.622 234.800 C 304.944 232.490,305.389 229.610,305.611 228.400 C 305.832 227.190,306.191 223.050,306.407 219.200 C 306.624 215.350,306.897 211.625,307.014 210.923 C 307.764 206.437,306.658 175.007,305.567 169.800 C 305.336 168.700,304.990 166.309,304.797 164.487 C 302.730 144.945,291.245 129.818,274.400 124.448 C 264.688 121.353,259.511 120.654,246.400 120.672 C 235.892 120.686,222.718 121.685,215.800 122.993 C 214.040 123.326,211.520 123.805,210.200 124.056 C 208.880 124.308,206.630 124.737,205.200 125.009 C 202.172 125.586,198.467 126.498,194.800 127.570 C 193.370 127.988,190.850 128.721,189.200 129.200 C 187.550 129.679,185.570 130.302,184.800 130.585 C 184.030 130.868,182.362 131.475,181.094 131.934 C 175.843 133.836,173.998 134.561,170.000 136.293 C 165.647 138.179,157.391 142.196,154.600 143.787 C 153.720 144.288,152.125 145.173,151.055 145.754 C 147.877 147.477,139.783 152.678,135.067 156.027 C 130.974 158.933,130.007 159.071,128.200 157.002 C 127.980 156.751,126.315 155.226,124.500 153.615 C 120.678 150.223,120.586 149.873,122.766 147.037 C 128.734 139.274,135.598 127.057,139.978 116.400 C 140.476 115.190,141.109 113.660,141.385 113.000 C 141.662 112.340,142.267 110.762,142.729 109.494 C 143.191 108.225,143.918 106.245,144.343 105.094 C 145.622 101.632,148.059 93.153,149.025 88.800 C 149.777 85.413,150.211 84.402,150.914 84.396 C 151.181 84.394,153.380 84.738,155.800 85.159 M101.563 97.985 C 117.734 104.411,121.937 122.548,110.108 134.854 C 96.788 148.712,73.523 139.715,72.127 120.167 C 71.059 105.227,87.883 92.549,101.563 97.985 M181.200 141.389 C 182.630 141.682,184.970 142.045,186.400 142.196 C 187.830 142.346,190.170 142.712,191.600 143.007 C 193.030 143.303,194.875 143.656,195.700 143.791 C 197.991 144.166,197.332 146.201,193.314 151.159 C 190.821 154.235,191.019 154.573,195.405 154.722 C 200.825 154.905,236.136 153.981,269.239 152.790 C 283.678 152.270,282.799 151.922,281.787 157.757 C 280.461 165.398,277.911 168.835,272.078 170.842 C 269.597 171.696,268.989 171.744,249.600 172.626 C 242.010 172.971,235.395 173.418,234.900 173.618 C 234.001 173.982,234.000 173.995,234.000 183.763 C 234.000 195.080,233.993 195.057,237.171 194.650 C 238.177 194.521,245.480 194.235,253.400 194.015 C 261.320 193.795,272.443 193.404,278.119 193.146 C 285.517 192.810,288.560 192.800,288.870 193.110 C 290.320 194.560,288.361 203.819,285.964 206.845 C 282.185 211.617,279.581 212.239,261.000 212.811 C 238.558 213.501,234.908 213.719,234.227 214.409 C 233.319 215.327,232.796 249.070,233.684 249.411 C 234.275 249.638,235.994 249.122,241.800 246.977 C 243.340 246.408,245.230 245.757,246.000 245.530 C 246.770 245.303,247.580 244.973,247.800 244.797 C 248.020 244.622,249.910 243.815,252.000 243.004 C 254.090 242.193,256.880 241.024,258.200 240.406 C 259.520 239.788,261.860 238.709,263.400 238.009 C 266.473 236.612,271.581 234.058,276.717 231.349 C 282.461 228.320,282.141 227.481,283.233 248.446 C 284.112 265.316,281.022 270.636,268.400 273.985 C 262.300 275.604,262.547 275.838,261.760 267.716 C 260.743 257.229,261.296 257.925,256.087 260.572 C 248.566 264.394,239.129 268.683,231.800 271.613 C 226.006 273.929,224.618 274.466,223.000 275.020 C 222.120 275.321,220.140 276.039,218.600 276.614 C 201.669 282.941,178.516 285.970,166.200 283.469 C 147.860 279.745,140.387 268.449,142.337 247.400 C 143.007 240.167,144.862 231.516,146.012 230.258 C 146.184 230.070,148.096 230.196,150.262 230.539 C 152.428 230.882,155.640 231.275,157.400 231.413 C 159.160 231.552,161.340 231.825,162.244 232.022 C 163.148 232.218,166.028 232.575,168.644 232.815 C 174.554 233.358,174.720 233.482,174.078 236.890 C 170.955 253.462,172.755 258.184,182.856 259.907 C 187.187 260.646,197.946 259.791,199.149 258.612 C 199.829 257.945,200.326 216.191,199.665 215.237 C 199.331 214.755,196.942 214.741,183.137 215.142 C 159.375 215.832,147.352 215.774,147.043 214.967 C 146.517 213.596,146.776 197.718,147.332 197.256 C 147.690 196.959,154.675 196.672,168.632 196.379 C 180.055 196.140,191.740 195.822,194.600 195.672 L 199.800 195.400 199.907 185.386 C 199.988 177.788,199.891 175.208,199.507 174.694 C 199.037 174.067,197.897 174.047,183.800 174.426 L 168.600 174.834 165.200 177.046 C 157.792 181.867,150.645 186.000,149.717 186.000 C 149.332 186.000,143.111 178.327,142.118 176.626 C 141.313 175.248,141.811 174.588,149.340 167.060 C 153.333 163.067,158.566 157.411,160.969 154.490 C 165.206 149.341,166.342 147.835,169.482 143.200 C 170.302 141.990,171.159 140.856,171.386 140.679 C 171.916 140.268,177.820 140.695,181.200 141.389 M92.200 164.205 C 93.080 164.731,94.070 165.292,94.400 165.450 C 109.996 172.950,125.957 187.629,128.673 196.970 C 130.347 202.727,128.867 215.685,125.678 223.200 C 125.445 223.750,124.714 225.910,124.053 228.000 C 123.393 230.090,122.384 233.060,121.810 234.600 C 121.237 236.140,120.521 238.120,120.220 239.000 C 119.919 239.880,119.286 241.590,118.814 242.800 C 118.341 244.010,117.351 246.620,116.612 248.600 C 115.161 252.494,107.539 271.569,105.792 275.679 C 105.203 277.065,104.360 279.100,103.919 280.200 C 103.478 281.300,102.872 282.740,102.571 283.400 C 101.822 285.044,99.227 291.444,98.517 293.397 C 98.198 294.275,97.803 295.175,97.639 295.397 C 97.476 295.619,96.754 297.315,96.037 299.166 C 94.653 302.734,93.735 304.400,93.152 304.400 C 92.701 304.400,84.303 300.443,62.705 290.051 C 59.902 288.703,57.451 287.600,57.258 287.600 C 56.599 287.600,54.800 285.943,54.800 285.335 C 54.800 285.001,56.735 282.469,59.100 279.708 C 63.268 274.842,66.489 270.940,72.098 263.958 C 73.581 262.111,75.601 259.610,76.586 258.400 C 78.650 255.863,86.673 245.396,88.927 242.299 C 109.883 213.503,112.088 207.656,104.617 200.694 C 101.279 197.583,85.949 189.075,74.200 183.811 C 70.190 182.014,69.986 181.884,69.757 180.972 C 69.549 180.142,80.478 163.116,82.885 160.520 L 83.701 159.641 87.150 161.445 C 89.048 162.437,91.320 163.679,92.200 164.205 " stroke="none" fill="#fb5504" fill-rule="evenodd"></path><path id="path2" d="M248.500 96.691 C 249.325 96.778,250.675 96.778,251.500 96.691 C 252.325 96.605,251.650 96.534,250.000 96.534 C 248.350 96.534,247.675 96.605,248.500 96.691 M90.472 97.062 C 73.069 100.834,66.269 121.289,78.111 134.246 C 93.662 151.260,121.923 135.732,116.050 113.400 C 113.222 102.648,100.929 94.796,90.472 97.062 M239.300 120.676 C 239.685 120.776,240.315 120.776,240.700 120.676 C 241.085 120.575,240.770 120.493,240.000 120.493 C 239.230 120.493,238.915 120.575,239.300 120.676 M266.500 153.076 C 266.885 153.176,267.515 153.176,267.900 153.076 C 268.285 152.975,267.970 152.893,267.200 152.893 C 266.430 152.893,266.115 152.975,266.500 153.076 M227.300 154.276 C 227.685 154.376,228.315 154.376,228.700 154.276 C 229.085 154.175,228.770 154.093,228.000 154.093 C 227.230 154.093,226.915 154.175,227.300 154.276 M209.491 154.689 C 210.201 154.777,211.461 154.779,212.291 154.692 C 213.121 154.605,212.540 154.533,211.000 154.531 C 209.460 154.529,208.781 154.600,209.491 154.689 M191.505 174.283 C 192.002 174.379,192.722 174.375,193.105 174.275 C 193.487 174.175,193.080 174.096,192.200 174.101 C 191.320 174.105,191.007 174.187,191.505 174.283 M173.107 174.690 C 173.826 174.779,174.906 174.777,175.507 174.686 C 176.108 174.595,175.520 174.522,174.200 174.524 C 172.880 174.526,172.388 174.601,173.107 174.690 M233.772 183.800 C 233.772 188.860,233.829 190.875,233.899 188.277 C 233.969 185.680,233.968 181.540,233.898 179.077 C 233.828 176.615,233.771 178.740,233.772 183.800 M343.714 191.400 C 343.717 192.500,343.795 192.903,343.887 192.295 C 343.979 191.686,343.977 190.786,343.882 190.295 C 343.787 189.803,343.711 190.300,343.714 191.400 M260.905 193.887 C 261.514 193.979,262.414 193.977,262.905 193.882 C 263.397 193.787,262.900 193.711,261.800 193.714 C 260.700 193.717,260.297 193.795,260.905 193.887 M307.334 197.600 C 307.334 199.250,307.405 199.925,307.491 199.100 C 307.578 198.275,307.578 196.925,307.491 196.100 C 307.405 195.275,307.334 195.950,307.334 197.600 M192.705 195.883 C 193.202 195.979,193.922 195.975,194.305 195.875 C 194.687 195.775,194.280 195.696,193.400 195.701 C 192.520 195.705,192.207 195.787,192.705 195.883 M179.105 196.283 C 179.602 196.379,180.322 196.375,180.705 196.275 C 181.087 196.175,180.680 196.096,179.800 196.101 C 178.920 196.105,178.607 196.187,179.105 196.283 M158.300 196.693 C 159.235 196.777,160.765 196.777,161.700 196.693 C 162.635 196.609,161.870 196.540,160.000 196.540 C 158.130 196.540,157.365 196.609,158.300 196.693 M307.301 202.600 C 307.305 203.480,307.387 203.793,307.483 203.295 C 307.579 202.798,307.575 202.078,307.475 201.695 C 307.375 201.313,307.296 201.720,307.301 202.600 M343.724 214.200 C 343.726 215.520,343.801 216.012,343.890 215.293 C 343.979 214.574,343.977 213.494,343.886 212.893 C 343.795 212.292,343.722 212.880,343.724 214.200 M264.105 212.687 C 264.714 212.779,265.614 212.777,266.105 212.682 C 266.597 212.587,266.100 212.511,265.000 212.514 C 263.900 212.517,263.497 212.595,264.105 212.687 M197.105 214.683 C 197.602 214.779,198.322 214.775,198.705 214.675 C 199.087 214.575,198.680 214.496,197.800 214.501 C 196.920 214.505,196.607 214.587,197.105 214.683 M185.500 215.082 C 185.995 215.178,186.805 215.178,187.300 215.082 C 187.795 214.987,187.390 214.909,186.400 214.909 C 185.410 214.909,185.005 214.987,185.500 215.082 M170.900 215.487 C 171.505 215.578,172.495 215.578,173.100 215.487 C 173.705 215.395,173.210 215.320,172.000 215.320 C 170.790 215.320,170.295 215.395,170.900 215.487 M233.331 226.200 C 233.333 227.740,233.405 228.321,233.492 227.491 C 233.579 226.661,233.577 225.401,233.489 224.691 C 233.400 223.981,233.329 224.660,233.331 226.200 M199.734 251.200 C 199.734 252.850,199.805 253.525,199.891 252.700 C 199.978 251.875,199.978 250.525,199.891 249.700 C 199.805 248.875,199.734 249.550,199.734 251.200 M319.178 293.100 L 317.800 294.600 319.300 293.222 C 320.696 291.938,320.984 291.600,320.678 291.600 C 320.612 291.600,319.937 292.275,319.178 293.100 M271.700 309.891 C 272.525 309.978,273.875 309.978,274.700 309.891 C 275.525 309.805,274.850 309.734,273.200 309.734 C 271.550 309.734,270.875 309.805,271.700 309.891 " stroke="none" fill="#fcf607" fill-rule="evenodd"></path></g></svg>