<svg id="svg" version="1.1" xmlns="http://www.w3.org/2000/svg" xmlns:xlink="http://www.w3.org/1999/xlink" width="48" height="48" viewBox="0 0 400 400"><g id="svgg"><path id="path0" d="M168.000 61.221 C 163.490 61.380,157.730 61.794,155.200 62.140 C 152.670 62.486,148.440 62.969,145.800 63.213 C 140.351 63.717,132.674 64.970,130.000 65.792 C 129.010 66.096,127.210 66.460,126.000 66.601 C 121.662 67.104,105.185 72.592,100.600 75.060 C 99.940 75.416,98.230 76.329,96.800 77.090 C 92.287 79.491,86.400 83.612,86.400 84.371 C 86.400 84.510,85.804 85.248,85.076 86.012 C 83.087 88.098,77.600 96.179,77.600 97.022 C 77.600 97.113,76.790 98.874,75.800 100.936 C 74.810 102.999,74.000 104.991,74.000 105.363 C 74.000 105.735,73.709 106.603,73.353 107.291 C 72.203 109.515,69.250 121.418,68.592 126.480 C 68.241 129.186,67.788 132.120,67.586 133.000 C 66.188 139.093,66.064 171.798,67.398 182.600 C 67.751 185.460,68.381 191.580,68.799 196.200 C 69.216 200.820,69.930 207.030,70.386 210.000 C 70.841 212.970,71.491 217.380,71.829 219.800 C 72.168 222.220,72.722 225.280,73.060 226.600 C 73.399 227.920,73.909 230.440,74.193 232.200 C 74.784 235.855,78.122 249.132,78.740 250.287 C 78.966 250.710,79.418 252.123,79.744 253.427 C 82.323 263.731,89.651 279.216,96.600 289.046 C 104.494 300.213,116.564 310.297,128.600 315.782 C 129.920 316.383,131.720 317.209,132.600 317.616 C 133.480 318.024,135.100 318.652,136.200 319.012 C 137.300 319.372,139.730 320.172,141.600 320.790 C 146.842 322.520,150.487 323.372,157.200 324.434 C 158.850 324.695,161.460 325.147,163.000 325.439 C 173.208 327.373,212.516 327.094,226.076 324.992 C 228.208 324.661,232.348 324.207,235.276 323.982 C 238.204 323.758,241.950 323.317,243.600 323.003 C 245.250 322.690,248.670 322.147,251.200 321.797 C 256.057 321.126,263.148 319.752,264.593 319.203 C 265.065 319.023,266.520 318.755,267.826 318.607 C 269.132 318.459,271.280 318.004,272.600 317.596 C 273.920 317.188,276.440 316.490,278.200 316.045 C 279.960 315.600,282.480 314.855,283.800 314.389 C 285.120 313.924,287.100 313.301,288.200 313.006 C 293.690 311.534,307.569 305.123,312.686 301.695 C 313.913 300.873,315.425 299.872,316.046 299.471 C 317.738 298.377,321.989 289.329,323.998 282.544 C 324.398 281.193,324.902 279.753,325.118 279.344 C 325.836 277.986,329.195 263.856,329.621 260.400 C 329.852 258.530,330.292 256.010,330.599 254.800 C 332.275 248.197,334.001 220.549,333.995 200.400 C 333.989 180.386,332.310 154.749,330.552 147.855 C 330.224 146.565,329.792 144.083,329.593 142.340 C 329.394 140.597,328.954 138.232,328.615 137.085 C 328.276 135.938,327.383 132.750,326.631 130.000 C 324.077 120.656,321.062 112.864,317.963 107.600 C 317.769 107.270,317.316 106.460,316.955 105.800 C 312.222 97.126,302.578 86.578,294.764 81.529 C 289.703 78.259,288.748 77.705,284.970 75.840 C 277.742 72.270,277.807 72.297,270.600 70.013 C 261.617 67.168,260.510 66.859,258.400 66.607 C 257.190 66.463,255.390 66.097,254.400 65.792 C 251.781 64.988,243.534 63.710,236.347 62.995 C 232.908 62.653,229.038 62.192,227.747 61.971 C 221.975 60.982,187.149 60.544,168.000 61.221 M246.481 105.919 C 246.867 106.306,247.025 108.601,247.097 114.874 C 247.160 120.427,247.348 123.496,247.645 123.855 C 248.017 124.302,251.854 124.400,269.075 124.400 C 290.015 124.400,291.234 124.472,292.094 125.760 C 292.867 126.917,292.429 142.371,291.600 143.200 C 290.820 143.980,290.267 144.000,269.774 144.000 C 256.045 144.000,248.479 144.144,247.974 144.414 C 246.936 144.969,246.743 182.723,247.774 183.578 C 248.202 183.934,253.552 184.044,268.915 184.015 C 289.339 183.975,291.298 184.086,292.086 185.325 C 292.252 185.586,292.391 201.939,292.394 221.664 L 292.400 257.529 291.382 261.355 C 289.471 268.535,286.251 273.622,281.002 277.755 C 272.332 284.581,272.511 284.550,239.800 284.710 C 212.261 284.845,210.858 284.801,209.813 283.756 C 208.736 282.678,208.899 185.997,209.979 185.019 C 210.657 184.406,211.820 184.293,218.858 184.158 C 223.312 184.073,227.094 183.866,227.262 183.698 C 227.430 183.530,227.597 166.659,227.634 146.207 C 227.709 104.180,227.626 106.139,229.353 105.622 C 231.316 105.034,245.848 105.287,246.481 105.919 M196.676 106.770 C 198.278 108.263,198.618 235.466,197.024 236.632 C 195.822 237.511,179.914 237.457,179.029 236.571 C 178.463 236.006,178.400 230.438,178.400 181.251 C 178.400 139.247,178.289 126.449,177.920 126.080 C 177.288 125.448,144.146 125.397,141.888 126.024 C 139.251 126.757,136.356 129.491,135.117 132.421 L 134.026 135.000 134.013 185.471 C 134.001 230.810,133.936 236.007,133.371 236.571 C 132.433 237.509,116.367 237.509,115.429 236.571 C 114.495 235.638,114.468 135.383,115.400 131.987 C 115.730 130.784,116.195 128.823,116.434 127.629 C 117.039 124.595,119.462 120.380,123.194 115.868 C 126.824 111.481,135.390 107.336,143.000 106.286 C 147.896 105.610,195.895 106.043,196.676 106.770 M165.018 138.982 L 166.000 139.964 166.001 187.682 C 166.003 243.219,165.893 241.596,170.152 249.200 C 173.442 255.072,180.371 261.096,185.800 262.804 C 186.680 263.081,187.890 263.555,188.489 263.858 C 189.088 264.161,191.131 264.566,193.029 264.759 C 197.969 265.260,197.775 264.890,197.925 274.087 C 198.085 283.905,197.630 285.166,194.128 284.613 C 193.508 284.515,191.470 284.220,189.600 283.957 C 187.730 283.694,185.227 283.146,184.037 282.740 C 182.848 282.333,181.588 281.999,181.237 281.998 C 180.887 281.998,179.520 281.458,178.200 280.800 C 176.880 280.142,175.620 279.599,175.400 279.595 C 175.041 279.587,171.443 277.355,166.850 274.291 C 164.959 273.030,159.436 267.687,157.892 265.625 C 156.581 263.875,156.112 264.073,152.760 267.800 C 144.194 277.324,131.926 283.450,119.782 284.265 C 114.563 284.615,114.800 285.063,114.800 274.848 C 114.800 264.851,114.588 265.325,119.263 264.855 C 132.045 263.571,144.426 251.996,146.004 239.857 C 146.214 238.241,146.381 216.004,146.388 188.674 C 146.401 138.324,146.373 139.109,148.126 138.403 C 150.425 137.477,163.978 137.941,165.018 138.982 M229.500 204.032 C 228.843 204.415,228.800 206.289,228.800 234.412 L 228.800 264.385 229.700 264.608 C 230.195 264.730,238.526 264.779,248.213 264.715 L 265.827 264.600 267.761 263.200 C 270.672 261.093,271.911 259.109,272.384 255.800 C 273.111 250.711,272.922 204.980,272.171 204.229 C 271.411 203.468,230.790 203.281,229.500 204.032 " stroke="none" fill="#483cb1" fill-rule="evenodd"></path><path id="path1" d="M84.322 85.500 C 70.456 99.047,63.698 110.441,58.404 129.200 C 57.566 132.170,56.704 135.050,56.489 135.600 C 56.275 136.150,55.975 137.770,55.824 139.200 C 55.672 140.630,55.206 143.168,54.787 144.839 C 54.369 146.511,53.742 150.651,53.395 154.039 C 53.048 157.428,52.680 160.482,52.578 160.827 C 52.352 161.590,51.367 175.267,50.750 186.200 C 50.005 199.414,50.867 223.656,52.586 237.800 C 52.907 240.440,53.365 244.490,53.603 246.800 C 53.841 249.110,54.303 251.945,54.629 253.100 C 54.956 254.255,55.404 256.685,55.625 258.500 C 55.846 260.315,56.292 262.613,56.615 263.608 C 56.938 264.602,57.820 267.752,58.574 270.608 C 60.148 276.567,60.922 278.944,62.253 281.909 C 62.774 283.069,63.200 284.188,63.200 284.396 C 63.200 285.003,67.145 293.116,69.135 296.600 C 78.903 313.702,93.609 326.100,113.000 333.580 C 121.052 336.685,121.581 336.871,123.897 337.402 C 125.164 337.692,127.730 338.394,129.600 338.961 C 131.470 339.528,134.260 340.188,135.800 340.426 C 137.340 340.665,140.071 341.208,141.868 341.633 C 143.666 342.059,147.086 342.582,149.468 342.797 C 154.679 343.266,163.243 344.532,163.885 344.929 C 164.307 345.190,166.916 349.374,171.000 356.341 C 171.880 357.843,173.389 360.315,174.353 361.835 C 175.318 363.356,176.503 365.230,176.987 366.000 C 181.608 373.350,182.093 373.974,183.850 374.824 C 187.587 376.633,189.800 374.865,196.400 364.796 C 197.345 363.354,198.511 361.711,200.800 358.595 C 201.836 357.184,202.317 356.504,205.602 351.800 C 210.396 344.935,209.585 345.366,218.400 345.012 C 226.360 344.693,234.109 344.065,236.400 343.553 C 237.390 343.332,240.163 342.979,242.561 342.769 C 244.960 342.558,248.290 342.045,249.961 341.628 C 251.633 341.211,253.810 340.746,254.800 340.595 C 257.130 340.239,263.817 338.524,264.710 338.054 C 265.089 337.853,266.480 337.469,267.800 337.198 C 269.120 336.928,270.868 336.368,271.684 335.954 C 272.500 335.539,273.370 335.200,273.617 335.200 C 274.237 335.200,279.012 333.108,283.800 330.738 C 295.932 324.734,305.504 316.426,312.994 305.400 C 314.488 303.200,316.077 300.996,316.524 300.502 C 316.971 300.007,317.206 299.472,317.046 299.312 C 316.745 299.011,316.433 299.182,312.684 301.695 C 307.576 305.119,293.692 311.534,288.200 313.006 C 287.100 313.301,285.120 313.924,283.800 314.389 C 282.480 314.855,279.960 315.600,278.200 316.045 C 276.440 316.490,273.920 317.188,272.600 317.596 C 271.280 318.004,269.132 318.459,267.826 318.607 C 266.520 318.755,265.065 319.023,264.593 319.203 C 263.148 319.752,256.057 321.126,251.200 321.797 C 248.670 322.147,245.250 322.690,243.600 323.003 C 241.950 323.317,238.204 323.758,235.276 323.982 C 232.348 324.207,228.208 324.661,226.076 324.992 C 212.516 327.094,173.208 327.373,163.000 325.439 C 161.460 325.147,158.850 324.695,157.200 324.434 C 150.487 323.372,146.842 322.520,141.600 320.790 C 139.730 320.172,137.300 319.372,136.200 319.012 C 135.100 318.652,133.480 318.024,132.600 317.616 C 131.720 317.209,129.920 316.383,128.600 315.782 C 116.564 310.297,104.494 300.213,96.600 289.046 C 89.651 279.216,82.323 263.731,79.744 253.427 C 79.418 252.123,78.966 250.710,78.740 250.287 C 78.122 249.132,74.784 235.855,74.193 232.200 C 73.909 230.440,73.399 227.920,73.060 226.600 C 72.722 225.280,72.168 222.220,71.829 219.800 C 71.491 217.380,70.841 212.970,70.386 210.000 C 69.930 207.030,69.216 200.820,68.799 196.200 C 68.381 191.580,67.751 185.460,67.398 182.600 C 66.064 171.798,66.188 139.093,67.586 133.000 C 67.788 132.120,68.241 129.186,68.592 126.480 C 69.250 121.418,72.203 109.515,73.353 107.291 C 73.709 106.603,74.000 105.735,74.000 105.363 C 74.000 104.991,74.810 102.999,75.800 100.936 C 76.790 98.874,77.600 97.113,77.600 97.022 C 77.600 96.734,81.634 90.252,82.717 88.800 C 84.190 86.825,85.882 84.952,88.200 82.731 C 89.300 81.677,89.960 80.811,89.666 80.807 C 89.373 80.803,86.968 82.915,84.322 85.500 M229.353 105.622 C 227.626 106.139,227.709 104.180,227.634 146.207 C 227.597 166.659,227.430 183.530,227.262 183.698 C 227.094 183.866,223.312 184.073,218.858 184.158 C 211.820 184.293,210.657 184.406,209.979 185.019 C 208.899 185.997,208.736 282.678,209.813 283.756 C 210.858 284.801,212.261 284.845,239.800 284.710 C 272.511 284.550,272.332 284.581,281.002 277.755 C 286.251 273.622,289.471 268.535,291.382 261.355 L 292.400 257.529 292.394 221.664 C 292.391 201.939,292.252 185.586,292.086 185.325 C 291.298 184.086,289.339 183.975,268.915 184.015 C 253.552 184.044,248.202 183.934,247.774 183.578 C 246.743 182.723,246.936 144.969,247.974 144.414 C 248.479 144.144,256.045 144.000,269.774 144.000 C 290.267 144.000,290.820 143.980,291.600 143.200 C 292.429 142.371,292.867 126.917,292.094 125.760 C 291.234 124.472,290.015 124.400,269.075 124.400 C 251.854 124.400,248.017 124.302,247.645 123.855 C 247.348 123.496,247.160 120.427,247.097 114.874 C 247.025 108.601,246.867 106.306,246.481 105.919 C 245.848 105.287,231.316 105.034,229.353 105.622 M143.000 106.286 C 135.390 107.336,126.824 111.481,123.194 115.868 C 119.462 120.380,117.039 124.595,116.434 127.629 C 116.195 128.823,115.730 130.784,115.400 131.987 C 114.468 135.383,114.495 235.638,115.429 236.571 C 116.367 237.509,132.433 237.509,133.371 236.571 C 133.936 236.007,134.001 230.810,134.013 185.471 L 134.026 135.000 135.117 132.421 C 136.356 129.491,139.251 126.757,141.888 126.024 C 144.146 125.397,177.288 125.448,177.920 126.080 C 178.289 126.449,178.400 139.247,178.400 181.251 C 178.400 230.438,178.463 236.006,179.029 236.571 C 179.914 237.457,195.822 237.511,197.024 236.632 C 198.618 235.466,198.278 108.263,196.676 106.770 C 195.895 106.043,147.896 105.610,143.000 106.286 M245.600 106.391 C 246.097 106.705,246.222 108.281,246.328 115.582 C 246.451 124.076,246.487 124.416,247.317 124.997 C 248.058 125.516,251.114 125.600,269.209 125.600 C 285.033 125.600,290.359 125.719,290.720 126.080 C 291.397 126.757,291.397 141.643,290.720 142.320 C 290.359 142.681,285.073 142.801,269.420 142.806 C 253.439 142.810,248.368 142.929,247.600 143.318 L 246.600 143.823 246.496 163.879 C 246.404 181.718,246.463 184.005,247.025 184.568 C 247.585 185.128,250.076 185.200,268.980 185.200 C 286.726 185.200,290.380 185.294,290.765 185.758 C 291.110 186.173,291.199 195.727,291.114 223.258 L 291.000 260.200 289.713 263.726 C 286.794 271.725,278.955 280.139,273.258 281.388 C 272.520 281.550,271.080 282.068,270.058 282.541 C 267.531 283.709,212.692 284.145,210.960 283.011 L 210.000 282.382 210.000 234.181 L 210.000 185.980 211.026 185.590 C 211.590 185.376,215.415 185.197,219.526 185.194 C 223.637 185.191,227.228 185.043,227.507 184.866 C 228.717 184.098,228.809 181.267,228.796 145.200 C 228.789 125.070,228.787 108.189,228.792 107.687 C 228.797 107.119,229.140 106.638,229.700 106.412 C 230.904 105.929,244.838 105.910,245.600 106.391 M196.171 107.829 C 196.921 108.578,197.154 233.416,196.410 235.374 L 196.020 236.400 188.041 236.400 L 180.062 236.400 179.566 234.900 C 179.176 233.721,179.126 222.038,179.331 180.272 C 179.609 123.614,179.658 125.368,177.782 124.648 C 175.791 123.885,144.027 124.401,141.802 125.234 C 138.377 126.515,136.407 128.232,134.713 131.410 L 133.225 134.200 133.213 184.667 C 133.206 212.424,133.091 235.419,132.957 235.767 C 132.594 236.713,117.174 236.717,116.229 235.771 C 115.664 235.207,115.600 230.076,115.600 185.271 L 115.600 135.400 116.537 130.800 C 118.968 118.872,128.731 109.268,140.119 107.604 C 144.663 106.940,195.486 107.144,196.171 107.829 M148.126 138.403 C 146.373 139.109,146.401 138.324,146.388 188.674 C 146.381 216.004,146.214 238.241,146.004 239.857 C 144.426 251.996,132.045 263.571,119.263 264.855 C 114.588 265.325,114.800 264.851,114.800 274.848 C 114.800 285.063,114.563 284.615,119.782 284.265 C 131.926 283.450,144.194 277.324,152.760 267.800 C 156.112 264.073,156.581 263.875,157.892 265.625 C 159.436 267.687,164.959 273.030,166.850 274.291 C 171.443 277.355,175.041 279.587,175.400 279.595 C 175.620 279.599,176.880 280.142,178.200 280.800 C 179.520 281.458,180.887 281.998,181.237 281.998 C 181.588 281.999,182.848 282.333,184.037 282.740 C 185.227 283.146,187.730 283.694,189.600 283.957 C 191.470 284.220,193.508 284.515,194.128 284.613 C 197.630 285.166,198.085 283.905,197.925 274.087 C 197.775 264.890,197.969 265.260,193.029 264.759 C 191.131 264.566,189.088 264.161,188.489 263.858 C 187.890 263.555,186.680 263.081,185.800 262.804 C 180.371 261.096,173.442 255.072,170.152 249.200 C 165.893 241.596,166.003 243.219,166.001 187.682 L 166.000 139.964 165.018 138.982 C 163.978 137.941,150.425 137.477,148.126 138.403 M164.119 139.300 C 164.740 139.763,164.798 143.458,164.902 188.600 L 165.014 237.400 166.105 241.439 C 169.496 253.999,179.379 263.267,191.691 265.434 C 196.967 266.362,196.800 266.051,196.800 274.982 C 196.800 283.987,196.934 283.755,191.953 283.365 C 190.109 283.221,187.610 282.786,186.400 282.398 C 185.190 282.011,183.480 281.567,182.600 281.412 C 181.720 281.257,179.320 280.336,177.268 279.365 C 175.215 278.394,173.398 277.600,173.230 277.600 C 173.061 277.600,172.602 277.245,172.209 276.810 C 171.816 276.376,171.117 275.901,170.656 275.754 C 168.748 275.149,161.813 269.002,158.400 264.894 C 156.493 262.598,156.183 262.695,152.596 266.700 C 146.434 273.581,136.918 279.787,130.000 281.437 C 128.790 281.725,126.814 282.240,125.609 282.582 C 123.209 283.261,116.896 283.589,116.100 283.075 C 115.728 282.836,115.600 280.761,115.600 274.986 C 115.600 265.830,115.221 266.483,121.149 265.432 C 123.210 265.066,125.550 264.440,126.349 264.040 C 127.147 263.640,128.250 263.206,128.800 263.074 C 131.721 262.375,138.859 256.368,141.683 252.232 C 147.713 243.399,147.602 244.630,147.601 186.533 L 147.600 139.667 148.700 139.265 C 150.374 138.654,163.290 138.683,164.119 139.300 M229.585 202.916 C 227.596 203.431,227.600 203.375,227.600 234.572 C 227.600 263.629,227.607 263.902,228.429 264.946 L 229.258 266.000 246.365 266.000 C 264.989 266.000,265.755 265.923,268.658 263.751 C 270.819 262.135,271.494 261.313,272.724 258.800 L 273.800 256.600 273.916 230.585 L 274.032 204.570 273.098 203.692 C 272.116 202.770,232.848 202.069,229.585 202.916 M272.171 204.229 C 272.922 204.980,273.111 250.711,272.384 255.800 C 271.911 259.109,270.672 261.093,267.761 263.200 L 265.827 264.600 248.213 264.715 C 238.526 264.779,230.195 264.730,229.700 264.608 L 228.800 264.385 228.800 234.412 C 228.800 206.289,228.843 204.415,229.500 204.032 C 230.790 203.281,271.411 203.468,272.171 204.229 " stroke="none" fill="#5bb4fb" fill-rule="evenodd"></path><path id="path2" d="M230.400 41.631 C 227.210 41.778,220.010 42.108,214.400 42.362 C 208.790 42.617,202.400 43.097,200.200 43.430 C 198.000 43.762,192.780 44.381,188.600 44.805 C 179.485 45.730,173.380 46.587,170.400 47.360 C 169.190 47.674,166.702 48.050,164.872 48.195 C 163.041 48.341,160.611 48.737,159.472 49.076 C 158.332 49.415,155.960 49.920,154.200 50.198 C 150.906 50.719,148.715 51.277,133.800 55.396 C 131.534 56.022,125.950 58.090,120.600 60.285 C 110.185 64.559,99.653 71.222,92.671 77.954 C 89.993 80.536,88.662 82.439,90.689 80.786 C 91.985 79.730,93.209 78.991,97.000 76.978 C 98.320 76.277,99.940 75.413,100.600 75.059 C 102.821 73.866,107.367 72.090,112.400 70.447 C 121.075 67.616,123.738 66.863,126.000 66.601 C 127.210 66.460,129.010 66.096,130.000 65.792 C 132.722 64.955,140.393 63.709,146.000 63.193 C 148.750 62.940,152.890 62.470,155.200 62.149 C 166.761 60.544,218.675 60.416,227.747 61.971 C 229.038 62.192,232.908 62.653,236.347 62.995 C 243.534 63.710,251.781 64.988,254.400 65.792 C 255.390 66.097,257.190 66.463,258.400 66.607 C 260.510 66.859,261.617 67.168,270.600 70.013 C 277.807 72.297,277.742 72.270,284.970 75.840 C 288.748 77.705,289.703 78.259,294.764 81.529 C 302.578 86.578,312.222 97.126,316.955 105.800 C 317.316 106.460,317.769 107.270,317.963 107.600 C 321.062 112.864,324.077 120.656,326.631 130.000 C 327.383 132.750,328.276 135.938,328.615 137.085 C 328.954 138.232,329.394 140.597,329.593 142.340 C 329.792 144.083,330.224 146.565,330.552 147.855 C 332.310 154.749,333.989 180.386,333.995 200.400 C 334.001 220.549,332.275 248.197,330.599 254.800 C 330.292 256.010,329.852 258.530,329.621 260.400 C 329.195 263.856,325.836 277.986,325.118 279.344 C 324.902 279.753,324.398 281.193,323.998 282.544 C 322.837 286.465,321.299 290.282,319.018 294.905 C 316.982 299.030,316.681 300.479,318.209 298.791 C 318.602 298.356,319.095 298.000,319.303 298.000 C 319.910 298.000,325.544 293.128,328.633 289.931 C 334.665 283.691,337.509 279.717,341.946 271.324 C 343.484 268.415,344.858 265.058,346.198 260.941 C 346.494 260.029,347.021 258.732,347.369 258.061 C 347.716 257.389,348.006 256.336,348.013 255.720 C 348.020 255.104,348.377 253.610,348.805 252.400 C 349.490 250.464,350.884 242.644,352.442 232.000 C 353.151 227.150,353.405 196.643,352.797 189.200 C 351.149 169.006,349.739 155.055,349.036 151.987 C 348.710 150.564,348.326 147.780,348.182 145.800 C 348.038 143.820,347.652 141.120,347.323 139.800 C 346.994 138.480,346.472 136.050,346.163 134.400 C 345.854 132.750,345.247 129.510,344.815 127.200 C 344.383 124.890,343.760 122.280,343.432 121.400 C 343.104 120.520,342.827 119.314,342.818 118.720 C 342.808 118.126,342.279 115.966,341.642 113.920 C 341.005 111.874,340.077 108.850,339.580 107.200 C 339.084 105.550,338.345 103.532,337.939 102.716 C 337.532 101.900,337.198 100.910,337.196 100.516 C 337.194 100.122,336.750 98.900,336.209 97.800 C 335.668 96.700,335.219 95.651,335.213 95.468 C 335.197 95.046,331.808 87.728,331.013 86.400 C 330.684 85.850,330.140 84.819,329.806 84.109 C 329.244 82.919,325.260 76.899,322.850 73.600 C 319.492 69.003,311.883 61.653,306.893 58.186 C 302.789 55.334,292.897 50.000,291.713 50.000 C 291.443 50.000,290.452 49.654,289.511 49.232 C 282.838 46.234,267.808 43.015,257.600 42.396 C 241.611 41.428,237.357 41.308,230.400 41.631 " stroke="none" fill="#ea6384" fill-rule="evenodd"></path><path id="path3" d="M64.780 0.360 C 63.323 0.493,61.683 0.914,61.083 1.307 C 60.491 1.696,59.150 2.119,58.103 2.248 C 57.056 2.376,55.750 2.795,55.200 3.178 C 54.650 3.561,53.334 3.972,52.275 4.091 C 51.100 4.223,49.999 4.637,49.449 5.154 C 48.954 5.619,48.273 6.000,47.936 6.000 C 47.599 6.000,46.998 6.360,46.600 6.800 C 46.202 7.240,45.558 7.600,45.169 7.600 C 44.780 7.600,43.927 8.050,43.273 8.600 C 42.619 9.150,41.805 9.600,41.463 9.600 C 41.121 9.600,40.356 10.050,39.762 10.600 C 39.169 11.150,38.301 11.600,37.835 11.600 C 37.368 11.600,36.159 12.393,35.148 13.361 C 34.137 14.330,32.745 15.415,32.055 15.772 C 31.365 16.129,30.800 16.568,30.800 16.749 C 30.800 16.930,30.449 17.240,30.021 17.439 C 27.702 18.514,17.644 28.609,17.271 30.237 C 17.200 30.547,16.979 30.800,16.781 30.800 C 16.583 30.800,16.121 31.385,15.756 32.100 C 15.390 32.815,14.305 34.147,13.345 35.060 C 12.385 35.974,11.600 37.085,11.600 37.530 C 11.600 37.975,11.150 38.873,10.600 39.527 C 10.050 40.181,9.600 40.924,9.600 41.179 C 9.600 41.434,9.150 42.305,8.600 43.114 C 8.050 43.923,7.600 44.741,7.600 44.930 C 7.600 45.119,7.240 45.731,6.800 46.291 C 6.360 46.850,6.000 47.570,6.000 47.890 C 6.000 48.210,5.635 48.771,5.189 49.136 C 4.634 49.591,4.299 50.493,4.125 52.000 C 3.965 53.387,3.621 54.378,3.193 54.683 C 2.760 54.991,2.416 55.999,2.244 57.466 C 2.095 58.731,1.690 60.080,1.343 60.463 C 0.099 61.838,0.035 68.671,0.035 200.200 C 0.035 330.946,0.109 338.905,1.323 339.793 C 1.660 340.040,2.048 341.248,2.213 342.564 C 2.401 344.073,2.769 345.123,3.252 345.537 C 3.742 345.957,4.000 346.709,4.000 347.715 C 4.000 349.363,4.582 350.802,5.458 351.320 C 5.756 351.496,6.000 352.059,6.000 352.571 C 6.000 353.083,6.272 353.728,6.605 354.004 C 6.937 354.280,7.563 355.247,7.995 356.153 C 8.427 357.059,9.004 358.160,9.278 358.600 C 11.146 361.600,11.600 362.445,11.600 362.919 C 11.600 363.214,12.005 363.831,12.500 364.289 C 14.138 365.806,15.600 367.607,15.600 368.107 C 15.600 368.378,16.334 369.403,17.231 370.385 C 18.129 371.367,19.035 372.491,19.245 372.885 C 19.456 373.278,19.892 373.600,20.214 373.600 C 20.536 373.600,20.800 373.806,20.800 374.059 C 20.800 374.680,25.272 379.181,25.900 379.192 C 26.175 379.196,26.400 379.464,26.400 379.786 C 26.400 380.108,26.805 380.587,27.300 380.849 C 27.795 381.112,28.435 381.658,28.723 382.063 C 29.010 382.469,29.486 382.800,29.780 382.800 C 30.074 382.800,30.414 383.061,30.537 383.379 C 30.659 383.698,31.353 384.261,32.079 384.631 C 32.806 385.001,33.670 385.556,34.000 385.864 C 36.525 388.219,37.256 388.801,37.696 388.809 C 37.973 388.814,38.650 389.170,39.200 389.600 C 39.750 390.030,40.487 390.386,40.838 390.391 C 41.189 390.396,41.787 390.744,42.167 391.164 C 42.548 391.584,43.341 392.048,43.929 392.194 C 44.518 392.340,45.360 392.785,45.800 393.184 C 46.240 393.582,47.049 394.045,47.598 394.212 C 48.148 394.380,48.798 394.792,49.045 395.129 C 49.332 395.521,50.370 395.805,51.934 395.918 C 53.817 396.054,54.427 396.256,54.600 396.800 C 54.830 397.524,56.379 398.000,58.506 398.000 C 59.169 398.000,59.927 398.294,60.190 398.653 C 61.109 399.911,65.574 399.952,200.000 399.952 C 334.426 399.952,338.891 399.911,339.810 398.653 C 340.073 398.294,340.718 397.998,341.244 397.996 C 343.541 397.985,345.311 397.462,345.500 396.739 C 345.654 396.151,346.082 396.000,347.593 396.000 C 348.849 396.000,349.817 395.744,350.453 395.244 C 350.981 394.829,352.040 394.202,352.807 393.852 C 354.209 393.212,354.619 392.976,357.222 391.310 C 358.003 390.809,358.920 390.400,359.260 390.400 C 359.599 390.400,360.193 390.050,360.579 389.623 C 360.966 389.195,361.780 388.736,362.386 388.603 C 362.993 388.470,363.874 387.919,364.342 387.380 C 364.811 386.841,365.364 386.400,365.570 386.400 C 365.777 386.400,366.060 386.040,366.200 385.600 C 366.340 385.160,366.770 384.800,367.157 384.800 C 367.544 384.800,368.283 384.350,368.800 383.800 C 369.317 383.250,369.968 382.800,370.247 382.800 C 370.526 382.800,370.990 382.469,371.277 382.063 C 371.565 381.658,372.205 381.112,372.700 380.849 C 373.195 380.587,373.600 380.108,373.600 379.786 C 373.600 379.464,373.838 379.200,374.128 379.200 C 374.418 379.200,375.039 378.795,375.508 378.300 C 376.581 377.167,377.167 376.581,378.300 375.508 C 378.795 375.039,379.200 374.418,379.200 374.128 C 379.200 373.838,379.464 373.600,379.786 373.600 C 380.108 373.600,380.587 373.195,380.849 372.700 C 381.112 372.205,381.658 371.565,382.063 371.277 C 382.469 370.990,382.800 370.566,382.800 370.335 C 382.800 370.104,383.250 369.381,383.800 368.727 C 384.350 368.073,384.800 367.295,384.800 366.996 C 384.800 366.698,385.160 366.340,385.600 366.200 C 386.040 366.060,386.400 365.777,386.400 365.570 C 386.400 365.364,386.848 364.806,387.395 364.330 C 387.941 363.854,388.502 362.861,388.641 362.122 C 388.780 361.383,389.232 360.597,389.647 360.375 C 390.065 360.151,390.400 359.543,390.400 359.007 C 390.400 358.476,390.850 357.556,391.400 356.962 C 391.950 356.369,392.400 355.631,392.400 355.322 C 392.400 355.014,393.147 353.645,394.060 352.281 C 395.285 350.450,395.771 349.276,395.914 347.800 C 396.021 346.700,396.347 345.660,396.639 345.489 C 397.250 345.130,397.995 342.716,397.998 341.084 C 397.999 340.470,398.405 339.420,398.900 338.750 L 399.800 337.533 399.800 200.466 C 399.800 58.595,399.823 60.800,398.351 60.800 C 398.158 60.800,397.999 60.215,397.998 59.500 C 397.995 57.708,397.277 55.286,396.639 54.911 C 396.347 54.740,396.023 53.700,395.917 52.600 C 395.738 50.717,394.583 48.401,393.010 46.766 C 392.674 46.418,392.400 45.752,392.400 45.287 C 392.400 44.822,391.950 43.956,391.400 43.362 C 390.850 42.769,390.400 41.870,390.400 41.364 C 390.400 40.859,390.077 40.210,389.683 39.923 C 389.288 39.635,388.741 38.635,388.467 37.700 C 388.175 36.704,387.726 36.000,387.384 36.000 C 387.063 36.000,386.800 35.826,386.800 35.614 C 386.800 35.401,386.255 34.636,385.589 33.914 C 383.443 31.587,383.314 31.420,382.642 30.100 C 382.277 29.385,381.798 28.800,381.577 28.800 C 381.356 28.800,381.063 28.485,380.926 28.100 C 380.683 27.416,379.020 25.563,375.800 22.389 C 374.920 21.522,373.834 20.449,373.386 20.006 C 372.938 19.563,372.360 19.200,372.100 19.200 C 371.840 19.200,371.442 18.852,371.214 18.427 C 370.987 18.002,370.396 17.532,369.900 17.383 C 369.405 17.234,368.640 16.773,368.200 16.359 C 364.633 12.999,362.893 11.606,362.258 11.603 C 361.850 11.601,360.981 11.150,360.327 10.600 C 359.673 10.050,358.709 9.600,358.183 9.600 C 357.645 9.600,357.046 9.259,356.809 8.817 C 356.575 8.379,355.772 7.918,354.984 7.771 C 354.211 7.626,353.397 7.168,353.175 6.753 C 352.953 6.339,352.516 6.000,352.204 6.000 C 351.891 6.000,350.972 5.550,350.162 5.000 C 349.278 4.400,348.123 4.000,347.276 4.000 C 346.499 4.000,345.554 3.721,345.177 3.379 C 344.800 3.038,343.301 2.561,341.846 2.320 C 340.391 2.079,339.200 1.746,339.200 1.580 C 339.200 0.192,340.108 0.201,202.000 0.160 C 127.970 0.138,66.221 0.228,64.780 0.360 M246.800 41.791 C 262.727 42.570,265.882 42.949,277.400 45.476 C 280.885 46.241,287.238 48.211,289.511 49.232 C 290.452 49.654,291.443 50.000,291.713 50.000 C 292.897 50.000,302.789 55.334,306.893 58.186 C 311.883 61.653,319.492 69.003,322.850 73.600 C 325.260 76.899,329.244 82.919,329.806 84.109 C 330.140 84.819,330.684 85.850,331.013 86.400 C 331.808 87.728,335.197 95.046,335.213 95.468 C 335.219 95.651,335.668 96.700,336.209 97.800 C 336.750 98.900,337.194 100.122,337.196 100.516 C 337.198 100.910,337.532 101.900,337.939 102.716 C 338.345 103.532,339.084 105.550,339.580 107.200 C 340.077 108.850,341.005 111.874,341.642 113.920 C 342.279 115.966,342.808 118.126,342.818 118.720 C 342.827 119.314,343.104 120.520,343.432 121.400 C 343.760 122.280,344.383 124.890,344.815 127.200 C 345.247 129.510,345.854 132.750,346.163 134.400 C 346.472 136.050,346.994 138.480,347.323 139.800 C 347.652 141.120,348.038 143.820,348.182 145.800 C 348.326 147.780,348.710 150.564,349.036 151.987 C 349.739 155.055,351.149 169.006,352.797 189.200 C 353.405 196.643,353.151 227.150,352.442 232.000 C 350.884 242.644,349.490 250.464,348.805 252.400 C 348.377 253.610,348.020 255.104,348.013 255.720 C 348.006 256.336,347.716 257.389,347.369 258.061 C 347.021 258.732,346.494 260.029,346.198 260.941 C 344.858 265.058,343.484 268.415,341.946 271.324 C 337.509 279.717,334.665 283.691,328.633 289.931 C 325.593 293.076,319.913 298.000,319.325 298.000 C 318.625 298.000,315.665 301.458,312.990 305.400 C 305.518 316.413,295.934 324.732,283.800 330.738 C 279.012 333.108,274.237 335.200,273.617 335.200 C 273.370 335.200,272.500 335.539,271.684 335.954 C 270.868 336.368,269.120 336.928,267.800 337.198 C 266.480 337.469,265.089 337.853,264.710 338.054 C 263.817 338.524,257.130 340.239,254.800 340.595 C 253.810 340.746,251.633 341.211,249.961 341.628 C 248.290 342.045,244.960 342.558,242.561 342.769 C 240.163 342.979,237.390 343.332,236.400 343.553 C 234.109 344.065,226.360 344.693,218.400 345.012 C 209.585 345.366,210.396 344.935,205.602 351.800 C 202.317 356.504,201.836 357.184,200.800 358.595 C 198.511 361.711,197.345 363.354,196.400 364.796 C 189.800 374.865,187.587 376.633,183.850 374.824 C 182.093 373.974,181.608 373.350,176.987 366.000 C 176.503 365.230,175.318 363.356,174.353 361.835 C 173.389 360.315,171.880 357.843,171.000 356.341 C 166.916 349.374,164.307 345.190,163.885 344.929 C 163.243 344.532,154.679 343.266,149.468 342.797 C 147.086 342.582,143.666 342.059,141.868 341.633 C 140.071 341.208,137.340 340.665,135.800 340.426 C 134.260 340.188,131.470 339.528,129.600 338.961 C 127.730 338.394,125.164 337.692,123.897 337.402 C 121.581 336.871,121.052 336.685,113.000 333.580 C 93.609 326.100,78.903 313.702,69.135 296.600 C 67.145 293.116,63.200 285.003,63.200 284.396 C 63.200 284.188,62.774 283.069,62.253 281.909 C 60.922 278.944,60.148 276.567,58.574 270.608 C 57.820 267.752,56.938 264.602,56.615 263.608 C 56.292 262.613,55.846 260.315,55.625 258.500 C 55.404 256.685,54.956 254.255,54.629 253.100 C 54.303 251.945,53.841 249.110,53.603 246.800 C 53.365 244.490,52.907 240.440,52.586 237.800 C 50.867 223.656,50.005 199.414,50.750 186.200 C 51.367 175.267,52.352 161.590,52.578 160.827 C 52.680 160.482,53.048 157.428,53.395 154.039 C 53.742 150.651,54.369 146.511,54.787 144.839 C 55.206 143.168,55.672 140.630,55.824 139.200 C 55.975 137.770,56.275 136.150,56.489 135.600 C 56.704 135.050,57.566 132.170,58.404 129.200 C 63.691 110.468,70.721 98.607,84.129 85.800 C 101.015 69.671,108.080 65.058,127.200 57.680 C 129.510 56.788,132.480 55.761,133.800 55.396 C 148.715 51.277,150.906 50.719,154.200 50.198 C 155.960 49.920,158.332 49.415,159.472 49.076 C 160.611 48.737,163.041 48.341,164.872 48.195 C 166.702 48.050,169.190 47.674,170.400 47.360 C 173.380 46.587,179.485 45.730,188.600 44.805 C 192.780 44.381,198.000 43.762,200.200 43.430 C 202.400 43.097,208.790 42.617,214.400 42.362 C 220.010 42.108,227.210 41.778,230.400 41.631 C 236.126 41.365,238.565 41.389,246.800 41.791 M229.700 106.412 C 229.140 106.638,228.797 107.119,228.792 107.687 C 228.787 108.189,228.789 125.070,228.796 145.200 C 228.809 181.267,228.717 184.098,227.507 184.866 C 227.228 185.043,223.637 185.191,219.526 185.194 C 215.415 185.197,211.590 185.376,211.026 185.590 L 210.000 185.980 210.000 234.181 L 210.000 282.382 210.960 283.011 C 212.692 284.145,267.531 283.709,270.058 282.541 C 271.080 282.068,272.520 281.550,273.258 281.388 C 278.955 280.139,286.794 271.725,289.713 263.726 L 291.000 260.200 291.114 223.258 C 291.199 195.727,291.110 186.173,290.765 185.758 C 290.380 185.294,286.726 185.200,268.980 185.200 C 250.076 185.200,247.585 185.128,247.025 184.568 C 246.463 184.005,246.404 181.718,246.496 163.879 L 246.600 143.823 247.600 143.318 C 248.368 142.929,253.439 142.810,269.420 142.806 C 285.073 142.801,290.359 142.681,290.720 142.320 C 291.397 141.643,291.397 126.757,290.720 126.080 C 290.359 125.719,285.033 125.600,269.209 125.600 C 251.114 125.600,248.058 125.516,247.317 124.997 C 246.487 124.416,246.451 124.076,246.328 115.582 C 246.222 108.281,246.097 106.705,245.600 106.391 C 244.838 105.910,230.904 105.929,229.700 106.412 M140.119 107.604 C 128.731 109.268,118.968 118.872,116.537 130.800 L 115.600 135.400 115.600 185.271 C 115.600 230.076,115.664 235.207,116.229 235.771 C 117.174 236.717,132.594 236.713,132.957 235.767 C 133.091 235.419,133.206 212.424,133.213 184.667 L 133.225 134.200 134.713 131.410 C 136.407 128.232,138.377 126.515,141.802 125.234 C 144.027 124.401,175.791 123.885,177.782 124.648 C 179.658 125.368,179.609 123.614,179.331 180.272 C 179.126 222.038,179.176 233.721,179.566 234.900 L 180.062 236.400 188.041 236.400 L 196.020 236.400 196.410 235.374 C 197.154 233.416,196.921 108.578,196.171 107.829 C 195.486 107.144,144.663 106.940,140.119 107.604 M148.700 139.265 L 147.600 139.667 147.601 186.533 C 147.602 244.630,147.713 243.399,141.683 252.232 C 138.859 256.368,131.721 262.375,128.800 263.074 C 128.250 263.206,127.147 263.640,126.349 264.040 C 125.550 264.440,123.210 265.066,121.149 265.432 C 115.221 266.483,115.600 265.830,115.600 274.986 C 115.600 280.761,115.728 282.836,116.100 283.075 C 116.896 283.589,123.209 283.261,125.609 282.582 C 126.814 282.240,128.790 281.725,130.000 281.437 C 136.918 279.787,146.434 273.581,152.596 266.700 C 156.183 262.695,156.493 262.598,158.400 264.894 C 161.813 269.002,168.748 275.149,170.656 275.754 C 171.117 275.901,171.816 276.376,172.209 276.810 C 172.602 277.245,173.061 277.600,173.230 277.600 C 173.398 277.600,175.215 278.394,177.268 279.365 C 179.320 280.336,181.720 281.257,182.600 281.412 C 183.480 281.567,185.190 282.011,186.400 282.398 C 187.610 282.786,190.109 283.221,191.953 283.365 C 196.934 283.755,196.800 283.987,196.800 274.982 C 196.800 266.051,196.967 266.362,191.691 265.434 C 185.092 264.273,180.153 261.705,175.424 256.977 C 169.871 251.426,167.925 248.181,166.105 241.439 L 165.014 237.400 164.902 188.600 C 164.798 143.458,164.740 139.763,164.119 139.300 C 163.290 138.683,150.374 138.654,148.700 139.265 M273.098 203.692 L 274.032 204.570 273.916 230.585 L 273.800 256.600 272.724 258.800 C 271.494 261.313,270.819 262.135,268.658 263.751 C 265.755 265.923,264.989 266.000,246.365 266.000 L 229.258 266.000 228.429 264.946 C 227.508 263.775,227.089 206.596,227.984 204.242 C 228.588 202.652,229.493 202.593,251.482 202.707 C 272.153 202.814,272.164 202.815,273.098 203.692 " stroke="none" fill="#fbfbfb" fill-rule="evenodd"></path></g></svg>