<?xml version="1.0" standalone="no"?><!DOCTYPE svg PUBLIC "-//W3C//DTD SVG 1.1//EN" "http://www.w3.org/Graphics/SVG/1.1/DTD/svg11.dtd"><svg t="1707706290351" class="icon" viewBox="0 0 1024 1024" version="1.1" xmlns="http://www.w3.org/2000/svg" p-id="6466" xmlns:xlink="http://www.w3.org/1999/xlink" width="48" height="48"><path d="M351.54 481.7c65.68-74.46 130.98-149.26 197.08-223.32 8.48 53.38 18.6 106.5 27.88 159.76-47.62 55.8-95.94 111-143.8 166.6-29.12 33.48-58.02 67.14-87.48 100.32-2.72 3.78-7.96 5.76-12.34 3.8-36.4-12.58-72.76-25.28-108.98-38.36-5.48-1.2-8.78-6.74-7.82-12.16 1.38-2.64 3-5.12 4.94-7.34 43.26-49.98 86.88-99.66 130.52-149.3z" fill="#FF3E00" p-id="6467"></path><path d="M548.62 258.38c41.74 3.74 83.6 6.14 125.36 9.6 7.44 0.68 12.46 7.44 14.3 14.18 45.72 142.64 91.5 285.28 137.06 427.98 4.72 13.58-5.98 28.42-19.54 30.84-47.88 10-95.84 19.52-143.76 29.2-6.42 1.52-14.16 1.88-19.22-3.1-6.18-5.96-6.64-15.04-8.32-22.96-19.58-108.62-38.9-217.28-58-325.98-9.28-53.26-19.4-106.38-27.88-159.76z" fill="#FFB700" p-id="6468"></path><path d="M268.6 361.04c28.52-4.8 57.14-9.08 85.68-13.86 2.9-1.04 7.06 1.64 6.54 4.86-2.9 43.22-6.54 86.42-9.28 129.66-43.64 49.64-87.26 99.32-130.52 149.3-1.94 2.22-3.56 4.7-4.94 7.34 0.04-6.7 1.44-13.26 2.5-19.84 13.7-82.96 27.88-165.84 42.02-248.72 0.18-4.38 3.76-8 8-8.74z" fill="#00A4F5" p-id="6469"></path></svg>