<svg xmlns="http://www.w3.org/2000/svg" version="1.1" viewBox="0.00 0.00 48.00 48.00" width="48.00" height="48.00">
<g stroke-width="2.00" fill="none" stroke-linecap="butt">
<path stroke="#fee68e" d="&#10;  M 48.00 18.87&#10;  Q 47.58 18.02 44.68 18.38"/>
<path stroke="#fec968" d="&#10;  M 44.68 18.38&#10;  C 45.78 10.80 40.02 4.94 32.38 5.38&#10;  A 1.36 1.35 -77.2 0 0 31.29 6.07&#10;  Q 30.58 7.33 31.73 8.13&#10;  A 1.33 1.31 -28.8 0 0 32.58 8.37&#10;  Q 39.23 7.98 41.41 14.06"/>
<path stroke="#fee68e" d="&#10;  M 41.41 14.06&#10;  Q 40.64 15.21 39.29 14.80"/>
<path stroke="#fec968" d="&#10;  M 39.29 14.80&#10;  Q 37.67 10.52 33.18 10.72&#10;  Q 32.60 10.75 32.21 11.17&#10;  Q 32.02 11.37 31.92 11.66&#10;  A 1.17 1.17 0.0 0 0 32.96 13.23&#10;  Q 37.60 13.45 36.57 18.17"/>
<path stroke="#fee68e" d="&#10;  M 36.57 18.17&#10;  L 35.52 18.89&#10;  Q 35.11 19.17 34.69 18.90&#10;  L 34.37 18.71"/>
<path stroke="#f78164" d="&#10;  M 34.37 18.71&#10;  C 34.15 13.05 27.33 15.64 24.71 17.23&#10;  A 0.45 0.44 78.8 0 1 24.04 16.78&#10;  C 24.23 15.59 25.05 14.35 24.46 13.19&#10;  Q 22.93 10.17 19.81 11.03&#10;  Q 14.14 12.58 9.67 18.65"/>
<path stroke="#fee68e" d="&#10;  M 9.67 18.65&#10;  L 0.00 17.85"/>
<path stroke="#ffc24b" d="&#10;  M 44.68 18.38&#10;  Q 44.17 21.57 41.92 20.26&#10;  A 1.15 1.14 23.7 0 1 41.40 18.93&#10;  Q 42.17 16.51 41.41 14.06"/>
<path stroke="#ffc24b" d="&#10;  M 39.29 14.80&#10;  Q 39.79 16.55 39.45 17.48&#10;  Q 38.44 20.27 36.57 18.17"/>
<path stroke="#f87a47" d="&#10;  M 34.37 18.71&#10;  L 33.88 21.49&#10;  Q 33.76 22.14 34.38 22.38&#10;  Q 38.73 24.04 39.02 26.99"/>
<path stroke="#e30d12" d="&#10;  M 39.02 26.99&#10;  Q 34.43 26.15 32.78 28.18"/>
<path stroke="#f88a8e" d="&#10;  M 32.78 28.18&#10;  Q 31.15 23.26 25.48 21.97&#10;  C 19.18 20.53 9.54 22.28 8.37 30.00"/>
<path stroke="#e30d12" d="&#10;  M 8.37 30.00&#10;  Q 6.69 29.24 5.31 30.64"/>
<path stroke="#f87a47" d="&#10;  M 5.31 30.64&#10;  Q 4.97 24.36 9.67 18.65"/>
<path stroke="#ffda5a" d="&#10;  M 48.00 27.80&#10;  L 39.10 28.30"/>
<path stroke="#e9723c" d="&#10;  M 39.10 28.30&#10;  Q 38.95 27.64 39.02 26.99"/>
<path stroke="#e9723c" d="&#10;  M 5.31 30.64&#10;  L 6.27 33.49"/>
<path stroke="#ffda5a" d="&#10;  M 6.27 33.49&#10;  Q 5.85 33.04 5.59 33.34&#10;  Q 5.46 33.49 5.41 33.64&#10;  Q 5.32 33.89 5.06 33.88&#10;  L 0.00 33.60"/>
<path stroke="#ea8283" d="&#10;  M 32.78 28.18&#10;  C 32.58 39.41 10.40 41.12 8.37 30.00"/>
<path stroke="#808080" d="&#10;  M 26.0905 28.7257&#10;  A 6.47 5.59 -13.9 0 0 18.4671 24.8537&#10;  A 6.47 5.59 -13.9 0 0 13.5295 31.8343&#10;  A 6.47 5.59 -13.9 0 0 21.1529 35.7063&#10;  A 6.47 5.59 -13.9 0 0 26.0905 28.7257"/>
<path stroke="#808080" d="&#10;  M 21.02 28.76&#10;  A 0.56 0.56 0.0 0 0 20.56 29.56&#10;  Q 20.76 29.98 21.19 30.15&#10;  Q 21.84 30.41 22.16 29.80&#10;  Q 22.30 29.52 22.22 29.21&#10;  A 0.69 0.69 0.0 0 0 21.51 28.72&#10;  L 21.02 28.76"/>
<path stroke="#808080" d="&#10;  M 19.75 31.45&#10;  A 1.96 1.96 0.0 0 0 17.79 29.49&#10;  A 1.96 1.96 0.0 0 0 15.83 31.45&#10;  A 1.96 1.96 0.0 0 0 17.79 33.41&#10;  A 1.96 1.96 0.0 0 0 19.75 31.45"/>
<path stroke="#ea6d25" d="&#10;  M 39.10 28.30&#10;  Q 38.01 32.86 34.24 35.46&#10;  C 26.57 40.75 12.28 42.87 6.27 33.49"/>
</g>
<path fill="#fdedab" d="&#10;  M 9.13 0.00&#10;  L 38.75 0.00&#10;  Q 46.44 1.41 48.00 9.15&#10;  L 48.00 18.87&#10;  Q 47.58 18.02 44.68 18.38&#10;  C 45.78 10.80 40.02 4.94 32.38 5.38&#10;  A 1.36 1.35 -77.2 0 0 31.29 6.07&#10;  Q 30.58 7.33 31.73 8.13&#10;  A 1.33 1.31 -28.8 0 0 32.58 8.37&#10;  Q 39.23 7.98 41.41 14.06&#10;  Q 40.64 15.21 39.29 14.80&#10;  Q 37.67 10.52 33.18 10.72&#10;  Q 32.60 10.75 32.21 11.17&#10;  Q 32.02 11.37 31.92 11.66&#10;  A 1.17 1.17 0.0 0 0 32.96 13.23&#10;  Q 37.60 13.45 36.57 18.17&#10;  L 35.52 18.89&#10;  Q 35.11 19.17 34.69 18.90&#10;  L 34.37 18.71&#10;  C 34.15 13.05 27.33 15.64 24.71 17.23&#10;  A 0.45 0.44 78.8 0 1 24.04 16.78&#10;  C 24.23 15.59 25.05 14.35 24.46 13.19&#10;  Q 22.93 10.17 19.81 11.03&#10;  Q 14.14 12.58 9.67 18.65&#10;  L 0.00 17.85&#10;  L 0.00 8.78&#10;  Q 1.73 1.44 9.13 0.00&#10;  Z"/>
<path fill="#ffa524" d="&#10;  M 44.68 18.38&#10;  Q 44.17 21.57 41.92 20.26&#10;  A 1.15 1.14 23.7 0 1 41.40 18.93&#10;  Q 42.17 16.51 41.41 14.06&#10;  Q 39.23 7.98 32.58 8.37&#10;  A 1.33 1.31 -28.8 0 1 31.73 8.13&#10;  Q 30.58 7.33 31.29 6.07&#10;  A 1.36 1.35 -77.2 0 1 32.38 5.38&#10;  C 40.02 4.94 45.78 10.80 44.68 18.38&#10;  Z"/>
<path fill="#ffa524" d="&#10;  M 39.29 14.80&#10;  Q 39.79 16.55 39.45 17.48&#10;  Q 38.44 20.27 36.57 18.17&#10;  Q 37.60 13.45 32.96 13.23&#10;  A 1.17 1.17 0.0 0 1 31.92 11.66&#10;  Q 32.02 11.37 32.21 11.17&#10;  Q 32.60 10.75 33.18 10.72&#10;  Q 37.67 10.52 39.29 14.80&#10;  Z"/>
<path fill="#f1141c" d="&#10;  M 34.37 18.71&#10;  L 33.88 21.49&#10;  Q 33.76 22.14 34.38 22.38&#10;  Q 38.73 24.04 39.02 26.99&#10;  Q 34.43 26.15 32.78 28.18&#10;  Q 31.15 23.26 25.48 21.97&#10;  C 19.18 20.53 9.54 22.28 8.37 30.00&#10;  Q 6.69 29.24 5.31 30.64&#10;  Q 4.97 24.36 9.67 18.65&#10;  Q 14.14 12.58 19.81 11.03&#10;  Q 22.93 10.17 24.46 13.19&#10;  C 25.05 14.35 24.23 15.59 24.04 16.78&#10;  A 0.45 0.44 78.8 0 0 24.71 17.23&#10;  C 27.33 15.64 34.15 13.05 34.37 18.71&#10;  Z"/>
<path fill="#fedf71" d="&#10;  M 41.41 14.06&#10;  Q 42.17 16.51 41.40 18.93&#10;  A 1.15 1.14 23.7 0 0 41.92 20.26&#10;  Q 44.17 21.57 44.68 18.38&#10;  Q 47.58 18.02 48.00 18.87&#10;  L 48.00 27.80&#10;  L 39.10 28.30&#10;  Q 38.95 27.64 39.02 26.99&#10;  Q 38.73 24.04 34.38 22.38&#10;  Q 33.76 22.14 33.88 21.49&#10;  L 34.37 18.71&#10;  L 34.69 18.90&#10;  Q 35.11 19.17 35.52 18.89&#10;  L 36.57 18.17&#10;  Q 38.44 20.27 39.45 17.48&#10;  Q 39.79 16.55 39.29 14.80&#10;  Q 40.64 15.21 41.41 14.06&#10;  Z"/>
<path fill="#fedf71" d="&#10;  M 0.00 17.85&#10;  L 9.67 18.65&#10;  Q 4.97 24.36 5.31 30.64&#10;  L 6.27 33.49&#10;  Q 5.85 33.04 5.59 33.34&#10;  Q 5.46 33.49 5.41 33.64&#10;  Q 5.32 33.89 5.06 33.88&#10;  L 0.00 33.60&#10;  L 0.00 17.85&#10;  Z"/>
<path fill="#ffffff" d="&#10;  M 32.78 28.18&#10;  C 32.58 39.41 10.40 41.12 8.37 30.00&#10;  C 9.54 22.28 19.18 20.53 25.48 21.97&#10;  Q 31.15 23.26 32.78 28.18&#10;  Z&#10;  M 26.0905 28.7257&#10;  A 6.47 5.59 -13.9 0 0 18.4671 24.8537&#10;  A 6.47 5.59 -13.9 0 0 13.5295 31.8343&#10;  A 6.47 5.59 -13.9 0 0 21.1529 35.7063&#10;  A 6.47 5.59 -13.9 0 0 26.0905 28.7257&#10;  Z"/>
<path fill="#000000" d="&#10;  M 26.0905 28.7257&#10;  A 6.47 5.59 -13.9 0 1 21.1529 35.7063&#10;  A 6.47 5.59 -13.9 0 1 13.5295 31.8343&#10;  A 6.47 5.59 -13.9 0 1 18.4671 24.8537&#10;  A 6.47 5.59 -13.9 0 1 26.0905 28.7257&#10;  Z&#10;  M 21.02 28.76&#10;  A 0.56 0.56 0.0 0 0 20.56 29.56&#10;  Q 20.76 29.98 21.19 30.15&#10;  Q 21.84 30.41 22.16 29.80&#10;  Q 22.30 29.52 22.22 29.21&#10;  A 0.69 0.69 0.0 0 0 21.51 28.72&#10;  L 21.02 28.76&#10;  Z&#10;  M 19.75 31.45&#10;  A 1.96 1.96 0.0 0 0 17.79 29.49&#10;  A 1.96 1.96 0.0 0 0 15.83 31.45&#10;  A 1.96 1.96 0.0 0 0 17.79 33.41&#10;  A 1.96 1.96 0.0 0 0 19.75 31.45&#10;  Z"/>
<path fill="#d40507" d="&#10;  M 39.02 26.99&#10;  Q 38.95 27.64 39.10 28.30&#10;  Q 38.01 32.86 34.24 35.46&#10;  C 26.57 40.75 12.28 42.87 6.27 33.49&#10;  L 5.31 30.64&#10;  Q 6.69 29.24 8.37 30.00&#10;  C 10.40 41.12 32.58 39.41 32.78 28.18&#10;  Q 34.43 26.15 39.02 26.99&#10;  Z"/>
<path fill="#ffd543" d="&#10;  M 48.00 27.80&#10;  L 48.00 38.97&#10;  Q 46.44 46.35 39.11 48.00&#10;  L 8.78 48.00&#10;  Q 1.53 46.28 0.00 39.12&#10;  L 0.00 33.60&#10;  L 5.06 33.88&#10;  Q 5.32 33.89 5.41 33.64&#10;  Q 5.46 33.49 5.59 33.34&#10;  Q 5.85 33.04 6.27 33.49&#10;  C 12.28 42.87 26.57 40.75 34.24 35.46&#10;  Q 38.01 32.86 39.10 28.30&#10;  L 48.00 27.80&#10;  Z"/>
<path fill="#ffffff" d="&#10;  M 21.02 28.76&#10;  L 21.51 28.72&#10;  A 0.69 0.69 0.0 0 1 22.22 29.21&#10;  Q 22.30 29.52 22.16 29.80&#10;  Q 21.84 30.41 21.19 30.15&#10;  Q 20.76 29.98 20.56 29.56&#10;  A 0.56 0.56 0.0 0 1 21.02 28.76&#10;  Z"/>
<circle fill="#ffffff" cx="17.79" cy="31.45" r="1.96"/>
</svg>