<svg id="svg" version="1.1" xmlns="http://www.w3.org/2000/svg" xmlns:xlink="http://www.w3.org/1999/xlink" width="48" height="47" viewBox="0 0 400 400"><g id="svgg"><path id="path0" d="M316.800 229.986 C 297.409 232.437,279.845 245.360,276.011 260.000 C 275.751 260.990,275.252 262.610,274.902 263.600 C 273.888 266.465,274.036 275.820,275.148 279.152 C 275.617 280.556,276.000 281.876,276.000 282.085 C 276.000 285.651,283.268 295.789,289.440 300.832 C 292.791 303.571,292.876 303.840,291.642 307.800 C 289.114 315.912,290.160 317.276,296.400 314.006 C 298.490 312.912,300.958 311.647,301.883 311.197 C 302.809 310.746,303.675 310.202,303.807 309.989 C 304.168 309.405,307.714 309.521,309.262 310.168 C 313.919 312.114,329.413 312.009,337.000 309.979 C 353.038 305.690,363.259 297.178,369.385 283.011 C 376.070 267.552,366.604 245.032,350.000 236.896 C 349.450 236.626,348.730 236.231,348.400 236.017 C 341.900 231.807,326.161 228.803,316.800 229.986 M309.866 253.023 C 313.800 256.024,313.456 261.167,309.167 263.461 C 302.167 267.206,296.498 257.464,302.992 252.850 C 304.776 251.583,308.087 251.666,309.866 253.023 M342.967 253.002 C 348.967 257.578,343.144 267.187,336.612 263.487 C 332.453 261.132,331.974 256.112,335.616 253.048 C 337.383 251.561,341.048 251.538,342.967 253.002 M149.600 341.492 C 48.648 342.079,4.799 342.440,3.800 342.695 C 2.431 343.043,2.057 344.114,2.980 345.038 C 3.321 345.378,3.625 345.509,3.655 345.329 C 3.685 345.148,3.838 346.130,3.995 347.510 C 4.192 349.245,4.546 350.304,5.140 350.936 C 5.613 351.440,6.000 352.121,6.000 352.449 C 6.000 352.778,6.270 353.396,6.600 353.824 C 6.930 354.251,7.556 355.320,7.990 356.200 C 8.425 357.080,9.004 358.160,9.278 358.600 C 11.146 361.600,11.600 362.445,11.600 362.919 C 11.600 363.214,12.050 363.847,12.600 364.325 C 13.150 364.803,13.600 365.376,13.600 365.597 C 13.600 365.819,13.960 366.000,14.400 366.000 C 14.840 366.000,15.161 366.135,15.113 366.300 C 14.907 367.011,16.027 369.119,17.389 370.584 C 18.199 371.455,19.034 372.490,19.245 372.884 C 19.456 373.278,19.892 373.600,20.214 373.600 C 20.536 373.600,20.800 373.813,20.800 374.073 C 20.800 374.654,25.391 379.200,25.978 379.200 C 26.210 379.200,26.400 379.479,26.400 379.819 C 26.400 380.160,26.985 380.693,27.700 381.004 C 28.415 381.314,28.843 381.576,28.651 381.584 C 28.459 381.593,28.524 381.868,28.796 382.196 C 29.068 382.523,29.441 382.698,29.625 382.584 C 29.809 382.471,30.154 382.741,30.392 383.185 C 30.629 383.629,31.403 384.287,32.112 384.648 C 33.420 385.314,33.588 385.444,35.914 387.589 C 36.636 388.255,37.446 388.804,37.714 388.809 C 37.981 388.814,38.650 389.170,39.200 389.600 C 39.750 390.030,40.442 390.386,40.737 390.391 C 41.032 390.396,41.728 390.758,42.284 391.195 C 42.839 391.632,43.453 391.891,43.647 391.771 C 43.841 391.651,44.000 391.743,44.000 391.976 C 44.000 392.209,44.242 392.400,44.538 392.400 C 44.834 392.400,45.402 392.760,45.800 393.200 C 46.198 393.640,46.821 394.000,47.184 394.000 C 47.547 394.000,48.455 394.450,49.200 395.000 C 50.197 395.735,51.057 396.000,52.451 396.000 C 53.955 396.000,54.395 396.155,54.585 396.752 C 54.830 397.526,56.321 398.000,58.506 398.000 C 59.169 398.000,59.927 398.294,60.190 398.653 C 61.109 399.910,65.559 399.952,199.600 399.973 C 331.023 399.993,339.058 399.941,338.528 399.084 C 338.374 398.834,338.478 398.801,338.799 398.999 C 339.124 399.200,339.510 399.065,339.819 398.641 C 340.150 398.189,341.030 397.912,342.446 397.816 C 344.006 397.710,344.756 397.448,345.252 396.835 C 345.755 396.214,346.386 396.000,347.710 396.000 C 348.852 396.000,349.837 395.728,350.453 395.244 C 350.981 394.829,352.098 394.203,352.936 393.853 C 353.773 393.503,354.344 393.033,354.205 392.808 C 354.061 392.575,354.357 392.400,354.899 392.400 C 355.419 392.400,356.455 391.950,357.200 391.400 C 357.945 390.850,358.853 390.400,359.216 390.400 C 359.579 390.400,360.193 390.050,360.579 389.623 C 360.966 389.195,361.780 388.736,362.386 388.603 C 362.993 388.470,363.874 387.919,364.342 387.380 C 364.811 386.841,365.364 386.400,365.570 386.400 C 365.777 386.400,366.060 386.040,366.200 385.600 C 366.340 385.160,366.770 384.800,367.157 384.800 C 367.544 384.800,368.283 384.350,368.800 383.800 C 369.317 383.250,369.968 382.800,370.247 382.800 C 370.526 382.800,370.990 382.469,371.277 382.063 C 371.565 381.658,372.205 381.112,372.700 380.849 C 373.195 380.587,373.600 380.108,373.600 379.786 C 373.600 379.464,373.838 379.200,374.128 379.200 C 374.418 379.200,375.047 378.750,375.525 378.200 C 376.003 377.650,376.554 377.200,376.749 377.200 C 376.944 377.200,377.326 376.662,377.598 376.005 C 377.870 375.348,378.264 374.916,378.473 375.045 C 378.683 375.175,378.953 374.902,379.074 374.440 C 379.194 373.978,379.536 373.600,379.833 373.600 C 380.129 373.600,380.587 373.195,380.849 372.700 C 381.112 372.205,381.658 371.565,382.063 371.277 C 382.469 370.990,382.800 370.573,382.800 370.351 C 382.800 370.128,383.250 369.357,383.800 368.636 C 384.350 367.914,384.800 367.129,384.800 366.889 C 384.800 366.650,385.160 366.340,385.600 366.200 C 386.040 366.060,386.400 365.777,386.400 365.570 C 386.400 365.364,386.833 364.818,387.363 364.357 C 387.893 363.897,388.440 362.910,388.580 362.165 C 388.720 361.420,389.187 360.621,389.617 360.391 C 390.062 360.153,390.400 359.555,390.400 359.007 C 390.400 358.476,390.850 357.556,391.400 356.962 C 391.950 356.369,392.400 355.631,392.400 355.322 C 392.400 355.014,393.147 353.645,394.060 352.281 C 395.264 350.482,395.774 349.262,395.916 347.844 C 396.035 346.659,396.416 345.584,396.881 345.119 C 399.713 342.287,402.894 342.409,313.000 341.923 L 231.400 341.483 227.273 342.336 C 215.443 344.780,204.386 354.577,201.628 365.059 C 200.876 367.915,199.178 367.704,198.365 364.653 C 196.629 358.133,189.289 349.397,182.600 345.890 C 174.684 341.738,171.864 341.362,149.600 341.492 " stroke="none" fill="#f5fbfc" fill-rule="evenodd"></path><path id="path1" d="M64.780 0.360 C 63.323 0.493,61.683 0.914,61.083 1.307 C 60.491 1.696,59.150 2.119,58.103 2.248 C 57.056 2.376,55.750 2.795,55.200 3.178 C 54.650 3.561,53.334 3.972,52.275 4.091 C 51.100 4.223,49.999 4.637,49.449 5.154 C 48.954 5.619,48.273 6.000,47.936 6.000 C 47.599 6.000,46.998 6.360,46.600 6.800 C 46.202 7.240,45.558 7.600,45.169 7.600 C 44.780 7.600,43.927 8.050,43.273 8.600 C 42.619 9.150,41.805 9.600,41.463 9.600 C 41.121 9.600,40.356 10.050,39.762 10.600 C 39.169 11.150,38.301 11.600,37.835 11.600 C 37.368 11.600,36.159 12.393,35.148 13.361 C 34.137 14.330,32.745 15.415,32.055 15.772 C 31.365 16.129,30.800 16.568,30.800 16.749 C 30.800 16.930,30.449 17.240,30.021 17.439 C 27.702 18.514,17.644 28.609,17.271 30.237 C 17.200 30.547,16.979 30.800,16.781 30.800 C 16.583 30.800,16.121 31.385,15.756 32.100 C 15.390 32.815,14.305 34.147,13.345 35.060 C 12.385 35.974,11.600 37.085,11.600 37.530 C 11.600 37.975,11.150 38.873,10.600 39.527 C 10.050 40.181,9.600 40.924,9.600 41.179 C 9.600 41.434,9.150 42.305,8.600 43.114 C 8.050 43.923,7.600 44.741,7.600 44.930 C 7.600 45.119,7.240 45.731,6.800 46.291 C 6.360 46.850,6.000 47.570,6.000 47.890 C 6.000 48.210,5.635 48.771,5.189 49.136 C 4.634 49.591,4.299 50.493,4.125 52.000 C 3.965 53.387,3.621 54.378,3.193 54.683 C 2.760 54.991,2.416 55.999,2.244 57.466 C 2.095 58.731,1.690 60.080,1.343 60.463 C 0.099 61.838,0.035 68.671,0.035 200.200 C 0.035 331.061,0.108 338.905,1.328 339.797 C 1.660 340.039,1.992 340.769,2.066 341.419 C 2.188 342.494,2.326 342.593,3.600 342.525 C 6.510 342.369,118.111 341.634,142.913 341.607 C 173.848 341.574,174.505 341.645,182.600 345.890 C 189.289 349.397,196.629 358.133,198.365 364.653 C 199.178 367.704,200.876 367.915,201.628 365.059 C 204.361 354.672,215.398 344.826,227.065 342.367 C 232.314 341.260,393.041 341.704,397.200 342.837 C 397.640 342.956,397.853 342.572,398.000 341.400 C 398.110 340.520,398.560 339.268,399.000 338.618 C 399.796 337.441,399.800 336.774,399.800 200.418 C 399.800 58.597,399.823 60.800,398.351 60.800 C 398.158 60.800,397.999 60.215,397.998 59.500 C 397.995 57.708,397.277 55.286,396.639 54.911 C 396.347 54.740,396.023 53.700,395.917 52.600 C 395.738 50.717,394.583 48.401,393.010 46.766 C 392.674 46.418,392.400 45.752,392.400 45.287 C 392.400 44.822,391.950 43.956,391.400 43.362 C 390.850 42.769,390.400 41.870,390.400 41.364 C 390.400 40.859,390.077 40.210,389.683 39.923 C 389.288 39.635,388.741 38.635,388.467 37.700 C 388.175 36.704,387.726 36.000,387.384 36.000 C 387.063 36.000,386.800 35.826,386.800 35.614 C 386.800 35.401,386.255 34.636,385.589 33.914 C 383.443 31.587,383.314 31.420,382.642 30.100 C 382.277 29.385,381.798 28.800,381.577 28.800 C 381.356 28.800,381.063 28.485,380.926 28.100 C 380.683 27.416,379.020 25.563,375.800 22.389 C 374.920 21.522,373.834 20.449,373.386 20.006 C 372.938 19.563,372.360 19.200,372.100 19.200 C 371.840 19.200,371.442 18.852,371.214 18.427 C 370.987 18.002,370.396 17.532,369.900 17.383 C 369.405 17.234,368.640 16.773,368.200 16.359 C 364.633 12.999,362.893 11.606,362.258 11.603 C 361.850 11.601,360.981 11.150,360.327 10.600 C 359.673 10.050,358.709 9.600,358.183 9.600 C 357.645 9.600,357.046 9.259,356.809 8.817 C 356.575 8.379,355.772 7.918,354.984 7.771 C 354.211 7.626,353.397 7.168,353.175 6.753 C 352.953 6.339,352.516 6.000,352.204 6.000 C 351.891 6.000,350.972 5.550,350.162 5.000 C 349.278 4.400,348.123 4.000,347.276 4.000 C 346.499 4.000,345.554 3.721,345.177 3.379 C 344.800 3.038,343.301 2.561,341.846 2.320 C 340.391 2.079,339.200 1.746,339.200 1.580 C 339.200 0.192,340.108 0.201,202.000 0.160 C 127.970 0.138,66.221 0.228,64.780 0.360 M334.074 230.962 C 339.884 232.275,345.900 234.398,348.400 236.017 C 348.730 236.231,349.450 236.626,350.000 236.896 C 366.604 245.032,376.070 267.552,369.385 283.011 C 363.259 297.178,353.038 305.690,337.000 309.979 C 329.413 312.009,313.919 312.114,309.262 310.168 C 307.714 309.521,304.168 309.405,303.807 309.989 C 303.675 310.202,302.809 310.746,301.883 311.197 C 300.958 311.647,298.490 312.912,296.400 314.006 C 290.160 317.276,289.114 315.912,291.642 307.800 C 292.876 303.840,292.791 303.571,289.440 300.832 C 283.268 295.789,276.000 285.651,276.000 282.085 C 276.000 281.876,275.617 280.556,275.148 279.152 C 274.036 275.820,273.888 266.465,274.902 263.600 C 275.252 262.610,275.751 260.990,276.011 260.000 C 281.306 239.783,309.876 225.495,334.074 230.962 M302.992 252.850 C 296.498 257.464,302.167 267.206,309.167 263.461 C 313.456 261.167,313.800 256.024,309.866 253.023 C 308.087 251.666,304.776 251.583,302.992 252.850 M335.616 253.048 C 331.974 256.112,332.453 261.132,336.612 263.487 C 343.144 267.187,348.967 257.578,342.967 253.002 C 341.048 251.538,337.383 251.561,335.616 253.048 " stroke="none" fill="#31aafc" fill-rule="evenodd"></path></g></svg>