<svg id="svg" version="1.1" xmlns="http://www.w3.org/2000/svg" xmlns:xlink="http://www.w3.org/1999/xlink" width="48" height="48" viewBox="0 0 400 400"><g id="svgg"><path id="path0" d="M166.394 143.272 C 165.755 143.971,165.115 145.096,164.973 145.772 C 164.830 146.447,164.394 147.540,164.002 148.200 C 163.611 148.860,163.156 149.850,162.990 150.400 C 162.825 150.950,161.892 153.110,160.917 155.200 C 158.986 159.341,157.889 161.730,156.785 164.200 C 156.392 165.080,155.496 167.060,154.795 168.600 C 154.094 170.140,153.072 172.390,152.525 173.600 C 151.978 174.810,151.348 176.141,151.126 176.558 C 149.748 179.137,148.209 184.785,148.533 186.074 C 149.512 189.976,153.237 192.000,159.441 192.000 C 164.691 192.000,166.225 193.388,164.187 196.297 C 163.850 196.778,163.334 197.853,163.040 198.686 C 162.746 199.519,161.876 201.550,161.106 203.200 C 153.261 220.010,152.760 223.444,157.678 226.700 L 159.340 227.800 172.570 227.910 C 179.846 227.971,185.988 227.881,186.219 227.710 C 186.676 227.371,188.007 224.665,190.009 220.000 C 190.717 218.350,191.441 216.818,191.618 216.595 C 192.306 215.730,193.604 211.677,193.381 211.094 C 193.035 210.194,191.925 210.012,186.762 210.005 C 179.523 209.997,179.469 209.694,184.697 198.400 C 185.257 197.190,186.121 195.300,186.617 194.200 C 187.113 193.100,188.167 190.798,188.959 189.085 C 189.752 187.371,190.400 185.891,190.400 185.794 C 190.400 185.698,191.275 183.770,192.344 181.510 C 193.414 179.249,194.428 176.950,194.598 176.400 C 194.769 175.850,195.154 175.045,195.454 174.611 C 197.225 172.052,195.808 171.600,186.003 171.600 L 178.058 171.600 177.247 170.569 C 176.341 169.417,176.575 168.464,179.059 163.200 C 179.630 161.990,180.459 160.190,180.901 159.200 C 181.344 158.210,182.043 156.680,182.454 155.800 C 182.866 154.920,183.202 154.057,183.201 153.882 C 183.200 153.707,184.088 151.727,185.173 149.482 C 188.969 141.627,189.370 142.000,177.128 142.000 L 167.555 142.000 166.394 143.272 M280.080 142.480 C 279.800 142.760,279.600 144.104,279.600 145.706 C 279.600 150.139,279.833 150.000,272.414 150.000 C 264.069 150.000,264.799 149.009,264.806 160.329 C 264.814 172.343,264.166 171.348,272.143 171.600 C 280.302 171.858,279.676 171.019,279.520 181.481 C 279.370 191.605,280.427 190.628,269.780 190.484 C 256.536 190.305,257.464 189.366,257.673 202.736 C 257.839 213.340,256.752 212.400,268.844 212.400 C 277.467 212.400,278.047 212.447,278.800 213.200 C 279.580 213.980,279.600 214.533,279.600 235.520 C 279.600 251.724,279.719 257.159,280.080 257.520 C 280.969 258.409,299.314 258.179,300.138 257.269 C 300.737 256.607,300.800 254.485,300.800 235.091 L 300.800 213.645 301.689 213.023 C 302.708 212.309,332.394 212.093,335.345 212.777 C 339.586 213.762,340.505 216.551,340.329 227.902 C 340.141 239.975,340.518 239.600,328.569 239.600 C 317.957 239.600,318.302 239.028,322.778 249.200 C 327.023 258.847,325.783 258.001,335.674 257.997 C 350.307 257.991,356.505 255.104,360.200 246.571 L 361.400 243.800 361.524 226.803 C 361.604 215.847,361.494 208.922,361.216 207.321 C 359.604 198.068,352.110 191.730,341.684 190.802 C 336.485 190.340,336.800 190.949,336.800 181.362 C 336.800 158.771,328.965 150.104,308.474 150.024 C 300.762 149.994,300.800 150.012,300.800 146.248 C 300.800 141.838,301.214 142.000,289.949 142.000 C 283.180 142.000,280.426 142.134,280.080 142.480 M82.281 143.123 C 79.443 143.304,79.600 140.496,79.600 191.193 C 79.600 216.461,79.489 237.424,79.353 237.778 C 78.875 239.025,77.400 239.378,71.800 239.589 L 66.200 239.800 66.243 241.268 C 66.266 242.075,66.851 243.909,67.543 245.343 C 68.234 246.777,68.800 248.150,68.800 248.396 C 68.800 248.641,69.153 249.507,69.585 250.321 C 70.017 251.134,70.914 253.011,71.580 254.491 C 73.068 257.799,72.771 257.710,81.661 257.516 C 93.206 257.264,98.376 253.562,100.453 244.058 C 101.463 239.436,101.631 145.142,100.632 143.776 C 100.075 143.016,89.716 142.647,82.281 143.123 M203.432 150.625 C 202.633 151.424,202.481 168.247,203.260 169.726 C 203.991 171.115,204.315 171.187,209.824 171.194 C 217.508 171.203,216.581 166.879,216.707 203.314 C 216.811 233.397,216.792 234.321,216.043 235.247 C 215.283 236.186,215.145 236.203,206.536 236.400 C 201.731 236.510,197.594 236.734,197.343 236.897 C 196.939 237.160,194.400 242.037,194.400 242.551 C 194.400 242.663,193.426 244.789,192.236 247.277 C 188.379 255.342,187.948 256.455,188.448 257.058 C 188.826 257.514,194.721 257.587,223.951 257.502 L 259.000 257.400 259.107 247.450 C 259.179 240.736,259.073 237.329,258.780 236.976 C 258.452 236.581,256.106 236.423,249.140 236.327 C 240.570 236.209,239.895 236.146,239.367 235.424 C 238.377 234.068,238.535 172.764,239.531 171.862 C 240.137 171.314,241.203 171.200,245.717 171.200 C 252.597 171.200,252.043 172.210,251.907 159.913 L 251.800 150.200 227.932 150.097 C 206.627 150.005,203.996 150.062,203.432 150.625 M347.200 150.272 C 345.451 150.990,343.150 153.008,341.953 154.873 L 340.600 156.981 340.460 163.450 C 340.278 171.828,340.109 171.600,346.516 171.600 C 359.261 171.600,365.633 163.202,359.634 154.312 C 357.304 150.860,350.866 148.768,347.200 150.272 M44.462 172.338 C 43.640 173.160,43.436 174.642,42.800 184.400 C 42.577 187.810,42.041 194.740,41.609 199.800 C 41.176 204.860,40.647 211.160,40.432 213.800 C 40.218 216.440,39.728 219.701,39.344 221.047 L 38.645 223.494 39.893 226.647 C 40.579 228.381,41.874 231.283,42.770 233.096 C 43.667 234.909,44.400 236.517,44.400 236.670 C 44.400 236.822,44.740 237.679,45.155 238.574 C 45.570 239.468,46.503 241.550,47.228 243.200 C 48.853 246.898,48.856 246.902,50.095 246.591 C 51.207 246.312,52.741 244.162,54.800 240.000 C 55.507 238.570,56.261 237.065,56.474 236.655 C 59.562 230.733,62.141 217.045,63.003 202.000 C 63.325 196.390,63.774 190.720,64.000 189.400 C 64.710 185.264,65.007 172.931,64.413 172.216 C 63.567 171.196,45.493 171.307,44.462 172.338 M115.960 172.352 L 115.032 173.103 115.731 178.252 C 116.115 181.083,116.601 186.820,116.812 191.000 C 117.022 195.180,117.377 199.680,117.601 201.000 C 117.825 202.320,118.195 206.730,118.423 210.800 C 118.688 215.518,119.108 219.215,119.583 221.000 C 119.993 222.540,120.446 224.520,120.590 225.400 C 121.476 230.822,126.492 242.471,129.460 245.998 L 130.505 247.241 131.420 246.381 C 131.924 245.908,132.558 244.954,132.830 244.260 C 133.102 243.567,134.196 241.169,135.262 238.932 C 136.328 236.694,137.200 234.646,137.200 234.379 C 137.200 234.113,137.543 233.333,137.963 232.647 C 138.382 231.961,139.488 229.609,140.419 227.419 L 142.113 223.439 141.435 221.619 C 140.751 219.782,139.496 208.405,139.007 199.600 C 138.866 197.070,138.488 192.480,138.167 189.400 C 137.846 186.320,137.476 181.460,137.345 178.600 C 136.995 170.990,137.945 171.600,126.435 171.600 C 117.689 171.600,116.811 171.663,115.960 172.352 M314.402 172.702 C 315.949 174.615,316.079 189.162,314.559 190.286 C 313.533 191.044,302.306 190.868,301.519 190.081 C 301.016 189.579,300.309 174.782,300.709 173.146 C 301.161 171.301,312.960 170.919,314.402 172.702 M151.463 236.398 C 150.909 237.057,150.342 238.002,150.203 238.498 C 150.065 238.994,149.531 240.300,149.017 241.400 C 148.502 242.500,147.629 244.390,147.075 245.600 C 146.522 246.810,145.314 249.419,144.392 251.398 C 141.364 257.893,141.440 257.923,161.286 257.968 L 175.571 258.000 176.586 256.507 C 177.144 255.686,177.600 254.845,177.600 254.639 C 177.600 254.432,178.122 253.169,178.759 251.832 C 181.568 245.937,183.111 242.529,183.390 241.600 C 183.556 241.050,184.049 240.010,184.485 239.289 C 185.967 236.842,185.772 236.801,172.651 236.790 C 162.557 236.781,160.546 236.675,157.600 236.000 C 153.088 234.966,152.644 234.995,151.463 236.398 " stroke="none" fill="#fcf6f7" fill-rule="evenodd"></path><path id="path1" d="M64.780 0.360 C 63.323 0.493,61.683 0.914,61.083 1.307 C 60.491 1.696,59.150 2.119,58.103 2.248 C 57.056 2.376,55.750 2.795,55.200 3.178 C 54.650 3.561,53.334 3.972,52.275 4.091 C 51.100 4.223,49.999 4.637,49.449 5.154 C 48.954 5.619,48.273 6.000,47.936 6.000 C 47.599 6.000,46.998 6.360,46.600 6.800 C 46.202 7.240,45.558 7.600,45.169 7.600 C 44.780 7.600,43.927 8.050,43.273 8.600 C 42.619 9.150,41.805 9.600,41.463 9.600 C 41.121 9.600,40.356 10.050,39.762 10.600 C 39.169 11.150,38.301 11.600,37.835 11.600 C 37.368 11.600,36.159 12.393,35.148 13.361 C 34.137 14.330,32.745 15.415,32.055 15.772 C 31.365 16.129,30.800 16.568,30.800 16.749 C 30.800 16.930,30.449 17.240,30.021 17.439 C 27.702 18.514,17.644 28.609,17.271 30.237 C 17.200 30.547,16.979 30.800,16.781 30.800 C 16.583 30.800,16.121 31.385,15.756 32.100 C 15.390 32.815,14.305 34.147,13.345 35.060 C 12.385 35.974,11.600 37.085,11.600 37.530 C 11.600 37.975,11.150 38.873,10.600 39.527 C 10.050 40.181,9.600 40.924,9.600 41.179 C 9.600 41.434,9.150 42.305,8.600 43.114 C 8.050 43.923,7.600 44.741,7.600 44.930 C 7.600 45.119,7.240 45.731,6.800 46.291 C 6.360 46.850,6.000 47.570,6.000 47.890 C 6.000 48.210,5.635 48.771,5.189 49.136 C 4.634 49.591,4.299 50.493,4.125 52.000 C 3.965 53.387,3.621 54.378,3.193 54.683 C 2.760 54.991,2.416 55.999,2.244 57.466 C 2.095 58.731,1.690 60.080,1.343 60.463 C 0.099 61.838,0.035 68.671,0.035 200.200 C 0.035 330.946,0.109 338.905,1.323 339.793 C 1.660 340.040,2.048 341.248,2.213 342.564 C 2.401 344.073,2.769 345.123,3.252 345.537 C 3.742 345.957,4.000 346.709,4.000 347.715 C 4.000 349.363,4.582 350.802,5.458 351.320 C 5.756 351.496,6.000 352.059,6.000 352.571 C 6.000 353.083,6.272 353.728,6.605 354.004 C 6.937 354.280,7.563 355.247,7.995 356.153 C 8.427 357.059,9.004 358.160,9.278 358.600 C 11.146 361.600,11.600 362.445,11.600 362.919 C 11.600 363.214,12.005 363.831,12.500 364.289 C 14.138 365.806,15.600 367.607,15.600 368.107 C 15.600 368.378,16.334 369.403,17.231 370.385 C 18.129 371.367,19.035 372.491,19.245 372.885 C 19.456 373.278,19.892 373.600,20.214 373.600 C 20.536 373.600,20.800 373.806,20.800 374.059 C 20.800 374.680,25.272 379.181,25.900 379.192 C 26.175 379.196,26.400 379.464,26.400 379.786 C 26.400 380.108,26.805 380.587,27.300 380.849 C 27.795 381.112,28.435 381.658,28.723 382.063 C 29.010 382.469,29.486 382.800,29.780 382.800 C 30.074 382.800,30.414 383.061,30.537 383.379 C 30.659 383.698,31.353 384.261,32.079 384.631 C 32.806 385.001,33.670 385.556,34.000 385.864 C 36.525 388.219,37.256 388.801,37.696 388.809 C 37.973 388.814,38.650 389.170,39.200 389.600 C 39.750 390.030,40.487 390.386,40.838 390.391 C 41.189 390.396,41.787 390.744,42.167 391.164 C 42.548 391.584,43.341 392.048,43.929 392.194 C 44.518 392.340,45.360 392.785,45.800 393.184 C 46.240 393.582,47.049 394.045,47.598 394.212 C 48.148 394.380,48.798 394.792,49.045 395.129 C 49.332 395.521,50.370 395.805,51.934 395.918 C 53.817 396.054,54.427 396.256,54.600 396.800 C 54.830 397.524,56.379 398.000,58.506 398.000 C 59.169 398.000,59.927 398.294,60.190 398.653 C 61.109 399.911,65.574 399.952,200.000 399.952 C 334.426 399.952,338.891 399.911,339.810 398.653 C 340.073 398.294,340.718 397.998,341.244 397.996 C 343.541 397.985,345.311 397.462,345.500 396.739 C 345.654 396.151,346.082 396.000,347.593 396.000 C 348.849 396.000,349.817 395.744,350.453 395.244 C 350.981 394.829,352.040 394.202,352.807 393.852 C 354.209 393.212,354.619 392.976,357.222 391.310 C 358.003 390.809,358.920 390.400,359.260 390.400 C 359.599 390.400,360.193 390.050,360.579 389.623 C 360.966 389.195,361.780 388.736,362.386 388.603 C 362.993 388.470,363.874 387.919,364.342 387.380 C 364.811 386.841,365.364 386.400,365.570 386.400 C 365.777 386.400,366.060 386.040,366.200 385.600 C 366.340 385.160,366.770 384.800,367.157 384.800 C 367.544 384.800,368.283 384.350,368.800 383.800 C 369.317 383.250,369.968 382.800,370.247 382.800 C 370.526 382.800,370.990 382.469,371.277 382.063 C 371.565 381.658,372.205 381.112,372.700 380.849 C 373.195 380.587,373.600 380.108,373.600 379.786 C 373.600 379.464,373.838 379.200,374.128 379.200 C 374.418 379.200,375.039 378.795,375.508 378.300 C 376.581 377.167,377.167 376.581,378.300 375.508 C 378.795 375.039,379.200 374.418,379.200 374.128 C 379.200 373.838,379.464 373.600,379.786 373.600 C 380.108 373.600,380.587 373.195,380.849 372.700 C 381.112 372.205,381.658 371.565,382.063 371.277 C 382.469 370.990,382.800 370.566,382.800 370.335 C 382.800 370.104,383.250 369.381,383.800 368.727 C 384.350 368.073,384.800 367.295,384.800 366.996 C 384.800 366.698,385.160 366.340,385.600 366.200 C 386.040 366.060,386.400 365.777,386.400 365.570 C 386.400 365.364,386.848 364.806,387.395 364.330 C 387.941 363.854,388.502 362.861,388.641 362.122 C 388.780 361.383,389.232 360.597,389.647 360.375 C 390.065 360.151,390.400 359.543,390.400 359.007 C 390.400 358.476,390.850 357.556,391.400 356.962 C 391.950 356.369,392.400 355.631,392.400 355.322 C 392.400 355.014,393.147 353.645,394.060 352.281 C 395.285 350.450,395.771 349.276,395.914 347.800 C 396.021 346.700,396.347 345.660,396.639 345.489 C 397.250 345.130,397.995 342.716,397.998 341.084 C 397.999 340.470,398.405 339.420,398.900 338.750 L 399.800 337.533 399.800 200.466 C 399.800 58.595,399.823 60.800,398.351 60.800 C 398.158 60.800,397.999 60.215,397.998 59.500 C 397.995 57.708,397.277 55.286,396.639 54.911 C 396.347 54.740,396.023 53.700,395.917 52.600 C 395.738 50.717,394.583 48.401,393.010 46.766 C 392.674 46.418,392.400 45.752,392.400 45.287 C 392.400 44.822,391.950 43.956,391.400 43.362 C 390.850 42.769,390.400 41.870,390.400 41.364 C 390.400 40.859,390.077 40.210,389.683 39.923 C 389.288 39.635,388.741 38.635,388.467 37.700 C 388.175 36.704,387.726 36.000,387.384 36.000 C 387.063 36.000,386.800 35.826,386.800 35.614 C 386.800 35.401,386.255 34.636,385.589 33.914 C 383.443 31.587,383.314 31.420,382.642 30.100 C 382.277 29.385,381.798 28.800,381.577 28.800 C 381.356 28.800,381.063 28.485,380.926 28.100 C 380.683 27.416,379.020 25.563,375.800 22.389 C 374.920 21.522,373.834 20.449,373.386 20.006 C 372.938 19.563,372.360 19.200,372.100 19.200 C 371.840 19.200,371.442 18.852,371.214 18.427 C 370.987 18.002,370.396 17.532,369.900 17.383 C 369.405 17.234,368.640 16.773,368.200 16.359 C 364.633 12.999,362.893 11.606,362.258 11.603 C 361.850 11.601,360.981 11.150,360.327 10.600 C 359.673 10.050,358.709 9.600,358.183 9.600 C 357.645 9.600,357.046 9.259,356.809 8.817 C 356.575 8.379,355.772 7.918,354.984 7.771 C 354.211 7.626,353.397 7.168,353.175 6.753 C 352.953 6.339,352.516 6.000,352.204 6.000 C 351.891 6.000,350.972 5.550,350.162 5.000 C 349.278 4.400,348.123 4.000,347.276 4.000 C 346.499 4.000,345.554 3.721,345.177 3.379 C 344.800 3.038,343.301 2.561,341.846 2.320 C 340.391 2.079,339.200 1.746,339.200 1.580 C 339.200 0.192,340.108 0.201,202.000 0.160 C 127.970 0.138,66.221 0.228,64.780 0.360 M187.196 142.595 C 187.871 143.409,187.506 144.654,185.173 149.482 C 184.088 151.727,183.200 153.707,183.201 153.882 C 183.202 154.057,182.866 154.920,182.454 155.800 C 182.043 156.680,181.344 158.210,180.901 159.200 C 180.459 160.190,179.630 161.990,179.059 163.200 C 176.575 168.464,176.341 169.417,177.247 170.569 L 178.058 171.600 186.003 171.600 C 195.808 171.600,197.225 172.052,195.454 174.611 C 195.154 175.045,194.769 175.850,194.598 176.400 C 194.428 176.950,193.414 179.249,192.344 181.510 C 191.275 183.770,190.400 185.698,190.400 185.794 C 190.400 185.891,189.752 187.371,188.959 189.085 C 188.167 190.798,187.113 193.100,186.617 194.200 C 186.121 195.300,185.257 197.190,184.697 198.400 C 179.469 209.694,179.523 209.997,186.762 210.005 C 191.925 210.012,193.035 210.194,193.381 211.094 C 193.604 211.677,192.306 215.730,191.618 216.595 C 191.441 216.818,190.717 218.350,190.009 220.000 C 188.007 224.665,186.676 227.371,186.219 227.710 C 185.988 227.881,179.846 227.971,172.570 227.910 L 159.340 227.800 157.678 226.700 C 152.760 223.444,153.261 220.010,161.106 203.200 C 161.876 201.550,162.746 199.519,163.040 198.686 C 163.334 197.853,163.850 196.778,164.187 196.297 C 166.225 193.388,164.691 192.000,159.441 192.000 C 153.237 192.000,149.512 189.976,148.533 186.074 C 148.209 184.785,149.748 179.137,151.126 176.558 C 151.348 176.141,151.978 174.810,152.525 173.600 C 153.072 172.390,154.094 170.140,154.795 168.600 C 155.496 167.060,156.392 165.080,156.785 164.200 C 157.889 161.730,158.986 159.341,160.917 155.200 C 161.892 153.110,162.825 150.950,162.990 150.400 C 163.156 149.850,163.611 148.860,164.002 148.200 C 164.394 147.540,164.830 146.447,164.973 145.772 C 165.115 145.096,165.755 143.971,166.394 143.272 L 167.555 142.000 177.128 142.000 C 185.113 142.000,186.784 142.099,187.196 142.595 M300.069 142.662 C 300.650 143.188,300.800 143.923,300.800 146.248 C 300.800 150.012,300.762 149.994,308.474 150.024 C 328.965 150.104,336.800 158.771,336.800 181.362 C 336.800 190.949,336.485 190.340,341.684 190.802 C 352.110 191.730,359.604 198.068,361.216 207.321 C 361.494 208.922,361.604 215.847,361.524 226.803 L 361.400 243.800 360.200 246.571 C 356.505 255.104,350.307 257.991,335.674 257.997 C 325.783 258.001,327.023 258.847,322.778 249.200 C 318.302 239.028,317.957 239.600,328.569 239.600 C 340.518 239.600,340.141 239.975,340.329 227.902 C 340.505 216.551,339.586 213.762,335.345 212.777 C 332.394 212.093,302.708 212.309,301.689 213.023 L 300.800 213.645 300.800 235.091 C 300.800 254.485,300.737 256.607,300.138 257.269 C 299.314 258.179,280.969 258.409,280.080 257.520 C 279.719 257.159,279.600 251.724,279.600 235.520 C 279.600 214.533,279.580 213.980,278.800 213.200 C 278.047 212.447,277.467 212.400,268.844 212.400 C 256.752 212.400,257.839 213.340,257.673 202.736 C 257.464 189.366,256.536 190.305,269.780 190.484 C 280.427 190.628,279.370 191.605,279.520 181.481 C 279.676 171.019,280.302 171.858,272.143 171.600 C 264.166 171.348,264.814 172.343,264.806 160.329 C 264.799 149.009,264.069 150.000,272.414 150.000 C 279.833 150.000,279.600 150.139,279.600 145.706 C 279.600 144.104,279.800 142.760,280.080 142.480 C 280.911 141.649,299.133 141.815,300.069 142.662 M100.632 143.776 C 101.631 145.142,101.463 239.436,100.453 244.058 C 98.376 253.562,93.206 257.264,81.661 257.516 C 72.771 257.710,73.068 257.799,71.580 254.491 C 70.914 253.011,70.017 251.134,69.585 250.321 C 69.153 249.507,68.800 248.641,68.800 248.396 C 68.800 248.150,68.234 246.777,67.543 245.343 C 66.851 243.909,66.266 242.075,66.243 241.268 L 66.200 239.800 71.800 239.589 C 77.400 239.378,78.875 239.025,79.353 237.778 C 79.489 237.424,79.600 216.461,79.600 191.193 C 79.600 140.496,79.443 143.304,82.281 143.123 C 89.716 142.647,100.075 143.016,100.632 143.776 M251.907 159.913 C 252.043 172.210,252.597 171.200,245.717 171.200 C 241.203 171.200,240.137 171.314,239.531 171.862 C 238.535 172.764,238.377 234.068,239.367 235.424 C 239.895 236.146,240.570 236.209,249.140 236.327 C 256.106 236.423,258.452 236.581,258.780 236.976 C 259.073 237.329,259.179 240.736,259.107 247.450 L 259.000 257.400 223.951 257.502 C 194.721 257.587,188.826 257.514,188.448 257.058 C 187.948 256.455,188.379 255.342,192.236 247.277 C 193.426 244.789,194.400 242.663,194.400 242.551 C 194.400 242.037,196.939 237.160,197.343 236.897 C 197.594 236.734,201.731 236.510,206.536 236.400 C 215.145 236.203,215.283 236.186,216.043 235.247 C 216.792 234.321,216.811 233.397,216.707 203.314 C 216.581 166.879,217.508 171.203,209.824 171.194 C 204.315 171.187,203.991 171.115,203.260 169.726 C 202.481 168.247,202.633 151.424,203.432 150.625 C 203.996 150.062,206.627 150.005,227.932 150.097 L 251.800 150.200 251.907 159.913 M356.735 151.411 C 361.513 154.653,362.945 161.053,360.032 166.145 C 357.735 170.159,354.165 171.600,346.516 171.600 C 340.109 171.600,340.278 171.828,340.460 163.450 L 340.600 156.981 341.953 154.873 C 343.150 153.008,345.451 150.990,347.200 150.272 C 349.034 149.520,354.998 150.232,356.735 151.411 M64.413 172.216 C 65.007 172.931,64.710 185.264,64.000 189.400 C 63.774 190.720,63.325 196.390,63.003 202.000 C 62.141 217.045,59.562 230.733,56.474 236.655 C 56.261 237.065,55.507 238.570,54.800 240.000 C 52.741 244.162,51.207 246.312,50.095 246.591 C 48.856 246.902,48.853 246.898,47.228 243.200 C 46.503 241.550,45.570 239.468,45.155 238.574 C 44.740 237.679,44.400 236.822,44.400 236.670 C 44.400 236.517,43.667 234.909,42.770 233.096 C 41.874 231.283,40.579 228.381,39.893 226.647 L 38.645 223.494 39.344 221.047 C 39.728 219.701,40.218 216.440,40.432 213.800 C 40.647 211.160,41.176 204.860,41.609 199.800 C 42.041 194.740,42.577 187.810,42.800 184.400 C 43.436 174.642,43.640 173.160,44.462 172.338 C 45.493 171.307,63.567 171.196,64.413 172.216 M136.544 172.500 C 136.911 173.088,137.188 175.201,137.345 178.600 C 137.476 181.460,137.846 186.320,138.167 189.400 C 138.488 192.480,138.866 197.070,139.007 199.600 C 139.496 208.405,140.751 219.782,141.435 221.619 L 142.113 223.439 140.419 227.419 C 139.488 229.609,138.382 231.961,137.963 232.647 C 137.543 233.333,137.200 234.113,137.200 234.379 C 137.200 234.646,136.328 236.694,135.262 238.932 C 134.196 241.169,133.102 243.567,132.830 244.260 C 132.558 244.954,131.924 245.908,131.420 246.381 L 130.505 247.241 129.460 245.998 C 126.492 242.471,121.476 230.822,120.590 225.400 C 120.446 224.520,119.993 222.540,119.583 221.000 C 119.108 219.215,118.688 215.518,118.423 210.800 C 118.195 206.730,117.825 202.320,117.601 201.000 C 117.377 199.680,117.022 195.180,116.812 191.000 C 116.601 186.820,116.115 181.083,115.731 178.252 L 115.032 173.103 115.960 172.352 C 117.532 171.079,135.738 171.210,136.544 172.500 M301.735 172.057 C 300.537 172.658,300.521 172.818,300.775 181.681 C 300.937 187.352,301.146 189.708,301.519 190.081 C 302.306 190.868,313.533 191.044,314.559 190.286 C 316.079 189.162,315.949 174.615,314.402 172.702 C 313.565 171.667,303.530 171.156,301.735 172.057 M157.600 236.000 C 160.546 236.675,162.557 236.781,172.651 236.790 C 185.772 236.801,185.967 236.842,184.485 239.289 C 184.049 240.010,183.556 241.050,183.390 241.600 C 183.111 242.529,181.568 245.937,178.759 251.832 C 178.122 253.169,177.600 254.432,177.600 254.639 C 177.600 254.845,177.144 255.686,176.586 256.507 L 175.571 258.000 161.286 257.968 C 141.440 257.923,141.364 257.893,144.392 251.398 C 145.314 249.419,146.522 246.810,147.075 245.600 C 147.629 244.390,148.502 242.500,149.017 241.400 C 149.531 240.300,150.065 238.994,150.203 238.498 C 151.082 235.353,152.577 234.848,157.600 236.000 " stroke="none" fill="#fc2343" fill-rule="evenodd"></path></g></svg>