<?xml version="1.0" standalone="no"?><!DOCTYPE svg PUBLIC "-//W3C//DTD SVG 1.1//EN" "http://www.w3.org/Graphics/SVG/1.1/DTD/svg11.dtd"><svg t="1707710204321" class="icon" viewBox="0 0 1024 1024" version="1.1" xmlns="http://www.w3.org/2000/svg" p-id="7417" xmlns:xlink="http://www.w3.org/1999/xlink" width="48" height="48"><path d="M688 487.4H108.2c-13.3 0-24.2 10.8-24.2 24.2v316.3c0 13.3 10.8 24.2 24.2 24.2H688c13.3 0 24.2-10.8 24.2-24.2V511.6c0-13.3-10.8-24.2-24.2-24.2zM937.3 485.2H905l-181.8 122 13.4 119.7s138.1 104.3 143.6 112.4c5.5 8 47.2 15 47.2 15s6.6-217.5 9.9-233.9c3.3-16.5 0-135.2 0-135.2zM145.5 461.1l84 9.9 96.6-33 43.5-118.4-43.5-80.4-100.4-46.1-68.1 27.6-68.1 62.5L97.2 393zM488.2 452.3L595.7 471l70.3-14.3 41.7-29.7s27.3-41.7 28.5-46.1c1.2-4.4 15.4-46.1 16.5-47.7 1.1-1.7 6.6-59.6 6.6-59.6L716.5 180 632 133.8h-48.3c-3.3 0-72.3 19.5-72.3 19.5l-70.5 120.3s6.6 104 8.8 110.6 38.5 68.1 38.5 68.1z" fill="#83C1FF" p-id="7418"></path><path d="M688 488.8H108.2C94.8 488.8 84 499.7 84 513v316.3c0 13.3 10.8 24.2 24.2 24.2H688c13.3 0 24.2-10.8 24.2-24.2V513c0-13.3-10.8-24.2-24.2-24.2zM937.3 486.6H905l-181.8 122 13.4 119.7s138.1 104.3 143.6 112.4c5.5 8 47.2 15 47.2 15s6.6-217.5 9.9-233.9c3.3-16.5 0-135.2 0-135.2zM145.5 462.5l84 9.9 96.6-33L369.6 321l-43.5-80.4-100.4-46.1-68.1 27.6-68.1 62.5 7.7 109.8zM488.2 453.7l107.6 18.7 70.3-14.3 41.7-29.7s27.3-41.7 28.5-46.1c1.2-4.4 15.4-46.1 16.5-47.7 1.1-1.7 6.6-59.6 6.6-59.6l-42.8-93.6-84.6-46.2h-48.3c-3.3 0-72.3 19.5-72.3 19.5L440.9 275s6.6 104 8.8 110.6 38.5 68.1 38.5 68.1z" fill="#83C1FF" p-id="7419"></path><path d="M905 449.8L736.3 562.3c0-34.1-15.5-64.3-39.5-85 57.1-34.4 95.8-96.5 95.8-168.1 0-108.7-88.1-196.8-196.8-196.8-108.7 0-196.8 88.1-196.8 196.8 0 55.1 22.8 104.8 59.4 140.6H355.2c26.9-29.9 43.8-69.1 43.8-112.5 0-93.2-75.5-168.7-168.7-168.7-93.2 0-168.7 75.5-168.7 168.7 0 50.8 23 95.9 58.5 126.8-34.7 19.1-58.5 55.7-58.5 98.1v224.9c0 62.1 50.4 112.5 112.5 112.5h449.8c62.1 0 112.5-50.4 112.5-112.5V759L905 899.7c31.1 0 56.2-25.2 56.2-56.2V506.1c0.1-31.1-25.1-56.3-56.2-56.3zM104.1 337.4c0-69.7 56.5-126.1 126.1-126.1 69.7 0 126.1 56.5 126.1 126.1 0 69.7-56.5 126.1-126.1 126.1S104.1 407 104.1 337.4z m596 457.8c0 33.3-27 60.2-60.2 60.2H158c-33.3 0-60.2-27-60.2-60.2v-241c0-33.3 27-60.2 60.2-60.2h481.9c33.3 0 60.2 27 60.2 60.2v241zM595.8 459.8c-83.1 0-150.5-67.4-150.5-150.5s67.4-150.5 150.5-150.5 150.5 67.4 150.5 150.5-67.4 150.5-150.5 150.5z m324.1 395.9L739 704.9v-90.5l180.9-120.6v361.9zM905 843.4" fill="#FFFFFF" p-id="7420"></path><path d="M263.7 757.5H234c-21.1 0-38.2-17.1-38.2-38.2v-88.8c0-10.5-8.5-19.1-19.1-19.1-10.5 0-19.1 8.5-19.1 19.1v88.8c0 42.2 34.2 76.4 76.4 76.4h29.7c10.5 0 19.1-8.5 19.1-19.1 0-10.6-8.6-19.1-19.1-19.1z" fill="#FFFFFF" p-id="7421"></path><path d="M707.8 602.6a4.4 1.1 0 1 0 8.8 0 4.4 1.1 0 1 0-8.8 0Z" fill="#FFFFFF" p-id="7422"></path><path d="M332 778m-19.5 0a19.5 19.5 0 1 0 39 0 19.5 19.5 0 1 0-39 0Z" fill="#FFFFFF" p-id="7423"></path></svg>