<?xml version="1.0" standalone="no"?><!DOCTYPE svg PUBLIC "-//W3C//DTD SVG 1.1//EN" "http://www.w3.org/Graphics/SVG/1.1/DTD/svg11.dtd"><svg t="1707724323822" class="icon" viewBox="0 0 1024 1024" version="1.1" xmlns="http://www.w3.org/2000/svg" p-id="77681" xmlns:xlink="http://www.w3.org/1999/xlink" width="48" height="48"><path d="M512 1024A512 512 0 0 1 0 512 512 512 0 0 1 512 0a512 512 0 0 1 512 512 512 512 0 0 1-512 512z" fill="#FFFFFF" p-id="77682"></path><path d="M227.545 562.587a45.49 45.49 0 0 1-45.49-45.49v-181.49a62.667 62.667 0 0 1 62.572-62.572H421.02a45.585 45.585 0 0 1 0 91.075H273.035v152.986a45.49 45.49 0 0 1-45.49 45.49z" fill="#FF2828" p-id="77683"></path><path d="M659.89 523.325a102.4 102.4 0 1 0 102.4 102.4 102.589 102.589 0 0 0-102.4-102.4z m0 295.875a193.475 193.475 0 1 1 193.38-193.475A193.663 193.663 0 0 1 659.89 819.2z" fill="#FF8C14" p-id="77684"></path><path d="M659.89 295.78a68.33 68.33 0 1 0 68.235 68.33 68.33 68.33 0 0 0-68.235-68.33z m0 227.545A159.31 159.31 0 1 1 819.2 364.11a159.404 159.404 0 0 1-159.31 159.215z" fill="#50C414" p-id="77685"></path><path d="M659.89 432.345a192.153 192.153 0 0 0-117.028 39.544 159.121 159.121 0 0 0 234.151 0 192.625 192.625 0 0 0-117.123-39.544z" fill="#28A032" p-id="77686"></path><path d="M318.62 773.899a171.201 171.201 0 0 1-139.302-72.766 45.49 45.49 0 1 1 74.464-52.38 79.655 79.655 0 1 0 65.215-125.333 78.711 78.711 0 0 0-57.948 24.915 45.49 45.49 0 1 1-66.064-62.478A170.635 170.635 0 1 1 318.62 773.9z" fill="#0091D7" p-id="77687"></path><path d="M194.418 485.857a45.679 45.679 0 0 0-12.363 31.806v4.53a27.653 27.653 0 0 0 0.472 2.737 10.665 10.665 0 0 0 0 1.699 21.613 21.613 0 0 0 0.66 2.642c0 0.566 0 1.133 0.472 1.699s0.567 1.699 0.944 2.548l0.566 1.51c0 0.944 0.85 1.793 1.322 2.737l0.566 1.227c0.472 0.85 1.038 1.699 1.604 2.548l0.755 1.227a18.876 18.876 0 0 0 1.605 2.17l1.132 1.417a14.534 14.534 0 0 0 1.605 1.793l1.51 1.51 1.699 1.604 1.698 1.416 1.888 1.416 1.699 1.132 2.076 1.321 1.793 0.944 2.077 1.038 1.982 0.85 2.17 0.755 1.982 0.66a19.82 19.82 0 0 0 2.265 0.567l2.077 0.472h17.931l1.982-0.567 2.36-0.66 1.887-0.661 2.171-0.85 1.982-0.943 1.982-1.038a20.008 20.008 0 0 0 1.887-1.133l1.888-1.132 1.604-1.227 1.982-1.605 1.322-1.132 2.076-1.982a45.113 45.113 0 0 0 12.74-31.617v-78.617a171.107 171.107 0 0 0-78.05 47.19z m278.604 189.7a169.88 169.88 0 0 0 16.233-72.577 171.485 171.485 0 0 0-7.928-51.436 193.38 193.38 0 0 0-8.305 124.013z" fill="#006EC8" p-id="77688"></path></svg>