<svg id="svg" version="1.1" xmlns="http://www.w3.org/2000/svg" xmlns:xlink="http://www.w3.org/1999/xlink" width="48" height="48" viewBox="0 0 400 400"><g id="svgg"><path id="path0" d="M181.400 53.469 C 179.458 53.896,178.516 54.557,177.300 56.345 L 176.000 58.256 176.000 78.679 C 176.000 95.245,175.899 99.186,175.465 99.546 C 175.081 99.865,161.424 100.020,127.085 100.095 C 88.496 100.180,79.139 100.300,78.720 100.719 C 77.483 101.955,77.835 115.632,79.119 116.265 C 79.494 116.449,101.400 116.690,127.800 116.800 L 175.800 117.000 175.906 130.152 C 175.981 139.525,175.880 143.462,175.557 143.852 C 175.178 144.309,168.612 144.400,136.027 144.400 C 104.839 144.400,96.811 144.504,96.250 144.914 C 95.491 145.469,95.384 159.520,96.133 160.268 C 96.317 160.450,131.093 160.690,173.413 160.800 C 256.158 161.015,251.798 160.883,250.634 163.134 C 250.285 163.809,250.000 164.867,250.000 165.486 C 250.000 166.105,249.643 167.278,249.207 168.091 C 248.771 168.905,248.298 170.342,248.156 171.285 C 248.014 172.228,247.561 173.561,247.149 174.247 C 246.737 174.933,246.400 175.851,246.400 176.288 C 246.400 176.724,245.950 177.927,245.400 178.962 C 244.850 179.996,244.400 181.243,244.400 181.732 C 244.400 182.222,244.110 183.036,243.756 183.542 C 243.401 184.048,242.873 185.366,242.581 186.471 C 242.290 187.576,241.770 188.792,241.426 189.172 C 241.082 189.552,240.800 190.173,240.800 190.552 C 240.800 190.931,240.448 191.907,240.018 192.721 C 238.596 195.409,236.800 199.455,236.800 199.969 C 236.800 200.246,236.440 200.931,236.000 201.491 C 235.560 202.050,235.200 202.809,235.200 203.176 C 235.200 203.544,234.750 204.455,234.200 205.200 C 233.650 205.945,233.200 206.856,233.200 207.224 C 233.200 207.591,232.865 208.321,232.455 208.846 C 232.045 209.371,231.570 210.247,231.398 210.794 C 231.227 211.341,230.544 212.463,229.881 213.288 L 228.676 214.788 227.438 214.036 C 226.757 213.623,225.390 213.154,224.400 212.994 C 223.410 212.835,221.932 212.366,221.116 211.952 C 220.300 211.538,219.130 211.198,218.516 211.196 C 217.902 211.194,216.500 210.750,215.400 210.209 C 214.300 209.668,212.857 209.219,212.194 209.213 C 211.531 209.206,210.361 208.866,209.594 208.457 C 208.827 208.048,207.316 207.583,206.234 207.423 C 205.153 207.262,203.626 206.787,202.840 206.366 C 202.055 205.945,200.772 205.600,199.991 205.600 C 199.209 205.600,197.866 205.242,197.007 204.803 C 196.147 204.365,194.534 203.895,193.422 203.757 C 192.310 203.620,190.974 203.241,190.454 202.915 C 189.934 202.589,188.243 202.146,186.696 201.932 C 185.149 201.718,183.490 201.284,183.008 200.968 C 182.526 200.653,180.874 200.237,179.336 200.044 C 177.797 199.850,176.001 199.414,175.344 199.074 C 174.687 198.735,172.991 198.330,171.575 198.175 C 170.159 198.020,168.462 197.621,167.805 197.287 C 167.148 196.954,165.123 196.531,163.306 196.346 C 161.489 196.162,159.329 195.730,158.506 195.386 C 157.683 195.043,155.388 194.597,153.405 194.396 C 151.422 194.195,149.080 193.774,148.200 193.461 C 147.320 193.148,144.660 192.764,142.288 192.607 C 139.917 192.450,137.037 192.038,135.888 191.692 C 132.668 190.722,101.556 190.490,98.400 191.412 C 97.190 191.766,94.556 192.273,92.548 192.539 C 90.539 192.805,88.616 193.255,88.275 193.538 C 87.933 193.821,86.543 194.210,85.186 194.402 C 83.828 194.594,82.407 195.032,82.028 195.375 C 81.649 195.718,80.503 196.154,79.482 196.345 C 78.460 196.536,77.195 196.973,76.671 197.317 C 76.146 197.661,75.072 198.063,74.285 198.211 C 73.497 198.358,72.543 198.821,72.164 199.240 C 71.786 199.658,71.078 200.000,70.592 200.000 C 70.106 200.000,69.264 200.349,68.722 200.775 C 68.180 201.202,67.269 201.668,66.698 201.811 C 66.126 201.955,65.348 202.416,64.967 202.836 C 64.587 203.256,64.079 203.603,63.838 203.607 C 63.425 203.614,60.768 205.267,59.000 206.617 C 58.560 206.953,57.500 207.761,56.645 208.414 C 55.790 209.066,54.974 209.600,54.833 209.600 C 54.224 209.600,46.858 217.282,45.402 219.436 C 44.523 220.736,43.610 221.980,43.374 222.200 C 42.551 222.965,39.962 227.085,38.974 229.200 C 38.615 229.970,38.090 230.870,37.807 231.200 C 37.525 231.530,37.158 232.247,36.991 232.792 C 36.824 233.338,36.370 234.238,35.981 234.792 C 35.593 235.347,35.163 236.457,35.027 237.260 C 34.890 238.063,34.522 238.932,34.209 239.193 C 33.896 239.453,33.524 240.506,33.384 241.533 C 33.243 242.560,32.814 243.850,32.429 244.400 C 32.007 245.003,31.636 246.517,31.495 248.216 C 31.366 249.765,30.932 251.835,30.530 252.816 C 29.373 255.642,29.513 270.722,30.729 274.400 C 31.203 275.830,31.593 277.630,31.597 278.400 C 31.601 279.170,31.885 280.336,32.226 280.992 C 32.568 281.647,33.041 283.087,33.277 284.192 C 33.512 285.296,34.042 286.629,34.453 287.154 C 34.864 287.679,35.200 288.509,35.200 289.000 C 35.200 289.491,35.549 290.336,35.975 290.878 C 36.402 291.420,36.868 292.331,37.011 292.902 C 37.155 293.474,37.616 294.252,38.036 294.633 C 38.456 295.013,38.800 295.511,38.800 295.740 C 38.800 295.970,39.279 296.887,39.865 297.778 C 41.821 300.759,43.368 302.996,43.786 303.451 C 44.014 303.698,45.100 304.943,46.200 306.216 C 47.300 307.489,48.820 309.086,49.579 309.765 C 50.337 310.444,51.327 311.366,51.779 311.813 C 52.845 312.869,56.717 316.048,58.000 316.921 C 61.412 319.242,63.257 320.400,63.546 320.400 C 63.727 320.400,64.193 320.750,64.579 321.177 C 64.966 321.605,65.796 322.067,66.423 322.205 C 67.050 322.343,67.976 322.775,68.481 323.167 C 68.987 323.558,69.926 324.007,70.568 324.164 C 71.211 324.321,72.180 324.798,72.722 325.225 C 73.264 325.651,74.051 326.000,74.470 326.000 C 74.889 326.000,75.720 326.342,76.316 326.760 C 76.912 327.178,78.172 327.631,79.115 327.767 C 80.058 327.903,81.495 328.371,82.309 328.807 C 83.122 329.243,84.331 329.604,84.994 329.609 C 85.657 329.614,86.978 329.970,87.928 330.402 C 88.934 330.858,91.023 331.289,92.928 331.432 C 94.728 331.567,97.287 332.032,98.615 332.464 C 101.907 333.536,132.000 333.433,134.400 332.342 C 135.170 331.992,137.354 331.592,139.254 331.454 C 141.355 331.301,143.391 330.892,144.454 330.410 C 145.414 329.974,147.013 329.614,148.006 329.609 C 149.005 329.604,150.450 329.258,151.240 328.834 C 152.026 328.413,153.541 327.938,154.607 327.778 C 155.673 327.618,157.097 327.170,157.773 326.782 C 158.448 326.394,159.755 325.955,160.677 325.807 C 161.599 325.659,162.562 325.286,162.817 324.979 C 163.072 324.672,163.937 324.302,164.740 324.156 C 165.543 324.010,167.009 323.466,167.997 322.946 C 168.985 322.426,170.086 322.000,170.443 322.000 C 170.800 322.000,171.550 321.640,172.109 321.200 C 172.669 320.760,173.479 320.400,173.909 320.400 C 174.340 320.400,175.121 320.066,175.646 319.658 C 176.171 319.250,177.275 318.696,178.100 318.427 C 178.925 318.158,179.600 317.779,179.600 317.585 C 179.600 317.391,180.317 317.017,181.194 316.755 C 182.070 316.492,183.088 315.945,183.456 315.539 C 183.823 315.132,184.401 314.800,184.740 314.800 C 185.293 314.800,186.404 314.159,189.608 311.994 C 190.162 311.619,190.993 311.193,191.455 311.046 C 191.917 310.899,192.616 310.424,193.009 309.990 C 193.402 309.555,193.868 309.200,194.044 309.200 C 194.379 309.200,196.825 307.674,198.200 306.608 C 198.640 306.266,199.905 305.405,201.012 304.693 C 202.118 303.982,203.405 303.040,203.871 302.600 C 204.338 302.160,205.382 301.350,206.193 300.800 C 207.908 299.636,212.417 296.085,213.000 295.439 C 213.220 295.196,215.200 293.480,217.400 291.626 C 223.522 286.467,229.666 280.427,233.964 275.341 C 242.689 265.018,244.421 263.634,246.179 265.577 C 246.566 266.005,247.449 266.478,248.141 266.629 C 248.834 266.781,249.829 267.241,250.354 267.652 C 250.879 268.063,251.572 268.400,251.895 268.400 C 252.218 268.400,253.319 268.833,254.341 269.363 C 257.529 271.013,260.593 272.400,261.052 272.400 C 261.294 272.400,261.921 272.733,262.446 273.139 C 262.971 273.545,263.940 274.009,264.600 274.170 C 265.260 274.331,266.070 274.702,266.400 274.994 C 266.730 275.286,267.744 275.724,268.653 275.966 C 269.563 276.208,270.514 276.656,270.768 276.961 C 271.021 277.266,271.834 277.630,272.574 277.769 C 273.314 277.908,274.136 278.282,274.400 278.600 C 274.664 278.918,275.494 279.294,276.244 279.435 C 276.993 279.575,278.017 280.013,278.518 280.407 C 279.018 280.801,280.166 281.322,281.067 281.564 C 281.969 281.807,282.930 282.274,283.202 282.603 C 283.475 282.931,284.009 283.200,284.389 283.200 C 284.770 283.200,285.927 283.650,286.962 284.200 C 287.996 284.750,289.079 285.200,289.367 285.200 C 289.656 285.200,290.350 285.560,290.909 286.000 C 291.469 286.440,292.186 286.800,292.504 286.800 C 292.821 286.800,293.873 287.220,294.840 287.733 C 295.808 288.247,297.126 288.798,297.768 288.958 C 298.411 289.118,299.380 289.598,299.922 290.025 C 300.464 290.451,301.309 290.800,301.800 290.800 C 302.291 290.800,303.150 291.160,303.709 291.600 C 304.269 292.040,304.986 292.400,305.304 292.400 C 305.621 292.400,306.688 292.829,307.675 293.354 C 308.661 293.878,310.026 294.430,310.707 294.579 C 311.388 294.729,312.155 295.105,312.413 295.415 C 312.670 295.725,313.537 296.096,314.340 296.239 C 315.143 296.382,316.160 296.812,316.600 297.196 C 317.040 297.579,318.000 298.005,318.732 298.143 C 319.465 298.280,320.525 298.755,321.086 299.196 C 321.648 299.638,322.509 300.000,323.000 300.000 C 323.491 300.000,324.352 300.362,324.914 300.804 C 325.475 301.245,326.535 301.723,327.268 301.866 C 328.000 302.008,329.029 302.456,329.554 302.862 C 330.079 303.268,330.909 303.600,331.400 303.600 C 331.891 303.600,332.728 303.943,333.260 304.361 C 333.793 304.780,334.979 305.325,335.897 305.572 C 336.815 305.819,337.673 306.194,337.803 306.406 C 337.934 306.617,339.006 307.070,340.187 307.413 C 341.367 307.757,342.550 308.299,342.815 308.619 C 343.081 308.938,343.792 309.200,344.395 309.200 C 344.998 309.200,345.936 309.549,346.478 309.975 C 347.020 310.402,347.989 310.882,348.632 311.042 C 349.274 311.202,350.592 311.753,351.560 312.267 C 352.527 312.780,353.579 313.200,353.896 313.200 C 354.214 313.200,354.931 313.560,355.491 314.000 C 356.050 314.440,356.834 314.800,357.233 314.800 C 357.631 314.800,358.804 315.250,359.838 315.800 C 360.873 316.350,361.986 316.800,362.312 316.800 C 362.639 316.800,363.467 317.141,364.153 317.557 C 364.839 317.973,365.973 318.435,366.672 318.583 C 367.372 318.730,368.150 319.098,368.400 319.400 C 368.650 319.702,369.412 320.071,370.093 320.221 C 370.774 320.370,372.139 320.922,373.125 321.446 C 374.112 321.971,375.186 322.400,375.512 322.400 C 375.839 322.400,376.667 322.741,377.353 323.157 C 378.039 323.573,379.173 324.035,379.872 324.183 C 380.572 324.330,381.350 324.698,381.600 325.000 C 381.850 325.302,382.628 325.670,383.328 325.817 C 384.027 325.965,385.140 326.407,385.800 326.800 C 386.460 327.193,387.630 327.647,388.400 327.809 C 389.170 327.971,390.229 328.441,390.754 328.852 C 391.279 329.263,392.109 329.600,392.600 329.600 C 393.091 329.600,393.942 329.954,394.492 330.387 C 395.042 330.819,396.240 331.293,397.155 331.439 C 398.070 331.585,398.914 331.861,399.032 332.053 C 399.891 333.442,400.000 329.990,400.000 301.400 L 400.000 270.400 398.604 270.400 C 397.837 270.400,396.262 270.036,395.104 269.591 C 393.947 269.147,391.920 268.672,390.600 268.535 C 389.280 268.399,387.681 268.026,387.047 267.706 C 386.413 267.386,384.793 266.967,383.447 266.775 C 382.101 266.582,380.287 266.059,379.415 265.612 C 378.544 265.166,377.154 264.800,376.328 264.800 C 375.501 264.800,374.144 264.455,373.312 264.034 C 372.481 263.613,370.990 263.141,370.000 262.986 C 369.010 262.831,367.570 262.391,366.800 262.009 C 366.030 261.626,364.513 261.197,363.429 261.055 C 362.345 260.912,361.162 260.528,360.800 260.200 C 360.438 259.872,359.255 259.492,358.171 259.354 C 357.087 259.217,355.791 258.849,355.291 258.537 C 354.791 258.225,353.380 257.784,352.157 257.558 C 350.933 257.332,349.362 256.800,348.666 256.375 C 347.970 255.950,346.853 255.602,346.185 255.601 C 345.516 255.601,344.256 255.236,343.385 254.790 C 342.513 254.345,341.080 253.872,340.200 253.739 C 339.320 253.607,338.060 253.184,337.400 252.800 C 336.740 252.416,335.398 251.981,334.418 251.833 C 333.439 251.685,332.089 251.235,331.418 250.833 C 330.748 250.430,329.421 250.003,328.469 249.884 C 327.517 249.765,326.437 249.405,326.069 249.085 C 325.701 248.764,324.680 248.375,323.800 248.221 C 322.920 248.067,321.605 247.595,320.877 247.171 C 320.150 246.747,319.106 246.400,318.559 246.400 C 318.011 246.400,316.718 245.950,315.685 245.400 C 314.652 244.850,313.376 244.400,312.850 244.400 C 312.325 244.400,311.333 244.055,310.647 243.634 C 309.961 243.212,308.680 242.739,307.800 242.583 C 306.920 242.427,305.927 242.062,305.594 241.772 C 305.260 241.482,304.180 241.062,303.194 240.838 C 302.207 240.613,300.687 240.063,299.815 239.615 C 298.944 239.167,297.885 238.800,297.463 238.800 C 297.040 238.800,296.133 238.462,295.447 238.049 C 294.761 237.635,293.480 237.170,292.600 237.015 C 291.720 236.859,290.707 236.470,290.350 236.149 C 289.992 235.828,289.002 235.460,288.150 235.331 C 287.297 235.202,286.060 234.779,285.400 234.391 C 284.740 234.004,283.570 233.559,282.800 233.404 C 282.030 233.249,280.805 232.780,280.077 232.361 C 279.350 231.943,278.357 231.600,277.871 231.600 C 277.386 231.600,276.271 231.207,275.394 230.728 C 274.517 230.248,273.099 229.753,272.242 229.628 C 270.291 229.343,268.745 227.579,269.488 226.486 C 269.744 226.109,270.528 224.630,271.230 223.200 C 271.932 221.770,272.842 220.122,273.253 219.538 C 273.664 218.954,274.000 218.223,274.000 217.914 C 274.000 217.604,274.335 216.992,274.743 216.553 C 275.152 216.114,275.701 215.104,275.964 214.309 C 276.226 213.514,276.684 212.662,276.981 212.416 C 277.278 212.169,277.640 211.494,277.786 210.915 C 277.931 210.337,278.398 209.420,278.825 208.878 C 279.251 208.336,279.600 207.491,279.600 207.000 C 279.600 206.509,279.949 205.664,280.375 205.122 C 280.802 204.580,281.282 203.611,281.442 202.968 C 281.602 202.326,282.153 201.008,282.667 200.040 C 283.180 199.073,283.600 198.021,283.600 197.704 C 283.600 197.386,283.960 196.669,284.400 196.109 C 284.840 195.550,285.200 194.740,285.200 194.309 C 285.200 193.879,285.560 193.069,286.000 192.509 C 286.440 191.950,286.800 191.183,286.800 190.806 C 286.800 190.428,287.220 189.327,287.733 188.360 C 288.247 187.392,288.779 185.903,288.916 185.050 C 289.053 184.198,289.428 183.208,289.749 182.850 C 290.070 182.493,290.459 181.480,290.615 180.600 C 290.770 179.720,291.214 178.460,291.600 177.800 C 291.986 177.140,292.430 175.880,292.585 175.000 C 292.740 174.120,293.212 172.839,293.634 172.153 C 294.055 171.467,294.400 170.515,294.400 170.037 C 294.400 169.559,294.763 168.456,295.207 167.585 C 295.652 166.715,296.127 165.147,296.264 164.101 C 296.401 163.056,296.848 161.532,297.257 160.716 C 297.666 159.900,298.000 158.679,298.000 158.004 C 298.000 157.328,298.450 155.707,299.000 154.400 C 299.550 153.093,300.000 151.431,300.000 150.706 C 300.000 149.981,300.360 148.716,300.800 147.896 C 301.763 146.098,301.821 144.971,300.967 144.643 C 300.619 144.509,283.237 144.400,262.341 144.400 C 236.916 144.400,224.091 144.263,223.574 143.986 C 222.603 143.467,222.341 117.944,223.300 117.324 C 223.575 117.146,245.100 116.910,271.132 116.800 C 317.404 116.604,318.477 116.583,319.032 115.824 C 320.033 114.454,319.838 101.838,318.800 100.800 C 318.009 100.009,317.467 100.000,271.174 100.000 C 239.660 100.000,224.094 99.865,223.574 99.586 C 222.823 99.184,222.800 98.507,222.800 76.600 C 222.800 54.693,222.777 54.016,222.026 53.614 C 221.271 53.210,183.195 53.074,181.400 53.469 M117.000 217.563 C 117.880 217.776,121.130 218.124,124.221 218.337 C 127.692 218.576,130.440 218.973,131.404 219.376 C 132.262 219.735,134.425 220.176,136.209 220.357 C 137.994 220.538,139.892 220.962,140.427 221.301 C 140.962 221.639,142.478 222.043,143.796 222.198 C 145.114 222.354,146.824 222.798,147.596 223.184 C 148.368 223.570,149.887 224.003,150.971 224.145 C 152.055 224.288,153.225 224.653,153.571 224.957 C 153.917 225.261,155.150 225.709,156.311 225.953 C 157.473 226.197,158.823 226.647,159.311 226.953 C 159.800 227.260,160.920 227.636,161.800 227.789 C 162.680 227.942,163.961 228.412,164.647 228.834 C 165.333 229.255,166.179 229.600,166.526 229.600 C 166.873 229.600,168.004 230.050,169.038 230.600 C 170.073 231.150,171.207 231.601,171.560 231.601 C 171.912 231.602,172.744 231.935,173.408 232.340 C 174.073 232.745,175.270 233.199,176.068 233.349 C 176.866 233.499,177.736 233.882,178.000 234.200 C 178.264 234.518,179.094 234.894,179.844 235.035 C 180.593 235.175,181.617 235.613,182.118 236.007 C 182.618 236.401,183.766 236.922,184.667 237.164 C 185.569 237.407,186.514 237.856,186.768 238.161 C 187.021 238.466,187.834 238.830,188.574 238.969 C 189.314 239.108,190.136 239.482,190.400 239.800 C 190.664 240.118,191.494 240.494,192.244 240.635 C 192.993 240.775,194.010 241.204,194.503 241.587 C 194.997 241.970,196.061 242.499,196.868 242.762 C 197.675 243.026,198.552 243.502,198.817 243.820 C 199.082 244.139,199.653 244.400,200.087 244.400 C 200.521 244.400,201.365 244.748,201.963 245.173 C 202.560 245.599,203.535 246.069,204.128 246.218 C 206.104 246.714,205.412 248.557,201.706 252.671 C 200.045 254.515,199.260 255.419,197.256 257.800 C 193.498 262.264,185.280 270.558,181.200 274.005 C 178.670 276.142,175.891 278.544,175.025 279.342 C 174.159 280.141,172.203 281.650,170.678 282.697 C 169.154 283.744,166.870 285.320,165.603 286.200 C 160.209 289.947,158.895 290.800,158.521 290.800 C 158.302 290.800,157.807 291.150,157.421 291.577 C 157.034 292.005,156.214 292.465,155.600 292.600 C 154.986 292.735,154.166 293.195,153.779 293.623 C 153.393 294.050,152.779 294.400,152.416 294.400 C 152.053 294.400,151.145 294.850,150.400 295.400 C 149.655 295.950,148.657 296.400,148.184 296.400 C 147.711 296.400,147.018 296.738,146.644 297.152 C 146.269 297.565,145.275 298.014,144.434 298.148 C 143.592 298.283,142.689 298.652,142.426 298.969 C 142.163 299.286,141.022 299.743,139.890 299.986 C 138.759 300.229,137.542 300.690,137.187 301.012 C 136.832 301.333,135.655 301.708,134.571 301.846 C 133.487 301.983,132.182 302.357,131.670 302.677 C 131.159 302.996,129.269 303.495,127.470 303.786 C 125.672 304.076,123.480 304.581,122.600 304.907 C 118.995 306.243,92.405 306.072,89.200 304.691 C 88.430 304.360,86.630 303.957,85.200 303.797 C 83.770 303.637,81.970 303.192,81.200 302.808 C 80.430 302.425,79.021 302.012,78.069 301.890 C 77.117 301.768,76.037 301.397,75.669 301.065 C 75.301 300.734,74.460 300.335,73.800 300.180 C 73.140 300.024,71.970 299.563,71.200 299.155 C 70.430 298.748,69.350 298.227,68.800 297.999 C 68.250 297.771,66.990 297.048,66.000 296.394 C 65.010 295.739,63.732 294.978,63.159 294.702 C 60.924 293.624,52.944 286.016,51.014 283.122 C 48.446 279.273,48.000 278.504,48.000 277.927 C 48.000 277.581,47.731 277.075,47.403 276.802 C 47.074 276.530,46.619 275.563,46.390 274.653 C 46.161 273.744,45.591 272.203,45.123 271.229 C 43.839 268.555,43.831 254.137,45.112 251.680 C 45.573 250.794,46.074 249.379,46.225 248.535 C 46.375 247.691,46.813 246.640,47.197 246.200 C 47.581 245.760,48.023 244.861,48.179 244.203 C 48.336 243.545,48.729 242.735,49.054 242.403 C 49.378 242.071,50.252 240.834,50.996 239.654 C 52.706 236.940,58.714 231.006,61.600 229.182 C 62.810 228.417,64.160 227.564,64.600 227.287 C 65.040 227.010,66.030 226.510,66.800 226.175 C 67.570 225.841,68.855 225.214,69.654 224.783 C 70.454 224.352,71.465 224.000,71.901 224.000 C 72.336 224.000,73.121 223.666,73.646 223.258 C 74.171 222.850,75.312 222.385,76.181 222.225 C 77.051 222.064,78.439 221.588,79.265 221.167 C 80.092 220.745,81.450 220.396,82.284 220.391 C 83.118 220.386,84.610 220.009,85.600 219.552 C 86.730 219.031,88.815 218.598,91.200 218.389 C 93.290 218.206,96.440 217.864,98.200 217.630 C 99.960 217.396,102.120 217.131,103.000 217.042 C 105.567 216.781,115.253 217.141,117.000 217.563 " stroke="none" fill="#fafbfc" fill-rule="evenodd"></path><path id="path1" d="M67.600 0.400 C 67.600 0.621,66.550 0.800,65.250 0.800 C 61.788 0.800,60.400 1.158,60.400 2.050 C 60.400 2.712,60.071 2.800,57.600 2.800 C 54.880 2.800,54.800 2.829,54.800 3.800 C 54.800 4.771,54.720 4.800,52.000 4.800 C 49.523 4.800,49.200 4.887,49.200 5.555 C 49.200 6.142,48.802 6.369,47.400 6.579 C 45.978 6.792,45.600 7.012,45.600 7.625 C 45.600 8.216,45.321 8.400,44.421 8.400 C 43.717 8.400,42.806 8.803,42.162 9.400 C 41.569 9.950,40.839 10.400,40.542 10.400 C 40.244 10.400,40.000 10.750,40.000 11.178 C 40.000 11.823,39.674 11.977,38.100 12.078 C 36.479 12.182,36.181 12.332,36.072 13.100 C 35.990 13.678,35.668 14.000,35.172 14.000 C 34.682 14.000,34.400 14.276,34.400 14.755 C 34.400 15.342,34.002 15.569,32.600 15.779 C 31.178 15.992,30.800 16.212,30.800 16.825 C 30.800 17.385,30.523 17.600,29.800 17.600 C 29.000 17.600,28.800 17.800,28.800 18.600 C 28.800 19.400,28.600 19.600,27.800 19.600 C 27.067 19.600,26.800 19.813,26.800 20.400 C 26.800 20.933,26.533 21.200,26.000 21.200 C 25.413 21.200,25.200 21.467,25.200 22.200 C 25.200 23.000,25.000 23.200,24.200 23.200 C 23.400 23.200,23.200 23.400,23.200 24.200 C 23.200 25.000,23.000 25.200,22.200 25.200 C 21.467 25.200,21.200 25.413,21.200 26.000 C 21.200 26.533,20.933 26.800,20.400 26.800 C 19.813 26.800,19.600 27.067,19.600 27.800 C 19.600 28.600,19.400 28.800,18.600 28.800 C 17.800 28.800,17.600 29.000,17.600 29.800 C 17.600 30.523,17.385 30.800,16.825 30.800 C 16.212 30.800,15.992 31.178,15.779 32.600 C 15.569 34.002,15.342 34.400,14.755 34.400 C 14.276 34.400,14.000 34.682,14.000 35.172 C 14.000 35.668,13.678 35.990,13.100 36.072 C 12.456 36.164,12.164 36.512,12.073 37.300 C 12.002 37.922,11.701 38.400,11.381 38.400 C 11.070 38.400,10.705 38.895,10.570 39.500 C 10.084 41.684,9.962 41.917,9.187 42.119 C 8.566 42.282,8.400 42.671,8.400 43.963 C 8.400 45.302,8.262 45.600,7.643 45.600 C 6.781 45.600,6.400 46.345,6.400 48.033 C 6.400 48.933,6.217 49.200,5.600 49.200 C 4.876 49.200,4.800 49.467,4.800 52.000 C 4.800 54.720,4.771 54.800,3.800 54.800 C 2.829 54.800,2.800 54.880,2.800 57.600 C 2.800 60.081,2.714 60.400,2.043 60.400 C 1.072 60.400,0.800 61.151,0.800 63.833 C 0.800 65.025,0.620 66.000,0.400 66.000 C 0.134 66.000,0.000 110.933,0.000 200.000 C 0.000 284.790,0.140 334.000,0.382 334.000 C 0.592 334.000,0.817 335.215,0.882 336.700 C 0.989 339.153,1.082 339.412,1.900 339.528 C 2.734 339.646,2.800 339.858,2.800 342.428 C 2.800 345.118,2.830 345.200,3.800 345.200 C 4.771 345.200,4.800 345.280,4.800 348.000 C 4.800 350.506,4.882 350.800,5.577 350.800 C 6.205 350.800,6.378 351.126,6.477 352.500 C 6.579 353.913,6.752 354.222,7.500 354.328 C 8.279 354.438,8.400 354.695,8.400 356.228 C 8.400 357.203,8.567 358.000,8.771 358.000 C 9.525 358.000,10.400 359.290,10.400 360.402 C 10.400 361.182,10.646 361.624,11.175 361.792 C 11.601 361.927,12.006 362.434,12.075 362.919 C 12.154 363.479,12.528 363.847,13.100 363.928 C 13.795 364.027,14.000 364.318,14.000 365.205 C 14.000 365.871,14.313 366.575,14.743 366.877 C 15.151 367.165,15.607 367.786,15.756 368.257 C 15.905 368.728,16.381 369.206,16.813 369.319 C 17.280 369.441,17.600 369.866,17.600 370.363 C 17.600 370.989,17.852 371.200,18.600 371.200 C 19.400 371.200,19.600 371.400,19.600 372.200 C 19.600 372.933,19.813 373.200,20.400 373.200 C 20.933 373.200,21.200 373.467,21.200 374.000 C 21.200 374.587,21.467 374.800,22.200 374.800 C 23.000 374.800,23.200 375.000,23.200 375.800 C 23.200 376.600,23.400 376.800,24.200 376.800 C 25.000 376.800,25.200 377.000,25.200 377.800 C 25.200 378.533,25.413 378.800,26.000 378.800 C 26.533 378.800,26.800 379.067,26.800 379.600 C 26.800 380.187,27.067 380.400,27.800 380.400 C 28.600 380.400,28.800 380.600,28.800 381.400 C 28.800 382.148,29.011 382.400,29.637 382.400 C 30.134 382.400,30.559 382.720,30.681 383.187 C 30.794 383.619,31.272 384.095,31.743 384.244 C 32.214 384.393,32.835 384.849,33.123 385.257 C 33.425 385.687,34.129 386.000,34.795 386.000 C 35.682 386.000,35.973 386.205,36.072 386.900 C 36.153 387.472,36.521 387.846,37.081 387.925 C 37.566 387.994,38.073 388.399,38.208 388.825 C 38.376 389.354,38.818 389.600,39.598 389.600 C 40.710 389.600,42.000 390.475,42.000 391.229 C 42.000 391.433,42.797 391.600,43.772 391.600 C 45.305 391.600,45.562 391.721,45.672 392.500 C 45.778 393.248,46.087 393.421,47.500 393.523 C 48.874 393.622,49.200 393.795,49.200 394.423 C 49.200 395.118,49.494 395.200,52.000 395.200 C 54.720 395.200,54.800 395.229,54.800 396.200 C 54.800 397.170,54.882 397.200,57.572 397.200 C 60.142 397.200,60.354 397.266,60.472 398.100 C 60.588 398.918,60.847 399.011,63.300 399.118 C 64.785 399.183,66.000 399.408,66.000 399.618 C 66.000 399.860,115.210 400.000,200.000 400.000 C 289.067 400.000,334.000 399.866,334.000 399.600 C 334.000 399.380,334.975 399.200,336.167 399.200 C 338.849 399.200,339.600 398.928,339.600 397.957 C 339.600 397.286,339.919 397.200,342.400 397.200 C 345.120 397.200,345.200 397.171,345.200 396.200 C 345.200 395.229,345.280 395.200,348.000 395.200 C 350.533 395.200,350.800 395.124,350.800 394.400 C 350.800 393.783,351.067 393.600,351.967 393.600 C 353.655 393.600,354.400 393.219,354.400 392.357 C 354.400 391.738,354.698 391.600,356.037 391.600 C 357.341 391.600,357.718 391.436,357.885 390.796 C 358.004 390.342,358.554 389.890,359.148 389.758 C 361.277 389.287,361.600 389.135,361.600 388.600 C 361.600 388.299,362.095 387.996,362.700 387.927 C 363.488 387.836,363.836 387.544,363.928 386.900 C 364.010 386.322,364.332 386.000,364.828 386.000 C 365.318 386.000,365.600 385.724,365.600 385.245 C 365.600 384.658,365.998 384.431,367.400 384.221 C 368.822 384.008,369.200 383.788,369.200 383.175 C 369.200 382.615,369.477 382.400,370.200 382.400 C 371.000 382.400,371.200 382.200,371.200 381.400 C 371.200 380.600,371.400 380.400,372.200 380.400 C 372.933 380.400,373.200 380.187,373.200 379.600 C 373.200 379.067,373.467 378.800,374.000 378.800 C 374.587 378.800,374.800 378.533,374.800 377.800 C 374.800 377.000,375.000 376.800,375.800 376.800 C 376.600 376.800,376.800 376.600,376.800 375.800 C 376.800 375.000,377.000 374.800,377.800 374.800 C 378.533 374.800,378.800 374.587,378.800 374.000 C 378.800 373.467,379.067 373.200,379.600 373.200 C 380.187 373.200,380.400 372.933,380.400 372.200 C 380.400 371.400,380.600 371.200,381.400 371.200 C 382.200 371.200,382.400 371.000,382.400 370.200 C 382.400 369.477,382.615 369.200,383.175 369.200 C 383.788 369.200,384.008 368.822,384.221 367.400 C 384.431 365.998,384.658 365.600,385.245 365.600 C 385.724 365.600,386.000 365.318,386.000 364.828 C 386.000 364.332,386.322 364.010,386.900 363.928 C 387.668 363.819,387.818 363.521,387.922 361.900 C 388.023 360.326,388.177 360.000,388.822 360.000 C 389.250 360.000,389.600 359.756,389.600 359.458 C 389.600 359.161,390.050 358.431,390.600 357.838 C 391.197 357.194,391.600 356.283,391.600 355.579 C 391.600 354.679,391.784 354.400,392.375 354.400 C 392.988 354.400,393.208 354.022,393.421 352.600 C 393.631 351.198,393.858 350.800,394.445 350.800 C 395.113 350.800,395.200 350.477,395.200 348.000 C 395.200 345.280,395.229 345.200,396.200 345.200 C 397.171 345.200,397.200 345.120,397.200 342.400 C 397.200 339.896,397.282 339.600,397.975 339.600 C 398.897 339.600,399.330 337.497,399.127 334.011 L 399.000 331.822 397.211 331.470 C 396.227 331.276,394.987 330.776,394.457 330.359 C 393.926 329.941,393.091 329.600,392.600 329.600 C 392.109 329.600,391.279 329.263,390.754 328.852 C 390.229 328.441,389.170 327.971,388.400 327.809 C 387.630 327.647,386.460 327.193,385.800 326.800 C 385.140 326.407,384.027 325.965,383.328 325.817 C 382.628 325.670,381.850 325.302,381.600 325.000 C 381.350 324.698,380.572 324.330,379.872 324.183 C 379.173 324.035,378.039 323.573,377.353 323.157 C 376.667 322.741,375.839 322.400,375.512 322.400 C 375.186 322.400,374.112 321.971,373.125 321.446 C 372.139 320.922,370.774 320.370,370.093 320.221 C 369.412 320.071,368.650 319.702,368.400 319.400 C 368.150 319.098,367.372 318.730,366.672 318.583 C 365.973 318.435,364.839 317.973,364.153 317.557 C 363.467 317.141,362.639 316.800,362.312 316.800 C 361.986 316.800,360.873 316.350,359.838 315.800 C 358.804 315.250,357.631 314.800,357.233 314.800 C 356.834 314.800,356.050 314.440,355.491 314.000 C 354.931 313.560,354.214 313.200,353.896 313.200 C 353.579 313.200,352.527 312.780,351.560 312.267 C 350.592 311.753,349.274 311.202,348.632 311.042 C 347.989 310.882,347.020 310.402,346.478 309.975 C 345.936 309.549,344.998 309.200,344.395 309.200 C 343.792 309.200,343.081 308.938,342.815 308.619 C 342.550 308.299,341.367 307.757,340.187 307.413 C 339.006 307.070,337.934 306.617,337.803 306.406 C 337.673 306.194,336.815 305.819,335.897 305.572 C 334.979 305.325,333.793 304.780,333.260 304.361 C 332.728 303.943,331.891 303.600,331.400 303.600 C 330.909 303.600,330.079 303.268,329.554 302.862 C 329.029 302.456,328.000 302.008,327.268 301.866 C 326.535 301.723,325.475 301.245,324.914 300.804 C 324.352 300.362,323.491 300.000,323.000 300.000 C 322.509 300.000,321.648 299.638,321.086 299.196 C 320.525 298.755,319.465 298.280,318.732 298.143 C 318.000 298.005,317.040 297.579,316.600 297.196 C 316.160 296.812,315.143 296.382,314.340 296.239 C 313.537 296.096,312.670 295.725,312.413 295.415 C 312.155 295.105,311.388 294.729,310.707 294.579 C 310.026 294.430,308.661 293.878,307.675 293.354 C 306.688 292.829,305.621 292.400,305.304 292.400 C 304.986 292.400,304.269 292.040,303.709 291.600 C 303.150 291.160,302.291 290.800,301.800 290.800 C 301.309 290.800,300.464 290.451,299.922 290.025 C 299.380 289.598,298.411 289.118,297.768 288.958 C 297.126 288.798,295.808 288.247,294.840 287.733 C 293.873 287.220,292.821 286.800,292.504 286.800 C 292.186 286.800,291.469 286.440,290.909 286.000 C 290.350 285.560,289.656 285.200,289.367 285.200 C 289.079 285.200,287.996 284.750,286.962 284.200 C 285.927 283.650,284.770 283.200,284.389 283.200 C 284.009 283.200,283.475 282.931,283.202 282.603 C 282.930 282.274,281.969 281.807,281.067 281.564 C 280.166 281.322,279.018 280.801,278.518 280.407 C 278.017 280.013,276.993 279.575,276.244 279.435 C 275.494 279.294,274.664 278.918,274.400 278.600 C 274.136 278.282,273.314 277.908,272.574 277.769 C 271.834 277.630,271.021 277.266,270.768 276.961 C 270.514 276.656,269.563 276.208,268.653 275.966 C 267.744 275.724,266.730 275.286,266.400 274.994 C 266.070 274.702,265.260 274.331,264.600 274.170 C 263.940 274.009,262.971 273.545,262.446 273.139 C 261.921 272.733,261.294 272.400,261.052 272.400 C 260.593 272.400,257.529 271.013,254.341 269.363 C 253.319 268.833,252.218 268.400,251.895 268.400 C 251.572 268.400,250.879 268.063,250.354 267.652 C 249.829 267.241,248.834 266.781,248.141 266.629 C 247.449 266.478,246.566 266.005,246.179 265.577 C 244.421 263.634,242.689 265.018,233.964 275.341 C 229.666 280.427,223.522 286.467,217.400 291.626 C 215.200 293.480,213.220 295.196,213.000 295.439 C 212.417 296.085,207.908 299.636,206.193 300.800 C 205.382 301.350,204.338 302.160,203.871 302.600 C 203.405 303.040,202.118 303.982,201.012 304.693 C 199.905 305.405,198.640 306.266,198.200 306.608 C 196.825 307.674,194.379 309.200,194.044 309.200 C 193.868 309.200,193.402 309.555,193.009 309.990 C 192.616 310.424,191.917 310.899,191.455 311.046 C 190.993 311.193,190.162 311.619,189.608 311.994 C 186.404 314.159,185.293 314.800,184.740 314.800 C 184.401 314.800,183.823 315.132,183.456 315.539 C 183.088 315.945,182.070 316.492,181.194 316.755 C 180.317 317.017,179.600 317.391,179.600 317.585 C 179.600 317.779,178.925 318.158,178.100 318.427 C 177.275 318.696,176.171 319.250,175.646 319.658 C 175.121 320.066,174.340 320.400,173.909 320.400 C 173.479 320.400,172.669 320.760,172.109 321.200 C 171.550 321.640,170.800 322.000,170.443 322.000 C 170.086 322.000,168.985 322.426,167.997 322.946 C 167.009 323.466,165.543 324.010,164.740 324.156 C 163.937 324.302,163.072 324.672,162.817 324.979 C 162.562 325.286,161.599 325.659,160.677 325.807 C 159.755 325.955,158.448 326.394,157.773 326.782 C 157.097 327.170,155.673 327.618,154.607 327.778 C 153.541 327.938,152.026 328.413,151.240 328.834 C 150.450 329.258,149.005 329.604,148.006 329.609 C 147.013 329.614,145.414 329.974,144.454 330.410 C 143.391 330.892,141.355 331.301,139.254 331.454 C 137.354 331.592,135.170 331.992,134.400 332.342 C 132.000 333.433,101.907 333.536,98.615 332.464 C 97.287 332.032,94.728 331.567,92.928 331.432 C 91.023 331.289,88.934 330.858,87.928 330.402 C 86.978 329.970,85.657 329.614,84.994 329.609 C 84.331 329.604,83.122 329.243,82.309 328.807 C 81.495 328.371,80.058 327.903,79.115 327.767 C 78.172 327.631,76.912 327.178,76.316 326.760 C 75.720 326.342,74.889 326.000,74.470 326.000 C 74.051 326.000,73.264 325.651,72.722 325.225 C 72.180 324.798,71.211 324.321,70.568 324.164 C 69.926 324.007,68.987 323.558,68.481 323.167 C 67.976 322.775,67.050 322.343,66.423 322.205 C 65.796 322.067,64.966 321.605,64.579 321.177 C 64.193 320.750,63.727 320.400,63.546 320.400 C 63.257 320.400,61.412 319.242,58.000 316.921 C 56.717 316.048,52.845 312.869,51.779 311.813 C 51.327 311.366,50.337 310.444,49.579 309.765 C 48.820 309.086,47.300 307.489,46.200 306.216 C 45.100 304.943,44.014 303.698,43.786 303.451 C 43.368 302.996,41.821 300.759,39.865 297.778 C 39.279 296.887,38.800 295.970,38.800 295.740 C 38.800 295.511,38.456 295.013,38.036 294.633 C 37.616 294.252,37.155 293.474,37.011 292.902 C 36.868 292.331,36.402 291.420,35.975 290.878 C 35.549 290.336,35.200 289.491,35.200 289.000 C 35.200 288.509,34.864 287.679,34.453 287.154 C 34.042 286.629,33.512 285.296,33.277 284.192 C 33.041 283.087,32.568 281.647,32.226 280.992 C 31.885 280.336,31.601 279.170,31.597 278.400 C 31.593 277.630,31.203 275.830,30.729 274.400 C 29.513 270.722,29.373 255.642,30.530 252.816 C 30.932 251.835,31.366 249.765,31.495 248.216 C 31.636 246.517,32.007 245.003,32.429 244.400 C 32.814 243.850,33.243 242.560,33.384 241.533 C 33.524 240.506,33.896 239.453,34.209 239.193 C 34.522 238.932,34.890 238.063,35.027 237.260 C 35.163 236.457,35.593 235.347,35.981 234.792 C 36.370 234.238,36.824 233.338,36.991 232.792 C 37.158 232.247,37.525 231.530,37.807 231.200 C 38.090 230.870,38.615 229.970,38.974 229.200 C 39.962 227.085,42.551 222.965,43.374 222.200 C 43.610 221.980,44.523 220.736,45.402 219.436 C 46.858 217.282,54.224 209.600,54.833 209.600 C 54.974 209.600,55.790 209.066,56.645 208.414 C 57.500 207.761,58.560 206.953,59.000 206.617 C 60.768 205.267,63.425 203.614,63.838 203.607 C 64.079 203.603,64.587 203.256,64.967 202.836 C 65.348 202.416,66.126 201.955,66.698 201.811 C 67.269 201.668,68.180 201.202,68.722 200.775 C 69.264 200.349,70.106 200.000,70.592 200.000 C 71.078 200.000,71.786 199.658,72.164 199.240 C 72.543 198.821,73.497 198.358,74.285 198.211 C 75.072 198.063,76.146 197.661,76.671 197.317 C 77.195 196.973,78.460 196.536,79.482 196.345 C 80.503 196.154,81.649 195.718,82.028 195.375 C 82.407 195.032,83.828 194.594,85.186 194.402 C 86.543 194.210,87.933 193.821,88.275 193.538 C 88.616 193.255,90.539 192.805,92.548 192.539 C 94.556 192.273,97.190 191.766,98.400 191.412 C 101.556 190.490,132.668 190.722,135.888 191.692 C 137.037 192.038,139.917 192.450,142.288 192.607 C 144.660 192.764,147.320 193.148,148.200 193.461 C 149.080 193.774,151.422 194.195,153.405 194.396 C 155.388 194.597,157.683 195.043,158.506 195.386 C 159.329 195.730,161.489 196.162,163.306 196.346 C 165.123 196.531,167.148 196.954,167.805 197.287 C 168.462 197.621,170.159 198.020,171.575 198.175 C 172.991 198.330,174.687 198.735,175.344 199.074 C 176.001 199.414,177.797 199.850,179.336 200.044 C 180.874 200.237,182.526 200.653,183.008 200.968 C 183.490 201.284,185.149 201.718,186.696 201.932 C 188.243 202.146,189.934 202.589,190.454 202.915 C 190.974 203.241,192.310 203.620,193.422 203.757 C 194.534 203.895,196.147 204.365,197.007 204.803 C 197.866 205.242,199.209 205.600,199.991 205.600 C 200.772 205.600,202.055 205.945,202.840 206.366 C 203.626 206.787,205.153 207.262,206.234 207.423 C 207.316 207.583,208.827 208.048,209.594 208.457 C 210.361 208.866,211.531 209.206,212.194 209.213 C 212.857 209.219,214.300 209.668,215.400 210.209 C 216.500 210.750,217.902 211.194,218.516 211.196 C 219.130 211.198,220.300 211.538,221.116 211.952 C 221.932 212.366,223.410 212.835,224.400 212.994 C 225.390 213.154,226.757 213.623,227.438 214.036 L 228.676 214.788 229.881 213.288 C 230.544 212.463,231.227 211.341,231.398 210.794 C 231.570 210.247,232.045 209.371,232.455 208.846 C 232.865 208.321,233.200 207.591,233.200 207.224 C 233.200 206.856,233.650 205.945,234.200 205.200 C 234.750 204.455,235.200 203.544,235.200 203.176 C 235.200 202.809,235.560 202.050,236.000 201.491 C 236.440 200.931,236.800 200.246,236.800 199.969 C 236.800 199.455,238.596 195.409,240.018 192.721 C 240.448 191.907,240.800 190.931,240.800 190.552 C 240.800 190.173,241.082 189.552,241.426 189.172 C 241.770 188.792,242.290 187.576,242.581 186.471 C 242.873 185.366,243.401 184.048,243.756 183.542 C 244.110 183.036,244.400 182.222,244.400 181.732 C 244.400 181.243,244.850 179.996,245.400 178.962 C 245.950 177.927,246.400 176.724,246.400 176.288 C 246.400 175.851,246.737 174.933,247.149 174.247 C 247.561 173.561,248.014 172.228,248.156 171.285 C 248.298 170.342,248.771 168.905,249.207 168.091 C 249.643 167.278,250.000 166.105,250.000 165.486 C 250.000 164.867,250.285 163.809,250.634 163.134 C 251.798 160.883,256.158 161.015,173.413 160.800 C 131.093 160.690,96.317 160.450,96.133 160.268 C 95.384 159.520,95.491 145.469,96.250 144.914 C 96.811 144.504,104.839 144.400,136.027 144.400 C 168.612 144.400,175.178 144.309,175.557 143.852 C 175.880 143.462,175.981 139.525,175.906 130.152 L 175.800 117.000 127.800 116.800 C 101.400 116.690,79.494 116.449,79.119 116.265 C 77.835 115.632,77.483 101.955,78.720 100.719 C 79.139 100.300,88.496 100.180,127.085 100.095 C 161.424 100.020,175.081 99.865,175.465 99.546 C 175.899 99.186,176.000 95.245,176.000 78.679 L 176.000 58.256 177.300 56.353 C 178.015 55.307,179.050 54.214,179.600 53.925 C 180.920 53.232,220.736 52.924,221.994 53.597 C 222.787 54.021,222.800 54.384,222.800 76.600 C 222.800 98.507,222.823 99.184,223.574 99.586 C 224.094 99.865,239.660 100.000,271.174 100.000 C 317.467 100.000,318.009 100.009,318.800 100.800 C 319.838 101.838,320.033 114.454,319.032 115.824 C 318.477 116.583,317.404 116.604,271.132 116.800 C 245.100 116.910,223.575 117.146,223.300 117.324 C 222.341 117.944,222.603 143.467,223.574 143.986 C 224.091 144.263,236.916 144.400,262.341 144.400 C 283.237 144.400,300.619 144.509,300.967 144.643 C 301.821 144.971,301.763 146.098,300.800 147.896 C 300.360 148.716,300.000 149.981,300.000 150.706 C 300.000 151.431,299.550 153.093,299.000 154.400 C 298.450 155.707,298.000 157.328,298.000 158.004 C 298.000 158.679,297.666 159.900,297.257 160.716 C 296.848 161.532,296.401 163.056,296.264 164.101 C 296.127 165.147,295.652 166.715,295.207 167.585 C 294.763 168.456,294.400 169.559,294.400 170.037 C 294.400 170.515,294.055 171.467,293.634 172.153 C 293.212 172.839,292.740 174.120,292.585 175.000 C 292.430 175.880,291.986 177.140,291.600 177.800 C 291.214 178.460,290.770 179.720,290.615 180.600 C 290.459 181.480,290.070 182.493,289.749 182.850 C 289.428 183.208,289.053 184.198,288.916 185.050 C 288.779 185.903,288.247 187.392,287.733 188.360 C 287.220 189.327,286.800 190.428,286.800 190.806 C 286.800 191.183,286.440 191.950,286.000 192.509 C 285.560 193.069,285.200 193.879,285.200 194.309 C 285.200 194.740,284.840 195.550,284.400 196.109 C 283.960 196.669,283.600 197.386,283.600 197.704 C 283.600 198.021,283.180 199.073,282.667 200.040 C 282.153 201.008,281.602 202.326,281.442 202.968 C 281.282 203.611,280.802 204.580,280.375 205.122 C 279.949 205.664,279.600 206.509,279.600 207.000 C 279.600 207.491,279.251 208.336,278.825 208.878 C 278.398 209.420,277.931 210.337,277.786 210.915 C 277.640 211.494,277.278 212.169,276.981 212.416 C 276.684 212.662,276.226 213.514,275.964 214.309 C 275.701 215.104,275.152 216.114,274.743 216.553 C 274.335 216.992,274.000 217.604,274.000 217.914 C 274.000 218.223,273.664 218.954,273.253 219.538 C 272.842 220.122,271.932 221.770,271.230 223.200 C 270.528 224.630,269.744 226.109,269.488 226.486 C 268.745 227.579,270.291 229.343,272.242 229.628 C 273.099 229.753,274.517 230.248,275.394 230.728 C 276.271 231.207,277.386 231.600,277.871 231.600 C 278.357 231.600,279.350 231.943,280.077 232.361 C 280.805 232.780,282.030 233.249,282.800 233.404 C 283.570 233.559,284.740 234.004,285.400 234.391 C 286.060 234.779,287.297 235.202,288.150 235.331 C 289.002 235.460,289.992 235.828,290.350 236.149 C 290.707 236.470,291.720 236.859,292.600 237.015 C 293.480 237.170,294.761 237.635,295.447 238.049 C 296.133 238.462,297.040 238.800,297.463 238.800 C 297.885 238.800,298.944 239.167,299.815 239.615 C 300.687 240.063,302.207 240.613,303.194 240.838 C 304.180 241.062,305.260 241.482,305.594 241.772 C 305.927 242.062,306.920 242.427,307.800 242.583 C 308.680 242.739,309.961 243.212,310.647 243.634 C 311.333 244.055,312.325 244.400,312.850 244.400 C 313.376 244.400,314.652 244.850,315.685 245.400 C 316.718 245.950,318.011 246.400,318.559 246.400 C 319.106 246.400,320.150 246.747,320.877 247.171 C 321.605 247.595,322.920 248.067,323.800 248.221 C 324.680 248.375,325.701 248.764,326.069 249.085 C 326.437 249.405,327.517 249.765,328.469 249.884 C 329.421 250.003,330.748 250.430,331.418 250.833 C 332.089 251.235,333.439 251.685,334.418 251.833 C 335.398 251.981,336.740 252.416,337.400 252.800 C 338.060 253.184,339.320 253.607,340.200 253.739 C 341.080 253.872,342.513 254.345,343.385 254.790 C 344.256 255.236,345.516 255.601,346.185 255.601 C 346.853 255.602,347.970 255.950,348.666 256.375 C 349.362 256.800,350.933 257.332,352.157 257.558 C 353.380 257.784,354.791 258.225,355.291 258.537 C 355.791 258.849,357.087 259.217,358.171 259.354 C 359.255 259.492,360.438 259.872,360.800 260.200 C 361.162 260.528,362.345 260.912,363.429 261.055 C 364.513 261.197,366.030 261.626,366.800 262.009 C 367.570 262.391,369.010 262.831,370.000 262.986 C 370.990 263.141,372.481 263.613,373.312 264.034 C 374.144 264.455,375.501 264.800,376.328 264.800 C 377.154 264.800,378.544 265.166,379.415 265.612 C 380.287 266.059,382.101 266.582,383.447 266.775 C 384.793 266.967,386.413 267.386,387.047 267.706 C 387.681 268.026,389.280 268.399,390.600 268.535 C 391.920 268.672,393.947 269.147,395.104 269.591 C 396.262 270.036,397.837 270.400,398.604 270.400 L 400.000 270.400 400.000 169.000 C 400.000 101.667,399.866 67.600,399.600 67.600 C 399.375 67.600,399.200 66.475,399.200 65.026 C 399.200 62.104,398.695 60.400,397.828 60.400 C 397.376 60.400,397.209 59.763,397.118 57.700 C 397.011 55.247,396.918 54.988,396.100 54.872 C 395.266 54.754,395.200 54.542,395.200 51.972 C 395.200 49.530,395.111 49.200,394.451 49.200 C 393.889 49.200,393.640 48.808,393.451 47.627 C 393.277 46.540,392.952 45.975,392.400 45.800 C 391.889 45.638,391.600 45.195,391.600 44.573 C 391.600 43.886,391.378 43.600,390.845 43.600 C 390.258 43.600,390.031 43.202,389.821 41.800 C 389.611 40.399,389.384 40.000,388.797 40.000 C 388.182 40.000,388.021 39.651,387.922 38.100 C 387.818 36.479,387.668 36.181,386.900 36.072 C 386.322 35.990,386.000 35.668,386.000 35.172 C 386.000 34.667,385.724 34.400,385.200 34.400 C 384.610 34.400,384.400 34.133,384.400 33.382 C 384.400 32.822,383.964 31.928,383.432 31.396 C 382.900 30.863,382.403 30.106,382.328 29.714 C 382.253 29.321,381.789 28.942,381.296 28.872 C 380.649 28.780,380.400 28.474,380.400 27.772 C 380.400 27.067,380.181 26.800,379.600 26.800 C 379.067 26.800,378.800 26.533,378.800 26.000 C 378.800 25.413,378.533 25.200,377.800 25.200 C 377.000 25.200,376.800 25.000,376.800 24.200 C 376.800 23.400,376.600 23.200,375.800 23.200 C 375.000 23.200,374.800 23.000,374.800 22.200 C 374.800 21.467,374.587 21.200,374.000 21.200 C 373.467 21.200,373.200 20.933,373.200 20.400 C 373.200 19.819,372.933 19.600,372.228 19.600 C 371.526 19.600,371.220 19.351,371.128 18.704 C 371.058 18.211,370.679 17.747,370.286 17.672 C 369.894 17.597,369.137 17.100,368.604 16.568 C 368.072 16.036,367.178 15.600,366.618 15.600 C 365.867 15.600,365.600 15.390,365.600 14.800 C 365.600 14.276,365.333 14.000,364.828 14.000 C 364.332 14.000,364.010 13.678,363.928 13.100 C 363.819 12.332,363.521 12.182,361.900 12.078 C 360.349 11.979,360.000 11.818,360.000 11.203 C 360.000 10.616,359.601 10.389,358.200 10.179 C 356.798 9.969,356.400 9.742,356.400 9.155 C 356.400 8.622,356.114 8.400,355.427 8.400 C 354.805 8.400,354.362 8.111,354.200 7.600 C 354.025 7.048,353.460 6.723,352.373 6.549 C 351.192 6.360,350.800 6.111,350.800 5.549 C 350.800 4.889,350.470 4.800,348.028 4.800 C 345.458 4.800,345.246 4.734,345.128 3.900 C 345.012 3.082,344.753 2.989,342.300 2.882 C 340.237 2.791,339.600 2.624,339.600 2.172 C 339.600 1.305,337.896 0.800,334.974 0.800 C 333.525 0.800,332.400 0.625,332.400 0.400 C 332.400 0.134,288.000 0.000,200.000 0.000 C 112.000 0.000,67.600 0.134,67.600 0.400 M103.000 217.042 C 102.120 217.131,99.960 217.396,98.200 217.630 C 96.440 217.864,93.290 218.206,91.200 218.389 C 88.815 218.598,86.730 219.031,85.600 219.552 C 84.610 220.009,83.118 220.386,82.284 220.391 C 81.450 220.396,80.092 220.745,79.265 221.167 C 78.439 221.588,77.051 222.064,76.181 222.225 C 75.312 222.385,74.171 222.850,73.646 223.258 C 73.121 223.666,72.336 224.000,71.901 224.000 C 71.465 224.000,70.454 224.352,69.654 224.783 C 68.855 225.214,67.570 225.841,66.800 226.175 C 66.030 226.510,65.040 227.010,64.600 227.287 C 64.160 227.564,62.810 228.417,61.600 229.182 C 58.714 231.006,52.706 236.940,50.996 239.654 C 50.252 240.834,49.378 242.071,49.054 242.403 C 48.729 242.735,48.336 243.545,48.179 244.203 C 48.023 244.861,47.581 245.760,47.197 246.200 C 46.813 246.640,46.375 247.691,46.225 248.535 C 46.074 249.379,45.573 250.794,45.112 251.680 C 43.831 254.137,43.839 268.555,45.123 271.229 C 45.591 272.203,46.161 273.744,46.390 274.653 C 46.619 275.563,47.074 276.530,47.403 276.802 C 47.731 277.075,48.000 277.581,48.000 277.927 C 48.000 278.504,48.446 279.273,51.014 283.122 C 52.944 286.016,60.924 293.624,63.159 294.702 C 63.732 294.978,65.010 295.739,66.000 296.394 C 66.990 297.048,68.250 297.771,68.800 297.999 C 69.350 298.227,70.430 298.748,71.200 299.155 C 71.970 299.563,73.140 300.024,73.800 300.180 C 74.460 300.335,75.301 300.734,75.669 301.065 C 76.037 301.397,77.117 301.768,78.069 301.890 C 79.021 302.012,80.430 302.425,81.200 302.808 C 81.970 303.192,83.770 303.637,85.200 303.797 C 86.630 303.957,88.430 304.360,89.200 304.691 C 92.405 306.072,118.995 306.243,122.600 304.907 C 123.480 304.581,125.672 304.076,127.470 303.786 C 129.269 303.495,131.159 302.996,131.670 302.677 C 132.182 302.357,133.487 301.983,134.571 301.846 C 135.655 301.708,136.832 301.333,137.187 301.012 C 137.542 300.690,138.759 300.229,139.890 299.986 C 141.022 299.743,142.163 299.286,142.426 298.969 C 142.689 298.652,143.592 298.283,144.434 298.148 C 145.275 298.014,146.269 297.565,146.644 297.152 C 147.018 296.738,147.711 296.400,148.184 296.400 C 148.657 296.400,149.655 295.950,150.400 295.400 C 151.145 294.850,152.053 294.400,152.416 294.400 C 152.779 294.400,153.393 294.050,153.779 293.623 C 154.166 293.195,154.986 292.735,155.600 292.600 C 156.214 292.465,157.034 292.005,157.421 291.577 C 157.807 291.150,158.302 290.800,158.521 290.800 C 158.895 290.800,160.209 289.947,165.603 286.200 C 166.870 285.320,169.154 283.744,170.678 282.697 C 172.203 281.650,174.159 280.141,175.025 279.342 C 175.891 278.544,178.670 276.142,181.200 274.005 C 185.280 270.558,193.498 262.264,197.256 257.800 C 199.260 255.419,200.045 254.515,201.706 252.671 C 205.412 248.557,206.104 246.714,204.128 246.218 C 203.535 246.069,202.560 245.599,201.963 245.173 C 201.365 244.748,200.521 244.400,200.087 244.400 C 199.653 244.400,199.082 244.139,198.817 243.820 C 198.552 243.502,197.675 243.026,196.868 242.762 C 196.061 242.499,194.997 241.970,194.503 241.587 C 194.010 241.204,192.993 240.775,192.244 240.635 C 191.494 240.494,190.664 240.118,190.400 239.800 C 190.136 239.482,189.314 239.108,188.574 238.969 C 187.834 238.830,187.021 238.466,186.768 238.161 C 186.514 237.856,185.569 237.407,184.667 237.164 C 183.766 236.922,182.618 236.401,182.118 236.007 C 181.617 235.613,180.593 235.175,179.844 235.035 C 179.094 234.894,178.264 234.518,178.000 234.200 C 177.736 233.882,176.866 233.499,176.068 233.349 C 175.270 233.199,174.073 232.745,173.408 232.340 C 172.744 231.935,171.912 231.602,171.560 231.601 C 171.207 231.601,170.073 231.150,169.038 230.600 C 168.004 230.050,166.873 229.600,166.526 229.600 C 166.179 229.600,165.333 229.255,164.647 228.834 C 163.961 228.412,162.680 227.942,161.800 227.789 C 160.920 227.636,159.800 227.260,159.311 226.953 C 158.823 226.647,157.473 226.197,156.311 225.953 C 155.150 225.709,153.917 225.261,153.571 224.957 C 153.225 224.653,152.055 224.288,150.971 224.145 C 149.887 224.003,148.368 223.570,147.596 223.184 C 146.824 222.798,145.114 222.354,143.796 222.198 C 142.478 222.043,140.962 221.639,140.427 221.301 C 139.892 220.962,137.994 220.538,136.209 220.357 C 134.425 220.176,132.262 219.735,131.404 219.376 C 130.440 218.973,127.692 218.576,124.221 218.337 C 121.130 218.124,117.880 217.776,117.000 217.563 C 115.253 217.141,105.567 216.781,103.000 217.042 " stroke="none" fill="#1474fc" fill-rule="evenodd"></path></g></svg>