<svg id="svg" version="1.1" xmlns="http://www.w3.org/2000/svg" xmlns:xlink="http://www.w3.org/1999/xlink" width="48" height="47" viewBox="0 0 400 400"><g id="svgg"><path id="path0" d="M13.200 0.771 C 13.200 1.579,11.456 3.200,10.586 3.200 C 10.308 3.200,8.889 4.280,7.432 5.600 C 5.706 7.164,4.442 8.000,3.801 8.000 C 2.892 8.000,2.823 8.135,2.895 9.774 C 2.979 11.723,2.050 13.200,0.738 13.200 C 0.022 13.200,0.000 18.702,0.000 200.157 L 0.000 387.113 0.997 387.363 C 1.678 387.534,2.319 388.257,3.022 389.643 C 4.293 392.151,8.499 396.362,10.744 397.375 C 11.818 397.859,12.501 398.464,12.652 399.065 L 12.887 400.000 200.016 400.000 L 387.144 400.000 387.272 399.108 C 387.363 398.477,388.045 397.902,389.600 397.147 C 392.311 395.830,396.014 392.090,397.273 389.400 C 397.930 387.996,398.476 387.362,399.104 387.272 L 400.000 387.144 400.000 200.016 L 400.000 12.887 399.079 12.656 C 398.445 12.496,397.801 11.676,397.006 10.012 C 396.372 8.686,395.734 7.600,395.589 7.600 C 395.443 7.600,394.291 6.696,393.029 5.591 C 391.766 4.486,390.031 3.224,389.173 2.786 C 388.199 2.290,387.519 1.616,387.363 0.995 L 387.113 0.000 200.157 0.000 C 15.813 0.000,13.200 0.011,13.200 0.771 M218.899 105.772 C 221.698 107.010,224.151 110.243,224.826 113.585 C 225.072 114.803,225.688 116.520,226.195 117.400 C 226.701 118.280,227.333 119.810,227.599 120.800 C 227.864 121.790,228.441 123.320,228.881 124.200 C 229.658 125.754,231.072 129.465,233.804 137.118 C 234.534 139.163,235.389 141.233,235.704 141.718 C 236.019 142.203,236.780 144.119,237.396 145.975 C 238.012 147.832,238.835 149.902,239.226 150.575 C 239.617 151.249,240.332 153.150,240.816 154.800 C 241.300 156.450,241.916 158.160,242.186 158.600 C 242.456 159.040,243.168 160.883,243.770 162.696 C 244.371 164.509,245.015 166.085,245.200 166.200 C 245.385 166.315,246.024 167.891,246.618 169.704 C 247.213 171.517,248.018 173.540,248.408 174.200 C 248.797 174.860,249.497 176.804,249.963 178.521 C 250.428 180.238,251.077 182.051,251.404 182.551 C 251.732 183.050,252.427 184.716,252.950 186.253 C 253.473 187.790,254.191 189.609,254.546 190.296 C 255.189 191.538,257.276 197.043,258.984 202.000 C 259.477 203.430,260.242 205.320,260.685 206.200 C 261.128 207.080,261.900 209.060,262.400 210.600 C 262.901 212.140,263.752 214.281,264.291 215.357 C 264.830 216.434,265.686 218.504,266.193 219.957 C 268.879 227.662,269.668 229.766,270.437 231.273 C 270.901 232.182,271.548 233.843,271.874 234.963 C 272.200 236.083,272.803 237.580,273.213 238.288 C 273.623 238.997,274.348 240.887,274.824 242.488 C 275.299 244.090,275.968 245.940,276.310 246.600 C 276.652 247.260,277.428 249.150,278.034 250.800 C 278.640 252.450,279.573 254.880,280.107 256.200 C 280.641 257.520,281.761 260.400,282.595 262.600 C 283.429 264.800,284.549 267.680,285.085 269.000 C 285.621 270.320,286.748 273.200,287.589 275.400 C 288.430 277.600,289.677 280.724,290.359 282.341 C 292.602 287.659,291.872 291.063,288.279 292.035 C 285.021 292.916,259.530 292.518,257.062 291.548 C 253.651 290.206,251.546 287.213,250.068 281.600 C 249.633 279.950,248.914 277.700,248.470 276.600 C 248.026 275.500,247.220 273.250,246.680 271.600 C 246.140 269.950,245.019 266.710,244.189 264.400 C 243.359 262.090,242.191 258.768,241.593 257.018 C 239.921 252.121,244.521 252.616,199.587 252.492 L 160.527 252.385 159.452 253.230 C 158.097 254.296,157.038 256.361,156.054 259.859 C 155.630 261.367,154.915 263.446,154.465 264.479 C 154.015 265.513,153.260 267.673,152.788 269.279 C 152.316 270.886,151.668 272.611,151.348 273.113 C 151.027 273.615,150.337 275.685,149.814 277.713 C 147.648 286.116,145.195 290.146,141.375 291.575 C 138.814 292.533,115.278 292.837,111.208 291.964 C 107.093 291.082,105.453 287.613,107.537 284.197 C 107.940 283.535,108.684 281.735,109.191 280.197 C 109.697 278.659,110.511 276.590,111.000 275.600 C 111.489 274.610,112.209 272.810,112.600 271.600 C 112.991 270.390,113.761 268.501,114.311 267.403 C 114.862 266.304,115.622 264.324,116.000 263.003 C 116.378 261.681,117.096 259.704,117.596 258.608 C 118.095 257.513,118.857 255.533,119.288 254.208 C 119.720 252.884,120.391 251.260,120.779 250.600 C 121.167 249.940,121.719 248.500,122.006 247.400 C 122.292 246.300,122.922 244.590,123.406 243.600 C 123.889 242.610,124.685 240.450,125.175 238.800 C 125.664 237.150,126.296 235.438,126.579 234.995 C 126.863 234.552,127.574 232.859,128.161 231.234 C 128.747 229.608,129.493 227.811,129.819 227.239 C 130.145 226.668,130.933 224.670,131.571 222.800 C 133.623 216.783,135.474 211.905,137.416 207.400 C 138.459 204.980,139.984 201.110,140.805 198.800 C 141.626 196.490,142.681 193.655,143.149 192.500 C 143.617 191.345,144.383 189.455,144.851 188.300 C 145.319 187.145,146.215 184.805,146.841 183.100 C 147.467 181.395,148.274 179.431,148.633 178.737 C 148.992 178.042,149.638 176.197,150.068 174.637 C 150.498 173.076,151.081 171.440,151.363 171.000 C 151.646 170.560,152.289 168.940,152.794 167.400 C 153.298 165.860,154.162 163.700,154.713 162.600 C 155.264 161.500,156.130 159.430,156.638 158.000 C 158.841 151.791,163.158 140.527,164.302 138.000 C 164.751 137.010,165.664 134.670,166.332 132.800 C 167.001 130.930,168.290 127.510,169.197 125.200 C 170.105 122.890,171.364 119.560,171.996 117.800 C 176.803 104.416,175.748 104.907,199.850 104.844 L 216.700 104.800 218.899 105.772 M197.476 150.100 C 197.138 150.815,196.729 151.940,196.568 152.600 C 196.406 153.260,195.919 154.610,195.485 155.600 C 194.556 157.719,192.419 163.603,190.831 168.413 C 190.212 170.291,189.347 172.541,188.909 173.413 C 188.472 174.286,187.711 176.345,187.218 177.990 C 186.725 179.634,185.918 181.794,185.425 182.790 C 184.931 183.785,184.290 185.500,184.000 186.600 C 183.711 187.700,183.118 189.315,182.683 190.190 C 182.248 191.064,181.576 192.864,181.189 194.190 C 180.803 195.515,180.090 197.500,179.606 198.600 C 178.686 200.690,177.205 204.778,175.406 210.200 C 174.821 211.960,173.909 214.300,173.378 215.400 C 171.983 218.290,171.773 220.031,172.684 221.157 L 173.428 222.074 199.101 222.048 C 228.040 222.019,226.616 222.168,226.226 219.200 C 225.940 217.028,224.812 213.389,223.498 210.400 C 222.966 209.190,222.293 207.300,222.003 206.200 C 221.712 205.100,221.122 203.491,220.691 202.625 C 220.260 201.759,219.370 199.509,218.713 197.625 C 216.676 191.785,214.562 185.985,212.800 181.400 C 211.870 178.980,210.442 175.110,209.626 172.800 C 208.810 170.490,207.946 168.236,207.706 167.791 C 207.465 167.346,206.971 165.830,206.606 164.423 C 206.241 163.015,205.441 160.860,204.827 159.632 C 204.213 158.404,203.481 156.410,203.201 155.200 C 201.973 149.888,198.880 147.133,197.476 150.100 " stroke="none" fill="#4c83d4" fill-rule="evenodd"></path><path id="path1" d="M3.684 0.615 C 3.401 0.937,2.833 1.200,2.423 1.200 C 1.503 1.200,0.800 3.044,0.800 5.460 C 0.800 6.417,0.620 7.200,0.400 7.200 C 0.169 7.200,0.000 8.467,0.000 10.200 C 0.000 12.849,0.086 13.200,0.738 13.200 C 2.050 13.200,2.979 11.723,2.895 9.774 C 2.823 8.135,2.892 8.000,3.801 8.000 C 4.442 8.000,5.706 7.164,7.432 5.600 C 8.889 4.280,10.308 3.200,10.586 3.200 C 11.456 3.200,13.200 1.579,13.200 0.771 C 13.200 -0.252,4.573 -0.393,3.684 0.615 M387.200 0.367 C 387.200 1.341,387.833 2.102,389.239 2.820 C 390.087 3.252,391.674 4.400,392.766 5.370 C 393.858 6.339,395.009 7.283,395.325 7.466 C 395.640 7.650,396.395 8.790,397.002 10.000 C 399.199 14.382,400.000 13.954,400.000 8.400 C 400.000 5.980,399.857 4.000,399.683 4.000 C 399.508 4.000,399.193 3.419,398.983 2.709 C 398.694 1.737,398.280 1.328,397.300 1.052 C 396.585 0.850,396.000 0.530,396.000 0.342 C 396.000 0.154,394.020 0.000,391.600 0.000 C 389.180 0.000,387.200 0.165,387.200 0.367 M181.288 105.225 C 177.116 106.047,175.368 108.413,171.996 117.800 C 171.364 119.560,170.105 122.890,169.197 125.200 C 168.290 127.510,167.001 130.930,166.332 132.800 C 165.664 134.670,164.751 137.010,164.302 138.000 C 163.158 140.527,158.841 151.791,156.638 158.000 C 156.130 159.430,155.264 161.500,154.713 162.600 C 154.162 163.700,153.298 165.860,152.794 167.400 C 152.289 168.940,151.646 170.560,151.363 171.000 C 151.081 171.440,150.498 173.076,150.068 174.637 C 149.638 176.197,148.992 178.042,148.633 178.737 C 148.274 179.431,147.467 181.395,146.841 183.100 C 146.215 184.805,145.319 187.145,144.851 188.300 C 144.383 189.455,143.617 191.345,143.149 192.500 C 142.681 193.655,141.626 196.490,140.805 198.800 C 139.984 201.110,138.459 204.980,137.416 207.400 C 135.474 211.905,133.623 216.783,131.571 222.800 C 130.933 224.670,130.145 226.668,129.819 227.239 C 129.493 227.811,128.747 229.608,128.161 231.234 C 127.574 232.859,126.863 234.552,126.579 234.995 C 126.296 235.438,125.664 237.150,125.175 238.800 C 124.685 240.450,123.889 242.610,123.406 243.600 C 122.922 244.590,122.292 246.300,122.006 247.400 C 121.719 248.500,121.167 249.940,120.779 250.600 C 120.391 251.260,119.720 252.884,119.288 254.208 C 118.857 255.533,118.095 257.513,117.596 258.608 C 117.096 259.704,116.378 261.681,116.000 263.003 C 115.622 264.324,114.862 266.304,114.311 267.403 C 113.761 268.501,112.991 270.390,112.600 271.600 C 112.209 272.810,111.489 274.610,111.000 275.600 C 110.511 276.590,109.697 278.659,109.191 280.197 C 108.684 281.735,107.940 283.535,107.537 284.197 C 105.453 287.613,107.093 291.082,111.208 291.964 C 115.278 292.837,138.814 292.533,141.375 291.575 C 145.195 290.146,147.648 286.116,149.814 277.713 C 150.337 275.685,151.027 273.615,151.348 273.113 C 151.668 272.611,152.316 270.886,152.788 269.279 C 153.260 267.673,154.015 265.513,154.465 264.479 C 154.915 263.446,155.630 261.367,156.054 259.859 C 157.038 256.361,158.097 254.296,159.452 253.230 L 160.527 252.385 199.587 252.492 C 244.521 252.616,239.921 252.121,241.593 257.018 C 242.191 258.768,243.359 262.090,244.189 264.400 C 245.019 266.710,246.140 269.950,246.680 271.600 C 247.220 273.250,248.026 275.500,248.470 276.600 C 248.914 277.700,249.633 279.950,250.068 281.600 C 251.546 287.213,253.651 290.206,257.062 291.548 C 259.530 292.518,285.021 292.916,288.279 292.035 C 291.872 291.063,292.602 287.659,290.359 282.341 C 289.677 280.724,288.430 277.600,287.589 275.400 C 286.748 273.200,285.621 270.320,285.085 269.000 C 284.549 267.680,283.429 264.800,282.595 262.600 C 281.761 260.400,280.641 257.520,280.107 256.200 C 279.573 254.880,278.640 252.450,278.034 250.800 C 277.428 249.150,276.652 247.260,276.310 246.600 C 275.968 245.940,275.299 244.090,274.824 242.488 C 274.348 240.887,273.623 238.997,273.213 238.288 C 272.803 237.580,272.200 236.083,271.874 234.963 C 271.548 233.843,270.901 232.182,270.437 231.273 C 269.668 229.766,268.879 227.662,266.193 219.957 C 265.686 218.504,264.830 216.434,264.291 215.357 C 263.752 214.281,262.901 212.140,262.400 210.600 C 261.900 209.060,261.128 207.080,260.685 206.200 C 260.242 205.320,259.477 203.430,258.984 202.000 C 257.276 197.043,255.189 191.538,254.546 190.296 C 254.191 189.609,253.473 187.790,252.950 186.253 C 252.427 184.716,251.732 183.050,251.404 182.551 C 251.077 182.051,250.428 180.238,249.963 178.521 C 249.497 176.804,248.797 174.860,248.408 174.200 C 248.018 173.540,247.213 171.517,246.618 169.704 C 246.024 167.891,245.385 166.315,245.200 166.200 C 245.015 166.085,244.371 164.509,243.770 162.696 C 243.168 160.883,242.456 159.040,242.186 158.600 C 241.916 158.160,241.300 156.450,240.816 154.800 C 240.332 153.150,239.617 151.249,239.226 150.575 C 238.835 149.902,238.012 147.832,237.396 145.975 C 236.780 144.119,236.019 142.203,235.704 141.718 C 235.389 141.233,234.534 139.163,233.804 137.118 C 231.072 129.465,229.658 125.754,228.881 124.200 C 228.441 123.320,227.864 121.790,227.599 120.800 C 227.333 119.810,226.701 118.280,226.195 117.400 C 225.688 116.520,225.072 114.803,224.826 113.585 C 224.151 110.243,221.698 107.010,218.899 105.772 L 216.700 104.800 199.850 104.844 C 190.583 104.868,182.230 105.039,181.288 105.225 M200.452 149.714 C 201.768 150.822,202.549 152.380,203.201 155.200 C 203.481 156.410,204.213 158.404,204.827 159.632 C 205.441 160.860,206.241 163.015,206.606 164.423 C 206.971 165.830,207.465 167.346,207.706 167.791 C 207.946 168.236,208.810 170.490,209.626 172.800 C 210.442 175.110,211.870 178.980,212.800 181.400 C 214.562 185.985,216.676 191.785,218.713 197.625 C 219.370 199.509,220.260 201.759,220.691 202.625 C 221.122 203.491,221.712 205.100,222.003 206.200 C 222.293 207.300,222.966 209.190,223.498 210.400 C 224.812 213.389,225.940 217.028,226.226 219.200 C 226.616 222.168,228.040 222.019,199.101 222.048 L 173.428 222.074 172.684 221.157 C 171.773 220.031,171.983 218.290,173.378 215.400 C 173.909 214.300,174.821 211.960,175.406 210.200 C 177.205 204.778,178.686 200.690,179.606 198.600 C 180.090 197.500,180.803 195.515,181.189 194.190 C 181.576 192.864,182.248 191.064,182.683 190.190 C 183.118 189.315,183.711 187.700,184.000 186.600 C 184.290 185.500,184.931 183.785,185.425 182.790 C 185.918 181.794,186.725 179.634,187.218 177.990 C 187.711 176.345,188.472 174.286,188.909 173.413 C 189.347 172.541,190.212 170.291,190.831 168.413 C 192.419 163.603,194.556 157.719,195.485 155.600 C 195.919 154.610,196.406 153.260,196.568 152.600 C 197.463 148.946,198.566 148.127,200.452 149.714 M0.000 391.600 C 0.000 394.020,0.154 396.000,0.342 396.000 C 0.530 396.000,0.850 396.585,1.052 397.300 C 1.328 398.280,1.737 398.694,2.709 398.983 C 3.419 399.193,4.000 399.508,4.000 399.683 C 4.000 399.857,5.980 400.000,8.400 400.000 C 13.742 400.000,14.348 399.196,10.483 397.237 C 8.179 396.069,4.259 392.085,3.032 389.664 C 2.129 387.881,1.392 387.200,0.367 387.200 C 0.165 387.200,0.000 389.180,0.000 391.600 M398.125 387.700 C 397.920 387.975,397.431 388.942,397.038 389.849 C 396.094 392.030,391.905 396.102,389.400 397.273 C 387.996 397.930,387.362 398.476,387.272 399.104 L 387.144 400.000 393.572 400.000 L 400.000 400.000 400.000 393.600 C 400.000 387.013,399.593 385.732,398.125 387.700 " stroke="none" fill="#d6e3f3" fill-rule="evenodd"></path></g></svg>