<svg xmlns="http://www.w3.org/2000/svg" version="1.1" viewBox="0.00 0.00 48.00 48.00" width="48.00" height="48.00">
<g stroke-width="2.00" fill="none" stroke-linecap="butt">
<path stroke="#7fc1fe" d="&#10;  M 22.90 30.86&#10;  A 1.00 0.97 87.8 0 1 21.64 29.66&#10;  Q 23.48 22.64 25.21 16.23&#10;  Q 25.36 15.68 24.79 15.69&#10;  L 22.50 15.73&#10;  A 0.64 0.63 -83.4 0 0 21.90 16.21&#10;  Q 20.30 22.28 18.68 28.21&#10;  C 17.77 31.56 20.62 34.19 23.42 31.59&#10;  A 0.44 0.44 0.0 0 0 23.18 30.83&#10;  Q 23.03 30.81 22.90 30.86"/>
<path stroke="#7fc1fe" d="&#10;  M 15.81 30.28&#10;  C 15.25 27.39 17.35 23.58 19.29 21.85&#10;  Q 20.07 21.15 19.03 21.25&#10;  C 11.96 21.92 9.71 34.54 16.82 32.22&#10;  Q 17.50 32.00 17.66 31.34&#10;  Q 17.83 30.68 17.17 30.87&#10;  Q 16.77 30.99 16.37 30.88&#10;  A 0.77 0.76 -88.2 0 1 15.81 30.28"/>
<path stroke="#7fc1fe" d="&#10;  M 33.45 29.85&#10;  Q 34.28 25.98 35.48 21.81&#10;  A 0.25 0.25 0.0 0 0 35.25 21.50&#10;  L 32.64 21.41&#10;  Q 32.26 21.40 32.16 21.77&#10;  Q 31.29 24.90 30.28 28.64&#10;  C 29.31 32.29 33.88 34.20 35.44 31.11&#10;  Q 35.72 30.58 35.16 30.80&#10;  Q 34.73 30.97 34.28 30.95&#10;  Q 33.22 30.90 33.45 29.85"/>
<path stroke="#7fc1fe" d="&#10;  M 27.46 29.66&#10;  L 29.64 21.63&#10;  A 0.14 0.14 0.0 0 0 29.50 21.45&#10;  L 26.72 21.50&#10;  Q 26.41 21.50 26.32 21.80&#10;  Q 25.37 25.10 24.41 28.79&#10;  C 23.79 31.19 25.69 33.16 28.17 32.40&#10;  Q 28.90 32.18 29.22 31.58&#10;  Q 29.57 30.91 28.82 30.97&#10;  Q 28.20 31.03 27.73 30.60&#10;  A 0.95 0.94 29.1 0 1 27.46 29.66"/>
</g>
<path fill="#0084ff" d="&#10;  M 41.65 19.90&#10;  C 44.78 29.82 44.74 39.19 33.05 42.05&#10;  Q 28.71 43.11 23.57 42.98&#10;  C 19.86 42.88 17.81 39.91 15.43 37.55&#10;  Q 13.09 35.23 8.45 34.95&#10;  Q 6.82 34.85 5.30 33.53&#10;  Q 5.00 33.26 4.93 32.86&#10;  C 4.17 28.44 5.12 24.06 6.43 19.83&#10;  Q 6.63 19.20 6.07 18.85&#10;  C 1.16 15.73 1.10 8.48 6.60 5.96&#10;  Q 11.69 3.62 16.00 7.42&#10;  Q 16.40 7.78 16.91 7.60&#10;  Q 24.20 5.12 31.29 7.61&#10;  Q 31.74 7.77 32.09 7.45&#10;  C 40.61 -0.12 51.63 12.16 42.04 18.77&#10;  Q 41.43 19.20 41.65 19.90&#10;  Z&#10;  M 22.90 30.86&#10;  A 1.00 0.97 87.8 0 1 21.64 29.66&#10;  Q 23.48 22.64 25.21 16.23&#10;  Q 25.36 15.68 24.79 15.69&#10;  L 22.50 15.73&#10;  A 0.64 0.63 -83.4 0 0 21.90 16.21&#10;  Q 20.30 22.28 18.68 28.21&#10;  C 17.77 31.56 20.62 34.19 23.42 31.59&#10;  A 0.44 0.44 0.0 0 0 23.18 30.83&#10;  Q 23.03 30.81 22.90 30.86&#10;  Z&#10;  M 15.81 30.28&#10;  C 15.25 27.39 17.35 23.58 19.29 21.85&#10;  Q 20.07 21.15 19.03 21.25&#10;  C 11.96 21.92 9.71 34.54 16.82 32.22&#10;  Q 17.50 32.00 17.66 31.34&#10;  Q 17.83 30.68 17.17 30.87&#10;  Q 16.77 30.99 16.37 30.88&#10;  A 0.77 0.76 -88.2 0 1 15.81 30.28&#10;  Z&#10;  M 33.45 29.85&#10;  Q 34.28 25.98 35.48 21.81&#10;  A 0.25 0.25 0.0 0 0 35.25 21.50&#10;  L 32.64 21.41&#10;  Q 32.26 21.40 32.16 21.77&#10;  Q 31.29 24.90 30.28 28.64&#10;  C 29.31 32.29 33.88 34.20 35.44 31.11&#10;  Q 35.72 30.58 35.16 30.80&#10;  Q 34.73 30.97 34.28 30.95&#10;  Q 33.22 30.90 33.45 29.85&#10;  Z&#10;  M 27.46 29.66&#10;  L 29.64 21.63&#10;  A 0.14 0.14 0.0 0 0 29.50 21.45&#10;  L 26.72 21.50&#10;  Q 26.41 21.50 26.32 21.80&#10;  Q 25.37 25.10 24.41 28.79&#10;  C 23.79 31.19 25.69 33.16 28.17 32.40&#10;  Q 28.90 32.18 29.22 31.58&#10;  Q 29.57 30.91 28.82 30.97&#10;  Q 28.20 31.03 27.73 30.60&#10;  A 0.95 0.94 29.1 0 1 27.46 29.66&#10;  Z"/>
<path fill="#fdfdfd" d="&#10;  M 22.90 30.86&#10;  Q 23.03 30.81 23.18 30.83&#10;  A 0.44 0.44 0.0 0 1 23.42 31.59&#10;  C 20.62 34.19 17.77 31.56 18.68 28.21&#10;  Q 20.30 22.28 21.90 16.21&#10;  A 0.64 0.63 -83.4 0 1 22.50 15.73&#10;  L 24.79 15.69&#10;  Q 25.36 15.68 25.21 16.23&#10;  Q 23.48 22.64 21.64 29.66&#10;  A 1.00 0.97 87.8 0 0 22.90 30.86&#10;  Z"/>
<path fill="#fdfdfd" d="&#10;  M 16.37 30.88&#10;  Q 16.77 30.99 17.17 30.87&#10;  Q 17.83 30.68 17.66 31.34&#10;  Q 17.50 32.00 16.82 32.22&#10;  C 9.71 34.54 11.96 21.92 19.03 21.25&#10;  Q 20.07 21.15 19.29 21.85&#10;  C 17.35 23.58 15.25 27.39 15.81 30.28&#10;  A 0.77 0.76 -88.2 0 0 16.37 30.88&#10;  Z"/>
<path fill="#fdfdfd" d="&#10;  M 34.28 30.95&#10;  Q 34.73 30.97 35.16 30.80&#10;  Q 35.72 30.58 35.44 31.11&#10;  C 33.88 34.20 29.31 32.29 30.28 28.64&#10;  Q 31.29 24.90 32.16 21.77&#10;  Q 32.26 21.40 32.64 21.41&#10;  L 35.25 21.50&#10;  A 0.25 0.25 0.0 0 1 35.48 21.81&#10;  Q 34.28 25.98 33.45 29.85&#10;  Q 33.22 30.90 34.28 30.95&#10;  Z"/>
<path fill="#fdfdfd" d="&#10;  M 27.73 30.60&#10;  Q 28.20 31.03 28.82 30.97&#10;  Q 29.57 30.91 29.22 31.58&#10;  Q 28.90 32.18 28.17 32.40&#10;  C 25.69 33.16 23.79 31.19 24.41 28.79&#10;  Q 25.37 25.10 26.32 21.80&#10;  Q 26.41 21.50 26.72 21.50&#10;  L 29.50 21.45&#10;  A 0.14 0.14 0.0 0 1 29.64 21.63&#10;  L 27.46 29.66&#10;  A 0.95 0.94 29.1 0 0 27.73 30.60&#10;  Z"/>
<path fill="#f24e4f" d="&#10;  M 16.63 42.40&#10;  C 12.62 41.61 9.05 40.37 6.52 36.86&#10;  Q 6.03 36.18 6.83 36.41&#10;  C 8.95 37.00 10.97 36.46 12.82 38.00&#10;  Q 14.95 39.76 16.88 41.96&#10;  Q 17.39 42.55 16.63 42.40&#10;  Z"/>
</svg>