<svg id="svg" version="1.1" xmlns="http://www.w3.org/2000/svg" xmlns:xlink="http://www.w3.org/1999/xlink" width="48" height="48" viewBox="0 0 400 400"><g id="svgg"><path id="path0" d="M194.400 67.450 C 193.410 67.542,190.980 67.800,189.000 68.024 C 187.020 68.248,183.601 68.612,181.402 68.832 C 179.204 69.052,176.054 69.566,174.402 69.974 C 172.751 70.381,170.616 70.829,169.658 70.969 C 168.700 71.109,167.440 71.467,166.858 71.765 C 166.276 72.062,164.810 72.439,163.600 72.601 C 162.390 72.763,160.732 73.234,159.916 73.648 C 159.100 74.061,158.110 74.402,157.716 74.404 C 157.322 74.406,156.100 74.850,155.000 75.391 C 153.900 75.932,152.707 76.381,152.348 76.387 C 151.112 76.411,136.506 83.452,133.200 85.618 C 132.210 86.267,130.860 87.066,130.200 87.395 C 117.874 93.529,93.529 117.874,87.395 130.200 C 87.066 130.860,86.267 132.210,85.618 133.200 C 83.452 136.506,76.411 151.112,76.387 152.348 C 76.381 152.707,75.932 153.900,75.391 155.000 C 74.850 156.100,74.406 157.322,74.404 157.716 C 74.402 158.110,74.061 159.100,73.648 159.916 C 73.234 160.732,72.763 162.390,72.601 163.600 C 72.439 164.810,72.062 166.276,71.765 166.858 C 71.467 167.440,71.109 168.700,70.969 169.658 C 70.829 170.616,70.382 172.750,69.975 174.400 C 69.568 176.050,69.046 179.290,68.815 181.600 C 68.584 183.910,68.230 187.060,68.027 188.600 C 66.847 197.595,67.159 206.294,69.204 221.400 C 69.654 224.728,71.124 231.593,71.645 232.800 C 71.882 233.350,72.322 234.970,72.622 236.400 C 73.234 239.312,74.791 243.979,75.758 245.800 C 76.108 246.460,76.396 247.293,76.398 247.652 C 76.400 248.387,77.638 251.289,80.234 256.644 C 81.205 258.649,82.000 260.407,82.000 260.551 C 82.000 260.694,82.585 261.806,83.300 263.021 C 84.015 264.235,84.960 265.845,85.400 266.596 C 89.102 272.923,94.376 280.525,98.028 284.800 C 100.502 287.696,106.092 293.642,108.167 295.584 C 109.468 296.803,111.009 298.250,111.591 298.800 C 115.909 302.881,126.159 310.520,130.600 312.968 C 131.260 313.331,132.610 314.149,133.600 314.784 C 135.383 315.928,141.975 319.273,146.600 321.380 C 147.920 321.982,149.450 322.706,150.000 322.991 C 150.550 323.275,151.630 323.640,152.400 323.803 C 153.170 323.965,154.468 324.436,155.284 324.849 C 156.100 325.262,157.055 325.600,157.406 325.600 C 157.757 325.600,158.799 325.944,159.722 326.364 C 160.645 326.784,162.120 327.246,163.000 327.391 C 163.880 327.535,165.770 327.990,167.200 328.402 C 172.003 329.784,177.311 330.871,180.969 331.222 C 182.966 331.414,186.040 331.795,187.800 332.070 C 192.681 332.833,209.246 332.707,214.000 331.871 C 216.090 331.504,218.706 331.202,219.813 331.202 C 220.920 331.201,222.810 330.918,224.013 330.573 C 225.216 330.228,227.550 329.701,229.200 329.401 C 230.850 329.102,232.920 328.600,233.800 328.287 C 234.680 327.973,236.114 327.585,236.986 327.424 C 237.859 327.263,239.076 326.871,239.692 326.553 C 240.307 326.234,241.573 325.818,242.505 325.628 C 244.335 325.255,247.708 323.977,250.079 322.760 C 250.893 322.342,251.793 321.999,252.079 321.998 C 252.869 321.994,266.745 314.930,268.800 313.485 C 269.350 313.098,271.827 311.440,274.304 309.799 C 280.497 305.699,284.000 302.833,284.000 301.869 C 284.000 301.078,282.306 298.764,279.555 295.800 C 278.739 294.920,274.802 290.240,270.806 285.400 C 266.811 280.560,262.677 275.610,261.620 274.400 C 260.563 273.190,258.122 270.311,256.197 268.001 C 251.318 262.149,251.345 262.161,248.350 264.559 C 245.757 266.636,241.645 269.263,238.600 270.788 C 237.720 271.229,236.730 271.754,236.400 271.955 C 235.109 272.739,231.502 274.401,231.063 274.413 C 230.808 274.419,229.700 274.868,228.600 275.409 C 227.500 275.950,226.240 276.395,225.800 276.399 C 225.360 276.402,224.460 276.689,223.800 277.035 C 223.140 277.382,221.211 277.911,219.513 278.212 C 217.815 278.512,216.034 278.968,215.555 279.224 C 212.833 280.681,188.291 280.571,184.192 279.084 C 183.307 278.763,181.616 278.367,180.434 278.205 C 179.252 278.042,177.545 277.573,176.642 277.163 C 175.739 276.753,174.640 276.408,174.200 276.396 C 173.760 276.385,172.500 275.932,171.400 275.391 C 170.300 274.850,169.205 274.406,168.967 274.404 C 168.475 274.399,160.819 270.580,159.000 269.430 C 155.753 267.379,154.513 266.555,153.550 265.811 C 152.973 265.365,151.992 264.640,151.370 264.200 C 146.664 260.870,139.342 253.547,135.770 248.600 C 135.453 248.160,134.778 247.260,134.270 246.600 C 132.444 244.225,127.902 236.406,127.406 234.783 C 127.241 234.243,126.884 233.530,126.613 233.200 C 126.343 232.870,125.841 231.790,125.498 230.800 C 124.193 227.031,123.447 224.940,122.786 223.200 C 122.410 222.210,121.991 220.527,121.853 219.459 C 121.716 218.392,121.324 216.693,120.981 215.684 C 119.319 210.787,119.421 189.400,121.135 183.600 C 121.558 182.170,122.089 180.100,122.316 179.000 C 122.948 175.937,124.510 171.513,126.413 167.400 C 126.820 166.520,127.440 165.170,127.791 164.400 C 128.584 162.659,130.161 159.785,131.194 158.200 C 131.624 157.540,132.279 156.460,132.649 155.800 C 136.118 149.615,149.626 136.108,155.800 132.650 C 156.460 132.280,157.630 131.592,158.400 131.122 C 161.240 129.385,163.035 128.384,164.400 127.777 C 165.170 127.434,166.520 126.820,167.400 126.413 C 171.513 124.510,175.937 122.948,179.000 122.316 C 180.100 122.089,182.170 121.557,183.600 121.134 C 189.438 119.407,211.582 119.307,215.891 120.988 C 216.721 121.312,218.510 121.750,219.866 121.961 C 221.223 122.172,222.843 122.603,223.466 122.919 C 224.090 123.235,225.320 123.622,226.200 123.780 C 227.080 123.938,228.361 124.412,229.047 124.834 C 229.733 125.255,230.519 125.600,230.793 125.600 C 232.556 125.600,243.051 131.666,249.878 136.630 C 251.259 137.634,252.061 137.075,255.821 132.488 C 257.754 130.130,259.539 128.020,259.787 127.800 C 260.145 127.483,266.093 120.404,273.017 112.055 C 273.447 111.536,273.981 110.906,274.202 110.655 C 274.423 110.405,275.413 109.215,276.402 108.011 C 277.391 106.808,278.475 105.543,278.810 105.201 C 280.742 103.234,284.000 98.798,284.000 98.136 C 284.000 96.661,271.988 88.156,263.600 83.690 C 257.727 80.564,252.367 78.000,251.704 78.000 C 251.437 78.000,250.630 77.641,249.910 77.201 C 249.189 76.762,248.327 76.402,247.994 76.401 C 247.661 76.401,246.701 76.032,245.862 75.582 C 245.022 75.132,243.585 74.600,242.668 74.401 C 241.750 74.201,239.920 73.688,238.600 73.260 C 233.757 71.691,230.551 70.850,228.523 70.617 C 227.381 70.486,225.826 70.119,225.067 69.802 C 224.309 69.485,222.183 69.118,220.344 68.986 C 218.505 68.853,215.290 68.492,213.200 68.183 C 209.302 67.606,197.617 67.150,194.400 67.450 M299.544 114.500 C 299.209 114.775,297.513 116.710,295.775 118.800 C 294.037 120.890,292.422 122.780,292.187 123.000 C 291.952 123.220,291.059 124.300,290.204 125.400 C 289.349 126.500,288.350 127.697,287.984 128.060 C 283.626 132.384,283.589 132.994,287.387 137.870 C 288.274 139.009,289.450 140.702,290.000 141.633 C 290.550 142.564,291.435 143.972,291.967 144.763 C 293.435 146.943,298.800 157.640,298.800 158.385 C 298.800 158.745,298.987 159.227,299.216 159.456 C 299.712 159.952,301.445 164.584,302.189 167.400 C 302.480 168.500,302.983 170.030,303.307 170.800 C 303.631 171.570,304.020 173.175,304.171 174.367 C 304.322 175.559,304.710 177.169,305.034 177.944 C 305.358 178.719,305.722 180.714,305.843 182.377 C 305.964 184.039,306.354 186.840,306.711 188.600 C 307.631 193.140,307.608 206.902,306.673 211.544 C 306.303 213.383,306.000 215.729,306.000 216.757 C 306.000 217.785,305.717 219.610,305.372 220.813 C 305.026 222.016,304.519 224.260,304.243 225.800 C 303.968 227.340,303.507 229.038,303.218 229.573 C 302.930 230.108,302.459 231.458,302.172 232.573 C 301.505 235.164,300.165 238.943,299.174 241.026 C 298.748 241.921,298.400 242.934,298.400 243.277 C 298.400 243.621,298.139 244.118,297.820 244.383 C 297.502 244.648,297.028 245.525,296.768 246.332 C 296.508 247.139,296.155 247.980,295.982 248.200 C 295.810 248.420,294.912 250.040,293.987 251.800 C 293.062 253.560,292.082 255.270,291.808 255.600 C 291.535 255.930,290.803 257.100,290.181 258.200 C 289.560 259.300,288.410 261.010,287.626 262.000 C 283.256 267.518,282.596 265.656,293.550 278.731 C 298.644 284.813,299.885 286.087,300.556 285.928 C 301.392 285.729,306.388 279.453,309.746 274.384 C 311.416 271.863,313.069 269.390,313.419 268.888 C 314.578 267.227,319.524 257.678,321.147 253.966 C 321.668 252.775,322.417 251.080,322.810 250.200 C 323.464 248.736,324.315 246.411,326.176 241.000 C 326.554 239.900,327.186 237.740,327.580 236.200 C 327.973 234.660,328.475 232.950,328.694 232.400 C 328.913 231.850,329.222 230.352,329.379 229.071 C 329.536 227.791,329.931 226.105,330.257 225.325 C 330.583 224.546,331.017 221.814,331.223 219.254 C 331.428 216.694,331.815 213.610,332.083 212.400 C 332.740 209.428,332.731 191.047,332.071 187.800 C 331.802 186.480,331.408 183.283,331.195 180.696 C 330.982 178.108,330.552 175.381,330.241 174.635 C 329.929 173.889,329.472 171.980,329.226 170.393 C 328.980 168.806,328.597 167.168,328.376 166.755 C 328.154 166.341,327.790 165.011,327.566 163.799 C 327.342 162.586,326.812 160.831,326.388 159.897 C 325.964 158.964,325.614 157.837,325.609 157.394 C 325.604 156.951,325.268 155.961,324.861 155.194 C 324.455 154.427,323.998 153.260,323.845 152.600 C 323.692 151.940,323.214 150.635,322.783 149.700 C 322.352 148.765,321.659 147.235,321.241 146.300 C 319.894 143.280,317.580 138.652,316.393 136.600 C 315.756 135.500,315.035 134.150,314.790 133.600 C 314.267 132.426,306.881 121.299,306.002 120.362 C 305.302 119.616,304.779 118.956,302.618 116.095 C 300.958 113.897,300.541 113.681,299.544 114.500 " stroke="none" fill="#2d99ee" fill-rule="evenodd"></path><path id="path1" d="M64.780 0.360 C 63.323 0.493,61.683 0.914,61.083 1.307 C 60.491 1.696,59.150 2.119,58.103 2.248 C 57.056 2.376,55.750 2.795,55.200 3.178 C 54.650 3.561,53.334 3.972,52.275 4.091 C 51.100 4.223,49.999 4.637,49.449 5.154 C 48.954 5.619,48.273 6.000,47.936 6.000 C 47.599 6.000,46.998 6.360,46.600 6.800 C 46.202 7.240,45.558 7.600,45.169 7.600 C 44.780 7.600,43.927 8.050,43.273 8.600 C 42.619 9.150,41.805 9.600,41.463 9.600 C 41.121 9.600,40.356 10.050,39.762 10.600 C 39.169 11.150,38.301 11.600,37.835 11.600 C 37.368 11.600,36.159 12.393,35.148 13.361 C 34.137 14.330,32.745 15.415,32.055 15.772 C 31.365 16.129,30.800 16.568,30.800 16.749 C 30.800 16.930,30.449 17.240,30.021 17.439 C 27.702 18.514,17.644 28.609,17.271 30.237 C 17.200 30.547,16.979 30.800,16.781 30.800 C 16.583 30.800,16.121 31.385,15.756 32.100 C 15.390 32.815,14.305 34.147,13.345 35.060 C 12.385 35.974,11.600 37.085,11.600 37.530 C 11.600 37.975,11.150 38.873,10.600 39.527 C 10.050 40.181,9.600 40.924,9.600 41.179 C 9.600 41.434,9.150 42.305,8.600 43.114 C 8.050 43.923,7.600 44.741,7.600 44.930 C 7.600 45.119,7.240 45.731,6.800 46.291 C 6.360 46.850,6.000 47.570,6.000 47.890 C 6.000 48.210,5.635 48.771,5.189 49.136 C 4.634 49.591,4.299 50.493,4.125 52.000 C 3.965 53.387,3.621 54.378,3.193 54.683 C 2.760 54.991,2.416 55.999,2.244 57.466 C 2.095 58.731,1.690 60.080,1.343 60.463 C 0.099 61.838,0.035 68.671,0.035 200.200 C 0.035 330.946,0.109 338.905,1.323 339.793 C 1.660 340.040,2.048 341.248,2.213 342.564 C 2.401 344.073,2.769 345.123,3.252 345.537 C 3.742 345.957,4.000 346.709,4.000 347.715 C 4.000 349.363,4.582 350.802,5.458 351.320 C 5.756 351.496,6.000 352.059,6.000 352.571 C 6.000 353.083,6.272 353.728,6.605 354.004 C 6.937 354.280,7.563 355.247,7.995 356.153 C 8.427 357.059,9.004 358.160,9.278 358.600 C 11.146 361.600,11.600 362.445,11.600 362.919 C 11.600 363.214,12.005 363.831,12.500 364.289 C 14.138 365.806,15.600 367.607,15.600 368.107 C 15.600 368.378,16.334 369.403,17.231 370.385 C 18.129 371.367,19.035 372.491,19.245 372.885 C 19.456 373.278,19.892 373.600,20.214 373.600 C 20.536 373.600,20.800 373.806,20.800 374.059 C 20.800 374.680,25.272 379.181,25.900 379.192 C 26.175 379.196,26.400 379.464,26.400 379.786 C 26.400 380.108,26.805 380.587,27.300 380.849 C 27.795 381.112,28.435 381.658,28.723 382.063 C 29.010 382.469,29.486 382.800,29.780 382.800 C 30.074 382.800,30.414 383.061,30.537 383.379 C 30.659 383.698,31.353 384.261,32.079 384.631 C 32.806 385.001,33.670 385.556,34.000 385.864 C 36.525 388.219,37.256 388.801,37.696 388.809 C 37.973 388.814,38.650 389.170,39.200 389.600 C 39.750 390.030,40.487 390.386,40.838 390.391 C 41.189 390.396,41.787 390.744,42.167 391.164 C 42.548 391.584,43.341 392.048,43.929 392.194 C 44.518 392.340,45.360 392.785,45.800 393.184 C 46.240 393.582,47.049 394.045,47.598 394.212 C 48.148 394.380,48.798 394.792,49.045 395.129 C 49.332 395.521,50.370 395.805,51.934 395.918 C 53.817 396.054,54.427 396.256,54.600 396.800 C 54.830 397.524,56.379 398.000,58.506 398.000 C 59.169 398.000,59.927 398.294,60.190 398.653 C 61.109 399.911,65.574 399.952,200.000 399.952 C 334.426 399.952,338.891 399.911,339.810 398.653 C 340.073 398.294,340.718 397.998,341.244 397.996 C 343.541 397.985,345.311 397.462,345.500 396.739 C 345.654 396.151,346.082 396.000,347.593 396.000 C 348.849 396.000,349.817 395.744,350.453 395.244 C 350.981 394.829,352.040 394.202,352.807 393.852 C 354.209 393.212,354.619 392.976,357.222 391.310 C 358.003 390.809,358.920 390.400,359.260 390.400 C 359.599 390.400,360.193 390.050,360.579 389.623 C 360.966 389.195,361.780 388.736,362.386 388.603 C 362.993 388.470,363.874 387.919,364.342 387.380 C 364.811 386.841,365.364 386.400,365.570 386.400 C 365.777 386.400,366.060 386.040,366.200 385.600 C 366.340 385.160,366.770 384.800,367.157 384.800 C 367.544 384.800,368.283 384.350,368.800 383.800 C 369.317 383.250,369.968 382.800,370.247 382.800 C 370.526 382.800,370.990 382.469,371.277 382.063 C 371.565 381.658,372.205 381.112,372.700 380.849 C 373.195 380.587,373.600 380.108,373.600 379.786 C 373.600 379.464,373.838 379.200,374.128 379.200 C 374.418 379.200,375.039 378.795,375.508 378.300 C 376.581 377.167,377.167 376.581,378.300 375.508 C 378.795 375.039,379.200 374.418,379.200 374.128 C 379.200 373.838,379.464 373.600,379.786 373.600 C 380.108 373.600,380.587 373.195,380.849 372.700 C 381.112 372.205,381.658 371.565,382.063 371.277 C 382.469 370.990,382.800 370.566,382.800 370.335 C 382.800 370.104,383.250 369.381,383.800 368.727 C 384.350 368.073,384.800 367.295,384.800 366.996 C 384.800 366.698,385.160 366.340,385.600 366.200 C 386.040 366.060,386.400 365.777,386.400 365.570 C 386.400 365.364,386.848 364.806,387.395 364.330 C 387.941 363.854,388.502 362.861,388.641 362.122 C 388.780 361.383,389.232 360.597,389.647 360.375 C 390.065 360.151,390.400 359.543,390.400 359.007 C 390.400 358.476,390.850 357.556,391.400 356.962 C 391.950 356.369,392.400 355.631,392.400 355.322 C 392.400 355.014,393.147 353.645,394.060 352.281 C 395.285 350.450,395.771 349.276,395.914 347.800 C 396.021 346.700,396.347 345.660,396.639 345.489 C 397.250 345.130,397.995 342.716,397.998 341.084 C 397.999 340.470,398.405 339.420,398.900 338.750 L 399.800 337.533 399.800 200.466 C 399.800 58.595,399.823 60.800,398.351 60.800 C 398.158 60.800,397.999 60.215,397.998 59.500 C 397.995 57.708,397.277 55.286,396.639 54.911 C 396.347 54.740,396.023 53.700,395.917 52.600 C 395.738 50.717,394.583 48.401,393.010 46.766 C 392.674 46.418,392.400 45.752,392.400 45.287 C 392.400 44.822,391.950 43.956,391.400 43.362 C 390.850 42.769,390.400 41.870,390.400 41.364 C 390.400 40.859,390.077 40.210,389.683 39.923 C 389.288 39.635,388.741 38.635,388.467 37.700 C 388.175 36.704,387.726 36.000,387.384 36.000 C 387.063 36.000,386.800 35.826,386.800 35.614 C 386.800 35.401,386.255 34.636,385.589 33.914 C 383.443 31.587,383.314 31.420,382.642 30.100 C 382.277 29.385,381.798 28.800,381.577 28.800 C 381.356 28.800,381.063 28.485,380.926 28.100 C 380.683 27.416,379.020 25.563,375.800 22.389 C 374.920 21.522,373.834 20.449,373.386 20.006 C 372.938 19.563,372.360 19.200,372.100 19.200 C 371.840 19.200,371.442 18.852,371.214 18.427 C 370.987 18.002,370.396 17.532,369.900 17.383 C 369.405 17.234,368.640 16.773,368.200 16.359 C 364.633 12.999,362.893 11.606,362.258 11.603 C 361.850 11.601,360.981 11.150,360.327 10.600 C 359.673 10.050,358.709 9.600,358.183 9.600 C 357.645 9.600,357.046 9.259,356.809 8.817 C 356.575 8.379,355.772 7.918,354.984 7.771 C 354.211 7.626,353.397 7.168,353.175 6.753 C 352.953 6.339,352.516 6.000,352.204 6.000 C 351.891 6.000,350.972 5.550,350.162 5.000 C 349.278 4.400,348.123 4.000,347.276 4.000 C 346.499 4.000,345.554 3.721,345.177 3.379 C 344.800 3.038,343.301 2.561,341.846 2.320 C 340.391 2.079,339.200 1.746,339.200 1.580 C 339.200 0.192,340.108 0.201,202.000 0.160 C 127.970 0.138,66.221 0.228,64.780 0.360 M218.400 67.297 C 219.610 67.642,221.916 68.043,223.525 68.188 C 225.134 68.334,227.204 68.726,228.125 69.058 C 229.046 69.391,230.948 69.832,232.351 70.037 C 233.755 70.243,235.465 70.673,236.151 70.992 C 236.838 71.311,238.273 71.763,239.341 71.997 C 240.408 72.231,241.758 72.661,242.341 72.954 C 242.923 73.246,244.030 73.603,244.800 73.747 C 245.570 73.891,246.965 74.367,247.900 74.804 C 251.489 76.484,253.034 77.149,253.989 77.425 C 255.196 77.773,262.766 81.553,263.600 82.223 C 263.930 82.488,264.647 82.842,265.192 83.009 C 265.738 83.176,266.638 83.621,267.192 83.997 C 267.747 84.374,269.460 85.490,271.000 86.477 C 285.874 96.011,287.233 97.571,283.891 101.274 C 282.961 102.305,280.997 104.645,279.528 106.474 C 278.058 108.303,276.258 110.440,275.528 111.222 C 274.797 112.004,272.220 115.058,269.800 118.008 C 267.380 120.959,264.950 123.857,264.400 124.448 C 262.987 125.967,260.345 129.117,259.400 130.410 C 257.935 132.413,253.311 137.597,252.231 138.447 L 251.166 139.285 249.585 138.143 C 248.715 137.514,247.328 136.497,246.502 135.882 C 243.770 133.849,239.735 131.351,237.000 130.000 C 236.120 129.566,235.130 129.039,234.800 128.829 C 233.727 128.149,229.664 126.400,229.125 126.387 C 228.836 126.381,227.700 125.932,226.600 125.391 C 225.500 124.850,224.202 124.406,223.715 124.404 C 223.228 124.402,221.968 124.064,220.915 123.652 C 219.862 123.241,217.920 122.778,216.600 122.624 C 215.280 122.469,213.120 122.043,211.800 121.677 C 208.294 120.704,191.590 120.699,188.400 121.669 C 187.190 122.038,185.150 122.457,183.867 122.602 C 182.584 122.747,180.604 123.184,179.467 123.573 C 178.330 123.962,176.720 124.407,175.888 124.561 C 175.057 124.715,173.797 125.172,173.088 125.576 C 172.380 125.981,171.143 126.426,170.340 126.566 C 169.537 126.706,168.660 127.086,168.391 127.411 C 168.122 127.735,167.718 128.000,167.493 128.000 C 164.259 128.000,151.479 136.860,144.169 144.169 C 136.860 151.479,128.000 164.259,128.000 167.493 C 128.000 167.718,127.735 168.122,127.411 168.391 C 127.086 168.660,126.702 169.537,126.556 170.340 C 126.410 171.143,125.866 172.609,125.346 173.597 C 124.826 174.585,124.400 175.772,124.400 176.234 C 124.400 176.697,124.063 178.055,123.651 179.253 C 123.238 180.451,122.707 182.875,122.469 184.640 C 122.232 186.406,121.817 188.379,121.547 189.025 C 120.868 190.656,120.581 205.896,121.175 208.800 C 121.423 210.010,121.906 212.710,122.248 214.800 C 122.591 216.890,123.215 219.561,123.635 220.736 C 124.056 221.910,124.406 223.260,124.413 223.736 C 124.419 224.211,124.868 225.500,125.409 226.600 C 125.950 227.700,126.394 228.852,126.396 229.160 C 126.400 229.668,127.997 233.325,128.859 234.800 C 129.052 235.130,129.575 236.120,130.022 237.000 C 130.469 237.880,131.269 239.320,131.801 240.200 C 132.333 241.080,133.072 242.340,133.442 243.000 C 134.142 244.247,134.330 244.506,137.650 248.800 C 141.418 253.674,149.537 261.535,153.664 264.305 C 157.938 267.174,161.895 269.641,162.800 270.001 C 163.350 270.220,164.070 270.585,164.400 270.811 C 164.730 271.038,165.340 271.336,165.755 271.473 C 166.171 271.610,167.266 272.124,168.190 272.615 C 169.113 273.106,170.480 273.642,171.228 273.806 C 171.976 273.971,172.953 274.344,173.399 274.636 C 173.845 274.929,175.198 275.377,176.405 275.633 C 177.612 275.888,179.050 276.327,179.600 276.607 C 180.151 276.888,181.681 277.242,183.000 277.395 C 184.320 277.548,186.865 278.016,188.655 278.436 C 192.941 279.442,206.750 279.530,210.792 278.577 C 212.218 278.241,214.736 277.778,216.388 277.549 C 218.040 277.319,220.023 276.865,220.796 276.539 C 221.568 276.214,222.920 275.798,223.800 275.615 C 227.080 274.933,235.979 270.952,240.400 268.189 C 241.610 267.433,242.960 266.627,243.400 266.399 C 243.840 266.170,244.920 265.437,245.800 264.769 C 246.680 264.102,247.985 263.188,248.700 262.738 C 249.415 262.289,250.000 261.759,250.000 261.560 C 250.000 260.879,251.801 261.230,252.840 262.114 C 253.412 262.601,256.556 266.240,259.828 270.200 C 263.099 274.160,265.981 277.580,266.232 277.800 C 266.483 278.020,269.805 281.980,273.614 286.600 C 282.538 297.423,284.050 299.231,284.900 300.091 C 286.402 301.612,285.839 302.940,282.624 305.464 C 278.199 308.936,274.492 311.600,274.085 311.600 C 273.886 311.600,273.398 311.960,273.000 312.400 C 272.602 312.840,272.096 313.200,271.876 313.200 C 271.656 313.200,270.919 313.611,270.238 314.114 C 269.557 314.616,268.550 315.256,268.000 315.537 C 267.450 315.817,266.100 316.565,265.000 317.199 C 263.900 317.833,262.550 318.542,262.000 318.776 C 261.450 319.009,260.730 319.375,260.400 319.589 C 259.159 320.394,254.002 322.800,253.511 322.803 C 253.230 322.804,252.460 323.163,251.800 323.600 C 251.140 324.037,250.330 324.402,250.000 324.410 C 249.670 324.418,248.500 324.868,247.400 325.409 C 246.300 325.950,245.040 326.398,244.600 326.405 C 244.160 326.412,243.033 326.766,242.094 327.192 C 241.156 327.617,239.716 328.088,238.894 328.236 C 238.073 328.385,236.881 328.770,236.247 329.091 C 235.613 329.412,233.903 329.841,232.447 330.043 C 230.991 330.245,229.111 330.682,228.268 331.015 C 227.426 331.347,225.626 331.719,224.268 331.842 C 222.911 331.965,220.090 332.394,218.000 332.796 C 210.927 334.156,185.693 334.175,182.230 332.823 C 181.586 332.572,179.182 332.188,176.886 331.971 C 174.591 331.753,172.221 331.321,171.619 331.010 C 171.017 330.699,169.552 330.319,168.363 330.166 C 167.173 330.014,165.390 329.576,164.400 329.193 C 163.410 328.811,161.791 328.362,160.802 328.197 C 159.813 328.032,158.376 327.560,157.608 327.148 C 156.840 326.737,155.939 326.398,155.606 326.396 C 155.273 326.394,154.100 325.950,153.000 325.409 C 151.900 324.868,150.676 324.419,150.279 324.413 C 149.883 324.406,148.893 324.051,148.079 323.625 C 147.266 323.199,144.620 321.928,142.200 320.800 C 139.780 319.672,137.440 318.547,137.000 318.301 C 136.560 318.054,135.660 317.590,135.000 317.268 C 134.340 316.946,133.497 316.423,133.128 316.104 C 132.758 315.786,131.906 315.228,131.235 314.863 C 128.594 313.429,125.347 311.449,124.317 310.645 C 123.722 310.180,122.144 308.990,120.810 308.000 C 108.305 298.718,95.766 285.555,88.229 273.800 C 85.253 269.159,84.800 268.399,84.800 268.058 C 84.800 267.860,84.554 267.493,84.252 267.244 C 83.388 266.526,75.600 250.572,75.600 249.519 C 75.600 249.227,75.264 248.361,74.853 247.594 C 74.443 246.827,73.971 245.570,73.805 244.800 C 73.639 244.030,73.230 242.865,72.896 242.212 C 72.562 241.559,72.055 240.029,71.769 238.812 C 70.786 234.624,69.936 231.394,69.188 229.000 C 68.776 227.680,68.315 225.070,68.164 223.200 C 68.013 221.330,67.615 218.990,67.279 218.000 C 66.313 215.154,66.092 188.151,67.001 184.000 C 67.362 182.350,67.897 179.020,68.191 176.600 C 68.484 174.180,68.992 171.480,69.320 170.600 C 69.648 169.720,70.103 168.100,70.332 167.000 C 71.075 163.431,72.082 159.836,72.795 158.200 C 73.179 157.320,73.628 155.985,73.793 155.233 C 73.958 154.482,74.431 153.312,74.845 152.633 C 75.259 151.955,75.598 151.074,75.599 150.675 C 75.599 150.277,76.027 149.017,76.549 147.875 C 77.071 146.734,77.610 145.530,77.747 145.200 C 77.883 144.870,78.172 144.330,78.388 144.000 C 78.604 143.670,79.051 142.770,79.382 142.000 C 79.713 141.230,80.148 140.330,80.349 140.000 C 80.550 139.670,81.388 138.050,82.210 136.400 C 83.033 134.750,83.832 133.310,83.987 133.200 C 84.142 133.090,84.940 131.830,85.760 130.400 C 87.926 126.623,90.384 122.898,91.600 121.547 C 91.930 121.181,92.650 120.225,93.200 119.424 C 96.444 114.697,104.133 106.303,110.316 100.738 C 115.421 96.142,116.798 95.003,119.424 93.200 C 120.225 92.650,121.181 91.930,121.547 91.600 C 122.898 90.384,126.623 87.926,130.400 85.760 C 131.830 84.940,133.090 84.142,133.200 83.987 C 133.310 83.832,134.750 83.033,136.400 82.210 C 138.050 81.388,139.670 80.550,140.000 80.349 C 140.533 80.025,141.790 79.435,143.600 78.662 C 143.930 78.521,144.470 78.235,144.800 78.027 C 146.099 77.208,149.990 75.600,150.675 75.599 C 151.074 75.598,151.955 75.259,152.633 74.845 C 153.312 74.431,154.482 73.960,155.233 73.798 C 155.985 73.636,157.140 73.226,157.800 72.887 C 158.460 72.548,160.080 72.045,161.400 71.771 C 162.720 71.497,164.520 70.994,165.400 70.654 C 166.280 70.313,167.501 70.027,168.113 70.018 C 168.725 70.008,169.895 69.710,170.713 69.356 C 171.531 69.002,174.270 68.457,176.800 68.146 C 179.330 67.835,182.480 67.323,183.800 67.009 C 187.354 66.163,215.230 66.395,218.400 67.297 M302.205 113.500 C 303.296 114.658,308.575 121.418,309.600 122.972 C 309.930 123.472,310.547 124.403,310.971 125.040 C 313.999 129.597,315.741 132.393,316.653 134.157 C 317.233 135.281,318.222 137.100,318.851 138.200 C 319.479 139.300,320.268 140.830,320.604 141.600 C 320.939 142.370,321.469 143.540,321.781 144.200 C 322.093 144.860,322.909 146.750,323.594 148.400 C 324.279 150.050,325.190 152.140,325.620 153.044 C 326.049 153.948,326.400 155.082,326.400 155.564 C 326.400 156.046,326.696 157.012,327.057 157.711 C 327.419 158.409,327.944 159.886,328.224 160.991 C 328.505 162.096,329.011 163.720,329.350 164.600 C 329.688 165.480,329.973 166.789,329.982 167.510 C 329.992 168.230,330.366 169.850,330.813 171.110 C 331.260 172.369,331.791 175.020,331.993 177.000 C 332.195 178.980,332.658 181.950,333.021 183.600 C 334.108 188.533,333.978 212.461,332.837 217.496 C 332.377 219.528,332.000 221.964,332.000 222.909 C 332.000 223.853,331.716 225.610,331.370 226.813 C 331.023 228.016,330.485 230.350,330.174 232.000 C 329.863 233.650,329.347 235.630,329.026 236.400 C 328.705 237.170,328.324 238.409,328.178 239.154 C 328.032 239.898,327.576 241.248,327.165 242.154 C 326.754 243.059,326.412 244.160,326.405 244.600 C 326.398 245.040,325.950 246.300,325.409 247.400 C 324.868 248.500,324.419 249.634,324.413 249.921 C 324.406 250.207,324.064 251.107,323.652 251.921 C 322.917 253.375,321.857 255.640,320.619 258.400 C 320.056 259.655,317.472 264.473,315.440 268.059 C 314.823 269.148,311.287 274.525,308.000 279.373 C 307.670 279.860,306.059 281.910,304.421 283.929 C 300.319 288.984,300.269 288.975,294.788 282.200 C 293.186 280.220,291.669 278.420,291.416 278.200 C 291.164 277.980,289.112 275.577,286.856 272.860 C 282.159 267.204,282.087 266.885,284.774 263.600 C 286.194 261.864,289.145 257.484,290.568 255.000 C 290.946 254.340,291.679 253.080,292.198 252.200 C 294.634 248.068,298.799 238.987,299.811 235.600 C 300.313 233.919,300.776 232.490,302.271 228.000 C 302.601 227.010,303.108 224.760,303.397 223.000 C 303.687 221.240,304.129 219.272,304.380 218.626 C 305.888 214.746,305.946 187.742,304.459 181.995 C 304.031 180.342,303.550 177.912,303.390 176.595 C 303.229 175.278,302.861 173.734,302.572 173.164 C 302.282 172.594,301.778 171.064,301.451 169.764 C 300.146 164.568,298.370 160.045,294.792 152.800 C 292.081 147.311,290.278 144.356,285.437 137.471 C 282.495 133.286,282.268 132.552,283.531 131.316 C 283.933 130.922,285.271 129.321,286.503 127.757 C 287.735 126.193,289.052 124.605,289.430 124.228 C 289.807 123.850,291.985 121.259,294.270 118.471 C 299.560 112.013,300.341 111.523,302.205 113.500 " stroke="none" fill="#fbfbfc" fill-rule="evenodd"></path><path id="path2" d="M183.800 67.009 C 182.480 67.323,179.330 67.835,176.800 68.146 C 174.270 68.457,171.531 69.002,170.713 69.356 C 169.895 69.710,168.725 70.008,168.113 70.018 C 167.501 70.027,166.280 70.313,165.400 70.654 C 164.520 70.994,162.720 71.497,161.400 71.771 C 160.080 72.045,158.460 72.548,157.800 72.887 C 157.140 73.226,155.985 73.636,155.233 73.798 C 154.482 73.960,153.312 74.431,152.633 74.845 C 151.955 75.259,151.074 75.598,150.675 75.599 C 149.990 75.600,146.099 77.208,144.800 78.027 C 144.470 78.235,143.930 78.521,143.600 78.662 C 141.790 79.435,140.533 80.025,140.000 80.349 C 139.670 80.550,138.050 81.388,136.400 82.210 C 134.750 83.033,133.310 83.832,133.200 83.987 C 133.090 84.142,131.830 84.940,130.400 85.760 C 126.623 87.926,122.898 90.384,121.547 91.600 C 121.181 91.930,120.225 92.650,119.424 93.200 C 111.888 98.373,98.373 111.888,93.200 119.424 C 92.650 120.225,91.930 121.181,91.600 121.547 C 90.384 122.898,87.926 126.623,85.760 130.400 C 84.940 131.830,84.142 133.090,83.987 133.200 C 83.832 133.310,83.033 134.750,82.210 136.400 C 81.388 138.050,80.550 139.670,80.349 140.000 C 80.148 140.330,79.713 141.230,79.382 142.000 C 79.051 142.770,78.604 143.670,78.388 144.000 C 78.172 144.330,77.883 144.870,77.747 145.200 C 77.610 145.530,77.071 146.734,76.549 147.875 C 76.027 149.017,75.599 150.277,75.599 150.675 C 75.598 151.074,75.259 151.955,74.845 152.633 C 74.431 153.312,73.958 154.482,73.793 155.233 C 73.628 155.985,73.179 157.320,72.795 158.200 C 72.082 159.836,71.075 163.431,70.332 167.000 C 70.103 168.100,69.648 169.720,69.320 170.600 C 68.992 171.480,68.484 174.180,68.191 176.600 C 67.897 179.020,67.362 182.350,67.001 184.000 C 66.092 188.151,66.313 215.154,67.279 218.000 C 67.615 218.990,68.013 221.330,68.164 223.200 C 68.315 225.070,68.776 227.680,69.188 229.000 C 69.936 231.394,70.786 234.624,71.769 238.812 C 72.055 240.029,72.562 241.559,72.896 242.212 C 73.230 242.865,73.639 244.030,73.805 244.800 C 73.971 245.570,74.443 246.827,74.853 247.594 C 75.264 248.361,75.600 249.227,75.600 249.519 C 75.600 250.572,83.388 266.526,84.252 267.244 C 84.554 267.493,84.800 267.860,84.800 268.058 C 84.800 268.399,85.253 269.159,88.229 273.800 C 95.766 285.555,108.305 298.718,120.810 308.000 C 122.144 308.990,123.722 310.180,124.317 310.645 C 125.347 311.449,128.594 313.429,131.235 314.863 C 131.906 315.228,132.758 315.786,133.128 316.104 C 133.497 316.423,134.340 316.946,135.000 317.268 C 135.660 317.590,136.560 318.054,137.000 318.301 C 137.440 318.547,139.780 319.672,142.200 320.800 C 144.620 321.928,147.266 323.199,148.079 323.625 C 148.893 324.051,149.883 324.406,150.279 324.413 C 150.676 324.419,151.900 324.868,153.000 325.409 C 154.100 325.950,155.273 326.394,155.606 326.396 C 155.939 326.398,156.840 326.737,157.608 327.148 C 158.376 327.560,159.813 328.032,160.802 328.197 C 161.791 328.362,163.410 328.811,164.400 329.193 C 165.390 329.576,167.173 330.014,168.363 330.166 C 169.552 330.319,171.017 330.699,171.619 331.010 C 172.221 331.321,174.591 331.753,176.886 331.971 C 179.182 332.188,181.586 332.572,182.230 332.823 C 185.693 334.175,210.927 334.156,218.000 332.796 C 220.090 332.394,222.911 331.965,224.268 331.842 C 225.626 331.719,227.426 331.347,228.268 331.015 C 229.111 330.682,230.991 330.245,232.447 330.043 C 233.903 329.841,235.613 329.412,236.247 329.091 C 236.881 328.770,238.073 328.385,238.894 328.236 C 239.716 328.088,241.156 327.617,242.094 327.192 C 243.033 326.766,244.160 326.412,244.600 326.405 C 245.040 326.398,246.300 325.950,247.400 325.409 C 248.500 324.868,249.670 324.418,250.000 324.410 C 250.330 324.402,251.140 324.037,251.800 323.600 C 252.460 323.163,253.230 322.804,253.511 322.803 C 254.002 322.800,259.159 320.394,260.400 319.589 C 260.730 319.375,261.450 319.009,262.000 318.776 C 262.550 318.542,263.900 317.833,265.000 317.199 C 266.100 316.565,267.450 315.817,268.000 315.537 C 268.550 315.256,269.557 314.616,270.238 314.114 C 270.919 313.611,271.656 313.200,271.876 313.200 C 272.096 313.200,272.602 312.840,273.000 312.400 C 273.398 311.960,273.886 311.600,274.085 311.600 C 274.492 311.600,278.199 308.936,282.624 305.464 C 285.839 302.940,286.402 301.612,284.900 300.091 C 284.050 299.231,282.538 297.423,273.614 286.600 C 269.805 281.980,266.483 278.020,266.232 277.800 C 265.981 277.580,263.099 274.160,259.828 270.200 C 256.556 266.240,253.412 262.601,252.840 262.114 C 251.801 261.230,250.000 260.879,250.000 261.560 C 250.000 261.759,249.415 262.289,248.700 262.738 C 247.985 263.188,246.680 264.102,245.800 264.769 C 244.920 265.437,243.840 266.170,243.400 266.399 C 242.960 266.627,241.610 267.433,240.400 268.189 C 235.979 270.952,227.080 274.933,223.800 275.615 C 222.920 275.798,221.568 276.214,220.796 276.539 C 220.023 276.865,218.040 277.319,216.388 277.549 C 214.736 277.778,212.218 278.241,210.792 278.577 C 206.750 279.530,192.941 279.442,188.655 278.436 C 186.865 278.016,184.320 277.548,183.000 277.395 C 181.681 277.242,180.151 276.888,179.600 276.607 C 179.050 276.327,177.612 275.888,176.405 275.633 C 175.198 275.377,173.845 274.929,173.399 274.636 C 172.953 274.344,171.976 273.971,171.228 273.806 C 170.480 273.642,169.113 273.106,168.190 272.615 C 167.266 272.124,166.171 271.610,165.755 271.473 C 165.340 271.336,164.730 271.038,164.400 270.811 C 164.070 270.585,163.350 270.220,162.800 270.001 C 161.895 269.641,157.938 267.174,153.664 264.305 C 149.537 261.535,141.418 253.674,137.650 248.800 C 134.330 244.506,134.142 244.247,133.442 243.000 C 133.072 242.340,132.333 241.080,131.801 240.200 C 131.269 239.320,130.469 237.880,130.022 237.000 C 129.575 236.120,129.052 235.130,128.859 234.800 C 127.997 233.325,126.400 229.668,126.396 229.160 C 126.394 228.852,125.950 227.700,125.409 226.600 C 124.868 225.500,124.419 224.211,124.413 223.736 C 124.406 223.260,124.056 221.910,123.635 220.736 C 123.215 219.561,122.591 216.890,122.248 214.800 C 121.906 212.710,121.423 210.010,121.175 208.800 C 120.581 205.896,120.868 190.656,121.547 189.025 C 121.817 188.379,122.232 186.406,122.469 184.640 C 122.707 182.875,123.238 180.451,123.651 179.253 C 124.063 178.055,124.400 176.697,124.400 176.234 C 124.400 175.772,124.826 174.585,125.346 173.597 C 125.866 172.609,126.410 171.143,126.556 170.340 C 126.702 169.537,127.086 168.660,127.411 168.391 C 127.735 168.122,128.000 167.718,128.000 167.493 C 128.000 164.259,136.860 151.479,144.169 144.169 C 151.479 136.860,164.259 128.000,167.493 128.000 C 167.718 128.000,168.122 127.735,168.391 127.411 C 168.660 127.086,169.537 126.706,170.340 126.566 C 171.143 126.426,172.380 125.981,173.088 125.576 C 173.797 125.172,175.057 124.715,175.888 124.561 C 176.720 124.407,178.330 123.962,179.467 123.573 C 180.604 123.184,182.584 122.747,183.867 122.602 C 185.150 122.457,187.190 122.038,188.400 121.669 C 191.590 120.699,208.294 120.704,211.800 121.677 C 213.120 122.043,215.280 122.469,216.600 122.624 C 217.920 122.778,219.862 123.241,220.915 123.652 C 221.968 124.064,223.228 124.402,223.715 124.404 C 224.202 124.406,225.500 124.850,226.600 125.391 C 227.700 125.932,228.836 126.381,229.125 126.387 C 229.664 126.400,233.727 128.149,234.800 128.829 C 235.130 129.039,236.120 129.566,237.000 130.000 C 239.735 131.351,243.770 133.849,246.502 135.882 C 247.328 136.497,248.715 137.514,249.585 138.143 L 251.166 139.285 252.231 138.447 C 253.311 137.597,257.935 132.413,259.400 130.410 C 260.345 129.117,262.987 125.967,264.400 124.448 C 264.950 123.857,267.380 120.959,269.800 118.008 C 272.220 115.058,274.797 112.004,275.528 111.222 C 276.258 110.440,278.058 108.303,279.528 106.474 C 280.997 104.645,282.961 102.305,283.891 101.274 C 287.233 97.571,285.874 96.011,271.000 86.477 C 269.460 85.490,267.747 84.374,267.192 83.997 C 266.638 83.621,265.738 83.176,265.192 83.009 C 264.647 82.842,263.930 82.488,263.600 82.223 C 262.766 81.553,255.196 77.773,253.989 77.425 C 253.034 77.149,251.489 76.484,247.900 74.804 C 246.965 74.367,245.570 73.891,244.800 73.747 C 244.030 73.603,242.923 73.246,242.341 72.954 C 241.758 72.661,240.408 72.231,239.341 71.997 C 238.273 71.763,236.838 71.311,236.151 70.992 C 235.465 70.673,233.755 70.243,232.351 70.037 C 230.948 69.832,229.046 69.391,228.125 69.058 C 227.204 68.726,225.134 68.334,223.525 68.188 C 221.916 68.043,219.610 67.642,218.400 67.297 C 215.230 66.395,187.354 66.163,183.800 67.009 M213.200 68.183 C 215.290 68.492,218.505 68.853,220.344 68.986 C 222.183 69.118,224.309 69.485,225.067 69.802 C 225.826 70.119,227.381 70.486,228.523 70.617 C 230.551 70.850,233.757 71.691,238.600 73.260 C 239.920 73.688,241.750 74.201,242.668 74.401 C 243.585 74.600,245.022 75.132,245.862 75.582 C 246.701 76.032,247.661 76.401,247.994 76.401 C 248.327 76.402,249.189 76.762,249.910 77.201 C 250.630 77.641,251.437 78.000,251.704 78.000 C 252.214 78.000,254.868 79.207,259.200 81.410 C 264.718 84.216,266.451 85.182,270.000 87.427 C 278.051 92.520,284.000 97.071,284.000 98.136 C 284.000 98.798,280.742 103.234,278.810 105.201 C 278.475 105.543,277.391 106.808,276.402 108.011 C 275.413 109.215,274.423 110.405,274.202 110.655 C 273.981 110.906,273.447 111.536,273.017 112.055 C 266.093 120.404,260.145 127.483,259.787 127.800 C 259.539 128.020,257.754 130.130,255.821 132.488 C 252.061 137.075,251.259 137.634,249.878 136.630 C 243.051 131.666,232.556 125.600,230.793 125.600 C 230.519 125.600,229.733 125.255,229.047 124.834 C 228.361 124.412,227.080 123.938,226.200 123.780 C 225.320 123.622,224.090 123.235,223.466 122.919 C 222.843 122.603,221.223 122.172,219.866 121.961 C 218.510 121.750,216.721 121.312,215.891 120.988 C 211.582 119.307,189.438 119.407,183.600 121.134 C 182.170 121.557,180.100 122.089,179.000 122.316 C 175.937 122.948,171.513 124.510,167.400 126.413 C 166.520 126.820,165.170 127.434,164.400 127.777 C 163.035 128.384,161.240 129.385,158.400 131.122 C 157.630 131.592,156.460 132.280,155.800 132.650 C 149.626 136.108,136.118 149.615,132.649 155.800 C 132.279 156.460,131.624 157.540,131.194 158.200 C 130.161 159.785,128.584 162.659,127.791 164.400 C 127.440 165.170,126.820 166.520,126.413 167.400 C 124.510 171.513,122.948 175.937,122.316 179.000 C 122.089 180.100,121.558 182.170,121.135 183.600 C 119.421 189.400,119.319 210.787,120.981 215.684 C 121.324 216.693,121.716 218.392,121.853 219.459 C 121.991 220.527,122.410 222.210,122.786 223.200 C 123.447 224.940,124.193 227.031,125.498 230.800 C 125.841 231.790,126.343 232.870,126.613 233.200 C 126.884 233.530,127.241 234.243,127.406 234.783 C 127.902 236.406,132.444 244.225,134.270 246.600 C 134.778 247.260,135.453 248.160,135.770 248.600 C 139.342 253.547,146.664 260.870,151.370 264.200 C 151.992 264.640,152.973 265.365,153.550 265.811 C 154.513 266.555,155.753 267.379,159.000 269.430 C 160.819 270.580,168.475 274.399,168.967 274.404 C 169.205 274.406,170.300 274.850,171.400 275.391 C 172.500 275.932,173.760 276.385,174.200 276.396 C 174.640 276.408,175.739 276.753,176.642 277.163 C 177.545 277.573,179.252 278.042,180.434 278.205 C 181.616 278.367,183.307 278.763,184.192 279.084 C 188.291 280.571,212.833 280.681,215.555 279.224 C 216.034 278.968,217.815 278.512,219.513 278.212 C 221.211 277.911,223.140 277.382,223.800 277.035 C 224.460 276.689,225.360 276.402,225.800 276.399 C 226.240 276.395,227.500 275.950,228.600 275.409 C 229.700 274.868,230.808 274.419,231.063 274.413 C 231.502 274.401,235.109 272.739,236.400 271.955 C 236.730 271.754,237.720 271.229,238.600 270.788 C 241.645 269.263,245.757 266.636,248.350 264.559 C 251.345 262.161,251.318 262.149,256.197 268.001 C 258.122 270.311,260.563 273.190,261.620 274.400 C 262.677 275.610,266.811 280.560,270.806 285.400 C 274.802 290.240,278.739 294.920,279.555 295.800 C 282.306 298.764,284.000 301.078,284.000 301.869 C 284.000 302.833,280.497 305.699,274.304 309.799 C 271.827 311.440,269.350 313.098,268.800 313.485 C 266.745 314.930,252.869 321.994,252.079 321.998 C 251.793 321.999,250.893 322.342,250.079 322.760 C 247.708 323.977,244.335 325.255,242.505 325.628 C 241.573 325.818,240.307 326.234,239.692 326.553 C 239.076 326.871,237.859 327.263,236.986 327.424 C 236.114 327.585,234.680 327.973,233.800 328.287 C 232.920 328.600,230.850 329.102,229.200 329.401 C 227.550 329.701,225.216 330.228,224.013 330.573 C 222.810 330.918,220.920 331.201,219.813 331.202 C 218.706 331.202,216.090 331.504,214.000 331.871 C 209.246 332.707,192.681 332.833,187.800 332.070 C 186.040 331.795,182.966 331.414,180.969 331.222 C 177.311 330.871,172.003 329.784,167.200 328.402 C 165.770 327.990,163.880 327.535,163.000 327.391 C 162.120 327.246,160.645 326.784,159.722 326.364 C 158.799 325.944,157.757 325.600,157.406 325.600 C 157.055 325.600,156.100 325.262,155.284 324.849 C 154.468 324.436,153.170 323.965,152.400 323.803 C 151.630 323.640,150.550 323.275,150.000 322.991 C 149.450 322.706,147.920 321.982,146.600 321.380 C 141.975 319.273,135.383 315.928,133.600 314.784 C 132.610 314.149,131.260 313.331,130.600 312.968 C 126.159 310.520,115.909 302.881,111.591 298.800 C 111.009 298.250,109.468 296.803,108.167 295.584 C 106.092 293.642,100.502 287.696,98.028 284.800 C 94.376 280.525,89.102 272.923,85.400 266.596 C 84.960 265.845,84.015 264.235,83.300 263.021 C 82.585 261.806,82.000 260.694,82.000 260.551 C 82.000 260.407,81.205 258.649,80.234 256.644 C 77.638 251.289,76.400 248.387,76.398 247.652 C 76.396 247.293,76.108 246.460,75.758 245.800 C 74.791 243.979,73.234 239.312,72.622 236.400 C 72.322 234.970,71.882 233.350,71.645 232.800 C 71.124 231.593,69.654 224.728,69.204 221.400 C 67.159 206.294,66.847 197.595,68.027 188.600 C 68.230 187.060,68.584 183.910,68.815 181.600 C 69.046 179.290,69.568 176.050,69.975 174.400 C 70.382 172.750,70.829 170.616,70.969 169.658 C 71.109 168.700,71.467 167.440,71.765 166.858 C 72.062 166.276,72.439 164.810,72.601 163.600 C 72.763 162.390,73.234 160.732,73.648 159.916 C 74.061 159.100,74.402 158.110,74.404 157.716 C 74.406 157.322,74.850 156.100,75.391 155.000 C 75.932 153.900,76.381 152.707,76.387 152.348 C 76.411 151.112,83.452 136.506,85.618 133.200 C 86.267 132.210,87.066 130.860,87.395 130.200 C 93.529 117.874,117.874 93.529,130.200 87.395 C 130.860 87.066,132.210 86.267,133.200 85.618 C 136.506 83.452,151.112 76.411,152.348 76.387 C 152.707 76.381,153.900 75.932,155.000 75.391 C 156.100 74.850,157.322 74.406,157.716 74.404 C 158.110 74.402,159.100 74.061,159.916 73.648 C 160.732 73.234,162.390 72.763,163.600 72.601 C 164.810 72.439,166.276 72.062,166.858 71.765 C 167.440 71.467,168.700 71.109,169.658 70.969 C 170.616 70.829,172.751 70.381,174.402 69.974 C 176.054 69.566,179.204 69.052,181.402 68.832 C 183.601 68.612,187.020 68.248,189.000 68.024 C 190.980 67.800,193.410 67.542,194.400 67.450 C 197.617 67.150,209.302 67.606,213.200 68.183 M299.312 112.906 C 298.823 113.178,296.554 115.682,294.270 118.471 C 291.985 121.259,289.807 123.850,289.430 124.228 C 289.052 124.605,287.735 126.193,286.503 127.757 C 285.271 129.321,283.933 130.922,283.531 131.316 C 282.268 132.552,282.495 133.286,285.437 137.471 C 290.278 144.356,292.081 147.311,294.792 152.800 C 298.370 160.045,300.146 164.568,301.451 169.764 C 301.778 171.064,302.282 172.594,302.572 173.164 C 302.861 173.734,303.229 175.278,303.390 176.595 C 303.550 177.912,304.031 180.342,304.459 181.995 C 305.946 187.742,305.888 214.746,304.380 218.626 C 304.129 219.272,303.687 221.240,303.397 223.000 C 303.108 224.760,302.601 227.010,302.271 228.000 C 300.776 232.490,300.313 233.919,299.811 235.600 C 298.799 238.987,294.634 248.068,292.198 252.200 C 291.679 253.080,290.946 254.340,290.568 255.000 C 289.145 257.484,286.194 261.864,284.774 263.600 C 282.087 266.885,282.159 267.204,286.856 272.860 C 289.112 275.577,291.164 277.980,291.416 278.200 C 291.669 278.420,293.186 280.220,294.788 282.200 C 300.269 288.975,300.319 288.984,304.421 283.929 C 306.059 281.910,307.670 279.860,308.000 279.373 C 311.287 274.525,314.823 269.148,315.440 268.059 C 317.472 264.473,320.056 259.655,320.619 258.400 C 321.857 255.640,322.917 253.375,323.652 251.921 C 324.064 251.107,324.406 250.207,324.413 249.921 C 324.419 249.634,324.868 248.500,325.409 247.400 C 325.950 246.300,326.398 245.040,326.405 244.600 C 326.412 244.160,326.754 243.059,327.165 242.154 C 327.576 241.248,328.032 239.898,328.178 239.154 C 328.324 238.409,328.705 237.170,329.026 236.400 C 329.347 235.630,329.863 233.650,330.174 232.000 C 330.485 230.350,331.023 228.016,331.370 226.813 C 331.716 225.610,332.000 223.853,332.000 222.909 C 332.000 221.964,332.377 219.528,332.837 217.496 C 333.978 212.461,334.108 188.533,333.021 183.600 C 332.658 181.950,332.195 178.980,331.993 177.000 C 331.791 175.020,331.260 172.369,330.813 171.110 C 330.366 169.850,329.992 168.230,329.982 167.510 C 329.973 166.789,329.688 165.480,329.350 164.600 C 329.011 163.720,328.505 162.096,328.224 160.991 C 327.944 159.886,327.419 158.409,327.057 157.711 C 326.696 157.012,326.400 156.046,326.400 155.564 C 326.400 155.082,326.049 153.948,325.620 153.044 C 325.190 152.140,324.279 150.050,323.594 148.400 C 322.909 146.750,322.093 144.860,321.781 144.200 C 321.469 143.540,320.939 142.370,320.604 141.600 C 320.268 140.830,319.479 139.300,318.851 138.200 C 318.222 137.100,317.233 135.281,316.653 134.157 C 315.741 132.393,313.999 129.597,310.971 125.040 C 310.547 124.403,309.930 123.472,309.600 122.972 C 308.575 121.418,303.296 114.658,302.205 113.500 C 301.051 112.276,300.608 112.185,299.312 112.906 M302.618 116.095 C 304.779 118.956,305.302 119.616,306.002 120.362 C 306.881 121.299,314.267 132.426,314.790 133.600 C 315.035 134.150,315.756 135.500,316.393 136.600 C 317.580 138.652,319.894 143.280,321.241 146.300 C 321.659 147.235,322.352 148.765,322.783 149.700 C 323.214 150.635,323.692 151.940,323.845 152.600 C 323.998 153.260,324.455 154.427,324.861 155.194 C 325.268 155.961,325.604 156.951,325.609 157.394 C 325.614 157.837,325.964 158.964,326.388 159.897 C 326.812 160.831,327.342 162.586,327.566 163.799 C 327.790 165.011,328.154 166.341,328.376 166.755 C 328.597 167.168,328.980 168.806,329.226 170.393 C 329.472 171.980,329.929 173.889,330.241 174.635 C 330.552 175.381,330.982 178.108,331.195 180.696 C 331.408 183.283,331.802 186.480,332.071 187.800 C 332.731 191.047,332.740 209.428,332.083 212.400 C 331.815 213.610,331.428 216.694,331.223 219.254 C 331.017 221.814,330.583 224.546,330.257 225.325 C 329.931 226.105,329.536 227.791,329.379 229.071 C 329.222 230.352,328.913 231.850,328.694 232.400 C 328.475 232.950,327.973 234.660,327.580 236.200 C 327.186 237.740,326.554 239.900,326.176 241.000 C 324.315 246.411,323.464 248.736,322.810 250.200 C 322.417 251.080,321.668 252.775,321.147 253.966 C 319.524 257.678,314.578 267.227,313.419 268.888 C 313.069 269.390,311.416 271.863,309.746 274.384 C 306.388 279.453,301.392 285.729,300.556 285.928 C 299.885 286.087,298.644 284.813,293.550 278.731 C 282.596 265.656,283.256 267.518,287.626 262.000 C 288.410 261.010,289.560 259.300,290.181 258.200 C 290.803 257.100,291.535 255.930,291.808 255.600 C 292.082 255.270,293.062 253.560,293.987 251.800 C 294.912 250.040,295.810 248.420,295.982 248.200 C 296.155 247.980,296.508 247.139,296.768 246.332 C 297.028 245.525,297.502 244.648,297.820 244.383 C 298.139 244.118,298.400 243.621,298.400 243.277 C 298.400 242.934,298.748 241.921,299.174 241.026 C 300.165 238.943,301.505 235.164,302.172 232.573 C 302.459 231.458,302.930 230.108,303.218 229.573 C 303.507 229.038,303.968 227.340,304.243 225.800 C 304.519 224.260,305.026 222.016,305.372 220.813 C 305.717 219.610,306.000 217.785,306.000 216.757 C 306.000 215.729,306.303 213.383,306.673 211.544 C 307.608 206.902,307.631 193.140,306.711 188.600 C 306.354 186.840,305.964 184.039,305.843 182.377 C 305.722 180.714,305.358 178.719,305.034 177.944 C 304.710 177.169,304.322 175.559,304.171 174.367 C 304.020 173.175,303.631 171.570,303.307 170.800 C 302.983 170.030,302.480 168.500,302.189 167.400 C 301.445 164.584,299.712 159.952,299.216 159.456 C 298.987 159.227,298.800 158.745,298.800 158.385 C 298.800 157.640,293.435 146.943,291.967 144.763 C 291.435 143.972,290.550 142.564,290.000 141.633 C 289.450 140.702,288.274 139.009,287.387 137.870 C 283.589 132.994,283.626 132.384,287.984 128.060 C 288.350 127.697,289.349 126.500,290.204 125.400 C 291.059 124.300,291.952 123.220,292.187 123.000 C 292.422 122.780,294.037 120.890,295.775 118.800 C 300.541 113.068,300.380 113.132,302.618 116.095 " stroke="none" fill="#9bcdf9" fill-rule="evenodd"></path></g></svg>