<?xml version="1.0" standalone="no"?><!DOCTYPE svg PUBLIC "-//W3C//DTD SVG 1.1//EN" "http://www.w3.org/Graphics/SVG/1.1/DTD/svg11.dtd"><svg t="1731318360786" class="icon" viewBox="0 0 1024 1024" version="1.1" xmlns="http://www.w3.org/2000/svg" p-id="4551" xmlns:xlink="http://www.w3.org/1999/xlink" width="48" height="48"><path d="M360.368768 54.758231c57.16651-19.988711 118.306679-27.15334 178.694261-23.902163 164.274694 6.984008 319.548448 109.426152 392.699906 256.331138-15.232361 3.401693-30.856068 2.167451-46.329257 2.348072-111.172154 0.240828-222.374412 0.571966-333.546566 0.752587-39.766698-6.321731-81.490122-3.582314-118.999059 11.77046a214.607714 214.607714 0 0 0-122.55127 127.21731c-20.079022 55.661336-14.96143 119.08937 11.920978 171.58984C254.434619 481.896519 184.534337 364.041392 115.80809 245.584196 172.9746 157.079962 260.365005 88.233302 360.368768 54.758231z" fill="#CD4E41" p-id="4552"></path><path d="M57.286924 377.226717a467.055503 467.055503 0 0 1 58.521166-131.672625C184.534337 364.041392 254.434619 481.896519 322.257761 600.865475a216.444026 216.444026 0 0 0 107.860771 98.197554c59.574788 24.865475 130.498589 20.711195 186.671684-11.288805 27.695202-15.232361 50.754468-37.508937 69.96049-62.374412-65.444967 115.537159-131.762935 230.592662-197.508937 345.9492-99.492004-4.184384-196.997178-41.753528-274.062089-104.669802-91.815616-74.20508-154.280339-183.841957-169.813735-300.9746-7.676388-62.765757-5.238006-127.39793 11.920979-188.477893z" fill="#1E985C" p-id="4553"></path><path d="M432.888053 302.058325c37.508937-15.352775 79.232361-18.122295 118.999059-11.77046 60.327375 12.131703 115.11571 50.212606 145.64064 103.857008 41.693321 70.562559 37.749765 164.997178-10.746943 231.315146-19.236124 24.805268-42.265287 47.081844-69.960489 62.314205-56.142992 32-127.066792 36.15428-186.671684 11.288805a216.684854 216.684854 0 0 1-107.860771-98.197554c-26.882408-52.50047-32-115.958608-11.920979-171.58984a214.336783 214.336783 0 0 1 122.521167-127.21731m50.242709 30.223895c-63.39793 10.024459-118.306679 59.15334-135.52587 120.955786-13.998119 48.376294-5.809972 102.893697 23.08937 144.406397 31.006585 45.968015 85.584196 75.078081 141.125117 74.325494 50.694262 0.69238 100.786453-23.17968 132.575729-62.494826a169.452493 169.452493 0 0 0 38.562559-111.984949c-0.361242-54.366886-29.290687-107.318909-74.265287-137.753527-36.06397-25.226717-82.242709-34.709313-125.561618-27.454375z" fill="#F1F1F1" p-id="4554"></path><path d="M551.857008 290.287865c111.172154-0.180621 222.374412-0.511759 333.546567-0.752587 15.473189-0.180621 31.096896 1.053622 46.329257-2.348072 37.328316 71.826905 54.39699 153.648166 50.51364 234.415804-3.281279 100.304798-41.452493 198.74318-104.82032 276.349953-63.969897 78.780809-153.85889 136.459078-252.658513 160.270932-44.161806 11.529633-90.069614 14.35936-135.555974 13.125117 65.776105-115.356538 132.094073-230.412041 197.539041-345.888993 48.496707-66.317968 52.440263-160.752587 10.746942-231.315146-30.524929-53.644403-85.313264-91.725306-145.64064-103.857008z" fill="#F2C345" p-id="4555"></path><path d="M483.130762 332.28222c43.318909-7.254939 89.497648 2.257761 125.591722 27.454375 44.9746 30.434619 73.904045 83.386642 74.265286 137.753527a169.60301 169.60301 0 0 1-38.562558 111.984949c-31.819379 39.345249-81.911571 63.21731-132.575729 62.494826-55.540922 0.752587-110.148636-28.327375-141.125118-74.325494-28.899341-41.5127-37.087488-96.030103-23.08937-144.406397 17.189087-61.802446 72.097836-110.931326 135.495767-120.955786z" fill="#4F7FC0" p-id="4556"></path></svg>