<?xml version="1.0" standalone="no"?><!DOCTYPE svg PUBLIC "-//W3C//DTD SVG 1.1//EN" "http://www.w3.org/Graphics/SVG/1.1/DTD/svg11.dtd"><svg t="1707712431949" class="icon" viewBox="0 0 1024 1024" version="1.1" xmlns="http://www.w3.org/2000/svg" p-id="32028" xmlns:xlink="http://www.w3.org/1999/xlink" width="48" height="48"><path d="M721.1008 565.179733a51.336533 51.336533 0 1 0-51.336533-51.336533 51.336533 51.336533 0 0 0 51.336533 51.336533z" fill="#1296db" p-id="32029"></path><path d="M512 0a512 512 0 1 0 512 512A512 512 0 0 0 512 0z m209.1008 430.08A83.490133 83.490133 0 1 1 637.610667 513.8432 83.490133 83.490133 0 0 1 721.1008 430.08z m-253.269333-55.773867a62.600533 62.600533 0 0 1 62.600533-62.327466h10.990933a62.532267 62.532267 0 0 1 62.600534 62.600533v165.614933a62.532267 62.532267 0 0 1-62.600534 62.600534H530.432a62.600533 62.600533 0 0 1-62.600533-62.600534zM282.4192 199.338667a62.600533 62.600533 0 0 1 62.600533-62.805334h10.990934a62.6688 62.6688 0 0 1 62.600533 62.600534v341.060266a62.600533 62.600533 0 0 1-62.600533 62.600534h-10.990934a62.532267 62.532267 0 0 1-62.600533-62.600534z m584.0896 399.837866a362.496 362.496 0 0 1-706.3552 13.653334 47.240533 47.240533 0 0 1-3.8912-17.271467v-1.570133a46.8992 46.8992 0 0 1 91.136-15.7696 46.421333 46.421333 0 0 1 2.730667 15.701333v3.140267a299.758933 299.758933 0 0 0 591.530666-3.140267v-0.477867a12.288 12.288 0 0 1 0.682667-3.8912 13.038933 13.038933 0 0 1 25.463467 3.208534v0.682666a12.970667 12.970667 0 0 1-1.297067 5.7344z" fill="#1296db" p-id="32030"></path></svg>