<?xml version="1.0" standalone="no"?><!DOCTYPE svg PUBLIC "-//W3C//DTD SVG 1.1//EN" "http://www.w3.org/Graphics/SVG/1.1/DTD/svg11.dtd"><svg t="1707718343634" class="icon" viewBox="0 0 1024 1024" version="1.1" xmlns="http://www.w3.org/2000/svg" p-id="39392" xmlns:xlink="http://www.w3.org/1999/xlink" width="48" height="48"><path d="M822.4 0H201.6C67.2 0 0 67.2 0 201.6v617.6C0 956.8 67.2 1024 201.6 1024h617.6c134.4 0 201.6-67.2 201.6-201.6V201.6c3.2-134.4-64-201.6-198.4-201.6z" fill="#FF6633" p-id="39393"></path><path d="M412.8 371.2c73.6 0 131.2-57.6 131.2-131.2s-57.6-131.2-131.2-131.2-131.2 60.8-131.2 134.4 60.8 128 131.2 128z m198.4 99.2c64-57.6 105.6-140.8 105.6-233.6 0-22.4-3.2-41.6-6.4-64l-115.2 32c0 9.6 3.2 19.2 3.2 28.8 0 105.6-86.4 195.2-195.2 195.2-80 0-150.4-51.2-179.2-121.6l-108.8 28.8c35.2 105.6 124.8 182.4 236.8 204.8-80 64-134.4 163.2-134.4 275.2 0 32 6.4 67.2 12.8 96l115.2-28.8c-6.4-22.4-9.6-44.8-9.6-67.2 0-128 102.4-230.4 230.4-230.4 112 0 201.6 76.8 224 182.4l115.2-28.8c-32-140.8-147.2-249.6-294.4-268.8z" fill="#FFFFFF" p-id="39394"></path></svg>