<svg id="svg" version="1.1" xmlns="http://www.w3.org/2000/svg" xmlns:xlink="http://www.w3.org/1999/xlink" width="48" height="48" viewBox="0 0 400 400"><g id="svgg"><path id="path0" d="M120.345 43.779 C 117.674 45.594,114.500 53.351,113.134 61.400 C 112.910 62.720,112.459 65.060,112.131 66.600 C 111.338 70.327,110.994 80.648,111.545 84.200 C 111.784 85.740,112.247 88.710,112.573 90.800 C 113.200 94.812,114.304 98.725,115.860 102.450 C 116.377 103.688,116.800 104.910,116.800 105.167 C 116.800 106.848,123.622 118.776,127.228 123.400 C 132.012 129.535,141.949 138.756,148.996 143.600 C 149.796 144.150,151.384 145.338,152.525 146.239 C 153.666 147.141,155.140 148.178,155.800 148.544 C 157.643 149.567,158.493 150.120,159.728 151.100 C 160.351 151.595,161.096 152.000,161.382 152.000 C 161.668 152.000,162.137 152.283,162.424 152.629 C 162.711 152.975,163.658 153.650,164.527 154.129 C 167.026 155.505,167.548 155.831,168.297 156.480 C 168.684 156.814,170.170 157.755,171.600 158.570 C 173.030 159.384,175.010 160.570,176.000 161.204 C 176.990 161.839,178.520 162.728,179.400 163.180 C 180.280 163.632,181.720 164.444,182.600 164.984 C 184.112 165.912,185.868 166.864,188.600 168.238 C 189.260 168.570,190.070 169.014,190.400 169.226 C 190.730 169.437,191.765 169.961,192.700 170.391 C 193.635 170.820,194.400 171.350,194.400 171.568 C 194.400 171.786,195.034 172.083,195.810 172.228 C 196.585 172.374,197.455 172.828,197.742 173.239 C 198.029 173.649,198.957 174.128,199.803 174.304 C 201.955 174.751,202.115 175.600,200.047 175.600 C 198.838 175.600,198.320 175.398,198.000 174.800 C 197.735 174.305,197.158 173.998,196.486 173.994 C 195.889 173.991,194.950 173.728,194.400 173.410 C 193.850 173.092,193.130 172.715,192.800 172.572 C 191.834 172.154,187.936 170.392,186.200 169.588 C 185.320 169.180,183.970 168.570,183.200 168.231 C 182.430 167.893,181.530 167.445,181.200 167.235 C 180.870 167.026,179.340 166.290,177.800 165.600 C 176.260 164.910,174.730 164.190,174.400 163.999 C 174.070 163.809,171.400 162.426,168.467 160.927 C 162.393 157.822,160.466 156.785,158.200 155.407 C 157.320 154.872,155.880 154.055,155.000 153.593 C 153.036 152.560,151.378 151.613,149.800 150.624 C 149.140 150.210,147.970 149.482,147.200 149.005 C 144.123 147.101,142.402 145.987,137.859 142.959 C 135.251 141.222,132.731 139.548,132.259 139.239 C 130.325 137.976,127.770 136.203,127.324 135.814 C 127.062 135.586,126.196 134.950,125.399 134.400 C 124.602 133.850,123.016 132.674,121.875 131.787 C 120.734 130.901,119.350 129.871,118.800 129.499 C 118.250 129.127,116.900 128.190,115.800 127.417 C 111.249 124.220,108.211 125.944,107.539 132.104 C 106.880 138.149,108.022 149.429,109.878 155.200 C 110.196 156.190,110.691 157.916,110.977 159.036 C 111.264 160.157,111.774 161.507,112.110 162.036 C 112.446 162.566,112.843 163.583,112.992 164.295 C 113.140 165.008,113.443 165.703,113.664 165.839 C 113.885 165.976,114.419 166.833,114.850 167.744 C 115.281 168.655,116.075 170.120,116.614 171.000 C 117.153 171.880,117.882 173.219,118.235 173.977 C 120.180 178.160,130.649 189.324,136.000 192.921 C 136.550 193.291,137.990 194.249,139.200 195.051 C 140.410 195.852,141.850 196.815,142.400 197.191 C 142.950 197.566,144.072 198.095,144.894 198.366 C 145.716 198.637,146.484 199.012,146.600 199.200 C 146.716 199.388,147.484 199.758,148.306 200.021 C 149.128 200.285,150.070 200.723,150.400 200.994 C 150.730 201.265,151.898 201.706,152.995 201.973 C 154.092 202.241,155.179 202.617,155.411 202.809 C 155.643 203.002,156.717 203.357,157.798 203.600 C 158.879 203.842,160.312 204.295,160.982 204.607 C 161.652 204.918,163.370 205.439,164.800 205.764 C 167.164 206.301,169.789 206.931,174.200 208.019 C 175.080 208.236,176.700 208.587,177.800 208.798 C 178.900 209.009,181.240 209.466,183.000 209.813 C 186.112 210.427,194.489 211.539,196.300 211.580 C 197.553 211.608,197.426 212.255,196.100 212.597 C 194.144 213.101,184.114 212.835,181.086 212.198 C 179.499 211.864,176.490 211.412,174.400 211.193 C 170.572 210.792,165.538 209.804,160.000 208.367 C 158.350 207.938,156.100 207.421,155.000 207.218 C 153.900 207.014,152.280 206.593,151.400 206.282 C 150.520 205.971,149.080 205.587,148.200 205.429 C 147.320 205.270,146.221 204.897,145.758 204.600 C 145.296 204.302,144.216 203.931,143.358 203.775 C 142.501 203.619,141.170 203.181,140.400 202.800 C 139.630 202.419,138.333 201.987,137.517 201.839 C 136.702 201.691,135.250 201.223,134.292 200.800 C 132.048 199.807,130.522 200.180,129.271 202.027 C 128.286 203.482,128.291 203.818,129.348 207.490 C 130.411 211.183,131.967 214.083,136.830 221.432 C 138.190 223.489,144.569 230.071,146.918 231.842 C 148.283 232.871,149.670 233.957,150.000 234.255 C 151.473 235.583,153.148 236.800,153.504 236.800 C 153.717 236.800,154.351 237.161,154.912 237.602 C 156.063 238.507,163.549 242.400,164.139 242.400 C 164.350 242.400,165.440 242.830,166.561 243.355 C 167.683 243.881,169.392 244.441,170.359 244.601 C 171.327 244.760,172.688 245.128,173.384 245.419 C 175.300 246.220,183.135 247.271,189.287 247.552 C 196.630 247.888,196.604 247.858,193.713 252.800 C 192.491 254.890,191.110 257.261,190.645 258.068 C 190.180 258.876,188.900 261.099,187.800 263.009 C 186.700 264.919,185.401 267.139,184.914 267.941 C 184.427 268.744,183.755 269.973,183.420 270.673 C 183.086 271.373,182.627 272.060,182.400 272.200 C 182.173 272.340,181.727 273.027,181.408 273.727 C 181.090 274.427,180.276 275.900,179.600 277.000 C 178.924 278.100,178.110 279.573,177.792 280.273 C 177.473 280.973,177.047 281.647,176.845 281.772 C 176.644 281.897,176.291 282.536,176.062 283.194 C 175.237 285.560,175.452 285.599,189.129 285.605 C 204.240 285.612,205.088 285.835,202.809 289.204 C 200.970 291.923,200.467 292.724,198.969 295.322 C 198.106 296.818,196.821 298.978,196.114 300.122 C 195.407 301.265,194.636 302.560,194.400 303.000 C 194.164 303.440,193.351 304.790,192.593 306.000 C 191.835 307.210,190.935 308.740,190.593 309.400 C 190.250 310.060,189.437 311.410,188.786 312.400 C 188.135 313.390,187.335 314.773,187.007 315.473 C 186.680 316.173,186.227 316.860,186.000 317.000 C 185.773 317.140,185.320 317.827,184.993 318.527 C 184.665 319.227,183.865 320.610,183.214 321.600 C 182.563 322.590,181.753 323.940,181.414 324.600 C 181.075 325.260,180.259 326.610,179.600 327.600 C 178.941 328.590,178.125 329.940,177.786 330.600 C 177.447 331.260,176.647 332.610,176.008 333.600 C 175.368 334.590,174.105 336.660,173.200 338.200 C 172.295 339.740,171.032 341.810,170.392 342.800 C 167.931 346.612,167.390 348.845,168.753 349.575 C 169.537 349.994,170.941 349.138,177.635 344.160 C 179.084 343.082,180.671 341.930,181.161 341.600 C 182.162 340.927,187.369 337.163,188.600 336.223 C 190.495 334.777,192.467 333.331,193.814 332.400 C 194.610 331.850,195.693 331.040,196.221 330.600 C 196.749 330.160,197.823 329.350,198.607 328.800 C 200.190 327.690,202.574 325.953,203.800 325.016 C 204.240 324.680,205.950 323.418,207.600 322.212 C 211.884 319.080,211.908 319.063,215.074 316.723 C 216.654 315.556,218.346 314.330,218.834 314.000 C 219.741 313.385,225.837 308.942,230.295 305.645 C 231.667 304.630,233.430 303.350,234.213 302.800 C 234.996 302.250,236.700 300.990,238.000 300.000 C 239.300 299.010,241.010 297.750,241.800 297.200 C 242.590 296.650,244.300 295.390,245.600 294.400 C 246.900 293.410,248.557 292.181,249.282 291.669 C 251.709 289.954,263.971 281.015,269.508 276.925 C 271.649 275.343,273.993 273.633,274.718 273.125 C 275.443 272.616,277.131 271.345,278.469 270.300 C 279.807 269.255,281.014 268.393,281.151 268.385 C 281.288 268.377,282.099 267.771,282.954 267.039 L 284.509 265.709 283.654 264.854 C 282.822 264.022,282.507 264.000,271.464 264.000 L 260.128 264.000 259.663 262.978 C 259.213 261.992,259.579 261.574,270.299 250.828 C 297.167 223.893,296.826 224.283,300.779 216.079 C 303.084 211.298,302.920 201.255,300.461 196.583 C 297.841 191.604,295.890 189.221,292.067 186.335 C 290.820 185.393,288.450 183.524,286.800 182.180 C 285.150 180.836,282.540 178.777,281.000 177.604 C 279.460 176.431,277.930 175.231,277.600 174.937 C 277.270 174.642,270.160 168.793,261.800 161.937 C 253.440 155.082,246.420 149.259,246.200 148.999 C 245.980 148.739,243.550 146.669,240.800 144.400 C 238.050 142.131,235.620 140.071,235.400 139.823 C 235.180 139.575,232.750 137.477,230.000 135.162 C 227.250 132.847,224.202 130.243,223.228 129.376 C 218.448 125.126,217.117 123.966,213.637 121.023 C 211.572 119.275,209.497 117.475,209.028 117.023 C 208.558 116.570,206.845 115.030,205.221 113.600 C 203.597 112.170,201.983 110.721,201.634 110.381 C 201.285 110.040,199.200 108.241,197.000 106.383 C 194.800 104.525,192.820 102.804,192.600 102.559 C 192.032 101.928,184.735 95.426,181.363 92.548 C 179.803 91.217,178.170 89.783,177.734 89.363 C 177.298 88.944,175.618 87.430,174.000 86.000 C 172.382 84.570,170.772 83.130,170.422 82.800 C 170.071 82.470,168.410 81.005,166.730 79.544 C 165.051 78.084,162.998 76.284,162.168 75.544 C 159.059 72.774,156.621 70.575,155.798 69.800 C 155.331 69.360,153.612 67.830,151.978 66.400 C 147.739 62.691,146.910 61.954,140.000 55.756 C 136.590 52.697,132.630 49.217,131.200 48.022 C 129.770 46.827,128.399 45.611,128.154 45.321 C 126.252 43.074,122.479 42.329,120.345 43.779 M205.091 176.900 C 204.896 177.457,202.824 177.366,202.220 176.773 C 201.984 176.541,202.489 176.400,203.553 176.400 C 204.751 176.400,205.214 176.551,205.091 176.900 M208.974 178.842 C 208.683 179.313,206.911 179.303,206.618 178.829 C 206.491 178.624,206.796 178.391,207.294 178.311 C 208.449 178.124,209.259 178.380,208.974 178.842 " stroke="none" fill="#f9fafc" fill-rule="evenodd"></path><path id="path1" d="M67.600 0.400 C 67.600 0.621,66.550 0.800,65.250 0.800 C 61.788 0.800,60.400 1.158,60.400 2.050 C 60.400 2.712,60.071 2.800,57.600 2.800 C 54.880 2.800,54.800 2.829,54.800 3.800 C 54.800 4.771,54.720 4.800,52.000 4.800 C 49.523 4.800,49.200 4.887,49.200 5.555 C 49.200 6.142,48.802 6.369,47.400 6.579 C 45.978 6.792,45.600 7.012,45.600 7.625 C 45.600 8.216,45.321 8.400,44.421 8.400 C 43.717 8.400,42.806 8.803,42.162 9.400 C 41.569 9.950,40.839 10.400,40.542 10.400 C 40.244 10.400,40.000 10.750,40.000 11.178 C 40.000 11.823,39.674 11.977,38.100 12.078 C 36.479 12.182,36.181 12.332,36.072 13.100 C 35.990 13.678,35.668 14.000,35.172 14.000 C 34.682 14.000,34.400 14.276,34.400 14.755 C 34.400 15.342,34.002 15.569,32.600 15.779 C 31.178 15.992,30.800 16.212,30.800 16.825 C 30.800 17.385,30.523 17.600,29.800 17.600 C 29.000 17.600,28.800 17.800,28.800 18.600 C 28.800 19.400,28.600 19.600,27.800 19.600 C 27.067 19.600,26.800 19.813,26.800 20.400 C 26.800 20.933,26.533 21.200,26.000 21.200 C 25.413 21.200,25.200 21.467,25.200 22.200 C 25.200 23.000,25.000 23.200,24.200 23.200 C 23.400 23.200,23.200 23.400,23.200 24.200 C 23.200 25.000,23.000 25.200,22.200 25.200 C 21.467 25.200,21.200 25.413,21.200 26.000 C 21.200 26.533,20.933 26.800,20.400 26.800 C 19.813 26.800,19.600 27.067,19.600 27.800 C 19.600 28.600,19.400 28.800,18.600 28.800 C 17.800 28.800,17.600 29.000,17.600 29.800 C 17.600 30.523,17.385 30.800,16.825 30.800 C 16.212 30.800,15.992 31.178,15.779 32.600 C 15.569 34.002,15.342 34.400,14.755 34.400 C 14.276 34.400,14.000 34.682,14.000 35.172 C 14.000 35.668,13.678 35.990,13.100 36.072 C 12.456 36.164,12.164 36.512,12.073 37.300 C 12.002 37.922,11.701 38.400,11.381 38.400 C 11.070 38.400,10.705 38.895,10.570 39.500 C 10.084 41.684,9.962 41.917,9.187 42.119 C 8.566 42.282,8.400 42.671,8.400 43.963 C 8.400 45.302,8.262 45.600,7.643 45.600 C 6.781 45.600,6.400 46.345,6.400 48.033 C 6.400 48.933,6.217 49.200,5.600 49.200 C 4.876 49.200,4.800 49.467,4.800 52.000 C 4.800 54.720,4.771 54.800,3.800 54.800 C 2.829 54.800,2.800 54.880,2.800 57.600 C 2.800 60.081,2.714 60.400,2.043 60.400 C 1.072 60.400,0.800 61.151,0.800 63.833 C 0.800 65.025,0.620 66.000,0.400 66.000 C 0.134 66.000,0.000 110.933,0.000 200.000 C 0.000 284.790,0.140 334.000,0.382 334.000 C 0.592 334.000,0.817 335.215,0.882 336.700 C 0.989 339.153,1.082 339.412,1.900 339.528 C 2.734 339.646,2.800 339.858,2.800 342.428 C 2.800 345.118,2.830 345.200,3.800 345.200 C 4.771 345.200,4.800 345.280,4.800 348.000 C 4.800 350.506,4.882 350.800,5.577 350.800 C 6.205 350.800,6.378 351.126,6.477 352.500 C 6.579 353.913,6.752 354.222,7.500 354.328 C 8.279 354.438,8.400 354.695,8.400 356.228 C 8.400 357.203,8.567 358.000,8.771 358.000 C 9.525 358.000,10.400 359.290,10.400 360.402 C 10.400 361.182,10.646 361.624,11.175 361.792 C 11.601 361.927,12.006 362.434,12.075 362.919 C 12.154 363.479,12.528 363.847,13.100 363.928 C 13.795 364.027,14.000 364.318,14.000 365.205 C 14.000 365.871,14.313 366.575,14.743 366.877 C 15.151 367.165,15.607 367.786,15.756 368.257 C 15.905 368.728,16.381 369.206,16.813 369.319 C 17.280 369.441,17.600 369.866,17.600 370.363 C 17.600 370.989,17.852 371.200,18.600 371.200 C 19.400 371.200,19.600 371.400,19.600 372.200 C 19.600 372.933,19.813 373.200,20.400 373.200 C 20.933 373.200,21.200 373.467,21.200 374.000 C 21.200 374.587,21.467 374.800,22.200 374.800 C 23.000 374.800,23.200 375.000,23.200 375.800 C 23.200 376.600,23.400 376.800,24.200 376.800 C 25.000 376.800,25.200 377.000,25.200 377.800 C 25.200 378.533,25.413 378.800,26.000 378.800 C 26.533 378.800,26.800 379.067,26.800 379.600 C 26.800 380.187,27.067 380.400,27.800 380.400 C 28.600 380.400,28.800 380.600,28.800 381.400 C 28.800 382.148,29.011 382.400,29.637 382.400 C 30.134 382.400,30.559 382.720,30.681 383.187 C 30.794 383.619,31.272 384.095,31.743 384.244 C 32.214 384.393,32.835 384.849,33.123 385.257 C 33.425 385.687,34.129 386.000,34.795 386.000 C 35.682 386.000,35.973 386.205,36.072 386.900 C 36.153 387.472,36.521 387.846,37.081 387.925 C 37.566 387.994,38.073 388.399,38.208 388.825 C 38.376 389.354,38.818 389.600,39.598 389.600 C 40.710 389.600,42.000 390.475,42.000 391.229 C 42.000 391.433,42.797 391.600,43.772 391.600 C 45.305 391.600,45.562 391.721,45.672 392.500 C 45.778 393.248,46.087 393.421,47.500 393.523 C 48.874 393.622,49.200 393.795,49.200 394.423 C 49.200 395.118,49.494 395.200,52.000 395.200 C 54.720 395.200,54.800 395.229,54.800 396.200 C 54.800 397.170,54.882 397.200,57.572 397.200 C 60.142 397.200,60.354 397.266,60.472 398.100 C 60.588 398.918,60.847 399.011,63.300 399.118 C 64.785 399.183,66.000 399.408,66.000 399.618 C 66.000 399.860,115.210 400.000,200.000 400.000 C 289.067 400.000,334.000 399.866,334.000 399.600 C 334.000 399.380,334.975 399.200,336.167 399.200 C 338.849 399.200,339.600 398.928,339.600 397.957 C 339.600 397.286,339.919 397.200,342.400 397.200 C 345.120 397.200,345.200 397.171,345.200 396.200 C 345.200 395.229,345.280 395.200,348.000 395.200 C 350.533 395.200,350.800 395.124,350.800 394.400 C 350.800 393.783,351.067 393.600,351.967 393.600 C 353.655 393.600,354.400 393.219,354.400 392.357 C 354.400 391.738,354.698 391.600,356.037 391.600 C 357.341 391.600,357.718 391.436,357.885 390.796 C 358.004 390.342,358.554 389.890,359.148 389.758 C 361.277 389.287,361.600 389.135,361.600 388.600 C 361.600 388.299,362.095 387.996,362.700 387.927 C 363.488 387.836,363.836 387.544,363.928 386.900 C 364.010 386.322,364.332 386.000,364.828 386.000 C 365.318 386.000,365.600 385.724,365.600 385.245 C 365.600 384.658,365.998 384.431,367.400 384.221 C 368.822 384.008,369.200 383.788,369.200 383.175 C 369.200 382.615,369.477 382.400,370.200 382.400 C 371.000 382.400,371.200 382.200,371.200 381.400 C 371.200 380.600,371.400 380.400,372.200 380.400 C 372.933 380.400,373.200 380.187,373.200 379.600 C 373.200 379.067,373.467 378.800,374.000 378.800 C 374.587 378.800,374.800 378.533,374.800 377.800 C 374.800 377.000,375.000 376.800,375.800 376.800 C 376.600 376.800,376.800 376.600,376.800 375.800 C 376.800 375.000,377.000 374.800,377.800 374.800 C 378.533 374.800,378.800 374.587,378.800 374.000 C 378.800 373.467,379.067 373.200,379.600 373.200 C 380.187 373.200,380.400 372.933,380.400 372.200 C 380.400 371.400,380.600 371.200,381.400 371.200 C 382.200 371.200,382.400 371.000,382.400 370.200 C 382.400 369.477,382.615 369.200,383.175 369.200 C 383.788 369.200,384.008 368.822,384.221 367.400 C 384.431 365.998,384.658 365.600,385.245 365.600 C 385.724 365.600,386.000 365.318,386.000 364.828 C 386.000 364.332,386.322 364.010,386.900 363.928 C 387.668 363.819,387.818 363.521,387.922 361.900 C 388.023 360.326,388.177 360.000,388.822 360.000 C 389.250 360.000,389.600 359.756,389.600 359.458 C 389.600 359.161,390.050 358.431,390.600 357.838 C 391.197 357.194,391.600 356.283,391.600 355.579 C 391.600 354.679,391.784 354.400,392.375 354.400 C 392.988 354.400,393.208 354.022,393.421 352.600 C 393.631 351.198,393.858 350.800,394.445 350.800 C 395.113 350.800,395.200 350.477,395.200 348.000 C 395.200 345.280,395.229 345.200,396.200 345.200 C 397.171 345.200,397.200 345.120,397.200 342.400 C 397.200 339.929,397.288 339.600,397.950 339.600 C 398.842 339.600,399.200 338.212,399.200 334.750 C 399.200 333.450,399.379 332.400,399.600 332.400 C 399.866 332.400,400.000 288.000,400.000 200.000 C 400.000 112.000,399.866 67.600,399.600 67.600 C 399.375 67.600,399.200 66.475,399.200 65.026 C 399.200 62.104,398.695 60.400,397.828 60.400 C 397.376 60.400,397.209 59.763,397.118 57.700 C 397.011 55.247,396.918 54.988,396.100 54.872 C 395.266 54.754,395.200 54.542,395.200 51.972 C 395.200 49.530,395.111 49.200,394.451 49.200 C 393.889 49.200,393.640 48.808,393.451 47.627 C 393.277 46.540,392.952 45.975,392.400 45.800 C 391.889 45.638,391.600 45.195,391.600 44.573 C 391.600 43.886,391.378 43.600,390.845 43.600 C 390.258 43.600,390.031 43.202,389.821 41.800 C 389.611 40.399,389.384 40.000,388.797 40.000 C 388.182 40.000,388.021 39.651,387.922 38.100 C 387.818 36.479,387.668 36.181,386.900 36.072 C 386.322 35.990,386.000 35.668,386.000 35.172 C 386.000 34.667,385.724 34.400,385.200 34.400 C 384.610 34.400,384.400 34.133,384.400 33.382 C 384.400 32.822,383.964 31.928,383.432 31.396 C 382.900 30.863,382.403 30.106,382.328 29.714 C 382.253 29.321,381.789 28.942,381.296 28.872 C 380.649 28.780,380.400 28.474,380.400 27.772 C 380.400 27.067,380.181 26.800,379.600 26.800 C 379.067 26.800,378.800 26.533,378.800 26.000 C 378.800 25.413,378.533 25.200,377.800 25.200 C 377.000 25.200,376.800 25.000,376.800 24.200 C 376.800 23.400,376.600 23.200,375.800 23.200 C 375.000 23.200,374.800 23.000,374.800 22.200 C 374.800 21.467,374.587 21.200,374.000 21.200 C 373.467 21.200,373.200 20.933,373.200 20.400 C 373.200 19.819,372.933 19.600,372.228 19.600 C 371.526 19.600,371.220 19.351,371.128 18.704 C 371.058 18.211,370.679 17.747,370.286 17.672 C 369.894 17.597,369.137 17.100,368.604 16.568 C 368.072 16.036,367.178 15.600,366.618 15.600 C 365.867 15.600,365.600 15.390,365.600 14.800 C 365.600 14.276,365.333 14.000,364.828 14.000 C 364.332 14.000,364.010 13.678,363.928 13.100 C 363.819 12.332,363.521 12.182,361.900 12.078 C 360.349 11.979,360.000 11.818,360.000 11.203 C 360.000 10.616,359.601 10.389,358.200 10.179 C 356.798 9.969,356.400 9.742,356.400 9.155 C 356.400 8.622,356.114 8.400,355.427 8.400 C 354.805 8.400,354.362 8.111,354.200 7.600 C 354.025 7.048,353.460 6.723,352.373 6.549 C 351.192 6.360,350.800 6.111,350.800 5.549 C 350.800 4.889,350.470 4.800,348.028 4.800 C 345.458 4.800,345.246 4.734,345.128 3.900 C 345.012 3.082,344.753 2.989,342.300 2.882 C 340.237 2.791,339.600 2.624,339.600 2.172 C 339.600 1.305,337.896 0.800,334.974 0.800 C 333.525 0.800,332.400 0.625,332.400 0.400 C 332.400 0.134,288.000 0.000,200.000 0.000 C 112.000 0.000,67.600 0.134,67.600 0.400 M125.832 43.797 C 126.864 44.345,127.908 45.031,128.154 45.321 C 128.399 45.611,129.770 46.827,131.200 48.022 C 132.630 49.217,136.590 52.697,140.000 55.756 C 146.910 61.954,147.739 62.691,151.978 66.400 C 153.612 67.830,155.331 69.360,155.798 69.800 C 156.621 70.575,159.059 72.774,162.168 75.544 C 162.998 76.284,165.051 78.084,166.730 79.544 C 168.410 81.005,170.071 82.470,170.422 82.800 C 170.772 83.130,172.382 84.570,174.000 86.000 C 175.618 87.430,177.298 88.944,177.734 89.363 C 178.170 89.783,179.803 91.217,181.363 92.548 C 184.735 95.426,192.032 101.928,192.600 102.559 C 192.820 102.804,194.800 104.525,197.000 106.383 C 199.200 108.241,201.285 110.040,201.634 110.381 C 201.983 110.721,203.597 112.170,205.221 113.600 C 206.845 115.030,208.558 116.570,209.028 117.023 C 209.497 117.475,211.572 119.275,213.637 121.023 C 217.117 123.966,218.448 125.126,223.228 129.376 C 224.202 130.243,227.250 132.847,230.000 135.162 C 232.750 137.477,235.180 139.575,235.400 139.823 C 235.620 140.071,238.050 142.131,240.800 144.400 C 243.550 146.669,245.980 148.739,246.200 148.999 C 246.420 149.259,253.440 155.082,261.800 161.937 C 270.160 168.793,277.270 174.642,277.600 174.937 C 277.930 175.231,279.460 176.431,281.000 177.604 C 282.540 178.777,285.150 180.836,286.800 182.180 C 288.450 183.524,290.820 185.393,292.067 186.335 C 298.857 191.461,302.411 198.242,302.438 206.119 C 302.451 209.760,301.725 214.117,300.779 216.079 C 296.826 224.283,297.167 223.893,270.299 250.828 C 259.579 261.574,259.213 261.992,259.663 262.978 L 260.128 264.000 271.464 264.000 C 282.507 264.000,282.822 264.022,283.654 264.854 L 284.509 265.709 282.954 267.039 C 282.099 267.771,281.288 268.377,281.151 268.385 C 281.014 268.393,279.807 269.255,278.469 270.300 C 277.131 271.345,275.443 272.616,274.718 273.125 C 273.993 273.633,271.649 275.343,269.508 276.925 C 263.971 281.015,251.709 289.954,249.282 291.669 C 248.557 292.181,246.900 293.410,245.600 294.400 C 244.300 295.390,242.590 296.650,241.800 297.200 C 241.010 297.750,239.300 299.010,238.000 300.000 C 236.700 300.990,234.996 302.250,234.213 302.800 C 233.430 303.350,231.667 304.630,230.295 305.645 C 225.837 308.942,219.741 313.385,218.834 314.000 C 218.346 314.330,216.654 315.556,215.074 316.723 C 211.908 319.063,211.884 319.080,207.600 322.212 C 205.950 323.418,204.240 324.680,203.800 325.016 C 202.574 325.953,200.190 327.690,198.607 328.800 C 197.823 329.350,196.749 330.160,196.221 330.600 C 195.693 331.040,194.610 331.850,193.814 332.400 C 192.467 333.331,190.495 334.777,188.600 336.223 C 187.369 337.163,182.162 340.927,181.161 341.600 C 180.671 341.930,179.084 343.082,177.635 344.160 C 170.941 349.138,169.537 349.994,168.753 349.575 C 167.390 348.845,167.931 346.612,170.392 342.800 C 171.032 341.810,172.295 339.740,173.200 338.200 C 174.105 336.660,175.368 334.590,176.008 333.600 C 176.647 332.610,177.447 331.260,177.786 330.600 C 178.125 329.940,178.941 328.590,179.600 327.600 C 180.259 326.610,181.075 325.260,181.414 324.600 C 181.753 323.940,182.563 322.590,183.214 321.600 C 183.865 320.610,184.665 319.227,184.993 318.527 C 185.320 317.827,185.773 317.140,186.000 317.000 C 186.227 316.860,186.680 316.173,187.007 315.473 C 187.335 314.773,188.135 313.390,188.786 312.400 C 189.437 311.410,190.250 310.060,190.593 309.400 C 190.935 308.740,191.835 307.210,192.593 306.000 C 193.351 304.790,194.164 303.440,194.400 303.000 C 194.636 302.560,195.407 301.265,196.114 300.122 C 196.821 298.978,198.106 296.818,198.969 295.322 C 200.467 292.724,200.970 291.923,202.809 289.204 C 205.088 285.835,204.240 285.612,189.129 285.605 C 175.452 285.599,175.237 285.560,176.062 283.194 C 176.291 282.536,176.644 281.897,176.845 281.772 C 177.047 281.647,177.473 280.973,177.792 280.273 C 178.110 279.573,178.924 278.100,179.600 277.000 C 180.276 275.900,181.090 274.427,181.408 273.727 C 181.727 273.027,182.173 272.340,182.400 272.200 C 182.627 272.060,183.086 271.373,183.420 270.673 C 183.755 269.973,184.427 268.744,184.914 267.941 C 185.401 267.139,186.700 264.919,187.800 263.009 C 188.900 261.099,190.180 258.876,190.645 258.068 C 191.110 257.261,192.491 254.890,193.713 252.800 C 196.604 247.858,196.630 247.888,189.287 247.552 C 183.135 247.271,175.300 246.220,173.384 245.419 C 172.688 245.128,171.327 244.760,170.359 244.601 C 169.392 244.441,167.683 243.881,166.561 243.355 C 165.440 242.830,164.350 242.400,164.139 242.400 C 163.549 242.400,156.063 238.507,154.912 237.602 C 154.351 237.161,153.717 236.800,153.504 236.800 C 153.148 236.800,151.473 235.583,150.000 234.255 C 149.670 233.957,148.283 232.871,146.918 231.842 C 144.569 230.071,138.190 223.489,136.830 221.432 C 131.967 214.083,130.411 211.183,129.348 207.490 C 128.291 203.818,128.286 203.482,129.271 202.027 C 130.522 200.180,132.048 199.807,134.292 200.800 C 135.250 201.223,136.702 201.691,137.517 201.839 C 138.333 201.987,139.630 202.419,140.400 202.800 C 141.170 203.181,142.501 203.619,143.358 203.775 C 144.216 203.931,145.296 204.302,145.758 204.600 C 146.221 204.897,147.320 205.270,148.200 205.429 C 149.080 205.587,150.520 205.971,151.400 206.282 C 152.280 206.593,153.900 207.014,155.000 207.218 C 156.100 207.421,158.350 207.938,160.000 208.367 C 165.538 209.804,170.572 210.792,174.400 211.193 C 176.490 211.412,179.499 211.864,181.086 212.198 C 184.114 212.835,194.144 213.101,196.100 212.597 C 197.426 212.255,197.553 211.608,196.300 211.580 C 194.489 211.539,186.112 210.427,183.000 209.813 C 181.240 209.466,178.900 209.009,177.800 208.798 C 176.700 208.587,175.080 208.236,174.200 208.019 C 169.789 206.931,167.164 206.301,164.800 205.764 C 163.370 205.439,161.652 204.918,160.982 204.607 C 160.312 204.295,158.879 203.842,157.798 203.600 C 156.717 203.357,155.643 203.002,155.411 202.809 C 155.179 202.617,154.092 202.241,152.995 201.973 C 151.898 201.706,150.730 201.265,150.400 200.994 C 150.070 200.723,149.128 200.285,148.306 200.021 C 147.484 199.758,146.716 199.388,146.600 199.200 C 146.484 199.012,145.716 198.637,144.894 198.366 C 144.072 198.095,142.950 197.566,142.400 197.191 C 141.850 196.815,140.410 195.852,139.200 195.051 C 137.990 194.249,136.550 193.291,136.000 192.921 C 130.649 189.324,120.180 178.160,118.235 173.977 C 117.882 173.219,117.153 171.880,116.614 171.000 C 116.075 170.120,115.281 168.655,114.850 167.744 C 114.419 166.833,113.885 165.976,113.664 165.839 C 113.443 165.703,113.140 165.008,112.992 164.295 C 112.843 163.583,112.446 162.566,112.110 162.036 C 111.774 161.507,111.264 160.157,110.977 159.036 C 110.691 157.916,110.196 156.190,109.878 155.200 C 108.022 149.429,106.880 138.149,107.539 132.104 C 108.211 125.944,111.249 124.220,115.800 127.417 C 116.900 128.190,118.250 129.127,118.800 129.499 C 119.350 129.871,120.734 130.901,121.875 131.787 C 123.016 132.674,124.602 133.850,125.399 134.400 C 126.196 134.950,127.062 135.586,127.324 135.814 C 127.770 136.203,130.325 137.976,132.259 139.239 C 132.731 139.548,135.251 141.222,137.859 142.959 C 142.402 145.987,144.123 147.101,147.200 149.005 C 147.970 149.482,149.140 150.210,149.800 150.624 C 151.378 151.613,153.036 152.560,155.000 153.593 C 155.880 154.055,157.320 154.872,158.200 155.407 C 160.466 156.785,162.393 157.822,168.467 160.927 C 171.400 162.426,174.070 163.809,174.400 163.999 C 174.730 164.190,176.260 164.910,177.800 165.600 C 179.340 166.290,180.870 167.026,181.200 167.235 C 181.530 167.445,182.430 167.893,183.200 168.231 C 183.970 168.570,185.320 169.180,186.200 169.588 C 187.936 170.392,191.834 172.154,192.800 172.572 C 193.130 172.715,193.850 173.092,194.400 173.410 C 194.950 173.728,195.889 173.991,196.486 173.994 C 197.158 173.998,197.735 174.305,198.000 174.800 C 198.320 175.398,198.838 175.600,200.047 175.600 C 202.115 175.600,201.955 174.751,199.803 174.304 C 198.957 174.128,198.029 173.649,197.742 173.239 C 197.455 172.828,196.585 172.374,195.810 172.228 C 195.034 172.083,194.400 171.786,194.400 171.568 C 194.400 171.350,193.635 170.820,192.700 170.391 C 191.765 169.961,190.730 169.437,190.400 169.226 C 190.070 169.014,189.260 168.570,188.600 168.238 C 185.868 166.864,184.112 165.912,182.600 164.984 C 181.720 164.444,180.280 163.632,179.400 163.180 C 178.520 162.728,176.990 161.839,176.000 161.204 C 175.010 160.570,173.030 159.384,171.600 158.570 C 170.170 157.755,168.684 156.814,168.297 156.480 C 167.548 155.831,167.026 155.505,164.527 154.129 C 163.658 153.650,162.711 152.975,162.424 152.629 C 162.137 152.283,161.668 152.000,161.382 152.000 C 161.096 152.000,160.351 151.595,159.728 151.100 C 158.493 150.120,157.643 149.567,155.800 148.544 C 155.140 148.178,153.666 147.141,152.525 146.239 C 151.384 145.338,149.796 144.150,148.996 143.600 C 141.949 138.756,132.012 129.535,127.228 123.400 C 123.622 118.776,116.800 106.848,116.800 105.167 C 116.800 104.910,116.377 103.688,115.860 102.450 C 114.304 98.725,113.200 94.812,112.573 90.800 C 112.247 88.710,111.784 85.740,111.545 84.200 C 110.994 80.648,111.338 70.327,112.131 66.600 C 112.459 65.060,112.910 62.720,113.134 61.400 C 115.529 47.283,120.203 40.804,125.832 43.797 M202.220 176.773 C 202.824 177.366,204.896 177.457,205.091 176.900 C 205.214 176.551,204.751 176.400,203.553 176.400 C 202.489 176.400,201.984 176.541,202.220 176.773 M207.294 178.311 C 206.796 178.391,206.491 178.624,206.618 178.829 C 206.911 179.303,208.683 179.313,208.974 178.842 C 209.259 178.380,208.449 178.124,207.294 178.311 " stroke="none" fill="#0476fc" fill-rule="evenodd"></path></g></svg>