<svg id="svg" version="1.1" xmlns="http://www.w3.org/2000/svg" xmlns:xlink="http://www.w3.org/1999/xlink" width="48" height="48" viewBox="0 0 400 400"><g id="svgg"><path id="path0" d="M278.823 36.972 C 278.347 37.546,278.652 38.800,279.269 38.800 C 279.869 38.800,281.200 38.007,281.200 37.650 C 281.200 36.965,279.283 36.418,278.823 36.972 M285.509 41.986 C 284.049 43.134,283.833 44.705,284.413 49.957 C 285.096 56.142,285.793 56.935,291.304 57.794 C 293.451 58.129,295.350 58.447,295.524 58.501 C 295.866 58.608,299.603 54.557,299.595 54.087 C 299.593 53.929,299.144 52.005,298.598 49.812 C 297.389 44.954,296.961 44.484,292.200 42.789 C 287.295 41.042,286.786 40.981,285.509 41.986 M61.335 61.673 C 59.907 62.363,59.913 62.198,59.610 109.000 L 59.318 154.200 60.244 155.600 C 62.743 159.379,59.208 159.114,107.864 159.162 C 149.939 159.204,148.008 159.312,152.536 156.659 C 155.022 155.202,155.175 154.211,153.062 153.238 C 150.514 152.064,149.297 150.837,147.870 148.000 C 146.765 145.805,146.276 145.262,144.724 144.512 C 142.338 143.360,140.581 141.576,139.987 139.700 C 139.213 137.262,138.484 136.427,136.268 135.447 C 129.299 132.365,129.255 117.849,136.202 113.778 C 137.232 113.174,138.364 112.048,138.954 111.043 C 140.226 108.871,142.680 106.649,145.017 105.550 C 146.259 104.966,147.075 104.235,147.585 103.247 C 148.649 101.187,151.014 99.074,153.822 97.674 C 155.154 97.011,157.015 95.823,157.957 95.036 C 160.913 92.566,169.572 88.590,173.600 87.852 C 180.941 86.509,185.149 80.726,180.854 77.883 L 179.217 76.800 170.909 76.798 C 165.529 76.796,161.190 76.582,158.600 76.190 C 144.471 74.051,144.165 74.049,133.971 76.025 C 131.691 76.467,128.288 76.800,126.055 76.800 C 122.302 76.800,114.435 77.396,112.457 77.830 C 111.938 77.944,110.479 79.064,109.215 80.318 C 107.249 82.269,106.110 82.957,101.358 85.060 L 95.800 87.520 91.331 86.784 C 84.963 85.735,83.023 84.573,80.817 80.489 C 80.091 79.144,79.343 78.394,78.200 77.864 C 75.515 76.619,72.800 73.395,72.800 71.451 C 72.800 70.745,70.565 68.800,69.753 68.800 C 67.715 68.800,64.968 66.229,64.198 63.600 C 63.898 62.574,62.863 61.179,62.438 61.227 C 62.307 61.242,61.811 61.442,61.335 61.673 M235.948 61.874 C 234.701 62.648,234.229 64.934,233.531 73.567 C 233.050 79.527,232.507 81.019,230.354 82.291 C 228.332 83.485,225.828 87.127,225.051 90.000 C 224.665 91.430,223.909 93.355,223.370 94.278 L 222.392 95.956 224.141 97.159 C 227.481 99.457,228.730 99.747,233.260 99.271 C 238.142 98.758,238.586 98.431,240.850 93.691 C 242.663 89.898,244.539 88.208,247.420 87.776 C 248.598 87.599,249.248 87.279,249.400 86.800 C 249.901 85.223,252.697 84.812,257.990 85.536 C 260.338 85.857,271.733 86.000,295.085 86.000 L 328.791 86.000 331.195 87.828 C 333.688 89.724,335.194 91.847,335.999 94.603 C 336.922 97.755,336.930 97.758,341.805 96.934 C 346.023 96.220,346.090 96.191,346.806 94.805 C 348.406 91.708,351.769 89.397,356.424 88.197 C 361.033 87.009,362.554 85.911,363.967 82.751 C 365.694 78.889,365.209 77.784,361.200 76.442 C 358.873 75.663,356.903 74.119,355.773 72.189 C 354.500 70.018,354.118 70.039,352.342 72.378 C 348.932 76.872,349.299 76.839,301.904 76.828 C 253.982 76.816,247.655 77.248,247.031 80.577 C 246.608 82.829,245.728 83.144,245.394 81.163 C 245.236 80.231,244.526 78.724,243.789 77.759 C 241.981 75.389,241.041 72.621,240.206 67.200 C 239.323 61.471,238.419 60.341,235.948 61.874 M317.642 111.447 C 316.015 112.207,314.215 113.150,313.642 113.542 C 313.069 113.934,311.833 114.475,310.896 114.745 C 308.859 115.330,306.577 117.483,306.207 119.169 C 306.060 119.839,305.234 121.240,304.371 122.284 C 299.356 128.353,299.984 133.911,305.515 132.424 C 306.332 132.204,308.344 131.834,309.986 131.601 C 313.382 131.120,314.253 130.514,315.906 127.475 C 317.603 124.359,319.133 123.702,325.815 123.225 C 335.437 122.538,338.972 121.341,336.954 119.453 C 335.785 118.360,327.013 112.400,326.573 112.400 C 326.442 112.400,325.104 111.860,323.600 111.200 C 322.096 110.540,320.806 110.015,320.733 110.033 C 320.660 110.051,319.269 110.687,317.642 111.447 M251.537 114.370 C 249.442 115.042,247.970 116.209,247.192 117.818 C 245.960 120.362,246.137 120.857,248.726 122.081 C 249.983 122.675,251.761 123.804,252.678 124.588 C 253.605 125.382,254.453 125.839,254.589 125.618 C 255.486 124.167,260.129 123.473,270.800 123.196 C 285.075 122.826,288.040 122.015,286.458 118.914 C 284.229 114.546,282.937 114.238,266.400 114.124 C 258.810 114.072,252.122 114.183,251.537 114.370 M289.200 134.393 C 287.084 134.620,281.720 136.547,280.888 137.378 C 280.801 137.466,281.201 138.227,281.777 139.069 C 282.354 139.911,283.186 141.777,283.626 143.215 L 284.426 145.830 283.614 148.460 C 282.780 151.160,282.044 152.319,278.996 155.731 C 276.544 158.476,268.989 159.319,246.200 159.393 C 228.612 159.450,227.650 159.491,224.404 160.336 C 219.048 161.731,218.845 162.405,223.130 164.567 C 224.598 165.309,226.610 166.622,227.600 167.486 C 231.813 171.164,237.130 172.311,239.691 170.094 C 243.713 166.614,243.542 166.645,260.000 166.317 C 268.030 166.157,275.590 165.856,276.800 165.648 C 282.053 164.743,284.251 169.033,284.685 181.038 C 285.105 192.668,284.131 193.499,269.436 194.030 C 258.636 194.421,251.982 195.402,254.643 196.212 C 258.231 197.303,260.201 199.375,261.178 203.083 C 261.745 205.232,261.560 205.148,267.095 205.764 C 273.936 206.526,275.942 207.558,277.846 211.300 C 278.875 213.321,279.016 213.402,280.500 212.838 C 281.893 212.308,287.295 205.365,288.346 202.753 C 288.843 201.517,289.914 199.537,290.725 198.353 L 292.200 196.200 292.400 183.400 L 292.600 170.600 293.760 168.626 C 295.362 165.901,299.899 161.467,302.365 160.218 L 304.414 159.179 324.790 159.193 C 348.161 159.208,348.608 159.153,352.305 155.805 L 354.136 154.147 350.368 152.774 L 346.600 151.401 331.600 151.531 C 304.363 151.766,301.956 150.785,299.835 138.585 C 299.008 133.835,298.021 133.445,289.200 134.393 M90.611 202.728 C 87.082 203.389,87.006 203.427,86.129 205.000 C 84.894 207.216,83.204 208.626,80.765 209.476 C 77.486 210.620,77.032 211.527,77.160 216.678 C 77.259 220.685,78.119 224.000,79.058 224.000 C 79.383 224.000,85.168 221.096,86.410 220.309 C 87.263 219.768,89.829 219.667,105.000 219.572 C 127.210 219.433,129.012 219.473,129.671 220.114 C 129.962 220.396,131.054 221.123,132.098 221.729 C 139.379 225.957,142.263 230.315,143.795 239.400 C 144.921 246.074,145.361 247.474,146.657 248.507 C 150.140 251.283,150.304 255.265,147.034 257.661 C 143.135 260.518,143.158 260.516,113.939 260.618 C 84.465 260.720,85.963 260.565,84.366 263.677 C 82.855 266.619,80.455 267.731,74.272 268.357 C 70.232 268.765,69.297 269.362,67.960 272.384 C 66.929 274.715,65.785 275.928,63.800 276.796 C 61.197 277.935,60.853 278.582,60.389 283.228 C 59.758 289.536,58.551 292.085,55.187 294.208 L 53.570 295.229 53.685 308.948 L 53.800 322.668 55.048 324.088 C 56.618 325.876,59.860 332.261,60.452 334.731 C 61.119 337.516,61.769 338.286,64.509 339.544 C 67.399 340.870,68.440 341.884,69.599 344.505 L 70.437 346.400 74.480 346.400 C 76.703 346.400,80.970 346.671,83.961 347.003 C 94.841 348.210,95.532 348.229,102.400 347.497 C 106.030 347.110,112.162 346.650,116.026 346.474 C 122.782 346.166,123.105 346.113,124.448 345.089 C 125.216 344.503,126.682 343.653,127.705 343.201 C 128.729 342.748,129.676 342.201,129.809 341.986 C 130.189 341.371,132.338 340.348,135.600 339.229 C 138.339 338.290,138.664 338.061,139.339 336.600 C 142.473 329.813,150.086 330.615,151.629 337.895 C 151.898 339.163,152.413 341.550,152.774 343.200 L 153.430 346.200 158.298 346.312 C 164.068 346.445,163.742 346.698,165.430 340.800 L 166.518 337.000 166.181 325.200 C 165.771 310.817,165.769 304.870,166.168 272.200 C 166.597 237.033,166.804 238.923,161.373 228.400 C 160.862 227.410,160.121 225.340,159.727 223.800 C 159.282 222.059,158.370 220.032,157.316 218.442 C 156.384 217.035,155.325 215.106,154.962 214.156 C 154.231 212.242,153.934 212.106,146.940 210.479 C 145.147 210.062,143.078 209.369,142.342 208.939 C 141.090 208.207,140.673 207.694,138.596 204.319 C 137.404 202.383,136.687 202.320,114.400 202.181 C 96.814 202.072,93.735 202.143,90.611 202.728 M247.400 241.173 C 244.507 241.476,242.874 242.296,241.261 244.253 L 240.049 245.722 242.041 247.513 C 243.137 248.498,244.573 250.089,245.233 251.048 C 245.893 252.007,247.641 253.760,249.117 254.944 C 250.592 256.127,252.250 257.869,252.800 258.816 C 253.954 260.801,255.455 262.343,257.996 264.154 C 258.984 264.859,260.334 266.215,260.996 267.168 C 261.658 268.121,263.056 269.789,264.102 270.875 C 269.343 276.314,269.352 282.153,264.123 284.600 C 261.423 285.863,260.367 286.848,259.303 289.094 C 258.289 291.236,257.005 292.452,254.028 294.088 C 253.340 294.467,252.467 295.354,252.088 296.060 C 250.645 298.752,248.402 300.730,244.894 302.405 C 243.004 303.308,240.813 304.556,240.025 305.180 C 237.766 306.970,232.558 309.445,228.200 310.800 C 226.000 311.485,223.300 312.372,222.200 312.773 C 221.100 313.173,219.480 313.700,218.600 313.944 C 215.777 314.727,212.227 319.576,213.525 320.875 C 214.723 322.075,221.150 323.200,226.802 323.200 C 233.387 323.200,239.642 323.736,243.664 324.646 C 247.985 325.622,254.622 325.551,260.200 324.468 C 263.560 323.816,267.401 323.440,273.000 323.216 C 283.332 322.802,286.574 322.003,288.435 319.411 C 290.254 316.878,299.864 313.200,304.663 313.200 C 309.657 313.200,315.127 315.831,317.371 319.311 C 318.885 321.660,320.298 323.053,322.504 324.371 C 323.354 324.879,324.468 326.080,325.068 327.135 C 326.645 329.906,328.213 331.398,330.980 332.760 C 333.023 333.766,333.648 334.322,334.505 335.897 C 335.078 336.949,335.983 338.221,336.517 338.722 L 337.486 339.633 338.243 338.516 C 338.973 337.440,339.004 335.768,339.110 291.556 C 339.242 236.176,340.036 242.162,332.436 241.218 C 328.795 240.766,251.679 240.725,247.400 241.173 M137.144 272.787 C 143.458 273.692,145.600 278.566,145.600 292.026 C 145.600 296.849,146.359 301.564,147.975 306.780 C 149.669 312.246,149.579 312.989,146.837 316.157 C 145.862 317.284,144.945 318.974,144.385 320.678 C 142.665 325.915,139.787 327.600,132.560 327.600 C 128.563 327.600,127.607 328.001,125.477 330.570 C 122.512 334.146,118.311 335.260,107.600 335.307 C 96.631 335.355,92.442 334.267,89.332 330.564 C 88.096 329.091,87.148 328.413,85.542 327.851 C 84.016 327.318,82.846 326.513,81.473 325.051 C 80.413 323.923,78.410 321.809,77.023 320.353 C 70.480 313.488,71.006 298.125,78.012 291.454 C 79.298 290.229,80.841 288.366,81.440 287.314 C 83.057 284.473,84.657 282.951,87.892 281.175 C 89.491 280.298,91.351 278.973,92.026 278.232 C 94.847 275.132,99.935 273.191,106.200 272.826 C 113.493 272.401,134.267 272.374,137.144 272.787 " stroke="none" fill="#edf4ed" fill-rule="evenodd"></path><path id="path1" d="M277.647 34.607 C 275.512 37.039,275.834 39.540,278.753 43.200 C 280.440 45.314,280.717 45.993,281.637 50.263 C 283.137 57.221,284.683 58.919,291.577 61.175 L 296.077 62.648 298.554 59.808 C 299.916 58.246,301.525 56.320,302.129 55.528 L 303.228 54.088 302.154 49.802 C 300.625 43.699,298.882 41.825,291.919 38.793 C 289.214 37.615,285.393 35.875,283.429 34.926 C 279.124 32.845,279.191 32.849,277.647 34.607 M281.200 37.650 C 281.200 38.007,279.869 38.800,279.269 38.800 C 278.652 38.800,278.347 37.546,278.823 36.972 C 279.283 36.418,281.200 36.965,281.200 37.650 M292.200 42.789 C 296.961 44.484,297.389 44.954,298.598 49.812 C 299.144 52.005,299.593 53.929,299.595 54.087 C 299.603 54.557,295.866 58.608,295.524 58.501 C 295.350 58.447,293.451 58.129,291.304 57.794 C 285.793 56.935,285.096 56.142,284.413 49.957 C 283.441 41.159,284.607 40.085,292.200 42.789 M60.853 59.312 C 60.112 59.549,58.918 60.297,58.200 60.974 L 56.895 62.205 56.658 70.003 C 56.528 74.291,56.330 95.047,56.219 116.127 L 56.016 154.455 57.222 156.843 C 57.885 158.156,59.288 160.124,60.340 161.215 L 62.253 163.200 108.650 163.200 C 145.164 163.200,155.182 163.093,155.679 162.700 C 156.504 162.048,157.135 159.995,157.537 156.661 L 157.860 153.973 156.135 152.487 C 155.187 151.669,153.661 150.370,152.744 149.600 C 151.828 148.830,150.449 147.253,149.680 146.096 C 148.911 144.939,147.633 143.605,146.841 143.133 C 144.875 141.961,142.915 140.081,141.909 138.400 C 140.650 136.297,139.612 135.248,137.347 133.791 C 136.218 133.065,134.792 131.811,134.177 131.006 L 133.060 129.541 133.479 125.040 C 133.964 119.820,134.784 118.148,137.992 115.844 C 139.028 115.100,140.744 113.485,141.804 112.257 C 142.865 111.028,144.757 109.304,146.008 108.427 C 147.259 107.549,149.489 105.587,150.963 104.068 C 153.066 101.898,154.647 100.761,158.321 98.776 C 160.894 97.385,163.967 95.632,165.149 94.880 C 170.596 91.415,176.965 89.601,183.685 89.600 C 188.112 89.600,191.998 88.804,193.299 87.632 C 193.463 87.484,192.090 86.246,190.248 84.882 C 187.507 82.852,186.746 82.046,186.056 80.442 C 184.043 75.762,181.905 74.956,170.800 74.688 C 162.543 74.489,161.503 74.382,158.200 73.394 C 156.220 72.802,152.620 71.777,150.200 71.115 L 145.800 69.913 141.600 70.830 C 139.290 71.335,136.500 72.157,135.400 72.657 C 132.078 74.167,128.586 74.707,120.400 74.977 C 111.706 75.263,109.639 75.833,105.755 79.016 C 104.825 79.778,102.204 81.291,99.932 82.378 L 95.800 84.354 91.600 83.926 C 86.763 83.433,85.795 82.913,83.216 79.421 C 82.350 78.250,80.958 76.883,80.121 76.383 C 77.954 75.088,76.047 73.228,75.195 71.575 C 74.458 70.145,71.703 67.200,71.103 67.200 C 70.087 67.200,67.403 64.781,66.173 62.755 C 64.999 60.823,62.896 58.676,62.338 58.841 C 62.262 58.863,61.594 59.075,60.853 59.312 M235.378 59.644 C 231.349 61.146,230.826 61.939,230.391 67.200 C 229.528 77.644,229.273 78.775,227.284 81.000 C 225.360 83.152,222.540 87.140,222.128 88.292 C 221.988 88.681,221.200 90.170,220.376 91.600 C 218.219 95.342,218.165 95.711,219.399 98.234 C 221.230 101.976,226.016 103.570,233.119 102.806 C 238.548 102.221,240.210 101.135,242.428 96.718 C 244.540 92.514,245.375 91.882,250.599 90.541 L 254.200 89.616 291.769 89.608 L 329.337 89.600 330.973 91.307 C 331.873 92.247,333.369 94.556,334.298 96.439 C 336.756 101.423,336.622 101.348,341.614 100.598 C 346.332 99.889,345.954 100.102,350.243 95.750 L 353.486 92.459 358.243 90.983 C 366.173 88.521,366.740 87.981,368.424 81.294 L 368.954 79.188 367.217 77.418 C 366.262 76.444,364.404 75.074,363.090 74.374 C 361.775 73.673,359.967 72.357,359.071 71.450 C 354.799 67.123,353.814 67.054,349.823 70.798 C 345.442 74.909,346.658 74.813,296.200 75.013 C 273.540 75.103,254.100 75.189,253.000 75.204 C 245.195 75.313,244.069 74.347,243.199 66.791 L 242.689 62.368 241.100 61.008 C 238.756 59.001,237.746 58.760,235.378 59.644 M63.291 61.900 C 63.629 62.285,64.037 63.050,64.198 63.600 C 64.968 66.229,67.715 68.800,69.753 68.800 C 70.565 68.800,72.800 70.745,72.800 71.451 C 72.800 73.395,75.515 76.619,78.200 77.864 C 79.343 78.394,80.091 79.144,80.817 80.489 C 83.023 84.573,84.963 85.735,91.331 86.784 L 95.800 87.520 101.358 85.060 C 106.110 82.957,107.249 82.269,109.215 80.318 C 110.479 79.064,111.938 77.944,112.457 77.830 C 114.435 77.396,122.302 76.800,126.055 76.800 C 128.288 76.800,131.691 76.467,133.971 76.025 C 144.165 74.049,144.471 74.051,158.600 76.190 C 161.190 76.582,165.529 76.796,170.909 76.798 L 179.217 76.800 180.854 77.883 C 185.149 80.726,180.941 86.509,173.600 87.852 C 169.572 88.590,160.913 92.566,157.957 95.036 C 157.015 95.823,155.154 97.011,153.822 97.674 C 151.014 99.074,148.649 101.187,147.585 103.247 C 147.075 104.235,146.259 104.966,145.017 105.550 C 142.680 106.649,140.226 108.871,138.954 111.043 C 138.364 112.048,137.232 113.174,136.202 113.778 C 132.911 115.706,131.778 118.274,131.370 124.721 C 130.963 131.144,132.083 133.596,136.268 135.447 C 138.484 136.427,139.213 137.262,139.987 139.700 C 140.581 141.576,142.338 143.360,144.724 144.512 C 146.276 145.262,146.765 145.805,147.870 148.000 C 149.297 150.837,150.514 152.064,153.062 153.238 C 155.175 154.211,155.022 155.202,152.536 156.659 C 148.008 159.312,149.939 159.204,107.864 159.162 C 59.208 159.114,62.743 159.379,60.244 155.600 L 59.318 154.200 59.610 109.000 C 59.913 62.198,59.907 62.363,61.335 61.673 C 62.523 61.098,62.594 61.106,63.291 61.900 M238.648 61.909 C 239.325 62.461,239.640 63.528,240.206 67.200 C 241.041 72.621,241.981 75.389,243.789 77.759 C 244.526 78.724,245.236 80.231,245.394 81.163 C 245.728 83.144,246.608 82.829,247.031 80.577 C 247.655 77.248,253.982 76.816,301.904 76.828 C 349.299 76.839,348.932 76.872,352.342 72.378 C 354.118 70.039,354.500 70.018,355.773 72.189 C 356.903 74.119,358.873 75.663,361.200 76.442 C 365.209 77.784,365.694 78.889,363.967 82.751 C 362.554 85.911,361.033 87.009,356.424 88.197 C 351.769 89.397,348.406 91.708,346.806 94.805 C 346.090 96.191,346.023 96.220,341.805 96.934 C 336.930 97.758,336.922 97.755,335.999 94.603 C 335.194 91.847,333.688 89.724,331.195 87.828 L 328.791 86.000 295.085 86.000 C 271.733 86.000,260.338 85.857,257.990 85.536 C 252.697 84.812,249.901 85.223,249.400 86.800 C 249.248 87.279,248.598 87.599,247.420 87.776 C 244.539 88.208,242.663 89.898,240.850 93.691 C 238.586 98.431,238.142 98.758,233.260 99.271 C 228.730 99.747,227.481 99.457,224.141 97.159 L 222.392 95.956 223.370 94.278 C 223.909 93.355,224.665 91.430,225.051 90.000 C 225.828 87.127,228.332 83.485,230.354 82.291 C 232.507 81.019,233.050 79.527,233.531 73.567 C 234.229 64.934,234.701 62.648,235.948 61.874 C 237.274 61.051,237.601 61.055,238.648 61.909 M319.770 106.790 C 319.556 107.004,317.948 107.921,316.197 108.827 L 313.014 110.474 278.393 110.351 L 243.771 110.229 242.286 111.147 C 240.551 112.219,240.588 112.041,241.561 114.601 C 241.979 115.701,242.452 117.501,242.612 118.601 C 243.029 121.472,243.300 121.823,246.929 124.184 C 248.728 125.355,251.002 127.142,251.983 128.156 C 254.102 130.347,254.100 130.346,255.929 128.740 C 256.718 128.048,258.362 127.013,259.582 126.440 L 261.800 125.400 274.529 125.322 C 290.256 125.225,291.067 125.027,293.516 120.687 C 295.334 117.466,295.600 117.357,297.326 119.124 C 298.675 120.506,298.763 120.734,298.412 121.957 C 298.203 122.688,297.824 124.701,297.571 126.431 C 296.999 130.344,297.028 130.322,291.313 131.206 C 284.241 132.299,278.810 134.392,277.380 136.575 C 276.678 137.645,277.075 138.833,278.990 141.400 C 279.482 142.060,280.256 143.329,280.710 144.220 L 281.535 145.841 280.468 147.820 C 279.520 149.578,278.925 150.071,275.159 152.219 C 268.054 156.272,262.663 157.003,242.726 156.615 C 223.289 156.237,220.965 156.575,218.341 160.160 C 216.530 162.635,217.526 164.632,222.206 167.911 C 223.375 168.730,225.349 170.288,226.594 171.373 C 228.740 173.244,229.079 173.390,233.128 174.205 C 238.011 175.186,237.951 175.198,242.935 172.251 C 246.675 170.040,246.761 170.030,264.692 169.795 L 279.185 169.605 279.866 170.645 C 281.299 172.831,282.398 178.313,282.384 183.200 C 282.362 191.189,281.716 191.473,261.636 192.316 L 253.873 192.642 252.556 194.165 C 250.940 196.034,251.235 196.713,254.646 198.978 C 256.038 199.902,257.259 201.131,257.931 202.284 C 258.519 203.293,259.720 204.892,260.600 205.836 L 262.200 207.552 266.566 208.000 C 271.870 208.544,272.418 208.810,275.585 212.383 C 278.589 215.772,279.029 215.913,283.058 214.787 C 288.157 213.362,288.066 213.450,289.580 208.529 C 291.088 203.628,292.487 200.901,295.004 197.952 L 296.743 195.915 296.671 183.606 L 296.600 171.297 298.106 169.111 C 299.572 166.983,301.568 165.113,303.600 163.965 C 304.425 163.499,309.013 163.377,329.786 163.268 C 357.042 163.126,356.103 163.215,356.724 160.713 C 358.489 153.603,357.604 152.140,350.000 149.602 L 346.200 148.333 341.132 148.829 C 337.682 149.166,332.272 149.251,324.189 149.097 L 312.314 148.869 309.657 147.535 C 306.800 146.099,305.336 144.096,303.774 139.486 C 302.845 136.742,304.604 135.262,310.577 133.762 C 313.816 132.948,315.259 132.017,317.378 129.376 C 320.017 126.087,320.092 126.056,326.881 125.405 C 336.772 124.456,338.106 124.098,339.613 121.981 L 340.482 120.761 339.448 117.443 C 337.847 112.309,336.362 111.076,331.118 110.528 C 329.365 110.345,327.640 109.743,324.850 108.341 C 320.771 106.291,320.386 106.174,319.770 106.790 M323.600 111.200 C 325.104 111.860,326.442 112.400,326.573 112.400 C 327.013 112.400,335.785 118.360,336.954 119.453 C 338.972 121.341,335.437 122.538,325.815 123.225 C 319.133 123.702,317.603 124.359,315.906 127.475 C 314.253 130.514,313.382 131.120,309.986 131.601 C 308.344 131.834,306.332 132.204,305.515 132.424 C 299.984 133.911,299.356 128.353,304.371 122.284 C 305.234 121.240,306.060 119.839,306.207 119.169 C 306.577 117.483,308.859 115.330,310.896 114.745 C 311.833 114.475,313.069 113.934,313.642 113.542 C 314.456 112.984,320.109 110.187,320.733 110.033 C 320.806 110.015,322.096 110.540,323.600 111.200 M282.185 115.125 C 285.071 116.441,287.745 119.595,286.998 120.803 C 286.118 122.226,281.420 122.920,270.800 123.196 C 260.129 123.473,255.486 124.167,254.589 125.618 C 254.453 125.839,253.605 125.382,252.678 124.588 C 251.761 123.804,249.983 122.675,248.726 122.081 C 246.137 120.857,245.960 120.362,247.192 117.818 C 247.970 116.209,249.442 115.042,251.537 114.370 C 254.187 113.521,280.065 114.158,282.185 115.125 M298.399 134.719 C 299.060 135.254,299.427 136.242,299.835 138.585 C 301.956 150.785,304.363 151.766,331.600 151.531 L 346.600 151.401 350.368 152.774 L 354.136 154.147 352.305 155.805 C 348.608 159.153,348.161 159.208,324.790 159.193 L 304.414 159.179 302.365 160.218 C 299.899 161.467,295.362 165.901,293.760 168.626 L 292.600 170.600 292.400 183.400 L 292.200 196.200 290.725 198.353 C 289.914 199.537,288.843 201.517,288.346 202.753 C 287.295 205.365,281.893 212.308,280.500 212.838 C 279.016 213.402,278.875 213.321,277.846 211.300 C 275.942 207.558,273.936 206.526,267.095 205.764 C 261.560 205.148,261.745 205.232,261.178 203.083 C 260.201 199.375,258.231 197.303,254.643 196.212 C 251.982 195.402,258.636 194.421,269.436 194.030 C 284.131 193.499,285.105 192.668,284.685 181.038 C 284.251 169.033,282.053 164.743,276.800 165.648 C 275.590 165.856,268.030 166.157,260.000 166.317 C 243.542 166.645,243.713 166.614,239.691 170.094 C 237.130 172.311,231.813 171.164,227.600 167.486 C 226.610 166.622,224.598 165.309,223.130 164.567 C 218.845 162.405,219.048 161.731,224.404 160.336 C 227.650 159.491,228.612 159.450,246.200 159.393 C 268.989 159.319,276.544 158.476,278.996 155.731 C 282.044 152.319,282.780 151.160,283.614 148.460 L 284.426 145.830 283.626 143.215 C 283.186 141.777,282.354 139.911,281.777 139.069 C 280.541 137.263,280.364 137.532,283.824 135.946 C 287.969 134.044,296.662 133.313,298.399 134.719 M90.338 200.529 C 86.608 201.044,86.581 201.059,82.815 204.800 C 81.597 206.010,79.808 207.450,78.840 208.000 C 73.688 210.926,73.410 221.479,78.324 227.566 L 79.103 228.533 80.852 227.115 C 81.813 226.335,83.605 225.135,84.832 224.448 L 87.065 223.200 108.169 223.200 L 129.273 223.200 131.589 224.824 C 137.747 229.144,140.984 234.412,141.850 241.524 C 142.506 246.910,142.806 248.004,144.641 251.704 L 145.982 254.408 144.349 255.591 C 140.448 258.417,139.306 258.618,128.200 258.437 C 112.457 258.180,108.493 258.196,97.400 258.559 C 85.547 258.946,85.340 258.997,82.200 262.223 C 79.625 264.869,79.149 265.098,74.299 266.039 C 69.527 266.964,68.418 267.666,66.177 271.185 C 65.165 272.774,63.938 274.070,62.686 274.873 C 59.752 276.756,58.800 278.268,58.140 282.097 C 57.203 287.526,56.929 288.177,54.408 290.959 C 50.538 295.230,50.742 294.177,50.885 309.119 C 51.032 324.388,51.511 326.959,54.861 330.477 C 55.763 331.425,57.198 333.666,58.050 335.458 C 59.638 338.797,60.853 340.132,64.005 342.000 C 64.972 342.572,66.353 343.967,67.236 345.263 C 69.810 349.037,70.384 349.335,74.496 349.031 C 77.448 348.812,79.362 348.998,86.816 350.230 L 95.641 351.687 103.120 350.461 C 107.456 349.750,113.038 349.128,116.400 348.981 C 125.207 348.598,128.352 347.749,131.263 344.972 C 132.743 343.561,134.634 342.283,136.505 341.431 C 138.404 340.565,139.895 339.553,140.749 338.548 C 144.653 333.956,145.430 333.494,147.075 334.787 C 148.921 336.240,149.322 337.211,149.872 341.565 C 150.395 345.707,150.441 345.833,151.988 347.300 L 153.569 348.800 158.485 348.796 C 169.016 348.788,170.387 345.945,169.771 325.400 C 169.359 311.674,169.357 301.834,169.761 271.200 C 170.156 241.229,170.015 238.882,167.489 233.400 C 166.476 231.200,165.108 227.478,164.451 225.128 C 163.447 221.541,162.959 220.492,161.410 218.591 C 160.395 217.345,159.020 215.360,158.353 214.179 C 156.127 210.234,154.437 209.304,148.200 208.594 C 145.198 208.252,143.333 207.088,141.232 204.244 C 140.352 203.052,139.040 201.655,138.316 201.139 L 137.000 200.200 115.400 200.125 C 100.462 200.074,92.732 200.198,90.338 200.529 M136.196 202.660 C 137.364 202.918,138.007 203.362,138.596 204.319 C 140.673 207.694,141.090 208.207,142.342 208.939 C 143.078 209.369,145.147 210.062,146.940 210.479 C 153.934 212.106,154.231 212.242,154.962 214.156 C 155.325 215.106,156.384 217.035,157.316 218.442 C 158.370 220.032,159.282 222.059,159.727 223.800 C 160.121 225.340,160.862 227.410,161.373 228.400 C 166.804 238.923,166.597 237.033,166.168 272.200 C 165.769 304.870,165.771 310.817,166.181 325.200 L 166.518 337.000 165.430 340.800 C 163.742 346.698,164.068 346.445,158.298 346.312 L 153.430 346.200 152.774 343.200 C 152.413 341.550,151.898 339.163,151.629 337.895 C 150.086 330.615,142.473 329.813,139.339 336.600 C 138.664 338.061,138.339 338.290,135.600 339.229 C 132.338 340.348,130.189 341.371,129.809 341.986 C 129.676 342.201,128.729 342.748,127.705 343.201 C 126.682 343.653,125.216 344.503,124.448 345.089 C 123.105 346.113,122.782 346.166,116.026 346.474 C 112.162 346.650,106.030 347.110,102.400 347.497 C 95.532 348.229,94.841 348.210,83.961 347.003 C 80.970 346.671,76.703 346.400,74.480 346.400 L 70.437 346.400 69.599 344.505 C 68.440 341.884,67.399 340.870,64.509 339.544 C 61.769 338.286,61.119 337.516,60.452 334.731 C 59.860 332.261,56.618 325.876,55.048 324.088 L 53.800 322.668 53.685 308.948 L 53.570 295.229 55.187 294.208 C 58.551 292.085,59.758 289.536,60.389 283.228 C 60.853 278.582,61.197 277.935,63.800 276.796 C 65.785 275.928,66.929 274.715,67.960 272.384 C 69.297 269.362,70.232 268.765,74.272 268.357 C 80.455 267.731,82.855 266.619,84.366 263.677 C 85.963 260.565,84.465 260.720,113.939 260.618 C 143.158 260.516,143.135 260.518,147.034 257.661 C 150.304 255.265,150.140 251.283,146.657 248.507 C 145.361 247.474,144.921 246.074,143.795 239.400 C 142.263 230.315,139.379 225.957,132.098 221.729 C 131.054 221.123,129.962 220.396,129.671 220.114 C 129.012 219.473,127.210 219.433,105.000 219.572 C 89.829 219.667,87.263 219.768,86.410 220.309 C 85.168 221.096,79.383 224.000,79.058 224.000 C 78.119 224.000,77.259 220.685,77.160 216.678 C 77.032 211.527,77.486 210.620,80.765 209.476 C 83.204 208.626,84.894 207.216,86.129 205.000 C 87.657 202.260,89.963 202.030,114.400 202.181 C 125.510 202.250,135.318 202.466,136.196 202.660 M236.883 237.300 C 236.499 237.762,236.016 240.189,235.446 244.511 C 235.254 245.965,235.344 246.101,237.859 248.175 C 239.295 249.360,241.420 251.481,242.581 252.888 C 243.742 254.295,245.621 256.115,246.758 256.931 C 247.894 257.748,249.725 259.651,250.827 261.161 C 252.045 262.831,253.682 264.472,255.002 265.349 C 256.874 266.592,260.380 270.344,260.410 271.136 C 260.415 271.281,261.307 272.377,262.392 273.570 C 263.476 274.764,264.763 276.493,265.250 277.412 L 266.137 279.084 265.215 280.379 C 264.708 281.091,263.069 282.458,261.574 283.417 C 259.855 284.518,258.257 285.970,257.228 287.363 C 256.332 288.574,254.925 290.067,254.100 290.680 C 253.275 291.293,251.160 293.262,249.400 295.056 C 246.412 298.103,245.790 298.520,240.000 301.362 C 236.590 303.036,232.328 305.179,230.528 306.123 C 225.386 308.822,221.448 309.894,215.600 310.186 C 205.642 310.682,201.853 312.047,204.895 314.041 C 206.605 315.162,208.167 317.330,208.809 319.472 C 209.974 323.361,213.985 324.696,226.000 325.192 C 234.969 325.562,239.018 326.219,243.400 328.015 C 247.905 329.862,253.583 330.317,256.425 329.060 C 262.143 326.532,266.951 325.520,274.800 325.196 C 285.330 324.760,287.631 324.216,290.400 321.507 C 293.528 318.447,294.577 317.930,299.607 316.967 L 304.383 316.053 307.492 317.068 C 311.643 318.424,312.574 318.945,314.319 320.894 C 316.812 323.677,317.329 324.178,319.398 325.817 C 320.497 326.688,321.755 327.850,322.192 328.400 C 324.074 330.767,326.729 333.386,328.400 334.527 C 329.390 335.202,331.652 337.250,333.427 339.077 C 337.093 342.853,337.469 342.972,339.182 340.900 C 341.298 338.342,341.247 339.679,341.119 290.200 L 341.000 243.800 340.072 241.571 C 339.561 240.345,338.723 238.815,338.210 238.171 L 337.276 237.000 287.293 236.892 C 246.916 236.806,237.228 236.884,236.883 237.300 M332.436 241.218 C 340.036 242.162,339.242 236.176,339.110 291.556 C 339.004 335.768,338.973 337.440,338.243 338.516 L 337.486 339.633 336.517 338.722 C 335.983 338.221,335.078 336.949,334.505 335.897 C 333.648 334.322,333.023 333.766,330.980 332.760 C 328.213 331.398,326.645 329.906,325.068 327.135 C 324.468 326.080,323.354 324.879,322.504 324.371 C 320.298 323.053,318.885 321.660,317.371 319.311 C 315.426 316.295,313.442 315.019,309.154 314.032 C 302.263 312.446,291.415 315.262,288.435 319.411 C 286.574 322.003,283.332 322.802,273.000 323.216 C 267.401 323.440,263.560 323.816,260.200 324.468 C 254.622 325.551,247.985 325.622,243.664 324.646 C 239.642 323.736,233.387 323.200,226.802 323.200 C 221.150 323.200,214.723 322.075,213.525 320.875 C 212.227 319.576,215.777 314.727,218.600 313.944 C 219.480 313.700,221.100 313.173,222.200 312.773 C 223.300 312.372,226.000 311.485,228.200 310.800 C 232.558 309.445,237.766 306.970,240.025 305.180 C 240.813 304.556,243.004 303.308,244.894 302.405 C 248.402 300.730,250.645 298.752,252.088 296.060 C 252.467 295.354,253.340 294.467,254.028 294.088 C 257.005 292.452,258.289 291.236,259.303 289.094 C 260.367 286.848,261.423 285.863,264.123 284.600 C 269.352 282.153,269.343 276.314,264.102 270.875 C 263.056 269.789,261.658 268.121,260.996 267.168 C 260.334 266.215,258.984 264.859,257.996 264.154 C 255.455 262.343,253.954 260.801,252.800 258.816 C 252.250 257.869,250.592 256.127,249.117 254.944 C 247.641 253.760,245.893 252.007,245.233 251.048 C 244.573 250.089,243.137 248.498,242.041 247.513 L 240.049 245.722 241.261 244.253 C 242.874 242.296,244.507 241.476,247.400 241.173 C 251.679 240.725,328.795 240.766,332.436 241.218 M106.200 272.826 C 99.935 273.191,94.847 275.132,92.026 278.232 C 91.351 278.973,89.491 280.298,87.892 281.175 C 84.657 282.951,83.057 284.473,81.440 287.314 C 80.841 288.366,79.298 290.229,78.012 291.454 C 71.006 298.125,70.480 313.488,77.023 320.353 C 78.410 321.809,80.413 323.923,81.473 325.051 C 82.846 326.513,84.016 327.318,85.542 327.851 C 87.148 328.413,88.096 329.091,89.332 330.564 C 92.442 334.267,96.631 335.355,107.600 335.307 C 118.311 335.260,122.512 334.146,125.477 330.570 C 127.607 328.001,128.563 327.600,132.560 327.600 C 139.787 327.600,142.665 325.915,144.385 320.678 C 144.945 318.974,145.862 317.284,146.837 316.157 C 149.579 312.989,149.669 312.246,147.975 306.780 C 146.359 301.564,145.600 296.849,145.600 292.026 C 145.600 278.566,143.458 273.692,137.144 272.787 C 134.267 272.374,113.493 272.401,106.200 272.826 M139.127 275.693 C 142.229 277.576,142.343 278.057,142.784 291.121 C 143.147 301.868,143.695 307.376,144.774 311.116 C 145.076 312.165,145.001 312.694,144.402 313.716 C 143.988 314.422,143.282 316.334,142.833 317.964 C 141.201 323.884,139.696 325.024,133.126 325.321 C 127.887 325.557,125.483 326.415,122.800 329.006 C 118.565 333.096,109.115 334.657,99.926 332.785 C 95.604 331.904,94.748 331.496,92.000 329.013 C 91.010 328.118,88.962 326.759,87.449 325.993 C 85.660 325.087,84.122 323.925,83.049 322.669 C 82.142 321.606,80.378 319.600,79.129 318.210 C 73.045 311.439,73.098 301.969,79.259 295.043 C 80.217 293.966,82.184 291.446,83.631 289.443 C 86.116 286.000,86.526 285.635,91.085 282.800 C 93.738 281.150,96.514 279.276,97.254 278.636 C 97.994 277.996,99.770 276.916,101.200 276.236 L 103.800 275.000 116.200 274.800 C 133.442 274.522,137.456 274.678,139.127 275.693 " stroke="none" fill="#94c494" fill-rule="evenodd"></path><path id="path2" d="M37.921 2.100 L 37.800 4.200 30.511 4.400 C 21.562 4.646,21.564 4.644,21.220 9.491 L 21.000 12.600 17.667 12.848 C 13.404 13.164,13.164 13.404,12.848 17.667 L 12.600 21.000 9.491 21.220 C 5.146 21.529,4.756 21.972,4.534 26.859 C 4.239 33.333,4.292 33.200,1.982 33.200 L 0.000 33.200 0.000 197.579 L 0.000 361.958 2.100 362.079 L 4.200 362.200 4.431 369.000 C 4.732 377.882,4.922 378.234,9.648 378.706 L 12.600 379.000 12.848 382.333 C 13.164 386.596,13.404 386.836,17.667 387.152 L 21.000 387.400 21.320 390.000 C 21.915 394.836,22.538 395.178,31.400 395.539 L 37.800 395.800 37.921 397.900 L 38.042 400.000 200.021 400.000 L 362.000 400.000 362.000 397.850 L 362.000 395.700 365.461 395.519 C 369.753 395.293,370.164 394.908,370.550 390.747 C 370.872 387.287,370.959 387.214,374.767 387.206 C 385.084 387.185,387.185 385.084,387.206 374.767 C 387.214 370.959,387.287 370.872,390.747 370.550 C 394.908 370.164,395.293 369.753,395.519 365.461 L 395.700 362.000 397.850 362.000 L 400.000 362.000 400.000 200.021 L 400.000 38.042 397.900 37.921 L 395.800 37.800 395.537 33.200 C 395.015 24.072,394.328 22.754,389.600 21.788 L 387.400 21.339 387.159 17.843 C 386.848 13.331,386.630 13.111,382.248 12.881 L 378.867 12.703 378.587 10.252 C 378.016 5.259,377.370 4.899,368.200 4.477 L 362.200 4.200 362.079 2.100 L 361.958 0.000 200.000 0.000 L 38.042 -0.000 37.921 2.100 M283.107 30.752 C 285.248 31.826,288.080 32.926,289.400 33.198 C 294.193 34.185,295.571 34.955,299.603 38.897 C 305.419 44.583,306.264 45.782,307.195 49.665 C 308.376 54.593,308.444 54.380,304.385 58.458 C 302.397 60.456,300.418 62.780,299.989 63.622 C 297.072 69.340,291.421 68.276,282.925 60.407 C 281.591 59.173,280.279 56.626,279.801 54.342 C 279.646 53.604,279.008 52.190,278.382 51.200 C 272.147 41.329,271.745 33.156,277.329 29.809 C 279.361 28.591,278.526 28.455,283.107 30.752 M55.232 54.630 C 56.067 55.430,56.967 55.750,59.254 56.059 C 65.074 56.845,67.101 58.043,68.067 61.266 C 68.629 63.141,70.063 64.471,72.481 65.360 C 74.600 66.139,76.596 68.158,76.981 69.914 C 77.316 71.438,78.939 72.899,81.232 73.741 C 83.349 74.519,84.904 75.994,85.756 78.032 C 87.380 81.921,95.963 81.773,100.192 77.783 C 104.218 73.983,108.077 72.968,120.400 72.468 C 130.537 72.057,131.164 71.902,134.042 69.111 C 138.641 64.650,153.044 65.009,158.251 69.713 C 160.477 71.724,162.288 72.060,172.600 72.372 C 182.727 72.679,184.078 72.981,187.057 75.597 C 187.811 76.259,188.569 76.800,188.741 76.800 C 189.526 76.800,197.514 83.414,198.498 84.879 C 201.792 89.783,194.123 93.833,183.165 92.976 C 178.818 92.636,171.852 94.649,169.763 96.849 C 168.551 98.127,165.261 100.000,164.231 100.000 C 162.320 100.000,155.730 104.213,153.400 106.924 C 151.634 108.979,150.266 110.107,148.222 111.193 C 146.694 112.004,145.362 112.923,145.263 113.234 C 144.597 115.313,142.628 117.253,139.808 118.609 C 138.177 119.393,136.755 120.342,136.649 120.718 C 136.374 121.685,135.696 125.473,135.415 127.614 C 135.129 129.791,136.173 131.017,139.289 132.163 C 141.373 132.929,143.123 134.713,143.464 136.419 C 143.745 137.825,145.786 139.770,147.600 140.361 C 149.734 141.055,150.875 142.125,152.196 144.666 C 153.285 146.763,153.655 147.107,156.087 148.277 C 159.249 149.800,160.878 151.755,161.610 154.907 C 161.877 156.058,162.628 158.233,163.280 159.740 L 164.464 162.480 163.532 163.479 C 162.386 164.708,160.461 165.716,157.697 166.535 C 155.851 167.082,149.875 167.166,108.697 167.221 L 61.800 167.284 59.800 166.419 C 57.911 165.601,54.400 162.649,54.400 161.878 C 54.400 161.683,54.049 161.031,53.621 160.429 C 51.177 156.998,51.113 156.427,51.167 138.800 C 51.285 100.736,51.988 61.920,52.624 58.400 C 53.609 52.942,53.553 53.022,55.232 54.630 M240.272 56.999 C 244.240 58.177,246.389 60.970,247.959 66.990 L 249.000 70.979 250.948 71.700 C 256.027 73.581,344.279 72.694,345.749 70.748 C 345.811 70.667,346.261 69.934,346.751 69.120 C 349.950 63.799,357.992 64.022,361.726 69.537 C 362.346 70.451,363.066 71.202,363.326 71.204 C 365.163 71.219,371.661 75.795,373.428 78.319 C 374.109 79.290,373.277 85.456,372.172 87.635 C 371.204 89.542,367.119 92.090,364.181 92.617 C 359.793 93.405,355.187 95.652,353.624 97.767 C 351.545 100.578,349.250 102.561,346.420 103.990 C 342.481 105.978,341.414 109.076,342.570 115.169 C 344.247 124.007,342.134 126.821,333.400 127.385 C 328.968 127.671,320.809 128.619,320.645 128.867 C 320.597 128.940,320.219 129.776,319.807 130.725 C 318.731 133.197,317.336 134.173,312.817 135.614 C 307.548 137.295,307.640 137.079,310.177 141.816 L 312.312 145.800 317.056 146.118 C 324.047 146.586,340.940 146.315,341.652 145.723 C 341.968 145.461,343.056 144.890,344.069 144.456 L 345.912 143.666 347.390 144.670 C 348.202 145.223,350.676 146.275,352.886 147.009 C 358.264 148.796,361.950 152.167,361.991 155.335 C 361.996 155.740,362.514 157.181,363.142 158.539 C 364.927 162.395,364.940 162.516,363.702 163.701 C 359.871 167.370,357.588 167.621,329.035 167.502 L 304.413 167.400 302.530 169.282 L 300.646 171.164 300.715 183.616 C 300.794 198.063,300.881 197.639,297.078 201.367 L 294.555 203.842 293.494 208.300 C 291.832 215.292,290.228 217.026,284.645 217.867 C 277.709 218.913,274.825 217.830,273.017 213.502 C 272.112 211.336,271.149 210.912,266.400 210.590 C 260.590 210.196,258.783 209.281,257.199 205.933 C 255.812 202.999,254.710 201.764,252.968 201.189 C 250.079 200.236,247.885 196.608,248.825 194.339 C 250.597 190.063,251.733 189.665,262.219 189.655 C 268.621 189.649,271.902 189.473,274.329 189.003 C 280.002 187.904,279.600 188.361,279.600 183.010 C 279.600 177.417,279.519 177.299,274.606 175.768 L 271.175 174.698 258.687 174.881 L 246.200 175.063 243.800 176.276 C 235.839 180.299,225.026 178.246,221.345 172.014 C 220.970 171.379,219.987 170.555,219.161 170.182 C 217.125 169.264,215.847 167.840,214.587 165.087 L 213.530 162.775 214.402 159.904 C 215.171 157.371,215.582 156.731,217.893 154.465 L 220.513 151.896 231.156 152.130 C 237.010 152.259,244.500 152.550,247.800 152.777 C 252.806 153.122,254.363 153.088,257.200 152.569 C 265.128 151.120,270.870 149.391,274.015 147.508 L 276.722 145.886 275.604 144.342 C 274.989 143.493,274.176 141.535,273.798 139.990 L 273.109 137.181 274.255 134.891 C 275.574 132.252,277.059 131.238,281.193 130.156 C 282.627 129.781,283.950 129.343,284.134 129.183 C 284.810 128.594,277.193 127.855,270.200 127.832 C 262.057 127.804,260.918 128.067,259.541 130.296 C 256.792 134.744,251.656 134.762,249.365 130.332 C 248.523 128.703,247.520 127.861,244.936 126.610 C 242.041 125.208,240.640 123.644,239.420 120.451 C 238.725 118.635,237.744 117.033,236.553 115.772 C 235.557 114.718,234.412 113.213,234.008 112.427 C 232.272 109.054,230.569 108.190,224.859 107.785 C 216.066 107.161,212.386 99.853,216.060 90.311 C 216.917 88.087,217.773 86.688,219.120 85.311 C 224.333 79.985,224.684 78.928,225.441 66.272 C 225.739 61.286,226.153 60.515,229.509 58.688 C 233.408 56.566,236.945 56.011,240.272 56.999 M253.499 93.147 C 247.980 94.774,246.446 95.914,245.195 99.318 C 244.727 100.593,243.813 102.240,243.165 102.979 L 241.986 104.322 243.693 105.132 C 246.683 106.551,251.645 106.797,282.653 107.068 L 312.707 107.331 314.653 106.202 C 315.724 105.581,317.521 104.085,318.646 102.877 L 320.691 100.681 321.706 101.440 C 322.264 101.858,323.041 102.675,323.433 103.255 C 325.752 106.687,330.420 107.536,334.181 105.212 L 335.622 104.321 334.261 102.815 C 333.050 101.475,332.169 99.478,331.431 96.400 C 331.299 95.850,330.788 94.916,330.296 94.324 L 329.400 93.248 291.699 93.124 C 270.964 93.056,253.774 93.066,253.499 93.147 M139.902 198.983 C 141.638 199.930,142.194 200.520,143.093 202.365 C 144.689 205.644,145.065 205.847,150.110 206.154 C 156.482 206.541,158.681 207.728,160.631 211.837 C 161.215 213.067,162.393 214.543,163.606 215.566 C 166.048 217.626,166.809 219.055,168.211 224.213 C 169.645 229.495,170.314 231.141,171.666 232.711 C 172.287 233.432,173.201 234.782,173.698 235.711 L 174.600 237.400 174.632 287.800 C 174.656 325.582,174.540 339.201,174.169 342.200 L 173.674 346.200 171.825 347.876 C 168.789 350.627,166.410 351.329,159.480 351.515 C 149.682 351.778,147.529 350.103,146.999 341.800 C 146.628 336.001,145.491 334.750,144.370 338.910 C 143.756 341.193,142.210 342.577,139.593 343.187 C 136.657 343.871,134.958 344.960,133.724 346.948 C 131.345 350.781,130.054 351.194,119.200 351.598 C 109.942 351.943,104.390 353.001,99.626 355.326 C 96.440 356.881,94.979 356.871,91.599 355.268 C 87.378 353.268,81.360 351.940,75.600 351.739 C 68.466 351.490,67.317 351.000,65.538 347.450 C 64.429 345.236,62.924 343.691,61.591 343.398 C 59.928 343.033,57.324 340.595,56.780 338.894 C 55.920 336.203,54.702 334.454,52.897 333.318 C 48.854 330.772,48.314 328.052,48.189 309.600 C 48.074 292.720,48.210 291.970,52.025 288.397 C 54.350 286.218,54.391 286.142,55.535 281.780 C 57.232 275.313,57.869 274.313,61.206 272.883 C 63.323 271.976,63.630 271.630,64.567 269.093 C 65.583 266.344,67.171 265.312,72.507 263.935 C 76.955 262.787,77.022 262.752,79.200 260.448 C 82.569 256.883,83.783 256.558,94.800 256.277 C 99.750 256.151,105.760 255.832,108.155 255.569 C 111.849 255.163,113.724 255.198,120.499 255.799 C 133.353 256.939,141.763 256.062,141.025 253.658 C 140.134 250.751,139.559 247.042,139.343 242.800 C 139.050 237.064,138.449 235.380,136.227 234.069 C 135.453 233.612,134.321 232.480,133.710 231.552 C 133.100 230.625,131.859 229.086,130.953 228.133 L 129.305 226.400 108.459 226.400 L 87.612 226.400 85.657 227.603 C 84.582 228.264,83.255 229.482,82.707 230.310 C 82.160 231.137,81.072 232.159,80.289 232.580 L 78.867 233.346 77.461 232.274 C 73.778 229.465,72.154 223.895,72.621 215.678 C 72.991 209.166,73.891 207.408,77.816 205.533 C 79.615 204.674,80.399 204.060,80.571 203.373 C 81.899 198.082,84.637 197.650,116.200 197.761 L 137.800 197.836 139.902 198.983 M339.011 233.664 C 343.576 236.792,343.356 234.038,343.498 289.764 C 343.635 343.273,343.762 340.420,341.096 343.457 C 337.949 347.042,335.440 346.364,329.359 340.288 C 327.329 338.259,323.388 334.530,320.600 332.000 C 317.812 329.470,314.850 326.741,314.017 325.937 C 313.183 325.132,311.941 324.183,311.256 323.829 C 310.571 323.475,309.399 322.648,308.651 321.991 C 306.492 320.096,304.650 319.498,301.836 319.782 C 295.313 320.439,295.691 320.309,294.348 322.360 C 291.644 326.491,289.130 327.285,278.346 327.416 C 268.896 327.531,266.505 327.991,264.083 330.161 C 258.460 335.201,244.910 335.395,239.212 330.517 C 236.854 328.499,234.385 328.021,224.200 327.612 C 210.936 327.080,208.571 326.422,206.135 322.590 C 205.439 321.495,204.049 319.790,203.047 318.800 C 202.044 317.810,200.777 316.020,200.230 314.821 L 199.237 312.643 200.089 311.127 C 201.993 307.740,202.341 307.655,218.446 306.625 C 221.646 306.420,225.588 304.860,227.686 302.968 C 229.501 301.330,232.277 299.891,235.331 299.003 C 240.120 297.611,243.300 295.799,246.429 292.680 C 248.063 291.052,250.442 289.131,251.716 288.413 C 253.335 287.499,254.262 286.654,254.798 285.603 C 255.915 283.413,257.657 281.936,260.494 280.771 C 263.589 279.500,263.669 278.890,261.000 276.895 C 259.553 275.813,258.660 274.709,257.768 272.898 C 256.269 269.854,255.124 268.586,253.011 267.629 C 251.059 266.745,249.824 265.604,248.959 263.888 C 248.022 262.027,246.015 260.028,244.400 259.348 C 242.693 258.628,240.937 257.010,240.118 255.400 C 239.215 253.628,237.998 252.422,236.200 251.517 C 232.218 249.514,229.982 244.774,229.613 237.555 C 229.580 236.910,232.046 234.969,234.200 233.943 L 236.600 232.801 287.175 232.800 L 337.750 232.800 339.011 233.664 M116.200 277.205 C 103.057 277.472,102.699 277.551,100.430 280.691 C 99.728 281.663,98.398 282.796,97.304 283.353 C 90.579 286.780,88.816 288.296,84.457 294.400 C 82.965 296.490,81.127 298.613,80.372 299.118 C 77.645 300.943,76.856 303.360,77.438 308.105 C 78.078 313.334,78.101 313.384,80.618 314.994 C 82.362 316.110,82.953 316.807,83.978 318.955 C 85.355 321.840,86.524 322.879,89.201 323.600 C 92.081 324.376,93.782 325.429,95.532 327.518 C 99.831 332.654,114.025 332.746,118.592 327.669 C 121.593 324.332,126.222 322.816,133.430 322.806 C 139.160 322.798,139.255 322.710,140.115 316.600 C 140.593 313.209,140.645 311.466,140.343 309.000 C 140.127 307.240,139.826 299.699,139.675 292.242 L 139.400 278.685 138.400 277.981 C 137.107 277.072,131.836 276.888,116.200 277.205 " stroke="none" fill="#137c13" fill-rule="evenodd"></path><path id="path3" d="M277.329 29.809 C 271.745 33.156,272.147 41.329,278.382 51.200 C 279.008 52.190,279.646 53.604,279.801 54.342 C 280.279 56.626,281.591 59.173,282.925 60.407 C 291.421 68.276,297.072 69.340,299.989 63.622 C 300.418 62.780,302.397 60.456,304.385 58.458 C 308.444 54.380,308.376 54.593,307.195 49.665 C 306.264 45.782,305.419 44.583,299.603 38.897 C 295.571 34.955,294.193 34.185,289.400 33.198 C 288.080 32.926,285.248 31.826,283.107 30.752 C 278.526 28.455,279.361 28.591,277.329 29.809 M283.429 34.926 C 285.393 35.875,289.214 37.615,291.919 38.793 C 298.882 41.825,300.625 43.699,302.154 49.802 L 303.228 54.088 302.129 55.528 C 301.525 56.320,299.916 58.246,298.554 59.808 L 296.077 62.648 291.577 61.175 C 284.683 58.919,283.137 57.221,281.637 50.263 C 280.717 45.993,280.440 45.314,278.753 43.200 C 275.834 39.540,275.512 37.039,277.647 34.607 C 279.191 32.849,279.124 32.845,283.429 34.926 M53.446 54.300 C 52.192 58.511,52.002 62.458,51.614 92.200 C 50.779 156.246,50.785 156.446,53.621 160.429 C 54.049 161.031,54.400 161.683,54.400 161.878 C 54.400 162.649,57.911 165.601,59.800 166.419 L 61.800 167.284 108.697 167.221 C 149.875 167.166,155.851 167.082,157.697 166.535 C 160.461 165.716,162.386 164.708,163.532 163.479 L 164.464 162.480 163.280 159.740 C 162.628 158.233,161.877 156.058,161.610 154.907 C 160.878 151.755,159.249 149.800,156.087 148.277 C 153.655 147.107,153.285 146.763,152.196 144.666 C 150.875 142.125,149.734 141.055,147.600 140.361 C 145.786 139.770,143.745 137.825,143.464 136.419 C 143.123 134.713,141.373 132.929,139.289 132.163 C 136.173 131.017,135.129 129.791,135.415 127.614 C 135.696 125.473,136.374 121.685,136.649 120.718 C 136.755 120.342,138.177 119.393,139.808 118.609 C 142.628 117.253,144.597 115.313,145.263 113.234 C 145.362 112.923,146.694 112.004,148.222 111.193 C 150.266 110.107,151.634 108.979,153.400 106.924 C 155.730 104.213,162.320 100.000,164.231 100.000 C 165.261 100.000,168.551 98.127,169.763 96.849 C 171.852 94.649,178.818 92.636,183.165 92.976 C 194.123 93.833,201.792 89.783,198.498 84.879 C 197.514 83.414,189.526 76.800,188.741 76.800 C 188.569 76.800,187.811 76.259,187.057 75.597 C 184.078 72.981,182.727 72.679,172.600 72.372 C 162.288 72.060,160.477 71.724,158.251 69.713 C 153.044 65.009,138.641 64.650,134.042 69.111 C 131.164 71.902,130.537 72.057,120.400 72.468 C 108.077 72.968,104.218 73.983,100.192 77.783 C 97.357 80.458,96.264 80.805,91.544 80.532 C 86.980 80.267,86.625 80.114,85.756 78.032 C 84.904 75.994,83.349 74.519,81.232 73.741 C 78.939 72.899,77.316 71.438,76.981 69.914 C 76.596 68.158,74.600 66.139,72.481 65.360 C 70.063 64.471,68.629 63.141,68.067 61.266 C 67.101 58.043,65.074 56.845,59.254 56.059 C 56.967 55.750,56.067 55.430,55.232 54.630 C 53.961 53.413,53.723 53.369,53.446 54.300 M233.642 57.033 C 227.412 58.708,225.783 60.543,225.441 66.272 C 224.684 78.928,224.333 79.985,219.120 85.311 C 217.773 86.688,216.917 88.087,216.060 90.311 C 214.295 94.895,214.207 95.829,215.193 99.485 C 216.890 105.775,218.724 107.350,224.859 107.785 C 230.569 108.190,232.272 109.054,234.008 112.427 C 234.412 113.213,235.557 114.718,236.553 115.772 C 237.744 117.033,238.725 118.635,239.420 120.451 C 240.640 123.644,242.041 125.208,244.936 126.610 C 247.520 127.861,248.523 128.703,249.365 130.332 C 251.656 134.762,256.792 134.744,259.541 130.296 C 260.918 128.067,262.057 127.804,270.200 127.832 C 277.193 127.855,284.810 128.594,284.134 129.183 C 283.950 129.343,282.627 129.781,281.193 130.156 C 277.059 131.238,275.574 132.252,274.255 134.891 L 273.109 137.181 273.798 139.990 C 274.176 141.535,274.989 143.493,275.604 144.342 L 276.722 145.886 274.015 147.508 C 270.870 149.391,265.128 151.120,257.200 152.569 C 254.363 153.088,252.806 153.122,247.800 152.777 C 244.500 152.550,237.010 152.259,231.156 152.130 L 220.513 151.896 217.893 154.465 C 215.582 156.731,215.171 157.371,214.402 159.904 L 213.530 162.775 214.587 165.087 C 215.847 167.840,217.125 169.264,219.161 170.182 C 219.987 170.555,220.970 171.379,221.345 172.014 C 225.026 178.246,235.839 180.299,243.800 176.276 L 246.200 175.063 258.687 174.881 L 271.175 174.698 274.606 175.768 C 279.519 177.299,279.600 177.417,279.600 183.010 C 279.600 188.361,280.002 187.904,274.329 189.003 C 271.902 189.473,268.621 189.649,262.219 189.655 C 251.733 189.665,250.597 190.063,248.825 194.339 C 247.885 196.608,250.079 200.236,252.968 201.189 C 254.710 201.764,255.812 202.999,257.199 205.933 C 258.783 209.281,260.590 210.196,266.400 210.590 C 271.149 210.912,272.112 211.336,273.017 213.502 C 274.825 217.830,277.709 218.913,284.645 217.867 C 290.228 217.026,291.832 215.292,293.494 208.300 L 294.555 203.842 297.078 201.367 C 300.881 197.639,300.794 198.063,300.715 183.616 L 300.646 171.164 302.530 169.282 L 304.413 167.400 329.035 167.502 C 357.588 167.621,359.871 167.370,363.702 163.701 C 364.940 162.516,364.927 162.395,363.142 158.539 C 362.514 157.181,361.996 155.740,361.991 155.335 C 361.950 152.167,358.264 148.796,352.886 147.009 C 350.676 146.275,348.202 145.223,347.390 144.670 L 345.912 143.666 344.069 144.456 C 343.056 144.890,341.968 145.461,341.652 145.723 C 340.940 146.315,324.047 146.586,317.056 146.118 L 312.312 145.800 310.177 141.816 C 307.640 137.079,307.548 137.295,312.817 135.614 C 317.336 134.173,318.731 133.197,319.807 130.725 C 320.219 129.776,320.597 128.940,320.645 128.867 C 320.809 128.619,328.968 127.671,333.400 127.385 C 342.134 126.821,344.247 124.007,342.570 115.169 C 341.414 109.076,342.481 105.978,346.420 103.990 C 349.250 102.561,351.545 100.578,353.624 97.767 C 355.187 95.652,359.793 93.405,364.181 92.617 C 367.119 92.090,371.204 89.542,372.172 87.635 C 373.277 85.456,374.109 79.290,373.428 78.319 C 371.661 75.795,365.163 71.219,363.326 71.204 C 363.066 71.202,362.346 70.451,361.726 69.537 C 357.992 64.022,349.950 63.799,346.751 69.120 C 346.261 69.934,345.811 70.667,345.749 70.748 C 344.279 72.694,256.027 73.581,250.948 71.700 L 249.000 70.979 247.959 66.990 C 245.701 58.333,240.990 55.057,233.642 57.033 M63.616 59.612 C 64.243 60.058,65.394 61.472,66.173 62.755 C 67.403 64.781,70.087 67.200,71.103 67.200 C 71.703 67.200,74.458 70.145,75.195 71.575 C 76.047 73.228,77.954 75.088,80.121 76.383 C 80.958 76.883,82.350 78.250,83.216 79.421 C 85.795 82.913,86.763 83.433,91.600 83.926 L 95.800 84.354 99.932 82.378 C 102.204 81.291,104.825 79.778,105.755 79.016 C 109.639 75.833,111.706 75.263,120.400 74.977 C 128.586 74.707,132.078 74.167,135.400 72.657 C 136.500 72.157,139.290 71.335,141.600 70.830 L 145.800 69.913 150.200 71.115 C 152.620 71.777,156.220 72.802,158.200 73.394 C 161.503 74.382,162.543 74.489,170.800 74.688 C 181.905 74.956,184.043 75.762,186.056 80.442 C 186.746 82.046,187.507 82.852,190.248 84.882 C 192.090 86.246,193.463 87.484,193.299 87.632 C 191.998 88.804,188.112 89.600,183.685 89.600 C 176.965 89.601,170.596 91.415,165.149 94.880 C 163.967 95.632,160.894 97.385,158.321 98.776 C 154.647 100.761,153.066 101.898,150.963 104.068 C 149.489 105.587,147.259 107.549,146.008 108.427 C 144.757 109.304,142.865 111.028,141.804 112.257 C 140.744 113.485,139.028 115.100,137.992 115.844 C 134.784 118.148,133.964 119.820,133.479 125.040 L 133.060 129.541 134.177 131.006 C 134.792 131.811,136.218 133.065,137.347 133.791 C 139.612 135.248,140.650 136.297,141.909 138.400 C 142.915 140.081,144.875 141.961,146.841 143.133 C 147.633 143.605,148.911 144.939,149.680 146.096 C 150.449 147.253,151.828 148.830,152.744 149.600 C 153.661 150.370,155.187 151.669,156.135 152.487 L 157.860 153.973 157.537 156.661 C 157.135 159.995,156.504 162.048,155.679 162.700 C 155.182 163.093,145.164 163.200,108.650 163.200 L 62.253 163.200 60.340 161.215 C 59.288 160.124,57.885 158.156,57.222 156.843 L 56.016 154.455 56.219 116.127 C 56.330 95.047,56.528 74.291,56.658 70.003 L 56.895 62.205 58.200 60.974 C 59.274 59.961,60.252 59.457,62.338 58.841 C 62.414 58.818,62.989 59.165,63.616 59.612 M241.100 61.008 L 242.689 62.368 243.199 66.791 C 244.069 74.347,245.195 75.313,253.000 75.204 C 254.100 75.189,273.540 75.103,296.200 75.013 C 346.658 74.813,345.442 74.909,349.823 70.798 C 353.814 67.054,354.799 67.123,359.071 71.450 C 359.967 72.357,361.775 73.673,363.090 74.374 C 364.404 75.074,366.262 76.444,367.217 77.418 L 368.954 79.188 368.424 81.294 C 366.740 87.981,366.173 88.521,358.243 90.983 L 353.486 92.459 350.243 95.750 C 345.954 100.102,346.332 99.889,341.614 100.598 C 336.622 101.348,336.756 101.423,334.298 96.439 C 333.369 94.556,331.873 92.247,330.973 91.307 L 329.337 89.600 291.769 89.608 L 254.200 89.616 250.599 90.541 C 245.375 91.882,244.540 92.514,242.428 96.718 C 240.210 101.135,238.548 102.221,233.119 102.806 C 226.016 103.570,221.230 101.976,219.399 98.234 C 218.165 95.711,218.219 95.342,220.376 91.600 C 221.200 90.170,221.988 88.681,222.128 88.292 C 222.540 87.140,225.360 83.152,227.284 81.000 C 229.273 78.775,229.528 77.644,230.391 67.200 C 230.826 61.939,231.349 61.146,235.378 59.644 C 237.746 58.760,238.756 59.001,241.100 61.008 M330.296 94.324 C 330.788 94.916,331.299 95.850,331.431 96.400 C 332.169 99.478,333.050 101.475,334.261 102.815 L 335.622 104.321 334.181 105.212 C 330.420 107.536,325.752 106.687,323.433 103.255 C 323.041 102.675,322.264 101.858,321.706 101.440 L 320.691 100.681 318.646 102.877 C 317.521 104.085,315.724 105.581,314.653 106.202 L 312.707 107.331 282.653 107.068 C 251.645 106.797,246.683 106.551,243.693 105.132 L 241.986 104.322 243.165 102.979 C 243.813 102.240,244.727 100.593,245.195 99.318 C 246.446 95.914,247.980 94.774,253.499 93.147 C 253.774 93.066,270.964 93.056,291.699 93.124 L 329.400 93.248 330.296 94.324 M324.850 108.341 C 327.640 109.743,329.365 110.345,331.118 110.528 C 336.362 111.076,337.847 112.309,339.448 117.443 L 340.482 120.761 339.613 121.981 C 338.106 124.098,336.772 124.456,326.881 125.405 C 320.092 126.056,320.017 126.087,317.378 129.376 C 315.259 132.017,313.816 132.948,310.577 133.762 C 304.604 135.262,302.845 136.742,303.774 139.486 C 305.336 144.096,306.800 146.099,309.657 147.535 L 312.314 148.869 324.189 149.097 C 332.272 149.251,337.682 149.166,341.132 148.829 L 346.200 148.333 350.000 149.602 C 357.604 152.140,358.489 153.603,356.724 160.713 C 356.103 163.215,357.042 163.126,329.786 163.268 C 309.013 163.377,304.425 163.499,303.600 163.965 C 301.568 165.113,299.572 166.983,298.106 169.111 L 296.600 171.297 296.671 183.606 L 296.743 195.915 295.004 197.952 C 292.487 200.901,291.088 203.628,289.580 208.529 C 288.066 213.450,288.157 213.362,283.058 214.787 C 279.029 215.913,278.589 215.772,275.585 212.383 C 272.418 208.810,271.870 208.544,266.566 208.000 L 262.200 207.552 260.600 205.836 C 259.720 204.892,258.519 203.293,257.931 202.284 C 257.259 201.131,256.038 199.902,254.646 198.978 C 251.235 196.713,250.940 196.034,252.556 194.165 L 253.873 192.642 261.636 192.316 C 281.716 191.473,282.362 191.189,282.384 183.200 C 282.398 178.313,281.299 172.831,279.866 170.645 L 279.185 169.605 264.692 169.795 C 246.761 170.030,246.675 170.040,242.935 172.251 C 237.951 175.198,238.011 175.186,233.128 174.205 C 229.079 173.390,228.740 173.244,226.594 171.373 C 225.349 170.288,223.375 168.730,222.206 167.911 C 217.526 164.632,216.530 162.635,218.341 160.160 C 220.965 156.575,223.289 156.237,242.726 156.615 C 262.663 157.003,268.054 156.272,275.159 152.219 C 278.925 150.071,279.520 149.578,280.468 147.820 L 281.535 145.841 280.710 144.220 C 280.256 143.329,279.482 142.060,278.990 141.400 C 277.075 138.833,276.678 137.645,277.380 136.575 C 278.810 134.392,284.241 132.299,291.313 131.206 C 297.028 130.322,296.999 130.344,297.571 126.431 C 297.824 124.701,298.203 122.688,298.412 121.957 C 298.763 120.734,298.675 120.506,297.326 119.124 C 295.600 117.357,295.334 117.466,293.516 120.687 C 291.067 125.027,290.256 125.225,274.529 125.322 L 261.800 125.400 259.582 126.440 C 258.362 127.013,256.718 128.048,255.929 128.740 C 254.100 130.346,254.102 130.347,251.983 128.156 C 251.002 127.142,248.728 125.355,246.929 124.184 C 243.300 121.823,243.029 121.472,242.612 118.601 C 242.452 117.501,241.979 115.701,241.561 114.601 C 240.588 112.041,240.551 112.219,242.286 111.147 L 243.771 110.229 278.393 110.351 L 313.014 110.474 316.197 108.827 C 317.948 107.921,319.556 107.004,319.770 106.790 C 320.386 106.174,320.771 106.291,324.850 108.341 M90.600 197.969 C 84.824 198.378,81.356 200.247,80.571 203.373 C 80.399 204.060,79.615 204.674,77.816 205.533 C 73.891 207.408,72.991 209.166,72.621 215.678 C 72.154 223.895,73.778 229.465,77.461 232.274 L 78.867 233.346 80.289 232.580 C 81.072 232.159,82.160 231.137,82.707 230.310 C 83.255 229.482,84.582 228.264,85.657 227.603 L 87.612 226.400 108.459 226.400 L 129.305 226.400 130.953 228.133 C 131.859 229.086,133.100 230.625,133.710 231.552 C 134.321 232.480,135.453 233.612,136.227 234.069 C 138.449 235.380,139.050 237.064,139.343 242.800 C 139.559 247.042,140.134 250.751,141.025 253.658 C 141.763 256.062,133.353 256.939,120.499 255.799 C 113.724 255.198,111.849 255.163,108.155 255.569 C 105.760 255.832,99.750 256.151,94.800 256.277 C 83.783 256.558,82.569 256.883,79.200 260.448 C 77.022 262.752,76.955 262.787,72.507 263.935 C 67.171 265.312,65.583 266.344,64.567 269.093 C 63.630 271.630,63.323 271.976,61.206 272.883 C 57.869 274.313,57.232 275.313,55.535 281.780 C 54.391 286.142,54.350 286.218,52.025 288.397 C 48.210 291.970,48.074 292.720,48.189 309.600 C 48.314 328.052,48.854 330.772,52.897 333.318 C 54.702 334.454,55.920 336.203,56.780 338.894 C 57.324 340.595,59.928 343.033,61.591 343.398 C 62.924 343.691,64.429 345.236,65.538 347.450 C 67.317 351.000,68.466 351.490,75.600 351.739 C 81.360 351.940,87.378 353.268,91.599 355.268 C 94.979 356.871,96.440 356.881,99.626 355.326 C 104.390 353.001,109.942 351.943,119.200 351.598 C 130.054 351.194,131.345 350.781,133.724 346.948 C 134.958 344.960,136.657 343.871,139.593 343.187 C 142.210 342.577,143.756 341.193,144.370 338.910 C 145.491 334.750,146.628 336.001,146.999 341.800 C 147.529 350.103,149.682 351.778,159.480 351.515 C 166.410 351.329,168.789 350.627,171.825 347.876 L 173.674 346.200 174.169 342.200 C 174.540 339.201,174.656 325.582,174.632 287.800 L 174.600 237.400 173.698 235.711 C 173.201 234.782,172.287 233.432,171.666 232.711 C 170.314 231.141,169.645 229.495,168.211 224.213 C 166.809 219.055,166.048 217.626,163.606 215.566 C 162.393 214.543,161.215 213.067,160.631 211.837 C 158.681 207.728,156.482 206.541,150.110 206.154 C 145.065 205.847,144.689 205.644,143.093 202.365 C 142.194 200.520,141.638 199.930,139.902 198.983 L 137.800 197.836 116.200 197.761 C 104.320 197.719,92.800 197.813,90.600 197.969 M138.316 201.139 C 139.040 201.655,140.352 203.052,141.232 204.244 C 143.333 207.088,145.198 208.252,148.200 208.594 C 154.437 209.304,156.127 210.234,158.353 214.179 C 159.020 215.360,160.395 217.345,161.410 218.591 C 162.959 220.492,163.447 221.541,164.451 225.128 C 165.108 227.478,166.476 231.200,167.489 233.400 C 170.015 238.882,170.156 241.229,169.761 271.200 C 169.357 301.834,169.359 311.674,169.771 325.400 C 170.115 336.889,169.460 344.002,167.879 345.938 C 166.212 347.978,163.535 348.792,158.485 348.796 L 153.569 348.800 151.988 347.300 C 150.441 345.833,150.395 345.707,149.872 341.565 C 149.322 337.211,148.921 336.240,147.075 334.787 C 145.430 333.494,144.653 333.956,140.749 338.548 C 139.895 339.553,138.404 340.565,136.505 341.431 C 134.634 342.283,132.743 343.561,131.263 344.972 C 128.352 347.749,125.207 348.598,116.400 348.981 C 113.038 349.128,107.456 349.750,103.120 350.461 L 95.641 351.687 86.816 350.230 C 79.362 348.998,77.448 348.812,74.496 349.031 C 70.384 349.335,69.810 349.037,67.236 345.263 C 66.353 343.967,64.972 342.572,64.005 342.000 C 60.853 340.132,59.638 338.797,58.050 335.458 C 57.198 333.666,55.763 331.425,54.861 330.477 C 51.511 326.959,51.032 324.388,50.885 309.119 C 50.742 294.177,50.538 295.230,54.408 290.959 C 56.929 288.177,57.203 287.526,58.140 282.097 C 58.800 278.268,59.752 276.756,62.686 274.873 C 63.938 274.070,65.165 272.774,66.177 271.185 C 68.418 267.666,69.527 266.964,74.299 266.039 C 79.149 265.098,79.625 264.869,82.200 262.223 C 85.340 258.997,85.547 258.946,97.400 258.559 C 108.493 258.196,112.457 258.180,128.200 258.437 C 139.306 258.618,140.448 258.417,144.349 255.591 L 145.982 254.408 144.641 251.704 C 142.806 248.004,142.506 246.910,141.850 241.524 C 140.984 234.412,137.747 229.144,131.589 224.824 L 129.273 223.200 108.169 223.200 L 87.065 223.200 84.832 224.448 C 83.605 225.135,81.813 226.335,80.852 227.115 L 79.103 228.533 78.324 227.566 C 73.410 221.479,73.688 210.926,78.840 208.000 C 79.808 207.450,81.597 206.010,82.815 204.800 C 84.033 203.590,85.445 202.241,85.953 201.803 C 87.691 200.304,92.235 200.045,115.400 200.125 L 137.000 200.200 138.316 201.139 M234.200 233.943 C 232.046 234.969,229.580 236.910,229.613 237.555 C 229.982 244.774,232.218 249.514,236.200 251.517 C 237.998 252.422,239.215 253.628,240.118 255.400 C 240.937 257.010,242.693 258.628,244.400 259.348 C 246.015 260.028,248.022 262.027,248.959 263.888 C 249.824 265.604,251.059 266.745,253.011 267.629 C 255.124 268.586,256.269 269.854,257.768 272.898 C 258.660 274.709,259.553 275.813,261.000 276.895 C 263.669 278.890,263.589 279.500,260.494 280.771 C 257.657 281.936,255.915 283.413,254.798 285.603 C 254.262 286.654,253.335 287.499,251.716 288.413 C 250.442 289.131,248.063 291.052,246.429 292.680 C 243.300 295.799,240.120 297.611,235.331 299.003 C 232.277 299.891,229.501 301.330,227.686 302.968 C 225.588 304.860,221.646 306.420,218.446 306.625 C 202.341 307.655,201.993 307.740,200.089 311.127 L 199.237 312.643 200.230 314.821 C 200.777 316.020,202.044 317.810,203.047 318.800 C 204.049 319.790,205.439 321.495,206.135 322.590 C 208.571 326.422,210.936 327.080,224.200 327.612 C 234.385 328.021,236.854 328.499,239.212 330.517 C 244.910 335.395,258.460 335.201,264.083 330.161 C 266.505 327.991,268.896 327.531,278.346 327.416 C 289.130 327.285,291.644 326.491,294.348 322.360 C 295.691 320.309,295.313 320.439,301.836 319.782 C 304.650 319.498,306.492 320.096,308.651 321.991 C 309.399 322.648,310.571 323.475,311.256 323.829 C 311.941 324.183,313.183 325.132,314.017 325.937 C 314.850 326.741,317.812 329.470,320.600 332.000 C 323.388 334.530,327.329 338.259,329.359 340.288 C 335.440 346.364,337.949 347.042,341.096 343.457 C 343.762 340.420,343.635 343.273,343.498 289.764 C 343.356 234.038,343.576 236.792,339.011 233.664 L 337.750 232.800 287.175 232.800 L 236.600 232.801 234.200 233.943 M338.210 238.171 C 338.723 238.815,339.561 240.345,340.072 241.571 L 341.000 243.800 341.119 290.200 C 341.247 339.679,341.298 338.342,339.182 340.900 C 337.469 342.972,337.093 342.853,333.427 339.077 C 331.652 337.250,329.390 335.202,328.400 334.527 C 326.729 333.386,324.074 330.767,322.192 328.400 C 321.755 327.850,320.497 326.688,319.398 325.817 C 317.329 324.178,316.812 323.677,314.319 320.894 C 312.574 318.945,311.643 318.424,307.492 317.068 L 304.383 316.053 299.607 316.967 C 294.577 317.930,293.528 318.447,290.400 321.507 C 287.631 324.216,285.330 324.760,274.800 325.196 C 266.951 325.520,262.143 326.532,256.425 329.060 C 253.583 330.317,247.905 329.862,243.400 328.015 C 239.018 326.219,234.969 325.562,226.000 325.192 C 213.985 324.696,209.974 323.361,208.809 319.472 C 208.167 317.330,206.605 315.162,204.895 314.041 C 201.853 312.047,205.642 310.682,215.600 310.186 C 221.448 309.894,225.386 308.822,230.528 306.123 C 232.328 305.179,236.590 303.036,240.000 301.362 C 245.790 298.520,246.412 298.103,249.400 295.056 C 251.160 293.262,253.275 291.293,254.100 290.680 C 254.925 290.067,256.332 288.574,257.228 287.363 C 258.257 285.970,259.855 284.518,261.574 283.417 C 263.069 282.458,264.708 281.091,265.215 280.379 L 266.137 279.084 265.250 277.412 C 264.763 276.493,263.476 274.764,262.392 273.570 C 261.307 272.377,260.415 271.281,260.410 271.136 C 260.380 270.344,256.874 266.592,255.002 265.349 C 253.682 264.472,252.045 262.831,250.827 261.161 C 249.725 259.651,247.894 257.748,246.758 256.931 C 245.621 256.115,243.742 254.295,242.581 252.888 C 241.420 251.481,239.295 249.360,237.859 248.175 C 235.344 246.101,235.254 245.965,235.446 244.511 C 236.016 240.189,236.499 237.762,236.883 237.300 C 237.228 236.884,246.916 236.806,287.293 236.892 L 337.276 237.000 338.210 238.171 M116.200 274.800 L 103.800 275.000 101.200 276.236 C 99.770 276.916,97.994 277.996,97.254 278.636 C 96.514 279.276,93.738 281.150,91.085 282.800 C 86.526 285.635,86.116 286.000,83.631 289.443 C 82.184 291.446,80.217 293.966,79.259 295.043 C 73.098 301.969,73.045 311.439,79.129 318.210 C 80.378 319.600,82.142 321.606,83.049 322.669 C 84.122 323.925,85.660 325.087,87.449 325.993 C 88.962 326.759,91.010 328.118,92.000 329.013 C 94.748 331.496,95.604 331.904,99.926 332.785 C 109.115 334.657,118.565 333.096,122.800 329.006 C 125.483 326.415,127.887 325.557,133.126 325.321 C 139.696 325.024,141.201 323.884,142.833 317.964 C 143.282 316.334,143.988 314.422,144.402 313.716 C 145.001 312.694,145.076 312.165,144.774 311.116 C 143.695 307.376,143.147 301.868,142.784 291.121 C 142.182 273.307,143.886 274.353,116.200 274.800 M138.400 277.981 L 139.400 278.685 139.675 292.242 C 139.826 299.699,140.127 307.240,140.343 309.000 C 140.645 311.466,140.593 313.209,140.115 316.600 C 139.255 322.710,139.160 322.798,133.430 322.806 C 126.222 322.816,121.593 324.332,118.592 327.669 C 114.025 332.746,99.831 332.654,95.532 327.518 C 93.782 325.429,92.081 324.376,89.201 323.600 C 86.524 322.879,85.355 321.840,83.978 318.955 C 82.953 316.807,82.362 316.110,80.618 314.994 C 78.101 313.384,78.078 313.334,77.438 308.105 C 76.856 303.360,77.645 300.943,80.372 299.118 C 81.127 298.613,82.965 296.490,84.457 294.400 C 88.816 288.296,90.579 286.780,97.304 283.353 C 98.398 282.796,99.728 281.663,100.430 280.691 C 102.699 277.551,103.057 277.472,116.200 277.205 C 131.836 276.888,137.107 277.072,138.400 277.981 " stroke="none" fill="#7cb47c" fill-rule="evenodd"></path></g></svg>