<svg id="svg" version="1.1" xmlns="http://www.w3.org/2000/svg" xmlns:xlink="http://www.w3.org/1999/xlink" width="48" height="48" viewBox="0 0 400 400"><g id="svgg"><path id="path0" d="M134.800 71.233 C 125.698 72.008,121.473 72.796,120.318 73.934 L 119.236 75.000 118.807 96.746 C 118.571 108.707,118.220 118.787,118.026 119.146 C 116.692 121.620,115.479 121.961,104.306 122.996 C 100.508 123.348,94.700 124.071,91.400 124.603 C 88.100 125.134,82.340 125.850,78.600 126.194 C 74.860 126.538,69.100 127.253,65.800 127.782 C 62.500 128.311,58.373 128.865,56.628 129.013 C 54.883 129.161,52.840 129.575,52.087 129.934 L 50.719 130.587 50.920 132.993 C 51.242 136.838,53.097 148.697,53.956 152.403 C 54.389 154.271,55.032 158.140,55.385 161.000 C 56.388 169.129,57.188 170.350,61.203 169.874 C 64.379 169.498,64.608 169.882,64.553 175.471 C 64.500 180.935,63.896 187.909,62.812 195.600 C 62.393 198.570,61.756 204.420,61.395 208.600 C 61.035 212.780,60.393 218.000,59.969 220.200 C 59.545 222.400,58.913 227.080,58.566 230.600 C 58.218 234.120,57.671 238.440,57.349 240.200 C 56.496 244.870,55.740 249.906,55.010 255.800 C 54.656 258.660,54.111 261.990,53.800 263.200 C 53.489 264.410,52.856 268.280,52.394 271.800 C 51.933 275.320,51.129 280.000,50.608 282.200 C 50.087 284.400,49.449 287.820,49.191 289.800 C 48.933 291.780,48.216 295.470,47.598 298.000 C 44.221 311.828,44.377 312.359,52.291 313.990 C 54.540 314.454,57.023 315.101,57.808 315.429 C 58.593 315.757,60.948 316.378,63.042 316.809 C 65.137 317.240,68.130 317.981,69.695 318.456 L 72.539 319.320 73.413 318.225 C 74.676 316.641,76.286 311.613,77.007 307.000 C 77.350 304.800,77.973 301.893,78.391 300.539 C 78.808 299.185,79.530 295.588,79.994 292.546 C 80.458 289.503,81.182 285.700,81.602 284.095 C 82.023 282.491,82.736 278.400,83.187 275.006 C 83.638 271.612,84.355 267.342,84.781 265.517 C 85.207 263.693,85.851 259.680,86.212 256.600 C 86.573 253.520,87.290 248.840,87.804 246.200 C 88.319 243.560,89.033 238.525,89.391 235.010 C 89.749 231.496,90.386 226.816,90.807 224.610 C 91.227 222.405,91.851 217.810,92.193 214.400 C 92.535 210.990,93.021 207.797,93.273 207.304 C 93.875 206.127,98.777 204.236,103.444 203.382 C 105.400 203.024,108.440 202.316,110.200 201.809 C 115.411 200.308,115.499 200.299,116.394 201.194 C 117.382 202.182,117.322 200.690,117.207 221.503 C 117.097 241.341,117.014 240.800,120.165 240.800 C 122.179 240.800,128.614 239.535,132.168 238.442 C 133.506 238.030,136.660 237.300,139.177 236.820 C 141.694 236.339,144.360 235.693,145.100 235.384 C 145.840 235.075,148.460 234.449,150.923 233.993 C 153.385 233.537,156.482 232.812,157.804 232.382 C 159.126 231.951,162.094 231.239,164.400 230.800 C 166.706 230.361,169.674 229.652,170.996 229.226 C 172.318 228.800,174.480 228.239,175.800 227.980 C 181.142 226.931,181.440 226.172,180.193 216.775 C 179.860 214.259,179.317 209.151,178.988 205.425 C 178.191 196.418,177.746 196.038,170.800 198.447 C 169.590 198.867,166.980 199.488,165.000 199.827 C 163.020 200.167,159.984 200.888,158.254 201.430 C 149.760 204.092,148.011 203.638,147.693 198.694 C 147.339 193.176,148.385 192.169,155.960 190.733 C 158.287 190.292,160.823 189.664,161.595 189.337 C 162.368 189.011,165.250 188.295,168.000 187.747 C 176.869 185.978,177.802 185.008,176.988 178.400 C 176.677 175.870,176.160 170.408,175.839 166.262 C 175.052 156.099,175.502 156.449,166.000 158.619 C 163.690 159.147,159.370 159.970,156.400 160.449 C 153.430 160.928,150.519 161.401,149.931 161.501 C 148.466 161.749,147.600 160.028,147.600 156.870 C 147.600 151.605,147.683 151.520,153.971 150.388 C 156.379 149.954,158.837 149.414,159.433 149.187 C 160.029 148.961,163.325 148.326,166.758 147.777 C 170.191 147.228,173.810 146.521,174.800 146.206 C 176.950 145.522,183.297 144.403,185.038 144.401 C 187.416 144.399,187.684 145.174,188.261 153.710 C 189.489 171.895,189.933 172.862,196.118 170.843 C 197.483 170.398,200.220 169.748,202.200 169.399 C 212.608 167.564,212.635 167.535,213.196 157.550 C 213.423 153.507,213.782 147.950,213.993 145.200 C 214.204 142.450,214.560 135.610,214.786 130.000 C 215.011 124.390,215.278 118.059,215.379 115.930 C 215.597 111.351,214.974 110.000,212.647 110.000 C 210.208 110.000,195.403 111.623,190.800 112.395 C 188.270 112.820,183.140 113.453,179.400 113.802 C 175.660 114.152,169.900 114.869,166.600 115.396 C 150.326 117.995,148.268 117.774,148.080 113.405 C 147.848 108.048,147.753 108.109,157.534 107.375 C 161.640 107.067,166.980 106.547,169.400 106.219 C 171.820 105.892,175.780 105.429,178.200 105.190 C 184.688 104.550,184.575 104.676,184.273 98.369 C 183.587 84.025,182.612 81.188,178.555 81.744 C 176.111 82.079,169.819 82.613,158.626 83.435 L 149.452 84.108 148.526 83.032 C 147.672 82.039,147.600 81.591,147.600 77.267 C 147.600 70.218,147.466 70.155,134.800 71.233 M292.308 86.629 C 284.146 87.371,277.967 88.333,276.906 89.027 C 274.785 90.413,274.877 89.547,273.762 118.400 L 273.507 125.000 274.493 125.913 C 275.421 126.772,275.758 126.820,280.198 126.713 C 286.492 126.562,286.543 126.504,286.068 120.000 C 285.735 115.445,286.324 112.400,287.538 112.400 C 288.723 112.400,291.205 116.853,292.393 121.110 C 293.762 126.016,294.781 126.800,299.785 126.800 C 305.341 126.800,306.380 124.866,303.214 120.420 C 302.037 118.767,300.898 115.927,300.591 113.882 L 300.323 112.090 302.304 111.432 C 306.129 110.161,306.028 110.558,305.667 98.230 C 305.261 84.362,306.397 85.348,292.308 86.629 M256.594 89.971 C 251.519 90.363,249.600 91.972,249.600 95.838 C 249.600 97.700,250.706 99.262,252.406 99.802 C 254.059 100.326,254.480 102.411,253.796 106.684 C 253.451 108.838,252.999 111.671,252.790 112.980 C 252.246 116.405,251.137 117.056,245.600 117.199 C 242.652 117.275,241.137 117.997,240.563 119.600 C 239.735 121.910,239.867 124.923,240.852 126.175 L 241.704 127.258 252.275 127.129 L 262.847 127.000 263.576 126.033 C 264.369 124.981,264.374 124.917,265.255 104.169 C 265.926 88.372,266.438 89.212,256.594 89.971 M294.820 96.210 C 296.525 97.092,296.575 100.086,294.900 100.940 C 292.852 101.985,287.206 102.157,285.700 101.220 C 282.845 99.444,285.367 96.540,290.200 96.039 C 291.960 95.856,293.454 95.682,293.520 95.653 C 293.586 95.624,294.171 95.875,294.820 96.210 M240.251 134.812 C 239.691 135.478,239.136 136.603,239.019 137.312 C 238.164 142.484,237.556 148.348,237.000 156.800 C 236.338 166.865,236.116 169.237,234.991 178.200 C 234.067 185.565,233.711 185.943,226.432 187.296 C 224.104 187.728,220.654 188.503,218.763 189.018 C 216.873 189.532,213.633 190.239,211.563 190.588 C 209.494 190.937,206.556 191.591,205.035 192.042 C 203.514 192.494,200.544 193.194,198.435 193.598 C 191.333 194.960,190.869 195.537,191.538 202.170 C 191.761 204.386,192.234 209.080,192.588 212.600 C 193.765 224.294,194.107 224.813,199.338 222.824 C 199.909 222.606,202.047 222.145,204.088 221.799 C 206.130 221.453,209.330 220.729,211.200 220.190 C 213.070 219.651,216.130 218.929,218.000 218.585 C 219.870 218.241,223.059 217.487,225.086 216.909 C 229.699 215.595,230.624 215.845,230.877 218.471 C 231.108 220.881,230.161 234.524,229.229 242.200 C 228.802 245.720,228.336 249.811,228.195 251.290 C 227.889 254.494,227.343 255.084,222.775 257.138 C 221.139 257.874,218.720 258.993,217.400 259.625 C 216.080 260.257,214.196 261.055,213.213 261.400 C 212.230 261.744,210.700 262.446,209.813 262.959 C 208.926 263.472,207.480 264.116,206.600 264.389 C 205.720 264.663,204.100 265.380,203.000 265.984 C 201.900 266.588,200.280 267.309,199.400 267.585 C 198.520 267.862,197.080 268.494,196.200 268.989 C 195.320 269.485,193.610 270.256,192.400 270.703 C 191.190 271.149,189.326 271.980,188.257 272.549 C 184.036 274.794,183.104 271.359,181.601 248.000 C 181.129 240.680,180.781 239.311,179.297 238.938 C 178.090 238.636,170.181 240.121,165.971 241.440 C 164.306 241.962,161.426 242.670,159.571 243.013 C 157.717 243.356,154.850 244.070,153.200 244.601 C 151.550 245.132,148.617 245.857,146.683 246.211 C 144.749 246.565,142.195 247.189,141.008 247.597 C 139.821 248.006,136.938 248.727,134.600 249.200 C 132.262 249.673,129.346 250.406,128.120 250.828 C 126.893 251.250,124.339 251.876,122.445 252.220 C 120.550 252.564,117.650 253.275,116.000 253.801 C 114.350 254.327,111.380 255.064,109.400 255.439 C 102.401 256.764,101.392 257.893,101.805 263.937 C 102.273 270.774,101.023 296.273,99.988 301.011 C 99.795 301.897,99.174 306.307,98.609 310.811 C 98.044 315.315,97.413 319.610,97.208 320.355 C 96.421 323.207,100.080 324.734,111.200 326.196 C 113.730 326.528,117.203 327.098,118.917 327.462 L 122.035 328.123 123.425 326.776 C 125.171 325.084,125.367 324.308,126.401 315.000 C 126.866 310.820,127.495 305.833,127.801 303.918 C 128.106 302.002,128.560 297.052,128.811 292.918 C 129.450 282.348,129.680 281.793,133.925 280.569 C 135.176 280.208,137.190 279.556,138.400 279.119 C 143.167 277.397,149.474 275.623,150.867 275.612 C 152.985 275.595,153.421 277.152,153.994 286.800 C 154.249 291.090,154.805 297.237,155.230 300.459 C 155.655 303.681,156.362 311.133,156.801 317.018 C 157.258 323.133,157.793 327.950,158.049 328.259 C 158.909 329.296,161.469 328.904,163.655 327.400 C 164.774 326.630,165.898 326.000,166.152 326.000 C 166.406 326.000,167.331 325.505,168.207 324.900 C 169.083 324.295,170.700 323.333,171.800 322.763 C 173.744 321.755,175.797 320.590,182.000 316.979 C 183.650 316.018,186.050 314.700,187.332 314.049 C 188.615 313.398,189.965 312.594,190.332 312.261 C 190.700 311.929,191.810 311.283,192.800 310.825 C 193.790 310.367,196.130 309.105,198.000 308.019 C 199.870 306.933,202.570 305.393,204.000 304.596 C 205.430 303.799,207.950 302.355,209.600 301.387 C 211.250 300.420,213.410 299.240,214.400 298.766 C 215.390 298.292,216.803 297.452,217.541 296.900 C 218.772 295.979,221.845 294.800,223.015 294.800 C 224.579 294.800,224.511 297.979,222.615 313.400 C 221.319 323.945,220.539 323.262,235.600 324.781 C 252.154 326.451,253.160 326.370,253.961 323.297 C 254.415 321.558,254.998 310.783,255.634 292.400 C 256.296 273.273,255.333 275.067,268.735 268.000 C 269.778 267.450,271.164 266.616,271.816 266.146 C 272.467 265.676,273.664 265.015,274.476 264.676 C 275.997 264.042,279.849 261.353,280.658 260.361 C 281.400 259.451,280.390 252.589,277.809 241.000 C 275.948 232.646,276.313 232.724,264.966 238.240 C 258.989 241.146,258.616 240.659,258.956 230.403 C 259.710 207.688,259.248 208.575,271.600 206.154 C 276.724 205.150,281.349 203.298,282.166 201.922 C 282.453 201.438,282.261 199.656,281.499 195.722 C 280.911 192.685,280.234 188.490,279.995 186.400 C 278.954 177.311,277.551 175.199,273.507 176.637 C 268.193 178.527,263.143 178.895,262.204 177.462 C 261.526 176.427,261.803 168.164,263.005 153.600 C 264.788 131.991,265.756 133.600,250.976 133.600 L 241.271 133.600 240.251 134.812 M295.543 134.879 C 294.178 136.797,293.401 150.152,291.988 196.000 C 291.598 208.633,291.302 215.018,290.402 230.200 C 290.046 236.211,289.809 242.785,288.792 274.800 C 288.565 281.950,288.207 290.680,287.995 294.200 C 286.606 317.344,286.577 316.647,289.009 318.063 C 290.613 318.997,314.644 320.013,317.177 319.254 C 319.476 318.565,319.386 320.006,319.600 280.761 C 319.808 242.717,319.804 242.800,321.368 242.800 C 321.627 242.800,324.518 245.863,327.794 249.606 C 336.118 259.120,335.397 259.060,343.817 250.944 C 344.927 249.875,347.637 247.290,349.839 245.200 C 356.687 238.701,357.026 239.701,343.734 227.171 C 328.087 212.419,328.143 212.472,323.831 208.318 L 319.800 204.437 319.600 170.118 C 319.490 151.243,319.251 135.498,319.068 135.128 C 318.430 133.837,316.458 133.600,306.368 133.600 L 296.454 133.600 295.543 134.879 M116.060 158.032 C 117.802 158.965,118.463 162.608,117.548 166.239 C 117.018 168.345,116.087 168.957,112.800 169.363 C 111.590 169.512,108.301 170.196,105.491 170.882 C 101.220 171.926,100.073 172.071,98.491 171.765 L 96.600 171.400 96.483 168.074 C 96.281 162.300,97.519 161.130,105.059 159.973 C 107.886 159.540,111.280 158.845,112.600 158.429 C 113.920 158.013,115.057 157.657,115.126 157.636 C 115.196 157.616,115.616 157.794,116.060 158.032 " stroke="none" fill="#fbf6f6" fill-rule="evenodd"></path><path id="path1" d="M39.200 0.800 C 39.200 1.519,38.933 1.600,36.574 1.600 C 33.319 1.600,32.400 2.043,32.400 3.614 C 32.400 4.795,32.390 4.800,30.033 4.800 C 26.924 4.800,26.400 5.037,26.400 6.443 C 26.400 7.400,26.233 7.600,25.433 7.600 C 23.716 7.600,23.200 8.013,23.200 9.386 L 23.200 10.686 20.700 10.944 C 18.127 11.210,17.200 11.828,17.200 13.276 C 17.200 13.776,16.899 14.000,16.229 14.000 C 15.694 14.000,14.974 14.283,14.629 14.629 C 14.283 14.974,14.000 15.694,14.000 16.229 C 14.000 16.899,13.776 17.200,13.276 17.200 C 11.828 17.200,11.210 18.127,10.944 20.700 L 10.686 23.200 9.386 23.200 C 8.013 23.200,7.600 23.716,7.600 25.433 C 7.600 26.233,7.400 26.400,6.443 26.400 C 5.037 26.400,4.800 26.924,4.800 30.033 C 4.800 32.390,4.795 32.400,3.614 32.400 C 2.043 32.400,1.600 33.319,1.600 36.574 C 1.600 38.933,1.519 39.200,0.800 39.200 C 0.001 39.200,0.000 39.467,0.000 200.000 C 0.000 360.533,0.001 360.800,0.800 360.800 C 1.519 360.800,1.600 361.067,1.600 363.426 C 1.600 366.681,2.043 367.600,3.614 367.600 C 4.795 367.600,4.800 367.610,4.800 369.967 C 4.800 373.076,5.037 373.600,6.443 373.600 C 7.400 373.600,7.600 373.767,7.600 374.567 C 7.600 376.284,8.013 376.800,9.386 376.800 L 10.686 376.800 10.944 379.300 C 11.210 381.873,11.828 382.800,13.276 382.800 C 13.776 382.800,14.000 383.101,14.000 383.771 C 14.000 385.014,14.986 386.000,16.229 386.000 C 16.899 386.000,17.200 386.224,17.200 386.724 C 17.200 388.172,18.127 388.790,20.700 389.056 L 23.200 389.314 23.200 390.614 C 23.200 391.987,23.716 392.400,25.433 392.400 C 26.233 392.400,26.400 392.600,26.400 393.557 C 26.400 394.963,26.924 395.200,30.033 395.200 C 32.390 395.200,32.400 395.205,32.400 396.386 C 32.400 397.957,33.319 398.400,36.574 398.400 C 38.933 398.400,39.200 398.481,39.200 399.200 C 39.200 399.999,39.467 400.000,200.000 400.000 C 360.533 400.000,360.800 399.999,360.800 399.200 C 360.800 398.481,361.067 398.400,363.426 398.400 C 366.681 398.400,367.600 397.957,367.600 396.386 C 367.600 395.205,367.610 395.200,369.967 395.200 C 373.076 395.200,373.600 394.963,373.600 393.557 C 373.600 392.600,373.767 392.400,374.567 392.400 C 376.284 392.400,376.800 391.987,376.800 390.614 L 376.800 389.314 379.300 389.056 C 381.873 388.790,382.800 388.172,382.800 386.724 C 382.800 386.224,383.101 386.000,383.771 386.000 C 384.306 386.000,385.026 385.717,385.371 385.371 C 385.717 385.026,386.000 384.306,386.000 383.771 C 386.000 383.101,386.224 382.800,386.724 382.800 C 388.172 382.800,388.790 381.873,389.056 379.300 L 389.314 376.800 390.614 376.800 C 391.987 376.800,392.400 376.284,392.400 374.567 C 392.400 373.767,392.600 373.600,393.557 373.600 C 394.963 373.600,395.200 373.076,395.200 369.967 C 395.200 367.610,395.205 367.600,396.386 367.600 C 397.957 367.600,398.400 366.681,398.400 363.426 C 398.400 361.067,398.481 360.800,399.200 360.800 C 399.999 360.800,400.000 360.533,400.000 200.000 C 400.000 39.467,399.999 39.200,399.200 39.200 C 398.481 39.200,398.400 38.933,398.400 36.574 C 398.400 33.319,397.957 32.400,396.386 32.400 C 395.205 32.400,395.200 32.390,395.200 30.033 C 395.200 26.924,394.963 26.400,393.557 26.400 C 392.600 26.400,392.400 26.233,392.400 25.433 C 392.400 23.716,391.987 23.200,390.614 23.200 L 389.314 23.200 389.056 20.700 C 388.790 18.127,388.172 17.200,386.724 17.200 C 386.224 17.200,386.000 16.899,386.000 16.229 C 386.000 14.986,385.014 14.000,383.771 14.000 C 383.101 14.000,382.800 13.776,382.800 13.276 C 382.800 11.828,381.873 11.210,379.300 10.944 L 376.800 10.686 376.800 9.386 C 376.800 8.013,376.284 7.600,374.567 7.600 C 373.767 7.600,373.600 7.400,373.600 6.443 C 373.600 5.037,373.076 4.800,369.967 4.800 C 367.610 4.800,367.600 4.795,367.600 3.614 C 367.600 2.043,366.681 1.600,363.426 1.600 C 361.067 1.600,360.800 1.519,360.800 0.800 C 360.800 0.001,360.533 0.000,200.000 0.000 C 39.467 0.000,39.200 0.001,39.200 0.800 M146.977 71.689 C 147.455 72.371,147.600 73.670,147.600 77.267 C 147.600 81.591,147.672 82.039,148.526 83.032 L 149.452 84.108 158.626 83.435 C 169.819 82.613,176.111 82.079,178.555 81.744 C 182.612 81.188,183.587 84.025,184.273 98.369 C 184.575 104.676,184.688 104.550,178.200 105.190 C 175.780 105.429,171.820 105.892,169.400 106.219 C 166.980 106.547,161.640 107.067,157.534 107.375 C 147.753 108.109,147.848 108.048,148.080 113.405 C 148.268 117.774,150.326 117.995,166.600 115.396 C 169.900 114.869,175.660 114.152,179.400 113.802 C 183.140 113.453,188.270 112.820,190.800 112.395 C 195.403 111.623,210.208 110.000,212.647 110.000 C 214.974 110.000,215.597 111.351,215.379 115.930 C 215.278 118.059,215.011 124.390,214.786 130.000 C 214.560 135.610,214.204 142.450,213.993 145.200 C 213.782 147.950,213.423 153.507,213.196 157.550 C 212.635 167.535,212.608 167.564,202.200 169.399 C 200.220 169.748,197.483 170.398,196.118 170.843 C 189.933 172.862,189.489 171.895,188.261 153.710 C 187.684 145.174,187.416 144.399,185.038 144.401 C 183.297 144.403,176.950 145.522,174.800 146.206 C 173.810 146.521,170.191 147.228,166.758 147.777 C 163.325 148.326,160.029 148.961,159.433 149.187 C 158.837 149.414,156.379 149.954,153.971 150.388 C 147.683 151.520,147.600 151.605,147.600 156.870 C 147.600 160.028,148.466 161.749,149.931 161.501 C 150.519 161.401,153.430 160.928,156.400 160.449 C 159.370 159.970,163.690 159.147,166.000 158.619 C 175.502 156.449,175.052 156.099,175.839 166.262 C 176.160 170.408,176.677 175.870,176.988 178.400 C 177.802 185.008,176.869 185.978,168.000 187.747 C 165.250 188.295,162.368 189.011,161.595 189.337 C 160.823 189.664,158.287 190.292,155.960 190.733 C 148.385 192.169,147.339 193.176,147.693 198.694 C 148.011 203.638,149.760 204.092,158.254 201.430 C 159.984 200.888,163.020 200.167,165.000 199.827 C 166.980 199.488,169.590 198.867,170.800 198.447 C 177.746 196.038,178.191 196.418,178.988 205.425 C 179.317 209.151,179.860 214.259,180.193 216.775 C 181.440 226.172,181.142 226.931,175.800 227.980 C 174.480 228.239,172.318 228.800,170.996 229.226 C 169.674 229.652,166.706 230.361,164.400 230.800 C 162.094 231.239,159.126 231.951,157.804 232.382 C 156.482 232.812,153.385 233.537,150.923 233.993 C 148.460 234.449,145.840 235.075,145.100 235.384 C 144.360 235.693,141.694 236.339,139.177 236.820 C 136.660 237.300,133.506 238.030,132.168 238.442 C 128.614 239.535,122.179 240.800,120.165 240.800 C 117.014 240.800,117.097 241.341,117.207 221.503 C 117.322 200.690,117.382 202.182,116.394 201.194 C 115.499 200.299,115.411 200.308,110.200 201.809 C 108.440 202.316,105.400 203.024,103.444 203.382 C 98.777 204.236,93.875 206.127,93.273 207.304 C 93.021 207.797,92.535 210.990,92.193 214.400 C 91.851 217.810,91.227 222.405,90.807 224.610 C 90.386 226.816,89.749 231.496,89.391 235.010 C 89.033 238.525,88.319 243.560,87.804 246.200 C 87.290 248.840,86.573 253.520,86.212 256.600 C 85.851 259.680,85.207 263.693,84.781 265.517 C 84.355 267.342,83.638 271.612,83.187 275.006 C 82.736 278.400,82.023 282.491,81.602 284.095 C 81.182 285.700,80.458 289.503,79.994 292.546 C 79.530 295.588,78.808 299.185,78.391 300.539 C 77.973 301.893,77.350 304.800,77.007 307.000 C 76.286 311.613,74.676 316.641,73.413 318.225 L 72.539 319.320 69.695 318.456 C 68.130 317.981,65.137 317.240,63.042 316.809 C 60.948 316.378,58.593 315.757,57.808 315.429 C 57.023 315.101,54.540 314.454,52.291 313.990 C 44.377 312.359,44.221 311.828,47.598 298.000 C 48.216 295.470,48.933 291.780,49.191 289.800 C 49.449 287.820,50.087 284.400,50.608 282.200 C 51.129 280.000,51.933 275.320,52.394 271.800 C 52.856 268.280,53.489 264.410,53.800 263.200 C 54.111 261.990,54.656 258.660,55.010 255.800 C 55.740 249.906,56.496 244.870,57.349 240.200 C 57.671 238.440,58.218 234.120,58.566 230.600 C 58.913 227.080,59.545 222.400,59.969 220.200 C 60.393 218.000,61.035 212.780,61.395 208.600 C 61.756 204.420,62.393 198.570,62.812 195.600 C 63.896 187.909,64.500 180.935,64.553 175.471 C 64.608 169.882,64.379 169.498,61.203 169.874 C 57.188 170.350,56.388 169.129,55.385 161.000 C 55.032 158.140,54.389 154.271,53.956 152.403 C 53.097 148.697,51.242 136.838,50.920 132.993 L 50.719 130.587 52.087 129.934 C 52.840 129.575,54.883 129.161,56.628 129.013 C 58.373 128.865,62.500 128.311,65.800 127.782 C 69.100 127.253,74.860 126.538,78.600 126.194 C 82.340 125.850,88.100 125.134,91.400 124.603 C 94.700 124.071,100.508 123.348,104.306 122.996 C 115.479 121.961,116.692 121.620,118.026 119.146 C 118.220 118.787,118.571 108.707,118.807 96.746 L 119.236 75.000 120.318 73.934 C 122.630 71.656,145.599 69.722,146.977 71.689 M304.432 86.745 C 305.336 87.478,305.358 87.685,305.667 98.230 C 306.028 110.558,306.129 110.161,302.304 111.432 L 300.323 112.090 300.591 113.882 C 300.898 115.927,302.037 118.767,303.214 120.420 C 306.380 124.866,305.341 126.800,299.785 126.800 C 294.781 126.800,293.762 126.016,292.393 121.110 C 289.428 110.483,285.320 109.762,286.068 120.000 C 286.543 126.504,286.492 126.562,280.198 126.713 C 275.758 126.820,275.421 126.772,274.493 125.913 L 273.507 125.000 273.762 118.400 C 275.010 86.103,274.228 88.972,282.108 87.803 C 293.541 86.109,303.087 85.656,304.432 86.745 M264.175 90.061 C 265.668 90.742,265.769 92.058,265.255 104.169 C 264.374 124.917,264.369 124.981,263.576 126.033 L 262.847 127.000 252.275 127.129 L 241.704 127.258 240.852 126.175 C 239.867 124.923,239.735 121.910,240.563 119.600 C 241.137 117.997,242.652 117.275,245.600 117.199 C 251.137 117.056,252.246 116.405,252.790 112.980 C 252.999 111.671,253.451 108.838,253.796 106.684 C 254.480 102.411,254.059 100.326,252.406 99.802 C 248.805 98.659,248.528 93.222,251.963 91.099 C 253.923 89.888,262.242 89.181,264.175 90.061 M290.200 96.039 C 282.344 96.854,282.537 102.375,290.400 101.765 C 295.083 101.402,296.000 100.883,296.000 98.600 C 296.000 97.015,294.491 95.222,293.520 95.653 C 293.454 95.682,291.960 95.856,290.200 96.039 M261.903 134.026 C 264.323 134.870,264.415 136.513,263.005 153.600 C 261.803 168.164,261.526 176.427,262.204 177.462 C 263.143 178.895,268.193 178.527,273.507 176.637 C 277.551 175.199,278.954 177.311,279.995 186.400 C 280.234 188.490,280.911 192.685,281.499 195.722 C 282.261 199.656,282.453 201.438,282.166 201.922 C 281.349 203.298,276.724 205.150,271.600 206.154 C 259.248 208.575,259.710 207.688,258.956 230.403 C 258.616 240.659,258.989 241.146,264.966 238.240 C 276.313 232.724,275.948 232.646,277.809 241.000 C 280.390 252.589,281.400 259.451,280.658 260.361 C 279.849 261.353,275.997 264.042,274.476 264.676 C 273.664 265.015,272.467 265.676,271.816 266.146 C 271.164 266.616,269.778 267.450,268.735 268.000 C 255.333 275.067,256.296 273.273,255.634 292.400 C 254.998 310.783,254.415 321.558,253.961 323.297 C 253.160 326.370,252.154 326.451,235.600 324.781 C 220.539 323.262,221.319 323.945,222.615 313.400 C 224.511 297.979,224.579 294.800,223.015 294.800 C 221.845 294.800,218.772 295.979,217.541 296.900 C 216.803 297.452,215.390 298.292,214.400 298.766 C 213.410 299.240,211.250 300.420,209.600 301.387 C 207.950 302.355,205.430 303.799,204.000 304.596 C 202.570 305.393,199.870 306.933,198.000 308.019 C 196.130 309.105,193.790 310.367,192.800 310.825 C 191.810 311.283,190.700 311.929,190.332 312.261 C 189.965 312.594,188.615 313.398,187.332 314.049 C 186.050 314.700,183.650 316.018,182.000 316.979 C 175.797 320.590,173.744 321.755,171.800 322.763 C 170.700 323.333,169.083 324.295,168.207 324.900 C 167.331 325.505,166.406 326.000,166.152 326.000 C 165.898 326.000,164.774 326.630,163.655 327.400 C 161.469 328.904,158.909 329.296,158.049 328.259 C 157.793 327.950,157.258 323.133,156.801 317.018 C 156.362 311.133,155.655 303.681,155.230 300.459 C 154.805 297.237,154.249 291.090,153.994 286.800 C 153.421 277.152,152.985 275.595,150.867 275.612 C 149.474 275.623,143.167 277.397,138.400 279.119 C 137.190 279.556,135.176 280.208,133.925 280.569 C 129.680 281.793,129.450 282.348,128.811 292.918 C 128.560 297.052,128.106 302.002,127.801 303.918 C 127.495 305.833,126.866 310.820,126.401 315.000 C 125.367 324.308,125.171 325.084,123.425 326.776 L 122.035 328.123 118.917 327.462 C 117.203 327.098,113.730 326.528,111.200 326.196 C 100.080 324.734,96.421 323.207,97.208 320.355 C 97.413 319.610,98.044 315.315,98.609 310.811 C 99.174 306.307,99.795 301.897,99.988 301.011 C 101.023 296.273,102.273 270.774,101.805 263.937 C 101.392 257.893,102.401 256.764,109.400 255.439 C 111.380 255.064,114.350 254.327,116.000 253.801 C 117.650 253.275,120.550 252.564,122.445 252.220 C 124.339 251.876,126.893 251.250,128.120 250.828 C 129.346 250.406,132.262 249.673,134.600 249.200 C 136.938 248.727,139.821 248.006,141.008 247.597 C 142.195 247.189,144.749 246.565,146.683 246.211 C 148.617 245.857,151.550 245.132,153.200 244.601 C 154.850 244.070,157.717 243.356,159.571 243.013 C 161.426 242.670,164.306 241.962,165.971 241.440 C 170.181 240.121,178.090 238.636,179.297 238.938 C 180.781 239.311,181.129 240.680,181.601 248.000 C 183.104 271.359,184.036 274.794,188.257 272.549 C 189.326 271.980,191.190 271.149,192.400 270.703 C 193.610 270.256,195.320 269.485,196.200 268.989 C 197.080 268.494,198.520 267.862,199.400 267.585 C 200.280 267.309,201.900 266.588,203.000 265.984 C 204.100 265.380,205.720 264.663,206.600 264.389 C 207.480 264.116,208.926 263.472,209.813 262.959 C 210.700 262.446,212.230 261.744,213.213 261.400 C 214.196 261.055,216.080 260.257,217.400 259.625 C 218.720 258.993,221.139 257.874,222.775 257.138 C 227.343 255.084,227.889 254.494,228.195 251.290 C 228.336 249.811,228.802 245.720,229.229 242.200 C 230.161 234.524,231.108 220.881,230.877 218.471 C 230.624 215.845,229.699 215.595,225.086 216.909 C 223.059 217.487,219.870 218.241,218.000 218.585 C 216.130 218.929,213.070 219.651,211.200 220.190 C 209.330 220.729,206.130 221.453,204.088 221.799 C 202.047 222.145,199.909 222.606,199.338 222.824 C 194.107 224.813,193.765 224.294,192.588 212.600 C 192.234 209.080,191.761 204.386,191.538 202.170 C 190.869 195.537,191.333 194.960,198.435 193.598 C 200.544 193.194,203.514 192.494,205.035 192.042 C 206.556 191.591,209.494 190.937,211.563 190.588 C 213.633 190.239,216.873 189.532,218.763 189.018 C 220.654 188.503,224.104 187.728,226.432 187.296 C 233.711 185.943,234.067 185.565,234.991 178.200 C 236.116 169.237,236.338 166.865,237.000 156.800 C 237.556 148.348,238.164 142.484,239.019 137.312 C 239.136 136.603,239.691 135.478,240.251 134.812 L 241.271 133.600 250.976 133.600 C 256.808 133.600,261.168 133.770,261.903 134.026 M317.508 134.028 C 319.431 134.698,319.389 133.979,319.600 170.118 L 319.800 204.437 323.831 208.318 C 328.143 212.472,328.087 212.419,343.734 227.171 C 357.026 239.701,356.687 238.701,349.839 245.200 C 347.637 247.290,344.927 249.875,343.817 250.944 C 335.397 259.060,336.118 259.120,327.794 249.606 C 324.518 245.863,321.627 242.800,321.368 242.800 C 319.804 242.800,319.808 242.717,319.600 280.761 C 319.386 320.006,319.476 318.565,317.177 319.254 C 314.644 320.013,290.613 318.997,289.009 318.063 C 286.577 316.647,286.606 317.344,287.995 294.200 C 288.207 290.680,288.565 281.950,288.792 274.800 C 289.809 242.785,290.046 236.211,290.402 230.200 C 291.302 215.018,291.598 208.633,291.988 196.000 C 293.401 150.152,294.178 136.797,295.543 134.879 L 296.454 133.600 306.368 133.600 C 312.376 133.600,316.764 133.769,317.508 134.028 M112.600 158.429 C 111.280 158.845,107.886 159.540,105.059 159.973 C 97.519 161.130,96.281 162.300,96.483 168.074 L 96.600 171.400 98.491 171.765 C 100.073 172.071,101.220 171.926,105.491 170.882 C 108.301 170.196,111.590 169.512,112.800 169.363 C 116.886 168.858,118.000 167.455,118.000 162.810 C 118.000 160.264,116.345 157.284,115.126 157.636 C 115.057 157.657,113.920 158.013,112.600 158.429 " stroke="none" fill="#ec0c23" fill-rule="evenodd"></path></g></svg>