<svg id="svg" version="1.1" xmlns="http://www.w3.org/2000/svg" xmlns:xlink="http://www.w3.org/1999/xlink" width="48" height="48" viewBox="0 0 400 400"><g id="svgg"><path id="path0" d="M186.000 50.402 C 179.570 51.211,171.495 52.418,171.171 52.618 C 170.975 52.739,169.146 53.180,167.107 53.598 C 160.694 54.914,148.938 58.540,144.974 60.426 C 144.079 60.852,143.125 61.200,142.853 61.200 C 142.581 61.200,141.693 61.550,140.879 61.978 C 140.066 62.406,137.420 63.698,135.000 64.848 C 127.993 68.180,124.807 70.001,117.200 75.021 C 100.682 85.921,86.316 100.276,75.191 117.000 C 67.744 128.194,63.791 136.006,58.647 149.697 C 57.028 154.007,54.250 163.443,53.789 166.200 C 53.641 167.080,53.250 168.880,52.918 170.200 C 48.325 188.485,49.271 219.486,55.067 240.600 C 55.610 242.580,56.306 244.830,56.613 245.600 C 56.919 246.370,57.360 247.750,57.591 248.667 C 57.823 249.583,58.279 250.843,58.604 251.467 C 58.929 252.090,59.196 252.847,59.198 253.150 C 59.200 253.677,60.438 256.804,61.988 260.200 C 62.390 261.080,63.289 263.060,63.987 264.600 C 64.684 266.140,65.422 267.670,65.628 268.000 C 65.834 268.330,66.176 269.001,66.388 269.491 C 66.600 269.981,67.884 272.321,69.242 274.691 C 70.599 277.061,71.959 279.476,72.263 280.058 C 72.568 280.640,73.083 281.337,73.408 281.607 C 73.734 281.877,74.000 282.257,74.000 282.452 C 74.000 282.647,74.495 283.504,75.100 284.356 C 75.705 285.208,76.470 286.305,76.800 286.792 C 82.337 294.976,92.940 306.793,93.892 305.841 C 94.506 305.228,95.986 298.104,96.403 293.763 C 97.432 283.042,94.780 269.586,89.986 261.200 C 89.047 259.556,85.272 251.673,85.006 250.800 C 84.839 250.250,84.556 249.616,84.377 249.391 C 83.960 248.865,82.304 244.400,80.818 239.800 C 78.104 231.393,77.271 227.931,76.196 220.600 C 75.874 218.400,75.413 215.250,75.171 213.600 C 74.495 208.972,74.252 196.716,74.744 192.000 C 75.638 183.436,76.390 177.677,76.737 176.752 C 76.933 176.228,77.306 174.540,77.566 173.000 C 77.826 171.460,78.369 169.120,78.772 167.800 C 80.663 161.604,82.219 156.911,82.684 156.000 C 82.965 155.450,83.196 154.850,83.198 154.667 C 83.203 153.889,88.001 143.605,90.320 139.400 C 98.161 125.180,110.872 110.531,124.200 100.356 C 128.621 96.981,136.155 92.031,139.200 90.501 C 139.750 90.225,141.190 89.453,142.400 88.786 C 143.610 88.119,146.040 86.935,147.800 86.156 C 149.560 85.377,151.540 84.487,152.200 84.180 C 157.126 81.884,165.228 79.417,175.837 76.982 C 189.129 73.932,211.776 73.923,225.200 76.964 C 235.408 79.276,240.868 80.921,247.200 83.591 C 248.850 84.287,250.650 85.002,251.200 85.181 C 253.367 85.884,263.052 90.994,267.000 93.516 C 271.014 96.081,271.983 96.744,274.928 98.940 C 285.149 106.562,296.631 117.973,302.015 125.857 C 303.113 127.466,307.317 133.797,308.219 135.200 C 310.438 138.653,316.400 150.216,316.400 151.066 C 316.400 151.221,316.755 152.080,317.188 152.975 C 319.224 157.180,323.510 171.600,324.210 176.600 C 324.364 177.700,324.733 179.681,325.031 181.001 C 326.757 188.664,326.745 211.418,325.010 220.200 C 324.706 221.740,324.334 223.810,324.184 224.800 C 322.471 236.115,315.013 255.367,308.225 266.000 C 296.418 284.495,284.201 296.705,266.000 308.204 C 251.026 317.664,229.570 324.708,211.800 325.999 C 202.171 326.698,186.539 326.262,181.607 325.157 C 180.613 324.934,177.910 324.410,175.600 323.992 C 169.302 322.853,157.531 319.363,153.340 317.393 C 152.646 317.067,151.955 316.800,151.802 316.800 C 151.650 316.800,148.257 315.199,144.263 313.242 C 127.986 305.268,119.114 303.580,103.200 305.428 C 93.048 306.607,93.023 307.174,102.772 315.150 C 104.218 316.332,105.490 317.412,105.600 317.551 C 106.462 318.634,115.439 324.990,121.200 328.596 C 124.844 330.876,125.653 331.329,132.800 335.083 C 137.073 337.328,147.530 341.864,151.000 342.979 C 159.004 345.549,159.353 345.648,166.400 347.347 C 184.664 351.751,212.484 352.515,226.800 349.007 C 228.010 348.710,229.810 348.344,230.800 348.193 C 234.555 347.619,243.773 345.177,248.200 343.584 C 249.300 343.188,250.650 342.739,251.200 342.587 C 251.750 342.435,252.740 342.074,253.400 341.783 C 254.060 341.493,255.860 340.774,257.400 340.186 C 262.712 338.155,272.597 333.280,277.107 330.465 C 286.080 324.867,294.524 318.813,299.107 314.692 C 305.589 308.863,315.498 298.430,319.457 293.264 C 322.492 289.304,328.267 280.874,329.777 278.200 C 330.150 277.540,330.888 276.280,331.418 275.400 C 333.530 271.888,338.163 262.647,338.936 260.400 C 339.049 260.070,339.801 258.270,340.605 256.400 C 341.410 254.530,342.245 252.370,342.460 251.600 C 342.675 250.830,343.178 249.300,343.577 248.200 C 344.982 244.332,346.152 240.158,347.616 233.800 C 351.025 218.998,352.165 201.418,350.663 186.800 C 349.169 172.251,347.278 163.514,342.914 151.000 C 340.748 144.788,340.414 143.886,339.808 142.600 C 339.497 141.940,338.765 140.320,338.181 139.000 C 326.685 112.995,307.097 90.085,282.800 74.227 C 275.311 69.339,270.764 66.865,261.200 62.476 C 251.848 58.184,238.355 54.123,227.000 52.182 C 225.020 51.844,221.690 51.276,219.600 50.920 C 215.318 50.192,190.691 49.812,186.000 50.402 M111.096 163.347 C 105.445 165.456,102.609 171.478,104.826 176.667 C 108.257 184.701,118.565 185.170,122.986 177.493 C 127.216 170.148,119.017 160.393,111.096 163.347 M138.623 164.489 C 137.992 165.390,137.629 233.175,138.242 235.463 C 138.522 236.504,139.609 236.859,140.643 236.248 C 141.059 236.001,144.545 234.360,148.389 232.600 C 156.745 228.774,156.419 229.182,156.383 222.600 C 156.348 216.200,156.316 216.541,157.029 215.829 C 157.575 215.282,159.406 215.200,171.026 215.200 L 184.395 215.200 185.597 213.540 C 186.259 212.627,186.802 211.682,186.804 211.440 C 186.806 211.198,187.250 210.100,187.791 209.000 C 188.332 207.900,188.781 206.874,188.787 206.720 C 188.794 206.565,189.626 204.707,190.636 202.589 C 191.928 199.879,192.399 198.452,192.228 197.770 L 191.985 196.800 174.966 196.800 C 164.000 196.800,157.672 196.653,157.174 196.386 C 156.024 195.770,155.986 183.698,157.131 182.662 C 157.781 182.074,159.345 182.000,171.116 182.000 C 186.095 182.000,185.140 182.205,186.585 178.680 C 186.964 177.756,187.606 176.280,188.012 175.400 C 188.418 174.520,189.141 172.900,189.619 171.800 C 190.097 170.700,190.941 168.868,191.495 167.729 C 192.179 166.321,192.419 165.329,192.243 164.629 L 191.985 163.600 165.615 163.600 L 139.245 163.600 138.623 164.489 M203.230 164.300 L 202.370 165.000 202.388 200.600 C 202.404 233.500,202.456 236.238,203.079 236.700 C 203.832 237.258,248.201 237.446,249.055 236.894 C 249.306 236.732,250.080 235.340,250.777 233.800 C 251.473 232.260,252.382 230.280,252.797 229.400 C 257.044 220.395,257.338 219.492,256.167 219.043 C 255.819 218.909,247.944 218.797,238.667 218.794 C 229.263 218.790,221.546 218.627,221.226 218.425 C 220.735 218.114,220.668 214.261,220.758 191.810 C 220.854 168.277,220.798 165.457,220.223 164.579 L 219.582 163.600 211.835 163.600 C 205.051 163.600,203.982 163.687,203.230 164.300 M242.634 164.606 C 242.431 165.414,242.758 166.073,244.291 167.946 C 245.341 169.229,247.460 171.941,249.000 173.972 C 250.540 176.004,252.610 178.726,253.600 180.022 C 254.590 181.317,256.300 183.571,257.400 185.029 C 259.599 187.945,262.139 191.271,264.600 194.458 C 267.778 198.574,267.565 196.997,267.583 216.450 C 267.604 237.976,267.543 237.610,270.800 235.933 C 271.570 235.537,273.280 234.745,274.600 234.175 C 282.783 230.637,284.927 229.497,285.491 228.382 C 285.859 227.656,285.990 223.741,285.994 213.346 C 286.000 198.543,285.985 198.681,287.914 196.183 C 291.441 191.618,292.289 190.501,292.811 189.736 C 293.135 189.261,295.560 186.051,298.200 182.604 C 300.840 179.157,303.360 175.827,303.800 175.203 C 305.522 172.763,309.377 167.745,310.313 166.726 C 311.051 165.923,311.235 165.394,311.042 164.626 L 310.785 163.600 301.238 163.600 C 289.520 163.600,290.380 163.219,285.000 170.799 C 282.799 173.900,278.405 179.493,277.619 180.194 L 276.728 180.989 275.464 179.537 C 274.205 178.092,272.123 175.380,270.600 173.205 C 263.651 163.275,264.267 163.600,252.425 163.600 L 242.887 163.600 242.634 164.606 M105.656 196.533 C 104.832 197.526,105.013 236.474,105.844 237.082 C 106.215 237.353,106.626 237.518,106.759 237.449 C 107.333 237.149,112.371 234.824,114.200 234.015 C 115.300 233.528,117.103 232.696,118.206 232.165 C 119.309 231.634,120.442 231.200,120.725 231.200 C 121.007 231.200,121.680 230.724,122.219 230.142 L 123.200 229.083 123.200 212.956 C 123.200 197.420,123.172 196.813,122.426 196.414 C 121.203 195.760,106.210 195.865,105.656 196.533 " stroke="none" fill="#1c7df0" fill-rule="evenodd"></path><path id="path1" d="M67.600 0.400 C 67.600 0.621,66.550 0.800,65.250 0.800 C 61.788 0.800,60.400 1.158,60.400 2.050 C 60.400 2.712,60.071 2.800,57.600 2.800 C 54.880 2.800,54.800 2.829,54.800 3.800 C 54.800 4.771,54.720 4.800,52.000 4.800 C 49.523 4.800,49.200 4.887,49.200 5.555 C 49.200 6.142,48.802 6.369,47.400 6.579 C 45.978 6.792,45.600 7.012,45.600 7.625 C 45.600 8.216,45.321 8.400,44.421 8.400 C 43.717 8.400,42.806 8.803,42.162 9.400 C 41.569 9.950,40.839 10.400,40.542 10.400 C 40.244 10.400,40.000 10.750,40.000 11.178 C 40.000 11.823,39.674 11.977,38.100 12.078 C 36.479 12.182,36.181 12.332,36.072 13.100 C 35.990 13.678,35.668 14.000,35.172 14.000 C 34.682 14.000,34.400 14.276,34.400 14.755 C 34.400 15.342,34.002 15.569,32.600 15.779 C 31.178 15.992,30.800 16.212,30.800 16.825 C 30.800 17.385,30.523 17.600,29.800 17.600 C 29.000 17.600,28.800 17.800,28.800 18.600 C 28.800 19.400,28.600 19.600,27.800 19.600 C 27.067 19.600,26.800 19.813,26.800 20.400 C 26.800 20.933,26.533 21.200,26.000 21.200 C 25.413 21.200,25.200 21.467,25.200 22.200 C 25.200 23.000,25.000 23.200,24.200 23.200 C 23.400 23.200,23.200 23.400,23.200 24.200 C 23.200 25.000,23.000 25.200,22.200 25.200 C 21.467 25.200,21.200 25.413,21.200 26.000 C 21.200 26.533,20.933 26.800,20.400 26.800 C 19.813 26.800,19.600 27.067,19.600 27.800 C 19.600 28.600,19.400 28.800,18.600 28.800 C 17.800 28.800,17.600 29.000,17.600 29.800 C 17.600 30.523,17.385 30.800,16.825 30.800 C 16.212 30.800,15.992 31.178,15.779 32.600 C 15.569 34.002,15.342 34.400,14.755 34.400 C 14.276 34.400,14.000 34.682,14.000 35.172 C 14.000 35.668,13.678 35.990,13.100 36.072 C 12.456 36.164,12.164 36.512,12.073 37.300 C 12.002 37.922,11.701 38.400,11.381 38.400 C 11.070 38.400,10.705 38.895,10.570 39.500 C 10.084 41.684,9.962 41.917,9.187 42.119 C 8.566 42.282,8.400 42.671,8.400 43.963 C 8.400 45.302,8.262 45.600,7.643 45.600 C 6.781 45.600,6.400 46.345,6.400 48.033 C 6.400 48.933,6.217 49.200,5.600 49.200 C 4.876 49.200,4.800 49.467,4.800 52.000 C 4.800 54.720,4.771 54.800,3.800 54.800 C 2.829 54.800,2.800 54.880,2.800 57.600 C 2.800 60.081,2.714 60.400,2.043 60.400 C 1.072 60.400,0.800 61.151,0.800 63.833 C 0.800 65.025,0.620 66.000,0.400 66.000 C 0.134 66.000,0.000 110.933,0.000 200.000 C 0.000 284.790,0.140 334.000,0.382 334.000 C 0.592 334.000,0.817 335.215,0.882 336.700 C 0.989 339.153,1.082 339.412,1.900 339.528 C 2.734 339.646,2.800 339.858,2.800 342.428 C 2.800 345.118,2.830 345.200,3.800 345.200 C 4.771 345.200,4.800 345.280,4.800 348.000 C 4.800 350.506,4.882 350.800,5.577 350.800 C 6.205 350.800,6.378 351.126,6.477 352.500 C 6.579 353.913,6.752 354.222,7.500 354.328 C 8.279 354.438,8.400 354.695,8.400 356.228 C 8.400 357.203,8.567 358.000,8.771 358.000 C 9.525 358.000,10.400 359.290,10.400 360.402 C 10.400 361.182,10.646 361.624,11.175 361.792 C 11.601 361.927,12.006 362.434,12.075 362.919 C 12.154 363.479,12.528 363.847,13.100 363.928 C 13.795 364.027,14.000 364.318,14.000 365.205 C 14.000 365.871,14.313 366.575,14.743 366.877 C 15.151 367.165,15.607 367.786,15.756 368.257 C 15.905 368.728,16.381 369.206,16.813 369.319 C 17.280 369.441,17.600 369.866,17.600 370.363 C 17.600 370.989,17.852 371.200,18.600 371.200 C 19.400 371.200,19.600 371.400,19.600 372.200 C 19.600 372.933,19.813 373.200,20.400 373.200 C 20.933 373.200,21.200 373.467,21.200 374.000 C 21.200 374.587,21.467 374.800,22.200 374.800 C 23.000 374.800,23.200 375.000,23.200 375.800 C 23.200 376.600,23.400 376.800,24.200 376.800 C 25.000 376.800,25.200 377.000,25.200 377.800 C 25.200 378.533,25.413 378.800,26.000 378.800 C 26.533 378.800,26.800 379.067,26.800 379.600 C 26.800 380.187,27.067 380.400,27.800 380.400 C 28.600 380.400,28.800 380.600,28.800 381.400 C 28.800 382.148,29.011 382.400,29.637 382.400 C 30.134 382.400,30.559 382.720,30.681 383.187 C 30.794 383.619,31.272 384.095,31.743 384.244 C 32.214 384.393,32.835 384.849,33.123 385.257 C 33.425 385.687,34.129 386.000,34.795 386.000 C 35.682 386.000,35.973 386.205,36.072 386.900 C 36.153 387.472,36.521 387.846,37.081 387.925 C 37.566 387.994,38.073 388.399,38.208 388.825 C 38.376 389.354,38.818 389.600,39.598 389.600 C 40.710 389.600,42.000 390.475,42.000 391.229 C 42.000 391.433,42.797 391.600,43.772 391.600 C 45.305 391.600,45.562 391.721,45.672 392.500 C 45.778 393.248,46.087 393.421,47.500 393.523 C 48.874 393.622,49.200 393.795,49.200 394.423 C 49.200 395.118,49.494 395.200,52.000 395.200 C 54.720 395.200,54.800 395.229,54.800 396.200 C 54.800 397.170,54.882 397.200,57.572 397.200 C 60.142 397.200,60.354 397.266,60.472 398.100 C 60.588 398.918,60.847 399.011,63.300 399.118 C 64.785 399.183,66.000 399.408,66.000 399.618 C 66.000 399.860,115.210 400.000,200.000 400.000 C 289.067 400.000,334.000 399.866,334.000 399.600 C 334.000 399.380,334.975 399.200,336.167 399.200 C 338.849 399.200,339.600 398.928,339.600 397.957 C 339.600 397.286,339.919 397.200,342.400 397.200 C 345.120 397.200,345.200 397.171,345.200 396.200 C 345.200 395.229,345.280 395.200,348.000 395.200 C 350.533 395.200,350.800 395.124,350.800 394.400 C 350.800 393.783,351.067 393.600,351.967 393.600 C 353.655 393.600,354.400 393.219,354.400 392.357 C 354.400 391.738,354.698 391.600,356.037 391.600 C 357.341 391.600,357.718 391.436,357.885 390.796 C 358.004 390.342,358.554 389.890,359.148 389.758 C 361.277 389.287,361.600 389.135,361.600 388.600 C 361.600 388.299,362.095 387.996,362.700 387.927 C 363.488 387.836,363.836 387.544,363.928 386.900 C 364.010 386.322,364.332 386.000,364.828 386.000 C 365.318 386.000,365.600 385.724,365.600 385.245 C 365.600 384.658,365.998 384.431,367.400 384.221 C 368.822 384.008,369.200 383.788,369.200 383.175 C 369.200 382.615,369.477 382.400,370.200 382.400 C 371.000 382.400,371.200 382.200,371.200 381.400 C 371.200 380.600,371.400 380.400,372.200 380.400 C 372.933 380.400,373.200 380.187,373.200 379.600 C 373.200 379.067,373.467 378.800,374.000 378.800 C 374.587 378.800,374.800 378.533,374.800 377.800 C 374.800 377.000,375.000 376.800,375.800 376.800 C 376.600 376.800,376.800 376.600,376.800 375.800 C 376.800 375.000,377.000 374.800,377.800 374.800 C 378.533 374.800,378.800 374.587,378.800 374.000 C 378.800 373.467,379.067 373.200,379.600 373.200 C 380.187 373.200,380.400 372.933,380.400 372.200 C 380.400 371.400,380.600 371.200,381.400 371.200 C 382.200 371.200,382.400 371.000,382.400 370.200 C 382.400 369.477,382.615 369.200,383.175 369.200 C 383.788 369.200,384.008 368.822,384.221 367.400 C 384.431 365.998,384.658 365.600,385.245 365.600 C 385.724 365.600,386.000 365.318,386.000 364.828 C 386.000 364.332,386.322 364.010,386.900 363.928 C 387.668 363.819,387.818 363.521,387.922 361.900 C 388.023 360.326,388.177 360.000,388.822 360.000 C 389.250 360.000,389.600 359.756,389.600 359.458 C 389.600 359.161,390.050 358.431,390.600 357.838 C 391.197 357.194,391.600 356.283,391.600 355.579 C 391.600 354.679,391.784 354.400,392.375 354.400 C 392.988 354.400,393.208 354.022,393.421 352.600 C 393.631 351.198,393.858 350.800,394.445 350.800 C 395.113 350.800,395.200 350.477,395.200 348.000 C 395.200 345.280,395.229 345.200,396.200 345.200 C 397.171 345.200,397.200 345.120,397.200 342.400 C 397.200 339.929,397.288 339.600,397.950 339.600 C 398.842 339.600,399.200 338.212,399.200 334.750 C 399.200 333.450,399.379 332.400,399.600 332.400 C 399.866 332.400,400.000 288.000,400.000 200.000 C 400.000 112.000,399.866 67.600,399.600 67.600 C 399.375 67.600,399.200 66.475,399.200 65.026 C 399.200 62.104,398.695 60.400,397.828 60.400 C 397.376 60.400,397.209 59.763,397.118 57.700 C 397.011 55.247,396.918 54.988,396.100 54.872 C 395.266 54.754,395.200 54.542,395.200 51.972 C 395.200 49.530,395.111 49.200,394.451 49.200 C 393.889 49.200,393.640 48.808,393.451 47.627 C 393.277 46.540,392.952 45.975,392.400 45.800 C 391.889 45.638,391.600 45.195,391.600 44.573 C 391.600 43.886,391.378 43.600,390.845 43.600 C 390.258 43.600,390.031 43.202,389.821 41.800 C 389.611 40.399,389.384 40.000,388.797 40.000 C 388.182 40.000,388.021 39.651,387.922 38.100 C 387.818 36.479,387.668 36.181,386.900 36.072 C 386.322 35.990,386.000 35.668,386.000 35.172 C 386.000 34.667,385.724 34.400,385.200 34.400 C 384.610 34.400,384.400 34.133,384.400 33.382 C 384.400 32.822,383.964 31.928,383.432 31.396 C 382.900 30.863,382.403 30.106,382.328 29.714 C 382.253 29.321,381.789 28.942,381.296 28.872 C 380.649 28.780,380.400 28.474,380.400 27.772 C 380.400 27.067,380.181 26.800,379.600 26.800 C 379.067 26.800,378.800 26.533,378.800 26.000 C 378.800 25.413,378.533 25.200,377.800 25.200 C 377.000 25.200,376.800 25.000,376.800 24.200 C 376.800 23.400,376.600 23.200,375.800 23.200 C 375.000 23.200,374.800 23.000,374.800 22.200 C 374.800 21.467,374.587 21.200,374.000 21.200 C 373.467 21.200,373.200 20.933,373.200 20.400 C 373.200 19.819,372.933 19.600,372.228 19.600 C 371.526 19.600,371.220 19.351,371.128 18.704 C 371.058 18.211,370.679 17.747,370.286 17.672 C 369.894 17.597,369.137 17.100,368.604 16.568 C 368.072 16.036,367.178 15.600,366.618 15.600 C 365.867 15.600,365.600 15.390,365.600 14.800 C 365.600 14.276,365.333 14.000,364.828 14.000 C 364.332 14.000,364.010 13.678,363.928 13.100 C 363.819 12.332,363.521 12.182,361.900 12.078 C 360.349 11.979,360.000 11.818,360.000 11.203 C 360.000 10.616,359.601 10.389,358.200 10.179 C 356.798 9.969,356.400 9.742,356.400 9.155 C 356.400 8.622,356.114 8.400,355.427 8.400 C 354.805 8.400,354.362 8.111,354.200 7.600 C 354.025 7.048,353.460 6.723,352.373 6.549 C 351.192 6.360,350.800 6.111,350.800 5.549 C 350.800 4.889,350.470 4.800,348.028 4.800 C 345.458 4.800,345.246 4.734,345.128 3.900 C 345.012 3.082,344.753 2.989,342.300 2.882 C 340.237 2.791,339.600 2.624,339.600 2.172 C 339.600 1.305,337.896 0.800,334.974 0.800 C 333.525 0.800,332.400 0.625,332.400 0.400 C 332.400 0.134,288.000 0.000,200.000 0.000 C 112.000 0.000,67.600 0.134,67.600 0.400 M219.600 50.920 C 221.690 51.276,225.020 51.844,227.000 52.182 C 238.355 54.123,251.848 58.184,261.200 62.476 C 270.764 66.865,275.311 69.339,282.800 74.227 C 307.097 90.085,326.685 112.995,338.181 139.000 C 338.765 140.320,339.497 141.940,339.808 142.600 C 340.414 143.886,340.748 144.788,342.914 151.000 C 352.206 177.646,353.856 206.703,347.616 233.800 C 346.152 240.158,344.982 244.332,343.577 248.200 C 343.178 249.300,342.675 250.830,342.460 251.600 C 342.245 252.370,341.410 254.530,340.605 256.400 C 339.801 258.270,339.049 260.070,338.936 260.400 C 338.163 262.647,333.530 271.888,331.418 275.400 C 330.888 276.280,330.150 277.540,329.777 278.200 C 328.267 280.874,322.492 289.304,319.457 293.264 C 315.498 298.430,305.589 308.863,299.107 314.692 C 294.524 318.813,286.080 324.867,277.107 330.465 C 272.597 333.280,262.712 338.155,257.400 340.186 C 255.860 340.774,254.060 341.493,253.400 341.783 C 252.740 342.074,251.750 342.435,251.200 342.587 C 250.650 342.739,249.300 343.188,248.200 343.584 C 243.773 345.177,234.555 347.619,230.800 348.193 C 229.810 348.344,228.010 348.710,226.800 349.007 C 212.484 352.515,184.664 351.751,166.400 347.347 C 159.353 345.648,159.004 345.549,151.000 342.979 C 147.530 341.864,137.073 337.328,132.800 335.083 C 125.653 331.329,124.844 330.876,121.200 328.596 C 115.439 324.990,106.462 318.634,105.600 317.551 C 105.490 317.412,104.218 316.332,102.772 315.150 C 93.023 307.174,93.048 306.607,103.200 305.428 C 119.114 303.580,127.986 305.268,144.263 313.242 C 148.257 315.199,151.650 316.800,151.802 316.800 C 151.955 316.800,152.646 317.067,153.340 317.393 C 157.531 319.363,169.302 322.853,175.600 323.992 C 177.910 324.410,180.613 324.934,181.607 325.157 C 186.539 326.262,202.171 326.698,211.800 325.999 C 229.570 324.708,251.026 317.664,266.000 308.204 C 284.201 296.705,296.418 284.495,308.225 266.000 C 315.013 255.367,322.471 236.115,324.184 224.800 C 324.334 223.810,324.706 221.740,325.010 220.200 C 326.745 211.418,326.757 188.664,325.031 181.001 C 324.733 179.681,324.364 177.700,324.210 176.600 C 323.510 171.600,319.224 157.180,317.188 152.975 C 316.755 152.080,316.400 151.221,316.400 151.066 C 316.400 150.216,310.438 138.653,308.219 135.200 C 307.317 133.797,303.113 127.466,302.015 125.857 C 296.631 117.973,285.149 106.562,274.928 98.940 C 271.983 96.744,271.014 96.081,267.000 93.516 C 263.052 90.994,253.367 85.884,251.200 85.181 C 250.650 85.002,248.850 84.287,247.200 83.591 C 240.868 80.921,235.408 79.276,225.200 76.964 C 211.776 73.923,189.129 73.932,175.837 76.982 C 165.228 79.417,157.126 81.884,152.200 84.180 C 151.540 84.487,149.560 85.377,147.800 86.156 C 146.040 86.935,143.610 88.119,142.400 88.786 C 141.190 89.453,139.750 90.225,139.200 90.501 C 136.155 92.031,128.621 96.981,124.200 100.356 C 110.872 110.531,98.161 125.180,90.320 139.400 C 88.001 143.605,83.203 153.889,83.198 154.667 C 83.196 154.850,82.965 155.450,82.684 156.000 C 82.219 156.911,80.663 161.604,78.772 167.800 C 78.369 169.120,77.826 171.460,77.566 173.000 C 77.306 174.540,76.933 176.228,76.737 176.752 C 76.390 177.677,75.638 183.436,74.744 192.000 C 74.252 196.716,74.495 208.972,75.171 213.600 C 75.413 215.250,75.874 218.400,76.196 220.600 C 77.271 227.931,78.104 231.393,80.818 239.800 C 82.304 244.400,83.960 248.865,84.377 249.391 C 84.556 249.616,84.839 250.250,85.006 250.800 C 85.272 251.673,89.047 259.556,89.986 261.200 C 94.780 269.586,97.432 283.042,96.403 293.763 C 95.986 298.104,94.506 305.228,93.892 305.841 C 92.940 306.793,82.337 294.976,76.800 286.792 C 76.470 286.305,75.705 285.208,75.100 284.356 C 74.495 283.504,74.000 282.647,74.000 282.452 C 74.000 282.257,73.734 281.877,73.408 281.607 C 73.083 281.337,72.568 280.640,72.263 280.058 C 71.959 279.476,70.599 277.061,69.242 274.691 C 67.884 272.321,66.600 269.981,66.388 269.491 C 66.176 269.001,65.834 268.330,65.628 268.000 C 65.422 267.670,64.684 266.140,63.987 264.600 C 63.289 263.060,62.390 261.080,61.988 260.200 C 60.438 256.804,59.200 253.677,59.198 253.150 C 59.196 252.847,58.929 252.090,58.604 251.467 C 58.279 250.843,57.823 249.583,57.591 248.667 C 57.360 247.750,56.919 246.370,56.613 245.600 C 54.997 241.543,52.849 231.752,51.172 220.800 C 50.107 213.844,49.644 195.085,50.358 187.800 C 50.972 181.537,52.212 173.010,52.918 170.200 C 53.250 168.880,53.641 167.080,53.789 166.200 C 55.545 155.700,64.280 134.158,71.388 122.800 C 85.233 100.675,100.398 85.503,122.800 71.366 C 125.458 69.689,130.614 66.934,135.000 64.848 C 137.420 63.698,140.066 62.406,140.879 61.978 C 141.693 61.550,142.581 61.200,142.853 61.200 C 143.125 61.200,144.079 60.852,144.974 60.426 C 148.938 58.540,160.694 54.914,167.107 53.598 C 169.146 53.180,170.975 52.739,171.171 52.618 C 171.495 52.418,179.570 51.211,186.000 50.402 C 190.691 49.812,215.318 50.192,219.600 50.920 M119.087 164.292 C 129.862 170.914,120.988 187.758,109.800 181.918 C 102.469 178.092,102.031 169.619,108.896 164.434 C 111.500 162.468,116.016 162.405,119.087 164.292 M192.243 164.629 C 192.419 165.329,192.179 166.321,191.495 167.729 C 190.941 168.868,190.097 170.700,189.619 171.800 C 189.141 172.900,188.418 174.520,188.012 175.400 C 187.606 176.280,186.964 177.756,186.585 178.680 C 185.140 182.205,186.095 182.000,171.116 182.000 C 159.345 182.000,157.781 182.074,157.131 182.662 C 155.986 183.698,156.024 195.770,157.174 196.386 C 157.672 196.653,164.000 196.800,174.966 196.800 L 191.985 196.800 192.228 197.770 C 192.399 198.452,191.928 199.879,190.636 202.589 C 189.626 204.707,188.794 206.565,188.787 206.720 C 188.781 206.874,188.332 207.900,187.791 209.000 C 187.250 210.100,186.806 211.198,186.804 211.440 C 186.802 211.682,186.259 212.627,185.597 213.540 L 184.395 215.200 171.026 215.200 C 159.406 215.200,157.575 215.282,157.029 215.829 C 156.316 216.541,156.348 216.200,156.383 222.600 C 156.419 229.182,156.745 228.774,148.389 232.600 C 144.545 234.360,141.059 236.001,140.643 236.248 C 139.609 236.859,138.522 236.504,138.242 235.463 C 137.629 233.175,137.992 165.390,138.623 164.489 L 139.245 163.600 165.615 163.600 L 191.985 163.600 192.243 164.629 M220.223 164.579 C 220.798 165.457,220.854 168.277,220.758 191.810 C 220.668 214.261,220.735 218.114,221.226 218.425 C 221.546 218.627,229.263 218.790,238.667 218.794 C 247.944 218.797,255.819 218.909,256.167 219.043 C 257.338 219.492,257.044 220.395,252.797 229.400 C 252.382 230.280,251.473 232.260,250.777 233.800 C 250.080 235.340,249.306 236.732,249.055 236.894 C 248.201 237.446,203.832 237.258,203.079 236.700 C 202.456 236.238,202.404 233.500,202.388 200.600 L 202.370 165.000 203.230 164.300 C 203.982 163.687,205.051 163.600,211.835 163.600 L 219.582 163.600 220.223 164.579 M262.993 164.070 C 263.868 164.468,267.744 169.123,270.600 173.205 C 272.123 175.380,274.205 178.092,275.464 179.537 L 276.728 180.989 277.619 180.194 C 278.405 179.493,282.799 173.900,285.000 170.799 C 290.380 163.219,289.520 163.600,301.238 163.600 L 310.785 163.600 311.042 164.626 C 311.235 165.394,311.051 165.923,310.313 166.726 C 309.377 167.745,305.522 172.763,303.800 175.203 C 303.360 175.827,300.840 179.157,298.200 182.604 C 295.560 186.051,293.135 189.261,292.811 189.736 C 292.289 190.501,291.441 191.618,287.914 196.183 C 285.985 198.681,286.000 198.543,285.994 213.346 C 285.990 223.741,285.859 227.656,285.491 228.382 C 284.927 229.497,282.783 230.637,274.600 234.175 C 273.280 234.745,271.570 235.537,270.800 235.933 C 267.543 237.610,267.604 237.976,267.583 216.450 C 267.565 196.997,267.778 198.574,264.600 194.458 C 262.139 191.271,259.599 187.945,257.400 185.029 C 256.300 183.571,254.590 181.317,253.600 180.022 C 252.610 178.726,250.540 176.004,249.000 173.972 C 247.460 171.941,245.341 169.229,244.291 167.946 C 242.758 166.073,242.431 165.414,242.634 164.606 L 242.887 163.600 252.425 163.600 C 258.876 163.600,262.296 163.752,262.993 164.070 M122.426 196.414 C 123.172 196.813,123.200 197.420,123.200 212.956 L 123.200 229.083 122.219 230.142 C 121.680 230.724,121.007 231.200,120.725 231.200 C 120.442 231.200,119.309 231.634,118.206 232.165 C 117.103 232.696,115.300 233.528,114.200 234.015 C 112.371 234.824,107.333 237.149,106.759 237.449 C 106.626 237.518,106.215 237.353,105.844 237.082 C 105.013 236.474,104.832 197.526,105.656 196.533 C 106.210 195.865,121.203 195.760,122.426 196.414 " stroke="none" fill="#fbfbfc" fill-rule="evenodd"></path></g></svg>