<?xml version="1.0" standalone="no"?><!DOCTYPE svg PUBLIC "-//W3C//DTD SVG 1.1//EN" "http://www.w3.org/Graphics/SVG/1.1/DTD/svg11.dtd"><svg t="1707718446839" class="icon" viewBox="0 0 1024 1024" version="1.1" xmlns="http://www.w3.org/2000/svg" p-id="44545" xmlns:xlink="http://www.w3.org/1999/xlink" width="48" height="48"><path d="M0 0m227.555556 0l568.888888 0q227.555556 0 227.555556 227.555556l0 568.888888q0 227.555556-227.555556 227.555556l-568.888888 0q-227.555556 0-227.555556-227.555556l0-568.888888q0-227.555556 227.555556-227.555556Z" fill="#49C95E" p-id="44546"></path><path d="M509.212444 637.724444c0.071111 1.28 1.137778 2.247111 2.375112 2.190223h56.931555a2.346667 2.346667 0 0 0 2.417778-2.190223V377.955556a2.346667 2.346667 0 0 0-2.417778-2.204445h-56.931555a2.318222 2.318222 0 0 0-2.389334 2.204445V637.724444z m-418.588444 0c0.085333 1.28 1.137778 2.247111 2.403556 2.190223h56.931555a2.318222 2.318222 0 0 0 2.375111-2.176v-163.555556a2.318222 2.318222 0 0 0-2.375111-2.204444H93.013333a2.318222 2.318222 0 0 0-2.417777 2.190222v163.555555z m381.013333-42.396444l-28.16-23.011556a3.285333 3.285333 0 0 1-0.824889-4.039111c31.601778-60.586667 13.610667-135.68-41.841777-174.620444-55.466667-38.940444-130.759111-29.368889-175.118223 22.257778-44.373333 51.626667-43.704889 128.910222 1.550223 179.726222 45.240889 50.830222 120.704 59.036444 175.473777 19.114667a3.086222 3.086222 0 0 1 3.783112 0l30.208 24.704a2.375111 2.375111 0 0 0 3.399111-0.426667l31.914666-40.248889a2.503111 2.503111 0 0 0-0.384-3.456z m-132.437333-12.302222c-41.187556 7.665778-80.995556-21.063111-88.604444-63.928889-7.594667-42.865778 19.768889-83.882667 61.013333-91.477333 41.244444-7.594667 80.924444 21.063111 88.604444 63.928888 7.665778 42.865778-19.768889 83.825778-61.013333 91.477334z m597.077333-207.331556H879.36a2.318222 2.318222 0 0 0-2.375111 2.190222v259.84c0.071111 1.28 1.137778 2.247111 2.375111 2.190223h56.931556A2.318222 2.318222 0 0 0 938.666667 637.724444V377.955556a2.332444 2.332444 0 0 0-2.389334-2.275556z m-814.791111-5.191111c-12.913778 0-24.846222 7.025778-31.303111 18.417778a37.404444 37.404444 0 0 0 0 36.835555 36.039111 36.039111 0 0 0 31.303111 18.403556c19.968 0 36.167111-16.497778 36.167111-36.835556s-16.199111-36.807111-36.167111-36.821333z m725.333334 5.191111h-60.686223a2.901333 2.901333 0 0 0-2.488889 1.393778l-56.362666 102.016s-0.412444 0.753778-0.967111 0.753778c-0.568889 0-0.967111-0.753778-0.967111-0.753778l-56.376889-102.016a2.901333 2.901333 0 0 0-2.488889-1.393778h-60.672c-0.981333 0-1.877333 0.568889-2.332445 1.464889a2.744889 2.744889 0 0 0 0.184889 2.773333l90.225778 154.552889c0.853333 1.479111 1.322667 3.185778 1.308444 4.906667v97.905778c0.014222 1.464889 1.194667 2.659556 2.645334 2.659555h57.059555a2.673778 2.673778 0 0 0 2.645334-2.659555v-97.905778c0-1.720889 0.440889-3.413333 1.308444-4.906667L849.066667 379.932444a2.730667 2.730667 0 0 0 0.170666-2.830222 2.645333 2.645333 0 0 0-2.417777-1.422222z" fill="#FFFFFF" p-id="44547"></path></svg>