<?xml version="1.0" standalone="no"?><!DOCTYPE svg PUBLIC "-//W3C//DTD SVG 1.1//EN" "http://www.w3.org/Graphics/SVG/1.1/DTD/svg11.dtd"><svg t="1707713561352" class="icon" viewBox="0 0 1024 1024" version="1.1" xmlns="http://www.w3.org/2000/svg" p-id="51114" xmlns:xlink="http://www.w3.org/1999/xlink" width="48" height="48"><path d="M157.515279 0h708.969342A157.414887 157.414887 0 0 1 1023.9999 156.410965v711.17797A157.414887 157.414887 0 0 1 866.484621 1023.9999H157.515279A157.414887 157.414887 0 0 1 0 867.588935V156.410965A157.414887 157.414887 0 0 1 157.515279 0z" fill="#FFFFFF" p-id="51115"></path><path d="M264.332523 966.776376l7.02745-7.127843v-2.309019c-2.409412 0-2.409412 2.309019-4.718431 2.309019l-7.02745 7.127843c2.309019 2.309019 4.718431 2.309019 4.718431 0z" fill="#FDD100" p-id="51116"></path><path d="M271.058797 959.648533c2.309019-2.309019 4.618039-7.02745 9.33647-9.336469-4.718431 2.309019-9.33647 7.02745-14.054901 9.336469 2.610196 2.409412 4.718431 2.409412 4.718431 0z" fill="#F9B600" p-id="51117"></path><path d="M292.442324 962.057945v-2.409412c-4.718431 2.409412-11.745881 7.127842-16.464312 9.436862h7.127843a17.568626 17.568626 0 0 0 11.645489-2.309019 8.131764 8.131764 0 0 0-2.30902-4.718431zM325.270556 943.686182a124.787439 124.787439 0 0 0-25.800781 11.745881c2.309019 0 2.309019 0 4.71843-2.409411 7.02745-2.710588 14.054901-7.429019 21.082351-9.33647z m-56.319994 25.800782c-2.309019 0-4.618039 2.309019-7.02745 0-2.309019 0-2.309019 2.309019-4.718431 2.309019a7.02745 7.02745 0 0 0 9.436861 0c2.309019-0.401569 2.309019-0.401569 2.30902-2.710588z" fill="#93BB16" p-id="51118"></path><path d="M259.614092 969.085395c0 2.309019-2.409412 2.309019-2.409411 4.718431 2.409412-2.409412 2.409412-2.409412 2.409411-4.718431z m40.156859-14.0549A85.534109 85.534109 0 0 1 325.270556 943.686182c0-2.409412 0-2.409412 2.30902-4.718431-7.02745 2.309019-14.054901 7.02745-21.082351 9.436862-14.054901 7.02745-25.800782 16.36392-40.156859 18.773331h2.309019a8.533332 8.533332 0 0 1 7.027451-2.409411 37.948232 37.948232 0 0 0 16.464312-9.33647z m-35.137251 11.745881h-2.409412c0 2.309019 0 2.309019 2.409412 0z" fill="#93BB16" p-id="51119"></path><path d="M259.614092 969.085395l7.02745-7.02745C292.442324 933.646967 318.243106 908.04697 341.3333 877.628149c63.347445-77.502737 114.949008-159.523122 147.77724-253.389779a397.552902 397.552902 0 0 0 21.082351-117.258028 360.809376 360.809376 0 0 0-21.082351-121.976458 970.490885 970.490885 0 0 0-86.839207-187.733315c-14.054901-23.39137-28.109801-46.883133-42.164702-67.965484-16.464312-23.491762-32.928624-51.601564-54.010975-72.784306-14.054901-14.054901-21.082351-11.745881-30.117644 4.718431-2.309019 4.718431-2.309019 7.02745-4.618039 11.745881a424.156821 424.156821 0 0 1-103.203127 180.705865c-7.127842 14.054901-23.491762 21.082351-25.800782 35.237643s4.618039 28.109801 7.027451 44.473721c18.773331 117.35842 40.156859 234.616448 58.629014 354.283887 16.36392 93.866657 30.117644 187.632923 46.883132 281.098012 0 2.309019 0 4.718431 4.718431 4.718431a3.212549 3.212549 0 0 1 0-4.417255z" fill="#DA3432" p-id="51120"></path><path d="M423.855645 176.188218a692.003069 692.003069 0 0 1 89.047834 175.887042 473.348973 473.348973 0 0 1 25.800782 114.949008 396.749765 396.749765 0 0 1-23.39137 180.705865A592.815628 592.815628 0 0 1 407.391333 833.25482a849.719132 849.719132 0 0 1-133.72234 126.393713l-2.30902 2.409412v2.309019l-7.02745 7.027451c14.054901-4.618039 28.109801-14.054901 40.156859-18.773332 7.02745-2.309019 14.054901-9.33647 21.082351-9.33647 25.800782-16.464312 51.601564-30.117644 77.402345-46.883132a693.408559 693.408559 0 0 0 147.476064-126.69489c37.546663-42.265094 68.065876-89.148227 82.120776-145.468221a383.999962 383.999962 0 0 0 7.027451-154.804691 684.373266 684.373266 0 0 0-79.711365-232.307428 8.332548 8.332548 0 0 1-2.409412-7.02745 48.188231 48.188231 0 0 1-9.336469-14.054901c-23.491762-37.546663-44.574113-77.402345-75.093326-110.431361-14.054901-18.773331-25.800782-16.464312-40.156859 0-11.745881 14.054901-23.491762 30.117644-35.237644 44.574113 11.745881 2.309019 18.773331 14.054901 25.901174 25.800782z" fill="#FDD100" p-id="51121"></path><path d="M644.3168 349.76624a536.696418 536.696418 0 0 1 18.773331 56.319995 433.493291 433.493291 0 0 1 14.054901 79.711364 358.299573 358.299573 0 0 1 0 70.274503A376.87212 376.87212 0 0 1 642.509741 689.894834a617.110528 617.110528 0 0 1-56.319995 80.313718c-25.800782 28.109801-54.010975 51.601564-82.120776 77.402345a226.685468 226.685468 0 0 1-49.292544 32.828232 861.364621 861.364621 0 0 1-79.711365 44.574114 397.352118 397.352118 0 0 0-44.574113 23.491762 310.211734 310.211734 0 0 1-37.546663 16.36392c14.054901 4.718431 25.800782-2.309019 37.546663-4.718431 9.33647-2.309019 18.773331-4.618039 25.800782-7.02745 28.109801-7.02745 53.910583-16.36392 82.120776-25.800782 11.745881-4.618039 23.39137-7.02745 32.828232-11.745881 14.054901-7.02745 28.109801-9.33647 42.164702-18.67294a353.48075 353.48075 0 0 1 42.265094-21.182743 12.950587 12.950587 0 0 1 11.745881-4.71843 676.743463 676.743463 0 0 0 86.738815-56.219603A294.952128 294.952128 0 0 0 771.011689 591.410138a509.389754 509.389754 0 0 0-11.745881-145.468221 705.556009 705.556009 0 0 0-44.574113-140.549006v-2.309019c-14.054901-28.210193-25.800782-56.319994-40.156859-84.429796a176.790571 176.790571 0 0 0-28.210193-44.574113c-11.645489-11.745881-18.773331-11.745881-30.117645-2.409412a300.072127 300.072127 0 0 0-37.546663 40.156859c9.33647 25.800782 25.800782 46.983525 37.546663 70.274503a343.341143 343.341143 0 0 0 28.109802 68.065876z" fill="#8DC400" p-id="51122"></path><path d="M810.867371 316.938008A240.3388 240.3388 0 0 0 783.058747 262.927033c-9.436862-14.054901-18.773331-14.054901-30.117644-2.309019-7.02745 7.02745-14.054901 16.464312-21.082351 23.491762a108.624303 108.624303 0 0 1 15.661175 37.145094c11.745881 35.137251 23.491762 67.965484 32.828232 105.512147a612.392097 612.392097 0 0 1 16.464312 93.866657c2.309019 23.491762 2.309019 46.883133 2.309019 70.274503a336.112908 336.112908 0 0 1-14.0549 82.120777 269.653307 269.653307 0 0 1-32.828232 74.992933 325.069772 325.069772 0 0 1-56.319995 68.065876A450.158387 450.158387 0 0 1 616.206998 873.411679a865.781876 865.781876 0 0 1-145.468221 60.235288c-46.883133 14.155293-96.175677 23.491762-143.159201 32.928625a360.5082 360.5082 0 0 1-49.192152 7.02745c2.309019 2.309019 7.02745 0 11.745881 2.309019a1341.540261 1341.540261 0 0 0 236.925467-14.0549c51.601564-7.02745 103.203127-14.054901 152.395279-35.237644 82.120776-32.828232 145.468221-86.738815 178.296453-170.66665 28.210193-70.274503 28.210193-143.159202 18.773332-215.843116a1166.15518 1166.15518 0 0 0-65.656465-222.870566z" fill="#0097DB" p-id="51123"></path><path d="M397.954471 185.524688a968.583434 968.583434 0 0 1 82.120776 164.241552 425.662703 425.662703 0 0 1 30.117644 133.72234 378.378002 378.378002 0 0 1-25.800782 161.832141c-32.828232 86.839207-82.120776 161.932533-140.549005 234.616448a961.3552 961.3552 0 0 1-65.656465 72.683914 465.618778 465.618778 0 0 0 51.601564-44.574113 735.774046 735.774046 0 0 0 138.541163-168.859591A456.884661 456.884661 0 0 0 532.078379 553.863475a458.892504 458.892504 0 0 0-16.36392-178.296453 739.689339 739.689339 0 0 0-68.065875-152.495671 758.161494 758.161494 0 0 0-46.883133-70.274503c-2.409412-2.309019-4.718431-4.618039-4.718431-7.027451a105.110578 105.110578 0 0 0-16.36392 16.464313 54.814112 54.814112 0 0 1 18.672939 23.39137z" fill="#F9B600" p-id="51124"></path><path d="M489.512109 385.003884a428.373291 428.373291 0 0 1 21.082351 121.976458 334.908202 334.908202 0 0 1-21.082351 117.258028c-30.117644 96.175677-84.429796 178.296453-147.777241 253.389779-23.491762 28.109801-49.292544 56.219602-75.093326 84.429796 4.718431-2.409412 9.33647-7.02745 14.054901-9.436862 21.082351-23.39137 44.574113-46.883133 65.656464-72.683914a818.999135 818.999135 0 0 0 140.549006-234.616448 378.378002 378.378002 0 0 0 25.800782-161.832141 428.373291 428.373291 0 0 0-30.117644-133.72234 831.447762 831.447762 0 0 0-82.120777-164.241552c-4.718431-7.02745-7.02745-16.36392-16.464312-21.082351l21.182743 35.237643a1022.59441 1022.59441 0 0 1 84.429796 185.323904z" fill="#F9B600" p-id="51125"></path><path d="M451.764662 223.071351a745.010123 745.010123 0 0 1 68.26666 152.495671 384.100354 384.100354 0 0 1 16.36392 178.296453 526.456419 526.456419 0 0 1-63.347445 185.323904 738.384241 738.384241 0 0 1-138.340379 168.859591c-16.464312 16.464312-35.237644 30.117644-51.601563 44.574113-2.409412 2.409412-4.718431 7.02745-9.436862 9.436862l2.309019-2.409412A849.719132 849.719132 0 0 0 409.700352 833.25482a589.000727 589.000727 0 0 0 107.921558-185.524687 427.670546 427.670546 0 0 0 23.491762-180.705865 482.886227 482.886227 0 0 0-25.800781-114.949008 689.091697 689.091697 0 0 0-89.148227-175.887042c-7.02745-9.436862-14.054901-23.491762-25.800782-30.117644 0 2.409412 2.309019 4.718431 4.718431 7.02745 16.564704 20.781174 30.418821 44.172545 46.682349 69.973327z" fill="#F9B600" p-id="51126"></path><path d="M423.855645 943.686182a684.473658 684.473658 0 0 0 117.258027-37.948232 457.28623 457.28623 0 0 0 157.113711-98.484696 310.512911 310.512911 0 0 0 84.530187-150.58822 461.803876 461.803876 0 0 0 0-187.632923c-7.02745-42.265094-21.182743-79.811757-32.928624-119.667439-7.02745-21.082351-16.36392-42.265094-21.082351-63.347445A105.813323 105.813323 0 0 0 712.784244 302.883108c4.618039 2.309019 4.618039 7.02745 7.02745 9.336469a604.963078 604.963078 0 0 1 46.883133 168.959984 396.850157 396.850157 0 0 1-4.718431 166.550572 273.769385 273.769385 0 0 1-79.711365 143.058809 685.577972 685.577972 0 0 1-106.014107 79.711365c-4.618039 2.409412-7.02745 4.718431-11.645489 4.718431s-7.127842 2.409412-11.745881 4.718431c-21.182743 11.745881-42.265094 21.082351-63.347445 30.117644a1121.380282 1121.380282 0 0 1-157.214102 52.003132 84.229011 84.229011 0 0 1-23.391371 4.718431h-2.409411c-7.02745 2.309019-16.36392 2.309019-23.39137 4.618039a44.473721 44.473721 0 0 0-16.464313 4.71843h7.027451a135.730183 135.730183 0 0 1 42.265094-9.336469c37.546663-9.436862 72.683914-16.464312 107.921558-23.491763z" fill="#0088B5" p-id="51127"></path><path d="M712.784244 305.192127a983.843041 983.843041 0 0 1 44.574113 140.549006 598.738765 598.738765 0 0 1 11.645489 145.468221A417.430547 417.430547 0 0 1 749.828946 682.6666a287.021148 287.021148 0 0 1-98.484696 131.41332c-28.109801 21.082351-53.910583 42.164702-86.738815 56.219603-2.409412 2.409412-7.127842 4.718431-9.436862 7.127842 2.309019-2.409412 7.02745-2.409412 11.745881-4.718431 4.718431 0 7.02745-2.409412 11.745881-4.718431a568.11916 568.11916 0 0 0 105.512147-79.711365 300.072127 300.072127 0 0 0 79.811757-142.958417 491.92152 491.92152 0 0 0 4.618039-166.550572 816.087763 816.087763 0 0 0-46.883133-168.859591c-2.309019-4.718431-2.309019-7.02745-7.02745-9.436862-2.309019 2.409412-2.309019 2.409412-2.30902 4.718431zM308.906636 964.366964z" fill="#0088B5" p-id="51128"></path><path d="M466.020346 933.646967a614.500332 614.500332 0 0 0 145.468222-60.235288 623.033664 623.033664 0 0 0 79.711364-56.319994 223.573311 223.573311 0 0 0 56.319995-68.065876 303.083892 303.083892 0 0 0 32.828232-74.992934 317.640753 317.640753 0 0 0 14.0549-82.120776c0-23.491762 0-46.883133-2.309019-70.274503a600.746608 600.746608 0 0 0-16.36392-93.866658c-9.436862-35.137251-21.182743-70.274503-32.928624-105.512146a129.907438 129.907438 0 0 0-16.36392-37.546663l21.082351 63.347445a757.358357 757.358357 0 0 1 32.828232 119.567047 460.197602 460.197602 0 0 1 0 187.733315 308.806244 308.806244 0 0 1-84.429796 150.58822A456.985053 456.985053 0 0 1 538.704261 903.529323 681.361502 681.361502 0 0 1 421.647017 940.875202a867.990503 867.990503 0 0 1-107.921558 21.182743 276.178796 276.178796 0 0 0-42.164701 9.33647 345.54977 345.54977 0 0 0 49.192152-7.027451 928.125399 928.125399 0 0 0 145.468221-30.117644z" fill="#0088B5" p-id="51129"></path><path d="M583.278374 265.336445a1016.269704 1016.269704 0 0 1 46.983525 117.258027 511.99995 511.99995 0 0 1 18.773331 178.296453 310.111342 310.111342 0 0 1-63.347444 166.550572 671.121503 671.121503 0 0 1-157.214103 147.777241c-32.828232 23.491762-65.656464 42.265094-100.392147 63.347444h-2.81098v2.30902a896.301089 896.301089 0 0 0 93.866658-49.192152 884.454815 884.454815 0 0 0 96.175677-65.656464 518.224263 518.224263 0 0 0 72.683914-70.274503 308.003107 308.003107 0 0 0 72.784307-136.131752A331.294085 331.294085 0 0 0 672.627385 511.99995a514.911322 514.911322 0 0 0-9.33647-84.429796 530.572497 530.572497 0 0 0-35.237643-103.203127c-14.054901-35.137251-32.828232-68.065876-49.192152-100.894108-2.409412-4.618039-7.02745-9.33647-2.409412-14.0549-7.02745 4.718431-9.33647 11.745881-16.36392 16.464312a135.629791 135.629791 0 0 1 23.39137 40.156859z" fill="#80B435" p-id="51130"></path><path d="M562.196023 232.508212c40.156859 72.683914 70.274503 150.588221 80.313718 232.207037a383.999962 383.999962 0 0 1-7.02745 154.80469 346.051731 346.051731 0 0 1-82.622737 145.468221 845.101094 845.101094 0 0 1-147.777241 126.69489c-25.800782 16.36392-51.601564 32.828232-77.502737 46.883132v2.30902h2.409411a915.07442 915.07442 0 0 0 100.894108-63.247053 721.719145 721.719145 0 0 0 157.11371-147.877632 309.810166 309.810166 0 0 0 63.347445-166.550572A506.277597 506.277597 0 0 0 632.470526 385.003884a718.908165 718.908165 0 0 0-46.883132-117.35842c-7.02745-14.054901-11.745881-30.117644-23.491763-42.164702-2.309019 2.309019 0 4.618039 0 7.02745z" fill="#80B435" p-id="51131"></path><path d="M578.660335 225.480762c16.36392 32.828232 35.137251 65.656464 49.192152 100.392147a589.803864 589.803864 0 0 1 35.237644 103.30352A512.501911 512.501911 0 0 1 672.627385 514.007793 544.225829 544.225829 0 0 1 660.781112 622.431312c-11.745881 51.601564-40.156859 96.175677-72.784307 136.031359a512.602303 512.602303 0 0 1-72.683914 70.274503c-30.117644 23.491762-63.347445 44.574113-96.175677 65.656464-30.117644 18.773331-61.038425 32.828232-93.866658 49.292544l2.30902 2.309019a404.178784 404.178784 0 0 0 44.574113-23.39137 898.208539 898.208539 0 0 0 80.313718-44.574113c16.36392-11.745881 35.137251-21.182743 49.292544-32.928624 28.109801-25.800782 58.629014-46.883133 82.020384-77.402346a603.758372 603.758372 0 0 0 56.319994-79.711364 376.068983 376.068983 0 0 0 35.237644-133.72234 358.399965 358.399965 0 0 0 0-70.274503 480.978776 480.978776 0 0 0-14.054901-79.711365A268.85017 268.85017 0 0 0 642.509741 347.457221c-9.436862-23.491762-18.773331-44.574113-30.117644-68.065876s-28.210193-46.883133-37.546663-70.274503c0 7.02745 4.718431 11.745881 4.718431 16.464312z" fill="#80B435" p-id="51132"></path><path d="M325.270556 943.686182c-7.02745 2.309019-14.054901 7.02745-21.082351 9.33647-2.409412 0-2.409412 0-4.71843 2.409411s-4.718431 2.309019-7.027451 4.618039v2.409411c14.054901-4.718431 25.800782-11.745881 37.546663-16.464312-2.409412-0.401569-4.718431-0.401569-4.718431-2.309019z m138.440771-25.800782c35.137251-14.054901 70.274503-30.117644 103.203127-46.983525a17.669018 17.669018 0 0 0-9.436862 2.409412c-14.054901 7.02745-30.117644 14.054901-42.164701 21.082351-14.054901 7.02745-28.210193 9.436862-42.265094 18.773331a132.015673 132.015673 0 0 1-32.828232 11.745881c-28.109801 9.33647-53.910583 18.773331-82.120777 25.800782-9.33647 2.309019-18.773331 4.718431-25.800781 7.027451-11.745881 2.309019-23.39137 9.436862-37.546663 4.71843 0 2.309019 2.409412 2.309019 2.409411 4.718431a470.638385 470.638385 0 0 0 54.21176-12.147449c37.546663-11.745881 75.093326-23.491762 112.639989-37.546663z m-171.269003 40.156859c2.309019 0 4.718431-2.309019 7.027451-4.718431-2.309019 1.706666-4.718431 1.706666-7.027451 4.015686z" fill="#93BB16" p-id="51133"></path><path d="M390.92702 943.686182c-25.800782 7.02745-51.601564 11.745881-77.402345 21.082351 7.02745-2.309019 16.464312-2.309019 23.491763-4.718431a766.293258 766.293258 0 0 0 157.214102-51.601564c21.082351-9.33647 42.164702-18.773331 63.247052-30.117644-14.054901 4.618039-25.800782 14.054901-37.44627 18.773332A1099.29401 1099.29401 0 0 1 390.92702 943.686182zM283.105855 969.085395c7.02745-2.309019 16.36392-2.309019 23.39137-4.718431-4.718431 0-9.33647 2.409412-11.745881 0-4.618039 0-9.33647 0-11.645489 2.409412h-7.127843a8.332548 8.332548 0 0 0-7.02745 7.02745 25.098037 25.098037 0 0 1 14.155293-4.718431z" fill="#93BB16" p-id="51134"></path><path d="M275.978012 966.776376c-2.309019 0-4.618039 0-4.618039 2.309019a8.031372 8.031372 0 0 1 4.618039-2.309019z m187.733315-49.292544A1031.02735 1031.02735 0 0 1 351.372515 952.621083a354.283887 354.283887 0 0 1-53.910583 11.745881h16.36392c25.800782-7.02745 51.601564-11.745881 77.402345-21.082351 44.574113-11.745881 84.530188-30.117644 126.694889-46.883132 14.054901-4.718431 25.800782-14.155293 37.546663-18.773332 2.309019-2.409412 7.02745-4.718431 9.436862-7.127842C532.078379 886.964619 498.848579 903.529323 463.711327 917.483832zM325.270556 943.686182z m0-2.409412c2.309019-2.309019 2.309019-2.309019 2.30902-4.618038a7.127842 7.127842 0 0 0-2.30902 4.21647z m0 2.409412c0 2.309019 2.309019 2.309019 4.718431 2.309019-2.409412-2.309019-2.409412-2.309019-4.718431-2.309019z" fill="#93BB16" p-id="51135"></path></svg>