<?xml version="1.0" standalone="no"?><!DOCTYPE svg PUBLIC "-//W3C//DTD SVG 1.1//EN" "http://www.w3.org/Graphics/SVG/1.1/DTD/svg11.dtd"><svg t="1707715918964" class="icon" viewBox="0 0 1024 1024" version="1.1" xmlns="http://www.w3.org/2000/svg" p-id="7222" xmlns:xlink="http://www.w3.org/1999/xlink" width="48" height="48"><path d="M997.83111111 515.86844445c-2.84444445 132.32355555-49.152 248.832-145.18044444 343.26755555-100.69333333 98.98666667-223.232 145.18044445-364.43022222 141.08444445-58.02666667-1.70666667-105.13066667-44.60088889-117.41866667-105.0168889-17.63555555-87.38133333-64.96711111-154.39644445-140.288-201.61422222-32.08533333-20.02488889-67.12888889-32.31288889-104.10666667-39.70844444-60.416-12.06044445-101.03466667-61.55377778-102.85511111-123.904C16.95288889 288.42666667 181.93066667 87.60888889 401.06666667 39.82222222c183.86488889-40.04977778 342.69866667 10.80888889 470.69866666 148.59377778 84.65066667 90.90844445 124.01777778 201.50044445 126.06577778 327.45244445z m-636.47288889-10.92266667c-1.25155555 47.33155555 4.77866667 92.38755555 17.408 136.53333333 11.94666667 41.64266667 52.90666667 66.10488889 95.232 56.54755556 89.088-20.13866667 164.63644445-64.62577778 227.89688889-130.16177778 29.46844445-30.49244445 26.73777778-82.48888889-1.47911111-110.81955556-63.14666667-63.488-137.55733333-107.29244445-225.28-127.88622222-46.19377778-10.80888889-84.19555555 13.19822222-96.59733333 57.23022222-11.03644445 39.13955555-18.31822222 78.96177778-17.18044445 118.55644445z" fill="#F92C34" p-id="7223"></path></svg>