<?xml version="1.0" standalone="no"?><!DOCTYPE svg PUBLIC "-//W3C//DTD SVG 1.1//EN" "http://www.w3.org/Graphics/SVG/1.1/DTD/svg11.dtd"><svg t="1707717886220" class="icon" viewBox="0 0 1024 1024" version="1.1" xmlns="http://www.w3.org/2000/svg" p-id="29419" xmlns:xlink="http://www.w3.org/1999/xlink" width="48" height="48"><path d="M0 0m234.507728 0l554.927611 0q234.507728 0 234.507728 234.507728l0 554.927611q0 234.507728-234.507728 234.507728l-554.927611 0q-234.507728 0-234.507728-234.507728l0-554.927611q0-234.507728 234.507728-234.507728Z" fill="#E94532" p-id="29420"></path><path d="M690.827088 335.905704s30.34538-71.280329 79.250973-75.493383 71.735795 36.266429 83.919493 80.161903 79.706438 169.091516 90.69454 186.797732c0 0 63.252752 80.958968-27.84032 116.428333s-275.784277-45.546536-275.784277-45.546536zM103.333704 256.426999c-41.902813 0.455465-82.268431 56.93317-103.333704 92.345602v300.208607A265.080841 265.080841 0 0 0 100.20238 555.667742c51.866118-81.642166 82.837763-117.054598 82.837762-117.054598l21.520739-101.853442s-40.479484-80.958968-101.227177-80.332703zM366.934282 866.465918c-96.786389 12.069832-134.020683 115.403536-145.236517 157.13555 4.269988 0 8.483042 0.398532 12.809963 0.398532h477.441566c-19.75581-111.930613-123.431113-159.412877-123.431113-159.412877l-20.837541-3.814522s-79.307906-9.507839-200.746358 5.693317z" fill="#FFFFFF" p-id="29421"></path><path d="M839.878127 520.08451c0 167.952852-149.734238 326.568665-360.785499 326.568665S92.801067 720.090737 92.801067 520.08451c0-168.009785 156.05382-287.057044 382.078506-287.057044 211.051262 0 364.998554 119.047259 364.998554 287.057044z" fill="#040000" opacity=".18" p-id="29422"></path><path d="M839.878127 520.08451c0 167.952852-149.734238 326.568665-360.785499 326.568665S92.801067 720.090737 92.801067 520.08451c0-168.009785 156.05382-287.057044 382.078506-287.057044 211.051262 0 364.998554 119.047259 364.998554 287.057044z" fill="#FFFFFF" p-id="29423"></path><path d="M511.943067 461.671078a81.300567 40.194818 0 1 0 162.601134 0 81.300567 40.194818 0 1 0-162.601134 0Z" fill="#040000" p-id="29424"></path><path d="M722.477543 414.527096a51.809185 25.619927 68.73 1 0 47.749461-18.58794 51.809185 25.619927 68.73 1 0-47.749461 18.58794Z" fill="#040000" p-id="29425"></path><path d="M355.140444 456.239035a30.743912 53.631046 21.27 1 0 38.910756-99.955539 30.743912 53.631046 21.27 1 0-38.910756 99.955539Z" fill="#040000" p-id="29426"></path><path d="M558.400534 653.706661c-93.313466 0-170.002446-46.002002-210.368064-126.163906a5.704704 5.704704 0 0 1 10.191037-5.123985c38.372957 76.176582 111.304348 119.901257 200.177027 119.901257 99.917714 0 172.564439-43.041477 204.447014-121.096853a5.693317 5.693317 0 1 1 10.532637 4.326921c-33.647504 82.61003-110.108751 128.156566-214.979651 128.156566z" fill="#040000" p-id="29427"></path><path d="M344.217947 815.85233m19.414211 0l219.705104 0q19.414211 0 19.414211 19.414211l0 16.396753q0 19.414211-19.414211 19.414211l-219.705104 0q-19.414211 0-19.414211-19.414211l0-16.396753q0-19.414211 19.414211-19.414211Z" fill="#B61D22" p-id="29428"></path></svg>