<?xml version="1.0" standalone="no"?><!DOCTYPE svg PUBLIC "-//W3C//DTD SVG 1.1//EN" "http://www.w3.org/Graphics/SVG/1.1/DTD/svg11.dtd"><svg t="1707717316462" class="icon" viewBox="0 0 1024 1024" version="1.1" xmlns="http://www.w3.org/2000/svg" p-id="7927" xmlns:xlink="http://www.w3.org/1999/xlink" width="48" height="48"><path d="M831.9 704.4l-51.5 68.7 80.4 95 48.9-37.9z" fill="#040000" p-id="7928"></path><path d="M486.6 98c-30.7 0-60.6 3.6-89.3 10.1-123.6-2.7-155.6-57.6-155.6-57.6C195.8 68.4 205.8 212 205.8 212l0.3 0.4c-74.6 72.9-121 174.6-121 287.1C85.1 721.2 264.9 901 486.6 901s401.5-179.8 401.5-401.5S708.3 98 486.6 98z" fill="#E25448" p-id="7929"></path><path d="M682.1 148.7S822.3 333 664.4 482.2c-153.5 145.1-331.5 17.3-344-68.8-11.9-82.3 9-229.3 184.5-238.3 0 0 131.6-4 162.5 126.6l30.9-4s-3.3-136.2-164.8-197c0 0 72.8 5.2 148.6 48z" fill="#FFFFFF" p-id="7930"></path><path d="M490 350.8m-186 0a186 186 0 1 0 372 0 186 186 0 1 0-372 0Z" fill="#FFFFFF" p-id="7931"></path><path d="M494.2 297.2m-33.4 0a33.4 33.4 0 1 0 66.8 0 33.4 33.4 0 1 0-66.8 0Z" fill="#231815" p-id="7932"></path><path d="M719.6 708.4l4.8-3.6 74.5-59.7c1.7-6.5 3-13.2 3-20.3 0-46.3-37.5-83.8-83.8-83.8s-83.8 37.5-83.8 83.8 37.5 83.8 83.8 83.8c0.6-0.1 1.1-0.2 1.5-0.2z" fill="#040000" p-id="7933"></path><path d="M647.5 464.3s62.8-77.8 50.9-166.5c0 0-123.6-10-164.5 117.7 0 0-23.3 65.3 7.6 135.4l73.1-27.6s-27.9-15.1-45.9-38.1c-17.9-22.9-22.9-64.8 10-66.8s68.8 45.9 68.8 45.9z" fill="#F4AE2C" p-id="7934"></path><path d="M514.2 548s62.2-0.3 116-38.1l-5 41-110.3 12.8-0.7-15.7z" fill="#E25448" p-id="7935"></path></svg>