<svg id="svg" version="1.1" xmlns="http://www.w3.org/2000/svg" xmlns:xlink="http://www.w3.org/1999/xlink" width="46" height="46" viewBox="0 0 400 400"><g id="svgg"><path id="path0" d="M71.720 87.565 C 69.321 88.383,66.000 91.552,66.000 93.023 C 66.000 93.516,65.415 94.972,64.700 96.259 L 63.400 98.600 63.400 200.200 L 63.400 301.800 64.458 303.600 C 65.040 304.590,65.727 306.184,65.984 307.141 C 67.295 312.012,76.737 316.259,79.983 313.437 C 80.322 313.142,81.266 312.687,82.080 312.426 C 82.895 312.165,84.232 311.495,85.053 310.938 C 85.873 310.382,87.484 309.510,88.633 309.002 C 89.781 308.495,91.117 307.683,91.601 307.199 C 92.085 306.715,93.283 305.964,94.264 305.530 C 95.245 305.097,96.141 304.499,96.254 304.203 C 96.368 303.907,97.613 303.174,99.021 302.576 C 100.429 301.978,101.851 301.077,102.180 300.574 C 102.509 300.072,103.188 299.533,103.689 299.376 C 104.190 299.220,105.166 298.598,105.858 297.995 C 106.550 297.392,107.990 296.567,109.058 296.163 C 110.126 295.758,111.318 295.029,111.706 294.542 C 112.095 294.056,112.995 293.466,113.706 293.231 C 114.418 292.996,115.486 292.289,116.079 291.660 C 116.673 291.030,117.985 290.284,118.996 290.001 C 120.006 289.718,121.011 289.153,121.230 288.745 C 121.448 288.337,122.322 287.648,123.172 287.214 C 124.021 286.781,124.979 286.164,125.300 285.842 C 126.172 284.971,128.522 283.603,129.151 283.601 C 129.455 283.601,130.355 283.050,131.151 282.378 C 133.931 280.033,136.511 278.325,138.148 277.748 C 139.055 277.428,140.338 276.653,140.999 276.026 C 141.659 275.399,142.953 274.509,143.873 274.049 C 144.793 273.588,145.664 273.019,145.810 272.784 C 145.955 272.550,147.071 271.916,148.290 271.377 C 149.509 270.838,151.203 269.768,152.054 268.998 C 152.906 268.229,153.844 267.600,154.139 267.600 C 154.434 267.600,155.006 267.236,155.408 266.791 C 155.811 266.346,157.177 265.517,158.444 264.948 C 159.711 264.380,160.833 263.691,160.938 263.418 C 161.042 263.145,161.997 262.513,163.059 262.014 C 164.121 261.515,165.219 260.780,165.499 260.381 C 165.778 259.982,167.031 259.272,168.283 258.803 C 169.534 258.335,170.804 257.602,171.103 257.174 C 171.403 256.746,172.223 256.106,172.924 255.752 C 173.626 255.398,174.653 254.686,175.206 254.170 C 175.759 253.654,176.994 252.955,177.951 252.617 C 178.907 252.280,180.306 251.463,181.059 250.802 C 181.812 250.141,182.585 249.600,182.776 249.600 C 182.968 249.600,183.862 248.984,184.763 248.231 C 185.665 247.477,187.077 246.642,187.901 246.374 C 188.726 246.106,190.030 245.361,190.800 244.718 C 193.994 242.049,196.695 240.371,198.763 239.770 C 200.968 239.129,204.259 237.521,206.724 235.881 C 207.452 235.396,209.342 234.171,210.924 233.158 C 212.506 232.145,214.946 230.570,216.346 229.658 C 217.746 228.746,219.134 228.000,219.432 228.000 C 219.729 228.000,220.635 227.415,221.446 226.700 C 222.900 225.417,224.693 224.282,228.600 222.173 C 229.700 221.579,231.140 220.654,231.800 220.118 C 233.507 218.732,238.483 215.600,238.981 215.599 C 240.236 215.597,246.526 208.266,247.239 205.974 C 249.953 197.255,245.855 188.151,237.417 184.156 C 236.198 183.579,235.200 182.955,235.200 182.771 C 235.200 182.396,231.844 180.281,228.200 178.360 C 226.880 177.664,225.260 176.655,224.600 176.119 C 222.607 174.499,220.724 173.285,218.221 172.007 C 216.913 171.339,215.732 170.614,215.598 170.396 C 215.320 169.947,211.678 167.661,208.400 165.879 C 207.190 165.221,205.750 164.275,205.200 163.776 C 204.650 163.277,203.480 162.678,202.600 162.445 C 201.720 162.211,200.640 161.771,200.200 161.467 C 199.760 161.163,198.701 160.686,197.848 160.409 C 196.994 160.131,195.623 159.296,194.802 158.554 C 193.980 157.811,192.684 156.944,191.922 156.625 C 191.160 156.307,190.288 155.747,189.984 155.381 C 189.680 155.015,188.522 154.313,187.411 153.822 C 186.299 153.330,184.821 152.359,184.125 151.664 C 183.430 150.969,182.592 150.400,182.261 150.400 C 181.931 150.400,181.123 149.947,180.465 149.393 C 179.806 148.839,178.257 147.939,177.021 147.392 C 175.785 146.846,174.671 146.129,174.544 145.799 C 174.418 145.469,173.569 144.869,172.657 144.465 C 171.746 144.061,170.737 143.412,170.416 143.023 C 170.095 142.634,168.862 141.887,167.677 141.363 C 166.493 140.839,165.183 139.978,164.768 139.450 C 164.352 138.922,163.515 138.368,162.906 138.220 C 162.298 138.071,161.131 137.417,160.312 136.766 C 159.494 136.115,158.052 135.251,157.107 134.846 C 156.162 134.441,155.133 133.801,154.819 133.423 C 154.506 133.046,153.418 132.316,152.400 131.800 C 151.382 131.284,150.298 130.559,149.991 130.189 C 149.684 129.819,148.525 129.114,147.416 128.622 C 146.307 128.131,145.142 127.417,144.827 127.035 C 144.511 126.654,143.521 125.975,142.627 125.527 C 141.732 125.079,140.550 124.305,140.000 123.808 C 139.450 123.310,138.500 122.785,137.890 122.641 C 137.279 122.497,136.089 121.755,135.244 120.992 C 134.399 120.229,133.084 119.344,132.322 119.025 C 131.560 118.707,130.702 118.164,130.415 117.818 C 130.129 117.473,129.063 116.824,128.047 116.375 C 127.031 115.926,125.660 115.057,125.000 114.443 C 124.340 113.828,123.208 113.093,122.484 112.808 C 121.760 112.523,120.950 111.996,120.684 111.636 C 120.418 111.276,119.390 110.639,118.400 110.219 C 117.410 109.799,115.994 108.858,115.254 108.128 C 114.514 107.398,113.583 106.800,113.185 106.800 C 112.787 106.800,111.660 106.188,110.681 105.441 C 109.701 104.693,108.068 103.713,107.050 103.263 C 106.033 102.813,105.200 102.256,105.200 102.025 C 105.200 101.793,104.416 101.235,103.457 100.785 C 102.498 100.334,101.329 99.607,100.860 99.170 C 100.390 98.732,99.215 98.035,98.249 97.621 C 97.284 97.207,96.247 96.524,95.947 96.103 C 95.646 95.682,94.363 94.866,93.095 94.289 C 91.827 93.712,90.687 92.970,90.560 92.640 C 90.434 92.311,89.467 91.754,88.412 91.404 C 87.357 91.054,86.158 90.396,85.748 89.943 C 83.402 87.350,76.021 86.099,71.720 87.565 " stroke="none" fill="#f4f2f7" fill-rule="evenodd"></path><path id="path1" d="M70.855 85.481 C 68.173 86.880,65.719 89.216,64.920 91.133 C 64.584 91.940,63.973 93.073,63.562 93.651 C 61.508 96.542,61.600 91.556,61.605 200.384 C 61.610 308.142,61.535 303.829,63.453 306.725 C 63.844 307.316,64.586 308.640,65.101 309.666 C 67.812 315.068,77.192 317.964,82.017 314.889 C 82.778 314.405,84.480 313.458,85.800 312.785 C 89.768 310.761,92.704 309.029,93.679 308.135 C 94.185 307.670,95.353 306.913,96.273 306.451 C 97.193 305.989,98.069 305.412,98.220 305.168 C 98.371 304.924,99.616 304.221,100.988 303.606 C 102.359 302.990,103.589 302.206,103.721 301.862 C 103.853 301.519,104.644 300.896,105.480 300.478 C 107.679 299.379,111.578 297.015,113.200 295.798 C 115.127 294.352,118.676 292.182,120.606 291.269 C 121.489 290.851,122.461 290.208,122.767 289.840 C 123.072 289.472,124.463 288.533,125.858 287.753 C 127.252 286.973,128.497 286.167,128.624 285.962 C 128.751 285.756,129.508 285.315,130.307 284.981 C 131.106 284.647,132.685 283.660,133.817 282.787 C 134.948 281.914,136.020 281.200,136.199 281.200 C 136.378 281.200,137.081 280.784,137.762 280.275 C 138.443 279.767,139.540 279.132,140.200 278.864 C 140.860 278.596,142.030 277.818,142.800 277.135 C 143.570 276.452,144.789 275.643,145.509 275.337 C 146.229 275.032,147.133 274.471,147.518 274.091 C 147.902 273.711,149.154 272.966,150.299 272.436 C 151.444 271.906,152.790 271.035,153.290 270.501 C 153.791 269.967,154.828 269.267,155.595 268.946 C 156.362 268.625,157.352 268.030,157.795 267.625 C 158.238 267.220,159.500 266.438,160.600 265.887 C 161.700 265.337,162.943 264.507,163.362 264.043 C 163.781 263.579,164.339 263.200,164.602 263.200 C 164.865 263.200,165.855 262.639,166.802 261.953 C 167.748 261.267,169.189 260.407,170.004 260.043 C 170.818 259.678,172.095 258.877,172.842 258.262 C 174.743 256.696,179.663 253.600,180.251 253.600 C 180.519 253.600,181.324 253.105,182.039 252.500 C 183.592 251.187,186.646 249.224,189.400 247.770 C 190.500 247.189,191.850 246.300,192.400 245.793 C 192.950 245.286,194.153 244.484,195.073 244.010 C 195.993 243.536,196.959 242.890,197.221 242.575 C 197.953 241.693,201.474 240.772,202.550 241.181 C 203.731 241.630,209.085 245.091,209.409 245.614 C 209.545 245.835,210.540 246.463,211.619 247.010 C 213.284 247.853,215.344 249.146,219.800 252.143 C 220.240 252.439,222.333 253.698,224.450 254.939 C 226.568 256.181,228.548 257.497,228.850 257.862 C 229.153 258.228,230.210 258.911,231.200 259.381 C 232.190 259.850,234.328 261.127,235.951 262.217 C 238.744 264.094,242.338 266.322,245.000 267.827 C 245.660 268.200,247.253 269.292,248.540 270.253 C 249.826 271.214,251.058 272.000,251.277 272.000 C 251.495 272.000,253.474 273.215,255.674 274.700 C 257.874 276.185,260.343 277.760,261.161 278.200 C 262.477 278.908,265.311 280.734,269.000 283.252 C 269.660 283.703,272.045 285.145,274.300 286.458 C 276.555 287.771,278.400 289.002,278.400 289.194 C 278.400 289.385,279.345 289.990,280.500 290.537 C 281.655 291.085,284.603 292.853,287.052 294.466 C 289.501 296.080,292.441 297.940,293.587 298.600 C 294.732 299.260,296.419 300.410,297.335 301.155 C 298.251 301.900,299.720 302.821,300.600 303.201 C 301.480 303.581,304.000 305.113,306.200 306.607 C 313.125 311.309,320.124 314.732,323.441 315.040 C 330.012 315.651,335.958 310.276,337.205 302.600 C 337.783 299.043,337.737 101.638,337.158 97.901 C 335.402 86.586,324.157 82.033,314.600 88.767 C 313.720 89.387,312.100 90.374,311.000 90.959 C 308.156 92.473,305.659 94.055,303.451 95.740 C 302.399 96.543,301.355 97.200,301.131 97.200 C 300.907 97.200,299.191 98.235,297.319 99.500 C 293.655 101.975,292.888 102.452,288.600 104.925 C 287.060 105.813,285.260 107.039,284.600 107.650 C 283.940 108.260,282.705 109.049,281.856 109.404 C 280.338 110.037,277.759 111.651,274.600 113.945 C 273.720 114.584,272.266 115.476,271.369 115.927 C 270.472 116.377,268.609 117.523,267.228 118.473 C 265.013 119.997,262.925 121.298,258.037 124.200 C 257.296 124.640,255.915 125.576,254.967 126.281 C 254.019 126.985,252.547 127.917,251.696 128.351 C 250.845 128.785,248.742 130.099,247.023 131.270 C 245.304 132.442,242.956 133.940,241.804 134.600 C 237.457 137.093,235.770 138.158,234.800 139.021 C 234.250 139.511,233.037 140.294,232.104 140.762 C 230.150 141.741,226.450 144.101,224.361 145.700 C 223.571 146.305,222.819 146.800,222.689 146.800 C 222.286 146.800,215.866 150.788,215.011 151.569 C 214.565 151.976,213.390 152.716,212.400 153.213 C 211.410 153.709,210.043 154.539,209.362 155.058 C 208.681 155.576,207.949 156.000,207.734 156.000 C 207.520 156.000,206.612 156.627,205.717 157.393 C 202.570 160.086,199.591 160.066,196.314 157.328 C 195.402 156.566,193.980 155.598,193.155 155.177 C 192.330 154.756,191.532 154.214,191.383 153.973 C 191.234 153.731,190.277 153.177,189.256 152.740 C 188.235 152.303,187.040 151.621,186.600 151.225 C 185.247 150.005,181.807 147.719,179.344 146.405 C 177.175 145.248,173.730 143.018,172.463 141.952 C 172.168 141.703,170.683 140.895,169.163 140.155 C 167.644 139.415,166.400 138.632,166.400 138.413 C 166.400 138.195,165.635 137.632,164.700 137.163 C 163.765 136.694,162.638 135.979,162.195 135.574 C 161.752 135.170,160.492 134.445,159.395 133.963 C 158.298 133.480,157.040 132.744,156.600 132.325 C 155.287 131.076,150.499 128.040,149.412 127.767 C 148.856 127.628,147.996 127.074,147.500 126.537 C 147.005 126.001,145.758 125.123,144.728 124.588 C 143.699 124.053,142.737 123.422,142.592 123.187 C 142.446 122.951,141.309 122.265,140.064 121.662 C 138.819 121.058,137.440 120.258,137.000 119.882 C 135.379 118.501,132.145 116.406,130.200 115.479 C 129.100 114.955,127.660 114.073,127.000 113.519 C 126.340 112.966,125.247 112.229,124.571 111.883 C 123.895 111.536,123.112 110.976,122.831 110.638 C 122.550 110.299,121.328 109.568,120.114 109.012 C 118.901 108.457,117.314 107.507,116.588 106.901 C 114.927 105.517,111.878 103.613,109.857 102.699 C 109.004 102.313,107.743 101.535,107.053 100.970 C 104.842 99.158,103.062 98.029,100.405 96.752 C 98.977 96.067,97.570 95.164,97.278 94.747 C 96.986 94.330,95.994 93.607,95.074 93.140 C 94.153 92.673,92.909 91.881,92.310 91.379 C 91.710 90.878,90.688 90.351,90.039 90.209 C 89.390 90.066,88.440 89.534,87.929 89.026 C 83.912 85.033,75.187 83.222,70.855 85.481 M80.121 87.449 C 83.382 88.184,84.674 88.756,85.748 89.943 C 86.158 90.396,87.357 91.054,88.412 91.404 C 89.467 91.754,90.434 92.311,90.560 92.640 C 90.687 92.970,91.827 93.712,93.095 94.289 C 94.363 94.866,95.646 95.682,95.947 96.103 C 96.247 96.524,97.284 97.207,98.249 97.621 C 99.215 98.035,100.390 98.732,100.860 99.170 C 101.329 99.607,102.498 100.334,103.457 100.785 C 104.416 101.235,105.200 101.793,105.200 102.025 C 105.200 102.256,106.033 102.813,107.050 103.263 C 108.068 103.713,109.701 104.693,110.681 105.441 C 111.660 106.188,112.787 106.800,113.185 106.800 C 113.583 106.800,114.514 107.398,115.254 108.128 C 115.994 108.858,117.410 109.799,118.400 110.219 C 119.390 110.639,120.418 111.276,120.684 111.636 C 120.950 111.996,121.760 112.523,122.484 112.808 C 123.208 113.093,124.340 113.828,125.000 114.443 C 125.660 115.057,127.031 115.926,128.047 116.375 C 129.063 116.824,130.129 117.473,130.415 117.818 C 130.702 118.164,131.560 118.707,132.322 119.025 C 133.084 119.344,134.399 120.229,135.244 120.992 C 136.089 121.755,137.279 122.497,137.890 122.641 C 138.500 122.785,139.450 123.310,140.000 123.808 C 140.550 124.305,141.732 125.079,142.627 125.527 C 143.521 125.975,144.511 126.654,144.827 127.035 C 145.142 127.417,146.307 128.131,147.416 128.622 C 148.525 129.114,149.684 129.819,149.991 130.189 C 150.298 130.559,151.382 131.284,152.400 131.800 C 153.418 132.316,154.506 133.046,154.819 133.423 C 155.133 133.801,156.162 134.441,157.107 134.846 C 158.052 135.251,159.494 136.115,160.312 136.766 C 161.131 137.417,162.298 138.071,162.906 138.220 C 163.515 138.368,164.352 138.922,164.768 139.450 C 165.183 139.978,166.493 140.839,167.677 141.363 C 168.862 141.887,170.095 142.634,170.416 143.023 C 170.737 143.412,171.746 144.061,172.657 144.465 C 173.569 144.869,174.418 145.469,174.544 145.799 C 174.671 146.129,175.785 146.846,177.021 147.392 C 178.257 147.939,179.806 148.839,180.465 149.393 C 181.123 149.947,181.931 150.400,182.261 150.400 C 182.592 150.400,183.430 150.969,184.125 151.664 C 184.821 152.359,186.299 153.330,187.411 153.822 C 188.522 154.313,189.680 155.015,189.984 155.381 C 190.288 155.747,191.160 156.307,191.922 156.625 C 192.684 156.944,193.980 157.811,194.802 158.554 C 195.623 159.296,196.994 160.131,197.848 160.409 C 198.701 160.686,199.760 161.163,200.200 161.467 C 200.640 161.771,201.720 162.211,202.600 162.445 C 203.480 162.678,204.650 163.277,205.200 163.776 C 205.750 164.275,207.190 165.221,208.400 165.879 C 211.678 167.661,215.320 169.947,215.598 170.396 C 215.732 170.614,216.913 171.339,218.221 172.007 C 220.724 173.285,222.607 174.499,224.600 176.119 C 225.260 176.655,226.880 177.664,228.200 178.360 C 231.844 180.281,235.200 182.396,235.200 182.771 C 235.200 182.955,236.198 183.579,237.417 184.156 C 245.855 188.151,249.953 197.255,247.239 205.974 C 246.526 208.266,240.236 215.597,238.981 215.599 C 238.483 215.600,233.507 218.732,231.800 220.118 C 231.140 220.654,229.700 221.579,228.600 222.173 C 224.693 224.282,222.900 225.417,221.446 226.700 C 220.635 227.415,219.729 228.000,219.432 228.000 C 219.134 228.000,217.746 228.746,216.346 229.658 C 214.946 230.570,212.506 232.145,210.924 233.158 C 209.342 234.171,207.452 235.396,206.724 235.881 C 204.259 237.521,200.968 239.129,198.763 239.770 C 196.695 240.371,193.994 242.049,190.800 244.718 C 190.030 245.361,188.726 246.106,187.901 246.374 C 187.077 246.642,185.665 247.477,184.763 248.231 C 183.862 248.984,182.968 249.600,182.776 249.600 C 182.585 249.600,181.812 250.141,181.059 250.802 C 180.306 251.463,178.907 252.280,177.951 252.617 C 176.994 252.955,175.759 253.654,175.206 254.170 C 174.653 254.686,173.626 255.398,172.924 255.752 C 172.223 256.106,171.403 256.746,171.103 257.174 C 170.804 257.602,169.534 258.335,168.283 258.803 C 167.031 259.272,165.778 259.982,165.499 260.381 C 165.219 260.780,164.121 261.515,163.059 262.014 C 161.997 262.513,161.042 263.145,160.938 263.418 C 160.833 263.691,159.711 264.380,158.444 264.948 C 157.177 265.517,155.811 266.346,155.408 266.791 C 155.006 267.236,154.434 267.600,154.139 267.600 C 153.844 267.600,152.906 268.229,152.054 268.998 C 151.203 269.768,149.509 270.838,148.290 271.377 C 147.071 271.916,145.955 272.550,145.810 272.784 C 145.664 273.019,144.793 273.588,143.873 274.049 C 142.953 274.509,141.659 275.399,140.999 276.026 C 140.338 276.653,139.055 277.428,138.148 277.748 C 136.511 278.325,133.931 280.033,131.151 282.378 C 130.355 283.050,129.455 283.601,129.151 283.601 C 128.522 283.603,126.172 284.971,125.300 285.842 C 124.979 286.164,124.021 286.781,123.172 287.214 C 122.322 287.648,121.448 288.337,121.230 288.745 C 121.011 289.153,120.006 289.718,118.996 290.001 C 117.985 290.284,116.673 291.030,116.079 291.660 C 115.486 292.289,114.418 292.996,113.706 293.231 C 112.995 293.466,112.095 294.056,111.706 294.542 C 111.318 295.029,110.126 295.758,109.058 296.163 C 107.990 296.567,106.550 297.392,105.858 297.995 C 105.166 298.598,104.190 299.220,103.689 299.376 C 103.188 299.533,102.509 300.072,102.180 300.574 C 101.851 301.077,100.429 301.978,99.021 302.576 C 97.613 303.174,96.368 303.907,96.254 304.203 C 96.141 304.499,95.245 305.097,94.264 305.530 C 93.283 305.964,92.085 306.715,91.601 307.199 C 91.117 307.683,89.781 308.495,88.633 309.002 C 87.484 309.510,85.873 310.382,85.053 310.938 C 84.232 311.495,82.895 312.165,82.080 312.426 C 81.266 312.687,80.322 313.142,79.983 313.437 C 76.737 316.259,67.295 312.012,65.984 307.141 C 65.727 306.184,65.040 304.590,64.458 303.600 L 63.400 301.800 63.400 200.200 L 63.400 98.600 64.700 96.259 C 65.415 94.972,66.000 93.516,66.000 93.023 C 66.000 88.925,73.512 85.960,80.121 87.449 " stroke="none" fill="#aca4cc" fill-rule="evenodd"></path><path id="path2" d="M0.000 200.000 L 0.000 400.000 200.000 400.000 L 400.000 400.000 400.000 200.000 L 400.000 0.000 200.000 0.000 L 0.000 0.000 0.000 200.000 M83.600 86.379 C 85.470 87.327,87.418 88.518,87.929 89.026 C 88.440 89.534,89.390 90.066,90.039 90.209 C 90.688 90.351,91.710 90.878,92.310 91.379 C 92.909 91.881,94.153 92.673,95.074 93.140 C 95.994 93.607,96.986 94.330,97.278 94.747 C 97.570 95.164,98.977 96.067,100.405 96.752 C 103.062 98.029,104.842 99.158,107.053 100.970 C 107.743 101.535,109.004 102.313,109.857 102.699 C 111.878 103.613,114.927 105.517,116.588 106.901 C 117.314 107.507,118.901 108.457,120.114 109.012 C 121.328 109.568,122.550 110.299,122.831 110.638 C 123.112 110.976,123.895 111.536,124.571 111.883 C 125.247 112.229,126.340 112.966,127.000 113.519 C 127.660 114.073,129.100 114.955,130.200 115.479 C 132.145 116.406,135.379 118.501,137.000 119.882 C 137.440 120.258,138.819 121.058,140.064 121.662 C 141.309 122.265,142.446 122.951,142.592 123.187 C 142.737 123.422,143.699 124.053,144.728 124.588 C 145.758 125.123,147.005 126.001,147.500 126.537 C 147.996 127.074,148.856 127.628,149.412 127.767 C 150.499 128.040,155.287 131.076,156.600 132.325 C 157.040 132.744,158.298 133.480,159.395 133.963 C 160.492 134.445,161.752 135.170,162.195 135.574 C 162.638 135.979,163.765 136.694,164.700 137.163 C 165.635 137.632,166.400 138.195,166.400 138.413 C 166.400 138.632,167.644 139.415,169.163 140.155 C 170.683 140.895,172.168 141.703,172.463 141.952 C 173.730 143.018,177.175 145.248,179.344 146.405 C 181.807 147.719,185.247 150.005,186.600 151.225 C 187.040 151.621,188.235 152.303,189.256 152.740 C 190.277 153.177,191.234 153.731,191.383 153.973 C 191.532 154.214,192.330 154.756,193.155 155.177 C 193.980 155.598,195.402 156.566,196.314 157.328 C 199.591 160.066,202.570 160.086,205.717 157.393 C 206.612 156.627,207.520 156.000,207.734 156.000 C 207.949 156.000,208.681 155.576,209.362 155.058 C 210.043 154.539,211.410 153.709,212.400 153.213 C 213.390 152.716,214.565 151.976,215.011 151.569 C 215.866 150.788,222.286 146.800,222.689 146.800 C 222.819 146.800,223.571 146.305,224.361 145.700 C 226.450 144.101,230.150 141.741,232.104 140.762 C 233.037 140.294,234.250 139.511,234.800 139.021 C 235.770 138.158,237.457 137.093,241.804 134.600 C 242.956 133.940,245.304 132.442,247.023 131.270 C 248.742 130.099,250.845 128.785,251.696 128.351 C 252.547 127.917,254.019 126.985,254.967 126.281 C 255.915 125.576,257.296 124.640,258.037 124.200 C 262.925 121.298,265.013 119.997,267.228 118.473 C 268.609 117.523,270.472 116.377,271.369 115.927 C 272.266 115.476,273.720 114.584,274.600 113.945 C 277.759 111.651,280.338 110.037,281.856 109.404 C 282.705 109.049,283.940 108.260,284.600 107.650 C 285.260 107.039,287.060 105.813,288.600 104.925 C 292.888 102.452,293.655 101.975,297.319 99.500 C 299.191 98.235,300.907 97.200,301.131 97.200 C 301.355 97.200,302.399 96.543,303.451 95.740 C 305.659 94.055,308.156 92.473,311.000 90.959 C 312.100 90.374,313.720 89.387,314.600 88.767 C 324.157 82.033,335.402 86.586,337.158 97.901 C 337.737 101.638,337.783 299.043,337.205 302.600 C 335.958 310.276,330.012 315.651,323.441 315.040 C 320.124 314.732,313.125 311.309,306.200 306.607 C 304.000 305.113,301.480 303.581,300.600 303.201 C 299.720 302.821,298.251 301.900,297.335 301.155 C 296.419 300.410,294.732 299.260,293.587 298.600 C 292.441 297.940,289.501 296.080,287.052 294.466 C 284.603 292.853,281.655 291.085,280.500 290.537 C 279.345 289.990,278.400 289.385,278.400 289.194 C 278.400 289.002,276.555 287.771,274.300 286.458 C 272.045 285.145,269.660 283.703,269.000 283.252 C 265.311 280.734,262.477 278.908,261.161 278.200 C 260.343 277.760,257.874 276.185,255.674 274.700 C 253.474 273.215,251.495 272.000,251.277 272.000 C 251.058 272.000,249.826 271.214,248.540 270.253 C 247.253 269.292,245.660 268.200,245.000 267.827 C 242.338 266.322,238.744 264.094,235.951 262.217 C 234.328 261.127,232.190 259.850,231.200 259.381 C 230.210 258.911,229.153 258.228,228.850 257.862 C 228.548 257.497,226.568 256.181,224.450 254.939 C 222.333 253.698,220.240 252.439,219.800 252.143 C 215.344 249.146,213.284 247.853,211.619 247.010 C 210.540 246.463,209.545 245.835,209.409 245.614 C 209.085 245.091,203.731 241.630,202.550 241.181 C 201.474 240.772,197.953 241.693,197.221 242.575 C 196.959 242.890,195.993 243.536,195.073 244.010 C 194.153 244.484,192.950 245.286,192.400 245.793 C 191.850 246.300,190.500 247.189,189.400 247.770 C 186.646 249.224,183.592 251.187,182.039 252.500 C 181.324 253.105,180.519 253.600,180.251 253.600 C 179.663 253.600,174.743 256.696,172.842 258.262 C 172.095 258.877,170.818 259.678,170.004 260.043 C 169.189 260.407,167.748 261.267,166.802 261.953 C 165.855 262.639,164.865 263.200,164.602 263.200 C 164.339 263.200,163.781 263.579,163.362 264.043 C 162.943 264.507,161.700 265.337,160.600 265.887 C 159.500 266.438,158.238 267.220,157.795 267.625 C 157.352 268.030,156.362 268.625,155.595 268.946 C 154.828 269.267,153.791 269.967,153.290 270.501 C 152.790 271.035,151.444 271.906,150.299 272.436 C 149.154 272.966,147.902 273.711,147.518 274.091 C 147.133 274.471,146.229 275.032,145.509 275.337 C 144.789 275.643,143.570 276.452,142.800 277.135 C 142.030 277.818,140.860 278.596,140.200 278.864 C 139.540 279.132,138.443 279.767,137.762 280.275 C 137.081 280.784,136.378 281.200,136.199 281.200 C 136.020 281.200,134.948 281.914,133.817 282.787 C 132.685 283.660,131.106 284.647,130.307 284.981 C 129.508 285.315,128.751 285.756,128.624 285.962 C 128.497 286.167,127.252 286.973,125.858 287.753 C 124.463 288.533,123.072 289.472,122.767 289.840 C 122.461 290.208,121.489 290.851,120.606 291.269 C 118.676 292.182,115.127 294.352,113.200 295.798 C 111.578 297.015,107.679 299.379,105.480 300.478 C 104.644 300.896,103.853 301.519,103.721 301.862 C 103.589 302.206,102.359 302.990,100.988 303.606 C 99.616 304.221,98.371 304.924,98.220 305.168 C 98.069 305.412,97.193 305.989,96.273 306.451 C 95.353 306.913,94.185 307.670,93.679 308.135 C 92.704 309.029,89.768 310.761,85.800 312.785 C 84.480 313.458,82.778 314.405,82.017 314.889 C 77.192 317.964,67.812 315.068,65.101 309.666 C 64.586 308.640,63.844 307.316,63.453 306.725 C 61.535 303.829,61.610 308.142,61.605 200.384 C 61.600 91.556,61.508 96.542,63.562 93.651 C 63.973 93.073,64.584 91.940,64.920 91.133 C 67.580 84.753,76.109 82.583,83.600 86.379 " stroke="none" fill="#5b439b" fill-rule="evenodd"></path></g></svg>