<svg id="svg" version="1.1" xmlns="http://www.w3.org/2000/svg" xmlns:xlink="http://www.w3.org/1999/xlink" width="48" height="48" viewBox="0 0 400 400"><g id="svgg"><path id="path0" d="M67.143 0.190 C 67.039 0.294,65.974 0.405,64.777 0.437 C 63.497 0.470,62.069 0.795,61.312 1.226 C 60.000 1.973,57.405 2.639,56.500 2.463 C 56.225 2.409,56.000 2.583,56.000 2.849 C 56.000 3.115,55.880 3.213,55.732 3.066 C 55.585 2.919,55.180 3.046,54.832 3.348 C 54.485 3.651,53.334 3.990,52.275 4.103 C 51.086 4.229,50.006 4.631,49.449 5.154 C 48.954 5.619,48.267 6.000,47.923 6.000 C 47.274 6.000,46.272 6.939,46.586 7.253 C 46.685 7.352,46.417 7.459,45.990 7.491 C 44.789 7.581,42.989 8.600,43.100 9.127 C 43.155 9.387,43.065 9.579,42.900 9.553 C 41.777 9.375,40.693 9.737,39.762 10.600 C 39.169 11.150,38.301 11.600,37.835 11.600 C 37.368 11.600,36.159 12.393,35.148 13.361 C 34.137 14.330,32.745 15.415,32.055 15.772 C 31.365 16.129,30.800 16.584,30.800 16.783 C 30.800 16.983,30.461 17.254,30.047 17.385 C 29.360 17.603,25.926 20.643,22.400 24.155 C 19.877 26.668,18.414 28.499,18.639 28.863 C 18.760 29.059,18.649 29.170,18.393 29.110 C 18.136 29.049,17.717 29.356,17.463 29.791 C 17.208 30.226,16.785 30.766,16.522 30.991 C 16.259 31.216,15.989 31.670,15.922 32.000 C 15.855 32.330,14.844 33.544,13.675 34.698 C 12.507 35.852,11.649 36.956,11.769 37.151 C 11.890 37.346,11.511 38.202,10.928 39.053 C 10.002 40.403,9.795 40.958,9.633 42.524 C 9.615 42.702,9.422 42.737,9.205 42.603 C 8.978 42.463,8.911 42.623,9.047 42.979 C 9.198 43.371,9.063 43.600,8.682 43.600 C 8.029 43.600,7.094 45.741,7.533 46.230 C 7.680 46.394,7.587 46.406,7.328 46.258 C 6.799 45.955,6.432 46.396,6.196 47.619 C 6.109 48.071,5.669 48.747,5.219 49.120 C 4.446 49.761,4.089 51.142,4.027 53.724 C 4.012 54.342,3.829 54.742,3.620 54.612 C 3.077 54.277,2.551 55.492,2.253 57.771 C 2.112 58.855,1.706 60.062,1.351 60.454 C 0.216 61.709,0.200 63.670,0.213 200.200 C 0.228 342.812,0.207 340.661,1.576 339.815 C 1.904 339.612,2.472 342.299,2.434 343.875 C 2.421 344.408,2.723 344.849,3.207 345.002 C 3.957 345.240,4.196 345.882,4.015 347.165 C 3.835 348.436,4.459 350.400,5.042 350.400 C 5.375 350.400,5.544 350.568,5.417 350.772 C 5.291 350.977,5.370 351.258,5.593 351.396 C 5.817 351.534,6.000 351.932,6.000 352.280 C 6.000 352.627,6.315 353.170,6.700 353.486 C 7.157 353.860,7.192 353.969,6.800 353.799 C 6.466 353.654,6.555 353.863,7.000 354.270 C 7.440 354.671,7.863 355.360,7.940 355.800 C 8.017 356.240,8.287 356.732,8.540 356.894 C 8.793 357.056,8.843 357.191,8.651 357.194 C 8.459 357.197,8.519 357.462,8.785 357.782 C 9.050 358.102,9.576 358.957,9.953 359.682 C 10.330 360.407,10.883 361.450,11.182 362.000 C 11.480 362.550,11.860 363.270,12.025 363.600 C 12.190 363.930,12.504 364.161,12.723 364.113 C 12.941 364.066,13.231 364.471,13.368 365.013 C 13.530 365.659,13.897 366.000,14.431 366.000 C 14.880 366.000,15.139 366.175,15.007 366.389 C 14.874 366.603,15.134 367.093,15.583 367.478 C 16.032 367.863,16.397 368.363,16.394 368.589 C 16.391 368.815,16.213 368.730,16.000 368.400 C 15.745 368.005,15.610 367.970,15.606 368.297 C 15.603 368.570,15.960 369.018,16.400 369.293 C 16.840 369.568,17.200 370.009,17.200 370.274 C 17.200 370.538,17.531 370.990,17.937 371.277 C 18.342 371.565,18.888 372.205,19.151 372.700 C 19.413 373.195,19.826 373.600,20.068 373.600 C 20.310 373.600,20.915 374.039,21.412 374.575 C 21.909 375.112,22.440 375.427,22.591 375.275 C 22.743 375.124,22.813 375.180,22.748 375.400 C 22.549 376.075,23.554 377.531,24.405 377.802 C 24.849 377.942,25.101 378.237,24.966 378.456 C 24.830 378.675,25.098 378.953,25.560 379.074 C 26.022 379.194,26.400 379.551,26.400 379.866 C 26.400 380.181,26.985 380.693,27.700 381.004 C 28.415 381.314,28.843 381.576,28.651 381.584 C 28.459 381.593,28.524 381.868,28.796 382.196 C 29.068 382.523,29.424 382.709,29.586 382.608 C 29.749 382.508,30.224 382.703,30.641 383.042 C 31.058 383.382,31.130 383.521,30.800 383.353 C 30.278 383.086,30.274 383.137,30.764 383.741 C 31.074 384.124,31.579 384.340,31.885 384.223 C 32.191 384.105,32.344 384.166,32.226 384.358 C 32.107 384.550,32.546 384.929,33.200 385.200 C 33.854 385.471,34.304 385.831,34.200 386.000 C 34.096 386.169,34.546 386.529,35.200 386.800 C 35.854 387.071,36.291 387.452,36.171 387.647 C 35.920 388.053,37.901 388.909,38.390 388.606 C 38.567 388.497,39.006 388.855,39.365 389.403 C 39.725 389.952,40.315 390.400,40.678 390.400 C 41.040 390.400,41.697 390.715,42.137 391.100 C 42.731 391.619,42.860 391.645,42.639 391.200 C 42.457 390.834,42.562 390.870,42.910 391.294 C 43.223 391.675,43.596 391.870,43.740 391.727 C 43.883 391.584,44.000 391.692,44.000 391.967 C 44.000 392.242,44.223 392.392,44.496 392.301 C 44.769 392.210,45.322 392.555,45.725 393.068 C 46.128 393.581,46.780 394.000,47.173 394.000 C 47.567 394.000,48.566 394.460,49.394 395.022 C 50.223 395.584,51.283 396.014,51.750 395.978 C 53.680 395.827,54.356 396.030,54.612 396.837 C 54.795 397.414,55.113 397.611,55.638 397.474 C 56.057 397.365,56.503 397.443,56.630 397.648 C 56.756 397.853,57.475 397.980,58.226 397.929 C 59.164 397.866,59.760 398.066,60.126 398.566 C 61.033 399.806,60.377 399.801,200.000 399.770 C 352.576 399.736,338.337 399.847,339.400 398.679 C 339.960 398.064,340.680 397.794,341.800 397.779 C 343.866 397.752,344.449 397.564,345.288 396.653 C 345.750 396.150,346.504 395.913,347.588 395.928 C 348.475 395.940,349.200 395.771,349.200 395.551 C 349.200 395.332,349.388 395.269,349.618 395.411 C 350.072 395.692,351.290 394.869,351.034 394.455 C 350.948 394.315,351.333 394.173,351.891 394.139 C 352.448 394.106,353.036 393.865,353.197 393.605 C 353.358 393.345,353.649 393.147,353.845 393.166 C 354.040 393.185,354.204 392.975,354.210 392.700 C 354.215 392.425,354.567 392.231,354.993 392.269 C 356.066 392.366,357.279 391.652,356.949 391.118 C 356.785 390.852,356.860 390.790,357.138 390.962 C 357.392 391.119,357.600 391.096,357.600 390.911 C 357.600 390.726,358.084 390.534,358.676 390.485 C 359.268 390.436,360.135 390.037,360.602 389.598 C 361.069 389.159,361.665 388.800,361.926 388.800 C 362.187 388.800,362.400 388.626,362.400 388.413 C 362.400 388.199,362.633 388.115,362.918 388.224 C 363.203 388.333,363.832 387.968,364.315 387.411 C 364.799 386.855,365.364 386.400,365.570 386.400 C 365.777 386.400,366.060 386.040,366.200 385.600 C 366.340 385.160,366.774 384.800,367.165 384.800 C 367.556 384.800,368.219 384.398,368.638 383.907 C 369.392 383.023,369.392 383.020,368.600 383.588 C 367.964 384.044,367.901 384.048,368.295 383.606 C 368.567 383.301,369.197 382.993,369.695 382.922 C 370.193 382.851,370.877 382.461,371.217 382.055 C 371.556 381.650,372.231 381.105,372.717 380.845 C 373.202 380.585,373.600 380.010,373.600 379.568 C 373.600 379.025,373.827 378.803,374.300 378.882 C 374.685 378.947,374.961 378.794,374.914 378.543 C 374.867 378.291,375.349 377.870,375.985 377.606 C 377.207 377.100,377.778 376.212,377.339 375.502 C 377.184 375.251,377.266 375.194,377.538 375.362 C 377.792 375.519,378.000 375.457,378.000 375.224 C 378.000 374.991,378.225 374.845,378.500 374.900 C 378.775 374.955,378.975 374.685,378.944 374.300 C 378.914 373.915,379.099 373.600,379.356 373.600 C 379.977 373.600,381.280 372.053,381.016 371.626 C 380.902 371.442,381.111 371.315,381.481 371.345 C 381.851 371.375,382.351 371.014,382.592 370.543 C 382.834 370.071,383.294 369.351,383.616 368.943 C 384.135 368.283,384.131 368.245,383.581 368.600 C 383.241 368.820,383.376 368.633,383.881 368.185 C 384.386 367.737,384.800 367.164,384.800 366.912 C 384.800 366.660,385.160 366.340,385.600 366.200 C 386.040 366.060,386.400 365.786,386.400 365.589 C 386.400 365.393,386.861 364.805,387.424 364.283 C 388.106 363.650,388.473 362.857,388.524 361.903 C 388.566 361.117,388.669 360.540,388.753 360.623 C 389.162 361.023,390.400 359.863,390.400 359.079 C 390.400 358.588,390.850 357.523,391.400 356.714 C 391.950 355.905,392.400 354.843,392.400 354.355 C 392.400 353.866,392.518 353.585,392.663 353.729 C 393.254 354.321,395.669 349.829,395.836 347.827 C 395.934 346.640,396.238 345.699,396.584 345.505 C 396.921 345.316,397.061 344.903,396.915 344.524 C 396.759 344.117,396.825 343.968,397.087 344.130 C 397.577 344.433,398.201 341.049,397.781 340.369 C 397.634 340.131,397.885 339.676,398.340 339.357 C 398.861 338.992,399.074 338.536,398.915 338.123 C 398.754 337.704,398.822 337.567,399.105 337.742 C 399.772 338.154,399.741 344.722,399.771 199.272 C 399.799 69.026,399.767 62.725,399.092 62.347 C 398.702 62.129,398.480 61.794,398.598 61.603 C 398.716 61.412,398.630 61.142,398.407 61.004 C 398.183 60.866,397.999 60.178,397.998 59.476 C 397.995 57.686,397.271 55.281,396.625 54.911 C 396.325 54.740,395.992 53.692,395.884 52.581 C 395.698 50.682,394.558 48.375,393.010 46.766 C 392.674 46.418,392.400 45.821,392.400 45.440 C 392.400 44.440,391.624 43.138,391.188 43.408 C 390.983 43.534,390.698 42.903,390.554 42.004 C 390.411 41.106,389.986 40.152,389.611 39.885 C 389.236 39.618,388.803 38.892,388.650 38.270 C 388.496 37.649,388.019 36.749,387.590 36.270 C 386.653 35.224,384.800 33.085,384.076 32.213 C 383.788 31.866,383.355 31.704,383.114 31.853 C 382.873 32.002,382.778 31.959,382.902 31.758 C 383.213 31.255,382.140 28.800,381.609 28.800 C 381.373 28.800,381.007 28.345,380.796 27.789 C 380.585 27.233,380.004 26.615,379.506 26.415 C 379.008 26.214,378.743 26.039,378.918 26.025 C 379.093 26.011,378.823 25.574,378.318 25.053 C 377.813 24.533,377.220 23.821,377.000 23.471 C 376.780 23.122,376.331 22.783,376.003 22.718 C 375.674 22.653,374.797 21.838,374.054 20.906 C 373.311 19.975,372.551 19.307,372.365 19.422 C 372.178 19.537,371.808 19.282,371.542 18.855 C 371.275 18.429,370.838 18.164,370.569 18.267 C 370.301 18.370,369.945 18.234,369.779 17.965 C 369.573 17.632,369.643 17.579,370.000 17.800 C 370.346 18.014,370.427 17.967,370.238 17.662 C 370.081 17.408,369.745 17.200,369.490 17.200 C 369.236 17.200,368.662 16.841,368.214 16.403 C 364.498 12.763,361.861 10.729,362.635 12.100 C 362.861 12.500,362.810 12.500,362.379 12.100 C 362.082 11.825,361.516 11.600,361.120 11.600 C 360.724 11.600,360.400 11.336,360.400 11.014 C 360.400 10.324,359.191 9.600,358.040 9.600 C 357.594 9.600,357.033 9.235,356.794 8.789 C 356.555 8.343,356.201 8.076,356.008 8.195 C 355.814 8.315,355.542 8.230,355.404 8.007 C 355.266 7.783,354.825 7.600,354.425 7.600 C 354.025 7.600,353.451 7.238,353.149 6.797 C 352.847 6.355,352.118 5.957,351.529 5.912 C 350.940 5.867,350.541 5.696,350.642 5.532 C 350.861 5.178,348.595 3.942,347.890 4.032 C 346.485 4.212,344.780 3.956,345.000 3.599 C 345.310 3.099,343.998 2.596,341.400 2.219 C 340.300 2.059,339.090 1.651,338.711 1.312 C 338.307 0.951,336.735 0.561,334.911 0.370 C 331.685 0.031,67.479 -0.146,67.143 0.190 M102.827 13.214 C 104.764 14.251,106.950 21.336,106.956 26.600 C 106.968 36.656,101.169 46.064,91.932 50.974 C 88.117 53.001,87.355 51.924,105.489 70.150 C 114.491 79.197,122.303 87.230,122.849 88.000 C 132.116 101.065,128.563 117.744,114.298 128.149 C 99.405 139.011,77.909 127.817,77.909 109.200 C 77.909 102.207,79.249 99.241,86.235 90.769 C 91.797 84.025,92.400 82.900,92.400 79.276 C 92.400 74.859,91.838 74.107,78.434 60.600 C 63.996 46.051,63.600 45.501,63.600 39.991 C 63.600 33.018,68.229 27.872,76.340 25.828 C 80.465 24.789,84.330 23.216,88.813 20.756 C 90.147 20.023,95.290 16.407,95.800 15.843 C 98.307 13.069,100.808 12.134,102.827 13.214 M217.200 32.396 C 219.730 32.607,224.500 32.972,227.800 33.207 C 231.100 33.442,235.330 33.899,237.200 34.222 C 239.070 34.546,242.400 35.067,244.600 35.381 C 249.366 36.061,253.902 36.937,258.000 37.971 C 264.581 39.631,270.526 41.307,273.876 42.447 C 275.814 43.107,278.390 43.975,279.600 44.378 C 282.506 45.344,284.956 46.410,292.600 50.034 C 314.744 60.534,332.733 76.780,345.270 97.600 C 354.429 112.811,361.159 130.981,364.605 149.800 C 364.927 151.560,365.459 154.260,365.787 155.800 C 366.331 158.356,366.993 163.338,367.993 172.400 C 369.505 186.101,369.506 216.219,367.995 229.000 C 367.787 230.760,367.333 234.720,366.986 237.800 C 366.639 240.880,366.188 244.038,365.984 244.818 C 365.780 245.597,365.252 248.207,364.810 250.618 C 363.021 260.371,360.258 270.679,357.417 278.200 C 356.835 279.740,356.073 281.810,355.723 282.800 C 355.373 283.790,354.935 284.796,354.749 285.035 C 354.563 285.274,354.144 286.224,353.819 287.146 C 345.059 311.974,320.023 338.147,292.161 351.603 C 283.252 355.905,266.850 361.705,260.000 362.975 C 259.230 363.117,257.070 363.574,255.200 363.989 C 218.351 372.176,158.430 370.340,131.200 360.190 C 130.430 359.903,129.260 359.552,128.600 359.411 C 123.851 358.393,108.743 351.784,100.400 347.073 C 66.715 328.057,45.750 296.759,36.447 251.600 C 31.543 227.794,30.446 185.229,34.184 163.800 C 34.491 162.040,34.858 159.610,34.999 158.400 C 36.305 147.218,42.808 123.207,45.689 118.929 C 48.357 114.968,54.125 113.723,58.200 116.231 C 62.971 119.166,63.903 123.300,61.429 130.543 C 56.965 143.607,54.450 155.436,52.402 173.000 C 50.911 185.783,50.908 216.297,52.396 228.000 C 54.464 244.269,54.820 246.289,57.613 257.600 C 60.937 271.065,66.137 283.714,72.595 294.048 C 72.818 294.404,73.336 295.291,73.747 296.018 C 87.892 321.074,119.225 339.812,158.400 346.644 C 181.215 350.623,225.117 350.939,239.557 347.229 C 240.351 347.025,242.350 346.660,244.000 346.417 C 250.765 345.421,261.496 342.741,269.200 340.124 C 299.658 329.779,321.390 310.754,334.703 282.781 C 354.845 240.459,355.354 164.597,335.791 120.600 C 326.239 99.118,314.144 85.394,292.400 71.364 C 290.342 70.036,280.858 65.279,279.215 64.751 C 278.437 64.501,277.602 64.140,277.361 63.950 C 276.772 63.485,267.256 60.108,264.000 59.208 C 258.114 57.582,249.931 55.618,245.800 54.841 C 241.875 54.102,238.700 53.638,229.000 52.385 C 215.906 50.693,182.395 50.919,169.200 52.788 C 166.230 53.209,162.900 53.663,161.800 53.796 C 157.042 54.375,143.022 57.400,139.652 58.576 C 129.461 62.131,121.554 56.634,123.977 47.677 C 124.773 44.735,129.408 40.800,132.077 40.800 C 132.473 40.800,133.833 40.463,135.098 40.051 C 137.410 39.299,144.986 37.452,147.600 37.004 C 148.370 36.872,150.170 36.500,151.600 36.178 C 153.030 35.855,156.090 35.331,158.400 35.014 C 160.710 34.696,163.950 34.235,165.600 33.989 C 176.568 32.355,205.857 31.451,217.200 32.396 M168.400 117.815 C 181.293 121.860,190.094 131.296,193.233 144.439 C 194.673 150.467,195.710 148.825,181.280 163.374 C 168.625 176.134,166.228 178.747,164.375 181.800 C 156.934 194.060,157.667 210.538,166.153 221.800 C 166.982 222.900,173.586 229.754,180.830 237.031 C 195.893 252.163,194.817 250.428,193.176 256.933 C 184.009 293.285,135.047 294.598,123.562 258.800 L 122.600 255.800 122.600 201.000 L 122.600 146.200 123.682 142.587 C 129.490 123.185,149.747 111.963,168.400 117.815 M267.438 120.133 C 293.289 126.893,304.056 156.635,288.531 178.400 C 287.354 180.050,282.336 185.450,277.379 190.400 C 272.422 195.350,268.261 199.819,268.132 200.331 C 267.931 201.131,269.307 202.684,277.884 211.331 C 287.181 220.704,289.365 223.276,291.527 227.400 C 310.022 262.661,266.740 298.733,235.303 274.258 C 231.962 271.658,177.150 216.549,175.689 214.322 C 170.218 205.984,170.268 195.828,175.826 186.500 C 177.808 183.173,235.686 126.242,239.000 124.360 C 243.681 121.700,247.918 120.236,254.400 119.039 C 256.720 118.610,263.926 119.215,267.438 120.133 " stroke="none" fill="#fbe841" fill-rule="evenodd"></path><path id="path1" d="M97.714 14.100 C 96.881 14.815,96.020 15.599,95.800 15.843 C 95.290 16.407,90.147 20.023,88.813 20.756 C 84.330 23.216,80.465 24.789,76.340 25.828 C 68.229 27.872,63.600 33.018,63.600 39.991 C 63.600 45.501,63.996 46.051,78.434 60.600 C 95.864 78.164,96.047 78.871,86.235 90.769 C 79.249 99.241,77.909 102.207,77.909 109.200 C 77.909 127.817,99.405 139.011,114.298 128.149 C 128.563 117.744,132.116 101.065,122.849 88.000 C 122.303 87.230,114.491 79.197,105.489 70.150 C 87.355 51.924,88.117 53.001,91.932 50.974 C 103.250 44.957,109.150 32.327,106.213 20.400 C 104.399 13.032,101.478 10.867,97.714 14.100 " stroke="none" fill="#0bcbf6" fill-rule="evenodd"></path><path id="path2" d="M374.687 21.768 C 375.469 22.814,375.752 22.863,375.378 21.888 C 375.246 21.544,374.876 21.161,374.556 21.039 C 374.118 20.870,374.150 21.051,374.687 21.768 M177.800 32.819 C 172.740 33.217,167.250 33.743,165.600 33.989 C 163.950 34.235,160.710 34.696,158.400 35.014 C 156.090 35.331,153.030 35.855,151.600 36.178 C 150.170 36.500,148.370 36.872,147.600 37.004 C 144.986 37.452,137.410 39.299,135.098 40.051 C 133.833 40.463,132.473 40.800,132.077 40.800 C 129.408 40.800,124.773 44.735,123.977 47.677 C 121.554 56.634,129.461 62.131,139.652 58.576 C 143.022 57.400,157.042 54.375,161.800 53.796 C 162.900 53.663,166.230 53.209,169.200 52.788 C 182.395 50.919,215.906 50.693,229.000 52.385 C 238.700 53.638,241.875 54.102,245.800 54.841 C 249.931 55.618,258.114 57.582,264.000 59.208 C 267.256 60.108,276.772 63.485,277.361 63.950 C 277.602 64.140,278.437 64.501,279.215 64.751 C 280.858 65.279,290.342 70.036,292.400 71.364 C 298.950 75.590,302.612 78.141,305.555 80.528 C 334.549 104.044,349.011 141.402,349.871 195.000 C 350.940 261.673,333.296 303.875,294.000 328.637 C 281.238 336.678,260.815 343.941,244.000 346.417 C 242.350 346.660,240.351 347.025,239.557 347.229 C 225.117 350.939,181.215 350.623,158.400 346.644 C 119.225 339.812,87.892 321.074,73.747 296.018 C 73.336 295.291,72.818 294.404,72.595 294.048 C 66.137 283.714,60.937 271.065,57.613 257.600 C 54.820 246.289,54.464 244.269,52.396 228.000 C 50.908 216.297,50.911 185.783,52.402 173.000 C 54.450 155.436,56.965 143.607,61.429 130.543 C 63.903 123.300,62.971 119.166,58.200 116.231 C 54.125 113.723,48.357 114.968,45.689 118.929 C 42.808 123.207,36.305 147.218,34.999 158.400 C 34.858 159.610,34.491 162.040,34.184 163.800 C 30.446 185.229,31.543 227.794,36.447 251.600 C 47.245 304.014,74.341 338.482,118.200 355.593 C 126.213 358.720,127.390 359.152,128.600 359.411 C 129.260 359.552,130.430 359.903,131.200 360.190 C 158.430 370.340,218.351 372.176,255.200 363.989 C 257.070 363.574,259.230 363.117,260.000 362.975 C 277.589 359.714,302.715 347.712,318.000 335.268 C 332.967 323.083,348.504 302.209,353.819 287.146 C 354.144 286.224,354.563 285.274,354.749 285.035 C 354.935 284.796,355.373 283.790,355.723 282.800 C 356.073 281.810,356.835 279.740,357.417 278.200 C 360.258 270.679,363.021 260.371,364.810 250.618 C 365.252 248.207,365.780 245.597,365.984 244.818 C 366.188 244.038,366.639 240.880,366.986 237.800 C 367.333 234.720,367.787 230.760,367.995 229.000 C 369.506 216.219,369.505 186.101,367.993 172.400 C 366.993 163.338,366.331 158.356,365.787 155.800 C 365.459 154.260,364.927 151.560,364.605 149.800 C 363.020 141.143,360.535 131.955,357.403 123.173 C 345.502 89.803,323.064 64.479,292.600 50.034 C 284.956 46.410,282.506 45.344,279.600 44.378 C 278.390 43.975,275.814 43.107,273.876 42.447 C 270.526 41.307,264.581 39.631,258.000 37.971 C 253.902 36.937,249.366 36.061,244.600 35.381 C 242.400 35.067,239.070 34.546,237.200 34.222 C 235.330 33.899,231.100 33.442,227.800 33.207 C 224.500 32.972,219.730 32.607,217.200 32.396 C 209.718 31.773,188.175 32.004,177.800 32.819 M9.037 42.600 C 8.676 43.150,8.537 43.600,8.727 43.600 C 8.916 43.600,9.277 43.150,9.527 42.600 C 9.778 42.050,9.917 41.600,9.837 41.600 C 9.757 41.600,9.397 42.050,9.037 42.600 M152.153 116.771 C 139.004 118.882,127.713 129.120,123.682 142.587 L 122.600 146.200 122.600 201.000 L 122.600 255.800 123.562 258.800 C 135.047 294.598,184.009 293.285,193.176 256.933 C 194.817 250.428,195.893 252.163,180.830 237.031 C 173.586 229.754,166.982 222.900,166.153 221.800 C 157.667 210.538,156.934 194.060,164.375 181.800 C 166.228 178.747,168.625 176.134,181.280 163.374 C 195.710 148.825,194.673 150.467,193.233 144.439 C 188.743 125.639,171.066 113.734,152.153 116.771 M254.400 119.039 C 247.918 120.236,243.681 121.700,239.000 124.360 C 235.686 126.242,177.808 183.173,175.826 186.500 C 170.268 195.828,170.218 205.984,175.689 214.322 C 177.150 216.549,231.962 271.658,235.303 274.258 C 248.326 284.397,267.139 284.743,280.247 275.083 C 295.437 263.889,300.171 243.879,291.527 227.400 C 289.365 223.276,287.181 220.704,277.884 211.331 C 269.307 202.684,267.931 201.131,268.132 200.331 C 268.261 199.819,272.422 195.350,277.379 190.400 C 282.336 185.450,287.354 180.050,288.531 178.400 C 304.056 156.635,293.289 126.893,267.438 120.133 C 263.926 119.215,256.720 118.610,254.400 119.039 " stroke="none" fill="#fc6004" fill-rule="evenodd"></path></g></svg>