<svg id="svg" version="1.1" xmlns="http://www.w3.org/2000/svg" xmlns:xlink="http://www.w3.org/1999/xlink" width="48" height="48" viewBox="0 0 400 400"><g id="svgg"><path id="path0" d="M113.671 78.262 C 111.718 78.685,108.713 81.045,107.100 83.422 C 105.515 85.758,105.459 91.511,107.000 93.600 C 107.550 94.345,108.000 95.100,108.000 95.278 C 108.000 95.455,108.281 95.915,108.625 96.300 C 110.092 97.942,111.600 100.150,111.600 100.655 C 111.600 100.955,111.775 101.200,111.989 101.200 C 112.203 101.200,113.101 102.325,113.985 103.700 C 114.869 105.075,115.870 106.560,116.210 107.000 C 118.676 110.194,119.200 110.974,119.200 111.455 C 119.200 111.755,119.362 112.000,119.560 112.000 C 119.759 112.000,120.289 112.585,120.738 113.300 C 121.188 114.015,122.102 115.320,122.769 116.200 C 123.437 117.080,124.160 118.198,124.375 118.684 C 124.591 119.170,125.155 119.955,125.627 120.427 C 127.533 122.333,126.363 122.578,114.287 122.800 C 106.480 122.943,103.146 123.145,102.501 123.513 C 102.007 123.796,100.575 124.217,99.319 124.449 C 98.064 124.681,96.599 125.215,96.064 125.635 C 95.530 126.056,94.827 126.400,94.504 126.400 C 94.180 126.400,93.407 126.805,92.785 127.300 C 92.164 127.795,91.007 128.650,90.214 129.200 C 88.373 130.478,86.078 132.773,84.800 134.614 C 84.250 135.407,83.422 136.538,82.961 137.128 C 82.499 137.717,81.990 138.740,81.830 139.400 C 81.669 140.060,81.277 140.889,80.959 141.243 C 79.278 143.109,79.033 147.546,78.906 178.443 C 78.774 210.540,78.898 212.564,81.170 215.453 C 81.627 216.033,82.001 216.709,82.003 216.954 C 82.009 217.710,86.071 221.094,88.600 222.450 C 91.778 224.153,101.021 224.474,103.079 222.953 C 103.704 222.491,104.592 221.993,105.051 221.847 C 105.511 221.701,106.948 220.543,108.244 219.273 C 110.373 217.187,111.007 216.344,112.722 213.320 C 113.009 212.814,113.373 212.400,113.531 212.400 C 113.689 212.400,114.157 211.770,114.572 211.000 C 114.987 210.230,115.456 209.600,115.614 209.600 C 115.773 209.600,116.127 209.060,116.400 208.400 C 116.673 207.740,117.060 207.200,117.258 207.200 C 117.457 207.200,117.800 206.795,118.020 206.300 C 118.446 205.342,120.002 202.997,120.874 201.997 C 121.163 201.665,122.108 200.315,122.974 198.997 C 123.839 197.679,124.653 196.510,124.783 196.400 C 124.912 196.290,125.374 195.678,125.809 195.040 C 126.244 194.403,126.870 193.491,127.200 193.014 C 127.530 192.538,128.192 191.530,128.671 190.774 C 129.151 190.018,129.791 189.130,130.094 188.800 C 130.398 188.470,131.343 187.120,132.196 185.800 C 133.048 184.480,133.983 183.256,134.273 183.080 C 134.563 182.904,134.800 182.501,134.800 182.184 C 134.800 181.866,135.160 181.382,135.600 181.107 C 136.040 180.832,136.400 180.409,136.400 180.167 C 136.400 179.303,142.492 173.600,143.414 173.600 C 143.683 173.600,144.118 173.339,144.383 173.020 C 144.648 172.702,145.525 172.234,146.332 171.981 C 147.139 171.728,148.565 171.163,149.499 170.725 C 151.773 169.661,163.136 169.761,164.800 170.861 C 165.350 171.224,166.383 171.643,167.095 171.792 C 167.808 171.940,168.495 172.230,168.623 172.436 C 168.750 172.643,169.573 173.178,170.452 173.627 C 172.292 174.565,178.196 180.326,178.589 181.567 C 178.735 182.025,179.000 182.400,179.178 182.400 C 179.357 182.400,179.727 182.940,180.000 183.600 C 180.273 184.260,180.617 184.800,180.764 184.800 C 181.056 184.800,184.000 189.049,184.000 189.471 C 184.000 189.615,184.274 190.018,184.609 190.366 C 185.792 191.597,187.571 194.080,187.811 194.835 C 187.945 195.256,188.226 195.600,188.437 195.600 C 188.647 195.600,188.988 196.043,189.194 196.584 C 189.400 197.125,189.857 197.890,190.209 198.284 C 191.638 199.879,193.200 202.140,193.200 202.612 C 193.200 202.888,193.473 203.219,193.806 203.347 C 194.139 203.475,194.594 203.989,194.816 204.490 C 195.288 205.553,196.910 207.923,197.789 208.834 C 198.125 209.182,198.407 209.632,198.416 209.834 C 198.425 210.035,198.965 210.823,199.616 211.585 C 200.267 212.347,200.800 213.202,200.800 213.485 C 200.800 213.768,200.963 214.000,201.163 214.000 C 201.363 214.000,201.858 214.521,202.263 215.157 C 203.407 216.954,206.650 221.627,207.983 223.400 C 208.645 224.280,209.411 225.450,209.685 226.000 C 209.959 226.550,210.336 227.109,210.523 227.243 C 210.709 227.376,211.163 227.937,211.531 228.489 C 211.899 229.041,212.740 230.265,213.400 231.210 C 214.060 232.155,214.870 233.320,215.200 233.800 C 216.166 235.205,217.926 237.702,218.899 239.047 C 219.394 239.733,220.700 241.602,221.800 243.200 C 222.900 244.798,224.160 246.601,224.600 247.206 C 225.040 247.811,226.110 249.363,226.977 250.653 C 227.844 251.944,228.802 253.270,229.106 253.600 C 229.409 253.930,230.049 254.818,230.529 255.574 C 231.008 256.330,231.670 257.338,232.000 257.814 C 232.330 258.291,232.956 259.203,233.391 259.840 C 233.826 260.478,234.288 261.090,234.417 261.200 C 234.547 261.310,235.361 262.479,236.226 263.797 C 237.092 265.115,238.070 266.482,238.400 266.834 C 238.730 267.187,239.360 268.079,239.800 268.818 C 240.240 269.557,240.809 270.509,241.064 270.935 C 241.319 271.360,241.681 271.819,241.869 271.954 C 242.057 272.089,242.922 273.280,243.792 274.600 C 244.662 275.920,245.560 277.180,245.787 277.400 C 246.446 278.038,248.643 281.333,248.921 282.100 C 249.061 282.485,249.348 282.800,249.560 282.800 C 249.773 282.800,250.054 283.140,250.186 283.555 C 250.318 283.971,250.825 284.765,251.313 285.320 C 251.801 285.875,252.650 287.091,253.200 288.021 C 253.750 288.952,254.441 289.961,254.736 290.264 C 255.491 291.040,258.000 294.724,258.000 295.057 C 258.000 295.209,258.274 295.618,258.609 295.966 C 259.792 297.197,261.571 299.680,261.811 300.435 C 261.945 300.856,262.226 301.200,262.437 301.200 C 262.647 301.200,263.000 301.605,263.220 302.100 C 263.642 303.049,265.212 305.387,266.108 306.400 C 266.400 306.730,266.944 307.488,267.318 308.084 C 269.236 311.145,277.053 318.000,278.624 318.000 C 278.824 318.000,279.891 318.427,280.994 318.949 C 286.098 321.364,296.912 321.479,301.800 319.170 C 302.680 318.754,304.030 318.138,304.800 317.800 C 305.570 317.462,306.738 316.874,307.395 316.493 C 309.301 315.388,315.440 309.081,316.354 307.290 C 316.813 306.390,317.351 305.554,317.549 305.432 C 317.747 305.309,318.027 304.583,318.170 303.817 C 318.314 303.052,318.695 302.162,319.018 301.839 C 320.458 300.399,320.520 297.606,320.694 226.000 C 320.880 149.739,320.792 145.532,318.946 142.059 C 318.425 141.081,318.000 139.958,318.000 139.564 C 318.000 139.170,317.817 138.734,317.594 138.596 C 317.371 138.459,316.812 137.607,316.351 136.704 C 315.367 134.774,308.997 128.243,307.697 127.831 C 307.203 127.674,306.800 127.392,306.800 127.204 C 306.800 127.016,306.125 126.645,305.300 126.380 C 304.475 126.116,303.515 125.651,303.167 125.348 C 302.819 125.045,301.514 124.609,300.268 124.379 C 299.021 124.148,297.377 123.699,296.613 123.380 C 295.526 122.926,293.050 122.800,285.187 122.800 C 273.633 122.800,272.015 122.398,274.300 120.095 C 274.685 119.706,275.225 118.941,275.500 118.395 C 275.774 117.848,276.629 116.590,277.398 115.600 C 278.167 114.610,278.981 113.440,279.207 113.000 C 279.433 112.560,280.108 111.546,280.709 110.747 C 281.730 109.388,284.289 105.758,286.179 102.987 C 286.634 102.319,287.233 101.509,287.510 101.187 C 288.422 100.125,289.972 97.816,290.368 96.932 C 290.581 96.455,290.991 95.915,291.278 95.732 C 293.902 94.060,294.838 87.388,292.914 84.071 C 291.864 82.261,289.920 80.000,289.415 80.000 C 289.279 80.000,288.620 79.595,287.950 79.100 C 286.193 77.801,280.670 77.815,279.007 79.123 C 278.394 79.605,277.719 80.000,277.507 80.000 C 276.929 80.000,275.065 82.116,273.364 84.702 C 272.533 85.966,271.690 87.111,271.490 87.246 C 271.291 87.381,270.919 87.846,270.664 88.278 C 269.686 89.936,268.426 91.824,267.924 92.385 C 267.636 92.706,266.723 93.966,265.896 95.185 C 265.069 96.403,263.899 98.104,263.296 98.964 C 261.273 101.850,261.004 102.247,260.129 103.626 C 259.649 104.382,259.009 105.270,258.706 105.600 C 258.402 105.930,257.444 107.256,256.577 108.547 C 255.710 109.837,254.640 111.389,254.200 111.994 C 253.363 113.145,250.035 117.960,248.515 120.219 C 246.632 123.017,250.691 122.800,200.137 122.800 C 171.879 122.800,154.066 122.653,153.441 122.416 C 152.553 122.078,151.243 120.477,149.736 117.889 C 149.481 117.451,149.109 116.981,148.910 116.846 C 148.710 116.711,147.850 115.520,146.997 114.200 C 146.144 112.880,145.206 111.530,144.912 111.200 C 144.022 110.201,142.445 107.856,142.020 106.900 C 141.800 106.405,141.447 106.000,141.237 106.000 C 141.026 106.000,140.746 105.660,140.614 105.245 C 140.482 104.829,139.975 104.035,139.487 103.480 C 138.999 102.925,138.150 101.716,137.600 100.793 C 137.050 99.870,136.240 98.708,135.800 98.210 C 135.360 97.712,134.640 96.705,134.200 95.972 C 133.760 95.239,133.191 94.291,132.936 93.865 C 132.681 93.440,132.319 92.981,132.131 92.846 C 131.943 92.711,131.072 91.520,130.195 90.200 C 129.318 88.880,128.449 87.689,128.264 87.554 C 128.079 87.419,127.719 86.960,127.464 86.535 C 127.209 86.109,126.640 85.157,126.200 84.418 C 123.477 79.845,118.240 77.272,113.671 78.262 M147.764 239.207 C 145.358 239.533,143.107 240.645,141.358 242.370 C 140.895 242.826,140.310 243.200,140.058 243.200 C 139.806 243.200,139.600 243.448,139.600 243.751 C 139.600 244.054,139.306 244.546,138.946 244.845 C 138.586 245.144,137.821 246.095,137.246 246.958 C 136.052 248.750,135.448 249.632,133.906 251.836 C 133.304 252.696,131.997 254.570,131.000 256.000 C 130.003 257.430,128.696 259.304,128.094 260.164 C 126.885 261.892,126.189 262.905,125.017 264.640 C 124.587 265.278,123.823 266.340,123.321 267.000 C 122.818 267.660,122.134 268.560,121.799 269.000 C 121.465 269.440,120.469 270.925,119.585 272.300 C 118.701 273.675,117.803 274.800,117.589 274.800 C 117.375 274.800,117.200 275.056,117.200 275.369 C 117.200 275.682,116.781 276.447,116.268 277.069 C 115.756 277.691,115.212 278.470,115.061 278.800 C 114.910 279.130,114.243 280.120,113.579 281.000 C 112.204 282.823,110.391 285.401,109.800 286.372 C 109.580 286.733,109.164 287.293,108.875 287.615 C 108.382 288.165,108.045 288.660,105.958 291.900 C 105.498 292.615,104.959 293.200,104.760 293.200 C 104.562 293.200,104.400 293.445,104.400 293.745 C 104.400 294.045,103.866 294.990,103.214 295.845 C 102.561 296.700,101.753 297.760,101.419 298.200 C 98.163 302.477,96.754 307.050,97.735 310.159 C 98.101 311.320,98.400 312.525,98.400 312.836 C 98.400 313.797,100.960 317.064,102.827 318.486 C 106.433 321.233,105.844 321.200,151.386 321.200 C 195.706 321.200,196.909 321.140,199.383 318.816 C 199.861 318.367,200.465 318.000,200.726 318.000 C 200.987 318.000,201.200 317.819,201.200 317.597 C 201.200 317.376,201.635 316.816,202.168 316.353 C 202.700 315.891,203.254 315.037,203.399 314.456 C 203.544 313.875,203.963 313.066,204.331 312.658 C 205.452 311.415,205.287 304.545,204.100 303.036 C 203.605 302.407,203.200 301.748,203.200 301.571 C 203.200 301.395,202.390 300.067,201.400 298.621 C 200.410 297.175,199.600 295.823,199.600 295.616 C 199.600 295.409,199.329 295.088,198.998 294.903 C 198.666 294.717,197.778 293.583,197.023 292.383 C 196.268 291.182,195.372 289.840,195.031 289.400 C 194.691 288.960,193.870 287.900,193.206 287.045 C 192.543 286.190,192.000 285.239,192.000 284.932 C 192.000 284.626,191.746 284.278,191.437 284.159 C 191.127 284.040,190.655 283.415,190.388 282.771 C 190.121 282.127,189.749 281.600,189.562 281.600 C 189.374 281.600,188.936 281.050,188.589 280.379 C 188.242 279.707,187.607 278.807,187.179 278.379 C 186.750 277.950,186.400 277.345,186.400 277.033 C 186.400 276.722,186.231 276.407,186.024 276.333 C 185.505 276.149,183.733 273.672,182.998 272.100 C 182.663 271.385,182.207 270.800,181.985 270.800 C 181.762 270.800,181.400 270.395,181.180 269.900 C 180.709 268.841,179.490 267.083,176.676 263.400 C 176.171 262.740,175.096 261.210,174.286 260.000 C 173.476 258.790,172.274 257.080,171.615 256.200 C 170.956 255.320,170.240 254.202,170.025 253.716 C 169.809 253.230,169.343 252.510,168.991 252.116 C 167.623 250.588,166.000 248.269,166.000 247.841 C 166.000 247.594,165.640 247.168,165.200 246.893 C 164.760 246.618,164.400 246.191,164.400 245.945 C 164.400 245.258,160.753 241.621,159.400 240.959 C 158.740 240.636,157.750 240.127,157.200 239.828 C 155.896 239.121,150.853 238.789,147.764 239.207 " stroke="none" fill="#fafbfc" fill-rule="evenodd"></path><path id="path1" d="M67.533 0.358 C 67.460 0.555,66.050 0.821,64.400 0.950 C 60.603 1.246,60.402 1.280,60.591 1.586 C 61.036 2.305,59.909 2.761,57.491 2.839 C 54.960 2.921,54.800 2.982,54.800 3.863 C 54.800 4.756,54.670 4.800,52.000 4.800 C 49.529 4.800,49.200 4.888,49.200 5.550 C 49.200 6.256,47.534 6.986,46.092 6.912 C 45.813 6.898,45.633 7.182,45.692 7.543 C 45.771 8.021,45.443 8.234,44.492 8.326 C 43.773 8.395,43.277 8.601,43.390 8.784 C 43.503 8.967,43.317 9.223,42.977 9.354 C 42.562 9.513,42.451 9.427,42.638 9.095 C 42.792 8.823,42.524 9.005,42.043 9.500 C 41.562 9.995,40.906 10.400,40.584 10.400 C 40.263 10.400,40.000 10.760,40.000 11.200 C 40.000 11.857,39.731 12.001,38.500 12.006 C 37.035 12.012,35.897 12.433,35.966 12.945 C 36.077 13.778,35.916 14.000,35.200 14.000 C 34.683 14.000,34.400 14.267,34.400 14.755 C 34.400 15.452,33.615 15.788,31.318 16.073 C 31.052 16.106,30.905 16.247,30.991 16.386 C 31.288 16.866,30.525 17.640,29.692 17.703 C 29.232 17.738,28.864 17.864,28.875 17.983 C 28.983 19.171,28.698 19.600,27.800 19.600 C 27.067 19.600,26.800 19.813,26.800 20.400 C 26.800 20.933,26.533 21.200,26.000 21.200 C 25.413 21.200,25.200 21.467,25.200 22.200 C 25.200 23.000,25.000 23.200,24.200 23.200 C 23.400 23.200,23.200 23.400,23.200 24.200 C 23.200 24.948,22.989 25.200,22.363 25.200 C 21.862 25.200,21.441 25.521,21.316 26.000 C 21.200 26.443,20.770 26.800,20.353 26.800 C 19.816 26.800,19.600 27.087,19.600 27.800 C 19.600 28.575,19.394 28.800,18.685 28.800 C 18.034 28.800,17.751 29.049,17.705 29.664 C 17.641 30.520,16.873 31.292,16.386 30.991 C 16.247 30.905,16.106 31.052,16.073 31.318 C 15.788 33.615,15.452 34.400,14.755 34.400 C 14.276 34.400,14.000 34.682,14.000 35.172 C 14.000 35.668,13.678 35.990,13.100 36.072 C 12.415 36.169,12.171 36.504,12.077 37.470 C 12.009 38.169,11.649 38.979,11.277 39.270 C 10.668 39.746,10.656 39.729,11.149 39.100 C 11.483 38.674,11.529 38.400,11.268 38.400 C 10.826 38.400,9.904 41.121,10.189 41.582 C 10.277 41.724,9.981 42.069,9.532 42.349 C 8.913 42.736,8.790 42.740,9.020 42.368 C 9.217 42.049,9.158 41.979,8.851 42.168 C 8.591 42.329,8.405 42.672,8.437 42.930 C 8.630 44.495,8.321 45.445,7.500 45.805 C 6.846 46.092,6.567 46.598,6.478 47.659 C 6.391 48.707,6.137 49.175,5.578 49.322 C 4.908 49.497,4.800 49.886,4.800 52.135 C 4.800 54.536,4.728 54.755,3.900 54.872 C 3.082 54.988,2.989 55.247,2.882 57.700 C 2.780 60.016,2.658 60.400,2.025 60.400 C 1.109 60.400,0.951 60.828,0.842 63.600 C 0.795 64.810,0.586 65.860,0.378 65.933 C -0.132 66.113,-0.137 333.885,0.373 334.067 C 0.578 334.140,0.803 335.370,0.873 336.800 C 0.987 339.130,1.092 339.413,1.882 339.526 C 2.677 339.639,2.776 339.915,2.882 342.326 C 2.989 344.753,3.083 345.012,3.900 345.128 C 4.734 345.246,4.800 345.458,4.800 348.028 C 4.800 350.533,4.877 350.800,5.600 350.800 C 6.195 350.800,6.412 351.082,6.446 351.900 C 6.536 354.034,6.608 354.201,7.500 354.328 C 8.325 354.445,8.719 355.825,8.455 357.676 C 8.434 357.827,8.772 358.064,9.207 358.202 C 10.001 358.454,10.671 360.078,10.445 361.200 C 10.378 361.530,10.452 361.674,10.610 361.519 C 10.994 361.141,12.000 362.187,12.000 362.964 C 12.000 363.305,12.450 363.698,13.000 363.836 C 13.765 364.028,14.000 364.346,14.000 365.194 C 14.000 365.804,14.315 366.540,14.700 366.832 C 15.296 367.282,15.325 367.278,14.900 366.801 C 14.625 366.492,14.400 366.062,14.400 365.844 C 14.400 365.146,15.574 366.972,15.587 367.691 C 15.594 368.071,16.050 368.676,16.600 369.037 C 17.150 369.397,17.600 370.031,17.600 370.446 C 17.600 370.984,17.887 371.200,18.600 371.200 C 19.348 371.200,19.600 371.411,19.600 372.037 C 19.600 372.525,19.919 372.958,20.363 373.074 C 20.783 373.184,21.216 373.617,21.326 374.037 C 21.442 374.481,21.875 374.800,22.363 374.800 C 22.989 374.800,23.200 375.052,23.200 375.800 C 23.200 376.600,23.400 376.800,24.200 376.800 C 24.948 376.800,25.200 377.011,25.200 377.637 C 25.200 378.125,25.519 378.558,25.963 378.674 C 26.383 378.784,26.816 379.217,26.926 379.637 C 27.042 380.081,27.475 380.400,27.963 380.400 C 28.589 380.400,28.800 380.652,28.800 381.400 C 28.800 382.113,29.016 382.400,29.554 382.400 C 29.969 382.400,30.603 382.850,30.963 383.400 C 31.324 383.950,31.929 384.406,32.309 384.413 C 33.028 384.426,34.854 385.600,34.156 385.600 C 33.938 385.600,33.508 385.375,33.199 385.100 C 32.722 384.675,32.718 384.704,33.168 385.300 C 33.460 385.685,34.196 386.000,34.806 386.000 C 35.654 386.000,35.972 386.235,36.164 387.000 C 36.302 387.550,36.695 388.000,37.036 388.000 C 37.813 388.000,38.859 389.006,38.481 389.390 C 38.326 389.548,38.470 389.622,38.800 389.555 C 39.922 389.329,41.546 389.999,41.798 390.793 C 41.936 391.228,42.173 391.566,42.324 391.545 C 44.175 391.281,45.555 391.675,45.672 392.500 C 45.799 393.392,45.966 393.464,48.100 393.554 C 48.918 393.588,49.200 393.805,49.200 394.400 C 49.200 395.123,49.467 395.200,51.972 395.200 C 54.542 395.200,54.754 395.266,54.872 396.100 C 54.988 396.917,55.247 397.011,57.674 397.118 C 60.085 397.224,60.361 397.323,60.474 398.118 C 60.587 398.908,60.870 399.013,63.200 399.127 C 64.630 399.197,65.860 399.422,65.933 399.627 C 66.115 400.137,333.887 400.132,334.067 399.622 C 334.140 399.414,335.190 399.205,336.400 399.158 C 339.172 399.049,339.600 398.891,339.600 397.975 C 339.600 397.342,339.984 397.220,342.300 397.118 C 344.753 397.011,345.012 396.918,345.128 396.100 C 345.245 395.272,345.464 395.200,347.865 395.200 C 350.114 395.200,350.503 395.092,350.678 394.422 C 350.825 393.863,351.293 393.609,352.341 393.522 C 353.402 393.433,353.908 393.154,354.195 392.500 C 354.555 391.679,355.505 391.370,357.070 391.563 C 357.328 391.595,357.671 391.409,357.832 391.149 C 358.021 390.842,357.951 390.783,357.632 390.980 C 357.260 391.210,357.264 391.087,357.651 390.468 C 357.931 390.019,358.276 389.723,358.418 389.811 C 358.879 390.096,361.600 389.174,361.600 388.732 C 361.600 388.471,361.326 388.517,360.900 388.851 C 360.271 389.344,360.254 389.332,360.730 388.723 C 361.021 388.351,361.831 387.991,362.530 387.923 C 363.496 387.829,363.831 387.585,363.928 386.900 C 364.010 386.322,364.332 386.000,364.828 386.000 C 365.318 386.000,365.600 385.724,365.600 385.245 C 365.600 384.548,366.385 384.212,368.682 383.927 C 368.948 383.894,369.095 383.753,369.009 383.614 C 368.708 383.127,369.480 382.359,370.336 382.295 C 370.951 382.249,371.200 381.966,371.200 381.315 C 371.200 380.606,371.425 380.400,372.200 380.400 C 372.913 380.400,373.200 380.184,373.200 379.647 C 373.200 379.230,373.557 378.800,374.000 378.684 C 374.479 378.559,374.800 378.138,374.800 377.637 C 374.800 377.011,375.052 376.800,375.800 376.800 C 376.600 376.800,376.800 376.600,376.800 375.800 C 376.800 375.000,377.000 374.800,377.800 374.800 C 378.533 374.800,378.800 374.587,378.800 374.000 C 378.800 373.467,379.067 373.200,379.600 373.200 C 380.187 373.200,380.400 372.933,380.400 372.200 C 380.400 371.302,380.829 371.017,382.017 371.125 C 382.136 371.136,382.262 370.768,382.297 370.308 C 382.360 369.475,383.134 368.712,383.614 369.009 C 383.753 369.095,383.894 368.948,383.927 368.682 C 384.212 366.385,384.548 365.600,385.245 365.600 C 385.733 365.600,386.000 365.317,386.000 364.800 C 386.000 364.084,386.222 363.923,387.055 364.034 C 387.567 364.103,387.988 362.965,387.994 361.500 C 387.999 360.269,388.143 360.000,388.800 360.000 C 389.240 360.000,389.600 359.737,389.600 359.416 C 389.600 359.094,390.005 358.438,390.500 357.957 C 390.995 357.476,391.177 357.208,390.905 357.362 C 390.573 357.549,390.487 357.438,390.646 357.023 C 390.777 356.683,391.033 356.497,391.216 356.610 C 391.399 356.723,391.605 356.227,391.674 355.508 C 391.766 354.557,391.979 354.229,392.457 354.308 C 392.818 354.367,393.102 354.187,393.088 353.908 C 393.014 352.466,393.744 350.800,394.450 350.800 C 395.112 350.800,395.200 350.471,395.200 348.000 C 395.200 345.330,395.244 345.200,396.137 345.200 C 397.018 345.200,397.079 345.040,397.161 342.509 C 397.239 340.091,397.695 338.964,398.414 339.409 C 398.720 339.598,398.754 339.397,399.050 335.600 C 399.179 333.950,399.445 332.540,399.642 332.467 C 400.131 332.285,400.118 67.709,399.629 67.533 C 399.426 67.460,399.219 66.230,399.170 64.800 C 399.122 63.370,398.944 62.020,398.775 61.800 C 398.606 61.580,398.453 61.220,398.434 61.000 C 398.415 60.780,398.235 60.600,398.033 60.600 C 397.367 60.600,397.249 60.207,397.158 57.682 C 397.077 55.432,396.975 55.159,396.134 54.948 C 395.278 54.733,394.771 51.918,395.153 49.500 C 395.179 49.335,395.065 49.221,394.900 49.247 C 393.984 49.392,393.677 49.044,393.446 47.600 C 393.306 46.720,393.002 46.000,392.772 46.000 C 392.541 46.000,392.481 46.208,392.638 46.462 C 392.816 46.750,392.748 46.815,392.455 46.634 C 392.198 46.475,392.091 46.177,392.217 45.972 C 392.344 45.768,392.257 45.600,392.024 45.600 C 391.791 45.600,391.600 45.163,391.600 44.628 C 391.600 43.926,391.351 43.620,390.706 43.528 C 390.138 43.447,389.799 43.108,389.775 42.600 C 389.662 40.214,389.582 40.000,388.800 40.000 C 388.143 40.000,387.999 39.731,387.994 38.500 C 387.988 37.035,387.567 35.897,387.055 35.966 C 386.222 36.077,386.000 35.916,386.000 35.200 C 386.000 34.667,385.733 34.400,385.200 34.400 C 384.610 34.400,384.400 34.133,384.400 33.382 C 384.400 32.800,383.929 31.900,383.300 31.282 C 382.695 30.687,382.200 29.930,382.199 29.600 C 382.199 29.270,381.974 28.978,381.699 28.950 C 381.425 28.923,381.020 28.877,380.800 28.850 C 380.580 28.823,380.400 28.350,380.400 27.800 C 380.400 27.250,380.265 26.821,380.100 26.847 C 379.216 26.987,378.800 26.716,378.800 26.000 C 378.800 25.413,378.533 25.200,377.800 25.200 C 377.000 25.200,376.800 25.000,376.800 24.200 C 376.800 23.400,376.600 23.200,375.800 23.200 C 375.000 23.200,374.800 23.000,374.800 22.200 C 374.800 21.467,374.587 21.200,374.000 21.200 C 373.284 21.200,373.013 20.784,373.153 19.900 C 373.179 19.735,372.750 19.600,372.200 19.600 C 371.650 19.600,371.178 19.420,371.150 19.200 C 371.123 18.980,371.078 18.575,371.050 18.301 C 371.023 18.026,370.730 17.801,370.400 17.801 C 370.070 17.800,369.313 17.305,368.718 16.700 C 368.100 16.071,367.200 15.600,366.618 15.600 C 365.867 15.600,365.600 15.390,365.600 14.800 C 365.600 14.267,365.333 14.000,364.800 14.000 C 364.084 14.000,363.923 13.778,364.034 12.945 C 364.103 12.433,362.965 12.012,361.500 12.006 C 360.269 12.001,360.000 11.857,360.000 11.200 C 360.000 10.418,359.786 10.338,357.400 10.225 C 356.892 10.201,356.553 9.862,356.472 9.294 C 356.380 8.649,356.074 8.400,355.372 8.400 C 354.837 8.400,354.400 8.209,354.400 7.976 C 354.400 7.743,354.232 7.656,354.028 7.783 C 353.823 7.909,353.525 7.802,353.366 7.545 C 353.185 7.252,353.250 7.184,353.538 7.362 C 353.792 7.519,354.000 7.459,354.000 7.228 C 354.000 6.998,353.280 6.694,352.400 6.554 C 350.956 6.323,350.608 6.016,350.753 5.100 C 350.779 4.935,350.665 4.821,350.500 4.847 C 348.082 5.229,345.267 4.722,345.052 3.866 C 344.841 3.025,344.568 2.923,342.318 2.842 C 339.716 2.748,339.400 2.642,339.400 1.867 C 339.400 1.610,339.220 1.397,339.000 1.394 C 338.780 1.391,338.420 1.282,338.200 1.153 C 337.980 1.023,336.630 0.878,335.200 0.829 C 333.770 0.781,332.540 0.574,332.467 0.371 C 332.291 -0.118,67.715 -0.131,67.533 0.358 M119.355 77.190 C 120.650 77.402,122.000 77.844,122.355 78.171 C 122.710 78.497,123.695 79.387,124.545 80.147 C 125.395 80.906,126.295 81.878,126.545 82.307 C 126.795 82.735,127.540 83.858,128.200 84.803 C 128.860 85.747,129.580 86.792,129.800 87.126 C 130.020 87.459,131.050 88.917,132.089 90.366 C 133.127 91.815,134.387 93.590,134.889 94.310 C 135.390 95.031,136.205 96.111,136.700 96.710 C 137.194 97.310,137.599 97.954,137.600 98.142 C 137.600 98.330,138.058 99.050,138.617 99.742 C 140.594 102.188,141.089 102.892,143.000 105.983 C 143.220 106.338,143.636 106.893,143.924 107.215 C 144.212 107.537,144.842 108.418,145.324 109.174 C 145.806 109.930,146.470 110.938,146.800 111.414 C 147.130 111.891,147.760 112.800,148.200 113.434 C 148.640 114.068,149.270 114.877,149.600 115.231 C 149.930 115.585,150.510 116.398,150.889 117.037 C 151.971 118.866,152.531 119.636,153.518 120.653 L 154.436 121.600 199.849 121.600 L 245.262 121.600 246.431 120.431 C 247.074 119.788,247.600 119.068,247.600 118.831 C 247.600 118.594,247.950 118.050,248.379 117.621 C 248.807 117.193,249.442 116.293,249.789 115.621 C 250.136 114.950,250.575 114.400,250.764 114.400 C 250.952 114.400,251.217 114.085,251.352 113.700 C 251.617 112.946,253.174 110.620,254.144 109.530 C 254.471 109.162,254.959 108.442,255.228 107.930 C 255.497 107.419,255.961 106.856,256.258 106.680 C 256.556 106.504,256.800 106.174,256.800 105.946 C 256.800 105.520,259.153 101.983,259.711 101.570 C 259.882 101.443,260.630 100.363,261.374 99.170 C 262.119 97.976,263.059 96.643,263.464 96.207 C 263.869 95.771,264.380 95.127,264.600 94.775 C 265.995 92.545,266.818 91.327,267.276 90.815 C 267.564 90.493,267.980 89.938,268.200 89.583 C 270.111 86.492,270.606 85.788,272.583 83.342 C 273.142 82.650,273.600 81.962,273.600 81.811 C 273.600 81.376,275.658 79.495,277.400 78.336 C 280.083 76.552,287.706 76.452,289.554 78.176 C 289.909 78.508,290.875 79.343,291.700 80.031 C 292.525 80.720,293.200 81.494,293.200 81.753 C 293.200 82.011,293.540 82.513,293.956 82.869 C 295.534 84.221,295.540 92.860,293.964 94.436 C 293.544 94.856,293.200 95.365,293.200 95.566 C 293.200 95.767,292.840 96.352,292.401 96.866 C 291.178 98.296,289.665 100.499,289.220 101.500 C 289.000 101.995,288.638 102.400,288.415 102.400 C 288.193 102.400,287.737 102.985,287.402 103.700 C 286.667 105.272,284.895 107.749,284.376 107.933 C 284.169 108.007,284.000 108.297,284.000 108.578 C 284.000 109.059,282.448 111.309,281.009 112.916 C 280.657 113.310,280.200 114.075,279.994 114.616 C 279.788 115.157,279.447 115.600,279.237 115.600 C 279.026 115.600,278.745 115.944,278.611 116.365 C 278.382 117.086,276.768 119.392,275.460 120.865 C 274.912 121.482,275.712 121.541,286.735 121.695 C 298.000 121.853,298.711 121.908,300.800 122.779 C 304.558 124.346,307.958 126.068,308.438 126.646 C 308.691 126.951,309.127 127.200,309.406 127.200 C 310.189 127.200,316.446 133.613,317.033 135.018 C 317.320 135.703,317.817 136.482,318.138 136.748 C 318.459 137.015,318.843 137.720,318.992 138.316 C 319.141 138.912,319.519 139.685,319.832 140.033 C 320.146 140.381,320.590 141.681,320.820 142.922 C 321.049 144.164,321.497 145.679,321.816 146.290 C 322.689 147.964,322.689 296.036,321.816 297.710 C 321.497 298.321,321.049 299.836,320.820 301.078 C 320.590 302.319,320.155 303.619,319.852 303.967 C 319.549 304.315,319.084 305.275,318.820 306.100 C 318.555 306.925,318.167 307.600,317.959 307.600 C 317.751 307.600,317.423 308.015,317.230 308.521 C 316.366 310.792,309.941 317.200,308.527 317.200 C 308.253 317.200,307.843 317.545,307.617 317.967 C 307.391 318.390,306.620 318.863,305.903 319.020 C 305.186 319.176,304.171 319.641,303.646 320.052 C 303.121 320.463,302.257 320.800,301.724 320.800 C 301.192 320.800,299.911 321.192,298.878 321.671 C 296.098 322.961,287.102 322.961,284.322 321.671 C 283.289 321.192,282.008 320.800,281.476 320.800 C 280.943 320.800,280.079 320.463,279.554 320.052 C 279.029 319.641,278.014 319.176,277.297 319.020 C 276.580 318.863,275.820 318.410,275.607 318.013 C 275.395 317.617,274.781 317.182,274.244 317.047 C 272.987 316.731,266.479 310.253,266.166 309.006 C 266.035 308.485,265.671 307.959,265.358 307.839 C 265.044 307.719,264.610 307.211,264.392 306.710 C 264.175 306.210,263.368 304.990,262.600 304.000 C 261.832 303.010,261.034 301.812,260.826 301.339 C 260.619 300.865,260.257 300.359,260.022 300.214 C 259.787 300.068,258.790 298.746,257.807 297.275 C 256.824 295.804,255.479 293.880,254.818 293.000 C 254.158 292.120,253.433 291.040,253.207 290.600 C 252.981 290.160,252.167 288.990,251.398 288.000 C 250.629 287.010,249.777 285.750,249.506 285.200 C 249.234 284.650,248.695 283.965,248.306 283.677 C 247.918 283.390,247.600 282.935,247.600 282.666 C 247.600 282.398,247.285 281.894,246.900 281.548 C 246.515 281.201,245.840 280.312,245.400 279.573 C 244.960 278.833,244.330 277.845,244.000 277.378 C 243.670 276.910,242.906 275.824,242.301 274.964 C 241.697 274.104,240.797 272.840,240.301 272.156 C 239.806 271.472,239.041 270.392,238.603 269.756 C 238.165 269.120,237.490 268.251,237.103 267.825 C 236.716 267.398,236.400 266.841,236.400 266.587 C 236.400 266.332,236.040 265.798,235.600 265.400 C 235.160 265.002,234.800 264.500,234.800 264.284 C 234.800 264.068,234.395 263.493,233.900 263.007 C 233.405 262.520,232.392 261.104,231.649 259.861 C 230.906 258.617,230.163 257.600,229.997 257.600 C 229.832 257.600,229.473 257.060,229.200 256.400 C 228.927 255.740,228.565 255.200,228.397 255.200 C 228.229 255.200,227.792 254.570,227.427 253.800 C 227.061 253.030,226.613 252.400,226.430 252.400 C 226.247 252.400,225.873 251.860,225.600 251.200 C 225.327 250.540,224.948 250.000,224.760 250.000 C 224.571 250.000,224.049 249.280,223.600 248.400 C 223.151 247.520,222.620 246.800,222.419 246.800 C 222.218 246.800,221.934 246.422,221.787 245.961 C 221.641 245.499,221.257 244.824,220.934 244.461 C 220.031 243.443,218.465 241.101,218.020 240.100 C 217.800 239.605,217.431 239.200,217.200 239.200 C 216.969 239.200,216.600 238.795,216.380 238.300 C 216.008 237.464,214.840 235.710,213.383 233.800 C 213.047 233.360,212.239 232.300,211.586 231.445 C 210.934 230.590,210.400 229.654,210.400 229.365 C 210.400 229.076,210.171 228.696,209.890 228.520 C 209.610 228.344,209.076 227.750,208.703 227.200 C 208.330 226.650,207.483 225.480,206.821 224.600 C 206.159 223.720,205.440 222.602,205.225 222.116 C 205.009 221.630,204.543 220.910,204.191 220.516 C 202.762 218.921,201.200 216.660,201.200 216.188 C 201.200 215.912,200.927 215.581,200.594 215.453 C 200.261 215.325,199.806 214.811,199.584 214.310 C 199.146 213.324,197.554 210.965,196.676 210.000 C 196.376 209.670,196.011 209.130,195.865 208.800 C 195.719 208.470,194.965 207.390,194.188 206.400 C 193.411 205.410,192.561 204.105,192.300 203.500 C 192.038 202.895,191.686 202.400,191.517 202.400 C 191.230 202.400,189.613 200.158,188.518 198.243 C 188.253 197.779,187.752 197.040,187.405 196.600 C 185.194 193.802,184.400 192.625,184.400 192.145 C 184.400 191.845,184.238 191.600,184.040 191.600 C 183.841 191.600,183.311 191.015,182.862 190.300 C 182.412 189.585,181.497 188.280,180.829 187.400 C 180.161 186.520,179.490 185.530,179.339 185.200 C 179.188 184.870,178.689 184.126,178.232 183.547 C 177.774 182.968,176.950 181.899,176.400 181.172 C 174.351 178.463,169.850 174.400,168.898 174.400 C 168.606 174.400,167.880 174.054,167.284 173.632 C 166.688 173.210,165.222 172.665,164.027 172.421 C 162.832 172.177,161.618 171.781,161.330 171.542 C 160.361 170.738,154.053 170.987,151.313 171.937 C 149.945 172.412,148.364 172.800,147.800 172.800 C 147.236 172.800,146.672 173.068,146.546 173.396 C 146.420 173.724,145.616 174.203,144.759 174.460 C 143.901 174.716,143.200 175.054,143.200 175.210 C 143.200 175.366,142.386 176.127,141.392 176.902 C 140.398 177.676,139.052 179.005,138.401 179.855 C 137.751 180.705,136.969 181.670,136.665 182.000 C 136.360 182.330,135.881 183.050,135.600 183.600 C 135.319 184.150,134.845 184.870,134.547 185.200 C 133.487 186.372,132.172 188.216,131.622 189.300 C 131.316 189.905,130.937 190.400,130.781 190.400 C 130.625 190.400,130.273 190.940,130.000 191.600 C 129.727 192.260,129.340 192.800,129.142 192.800 C 128.943 192.800,128.600 193.205,128.380 193.700 C 127.838 194.917,126.008 197.547,123.817 200.258 C 123.258 200.950,122.800 201.670,122.800 201.858 C 122.799 202.046,122.394 202.690,121.900 203.290 C 121.405 203.889,120.590 204.969,120.089 205.690 C 119.587 206.410,118.327 208.185,117.289 209.634 C 116.250 211.083,115.220 212.541,115.000 212.874 C 114.780 213.208,114.060 214.253,113.400 215.197 C 112.740 216.142,112.000 217.256,111.755 217.673 C 111.061 218.858,106.823 222.800,106.244 222.800 C 105.958 222.800,105.415 223.141,105.038 223.558 C 104.660 223.975,103.552 224.436,102.574 224.583 C 101.596 224.730,100.302 225.107,99.698 225.422 C 98.316 226.143,94.527 226.166,93.176 225.461 C 92.613 225.167,91.359 224.800,90.390 224.645 C 87.012 224.105,79.200 217.462,79.200 215.131 C 79.200 214.832,78.795 213.871,78.300 212.994 L 77.400 211.400 77.286 180.882 C 77.219 163.112,77.329 149.327,77.549 147.882 C 78.743 140.040,84.230 131.042,90.066 127.358 C 90.873 126.849,91.640 126.259,91.771 126.047 C 91.902 125.835,92.532 125.547,93.171 125.406 C 93.810 125.266,94.426 124.910,94.539 124.615 C 94.652 124.320,95.662 123.881,96.784 123.641 C 97.905 123.400,99.304 122.888,99.893 122.502 C 100.838 121.883,102.321 121.784,112.497 121.663 L 124.031 121.527 123.759 120.663 C 123.610 120.189,123.143 119.350,122.722 118.800 C 120.145 115.432,119.600 114.654,119.600 114.345 C 119.600 114.155,119.319 113.685,118.975 113.300 C 117.553 111.708,116.000 109.457,116.000 108.988 C 116.000 108.712,115.727 108.381,115.394 108.253 C 115.061 108.125,114.610 107.611,114.392 107.110 C 114.175 106.610,113.367 105.390,112.598 104.400 C 111.829 103.410,110.977 102.150,110.706 101.600 C 110.434 101.050,109.895 100.365,109.506 100.077 C 109.118 99.790,108.800 99.323,108.800 99.039 C 108.800 98.756,108.445 98.202,108.010 97.809 C 107.576 97.416,107.108 96.740,106.971 96.308 C 106.833 95.875,106.398 95.198,106.003 94.803 C 105.608 94.408,105.155 93.301,104.997 92.342 C 104.839 91.384,104.529 90.377,104.309 90.104 C 103.526 89.134,105.116 83.326,106.719 81.303 C 109.756 77.467,113.536 76.237,119.355 77.190 M155.400 237.755 C 156.060 238.107,156.941 238.396,157.359 238.398 C 159.042 238.403,163.385 241.999,166.114 245.646 C 166.506 246.171,167.361 247.300,168.014 248.155 C 168.666 249.010,169.200 249.961,169.200 250.268 C 169.200 250.574,169.484 250.934,169.831 251.067 C 170.177 251.200,170.628 251.690,170.832 252.155 C 171.036 252.620,171.832 253.810,172.600 254.800 C 173.368 255.790,174.170 256.998,174.382 257.484 C 174.595 257.970,175.057 258.690,175.409 259.084 C 176.838 260.679,178.400 262.940,178.400 263.412 C 178.400 263.688,178.673 264.019,179.006 264.147 C 179.339 264.275,179.794 264.789,180.016 265.290 C 180.491 266.358,181.701 268.106,184.524 271.800 C 185.029 272.460,186.104 273.990,186.914 275.200 C 187.724 276.410,188.926 278.120,189.585 279.000 C 190.244 279.880,190.960 280.998,191.175 281.484 C 191.391 281.970,191.857 282.690,192.209 283.084 C 193.638 284.679,195.200 286.940,195.200 287.412 C 195.200 287.688,195.473 288.019,195.806 288.147 C 196.139 288.275,196.590 288.789,196.808 289.290 C 197.025 289.790,197.832 291.010,198.600 292.000 C 199.368 292.990,200.178 294.160,200.400 294.600 C 200.622 295.040,201.435 296.210,202.207 297.200 C 202.979 298.190,203.834 299.450,204.107 300.000 C 204.380 300.550,204.909 301.451,205.284 302.003 C 206.925 304.420,206.558 312.553,204.683 315.316 C 203.451 317.131,199.694 320.800,199.067 320.800 C 198.804 320.800,197.871 321.205,196.994 321.700 L 195.400 322.600 151.200 322.600 L 107.000 322.600 105.553 321.700 C 104.757 321.205,103.839 320.800,103.512 320.800 C 102.623 320.800,98.035 316.081,97.737 314.861 C 97.595 314.278,97.145 313.371,96.739 312.846 C 95.617 311.397,95.660 304.514,96.800 303.200 C 97.240 302.693,97.600 301.945,97.600 301.539 C 97.600 301.132,97.967 300.433,98.416 299.984 C 98.865 299.535,99.409 298.770,99.625 298.284 C 99.840 297.798,100.563 296.680,101.231 295.800 C 101.898 294.920,102.812 293.615,103.262 292.900 C 103.711 292.185,104.241 291.600,104.440 291.600 C 104.638 291.600,104.800 291.355,104.800 291.055 C 104.800 290.755,105.334 289.810,105.986 288.955 C 106.639 288.100,107.447 287.040,107.783 286.600 C 109.246 284.682,110.409 282.934,110.784 282.090 C 111.006 281.589,111.461 281.075,111.794 280.947 C 112.127 280.819,112.400 280.488,112.400 280.212 C 112.400 279.743,113.953 277.492,115.375 275.900 C 115.719 275.515,116.000 275.029,116.000 274.821 C 116.000 274.612,116.450 273.956,117.000 273.362 C 117.550 272.769,118.000 272.154,118.000 271.997 C 118.000 271.689,119.989 269.008,120.991 267.966 C 121.326 267.618,121.600 267.209,121.600 267.057 C 121.600 266.730,124.345 262.691,124.765 262.400 C 124.924 262.290,125.742 261.075,126.584 259.700 C 127.425 258.325,128.246 257.200,128.408 257.200 C 128.570 257.200,128.921 256.673,129.188 256.029 C 129.455 255.385,129.927 254.760,130.237 254.641 C 130.546 254.522,130.800 254.174,130.800 253.868 C 130.800 253.375,131.257 252.703,133.838 249.400 C 134.181 248.960,134.806 248.060,135.226 247.400 C 136.720 245.049,137.023 244.665,138.971 242.656 C 141.299 240.256,143.881 238.426,145.000 238.385 C 145.440 238.369,146.610 238.004,147.600 237.575 C 149.729 236.653,153.496 236.739,155.400 237.755 " stroke="none" fill="#1b7afa" fill-rule="evenodd"></path><path id="path2" d="M112.933 77.173 C 109.474 77.738,105.876 81.305,104.903 85.134 C 103.981 88.763,103.884 89.577,104.309 90.104 C 104.529 90.377,104.839 91.384,104.997 92.342 C 105.155 93.301,105.608 94.408,106.003 94.803 C 106.398 95.198,106.833 95.875,106.971 96.308 C 107.108 96.740,107.576 97.416,108.010 97.809 C 108.445 98.202,108.800 98.756,108.800 99.039 C 108.800 99.323,109.118 99.790,109.506 100.077 C 109.895 100.365,110.434 101.050,110.706 101.600 C 110.977 102.150,111.829 103.410,112.598 104.400 C 113.367 105.390,114.175 106.610,114.392 107.110 C 114.610 107.611,115.061 108.125,115.394 108.253 C 115.727 108.381,116.000 108.712,116.000 108.988 C 116.000 109.457,117.553 111.708,118.975 113.300 C 119.319 113.685,119.600 114.155,119.600 114.345 C 119.600 114.654,120.145 115.432,122.722 118.800 C 123.143 119.350,123.610 120.189,123.759 120.663 L 124.031 121.527 112.497 121.663 C 102.321 121.784,100.838 121.883,99.893 122.502 C 99.304 122.888,97.905 123.400,96.784 123.641 C 95.662 123.881,94.652 124.320,94.539 124.615 C 94.426 124.910,93.810 125.266,93.171 125.406 C 92.532 125.547,91.902 125.835,91.771 126.047 C 91.640 126.259,90.873 126.849,90.066 127.358 C 84.230 131.042,78.743 140.040,77.549 147.882 C 77.329 149.327,77.219 163.112,77.286 180.882 L 77.400 211.400 78.300 212.994 C 78.795 213.871,79.200 214.832,79.200 215.131 C 79.200 217.462,87.012 224.105,90.390 224.645 C 91.359 224.800,92.613 225.167,93.176 225.461 C 94.527 226.166,98.316 226.143,99.698 225.422 C 100.302 225.107,101.596 224.730,102.574 224.583 C 103.552 224.436,104.660 223.975,105.038 223.558 C 105.415 223.141,105.958 222.800,106.244 222.800 C 106.823 222.800,111.061 218.858,111.755 217.673 C 112.000 217.256,112.740 216.142,113.400 215.197 C 114.060 214.253,114.780 213.208,115.000 212.874 C 115.220 212.541,116.250 211.083,117.289 209.634 C 118.327 208.185,119.587 206.410,120.089 205.690 C 120.590 204.969,121.405 203.889,121.900 203.290 C 122.394 202.690,122.799 202.046,122.800 201.858 C 122.800 201.670,123.258 200.950,123.817 200.258 C 126.008 197.547,127.838 194.917,128.380 193.700 C 128.600 193.205,128.943 192.800,129.142 192.800 C 129.340 192.800,129.727 192.260,130.000 191.600 C 130.273 190.940,130.625 190.400,130.781 190.400 C 130.937 190.400,131.316 189.905,131.622 189.300 C 132.172 188.216,133.487 186.372,134.547 185.200 C 134.845 184.870,135.319 184.150,135.600 183.600 C 135.881 183.050,136.360 182.330,136.665 182.000 C 136.969 181.670,137.751 180.705,138.401 179.855 C 139.052 179.005,140.398 177.676,141.392 176.902 C 142.386 176.127,143.200 175.366,143.200 175.210 C 143.200 175.054,143.901 174.716,144.759 174.460 C 145.616 174.203,146.420 173.724,146.546 173.396 C 146.672 173.068,147.236 172.800,147.800 172.800 C 148.364 172.800,149.945 172.412,151.313 171.937 C 154.053 170.987,160.361 170.738,161.330 171.542 C 161.618 171.781,162.832 172.177,164.027 172.421 C 165.222 172.665,166.688 173.210,167.284 173.632 C 167.880 174.054,168.606 174.400,168.898 174.400 C 169.850 174.400,174.351 178.463,176.400 181.172 C 176.950 181.899,177.774 182.968,178.232 183.547 C 178.689 184.126,179.188 184.870,179.339 185.200 C 179.490 185.530,180.161 186.520,180.829 187.400 C 181.497 188.280,182.412 189.585,182.862 190.300 C 183.311 191.015,183.841 191.600,184.040 191.600 C 184.238 191.600,184.400 191.845,184.400 192.145 C 184.400 192.625,185.194 193.802,187.405 196.600 C 187.752 197.040,188.253 197.779,188.518 198.243 C 189.613 200.158,191.230 202.400,191.517 202.400 C 191.686 202.400,192.038 202.895,192.300 203.500 C 192.561 204.105,193.411 205.410,194.188 206.400 C 194.965 207.390,195.719 208.470,195.865 208.800 C 196.011 209.130,196.376 209.670,196.676 210.000 C 197.554 210.965,199.146 213.324,199.584 214.310 C 199.806 214.811,200.261 215.325,200.594 215.453 C 200.927 215.581,201.200 215.912,201.200 216.188 C 201.200 216.660,202.762 218.921,204.191 220.516 C 204.543 220.910,205.009 221.630,205.225 222.116 C 205.440 222.602,206.159 223.720,206.821 224.600 C 207.483 225.480,208.330 226.650,208.703 227.200 C 209.076 227.750,209.610 228.344,209.890 228.520 C 210.171 228.696,210.400 229.076,210.400 229.365 C 210.400 229.654,210.934 230.590,211.586 231.445 C 212.239 232.300,213.047 233.360,213.383 233.800 C 214.840 235.710,216.008 237.464,216.380 238.300 C 216.600 238.795,216.969 239.200,217.200 239.200 C 217.431 239.200,217.800 239.605,218.020 240.100 C 218.465 241.101,220.031 243.443,220.934 244.461 C 221.257 244.824,221.641 245.499,221.787 245.961 C 221.934 246.422,222.218 246.800,222.419 246.800 C 222.620 246.800,223.151 247.520,223.600 248.400 C 224.049 249.280,224.571 250.000,224.760 250.000 C 224.948 250.000,225.327 250.540,225.600 251.200 C 225.873 251.860,226.247 252.400,226.430 252.400 C 226.613 252.400,227.061 253.030,227.427 253.800 C 227.792 254.570,228.229 255.200,228.397 255.200 C 228.565 255.200,228.927 255.740,229.200 256.400 C 229.473 257.060,229.832 257.600,229.997 257.600 C 230.163 257.600,230.906 258.617,231.649 259.861 C 232.392 261.104,233.405 262.520,233.900 263.007 C 234.395 263.493,234.800 264.068,234.800 264.284 C 234.800 264.500,235.160 265.002,235.600 265.400 C 236.040 265.798,236.400 266.332,236.400 266.587 C 236.400 266.841,236.716 267.398,237.103 267.825 C 237.490 268.251,238.165 269.120,238.603 269.756 C 239.041 270.392,239.806 271.472,240.301 272.156 C 240.797 272.840,241.697 274.104,242.301 274.964 C 242.906 275.824,243.670 276.910,244.000 277.378 C 244.330 277.845,244.960 278.833,245.400 279.573 C 245.840 280.312,246.515 281.201,246.900 281.548 C 247.285 281.894,247.600 282.398,247.600 282.666 C 247.600 282.935,247.918 283.390,248.306 283.677 C 248.695 283.965,249.234 284.650,249.506 285.200 C 249.777 285.750,250.629 287.010,251.398 288.000 C 252.167 288.990,252.981 290.160,253.207 290.600 C 253.433 291.040,254.158 292.120,254.818 293.000 C 255.479 293.880,256.824 295.804,257.807 297.275 C 258.790 298.746,259.787 300.068,260.022 300.214 C 260.257 300.359,260.619 300.865,260.826 301.339 C 261.034 301.812,261.832 303.010,262.600 304.000 C 263.368 304.990,264.175 306.210,264.392 306.710 C 264.610 307.211,265.044 307.719,265.358 307.839 C 265.671 307.959,266.035 308.485,266.166 309.006 C 266.479 310.253,272.987 316.731,274.244 317.047 C 274.781 317.182,275.395 317.617,275.607 318.013 C 275.820 318.410,276.580 318.863,277.297 319.020 C 278.014 319.176,279.029 319.641,279.554 320.052 C 280.079 320.463,280.943 320.800,281.476 320.800 C 282.008 320.800,283.289 321.192,284.322 321.671 C 287.102 322.961,296.098 322.961,298.878 321.671 C 299.911 321.192,301.192 320.800,301.724 320.800 C 302.257 320.800,303.121 320.463,303.646 320.052 C 304.171 319.641,305.186 319.176,305.903 319.020 C 306.620 318.863,307.391 318.390,307.617 317.967 C 307.843 317.545,308.253 317.200,308.527 317.200 C 309.941 317.200,316.366 310.792,317.230 308.521 C 317.423 308.015,317.751 307.600,317.959 307.600 C 318.167 307.600,318.555 306.925,318.820 306.100 C 319.084 305.275,319.549 304.315,319.852 303.967 C 320.155 303.619,320.590 302.319,320.820 301.078 C 321.049 299.836,321.497 298.321,321.816 297.710 C 322.689 296.036,322.689 147.964,321.816 146.290 C 321.497 145.679,321.049 144.164,320.820 142.922 C 320.590 141.681,320.146 140.381,319.832 140.033 C 319.519 139.685,319.141 138.912,318.992 138.316 C 318.843 137.720,318.459 137.015,318.138 136.748 C 317.817 136.482,317.320 135.703,317.033 135.018 C 316.446 133.613,310.189 127.200,309.406 127.200 C 309.127 127.200,308.691 126.951,308.438 126.646 C 307.958 126.068,304.558 124.346,300.800 122.779 C 298.711 121.908,298.000 121.853,286.735 121.695 C 275.712 121.541,274.912 121.482,275.460 120.865 C 276.768 119.392,278.382 117.086,278.611 116.365 C 278.745 115.944,279.026 115.600,279.237 115.600 C 279.447 115.600,279.788 115.157,279.994 114.616 C 280.200 114.075,280.657 113.310,281.009 112.916 C 282.448 111.309,284.000 109.059,284.000 108.578 C 284.000 108.297,284.169 108.007,284.376 107.933 C 284.895 107.749,286.667 105.272,287.402 103.700 C 287.737 102.985,288.193 102.400,288.415 102.400 C 288.638 102.400,289.000 101.995,289.220 101.500 C 289.665 100.499,291.178 98.296,292.401 96.866 C 292.840 96.352,293.200 95.767,293.200 95.566 C 293.200 95.365,293.544 94.856,293.964 94.436 C 295.540 92.860,295.534 84.221,293.956 82.869 C 293.540 82.513,293.200 82.011,293.200 81.753 C 293.200 81.494,292.525 80.720,291.700 80.031 C 290.875 79.343,289.909 78.508,289.554 78.176 C 287.706 76.452,280.083 76.552,277.400 78.336 C 275.658 79.495,273.600 81.376,273.600 81.811 C 273.600 81.962,273.142 82.650,272.583 83.342 C 270.606 85.788,270.111 86.492,268.200 89.583 C 267.980 89.938,267.564 90.493,267.276 90.815 C 266.818 91.327,265.995 92.545,264.600 94.775 C 264.380 95.127,263.869 95.771,263.464 96.207 C 263.059 96.643,262.119 97.976,261.374 99.170 C 260.630 100.363,259.882 101.443,259.711 101.570 C 259.153 101.983,256.800 105.520,256.800 105.946 C 256.800 106.174,256.556 106.504,256.258 106.680 C 255.961 106.856,255.497 107.419,255.228 107.930 C 254.959 108.442,254.471 109.162,254.144 109.530 C 253.174 110.620,251.617 112.946,251.352 113.700 C 251.217 114.085,250.952 114.400,250.764 114.400 C 250.575 114.400,250.136 114.950,249.789 115.621 C 249.442 116.293,248.807 117.193,248.379 117.621 C 247.950 118.050,247.600 118.594,247.600 118.831 C 247.600 119.068,247.074 119.788,246.431 120.431 L 245.262 121.600 199.849 121.600 L 154.436 121.600 153.518 120.653 C 152.531 119.636,151.971 118.866,150.889 117.037 C 150.510 116.398,149.930 115.585,149.600 115.231 C 149.270 114.877,148.640 114.068,148.200 113.434 C 147.760 112.800,147.130 111.891,146.800 111.414 C 146.470 110.938,145.806 109.930,145.324 109.174 C 144.842 108.418,144.212 107.537,143.924 107.215 C 143.636 106.893,143.220 106.338,143.000 105.983 C 141.089 102.892,140.594 102.188,138.617 99.742 C 138.058 99.050,137.600 98.330,137.600 98.142 C 137.599 97.954,137.194 97.310,136.700 96.710 C 136.205 96.111,135.390 95.031,134.889 94.310 C 134.387 93.590,133.127 91.815,132.089 90.366 C 131.050 88.917,130.020 87.459,129.800 87.126 C 129.580 86.792,128.860 85.747,128.200 84.803 C 127.540 83.858,126.795 82.735,126.545 82.307 C 126.295 81.878,125.395 80.906,124.545 80.147 C 123.695 79.387,122.710 78.497,122.355 78.171 C 121.181 77.088,116.490 76.591,112.933 77.173 M121.878 78.817 C 122.715 79.318,123.727 80.104,124.126 80.564 C 124.956 81.519,127.904 85.447,128.800 86.791 C 129.130 87.286,129.850 88.283,130.400 89.007 C 130.950 89.731,131.709 90.836,132.087 91.462 C 132.464 92.088,133.951 94.220,135.391 96.200 C 136.830 98.180,138.812 100.970,139.794 102.400 C 140.776 103.830,142.407 106.170,143.419 107.600 C 144.430 109.030,145.692 110.830,146.223 111.600 C 146.754 112.370,148.003 114.170,149.000 115.600 C 149.997 117.030,151.257 118.867,151.800 119.683 C 153.429 122.127,150.772 122.000,200.099 122.000 L 245.850 122.000 246.856 120.900 C 247.409 120.295,248.568 118.744,249.431 117.453 C 250.294 116.163,251.360 114.611,251.800 114.006 C 252.240 113.401,253.450 111.667,254.490 110.153 C 255.529 108.639,257.207 106.230,258.219 104.800 C 259.230 103.370,260.494 101.570,261.028 100.800 C 261.561 100.030,262.448 98.770,263.000 98.000 C 263.552 97.230,264.439 95.970,264.972 95.200 C 265.506 94.430,266.770 92.630,267.781 91.200 C 268.793 89.770,270.458 87.340,271.481 85.800 C 273.862 82.218,277.518 78.621,279.415 77.995 C 286.155 75.771,293.814 80.220,294.572 86.800 C 295.111 91.484,294.696 92.360,286.288 104.287 C 285.236 105.779,283.944 107.630,283.417 108.400 C 282.890 109.170,281.632 110.970,280.622 112.400 C 279.612 113.830,278.128 115.990,277.323 117.200 C 276.518 118.410,275.498 119.807,275.055 120.305 C 273.731 121.795,274.496 121.921,285.800 122.082 C 295.733 122.224,296.825 122.310,299.400 123.152 C 302.126 124.043,307.198 126.275,307.600 126.761 C 307.710 126.894,308.574 127.528,309.520 128.170 C 312.386 130.114,318.400 137.211,318.400 138.647 C 318.400 138.848,318.783 139.726,319.251 140.600 C 321.911 145.563,321.800 142.008,321.800 222.000 C 321.800 301.992,321.911 298.437,319.251 303.400 C 318.783 304.274,318.400 305.158,318.400 305.365 C 318.400 307.833,308.669 317.546,305.138 318.603 C 304.622 318.757,303.822 319.121,303.361 319.411 C 298.299 322.594,285.840 322.489,279.415 319.209 C 278.544 318.764,277.627 318.400,277.377 318.400 C 277.128 318.400,276.598 318.040,276.200 317.600 C 275.802 317.160,275.298 316.800,275.081 316.800 C 274.020 316.800,268.667 311.428,265.893 307.580 C 265.021 306.370,261.212 300.896,259.367 298.200 C 258.614 297.100,256.825 294.580,255.391 292.600 C 253.957 290.620,252.472 288.482,252.092 287.850 C 251.711 287.217,250.768 285.867,249.995 284.850 C 249.222 283.832,247.872 281.923,246.995 280.607 C 245.261 278.005,245.333 278.106,243.595 275.845 C 242.938 274.990,242.400 274.148,242.400 273.974 C 242.400 273.800,242.173 273.419,241.895 273.129 C 241.617 272.838,241.084 272.150,240.710 271.600 C 240.337 271.050,239.125 269.340,238.016 267.800 C 236.908 266.260,235.196 263.830,234.211 262.400 C 233.227 260.970,231.911 259.080,231.287 258.200 C 228.590 254.395,226.650 251.620,224.887 249.047 C 223.849 247.533,222.640 245.802,222.200 245.200 C 221.760 244.598,220.500 242.798,219.400 241.200 C 218.300 239.602,216.994 237.733,216.499 237.047 C 216.003 236.361,215.161 235.170,214.628 234.400 C 214.094 233.630,212.830 231.830,211.819 230.400 C 210.807 228.970,209.129 226.561,208.090 225.047 C 207.050 223.533,205.840 221.802,205.400 221.200 C 204.960 220.598,203.749 218.867,202.710 217.353 C 201.670 215.839,200.278 213.880,199.617 213.000 C 198.955 212.120,198.288 211.139,198.133 210.820 C 197.979 210.501,196.991 209.061,195.938 207.620 C 194.885 206.179,193.613 204.404,193.111 203.676 C 192.610 202.948,191.998 202.129,191.752 201.857 C 191.505 201.584,191.007 200.830,190.644 200.180 C 190.281 199.531,189.389 198.190,188.663 197.200 C 187.937 196.210,186.723 194.500,185.966 193.400 C 185.208 192.300,183.826 190.394,182.894 189.164 C 181.962 187.934,181.200 186.797,181.200 186.637 C 181.200 186.477,180.435 185.380,179.500 184.198 C 177.947 182.236,176.341 180.049,175.666 178.977 C 175.130 178.124,169.973 174.000,169.444 174.000 C 169.143 174.000,168.684 173.742,168.423 173.427 C 167.301 172.076,161.210 170.599,156.800 170.610 C 147.445 170.632,140.481 174.945,133.887 184.800 C 133.077 186.010,131.906 187.720,131.284 188.600 C 128.178 192.996,126.618 195.226,124.991 197.600 C 124.010 199.030,122.030 201.820,120.591 203.800 C 119.151 205.780,117.664 207.912,117.287 208.538 C 116.909 209.164,116.150 210.269,115.600 210.993 C 115.050 211.717,114.330 212.714,114.000 213.209 C 108.359 221.669,101.972 225.822,95.920 224.967 C 86.440 223.627,81.559 220.100,79.041 212.770 L 78.000 209.740 78.000 179.275 L 78.000 148.810 78.980 145.105 C 79.823 141.920,80.941 138.987,81.932 137.360 C 86.255 130.264,92.061 125.754,100.200 123.171 C 102.730 122.367,104.040 122.265,113.800 122.105 C 119.740 122.008,124.750 121.785,124.934 121.610 C 125.117 121.436,124.467 120.147,123.490 118.746 C 122.512 117.346,121.144 115.390,120.449 114.400 C 119.754 113.410,118.514 111.610,117.694 110.400 C 116.874 109.190,115.349 107.030,114.307 105.600 C 111.083 101.177,109.581 99.054,108.674 97.632 C 107.107 95.179,106.999 95.013,106.227 93.866 C 105.288 92.472,104.904 87.369,105.556 84.956 C 107.224 78.788,116.189 75.416,121.878 78.817 M147.600 237.575 C 146.610 238.004,145.440 238.369,145.000 238.385 C 143.881 238.426,141.299 240.256,138.971 242.656 C 137.023 244.665,136.720 245.049,135.226 247.400 C 134.806 248.060,134.181 248.960,133.838 249.400 C 131.257 252.703,130.800 253.375,130.800 253.868 C 130.800 254.174,130.546 254.522,130.237 254.641 C 129.927 254.760,129.455 255.385,129.188 256.029 C 128.921 256.673,128.570 257.200,128.408 257.200 C 128.246 257.200,127.425 258.325,126.584 259.700 C 125.742 261.075,124.924 262.290,124.765 262.400 C 124.345 262.691,121.600 266.730,121.600 267.057 C 121.600 267.209,121.326 267.618,120.991 267.966 C 119.989 269.008,118.000 271.689,118.000 271.997 C 118.000 272.154,117.550 272.769,117.000 273.362 C 116.450 273.956,116.000 274.612,116.000 274.821 C 116.000 275.029,115.719 275.515,115.375 275.900 C 113.953 277.492,112.400 279.743,112.400 280.212 C 112.400 280.488,112.127 280.819,111.794 280.947 C 111.461 281.075,111.006 281.589,110.784 282.090 C 110.409 282.934,109.246 284.682,107.783 286.600 C 107.447 287.040,106.639 288.100,105.986 288.955 C 105.334 289.810,104.800 290.755,104.800 291.055 C 104.800 291.355,104.638 291.600,104.440 291.600 C 104.241 291.600,103.711 292.185,103.262 292.900 C 102.812 293.615,101.898 294.920,101.231 295.800 C 100.563 296.680,99.840 297.798,99.625 298.284 C 99.409 298.770,98.865 299.535,98.416 299.984 C 97.967 300.433,97.600 301.132,97.600 301.539 C 97.600 301.945,97.240 302.693,96.800 303.200 C 95.660 304.514,95.617 311.397,96.739 312.846 C 97.145 313.371,97.595 314.278,97.737 314.861 C 98.035 316.081,102.623 320.800,103.512 320.800 C 103.839 320.800,104.757 321.205,105.553 321.700 L 107.000 322.600 151.200 322.600 L 195.400 322.600 196.994 321.700 C 197.871 321.205,198.804 320.800,199.067 320.800 C 199.694 320.800,203.451 317.131,204.683 315.316 C 206.558 312.553,206.925 304.420,205.284 302.003 C 204.909 301.451,204.380 300.550,204.107 300.000 C 203.834 299.450,202.979 298.190,202.207 297.200 C 201.435 296.210,200.622 295.040,200.400 294.600 C 200.178 294.160,199.368 292.990,198.600 292.000 C 197.832 291.010,197.025 289.790,196.808 289.290 C 196.590 288.789,196.139 288.275,195.806 288.147 C 195.473 288.019,195.200 287.688,195.200 287.412 C 195.200 286.940,193.638 284.679,192.209 283.084 C 191.857 282.690,191.391 281.970,191.175 281.484 C 190.960 280.998,190.244 279.880,189.585 279.000 C 188.926 278.120,187.724 276.410,186.914 275.200 C 186.104 273.990,185.029 272.460,184.524 271.800 C 181.701 268.106,180.491 266.358,180.016 265.290 C 179.794 264.789,179.339 264.275,179.006 264.147 C 178.673 264.019,178.400 263.688,178.400 263.412 C 178.400 262.940,176.838 260.679,175.409 259.084 C 175.057 258.690,174.595 257.970,174.382 257.484 C 174.170 256.998,173.368 255.790,172.600 254.800 C 171.832 253.810,171.036 252.620,170.832 252.155 C 170.628 251.690,170.177 251.200,169.831 251.067 C 169.484 250.934,169.200 250.574,169.200 250.268 C 169.200 249.961,168.666 249.010,168.014 248.155 C 167.361 247.300,166.506 246.171,166.114 245.646 C 163.385 241.999,159.042 238.403,157.359 238.398 C 156.941 238.396,156.060 238.107,155.400 237.755 C 153.496 236.739,149.729 236.653,147.600 237.575 M155.768 238.607 C 160.254 239.647,163.183 242.257,168.105 249.600 C 169.475 251.643,171.315 254.289,174.087 258.200 C 174.711 259.080,176.026 260.970,177.009 262.400 C 177.992 263.830,179.832 266.461,181.098 268.247 C 182.364 270.033,183.935 272.283,184.589 273.247 C 185.243 274.211,186.190 275.540,186.695 276.200 C 188.010 277.920,188.003 277.911,190.200 281.136 C 191.300 282.751,193.010 285.227,194.000 286.638 C 194.990 288.049,196.514 290.238,197.388 291.502 C 198.261 292.766,199.537 294.520,200.223 295.400 C 200.910 296.280,202.428 298.595,203.596 300.544 L 205.722 304.087 205.720 307.944 C 205.718 314.295,202.585 318.806,196.689 320.952 L 193.800 322.004 151.136 322.002 L 108.471 322.000 106.136 321.116 C 101.664 319.425,99.393 317.160,97.397 312.401 C 96.271 309.719,96.117 305.549,97.096 304.296 C 97.309 304.023,97.673 303.238,97.904 302.551 C 98.134 301.863,98.939 300.423,99.692 299.351 C 100.445 298.278,101.857 296.253,102.831 294.852 C 103.804 293.451,105.378 291.201,106.329 289.852 C 107.280 288.503,108.494 286.770,109.028 286.000 C 109.561 285.230,110.403 284.039,110.899 283.353 C 111.394 282.667,112.700 280.798,113.800 279.200 C 114.900 277.602,116.160 275.802,116.600 275.200 C 117.040 274.598,118.254 272.867,119.298 271.353 C 121.663 267.922,124.502 263.839,125.800 262.000 C 126.343 261.230,127.603 259.430,128.600 258.000 C 129.597 256.570,130.857 254.770,131.400 254.000 C 133.378 251.197,136.034 247.367,136.960 245.980 C 141.335 239.431,148.021 236.810,155.768 238.607 " stroke="none" fill="#77adfc" fill-rule="evenodd"></path><path id="path3" d="M294.501 88.600 C 294.505 89.480,294.587 89.793,294.683 89.295 C 294.779 88.798,294.775 88.078,294.675 87.695 C 294.575 87.313,294.496 87.720,294.501 88.600 M124.554 120.275 C 124.969 120.776,125.151 121.374,124.981 121.675 C 124.740 122.099,124.787 122.103,125.226 121.696 C 125.679 121.275,125.608 121.042,124.799 120.296 C 123.851 119.420,123.846 119.419,124.554 120.275 M110.123 122.299 C 112.720 122.369,116.860 122.368,119.323 122.298 C 121.785 122.228,119.660 122.171,114.600 122.172 C 109.540 122.172,107.525 122.229,110.123 122.299 M177.100 122.300 C 189.695 122.359,210.305 122.359,222.900 122.300 C 235.495 122.241,225.190 122.193,200.000 122.193 C 174.810 122.193,164.505 122.241,177.100 122.300 M280.523 122.299 C 283.120 122.369,287.260 122.368,289.723 122.298 C 292.185 122.228,290.060 122.171,285.000 122.172 C 279.940 122.172,277.925 122.229,280.523 122.299 M321.796 222.200 C 321.796 260.700,321.843 276.391,321.900 257.068 C 321.957 237.746,321.957 206.246,321.900 187.068 C 321.843 167.891,321.796 183.700,321.796 222.200 M172.800 176.125 C 172.800 176.194,173.385 176.779,174.100 177.425 L 175.400 178.600 174.225 177.300 C 173.130 176.088,172.800 175.816,172.800 176.125 M96.524 308.200 C 96.526 309.520,96.601 310.012,96.690 309.293 C 96.779 308.574,96.777 307.494,96.686 306.893 C 96.595 306.292,96.522 306.880,96.524 308.200 M205.693 308.000 C 205.693 308.770,205.775 309.085,205.876 308.700 C 205.976 308.315,205.976 307.685,205.876 307.300 C 205.775 306.915,205.693 307.230,205.693 308.000 M288.500 321.876 C 288.885 321.976,289.515 321.976,289.900 321.876 C 290.285 321.775,289.970 321.693,289.200 321.693 C 288.430 321.693,288.115 321.775,288.500 321.876 M293.105 321.883 C 293.602 321.979,294.322 321.975,294.705 321.875 C 295.087 321.775,294.680 321.696,293.800 321.701 C 292.920 321.705,292.607 321.787,293.105 321.883 " stroke="none" fill="#8cbcfc" fill-rule="evenodd"></path><path id="path4" d="M112.737 77.967 C 109.291 79.083,105.894 83.028,105.387 86.502 C 104.708 91.144,105.430 92.824,112.216 102.400 C 113.229 103.830,114.495 105.630,115.030 106.400 C 115.564 107.170,116.856 109.016,117.901 110.502 C 118.945 111.988,120.514 114.238,121.388 115.502 C 122.261 116.766,123.589 118.578,124.338 119.529 C 126.411 122.159,126.384 122.166,113.481 122.437 C 104.437 122.627,101.883 122.802,100.600 123.319 C 99.720 123.674,98.744 123.973,98.432 123.982 C 95.166 124.083,85.629 131.313,83.599 135.227 C 83.192 136.011,82.575 136.889,82.229 137.176 C 81.883 137.463,81.600 137.904,81.600 138.155 C 81.600 138.406,81.262 139.242,80.849 140.013 C 80.436 140.783,79.671 143.030,79.149 145.007 L 78.200 148.600 78.200 179.200 L 78.200 209.800 79.151 212.556 C 84.011 226.635,102.907 229.103,111.323 216.758 C 112.459 215.092,115.514 210.726,116.600 209.217 C 117.040 208.605,118.300 206.798,119.400 205.200 C 120.500 203.602,121.760 201.802,122.200 201.200 C 122.640 200.598,123.850 198.867,124.890 197.353 C 125.929 195.839,127.607 193.430,128.619 192.000 C 129.630 190.570,130.894 188.770,131.428 188.000 C 131.961 187.230,132.803 186.036,133.299 185.347 C 133.794 184.657,134.894 183.079,135.743 181.840 C 137.357 179.484,143.007 174.000,143.821 174.000 C 144.080 174.000,144.721 173.670,145.246 173.267 C 148.160 171.028,157.596 169.631,162.000 170.786 C 168.848 172.583,174.418 176.344,177.720 181.400 C 178.665 182.846,179.897 184.616,183.287 189.400 C 183.911 190.280,185.226 192.170,186.209 193.600 C 189.222 197.983,192.763 202.964,193.366 203.668 C 193.681 204.036,194.159 204.756,194.428 205.268 C 194.698 205.781,195.345 206.740,195.865 207.400 C 197.129 209.001,197.120 208.989,199.309 212.200 C 202.760 217.261,203.956 218.972,205.600 221.200 C 207.244 223.428,208.440 225.139,211.891 230.200 C 214.080 233.411,214.071 233.399,215.335 235.000 C 215.855 235.660,216.502 236.619,216.772 237.132 C 217.041 237.644,217.519 238.364,217.834 238.732 C 218.443 239.443,222.040 244.504,224.988 248.800 C 226.667 251.245,228.670 254.107,231.287 257.800 C 231.911 258.680,233.272 260.639,234.311 262.153 C 235.350 263.667,236.560 265.398,237.000 266.000 C 237.440 266.602,238.700 268.402,239.800 270.000 C 240.900 271.598,242.206 273.467,242.701 274.153 C 243.197 274.839,244.039 276.030,244.572 276.800 C 245.106 277.570,246.370 279.370,247.381 280.800 C 248.393 282.230,250.071 284.639,251.110 286.153 C 252.150 287.667,253.360 289.398,253.800 290.000 C 254.240 290.602,255.500 292.402,256.600 293.999 C 257.700 295.597,259.050 297.539,259.600 298.315 C 260.150 299.091,260.870 300.127,261.200 300.617 C 271.290 315.597,277.448 320.147,289.800 321.749 C 295.571 322.498,305.079 319.310,310.443 314.828 C 313.652 312.146,318.400 306.254,318.400 304.953 C 318.400 304.752,318.762 303.913,319.204 303.088 C 321.654 298.517,321.597 300.429,321.599 222.177 C 321.600 144.015,321.642 145.462,319.221 140.944 C 318.770 140.101,318.400 139.242,318.400 139.035 C 318.400 137.422,311.948 129.893,308.707 127.723 C 302.195 123.364,298.152 122.400,286.380 122.400 C 275.831 122.400,274.400 122.255,274.400 121.183 C 274.400 120.789,274.549 120.407,274.731 120.333 C 274.913 120.260,275.903 118.940,276.932 117.400 C 277.961 115.860,279.976 112.980,281.410 111.000 C 282.844 109.020,284.328 106.882,284.708 106.250 C 285.089 105.617,286.032 104.267,286.805 103.250 C 287.578 102.232,288.928 100.320,289.805 99.000 C 290.682 97.680,291.502 96.510,291.626 96.400 C 294.736 93.653,295.355 86.232,292.775 82.620 C 288.506 76.642,280.362 75.804,275.572 80.848 C 274.444 82.036,274.098 82.497,271.300 86.553 C 270.255 88.067,268.994 89.867,268.499 90.553 C 266.750 92.972,263.702 97.313,261.023 101.200 C 260.492 101.970,259.230 103.770,258.219 105.200 C 257.207 106.630,255.576 108.970,254.593 110.400 C 250.038 117.031,247.386 120.673,246.511 121.500 L 245.559 122.400 200.079 122.386 C 165.161 122.375,154.402 122.259,153.746 121.886 C 152.926 121.420,150.471 118.449,149.873 117.200 C 149.715 116.870,149.043 115.880,148.379 115.000 C 147.716 114.120,146.742 112.770,146.215 112.000 C 145.689 111.230,144.430 109.430,143.419 108.000 C 142.407 106.570,140.729 104.161,139.690 102.647 C 138.650 101.133,137.440 99.402,137.000 98.800 C 136.560 98.198,135.300 96.398,134.200 94.800 C 133.100 93.202,131.840 91.395,131.400 90.783 C 130.534 89.580,127.557 85.336,126.220 83.400 C 122.919 78.618,117.484 76.428,112.737 77.967 M120.976 79.279 C 122.900 80.465,125.184 82.713,126.200 84.418 C 126.640 85.157,127.209 86.109,127.464 86.535 C 127.719 86.960,128.079 87.419,128.264 87.554 C 128.449 87.689,129.318 88.880,130.195 90.200 C 131.072 91.520,131.943 92.711,132.131 92.846 C 132.319 92.981,132.681 93.440,132.936 93.865 C 133.191 94.291,133.760 95.239,134.200 95.972 C 134.640 96.705,135.360 97.712,135.800 98.210 C 136.240 98.708,137.050 99.870,137.600 100.793 C 138.150 101.716,138.999 102.925,139.487 103.480 C 139.975 104.035,140.482 104.829,140.614 105.245 C 140.746 105.660,141.026 106.000,141.237 106.000 C 141.447 106.000,141.800 106.405,142.020 106.900 C 142.445 107.856,144.022 110.201,144.912 111.200 C 145.206 111.530,146.144 112.880,146.997 114.200 C 147.850 115.520,148.710 116.711,148.910 116.846 C 149.109 116.981,149.481 117.451,149.736 117.889 C 151.243 120.477,152.553 122.078,153.441 122.416 C 154.066 122.653,171.879 122.800,200.137 122.800 C 250.691 122.800,246.632 123.017,248.515 120.219 C 250.035 117.960,253.363 113.145,254.200 111.994 C 254.640 111.389,255.710 109.837,256.577 108.547 C 257.444 107.256,258.402 105.930,258.706 105.600 C 259.009 105.270,259.649 104.382,260.129 103.626 C 261.004 102.247,261.273 101.850,263.296 98.964 C 263.899 98.104,265.069 96.403,265.896 95.185 C 266.723 93.966,267.636 92.706,267.924 92.385 C 268.426 91.824,269.686 89.936,270.664 88.278 C 270.919 87.846,271.291 87.381,271.490 87.246 C 271.690 87.111,272.533 85.966,273.364 84.702 C 275.065 82.116,276.929 80.000,277.507 80.000 C 277.719 80.000,278.394 79.605,279.007 79.123 C 280.670 77.815,286.193 77.801,287.950 79.100 C 288.620 79.595,289.279 80.000,289.415 80.000 C 289.920 80.000,291.864 82.261,292.914 84.071 C 294.838 87.388,293.902 94.060,291.278 95.732 C 290.991 95.915,290.581 96.455,290.368 96.932 C 289.972 97.816,288.422 100.125,287.510 101.187 C 287.233 101.509,286.634 102.319,286.179 102.987 C 284.289 105.758,281.730 109.388,280.709 110.747 C 280.108 111.546,279.433 112.560,279.207 113.000 C 278.981 113.440,278.167 114.610,277.398 115.600 C 276.629 116.590,275.774 117.848,275.500 118.395 C 275.225 118.941,274.685 119.706,274.300 120.095 C 272.015 122.398,273.633 122.800,285.187 122.800 C 293.050 122.800,295.526 122.926,296.613 123.380 C 297.377 123.699,299.021 124.148,300.268 124.379 C 301.514 124.609,302.819 125.045,303.167 125.348 C 303.515 125.651,304.475 126.116,305.300 126.380 C 306.125 126.645,306.800 127.016,306.800 127.204 C 306.800 127.392,307.203 127.674,307.697 127.831 C 308.997 128.243,315.367 134.774,316.351 136.704 C 316.812 137.607,317.371 138.459,317.594 138.596 C 317.817 138.734,318.000 139.170,318.000 139.564 C 318.000 139.958,318.425 141.081,318.946 142.059 C 320.792 145.532,320.880 149.739,320.694 226.000 C 320.520 297.606,320.458 300.399,319.018 301.839 C 318.695 302.162,318.314 303.052,318.170 303.817 C 318.027 304.583,317.747 305.309,317.549 305.432 C 317.351 305.554,316.813 306.390,316.354 307.290 C 315.440 309.081,309.301 315.388,307.395 316.493 C 306.738 316.874,305.570 317.462,304.800 317.800 C 304.030 318.138,302.680 318.754,301.800 319.170 C 296.912 321.479,286.098 321.364,280.994 318.949 C 279.891 318.427,278.824 318.000,278.624 318.000 C 277.053 318.000,269.236 311.145,267.318 308.084 C 266.944 307.488,266.400 306.730,266.108 306.400 C 265.212 305.387,263.642 303.049,263.220 302.100 C 263.000 301.605,262.647 301.200,262.437 301.200 C 262.226 301.200,261.945 300.856,261.811 300.435 C 261.571 299.680,259.792 297.197,258.609 295.966 C 258.274 295.618,258.000 295.209,258.000 295.057 C 258.000 294.724,255.491 291.040,254.736 290.264 C 254.441 289.961,253.750 288.952,253.200 288.021 C 252.650 287.091,251.801 285.875,251.313 285.320 C 250.825 284.765,250.318 283.971,250.186 283.555 C 250.054 283.140,249.773 282.800,249.560 282.800 C 249.348 282.800,249.061 282.485,248.921 282.100 C 248.643 281.333,246.446 278.038,245.787 277.400 C 245.560 277.180,244.662 275.920,243.792 274.600 C 242.922 273.280,242.057 272.089,241.869 271.954 C 241.681 271.819,241.319 271.360,241.064 270.935 C 240.809 270.509,240.240 269.557,239.800 268.818 C 239.360 268.079,238.730 267.187,238.400 266.834 C 238.070 266.482,237.092 265.115,236.226 263.797 C 235.361 262.479,234.547 261.310,234.417 261.200 C 234.288 261.090,233.826 260.478,233.391 259.840 C 232.956 259.203,232.330 258.291,232.000 257.814 C 231.670 257.338,231.008 256.330,230.529 255.574 C 230.049 254.818,229.409 253.930,229.106 253.600 C 228.802 253.270,227.844 251.944,226.977 250.653 C 226.110 249.363,225.040 247.811,224.600 247.206 C 224.160 246.601,222.900 244.798,221.800 243.200 C 220.700 241.602,219.394 239.733,218.899 239.047 C 217.926 237.702,216.166 235.205,215.200 233.800 C 214.870 233.320,214.060 232.155,213.400 231.210 C 212.740 230.265,211.899 229.041,211.531 228.489 C 211.163 227.937,210.709 227.376,210.523 227.243 C 210.336 227.109,209.959 226.550,209.685 226.000 C 209.411 225.450,208.645 224.280,207.983 223.400 C 206.650 221.627,203.407 216.954,202.263 215.157 C 201.858 214.521,201.363 214.000,201.163 214.000 C 200.963 214.000,200.800 213.768,200.800 213.485 C 200.800 213.202,200.267 212.347,199.616 211.585 C 198.965 210.823,198.425 210.035,198.416 209.834 C 198.407 209.632,198.125 209.182,197.789 208.834 C 196.910 207.923,195.288 205.553,194.816 204.490 C 194.594 203.989,194.139 203.475,193.806 203.347 C 193.473 203.219,193.200 202.888,193.200 202.612 C 193.200 202.140,191.638 199.879,190.209 198.284 C 189.857 197.890,189.400 197.125,189.194 196.584 C 188.988 196.043,188.647 195.600,188.437 195.600 C 188.226 195.600,187.945 195.256,187.811 194.835 C 187.571 194.080,185.792 191.597,184.609 190.366 C 184.274 190.018,184.000 189.615,184.000 189.471 C 184.000 189.049,181.056 184.800,180.764 184.800 C 180.617 184.800,180.273 184.260,180.000 183.600 C 179.727 182.940,179.357 182.400,179.178 182.400 C 179.000 182.400,178.735 182.025,178.589 181.567 C 178.196 180.326,172.292 174.565,170.452 173.627 C 169.573 173.178,168.750 172.643,168.623 172.436 C 168.495 172.230,167.808 171.940,167.095 171.792 C 166.383 171.643,165.350 171.224,164.800 170.861 C 163.136 169.761,151.773 169.661,149.499 170.725 C 148.565 171.163,147.139 171.728,146.332 171.981 C 145.525 172.234,144.648 172.702,144.383 173.020 C 144.118 173.339,143.683 173.600,143.414 173.600 C 142.492 173.600,136.400 179.303,136.400 180.167 C 136.400 180.409,136.040 180.832,135.600 181.107 C 135.160 181.382,134.800 181.866,134.800 182.184 C 134.800 182.501,134.563 182.904,134.273 183.080 C 133.983 183.256,133.048 184.480,132.196 185.800 C 131.343 187.120,130.398 188.470,130.094 188.800 C 129.791 189.130,129.151 190.018,128.671 190.774 C 128.192 191.530,127.530 192.538,127.200 193.014 C 126.870 193.491,126.244 194.403,125.809 195.040 C 125.374 195.678,124.912 196.290,124.783 196.400 C 124.653 196.510,123.839 197.679,122.974 198.997 C 122.108 200.315,121.163 201.665,120.874 201.997 C 120.002 202.997,118.446 205.342,118.020 206.300 C 117.800 206.795,117.457 207.200,117.258 207.200 C 117.060 207.200,116.673 207.740,116.400 208.400 C 116.127 209.060,115.773 209.600,115.614 209.600 C 115.456 209.600,114.987 210.230,114.572 211.000 C 114.157 211.770,113.689 212.400,113.531 212.400 C 113.373 212.400,113.009 212.814,112.722 213.320 C 111.007 216.344,110.373 217.187,108.244 219.273 C 106.948 220.543,105.511 221.701,105.051 221.847 C 104.592 221.993,103.704 222.491,103.079 222.953 C 101.021 224.474,91.778 224.153,88.600 222.450 C 86.071 221.094,82.009 217.710,82.003 216.954 C 82.001 216.709,81.627 216.033,81.170 215.453 C 77.857 211.240,77.668 144.896,80.959 141.243 C 81.277 140.889,81.669 140.060,81.830 139.400 C 81.990 138.740,82.499 137.717,82.961 137.128 C 83.422 136.538,84.250 135.407,84.800 134.614 C 86.078 132.773,88.373 130.478,90.214 129.200 C 91.007 128.650,92.164 127.795,92.785 127.300 C 93.407 126.805,94.180 126.400,94.504 126.400 C 94.827 126.400,95.530 126.056,96.064 125.635 C 96.599 125.215,98.064 124.681,99.319 124.449 C 100.575 124.217,102.007 123.796,102.501 123.513 C 103.146 123.145,106.480 122.943,114.287 122.800 C 126.363 122.578,127.533 122.333,125.627 120.427 C 125.155 119.955,124.591 119.170,124.375 118.684 C 124.160 118.198,123.437 117.080,122.769 116.200 C 122.102 115.320,121.188 114.015,120.738 113.300 C 120.289 112.585,119.759 112.000,119.560 112.000 C 119.362 112.000,119.200 111.755,119.200 111.455 C 119.200 110.974,118.676 110.194,116.210 107.000 C 115.870 106.560,114.869 105.075,113.985 103.700 C 113.101 102.325,112.203 101.200,111.989 101.200 C 111.775 101.200,111.600 100.955,111.600 100.655 C 111.600 100.150,110.092 97.942,108.625 96.300 C 108.281 95.915,108.000 95.455,108.000 95.278 C 108.000 95.100,107.550 94.345,107.000 93.600 C 105.459 91.511,105.515 85.758,107.100 83.422 C 110.518 78.385,116.586 76.573,120.976 79.279 M147.496 238.613 C 146.009 238.909,144.271 239.522,143.634 239.975 C 142.998 240.429,142.296 240.800,142.075 240.800 C 141.589 240.800,138.249 244.459,136.962 246.400 C 136.127 247.661,135.284 248.868,131.516 254.200 C 130.894 255.080,129.723 256.790,128.913 258.000 C 127.643 259.899,127.014 260.763,125.277 263.000 C 125.106 263.220,124.269 264.480,123.416 265.800 C 122.563 267.120,121.670 268.380,121.432 268.600 C 121.195 268.820,120.156 270.260,119.124 271.800 C 118.093 273.340,116.153 276.130,114.814 278.000 C 113.475 279.870,112.069 281.912,111.689 282.538 C 111.310 283.164,110.487 284.334,109.861 285.138 C 109.235 285.942,107.885 287.860,106.861 289.400 C 105.837 290.940,104.805 292.380,104.568 292.600 C 104.330 292.820,103.442 294.080,102.594 295.400 C 101.746 296.720,100.950 297.890,100.825 298.000 C 95.102 303.032,95.934 314.363,102.363 318.929 C 106.668 321.987,103.477 321.800,151.400 321.800 L 194.200 321.800 196.645 320.866 C 206.089 317.260,208.430 307.416,202.002 298.338 C 201.325 297.382,200.341 295.970,199.815 295.200 C 199.289 294.430,198.030 292.630,197.019 291.200 C 196.007 289.770,194.329 287.361,193.290 285.847 C 192.250 284.333,191.040 282.595,190.600 281.983 C 189.883 280.987,188.851 279.520,185.128 274.200 C 184.512 273.320,183.183 271.430,182.175 270.000 C 181.167 268.570,179.905 266.770,179.371 266.000 C 176.958 262.518,175.486 260.427,173.881 258.200 C 172.930 256.880,171.623 254.990,170.977 254.000 C 170.331 253.010,169.662 252.096,169.490 251.970 C 169.319 251.843,168.565 250.763,167.814 249.570 C 161.773 239.960,156.100 236.901,147.496 238.613 M157.200 239.828 C 157.750 240.127,158.740 240.636,159.400 240.959 C 160.753 241.621,164.400 245.258,164.400 245.945 C 164.400 246.191,164.760 246.618,165.200 246.893 C 165.640 247.168,166.000 247.594,166.000 247.841 C 166.000 248.269,167.623 250.588,168.991 252.116 C 169.343 252.510,169.809 253.230,170.025 253.716 C 170.240 254.202,170.956 255.320,171.615 256.200 C 172.274 257.080,173.476 258.790,174.286 260.000 C 175.096 261.210,176.171 262.740,176.676 263.400 C 179.490 267.083,180.709 268.841,181.180 269.900 C 181.400 270.395,181.762 270.800,181.985 270.800 C 182.207 270.800,182.663 271.385,182.998 272.100 C 183.733 273.672,185.505 276.149,186.024 276.333 C 186.231 276.407,186.400 276.722,186.400 277.033 C 186.400 277.345,186.750 277.950,187.179 278.379 C 187.607 278.807,188.242 279.707,188.589 280.379 C 188.936 281.050,189.374 281.600,189.562 281.600 C 189.749 281.600,190.121 282.127,190.388 282.771 C 190.655 283.415,191.127 284.040,191.437 284.159 C 191.746 284.278,192.000 284.626,192.000 284.932 C 192.000 285.239,192.543 286.190,193.206 287.045 C 193.870 287.900,194.691 288.960,195.031 289.400 C 195.372 289.840,196.268 291.182,197.023 292.383 C 197.778 293.583,198.666 294.717,198.998 294.903 C 199.329 295.088,199.600 295.409,199.600 295.616 C 199.600 295.823,200.410 297.175,201.400 298.621 C 202.390 300.067,203.200 301.395,203.200 301.571 C 203.200 301.748,203.605 302.407,204.100 303.036 C 205.287 304.545,205.452 311.415,204.331 312.658 C 203.963 313.066,203.544 313.875,203.399 314.456 C 203.254 315.037,202.700 315.891,202.168 316.353 C 201.635 316.816,201.200 317.376,201.200 317.597 C 201.200 317.819,200.987 318.000,200.726 318.000 C 200.465 318.000,199.861 318.367,199.383 318.816 C 196.909 321.140,195.706 321.200,151.386 321.200 C 105.844 321.200,106.433 321.233,102.827 318.486 C 100.960 317.064,98.400 313.797,98.400 312.836 C 98.400 312.525,98.101 311.320,97.735 310.159 C 96.754 307.050,98.163 302.477,101.419 298.200 C 101.753 297.760,102.561 296.700,103.214 295.845 C 103.866 294.990,104.400 294.045,104.400 293.745 C 104.400 293.445,104.562 293.200,104.760 293.200 C 104.959 293.200,105.498 292.615,105.958 291.900 C 108.045 288.660,108.382 288.165,108.875 287.615 C 109.164 287.293,109.580 286.733,109.800 286.372 C 110.391 285.401,112.204 282.823,113.579 281.000 C 114.243 280.120,114.910 279.130,115.061 278.800 C 115.212 278.470,115.756 277.691,116.268 277.069 C 116.781 276.447,117.200 275.682,117.200 275.369 C 117.200 275.056,117.375 274.800,117.589 274.800 C 117.803 274.800,118.701 273.675,119.585 272.300 C 120.469 270.925,121.465 269.440,121.799 269.000 C 122.134 268.560,122.818 267.660,123.321 267.000 C 123.823 266.340,124.587 265.278,125.017 264.640 C 126.189 262.905,126.885 261.892,128.094 260.164 C 128.696 259.304,130.003 257.430,131.000 256.000 C 131.997 254.570,133.304 252.696,133.906 251.836 C 135.448 249.632,136.052 248.750,137.246 246.958 C 137.821 246.095,138.586 245.144,138.946 244.845 C 139.306 244.546,139.600 244.054,139.600 243.751 C 139.600 243.448,139.806 243.200,140.058 243.200 C 140.310 243.200,140.895 242.826,141.358 242.370 C 144.629 239.144,153.359 237.743,157.200 239.828 " stroke="none" fill="#94c4fc" fill-rule="evenodd"></path></g></svg>