<?xml version="1.0" standalone="no"?><!DOCTYPE svg PUBLIC "-//W3C//DTD SVG 1.1//EN" "http://www.w3.org/Graphics/SVG/1.1/DTD/svg11.dtd"><svg t="1707723036509" class="icon" viewBox="0 0 1024 1024" version="1.1" xmlns="http://www.w3.org/2000/svg" p-id="59362" xmlns:xlink="http://www.w3.org/1999/xlink" width="48" height="48"><path d="M180.224 262.3488c-24.2176 11.4688-26.624 34.304-26.624 222.3104 0 205.9776 1.8432 215.5008 41.472 226.9696 15.5136 4.1472 69.9392 5.9392 156.672 4.864 158.4128-2.3552 160.256-3.072 160.256-56.4736 0-43.264-11.1104-50.4832-77.312-50.4832-80.384 0-76.0832 10.24-78.5408-171.1104-2.0992-189.952 3.4304-179.712-96.1536-181.504a263.8336 263.8336 0 0 0-79.7696 5.4272z m495.616 314.88c-20.9408-24.1664-16.896-36.608 16.9472-49.5616C914.9952 438.4256 921.6 435.3024 921.6 403.7632c0-20.4288-28.7744-68.8128-55.9616-92.928-36.864-35.2768-84.224-54.4768-133.12-53.9648-23.9616-2.304-48.0256 0-71.2192 6.656-65.0752 27.4432-105.1648 66.56-131.7376 127.7952-15.872 35.9936-17.5616 46.592-17.5616 96.1024s2.2016 60.6208 15.872 93.6448c23.552 51.3024 61.6448 92.8256 108.544 118.272 29.952 15.616 40.0896 17.4592 90.4704 17.4592 50.3808 0 59.904-1.8432 87.552-16.6912a221.7472 221.7472 0 0 0 89.856-83.6608c27.5968-45.9776 18.5856-64-13.6704-26.8288-45.1584 52.0704-164.5056 45.2608-214.7328-12.4416z m-52.8384-119.3472c-23.1936-18.176 3.1744-66.048 48.128-86.9888 36.352-16.384 100.2496-16.896 128.9216 0 38.1952 22.1696 23.1936 35.072-81.3056 67.2256-71.3728 22.9888-87.6544 26.2144-95.744 19.7632z" fill="#D70C18" p-id="59363"></path></svg>