<?xml version="1.0" standalone="no"?><!DOCTYPE svg PUBLIC "-//W3C//DTD SVG 1.1//EN" "http://www.w3.org/Graphics/SVG/1.1/DTD/svg11.dtd"><svg t="1707713412906" class="icon" viewBox="0 0 1024 1024" version="1.1" xmlns="http://www.w3.org/2000/svg" p-id="48040" xmlns:xlink="http://www.w3.org/1999/xlink" width="48" height="48"><path d="M333 475c-78.933 63.333-127.798 185.333-146.596 366L224 845v-26l12 26h382c-4.667-27.333-7-44-7-50s9 10.667 27 50c69.333-4.667 108.667-7 118-7 14 0 38-7 21-63 0-0.667 11.333 13 34 41l28-14c-70.667-98-89.667-201.667-57-311 1.333-12-3.667-17.333-15-16H333z" fill="#F9BF53" p-id="48041"></path><path d="M606.6 475H767c11.333-1.333 16.333 4 15 16-32.667 109.333-13.667 213 57 311l-1.247 0.624C797.445 781.326 721 639.642 721 578c0-43.22-38.133-77.553-114.4-103z m5.674 319.298c-0.85-0.835-1.274-0.601-1.274 0.702 0 4.937 1.58 17.096 4.74 36.476L617 845h-14c-6.667-12-5.667-51.333 3-118l6.274 67.298z m-386.206 29.183L224 819v26l-13.303-1.415L208 842c-0.464-32.667 4.277-56 14.224-70-0.119-0.53 1.163 16.63 3.844 51.48z" fill="#000000" opacity=".05" p-id="48042"></path><path d="M343 458l66-85h123c23.333 0 41.667-14 55-42 20-42 24-61 53-121s112-22 94 33c-12 36.667-35 78.333-69 125l131 5 22.76 22.76a19 19 0 0 1 3.918 21.174L795 479l-32.175-21H343z" fill="#3A84D1" p-id="48043"></path><path d="M640.005 209.99c13.255-27.415 37.787-34.364 58.8-28.578 11.147 8.7 16.714 26.614 9.195 49.588-18 55-74 110-62 129 2.742 3.721 9.208 6.205 19.399 7.453L665 368l131 5 0.27 0.27L763 458H343l66-85h123c23.333 0 41.667-14 55-42 20-42 24-61 53-121z" fill="#3DB5F3" p-id="48044"></path><path d="M343 458h419.825c1.688-0.552 7.413 2.115 17.175 8s15.095 9.885 16 12l-14 6-10-9-441 1.5 12-18.5z" fill="#206AB4" p-id="48045"></path><path d="M559 443c-19.882 0-27.467-16.118-16.942-36 10.525-19.882 35.176-36 55.058-36 19.882 0 27.467 16.118 16.942 36-10.525 19.882-35.176 36-55.058 36z m8.175-57l-21.832 41.24h4.787l17.368-32.807h0.175l-2.95 32.807h4.32l31.786-32.807h0.175l-17.367 32.807h4.786L610.255 386h-5.954l-34.09 35.175h-0.176L573.13 386h-5.954z" fill="#3A84D1" p-id="48046"></path></svg>