<?xml version="1.0" standalone="no"?><!DOCTYPE svg PUBLIC "-//W3C//DTD SVG 1.1//EN" "http://www.w3.org/Graphics/SVG/1.1/DTD/svg11.dtd"><svg t="1707716009573" class="icon" viewBox="0 0 1024 1024" version="1.1" xmlns="http://www.w3.org/2000/svg" p-id="8201" xmlns:xlink="http://www.w3.org/1999/xlink" width="48" height="48"><path d="M1009.3 716.1V408.4c0-28-17.8-53.4-45.8-63.6l-101.7-28-147.5 302.6S561.8 235.5 561.8 232.9l-160.2-43.2c-7.6-2.5-15.3-2.5-22.9-2.5-45.8 0-78.8 35.6-78.8 78.8v457.6c0 40.7 33.1 73.7 73.7 73.7h7.6l63.6-5.1h-5.1V311.8L627.9 772l139.8-12.7 180.5-353.4v256.8c0 91.5-68.6 167.8-162.7 180.5L333 883.9h-10.2c-76.3 0-137.3-61-137.3-134.8V283.8c0-50.9-2.5-96.6 33.1-139.8 28-35.6 73.7-53.4 117-53.4 15.3 0 30.5 2.5 45.8 7.6l521.2 144.9h7.6c15.3 0 28-12.7 28-28 0-12.7-7.6-22.9-20.3-25.4L358.4 37.2c-28-10.2-58.5-15.3-89-15.3C129.6 22 17.7 131.3 17.7 266v523.8c0 124.6 104.2 226.3 231.4 226.3h20.3l506-48.3c134.7-12.8 233.9-122.1 233.9-251.7z m0 0" fill="#F06000" p-id="8202"></path></svg>