<svg id="svg" version="1.1" xmlns="http://www.w3.org/2000/svg" xmlns:xlink="http://www.w3.org/1999/xlink" width="47" height="47" viewBox="0 0 400 400"><g id="svgg"><path id="path0" d="M195.230 55.217 C 186.636 57.481,183.613 63.233,183.603 77.338 C 183.598 84.296,182.709 85.152,174.146 86.447 C 171.096 86.908,167.610 87.696,166.400 88.199 C 165.190 88.701,162.779 89.403,161.042 89.759 C 159.305 90.115,157.325 90.747,156.642 91.164 C 155.959 91.581,154.053 92.320,152.406 92.806 C 150.759 93.292,148.994 94.018,148.484 94.420 C 147.974 94.821,146.410 95.531,145.009 95.997 C 143.607 96.463,142.260 97.087,142.015 97.382 C 141.769 97.678,140.541 98.326,139.284 98.823 C 138.028 99.320,136.640 100.038,136.200 100.419 C 135.760 100.800,134.500 101.589,133.400 102.171 C 132.300 102.754,130.835 103.629,130.144 104.115 C 129.453 104.602,128.373 105.312,127.744 105.694 C 127.115 106.076,125.463 107.201,124.074 108.194 C 121.233 110.226,121.519 110.140,119.492 109.577 C 118.375 109.267,116.701 107.892,113.038 104.279 C 105.845 97.182,104.197 96.248,98.552 96.063 C 94.648 95.935,93.889 96.021,92.352 96.768 C 89.001 98.395,87.182 99.675,86.589 100.822 C 86.260 101.457,85.649 102.160,85.229 102.384 C 83.875 103.109,83.003 106.560,83.001 111.200 C 82.999 117.949,83.688 119.219,91.786 127.397 C 97.539 133.206,97.443 135.020,90.980 142.541 C 90.441 143.169,90.000 143.920,90.000 144.210 C 90.000 144.501,89.374 145.559,88.609 146.561 C 87.843 147.564,86.935 149.063,86.590 149.892 C 86.245 150.721,85.529 152.030,84.998 152.800 C 84.467 153.570,83.759 154.977,83.425 155.926 C 83.090 156.876,82.472 158.138,82.049 158.731 C 81.627 159.323,80.908 160.948,80.450 162.342 C 79.993 163.735,79.269 165.444,78.843 166.138 C 78.416 166.832,77.766 168.566,77.399 169.991 C 77.032 171.415,76.379 173.305,75.948 174.191 C 75.517 175.076,74.707 177.955,74.149 180.589 C 73.590 183.223,72.974 185.675,72.779 186.038 C 69.303 192.535,69.310 232.057,72.790 242.171 C 73.205 243.378,73.841 245.949,74.203 247.883 C 74.565 249.817,75.372 252.570,75.997 254.000 C 76.622 255.430,77.263 257.320,77.422 258.200 C 77.580 259.080,78.293 260.970,79.005 262.400 C 79.717 263.830,80.426 265.579,80.579 266.287 C 80.732 266.994,81.257 268.164,81.745 268.887 C 82.233 269.609,83.053 271.240,83.567 272.511 C 84.081 273.781,84.843 275.256,85.261 275.787 C 85.679 276.319,86.273 277.356,86.581 278.092 C 86.888 278.828,87.738 280.344,88.470 281.460 C 89.201 282.577,90.115 284.010,90.500 284.645 C 92.326 287.654,97.301 294.404,100.345 298.000 C 102.581 300.642,115.106 313.000,117.253 314.683 C 119.411 316.375,121.068 317.655,124.400 320.202 C 125.390 320.959,127.045 322.031,128.078 322.585 C 129.110 323.138,130.100 323.820,130.278 324.100 C 130.455 324.380,131.551 325.045,132.713 325.579 C 133.875 326.112,135.033 326.798,135.286 327.104 C 135.539 327.409,136.920 328.191,138.355 328.841 C 139.790 329.492,141.242 330.273,141.582 330.577 C 141.922 330.881,143.231 331.491,144.492 331.932 C 145.752 332.373,147.282 333.079,147.892 333.502 C 148.501 333.924,149.900 334.508,151.000 334.798 C 152.100 335.089,153.845 335.746,154.878 336.259 C 155.911 336.772,158.474 337.638,160.574 338.183 C 162.673 338.729,164.888 339.432,165.496 339.746 C 166.103 340.060,168.852 340.693,171.605 341.152 C 174.357 341.611,177.507 342.251,178.604 342.574 C 185.922 344.729,214.078 344.729,221.396 342.574 C 222.493 342.251,225.643 341.611,228.395 341.152 C 231.148 340.693,233.897 340.060,234.504 339.746 C 235.112 339.432,237.327 338.729,239.426 338.183 C 241.526 337.638,244.089 336.772,245.122 336.259 C 246.155 335.746,247.900 335.089,249.000 334.798 C 250.100 334.508,251.499 333.924,252.108 333.502 C 252.718 333.079,254.248 332.373,255.508 331.932 C 256.769 331.491,258.078 330.881,258.418 330.577 C 258.758 330.273,260.210 329.492,261.645 328.841 C 263.080 328.191,264.461 327.409,264.714 327.104 C 264.967 326.798,266.125 326.112,267.287 325.579 C 268.449 325.045,269.545 324.380,269.722 324.100 C 269.900 323.820,270.890 323.138,271.922 322.585 C 272.955 322.031,274.610 320.959,275.600 320.202 C 278.865 317.706,280.573 316.387,282.751 314.683 C 284.864 313.029,297.305 300.745,299.646 298.000 C 301.426 295.913,303.612 293.104,305.311 290.720 C 308.225 286.631,308.805 285.791,309.500 284.645 C 309.885 284.010,310.799 282.577,311.530 281.460 C 312.262 280.344,313.112 278.828,313.419 278.092 C 313.727 277.356,314.321 276.319,314.739 275.787 C 315.157 275.256,315.919 273.781,316.433 272.511 C 316.947 271.240,317.767 269.609,318.255 268.887 C 318.743 268.164,319.268 266.994,319.421 266.287 C 319.574 265.579,320.283 263.830,320.995 262.400 C 321.707 260.970,322.420 259.080,322.578 258.200 C 322.737 257.320,323.378 255.430,324.003 254.000 C 324.628 252.570,325.435 249.817,325.797 247.883 C 326.159 245.949,326.795 243.378,327.210 242.171 C 330.690 232.057,330.697 192.535,327.221 186.038 C 327.026 185.675,326.410 183.223,325.851 180.589 C 325.293 177.955,324.483 175.076,324.052 174.191 C 323.621 173.305,322.968 171.415,322.601 169.991 C 322.234 168.566,321.584 166.832,321.157 166.138 C 320.731 165.444,320.007 163.735,319.550 162.342 C 319.092 160.948,318.373 159.323,317.951 158.731 C 317.528 158.138,316.910 156.876,316.575 155.926 C 316.241 154.977,315.533 153.570,315.002 152.800 C 314.471 152.030,313.755 150.721,313.410 149.892 C 313.065 149.063,312.157 147.564,311.391 146.561 C 310.626 145.559,310.000 144.483,310.000 144.169 C 310.000 143.856,309.655 143.255,309.234 142.834 C 308.813 142.413,307.778 141.039,306.934 139.781 C 306.090 138.523,304.905 136.762,304.300 135.867 C 302.521 133.234,303.047 129.659,305.400 128.400 C 305.876 128.146,306.554 127.448,306.907 126.850 C 307.260 126.252,307.991 125.526,308.531 125.237 C 309.070 124.948,309.703 124.291,309.938 123.777 C 310.172 123.263,310.802 122.555,311.338 122.204 C 311.874 121.853,313.181 120.088,314.243 118.283 L 316.173 115.000 316.175 110.800 L 316.178 106.600 314.292 103.413 C 312.142 99.780,308.483 96.700,305.500 96.012 C 300.944 94.961,294.692 95.754,292.486 97.663 C 291.763 98.288,291.025 98.800,290.846 98.800 C 290.666 98.800,288.433 100.875,285.883 103.411 C 280.167 109.095,279.243 109.563,276.312 108.265 C 275.150 107.750,273.941 107.016,273.625 106.633 C 273.309 106.251,272.197 105.505,271.153 104.976 C 270.110 104.448,269.141 103.828,269.000 103.600 C 268.859 103.372,267.811 102.718,266.672 102.148 C 265.532 101.578,264.240 100.800,263.800 100.419 C 263.360 100.038,261.972 99.320,260.716 98.823 C 259.459 98.326,258.231 97.678,257.985 97.382 C 257.740 97.087,256.393 96.463,254.991 95.997 C 253.590 95.531,252.026 94.821,251.516 94.420 C 251.006 94.018,249.241 93.292,247.594 92.806 C 245.947 92.320,244.041 91.581,243.358 91.164 C 242.675 90.747,240.695 90.115,238.958 89.759 C 237.221 89.403,234.810 88.701,233.600 88.198 C 232.362 87.684,228.864 86.903,225.600 86.413 C 214.973 84.817,215.062 84.920,214.800 73.859 C 214.614 65.985,214.538 65.303,213.709 64.000 C 213.219 63.230,212.426 61.851,211.947 60.936 C 211.468 60.021,210.663 59.084,210.159 58.854 C 209.655 58.624,208.953 57.995,208.600 57.456 C 208.121 56.725,207.177 56.273,204.879 55.673 C 200.074 54.419,198.537 54.346,195.230 55.217 M213.259 110.824 C 215.161 111.034,217.449 111.465,218.344 111.780 C 219.239 112.096,222.082 112.732,224.661 113.194 C 227.241 113.656,229.992 114.381,230.776 114.804 C 231.559 115.228,233.370 115.864,234.800 116.217 C 236.230 116.570,238.172 117.308,239.116 117.856 C 240.060 118.404,241.680 119.108,242.716 119.420 C 243.752 119.732,245.230 120.384,246.000 120.870 C 246.770 121.355,248.390 122.261,249.600 122.883 C 252.397 124.320,256.526 126.769,256.794 127.150 C 256.907 127.311,257.720 127.870,258.600 128.394 C 259.480 128.917,260.864 129.897,261.675 130.573 C 262.487 131.248,264.083 132.520,265.223 133.400 C 267.365 135.055,276.734 144.272,279.200 147.151 C 282.423 150.914,282.902 151.509,284.559 153.800 C 285.514 155.120,286.616 156.830,287.009 157.600 C 287.402 158.370,287.962 159.180,288.254 159.400 C 288.546 159.620,289.319 160.909,289.972 162.264 C 290.624 163.619,291.326 164.830,291.530 164.957 C 291.734 165.083,292.318 166.224,292.826 167.493 C 293.334 168.762,294.153 170.430,294.645 171.200 C 295.138 171.970,295.750 173.399,296.006 174.376 C 296.262 175.353,296.899 176.973,297.420 177.976 C 297.942 178.979,298.742 181.409,299.199 183.376 C 299.655 185.343,300.183 187.143,300.373 187.376 C 301.036 188.193,301.613 191.057,302.423 197.550 C 302.872 201.153,303.411 205.003,303.620 206.105 C 304.196 209.145,304.076 219.397,303.416 223.430 C 303.094 225.393,302.538 229.430,302.179 232.400 C 301.773 235.764,301.172 238.705,300.584 240.200 C 300.065 241.520,299.340 243.950,298.971 245.600 C 298.603 247.250,297.892 249.320,297.392 250.200 C 296.891 251.080,296.197 252.807,295.848 254.037 C 295.500 255.267,294.883 256.707,294.479 257.237 C 294.074 257.767,293.328 259.240,292.821 260.511 C 292.313 261.781,291.557 263.256,291.139 263.787 C 290.721 264.319,290.095 265.433,289.748 266.264 C 289.400 267.095,288.762 268.230,288.329 268.787 C 287.896 269.344,287.013 270.610,286.366 271.600 C 283.445 276.074,283.537 275.957,277.704 282.600 C 274.528 286.216,272.362 288.395,268.048 292.315 C 267.251 293.038,266.150 294.048,265.600 294.558 C 265.050 295.068,264.015 295.820,263.300 296.229 C 262.585 296.638,262.000 297.101,262.000 297.258 C 262.000 297.415,260.387 298.591,258.415 299.872 C 256.444 301.152,254.239 302.602,253.515 303.094 C 252.792 303.586,251.245 304.444,250.077 305.000 C 248.909 305.556,247.469 306.365,246.877 306.798 C 246.285 307.232,244.733 307.951,243.428 308.396 C 242.123 308.842,240.773 309.458,240.428 309.766 C 240.083 310.074,238.450 310.716,236.800 311.193 C 235.150 311.670,233.130 312.415,232.310 312.850 C 231.491 313.284,229.011 313.990,226.800 314.419 C 224.588 314.848,221.749 315.544,220.490 315.966 C 213.533 318.299,186.467 318.299,179.510 315.966 C 178.251 315.544,175.412 314.848,173.200 314.419 C 170.989 313.990,168.509 313.284,167.690 312.850 C 166.870 312.415,164.850 311.670,163.200 311.193 C 161.550 310.716,159.917 310.074,159.572 309.766 C 159.227 309.458,157.877 308.842,156.572 308.396 C 155.267 307.951,153.715 307.232,153.123 306.798 C 152.531 306.365,151.091 305.556,149.923 305.000 C 148.755 304.444,147.208 303.586,146.484 303.094 C 145.760 302.602,143.722 301.262,141.955 300.116 C 138.408 297.815,136.143 296.047,131.450 291.917 C 126.860 287.877,125.630 286.572,117.764 277.400 C 116.695 276.154,115.636 274.667,113.634 271.600 C 112.987 270.610,112.104 269.344,111.671 268.787 C 111.238 268.230,110.600 267.095,110.252 266.264 C 109.905 265.433,109.279 264.319,108.861 263.787 C 108.443 263.256,107.687 261.781,107.179 260.511 C 106.672 259.240,105.926 257.767,105.521 257.237 C 105.117 256.707,104.500 255.267,104.152 254.037 C 103.803 252.807,103.109 251.080,102.608 250.200 C 102.108 249.320,101.397 247.250,101.029 245.600 C 100.660 243.950,99.935 241.520,99.416 240.200 C 98.828 238.705,98.227 235.764,97.821 232.400 C 97.462 229.430,96.906 225.393,96.584 223.430 C 95.917 219.351,95.814 209.759,96.399 206.200 C 96.616 204.880,97.154 200.920,97.594 197.400 C 98.388 191.043,98.967 188.189,99.627 187.376 C 99.817 187.143,100.345 185.343,100.801 183.376 C 101.258 181.409,102.058 178.979,102.580 177.976 C 103.101 176.973,103.738 175.353,103.994 174.376 C 104.250 173.399,104.862 171.970,105.355 171.200 C 105.847 170.430,106.666 168.762,107.174 167.493 C 107.682 166.224,108.266 165.083,108.470 164.957 C 108.674 164.830,109.376 163.619,110.028 162.264 C 110.681 160.909,111.454 159.620,111.746 159.400 C 112.038 159.180,112.598 158.370,112.991 157.600 C 113.384 156.830,114.486 155.120,115.441 153.800 C 117.098 151.509,117.577 150.914,120.800 147.151 C 123.266 144.272,132.635 135.055,134.777 133.400 C 135.917 132.520,137.513 131.248,138.325 130.573 C 139.136 129.897,140.520 128.917,141.400 128.394 C 142.280 127.870,143.093 127.311,143.206 127.150 C 143.474 126.769,147.603 124.320,150.400 122.883 C 151.610 122.261,153.230 121.355,154.000 120.870 C 154.770 120.384,156.248 119.732,157.284 119.420 C 158.320 119.108,159.940 118.404,160.884 117.856 C 161.828 117.308,163.770 116.570,165.200 116.217 C 166.630 115.864,168.441 115.228,169.224 114.804 C 170.008 114.381,172.759 113.656,175.339 113.194 C 177.918 112.732,180.699 112.118,181.519 111.828 C 186.189 110.181,202.715 109.658,213.259 110.824 M176.327 160.797 C 173.899 161.109,167.553 163.984,166.690 165.164 C 166.420 165.532,165.615 166.243,164.900 166.744 C 164.185 167.245,163.600 167.886,163.600 168.169 C 163.600 168.452,163.126 169.194,162.547 169.819 C 158.919 173.734,158.748 175.902,158.898 216.000 L 159.027 250.600 160.025 254.000 C 162.539 262.566,170.757 268.509,180.000 268.447 C 183.123 268.425,189.648 266.809,190.648 265.809 C 191.042 265.415,192.476 264.594,193.835 263.984 C 195.194 263.374,196.434 262.669,196.590 262.416 C 196.746 262.164,197.886 261.510,199.123 260.962 C 200.360 260.415,201.656 259.711,202.003 259.398 C 202.600 258.857,204.800 257.629,209.485 255.222 C 210.632 254.633,211.898 253.855,212.299 253.492 C 212.699 253.129,214.040 252.385,215.277 251.838 C 216.514 251.290,217.657 250.631,217.818 250.372 C 217.978 250.113,219.241 249.387,220.625 248.760 C 222.009 248.132,223.266 247.417,223.418 247.172 C 223.570 246.926,224.822 246.218,226.200 245.600 C 227.578 244.982,228.838 244.262,229.000 244.000 C 229.162 243.738,230.398 242.984,231.747 242.324 C 236.512 239.994,239.177 238.545,239.895 237.895 C 240.295 237.533,241.648 236.767,242.903 236.193 C 244.158 235.618,245.290 234.977,245.419 234.768 C 245.549 234.560,246.407 234.008,247.327 233.543 C 249.954 232.215,253.914 228.816,255.006 226.954 C 255.553 226.020,256.288 224.969,256.639 224.618 C 259.562 221.695,259.271 207.576,256.212 203.942 C 255.656 203.280,255.200 202.568,255.200 202.360 C 255.200 201.892,250.876 197.600,250.404 197.600 C 250.216 197.600,249.492 197.121,248.797 196.536 C 248.102 195.951,246.489 194.979,245.214 194.376 C 243.940 193.773,242.768 193.072,242.611 192.818 C 242.455 192.565,241.355 191.928,240.168 191.403 C 238.981 190.878,237.423 190.009,236.705 189.471 C 235.987 188.933,234.954 188.357,234.409 188.191 C 233.864 188.025,232.539 187.284,231.464 186.544 C 230.390 185.805,229.287 185.200,229.015 185.200 C 228.743 185.200,227.769 184.656,226.851 183.991 C 225.933 183.326,224.219 182.356,223.042 181.836 C 221.865 181.315,220.776 180.685,220.622 180.435 C 220.468 180.186,219.209 179.468,217.825 178.840 C 216.441 178.213,215.178 177.487,215.018 177.228 C 214.857 176.969,213.798 176.319,212.663 175.784 C 211.528 175.249,209.250 174.001,207.600 173.011 C 205.950 172.020,203.488 170.672,202.129 170.015 C 200.771 169.357,199.532 168.614,199.378 168.365 C 199.224 168.115,198.086 167.466,196.849 166.922 C 195.612 166.378,194.240 165.606,193.800 165.205 C 193.360 164.804,191.830 163.991,190.400 163.399 C 188.970 162.806,187.514 162.067,187.165 161.757 C 186.014 160.736,180.563 160.253,176.327 160.797 M187.376 186.622 C 189.169 187.551,191.327 188.782,192.173 189.356 C 193.019 189.930,193.930 190.400,194.196 190.400 C 194.462 190.400,195.415 190.933,196.314 191.584 C 197.213 192.235,198.633 193.054,199.469 193.403 C 200.305 193.752,201.352 194.375,201.795 194.786 C 202.238 195.197,203.612 195.978,204.849 196.522 C 206.086 197.066,207.214 197.699,207.356 197.930 C 207.499 198.160,208.642 198.818,209.897 199.393 C 211.152 199.967,212.484 200.714,212.857 201.051 C 213.230 201.389,214.585 202.162,215.868 202.769 C 217.150 203.377,218.439 204.163,218.732 204.516 C 219.025 204.870,219.925 205.377,220.732 205.643 C 221.539 205.909,223.075 206.728,224.145 207.463 C 225.215 208.198,226.326 208.800,226.614 208.800 C 226.903 208.800,227.647 209.220,228.269 209.734 C 228.891 210.248,230.335 211.170,231.477 211.785 C 233.889 213.082,234.208 213.638,233.418 215.166 C 232.747 216.463,230.205 218.800,229.464 218.800 C 229.185 218.800,228.066 219.381,226.978 220.091 C 224.895 221.451,222.881 222.579,218.807 224.667 C 217.448 225.364,216.030 226.211,215.657 226.549 C 215.284 226.886,213.952 227.633,212.697 228.207 C 211.442 228.782,210.297 229.442,210.153 229.676 C 210.009 229.909,208.759 230.613,207.375 231.240 C 205.991 231.868,204.732 232.586,204.578 232.836 C 204.423 233.086,203.465 233.657,202.448 234.105 C 201.432 234.553,200.060 235.321,199.400 235.812 C 198.740 236.302,197.374 237.062,196.364 237.501 C 195.354 237.940,194.151 238.621,193.691 239.015 C 193.230 239.409,191.987 240.107,190.927 240.566 C 189.867 241.025,188.589 241.760,188.087 242.200 C 185.399 244.556,181.560 244.608,180.993 242.295 C 180.873 241.803,180.825 228.919,180.887 213.665 L 181.000 185.929 181.920 185.185 C 182.967 184.336,182.977 184.339,187.376 186.622 " stroke="none" fill="#202025" fill-rule="evenodd"></path><path id="path1" d="M185.200 113.810 C 179.703 114.573,174.952 115.429,174.379 115.761 C 173.817 116.086,171.528 116.805,169.292 117.358 C 167.056 117.911,164.803 118.642,164.284 118.982 C 163.765 119.322,162.044 120.041,160.459 120.580 C 158.874 121.119,157.122 121.918,156.566 122.356 C 156.010 122.793,154.679 123.442,153.608 123.797 C 152.538 124.153,151.423 124.732,151.131 125.083 C 150.839 125.435,149.520 126.208,148.200 126.800 C 146.880 127.392,145.544 128.185,145.232 128.562 C 144.919 128.938,144.109 129.505,143.432 129.821 C 142.754 130.138,141.390 131.032,140.400 131.810 C 139.410 132.587,137.731 133.893,136.668 134.712 C 133.180 137.399,129.017 141.384,122.844 147.947 C 121.940 148.908,121.200 149.811,121.200 149.954 C 121.200 150.098,120.465 151.104,119.567 152.191 C 118.669 153.277,117.696 154.624,117.405 155.183 C 117.114 155.742,116.409 156.636,115.838 157.170 C 115.267 157.703,114.800 158.342,114.800 158.588 C 114.800 158.835,113.990 160.271,113.000 161.778 C 112.010 163.285,111.200 164.748,111.200 165.029 C 111.200 165.309,110.745 166.080,110.188 166.741 C 109.632 167.403,108.819 168.991,108.381 170.272 C 107.944 171.552,107.234 173.082,106.803 173.670 C 106.372 174.259,105.643 176.149,105.181 177.869 C 104.720 179.590,104.013 181.538,103.610 182.199 C 103.207 182.859,102.491 185.319,102.020 187.665 C 101.549 190.011,100.823 192.901,100.406 194.088 C 98.291 200.103,98.291 228.546,100.405 234.111 C 100.832 235.232,101.553 238.051,102.008 240.375 C 102.463 242.699,103.170 245.230,103.578 246.000 C 103.987 246.770,104.719 248.747,105.206 250.394 C 105.692 252.041,106.418 253.806,106.820 254.316 C 107.221 254.826,107.928 256.383,108.392 257.775 C 108.855 259.168,109.565 260.607,109.970 260.973 C 110.375 261.339,111.021 262.485,111.406 263.520 C 111.790 264.554,112.515 265.850,113.015 266.400 C 113.516 266.950,114.212 268.030,114.561 268.800 C 115.175 270.152,116.688 272.277,119.120 275.200 C 119.760 275.970,120.483 276.980,120.726 277.444 C 121.200 278.349,123.031 280.423,125.900 283.303 C 133.833 291.267,138.649 295.391,143.100 298.031 C 144.255 298.716,145.200 299.422,145.200 299.600 C 145.200 299.779,146.325 300.488,147.700 301.176 C 150.660 302.657,152.681 303.747,155.394 305.325 C 156.491 305.962,158.492 306.825,159.839 307.241 C 161.187 307.657,162.720 308.336,163.246 308.750 C 163.772 309.164,165.281 309.721,166.601 309.990 C 167.920 310.258,170.288 310.987,171.861 311.611 C 173.601 312.300,176.523 312.994,179.317 313.380 C 181.843 313.729,185.506 314.368,187.455 314.799 C 192.611 315.939,207.389 315.939,212.545 314.799 C 214.494 314.368,218.157 313.729,220.683 313.380 C 223.477 312.994,226.399 312.300,228.139 311.611 C 229.712 310.987,232.080 310.258,233.399 309.990 C 234.719 309.721,236.228 309.164,236.754 308.750 C 237.280 308.336,238.887 307.635,240.324 307.191 C 241.762 306.747,243.195 306.162,243.509 305.892 C 244.037 305.437,245.700 304.549,252.300 301.195 C 253.675 300.496,254.800 299.779,254.800 299.600 C 254.800 299.422,255.745 298.716,256.900 298.031 C 261.373 295.378,266.130 291.300,274.200 283.203 C 276.967 280.426,278.804 278.341,279.274 277.444 C 279.517 276.980,280.240 275.970,280.880 275.200 C 283.312 272.277,284.825 270.152,285.439 268.800 C 285.788 268.030,286.484 266.950,286.985 266.400 C 287.485 265.850,288.210 264.554,288.594 263.520 C 288.979 262.485,289.625 261.339,290.030 260.973 C 290.435 260.607,291.145 259.168,291.608 257.775 C 292.072 256.383,292.779 254.826,293.180 254.316 C 293.582 253.806,294.308 252.041,294.794 250.394 C 295.281 248.747,296.013 246.770,296.422 246.000 C 296.830 245.230,297.537 242.699,297.992 240.375 C 298.447 238.051,299.168 235.232,299.595 234.111 C 301.709 228.546,301.709 200.103,299.594 194.088 C 299.177 192.901,298.451 190.011,297.980 187.665 C 297.509 185.319,296.793 182.859,296.390 182.199 C 295.987 181.538,295.280 179.590,294.819 177.869 C 294.357 176.149,293.628 174.259,293.197 173.670 C 292.766 173.082,292.056 171.552,291.619 170.272 C 291.181 168.991,290.368 167.403,289.812 166.741 C 289.255 166.080,288.800 165.309,288.800 165.029 C 288.800 164.748,287.990 163.285,287.000 161.778 C 286.010 160.271,285.200 158.835,285.200 158.588 C 285.200 158.342,284.733 157.703,284.162 157.170 C 283.591 156.636,282.886 155.742,282.595 155.183 C 282.304 154.624,281.331 153.277,280.433 152.191 C 279.535 151.104,278.800 150.098,278.800 149.954 C 278.800 149.678,277.137 147.841,273.881 144.519 C 270.203 140.767,269.406 139.987,267.014 137.800 C 266.051 136.920,264.394 135.530,263.332 134.712 C 262.269 133.893,260.590 132.587,259.600 131.810 C 258.610 131.032,257.246 130.138,256.568 129.821 C 255.891 129.505,255.081 128.938,254.768 128.562 C 254.456 128.185,253.120 127.392,251.800 126.800 C 250.480 126.208,249.161 125.435,248.869 125.083 C 248.577 124.732,247.462 124.153,246.392 123.797 C 245.321 123.442,243.990 122.793,243.434 122.356 C 242.878 121.918,241.126 121.119,239.541 120.580 C 237.956 120.041,236.235 119.322,235.716 118.982 C 235.197 118.642,232.934 117.911,230.686 117.357 C 228.439 116.803,226.213 116.099,225.741 115.792 C 224.328 114.876,207.384 112.678,200.800 112.558 C 195.989 112.470,193.330 112.683,185.200 113.810 M183.610 158.814 C 187.593 159.300,189.499 159.839,190.600 160.788 C 191.040 161.168,192.570 162.060,194.000 162.771 C 197.969 164.745,200.405 166.090,202.578 167.509 C 203.666 168.219,204.778 168.800,205.048 168.800 C 205.318 168.800,206.058 169.237,206.693 169.771 C 207.328 170.305,208.848 171.185,210.072 171.727 C 211.296 172.268,212.424 172.915,212.578 173.165 C 212.732 173.414,213.991 174.132,215.375 174.760 C 216.759 175.387,218.022 176.113,218.182 176.372 C 218.343 176.631,219.490 177.292,220.733 177.842 C 221.975 178.391,223.354 179.170,223.796 179.573 C 224.238 179.975,225.283 180.545,226.118 180.839 C 226.952 181.133,228.024 181.739,228.499 182.187 C 228.974 182.634,230.262 183.385,231.362 183.857 C 232.461 184.328,233.756 185.094,234.240 185.560 C 234.724 186.026,235.891 186.679,236.833 187.012 C 237.775 187.344,239.109 188.046,239.798 188.571 C 240.487 189.097,241.757 189.822,242.620 190.183 C 243.483 190.543,244.552 191.177,244.995 191.592 C 245.438 192.007,246.613 192.694,247.606 193.118 C 248.599 193.543,249.667 194.198,249.979 194.575 C 250.291 194.951,251.189 195.589,251.973 195.993 C 254.478 197.282,258.470 202.246,259.375 205.200 C 259.679 206.190,260.259 207.630,260.664 208.400 C 261.740 210.446,261.743 219.314,260.668 220.953 C 260.266 221.567,259.679 222.936,259.364 223.996 C 258.396 227.256,253.441 232.856,249.967 234.617 C 248.916 235.149,247.931 235.788,247.777 236.037 C 247.623 236.286,246.486 236.934,245.249 237.478 C 244.012 238.022,242.638 238.803,242.195 239.214 C 241.752 239.625,240.683 240.257,239.820 240.617 C 238.957 240.978,237.699 241.692,237.025 242.203 C 236.351 242.715,234.990 243.446,234.000 243.827 C 233.010 244.209,231.809 244.873,231.331 245.302 C 230.853 245.730,229.503 246.525,228.331 247.067 C 227.159 247.609,225.840 248.376,225.400 248.771 C 224.960 249.166,224.060 249.672,223.400 249.896 C 222.740 250.119,221.237 250.954,220.060 251.751 C 218.883 252.548,217.682 253.200,217.390 253.200 C 217.099 253.200,216.323 253.653,215.665 254.207 C 215.006 254.761,213.479 255.651,212.271 256.186 C 211.062 256.720,209.954 257.351,209.807 257.588 C 209.661 257.825,208.409 258.532,207.025 259.160 C 205.641 259.787,204.378 260.513,204.218 260.772 C 204.057 261.031,202.955 261.672,201.768 262.197 C 200.581 262.722,199.023 263.591,198.305 264.129 C 197.587 264.667,196.550 265.243,196.000 265.408 C 195.450 265.574,194.508 266.121,193.906 266.624 C 193.305 267.126,191.856 267.896,190.688 268.333 C 189.520 268.770,187.762 269.549,186.782 270.064 C 183.978 271.537,175.935 271.457,172.800 269.925 C 171.590 269.334,169.790 268.480,168.800 268.027 C 166.495 266.973,163.315 264.432,162.306 262.840 C 161.875 262.158,161.349 261.600,161.139 261.600 C 160.928 261.600,160.294 260.565,159.730 259.300 C 159.166 258.035,158.231 256.010,157.652 254.800 L 156.600 252.600 156.600 214.600 L 156.600 176.600 157.852 174.000 C 158.541 172.570,159.241 170.952,159.409 170.405 C 159.950 168.642,165.574 162.427,166.645 162.408 C 166.890 162.404,167.769 161.860,168.599 161.201 C 170.244 159.894,171.995 159.311,175.755 158.820 C 179.304 158.357,179.868 158.357,183.610 158.814 " stroke="none" fill="#f9f9fa" fill-rule="evenodd"></path><path id="path2" d="M30.000 0.800 C 30.000 1.566,29.023 1.861,27.270 1.623 C 26.534 1.523,24.000 3.518,24.000 4.197 C 24.000 4.566,23.427 4.795,22.300 4.877 C 20.768 4.988,20.562 5.129,20.217 6.300 C 19.948 7.214,19.592 7.602,19.017 7.606 C 17.799 7.615,17.331 8.059,17.018 9.500 C 16.826 10.388,16.493 10.816,15.968 10.850 C 15.546 10.878,14.975 10.922,14.700 10.950 C 14.425 10.978,14.145 11.664,14.077 12.477 C 13.962 13.865,13.865 13.962,12.477 14.077 C 11.664 14.145,10.978 14.425,10.950 14.700 C 10.922 14.975,10.877 15.546,10.850 15.968 C 10.816 16.493,10.388 16.826,9.500 17.018 C 8.059 17.331,7.615 17.799,7.606 19.017 C 7.602 19.592,7.214 19.948,6.300 20.217 C 5.004 20.599,5.000 20.609,4.882 23.500 C 4.770 26.265,4.719 26.402,3.782 26.450 C 3.242 26.477,2.575 26.523,2.300 26.550 C 1.963 26.584,1.762 27.544,1.682 29.500 C 1.578 32.072,1.476 32.400,0.782 32.400 C 0.007 32.400,0.000 33.918,0.000 200.000 C 0.000 366.082,0.007 367.600,0.782 367.600 C 1.476 367.600,1.578 367.928,1.682 370.500 C 1.762 372.456,1.963 373.416,2.300 373.450 C 2.575 373.478,3.242 373.523,3.782 373.550 C 4.719 373.598,4.770 373.735,4.882 376.500 C 5.000 379.391,5.004 379.401,6.300 379.783 C 7.214 380.052,7.602 380.408,7.606 380.983 C 7.615 382.201,8.059 382.669,9.500 382.982 C 10.388 383.174,10.816 383.507,10.850 384.032 C 10.877 384.454,10.922 385.025,10.950 385.300 C 10.978 385.575,11.664 385.855,12.477 385.923 C 13.865 386.038,13.962 386.135,14.077 387.523 C 14.145 388.336,14.425 389.022,14.700 389.050 C 14.975 389.078,15.546 389.123,15.968 389.150 C 16.493 389.184,16.826 389.612,17.018 390.500 C 17.331 391.941,17.799 392.385,19.017 392.394 C 19.592 392.398,19.948 392.786,20.217 393.700 C 20.562 394.871,20.768 395.012,22.300 395.123 C 23.427 395.205,24.000 395.434,24.000 395.803 C 24.000 396.482,26.534 398.477,27.270 398.377 C 29.023 398.139,30.000 398.434,30.000 399.200 C 30.000 399.999,30.267 400.000,200.000 400.000 C 369.733 400.000,370.000 399.999,370.000 399.200 C 370.000 398.434,370.977 398.139,372.730 398.377 C 373.466 398.477,376.000 396.482,376.000 395.803 C 376.000 395.434,376.573 395.205,377.700 395.123 C 379.232 395.012,379.438 394.871,379.783 393.700 C 380.052 392.786,380.408 392.398,380.983 392.394 C 382.201 392.385,382.669 391.941,382.982 390.500 C 383.174 389.612,383.507 389.184,384.032 389.150 C 384.454 389.123,385.025 389.078,385.300 389.050 C 385.575 389.022,385.855 388.336,385.923 387.523 C 386.038 386.135,386.135 386.038,387.523 385.923 C 388.336 385.855,389.022 385.575,389.050 385.300 C 389.078 385.025,389.123 384.454,389.150 384.032 C 389.184 383.507,389.612 383.174,390.500 382.982 C 391.941 382.669,392.385 382.201,392.394 380.983 C 392.398 380.408,392.786 380.052,393.700 379.783 C 394.996 379.401,395.000 379.391,395.118 376.500 C 395.230 373.735,395.281 373.598,396.218 373.550 C 396.758 373.523,397.425 373.478,397.700 373.450 C 398.037 373.416,398.238 372.456,398.318 370.500 C 398.422 367.928,398.524 367.600,399.218 367.600 C 399.993 367.600,400.000 366.082,400.000 200.000 C 400.000 33.918,399.993 32.400,399.218 32.400 C 398.524 32.400,398.422 32.072,398.318 29.500 C 398.238 27.544,398.037 26.584,397.700 26.550 C 397.425 26.523,396.758 26.477,396.218 26.450 C 395.281 26.402,395.230 26.265,395.118 23.500 C 395.000 20.609,394.996 20.599,393.700 20.217 C 392.786 19.948,392.398 19.592,392.394 19.017 C 392.385 17.799,391.941 17.331,390.500 17.018 C 389.612 16.826,389.184 16.493,389.150 15.968 C 389.123 15.546,389.078 14.975,389.050 14.700 C 389.022 14.425,388.336 14.145,387.523 14.077 C 386.135 13.962,386.038 13.865,385.923 12.477 C 385.855 11.664,385.575 10.978,385.300 10.950 C 385.025 10.922,384.454 10.877,384.032 10.850 C 383.507 10.816,383.174 10.388,382.982 9.500 C 382.669 8.059,382.201 7.615,380.983 7.606 C 380.408 7.602,380.052 7.214,379.783 6.300 C 379.438 5.129,379.232 4.988,377.700 4.877 C 376.573 4.795,376.000 4.566,376.000 4.197 C 376.000 3.518,373.466 1.523,372.730 1.623 C 370.977 1.861,370.000 1.566,370.000 0.800 C 370.000 0.001,369.733 0.000,200.000 0.000 C 30.267 0.000,30.000 0.001,30.000 0.800 M205.835 53.244 C 206.696 53.817,207.978 54.511,208.685 54.785 C 209.876 55.248,211.719 57.073,214.557 60.602 C 216.222 62.671,216.821 65.706,217.046 73.200 C 217.328 82.629,217.044 82.117,222.521 83.068 C 224.251 83.368,226.146 83.859,226.733 84.160 C 227.320 84.460,229.690 85.001,232.000 85.361 C 234.527 85.756,236.997 86.413,238.200 87.011 C 239.300 87.557,241.190 88.183,242.400 88.403 C 243.610 88.622,245.680 89.333,247.000 89.982 C 248.320 90.631,250.140 91.351,251.045 91.582 C 251.950 91.813,253.319 92.428,254.087 92.949 C 254.855 93.471,256.365 94.191,257.442 94.550 C 258.519 94.909,260.210 95.741,261.200 96.400 C 262.190 97.058,263.198 97.597,263.441 97.598 C 263.683 97.599,265.115 98.410,266.622 99.400 C 268.129 100.390,269.568 101.200,269.819 101.200 C 270.070 101.200,270.619 101.579,271.038 102.043 C 271.457 102.506,272.520 103.250,273.400 103.696 C 274.280 104.142,275.758 105.048,276.684 105.710 C 278.747 107.184,278.771 107.172,283.772 102.194 C 288.562 97.425,291.362 95.227,293.542 94.523 C 294.564 94.193,296.030 93.638,296.800 93.289 C 298.571 92.486,303.272 92.495,304.514 93.303 C 305.001 93.619,306.377 94.112,307.571 94.396 C 311.083 95.233,316.238 100.385,317.482 104.300 C 318.908 108.790,318.012 118.699,316.054 120.081 C 315.650 120.367,315.025 121.171,314.666 121.868 C 314.306 122.566,313.480 123.516,312.830 123.979 C 312.179 124.442,311.534 125.178,311.395 125.615 C 311.257 126.051,310.655 126.661,310.058 126.970 C 309.460 127.279,308.739 127.967,308.455 128.498 C 308.170 129.030,307.411 129.775,306.769 130.155 C 305.260 131.046,305.076 133.802,306.441 135.038 C 306.904 135.456,307.748 136.609,308.316 137.600 C 308.885 138.590,309.856 139.991,310.475 140.714 C 311.094 141.437,311.600 142.284,311.600 142.598 C 311.600 142.911,312.042 143.580,312.581 144.084 C 313.121 144.588,314.002 145.997,314.539 147.216 C 315.076 148.435,315.798 149.666,316.143 149.952 C 316.488 150.239,317.150 151.491,317.614 152.736 C 318.078 153.981,318.782 155.360,319.179 155.800 C 319.575 156.240,320.212 157.590,320.594 158.800 C 320.975 160.010,321.705 161.630,322.216 162.400 C 322.727 163.170,323.442 164.970,323.806 166.400 C 324.170 167.830,324.840 169.606,325.295 170.346 C 325.750 171.087,326.459 173.334,326.870 175.339 C 327.282 177.344,327.979 179.730,328.419 180.640 C 328.871 181.574,329.484 184.275,329.827 186.847 C 330.160 189.351,330.802 192.970,331.253 194.889 C 333.381 203.946,333.340 226.502,331.184 233.251 C 330.753 234.600,330.400 236.153,330.400 236.701 C 330.400 239.137,329.075 246.276,328.365 247.669 C 327.935 248.512,327.304 250.686,326.963 252.501 C 326.622 254.315,325.914 256.572,325.390 257.517 C 324.866 258.461,324.152 260.351,323.803 261.717 C 323.453 263.082,322.739 264.830,322.214 265.600 C 321.690 266.370,321.051 267.810,320.794 268.800 C 320.537 269.790,319.811 271.385,319.180 272.343 C 318.550 273.302,317.824 274.742,317.568 275.543 C 317.313 276.345,316.708 277.450,316.225 278.000 C 315.742 278.550,315.015 279.810,314.611 280.800 C 314.207 281.790,313.499 282.960,313.038 283.400 C 312.577 283.840,311.860 284.960,311.445 285.888 C 311.029 286.817,310.335 287.897,309.901 288.288 C 309.468 288.680,308.691 289.833,308.175 290.850 C 307.659 291.868,306.967 292.804,306.637 292.931 C 306.306 293.057,305.671 293.877,305.225 294.751 C 304.779 295.626,304.050 296.457,303.607 296.598 C 303.163 296.739,302.800 297.113,302.800 297.430 C 302.800 299.177,287.771 314.109,282.300 317.798 C 281.475 318.355,280.800 318.984,280.800 319.197 C 280.800 319.410,280.125 319.928,279.300 320.349 C 278.475 320.770,277.440 321.513,277.000 322.000 C 276.560 322.487,275.480 323.250,274.600 323.696 C 273.720 324.143,272.409 325.023,271.686 325.654 C 270.963 326.284,270.122 326.800,269.817 326.800 C 269.511 326.800,268.728 327.249,268.076 327.797 C 267.424 328.346,266.006 329.204,264.926 329.705 C 263.845 330.206,262.464 331.006,261.858 331.483 C 261.251 331.960,259.820 332.655,258.677 333.027 C 257.535 333.399,256.330 333.928,256.000 334.203 C 255.028 335.014,253.102 335.883,251.600 336.188 C 250.830 336.345,249.536 336.902,248.725 337.426 C 247.913 337.950,246.023 338.668,244.525 339.022 C 243.026 339.377,240.881 340.110,239.758 340.651 C 238.635 341.193,235.825 341.971,233.512 342.380 C 231.199 342.789,228.766 343.404,228.104 343.746 C 226.553 344.548,223.250 345.041,215.800 345.582 C 212.500 345.821,207.595 346.202,204.900 346.428 C 201.548 346.709,198.452 346.709,195.100 346.428 C 192.405 346.202,187.500 345.821,184.200 345.582 C 176.750 345.041,173.447 344.548,171.896 343.746 C 171.234 343.404,168.801 342.789,166.488 342.380 C 164.175 341.971,161.365 341.193,160.242 340.651 C 159.119 340.110,156.974 339.377,155.475 339.022 C 153.977 338.668,152.087 337.950,151.275 337.426 C 150.464 336.902,149.170 336.345,148.400 336.188 C 146.898 335.883,144.972 335.014,144.000 334.203 C 143.670 333.928,142.465 333.399,141.323 333.027 C 140.180 332.655,138.749 331.960,138.142 331.483 C 137.536 331.006,136.155 330.206,135.074 329.705 C 133.994 329.204,132.576 328.346,131.924 327.797 C 131.272 327.249,130.489 326.800,130.183 326.800 C 129.878 326.800,129.037 326.284,128.314 325.654 C 127.591 325.023,126.280 324.141,125.400 323.693 C 124.520 323.245,123.377 322.425,122.860 321.871 C 122.344 321.317,121.408 320.652,120.780 320.392 C 120.152 320.132,119.356 319.487,119.010 318.960 C 118.664 318.432,118.144 318.000,117.853 318.000 C 117.562 318.000,116.981 317.616,116.562 317.147 C 116.143 316.677,114.900 315.616,113.800 314.788 C 109.697 311.699,97.200 298.632,97.200 297.430 C 97.200 297.113,96.837 296.739,96.393 296.598 C 95.950 296.457,95.221 295.626,94.775 294.751 C 94.329 293.877,93.694 293.057,93.363 292.931 C 93.033 292.804,92.341 291.868,91.825 290.850 C 91.309 289.833,90.532 288.680,90.099 288.288 C 89.665 287.897,88.971 286.817,88.555 285.888 C 88.140 284.960,87.423 283.840,86.962 283.400 C 86.501 282.960,85.793 281.790,85.389 280.800 C 84.985 279.810,84.258 278.550,83.775 278.000 C 83.292 277.450,82.687 276.345,82.432 275.543 C 82.176 274.742,81.450 273.302,80.820 272.343 C 80.189 271.385,79.463 269.790,79.206 268.800 C 78.949 267.810,78.310 266.370,77.786 265.600 C 77.261 264.830,76.547 263.082,76.197 261.717 C 75.848 260.351,75.134 258.461,74.610 257.517 C 74.086 256.572,73.378 254.315,73.037 252.501 C 72.696 250.686,72.065 248.512,71.635 247.669 C 70.925 246.276,69.600 239.137,69.600 236.701 C 69.600 236.153,69.247 234.600,68.816 233.251 C 66.660 226.502,66.619 203.946,68.747 194.889 C 69.198 192.970,69.840 189.351,70.173 186.847 C 70.516 184.275,71.129 181.574,71.581 180.640 C 72.021 179.730,72.718 177.344,73.130 175.339 C 73.541 173.334,74.250 171.087,74.705 170.346 C 75.160 169.606,75.830 167.830,76.194 166.400 C 76.558 164.970,77.273 163.170,77.784 162.400 C 78.295 161.630,79.025 160.010,79.406 158.800 C 79.788 157.590,80.425 156.240,80.821 155.800 C 81.218 155.360,81.922 153.981,82.386 152.736 C 82.850 151.491,83.512 150.239,83.857 149.952 C 84.202 149.666,84.924 148.435,85.461 147.216 C 85.998 145.997,86.879 144.588,87.419 144.084 C 87.958 143.580,88.400 142.911,88.400 142.598 C 88.400 142.284,88.906 141.437,89.525 140.714 C 90.144 139.991,91.166 138.500,91.796 137.400 C 92.426 136.300,93.170 135.220,93.449 135.000 C 94.762 133.964,94.622 133.760,87.528 126.369 C 84.958 123.692,82.652 120.938,82.402 120.251 C 82.152 119.563,81.528 118.190,81.017 117.200 C 79.393 114.060,79.355 107.474,80.949 105.628 C 81.247 105.283,81.805 104.157,82.189 103.127 C 82.574 102.097,83.408 100.790,84.044 100.224 C 84.680 99.657,85.200 99.017,85.200 98.802 C 85.200 98.586,85.875 97.959,86.700 97.409 C 87.525 96.858,88.650 96.049,89.200 95.610 C 90.858 94.287,97.419 93.374,100.951 93.974 C 106.684 94.948,106.870 95.065,114.163 102.255 C 119.664 107.679,120.783 108.117,123.406 105.876 C 124.283 105.127,125.720 104.148,126.600 103.700 C 127.480 103.252,128.543 102.506,128.962 102.043 C 129.381 101.579,129.930 101.200,130.181 101.200 C 130.432 101.200,131.871 100.390,133.378 99.400 C 134.885 98.410,136.317 97.599,136.559 97.598 C 136.802 97.597,137.810 97.058,138.800 96.400 C 139.790 95.741,141.481 94.909,142.558 94.550 C 143.635 94.191,145.145 93.471,145.913 92.949 C 146.681 92.428,148.050 91.813,148.955 91.582 C 149.860 91.351,151.680 90.631,153.000 89.982 C 154.320 89.333,156.390 88.622,157.600 88.403 C 158.810 88.183,160.700 87.557,161.800 87.011 C 163.003 86.413,165.473 85.756,168.000 85.361 C 170.310 85.001,172.668 84.466,173.239 84.174 C 173.811 83.881,175.521 83.423,177.039 83.155 C 181.290 82.405,181.119 82.789,181.279 73.665 L 181.418 65.800 183.138 62.463 C 185.097 58.663,188.439 55.105,190.746 54.365 C 191.546 54.109,192.474 53.661,192.808 53.370 C 194.874 51.576,203.210 51.495,205.835 53.244 M182.800 215.000 C 182.800 234.455,182.921 241.600,183.251 241.600 C 183.498 241.600,184.764 241.060,186.062 240.400 C 187.361 239.740,188.655 239.200,188.937 239.200 C 189.218 239.200,189.830 238.846,190.295 238.412 C 191.569 237.225,193.710 236.003,194.519 236.001 C 194.915 236.001,195.645 235.561,196.142 235.024 C 196.640 234.488,198.026 233.665,199.223 233.196 C 200.420 232.726,201.850 231.934,202.400 231.435 C 202.950 230.936,204.030 230.285,204.800 229.988 C 205.570 229.692,206.740 229.046,207.400 228.553 C 208.061 228.060,209.411 227.281,210.400 226.822 C 211.390 226.363,212.819 225.535,213.576 224.982 C 214.333 224.429,215.413 223.865,215.976 223.728 C 216.539 223.592,217.570 222.986,218.266 222.382 C 218.962 221.779,220.222 221.064,221.066 220.794 C 221.910 220.524,223.050 219.888,223.600 219.380 C 224.150 218.872,225.500 218.108,226.600 217.682 C 227.996 217.141,228.927 216.438,229.681 215.354 L 230.762 213.800 229.081 213.055 C 228.156 212.645,227.040 211.982,226.600 211.582 C 226.160 211.181,224.900 210.470,223.800 210.001 C 222.700 209.532,221.350 208.733,220.800 208.226 C 220.250 207.718,219.339 207.195,218.776 207.063 C 218.213 206.931,217.133 206.373,216.376 205.822 C 215.619 205.272,214.040 204.370,212.866 203.818 C 211.692 203.266,210.212 202.376,209.576 201.841 C 208.940 201.306,207.899 200.754,207.264 200.614 C 206.628 200.474,205.715 199.994,205.234 199.546 C 204.754 199.098,203.222 198.216,201.830 197.585 C 200.438 196.954,199.210 196.203,199.100 195.916 C 198.990 195.629,198.011 195.074,196.924 194.684 C 195.838 194.293,194.364 193.439,193.650 192.787 C 192.935 192.134,192.071 191.600,191.730 191.600 C 191.009 191.600,188.000 189.979,188.000 189.591 C 188.000 189.078,185.938 188.400,184.381 188.400 L 182.800 188.400 182.800 215.000 " stroke="none" fill="#fbeb04" fill-rule="evenodd"></path><path id="path3" d="M192.000 110.390 C 186.096 110.710,183.792 111.027,181.519 111.828 C 180.699 112.118,177.918 112.732,175.339 113.194 C 172.759 113.656,170.008 114.381,169.224 114.804 C 168.441 115.228,166.630 115.864,165.200 116.217 C 163.770 116.570,161.828 117.308,160.884 117.856 C 159.940 118.404,158.320 119.108,157.284 119.420 C 156.248 119.732,154.770 120.384,154.000 120.870 C 153.230 121.355,151.610 122.261,150.400 122.883 C 147.603 124.320,143.474 126.769,143.206 127.150 C 143.093 127.311,142.280 127.870,141.400 128.394 C 140.520 128.917,139.136 129.897,138.325 130.573 C 137.513 131.248,135.917 132.520,134.777 133.400 C 132.635 135.055,123.266 144.272,120.800 147.151 C 117.577 150.914,117.098 151.509,115.441 153.800 C 114.486 155.120,113.384 156.830,112.991 157.600 C 112.598 158.370,112.038 159.180,111.746 159.400 C 111.454 159.620,110.681 160.909,110.028 162.264 C 109.376 163.619,108.674 164.830,108.470 164.957 C 108.266 165.083,107.682 166.224,107.174 167.493 C 106.666 168.762,105.847 170.430,105.355 171.200 C 104.862 171.970,104.250 173.399,103.994 174.376 C 103.738 175.353,103.101 176.973,102.580 177.976 C 102.058 178.979,101.258 181.409,100.801 183.376 C 100.345 185.343,99.817 187.143,99.627 187.376 C 98.967 188.189,98.388 191.043,97.594 197.400 C 97.154 200.920,96.616 204.880,96.399 206.200 C 95.814 209.759,95.917 219.351,96.584 223.430 C 96.906 225.393,97.462 229.430,97.821 232.400 C 98.227 235.764,98.828 238.705,99.416 240.200 C 99.935 241.520,100.660 243.950,101.029 245.600 C 101.397 247.250,102.108 249.320,102.608 250.200 C 103.109 251.080,103.803 252.807,104.152 254.037 C 104.500 255.267,105.117 256.707,105.521 257.237 C 105.926 257.767,106.672 259.240,107.179 260.511 C 107.687 261.781,108.443 263.256,108.861 263.787 C 109.279 264.319,109.905 265.433,110.252 266.264 C 110.600 267.095,111.238 268.230,111.671 268.787 C 112.104 269.344,112.987 270.610,113.634 271.600 C 115.636 274.667,116.695 276.154,117.764 277.400 C 125.630 286.572,126.860 287.877,131.450 291.917 C 136.143 296.047,138.408 297.815,141.955 300.116 C 143.722 301.262,145.760 302.602,146.484 303.094 C 147.208 303.586,148.755 304.444,149.923 305.000 C 151.091 305.556,152.531 306.365,153.123 306.798 C 153.715 307.232,155.267 307.951,156.572 308.396 C 157.877 308.842,159.227 309.458,159.572 309.766 C 159.917 310.074,161.550 310.716,163.200 311.193 C 164.850 311.670,166.870 312.415,167.690 312.850 C 168.509 313.284,170.989 313.990,173.200 314.419 C 175.412 314.848,178.251 315.544,179.510 315.966 C 186.467 318.299,213.533 318.299,220.490 315.966 C 221.749 315.544,224.588 314.848,226.800 314.419 C 229.011 313.990,231.491 313.284,232.310 312.850 C 233.130 312.415,235.150 311.670,236.800 311.193 C 238.450 310.716,240.083 310.074,240.428 309.766 C 240.773 309.458,242.123 308.842,243.428 308.396 C 244.733 307.951,246.285 307.232,246.877 306.798 C 247.469 306.365,248.909 305.556,250.077 305.000 C 251.245 304.444,252.792 303.586,253.515 303.094 C 254.239 302.602,256.444 301.152,258.415 299.872 C 260.387 298.591,262.000 297.415,262.000 297.258 C 262.000 297.101,262.585 296.638,263.300 296.229 C 264.015 295.820,265.050 295.068,265.600 294.558 C 266.150 294.048,267.251 293.038,268.048 292.315 C 272.362 288.395,274.528 286.216,277.704 282.600 C 283.537 275.957,283.445 276.074,286.366 271.600 C 287.013 270.610,287.896 269.344,288.329 268.787 C 288.762 268.230,289.400 267.095,289.748 266.264 C 290.095 265.433,290.721 264.319,291.139 263.787 C 291.557 263.256,292.313 261.781,292.821 260.511 C 293.328 259.240,294.074 257.767,294.479 257.237 C 294.883 256.707,295.500 255.267,295.848 254.037 C 296.197 252.807,296.891 251.080,297.392 250.200 C 297.892 249.320,298.603 247.250,298.971 245.600 C 299.340 243.950,300.065 241.520,300.584 240.200 C 301.172 238.705,301.773 235.764,302.179 232.400 C 302.538 229.430,303.094 225.393,303.416 223.430 C 304.076 219.397,304.196 209.145,303.620 206.105 C 303.411 205.003,302.872 201.153,302.423 197.550 C 301.613 191.057,301.036 188.193,300.373 187.376 C 300.183 187.143,299.655 185.343,299.199 183.376 C 298.742 181.409,297.942 178.979,297.420 177.976 C 296.899 176.973,296.262 175.353,296.006 174.376 C 295.750 173.399,295.138 171.970,294.645 171.200 C 294.153 170.430,293.334 168.762,292.826 167.493 C 292.318 166.224,291.734 165.083,291.530 164.957 C 291.326 164.830,290.624 163.619,289.972 162.264 C 289.319 160.909,288.546 159.620,288.254 159.400 C 287.962 159.180,287.402 158.370,287.009 157.600 C 286.616 156.830,285.514 155.120,284.559 153.800 C 282.902 151.509,282.423 150.914,279.200 147.151 C 276.734 144.272,267.365 135.055,265.223 133.400 C 264.083 132.520,262.487 131.248,261.675 130.573 C 260.864 129.897,259.480 128.917,258.600 128.394 C 257.720 127.870,256.907 127.311,256.794 127.150 C 256.526 126.769,252.397 124.320,249.600 122.883 C 248.390 122.261,246.770 121.355,246.000 120.870 C 245.230 120.384,243.752 119.732,242.716 119.420 C 241.680 119.108,240.060 118.404,239.116 117.856 C 238.172 117.308,236.230 116.570,234.800 116.217 C 233.370 115.864,231.559 115.228,230.776 114.804 C 229.992 114.381,227.241 113.656,224.661 113.194 C 222.082 112.732,219.239 112.096,218.344 111.780 C 214.834 110.542,201.836 109.856,192.000 110.390 M215.741 113.949 C 220.768 114.657,225.268 115.486,225.741 115.792 C 226.213 116.099,228.439 116.803,230.686 117.357 C 232.934 117.911,235.197 118.642,235.716 118.982 C 236.235 119.322,237.956 120.041,239.541 120.580 C 241.126 121.119,242.878 121.918,243.434 122.356 C 243.990 122.793,245.321 123.442,246.392 123.797 C 247.462 124.153,248.577 124.732,248.869 125.083 C 249.161 125.435,250.480 126.208,251.800 126.800 C 253.120 127.392,254.456 128.185,254.768 128.562 C 255.081 128.938,255.891 129.505,256.568 129.821 C 257.246 130.138,258.610 131.032,259.600 131.810 C 260.590 132.587,262.269 133.893,263.332 134.712 C 264.394 135.530,266.051 136.920,267.014 137.800 C 269.406 139.987,270.203 140.767,273.881 144.519 C 277.137 147.841,278.800 149.678,278.800 149.954 C 278.800 150.098,279.535 151.104,280.433 152.191 C 281.331 153.277,282.304 154.624,282.595 155.183 C 282.886 155.742,283.591 156.636,284.162 157.170 C 284.733 157.703,285.200 158.342,285.200 158.588 C 285.200 158.835,286.010 160.271,287.000 161.778 C 287.990 163.285,288.800 164.748,288.800 165.029 C 288.800 165.309,289.255 166.080,289.812 166.741 C 290.368 167.403,291.181 168.991,291.619 170.272 C 292.056 171.552,292.766 173.082,293.197 173.670 C 293.628 174.259,294.357 176.149,294.819 177.869 C 295.280 179.590,295.987 181.538,296.390 182.199 C 296.793 182.859,297.509 185.319,297.980 187.665 C 298.451 190.011,299.177 192.901,299.594 194.088 C 301.709 200.103,301.709 228.546,299.595 234.111 C 299.168 235.232,298.447 238.051,297.992 240.375 C 297.537 242.699,296.830 245.230,296.422 246.000 C 296.013 246.770,295.281 248.747,294.794 250.394 C 294.308 252.041,293.582 253.806,293.180 254.316 C 292.779 254.826,292.072 256.383,291.608 257.775 C 291.145 259.168,290.435 260.607,290.030 260.973 C 289.625 261.339,288.979 262.485,288.594 263.520 C 288.210 264.554,287.485 265.850,286.985 266.400 C 286.484 266.950,285.788 268.030,285.439 268.800 C 284.825 270.152,283.312 272.277,280.880 275.200 C 280.240 275.970,279.517 276.980,279.274 277.444 C 278.804 278.341,276.967 280.426,274.200 283.203 C 266.130 291.300,261.373 295.378,256.900 298.031 C 255.745 298.716,254.800 299.422,254.800 299.600 C 254.800 299.779,253.675 300.496,252.300 301.195 C 245.700 304.549,244.037 305.437,243.509 305.892 C 243.195 306.162,241.762 306.747,240.324 307.191 C 238.887 307.635,237.280 308.336,236.754 308.750 C 236.228 309.164,234.719 309.721,233.399 309.990 C 232.080 310.258,229.712 310.987,228.139 311.611 C 226.399 312.300,223.477 312.994,220.683 313.380 C 218.157 313.729,214.494 314.368,212.545 314.799 C 207.389 315.939,192.611 315.939,187.455 314.799 C 185.506 314.368,181.843 313.729,179.317 313.380 C 176.523 312.994,173.601 312.300,171.861 311.611 C 170.288 310.987,167.920 310.258,166.601 309.990 C 165.281 309.721,163.772 309.164,163.246 308.750 C 162.720 308.336,161.187 307.657,159.839 307.241 C 158.492 306.825,156.491 305.962,155.394 305.325 C 152.681 303.747,150.660 302.657,147.700 301.176 C 146.325 300.488,145.200 299.779,145.200 299.600 C 145.200 299.422,144.255 298.716,143.100 298.031 C 138.649 295.391,133.833 291.267,125.900 283.303 C 123.031 280.423,121.200 278.349,120.726 277.444 C 120.483 276.980,119.760 275.970,119.120 275.200 C 116.688 272.277,115.175 270.152,114.561 268.800 C 114.212 268.030,113.516 266.950,113.015 266.400 C 112.515 265.850,111.790 264.554,111.406 263.520 C 111.021 262.485,110.375 261.339,109.970 260.973 C 109.565 260.607,108.855 259.168,108.392 257.775 C 107.928 256.383,107.221 254.826,106.820 254.316 C 106.418 253.806,105.692 252.041,105.206 250.394 C 104.719 248.747,103.987 246.770,103.578 246.000 C 103.170 245.230,102.463 242.699,102.008 240.375 C 101.553 238.051,100.832 235.232,100.405 234.111 C 98.291 228.546,98.291 200.103,100.406 194.088 C 100.823 192.901,101.549 190.011,102.020 187.665 C 102.491 185.319,103.207 182.859,103.610 182.199 C 104.013 181.538,104.720 179.590,105.181 177.869 C 105.643 176.149,106.372 174.259,106.803 173.670 C 107.234 173.082,107.944 171.552,108.381 170.272 C 108.819 168.991,109.632 167.403,110.188 166.741 C 110.745 166.080,111.200 165.309,111.200 165.029 C 111.200 164.748,112.010 163.285,113.000 161.778 C 113.990 160.271,114.800 158.835,114.800 158.588 C 114.800 158.342,115.267 157.703,115.838 157.170 C 116.409 156.636,117.114 155.742,117.405 155.183 C 117.696 154.624,118.669 153.277,119.567 152.191 C 120.465 151.104,121.200 150.098,121.200 149.954 C 121.200 149.741,122.398 148.383,124.808 145.865 C 125.498 145.143,127.956 142.644,129.100 141.500 C 131.849 138.751,134.430 136.436,136.668 134.712 C 137.731 133.893,139.410 132.587,140.400 131.810 C 141.390 131.032,142.754 130.138,143.432 129.821 C 144.109 129.505,144.919 128.938,145.232 128.562 C 145.544 128.185,146.880 127.392,148.200 126.800 C 149.520 126.208,150.839 125.435,151.131 125.083 C 151.423 124.732,152.538 124.153,153.608 123.797 C 154.679 123.442,156.010 122.793,156.566 122.356 C 157.122 121.918,158.874 121.119,160.459 120.580 C 162.044 120.041,163.765 119.322,164.284 118.982 C 164.803 118.642,167.056 117.911,169.292 117.358 C 171.528 116.805,173.817 116.086,174.379 115.761 C 174.952 115.429,179.703 114.573,185.200 113.810 C 197.679 112.080,202.609 112.103,215.741 113.949 M175.755 158.820 C 171.995 159.311,170.244 159.894,168.599 161.201 C 167.769 161.860,166.890 162.404,166.645 162.408 C 165.574 162.427,159.950 168.642,159.409 170.405 C 159.241 170.952,158.541 172.570,157.852 174.000 L 156.600 176.600 156.600 214.600 L 156.600 252.600 157.652 254.800 C 158.231 256.010,159.166 258.035,159.730 259.300 C 160.294 260.565,160.928 261.600,161.139 261.600 C 161.349 261.600,161.875 262.158,162.306 262.840 C 163.315 264.432,166.495 266.973,168.800 268.027 C 169.790 268.480,171.590 269.334,172.800 269.925 C 175.935 271.457,183.978 271.537,186.782 270.064 C 187.762 269.549,189.520 268.770,190.688 268.333 C 191.856 267.896,193.305 267.126,193.906 266.624 C 194.508 266.121,195.450 265.574,196.000 265.408 C 196.550 265.243,197.587 264.667,198.305 264.129 C 199.023 263.591,200.581 262.722,201.768 262.197 C 202.955 261.672,204.057 261.031,204.218 260.772 C 204.378 260.513,205.641 259.787,207.025 259.160 C 208.409 258.532,209.661 257.825,209.807 257.588 C 209.954 257.351,211.062 256.720,212.271 256.186 C 213.479 255.651,215.006 254.761,215.665 254.207 C 216.323 253.653,217.099 253.200,217.390 253.200 C 217.682 253.200,218.883 252.548,220.060 251.751 C 221.237 250.954,222.740 250.119,223.400 249.896 C 224.060 249.672,224.960 249.166,225.400 248.771 C 225.840 248.376,227.159 247.609,228.331 247.067 C 229.503 246.525,230.853 245.730,231.331 245.302 C 231.809 244.873,233.010 244.209,234.000 243.827 C 234.990 243.446,236.351 242.715,237.025 242.203 C 237.699 241.692,238.957 240.978,239.820 240.617 C 240.683 240.257,241.752 239.625,242.195 239.214 C 242.638 238.803,244.012 238.022,245.249 237.478 C 246.486 236.934,247.623 236.286,247.777 236.037 C 247.931 235.788,248.916 235.149,249.967 234.617 C 253.441 232.856,258.396 227.256,259.364 223.996 C 259.679 222.936,260.266 221.567,260.668 220.953 C 261.743 219.314,261.740 210.446,260.664 208.400 C 260.259 207.630,259.679 206.190,259.375 205.200 C 258.470 202.246,254.478 197.282,251.973 195.993 C 251.189 195.589,250.291 194.951,249.979 194.575 C 249.667 194.198,248.599 193.543,247.606 193.118 C 246.613 192.694,245.438 192.007,244.995 191.592 C 244.552 191.177,243.483 190.543,242.620 190.183 C 241.757 189.822,240.487 189.097,239.798 188.571 C 239.109 188.046,237.775 187.344,236.833 187.012 C 235.891 186.679,234.724 186.026,234.240 185.560 C 233.756 185.094,232.461 184.328,231.362 183.857 C 230.262 183.385,228.974 182.634,228.499 182.187 C 228.024 181.739,226.952 181.133,226.118 180.839 C 225.283 180.545,224.238 179.975,223.796 179.573 C 223.354 179.170,221.975 178.391,220.733 177.842 C 219.490 177.292,218.343 176.631,218.182 176.372 C 218.022 176.113,216.759 175.387,215.375 174.760 C 213.991 174.132,212.732 173.414,212.578 173.165 C 212.424 172.915,211.296 172.268,210.072 171.727 C 208.848 171.185,207.328 170.305,206.693 169.771 C 206.058 169.237,205.318 168.800,205.048 168.800 C 204.778 168.800,203.666 168.219,202.578 167.509 C 200.405 166.090,197.969 164.745,194.000 162.771 C 192.570 162.060,191.040 161.168,190.600 160.788 C 189.499 159.839,187.593 159.300,183.610 158.814 C 179.868 158.357,179.304 158.357,175.755 158.820 M183.565 160.810 C 185.196 161.021,186.816 161.448,187.165 161.757 C 187.514 162.067,188.970 162.806,190.400 163.399 C 191.830 163.991,193.360 164.804,193.800 165.205 C 194.240 165.606,195.612 166.378,196.849 166.922 C 198.086 167.466,199.224 168.115,199.378 168.365 C 199.532 168.614,200.771 169.357,202.129 170.015 C 203.488 170.672,205.950 172.020,207.600 173.011 C 209.250 174.001,211.528 175.249,212.663 175.784 C 213.798 176.319,214.857 176.969,215.018 177.228 C 215.178 177.487,216.441 178.213,217.825 178.840 C 219.209 179.468,220.468 180.186,220.622 180.435 C 220.776 180.685,221.865 181.315,223.042 181.836 C 224.219 182.356,225.933 183.326,226.851 183.991 C 227.769 184.656,228.743 185.200,229.015 185.200 C 229.287 185.200,230.390 185.805,231.464 186.544 C 232.539 187.284,233.864 188.025,234.409 188.191 C 234.954 188.357,235.987 188.933,236.705 189.471 C 237.423 190.009,238.981 190.878,240.168 191.403 C 241.355 191.928,242.455 192.565,242.611 192.818 C 242.768 193.072,243.940 193.773,245.214 194.376 C 246.489 194.979,248.102 195.951,248.797 196.536 C 249.492 197.121,250.216 197.600,250.404 197.600 C 250.876 197.600,255.200 201.892,255.200 202.360 C 255.200 202.568,255.656 203.280,256.212 203.942 C 259.271 207.576,259.562 221.695,256.639 224.618 C 256.288 224.969,255.553 226.020,255.006 226.954 C 253.914 228.816,249.954 232.215,247.327 233.543 C 246.407 234.008,245.549 234.560,245.419 234.768 C 245.290 234.977,244.158 235.618,242.903 236.193 C 241.648 236.767,240.295 237.533,239.895 237.895 C 239.177 238.545,236.512 239.994,231.747 242.324 C 230.398 242.984,229.162 243.738,229.000 244.000 C 228.838 244.262,227.578 244.982,226.200 245.600 C 224.822 246.218,223.570 246.926,223.418 247.172 C 223.266 247.417,222.009 248.132,220.625 248.760 C 219.241 249.387,217.978 250.113,217.818 250.372 C 217.657 250.631,216.514 251.290,215.277 251.838 C 214.040 252.385,212.699 253.129,212.299 253.492 C 211.898 253.855,210.632 254.633,209.485 255.222 C 204.800 257.629,202.600 258.857,202.003 259.398 C 201.656 259.711,200.360 260.415,199.123 260.962 C 197.886 261.510,196.746 262.164,196.590 262.416 C 196.434 262.669,195.194 263.374,193.835 263.984 C 192.476 264.594,191.042 265.415,190.648 265.809 C 189.648 266.809,183.123 268.425,180.000 268.447 C 170.757 268.509,162.539 262.566,160.025 254.000 L 159.027 250.600 158.898 216.000 C 158.748 175.902,158.919 173.734,162.547 169.819 C 163.126 169.194,163.600 168.452,163.600 168.169 C 163.600 167.886,164.185 167.245,164.900 166.744 C 165.615 166.243,166.420 165.532,166.690 165.164 C 168.874 162.178,177.321 159.999,183.565 160.810 " stroke="none" fill="#949494" fill-rule="evenodd"></path><path id="path4" d="M194.408 52.425 C 193.863 52.654,193.143 53.080,192.808 53.370 C 192.474 53.661,191.546 54.109,190.746 54.365 C 188.439 55.105,185.097 58.663,183.138 62.463 L 181.418 65.800 181.279 73.665 C 181.119 82.789,181.290 82.405,177.039 83.155 C 175.521 83.423,173.811 83.881,173.239 84.174 C 172.668 84.466,170.310 85.001,168.000 85.361 C 165.473 85.756,163.003 86.413,161.800 87.011 C 160.700 87.557,158.810 88.183,157.600 88.403 C 156.390 88.622,154.320 89.333,153.000 89.982 C 151.680 90.631,149.860 91.351,148.955 91.582 C 148.050 91.813,146.681 92.428,145.913 92.949 C 145.145 93.471,143.635 94.191,142.558 94.550 C 141.481 94.909,139.790 95.741,138.800 96.400 C 137.810 97.058,136.802 97.597,136.559 97.598 C 136.317 97.599,134.885 98.410,133.378 99.400 C 131.871 100.390,130.432 101.200,130.181 101.200 C 129.930 101.200,129.381 101.579,128.962 102.043 C 128.543 102.506,127.480 103.252,126.600 103.700 C 125.720 104.148,124.283 105.127,123.406 105.876 C 120.783 108.117,119.664 107.679,114.163 102.255 C 106.870 95.065,106.684 94.948,100.951 93.974 C 97.419 93.374,90.858 94.287,89.200 95.610 C 88.650 96.049,87.525 96.858,86.700 97.409 C 85.875 97.959,85.200 98.586,85.200 98.802 C 85.200 99.017,84.680 99.657,84.044 100.224 C 83.408 100.790,82.574 102.097,82.189 103.127 C 81.805 104.157,81.247 105.283,80.949 105.628 C 79.355 107.474,79.393 114.060,81.017 117.200 C 81.528 118.190,82.152 119.563,82.402 120.251 C 82.652 120.938,84.958 123.692,87.528 126.369 C 94.622 133.760,94.762 133.964,93.449 135.000 C 93.170 135.220,92.426 136.300,91.796 137.400 C 91.166 138.500,90.144 139.991,89.525 140.714 C 88.906 141.437,88.400 142.284,88.400 142.598 C 88.400 142.911,87.958 143.580,87.419 144.084 C 86.879 144.588,85.998 145.997,85.461 147.216 C 84.924 148.435,84.202 149.666,83.857 149.952 C 83.512 150.239,82.850 151.491,82.386 152.736 C 81.922 153.981,81.218 155.360,80.821 155.800 C 80.425 156.240,79.788 157.590,79.406 158.800 C 79.025 160.010,78.295 161.630,77.784 162.400 C 77.273 163.170,76.558 164.970,76.194 166.400 C 75.830 167.830,75.160 169.606,74.705 170.346 C 74.250 171.087,73.541 173.334,73.130 175.339 C 72.718 177.344,72.021 179.730,71.581 180.640 C 71.129 181.574,70.516 184.275,70.173 186.847 C 69.840 189.351,69.198 192.970,68.747 194.889 C 66.619 203.946,66.660 226.502,68.816 233.251 C 69.247 234.600,69.600 236.153,69.600 236.701 C 69.600 239.137,70.925 246.276,71.635 247.669 C 72.065 248.512,72.696 250.686,73.037 252.501 C 73.378 254.315,74.086 256.572,74.610 257.517 C 75.134 258.461,75.848 260.351,76.197 261.717 C 76.547 263.082,77.261 264.830,77.786 265.600 C 78.310 266.370,78.949 267.810,79.206 268.800 C 79.463 269.790,80.189 271.385,80.820 272.343 C 81.450 273.302,82.176 274.742,82.432 275.543 C 82.687 276.345,83.292 277.450,83.775 278.000 C 84.258 278.550,84.985 279.810,85.389 280.800 C 85.793 281.790,86.501 282.960,86.962 283.400 C 87.423 283.840,88.140 284.960,88.555 285.888 C 88.971 286.817,89.665 287.897,90.099 288.288 C 90.532 288.680,91.309 289.833,91.825 290.850 C 92.341 291.868,93.033 292.804,93.363 292.931 C 93.694 293.057,94.329 293.877,94.775 294.751 C 95.221 295.626,95.950 296.457,96.393 296.598 C 96.837 296.739,97.200 297.113,97.200 297.430 C 97.200 298.632,109.697 311.699,113.800 314.788 C 114.900 315.616,116.143 316.677,116.562 317.147 C 116.981 317.616,117.562 318.000,117.853 318.000 C 118.144 318.000,118.664 318.432,119.010 318.960 C 119.356 319.487,120.152 320.132,120.780 320.392 C 121.408 320.652,122.344 321.317,122.860 321.871 C 123.377 322.425,124.520 323.245,125.400 323.693 C 126.280 324.141,127.591 325.023,128.314 325.654 C 129.037 326.284,129.878 326.800,130.183 326.800 C 130.489 326.800,131.272 327.249,131.924 327.797 C 132.576 328.346,133.994 329.204,135.074 329.705 C 136.155 330.206,137.536 331.006,138.142 331.483 C 138.749 331.960,140.180 332.655,141.323 333.027 C 142.465 333.399,143.670 333.928,144.000 334.203 C 144.972 335.014,146.898 335.883,148.400 336.188 C 149.170 336.345,150.464 336.902,151.275 337.426 C 152.087 337.950,153.977 338.668,155.475 339.022 C 156.974 339.377,159.119 340.110,160.242 340.651 C 161.365 341.193,164.175 341.971,166.488 342.380 C 168.801 342.789,171.234 343.404,171.896 343.746 C 173.447 344.548,176.750 345.041,184.200 345.582 C 187.500 345.821,192.405 346.202,195.100 346.428 C 198.452 346.709,201.548 346.709,204.900 346.428 C 207.595 346.202,212.500 345.821,215.800 345.582 C 223.250 345.041,226.553 344.548,228.104 343.746 C 228.766 343.404,231.199 342.789,233.512 342.380 C 235.825 341.971,238.635 341.193,239.758 340.651 C 240.881 340.110,243.026 339.377,244.525 339.022 C 246.023 338.668,247.913 337.950,248.725 337.426 C 249.536 336.902,250.830 336.345,251.600 336.188 C 253.102 335.883,255.028 335.014,256.000 334.203 C 256.330 333.928,257.535 333.399,258.677 333.027 C 259.820 332.655,261.251 331.960,261.858 331.483 C 262.464 331.006,263.845 330.206,264.926 329.705 C 266.006 329.204,267.424 328.346,268.076 327.797 C 268.728 327.249,269.511 326.800,269.817 326.800 C 270.122 326.800,270.963 326.284,271.686 325.654 C 272.409 325.023,273.720 324.143,274.600 323.696 C 275.480 323.250,276.560 322.487,277.000 322.000 C 277.440 321.513,278.475 320.770,279.300 320.349 C 280.125 319.928,280.800 319.410,280.800 319.197 C 280.800 318.984,281.475 318.355,282.300 317.798 C 287.771 314.109,302.800 299.177,302.800 297.430 C 302.800 297.113,303.163 296.739,303.607 296.598 C 304.050 296.457,304.779 295.626,305.225 294.751 C 305.671 293.877,306.306 293.057,306.637 292.931 C 306.967 292.804,307.659 291.868,308.175 290.850 C 308.691 289.833,309.468 288.680,309.901 288.288 C 310.335 287.897,311.029 286.817,311.445 285.888 C 311.860 284.960,312.577 283.840,313.038 283.400 C 313.499 282.960,314.207 281.790,314.611 280.800 C 315.015 279.810,315.742 278.550,316.225 278.000 C 316.708 277.450,317.313 276.345,317.568 275.543 C 317.824 274.742,318.550 273.302,319.180 272.343 C 319.811 271.385,320.537 269.790,320.794 268.800 C 321.051 267.810,321.690 266.370,322.214 265.600 C 322.739 264.830,323.453 263.082,323.803 261.717 C 324.152 260.351,324.866 258.461,325.390 257.517 C 325.914 256.572,326.622 254.315,326.963 252.501 C 327.304 250.686,327.935 248.512,328.365 247.669 C 329.075 246.276,330.400 239.137,330.400 236.701 C 330.400 236.153,330.753 234.600,331.184 233.251 C 333.340 226.502,333.381 203.946,331.253 194.889 C 330.802 192.970,330.160 189.351,329.827 186.847 C 329.484 184.275,328.871 181.574,328.419 180.640 C 327.979 179.730,327.282 177.344,326.870 175.339 C 326.459 173.334,325.750 171.087,325.295 170.346 C 324.840 169.606,324.170 167.830,323.806 166.400 C 323.442 164.970,322.727 163.170,322.216 162.400 C 321.705 161.630,320.975 160.010,320.594 158.800 C 320.212 157.590,319.575 156.240,319.179 155.800 C 318.782 155.360,318.078 153.981,317.614 152.736 C 317.150 151.491,316.488 150.239,316.143 149.952 C 315.798 149.666,315.076 148.435,314.539 147.216 C 314.002 145.997,313.121 144.588,312.581 144.084 C 312.042 143.580,311.600 142.911,311.600 142.598 C 311.600 142.284,311.094 141.437,310.475 140.714 C 309.856 139.991,308.885 138.590,308.316 137.600 C 307.748 136.609,306.904 135.456,306.441 135.038 C 305.076 133.802,305.260 131.046,306.769 130.155 C 307.411 129.775,308.170 129.030,308.455 128.498 C 308.739 127.967,309.460 127.279,310.058 126.970 C 310.655 126.661,311.257 126.051,311.395 125.615 C 311.534 125.178,312.179 124.442,312.830 123.979 C 313.480 123.516,314.306 122.566,314.666 121.868 C 315.025 121.171,315.650 120.367,316.054 120.081 C 318.012 118.699,318.908 108.790,317.482 104.300 C 316.238 100.385,311.083 95.233,307.571 94.396 C 306.377 94.112,305.001 93.619,304.514 93.303 C 303.272 92.495,298.571 92.486,296.800 93.289 C 296.030 93.638,294.564 94.193,293.542 94.523 C 291.362 95.227,288.562 97.425,283.772 102.194 C 278.771 107.172,278.747 107.184,276.684 105.710 C 275.758 105.048,274.280 104.142,273.400 103.696 C 272.520 103.250,271.457 102.506,271.038 102.043 C 270.619 101.579,270.070 101.200,269.819 101.200 C 269.568 101.200,268.129 100.390,266.622 99.400 C 265.115 98.410,263.683 97.599,263.441 97.598 C 263.198 97.597,262.190 97.058,261.200 96.400 C 260.210 95.741,258.519 94.909,257.442 94.550 C 256.365 94.191,254.855 93.471,254.087 92.949 C 253.319 92.428,251.950 91.813,251.045 91.582 C 250.140 91.351,248.320 90.631,247.000 89.982 C 245.680 89.333,243.610 88.622,242.400 88.403 C 241.190 88.183,239.300 87.557,238.200 87.011 C 236.997 86.413,234.527 85.756,232.000 85.361 C 229.690 85.001,227.320 84.460,226.733 84.160 C 226.146 83.859,224.251 83.368,222.521 83.068 C 217.044 82.117,217.328 82.629,217.046 73.200 C 216.821 65.706,216.222 62.671,214.557 60.602 C 211.719 57.073,209.876 55.248,208.685 54.785 C 207.978 54.511,206.696 53.817,205.835 53.244 C 204.098 52.086,196.508 51.543,194.408 52.425 M204.879 55.673 C 207.177 56.273,208.121 56.725,208.600 57.456 C 208.953 57.995,209.655 58.624,210.159 58.854 C 210.663 59.084,211.468 60.021,211.947 60.936 C 212.426 61.851,213.219 63.230,213.709 64.000 C 214.538 65.303,214.614 65.985,214.800 73.859 C 215.062 84.920,214.973 84.817,225.600 86.413 C 228.864 86.903,232.362 87.684,233.600 88.198 C 234.810 88.701,237.221 89.403,238.958 89.759 C 240.695 90.115,242.675 90.747,243.358 91.164 C 244.041 91.581,245.947 92.320,247.594 92.806 C 249.241 93.292,251.006 94.018,251.516 94.420 C 252.026 94.821,253.590 95.531,254.991 95.997 C 256.393 96.463,257.740 97.087,257.985 97.382 C 258.231 97.678,259.459 98.326,260.716 98.823 C 261.972 99.320,263.360 100.038,263.800 100.419 C 264.240 100.800,265.532 101.578,266.672 102.148 C 267.811 102.718,268.859 103.372,269.000 103.600 C 269.141 103.828,270.110 104.448,271.153 104.976 C 272.197 105.505,273.309 106.251,273.625 106.633 C 273.941 107.016,275.150 107.750,276.312 108.265 C 279.243 109.563,280.167 109.095,285.883 103.411 C 288.433 100.875,290.666 98.800,290.846 98.800 C 291.025 98.800,291.763 98.288,292.486 97.663 C 294.692 95.754,300.944 94.961,305.500 96.012 C 308.483 96.700,312.142 99.780,314.292 103.413 L 316.178 106.600 316.175 110.800 L 316.173 115.000 314.243 118.283 C 313.181 120.088,311.874 121.853,311.338 122.204 C 310.802 122.555,310.172 123.263,309.938 123.777 C 309.703 124.291,309.070 124.948,308.531 125.237 C 307.991 125.526,307.260 126.252,306.907 126.850 C 306.554 127.448,305.876 128.146,305.400 128.400 C 303.047 129.659,302.521 133.234,304.300 135.867 C 304.905 136.762,306.090 138.523,306.934 139.781 C 307.778 141.039,308.813 142.413,309.234 142.834 C 309.655 143.255,310.000 143.856,310.000 144.169 C 310.000 144.483,310.626 145.559,311.391 146.561 C 312.157 147.564,313.065 149.063,313.410 149.892 C 313.755 150.721,314.471 152.030,315.002 152.800 C 315.533 153.570,316.241 154.977,316.575 155.926 C 316.910 156.876,317.528 158.138,317.951 158.731 C 318.373 159.323,319.092 160.948,319.550 162.342 C 320.007 163.735,320.731 165.444,321.157 166.138 C 321.584 166.832,322.234 168.566,322.601 169.991 C 322.968 171.415,323.621 173.305,324.052 174.191 C 324.483 175.076,325.293 177.955,325.851 180.589 C 326.410 183.223,327.026 185.675,327.221 186.038 C 330.697 192.535,330.690 232.057,327.210 242.171 C 326.795 243.378,326.159 245.949,325.797 247.883 C 325.435 249.817,324.628 252.570,324.003 254.000 C 323.378 255.430,322.737 257.320,322.578 258.200 C 322.420 259.080,321.707 260.970,320.995 262.400 C 320.283 263.830,319.574 265.579,319.421 266.287 C 319.268 266.994,318.743 268.164,318.255 268.887 C 317.767 269.609,316.947 271.240,316.433 272.511 C 315.919 273.781,315.157 275.256,314.739 275.787 C 314.321 276.319,313.727 277.356,313.419 278.092 C 313.112 278.828,312.262 280.344,311.530 281.460 C 310.799 282.577,309.885 284.010,309.500 284.645 C 307.654 287.688,302.604 294.532,299.646 298.000 C 297.305 300.745,284.864 313.029,282.751 314.683 C 280.573 316.387,278.865 317.706,275.600 320.202 C 274.610 320.959,272.955 322.031,271.922 322.585 C 270.890 323.138,269.900 323.820,269.722 324.100 C 269.545 324.380,268.449 325.045,267.287 325.579 C 266.125 326.112,264.967 326.798,264.714 327.104 C 264.461 327.409,263.080 328.191,261.645 328.841 C 260.210 329.492,258.758 330.273,258.418 330.577 C 258.078 330.881,256.769 331.491,255.508 331.932 C 254.248 332.373,252.718 333.079,252.108 333.502 C 251.499 333.924,250.100 334.508,249.000 334.798 C 247.900 335.089,246.155 335.746,245.122 336.259 C 244.089 336.772,241.526 337.638,239.426 338.183 C 237.327 338.729,235.112 339.432,234.504 339.746 C 233.897 340.060,231.148 340.693,228.395 341.152 C 225.643 341.611,222.493 342.251,221.396 342.574 C 214.078 344.729,185.922 344.729,178.604 342.574 C 177.507 342.251,174.357 341.611,171.605 341.152 C 168.852 340.693,166.103 340.060,165.496 339.746 C 164.888 339.432,162.673 338.729,160.574 338.183 C 158.474 337.638,155.911 336.772,154.878 336.259 C 153.845 335.746,152.100 335.089,151.000 334.798 C 149.900 334.508,148.501 333.924,147.892 333.502 C 147.282 333.079,145.752 332.373,144.492 331.932 C 143.231 331.491,141.922 330.881,141.582 330.577 C 141.242 330.273,139.790 329.492,138.355 328.841 C 136.920 328.191,135.539 327.409,135.286 327.104 C 135.033 326.798,133.875 326.112,132.713 325.579 C 131.551 325.045,130.455 324.380,130.278 324.100 C 130.100 323.820,129.110 323.138,128.078 322.585 C 127.045 322.031,125.390 320.959,124.400 320.202 C 121.068 317.655,119.411 316.375,117.253 314.683 C 115.106 313.000,102.581 300.642,100.345 298.000 C 98.519 295.843,96.352 293.054,94.689 290.720 C 91.775 286.631,91.195 285.791,90.500 284.645 C 90.115 284.010,89.201 282.577,88.470 281.460 C 87.738 280.344,86.888 278.828,86.581 278.092 C 86.273 277.356,85.679 276.319,85.261 275.787 C 84.843 275.256,84.081 273.781,83.567 272.511 C 83.053 271.240,82.233 269.609,81.745 268.887 C 81.257 268.164,80.732 266.994,80.579 266.287 C 80.426 265.579,79.717 263.830,79.005 262.400 C 78.293 260.970,77.580 259.080,77.422 258.200 C 77.263 257.320,76.622 255.430,75.997 254.000 C 75.372 252.570,74.565 249.817,74.203 247.883 C 73.841 245.949,73.205 243.378,72.790 242.171 C 69.310 232.057,69.303 192.535,72.779 186.038 C 72.974 185.675,73.590 183.223,74.149 180.589 C 74.707 177.955,75.517 175.076,75.948 174.191 C 76.379 173.305,77.032 171.415,77.399 169.991 C 77.766 168.566,78.416 166.832,78.843 166.138 C 79.269 165.444,79.993 163.735,80.450 162.342 C 80.908 160.948,81.627 159.323,82.049 158.731 C 82.472 158.138,83.090 156.876,83.425 155.926 C 83.759 154.977,84.467 153.570,84.998 152.800 C 85.529 152.030,86.245 150.721,86.590 149.892 C 86.935 149.063,87.843 147.564,88.609 146.561 C 89.374 145.559,90.000 144.501,90.000 144.210 C 90.000 143.920,90.441 143.169,90.980 142.541 C 97.443 135.020,97.539 133.206,91.786 127.397 C 83.688 119.219,82.999 117.949,83.001 111.200 C 83.003 106.560,83.875 103.109,85.229 102.384 C 85.649 102.160,86.260 101.457,86.589 100.822 C 87.182 99.675,89.001 98.395,92.352 96.768 C 93.889 96.021,94.648 95.935,98.552 96.063 C 104.197 96.248,105.845 97.182,113.038 104.279 C 116.701 107.892,118.375 109.267,119.492 109.577 C 121.519 110.140,121.233 110.226,124.074 108.194 C 125.463 107.201,127.115 106.076,127.744 105.694 C 128.373 105.312,129.453 104.602,130.144 104.115 C 130.835 103.629,132.300 102.754,133.400 102.171 C 134.500 101.589,135.760 100.800,136.200 100.419 C 136.640 100.038,138.028 99.320,139.284 98.823 C 140.541 98.326,141.769 97.678,142.015 97.382 C 142.260 97.087,143.607 96.463,145.009 95.997 C 146.410 95.531,147.974 94.821,148.484 94.420 C 148.994 94.018,150.759 93.292,152.406 92.806 C 154.053 92.320,155.959 91.581,156.642 91.164 C 157.325 90.747,159.305 90.115,161.042 89.759 C 162.779 89.403,165.190 88.701,166.400 88.199 C 167.610 87.696,171.096 86.908,174.146 86.447 C 182.709 85.152,183.598 84.296,183.603 77.338 C 183.610 67.311,184.640 63.083,187.897 59.717 C 192.809 54.639,197.049 53.629,204.879 55.673 M181.920 185.185 L 181.000 185.929 180.887 213.665 C 180.825 228.919,180.873 241.803,180.993 242.295 C 181.560 244.608,185.399 244.556,188.087 242.200 C 188.589 241.760,189.867 241.025,190.927 240.566 C 191.987 240.107,193.230 239.409,193.691 239.015 C 194.151 238.621,195.354 237.940,196.364 237.501 C 197.374 237.062,198.740 236.302,199.400 235.812 C 200.060 235.321,201.432 234.553,202.448 234.105 C 203.465 233.657,204.423 233.086,204.578 232.836 C 204.732 232.586,205.991 231.868,207.375 231.240 C 208.759 230.613,210.009 229.909,210.153 229.676 C 210.297 229.442,211.442 228.782,212.697 228.207 C 213.952 227.633,215.284 226.886,215.657 226.549 C 216.030 226.211,217.448 225.364,218.807 224.667 C 222.881 222.579,224.895 221.451,226.978 220.091 C 228.066 219.381,229.185 218.800,229.464 218.800 C 230.205 218.800,232.747 216.463,233.418 215.166 C 234.208 213.638,233.889 213.082,231.477 211.785 C 230.335 211.170,228.891 210.248,228.269 209.734 C 227.647 209.220,226.903 208.800,226.614 208.800 C 226.326 208.800,225.215 208.198,224.145 207.463 C 223.075 206.728,221.539 205.909,220.732 205.643 C 219.925 205.377,219.025 204.870,218.732 204.516 C 218.439 204.163,217.150 203.377,215.868 202.769 C 214.585 202.162,213.230 201.389,212.857 201.051 C 212.484 200.714,211.152 199.967,209.897 199.393 C 208.642 198.818,207.499 198.160,207.356 197.930 C 207.214 197.699,206.086 197.066,204.849 196.522 C 203.612 195.978,202.238 195.197,201.795 194.786 C 201.352 194.375,200.305 193.752,199.469 193.403 C 198.633 193.054,197.213 192.235,196.314 191.584 C 195.415 190.933,194.462 190.400,194.196 190.400 C 193.930 190.400,193.019 189.930,192.173 189.356 C 190.707 188.361,184.830 185.204,183.478 184.685 C 183.126 184.550,182.426 184.774,181.920 185.185 M186.981 188.864 C 187.542 189.120,188.000 189.446,188.000 189.591 C 188.000 189.979,191.009 191.600,191.730 191.600 C 192.071 191.600,192.935 192.134,193.650 192.787 C 194.364 193.439,195.838 194.293,196.924 194.684 C 198.011 195.074,198.990 195.629,199.100 195.916 C 199.210 196.203,200.438 196.954,201.830 197.585 C 203.222 198.216,204.754 199.098,205.234 199.546 C 205.715 199.994,206.628 200.474,207.264 200.614 C 207.899 200.754,208.940 201.306,209.576 201.841 C 210.212 202.376,211.692 203.266,212.866 203.818 C 214.040 204.370,215.619 205.272,216.376 205.822 C 217.133 206.373,218.213 206.931,218.776 207.063 C 219.339 207.195,220.250 207.718,220.800 208.226 C 221.350 208.733,222.700 209.532,223.800 210.001 C 224.900 210.470,226.160 211.181,226.600 211.582 C 227.040 211.982,228.156 212.645,229.081 213.055 L 230.762 213.800 229.681 215.354 C 228.927 216.438,227.996 217.141,226.600 217.682 C 225.500 218.108,224.150 218.872,223.600 219.380 C 223.050 219.888,221.910 220.524,221.066 220.794 C 220.222 221.064,218.962 221.779,218.266 222.382 C 217.570 222.986,216.539 223.592,215.976 223.728 C 215.413 223.865,214.333 224.429,213.576 224.982 C 212.819 225.535,211.390 226.363,210.400 226.822 C 209.411 227.281,208.061 228.060,207.400 228.553 C 206.740 229.046,205.570 229.692,204.800 229.988 C 204.030 230.285,202.950 230.936,202.400 231.435 C 201.850 231.934,200.420 232.726,199.223 233.196 C 198.026 233.665,196.640 234.488,196.142 235.024 C 195.645 235.561,194.915 236.001,194.519 236.001 C 193.710 236.003,191.569 237.225,190.295 238.412 C 189.830 238.846,189.218 239.200,188.937 239.200 C 188.655 239.200,187.361 239.740,186.062 240.400 C 184.764 241.060,183.498 241.600,183.251 241.600 C 182.921 241.600,182.800 234.455,182.800 215.000 L 182.800 188.400 184.381 188.400 C 185.251 188.400,186.421 188.609,186.981 188.864 " stroke="none" fill="#9c9510" fill-rule="evenodd"></path></g></svg>