<?xml version="1.0" standalone="no"?><!DOCTYPE svg PUBLIC "-//W3C//DTD SVG 1.1//EN" "http://www.w3.org/Graphics/SVG/1.1/DTD/svg11.dtd"><svg t="1707713667070" class="icon" viewBox="0 0 1122 1024" version="1.1" xmlns="http://www.w3.org/2000/svg" p-id="52464" xmlns:xlink="http://www.w3.org/1999/xlink" width="52.59375" height="48"><path d="M0 934.956522zM0 924.16h934.956522V934.956522H0z" fill="#174568" p-id="52465"></path><path d="M0 913.363478h934.956522v10.796522H0z" fill="#174669" p-id="52466"></path><path d="M0 902.622609h934.956522v10.796521H0z" fill="#16466A" p-id="52467"></path><path d="M0 891.826087h934.956522v10.796522H0z" fill="#16476B" p-id="52468"></path><path d="M0 881.029565h934.956522v10.796522H0z" fill="#16486C" p-id="52469"></path><path d="M0 870.233043h934.956522v10.796522H0z" fill="#16486D" p-id="52470"></path><path d="M0 859.436522h934.956522v10.796521H0z" fill="#15496E" p-id="52471"></path><path d="M0 848.695652h934.956522v10.796522H0z" fill="#15496F" p-id="52472"></path><path d="M0 837.89913h934.956522v10.796522H0z" fill="#154A70" p-id="52473"></path><path d="M0 827.102609h934.956522v10.796521H0z" fill="#144B71" p-id="52474"></path><path d="M0 816.306087h934.956522v10.796522H0z" fill="#144B72" p-id="52475"></path><path d="M0 805.509565h934.956522v10.796522H0z" fill="#144C73" p-id="52476"></path><path d="M0 794.768696h934.956522v10.796521H0z" fill="#144D74" p-id="52477"></path><path d="M0 783.972174h934.956522v10.796522H0z" fill="#134D75" p-id="52478"></path><path d="M0 773.175652h934.956522v10.796522H0z" fill="#134E76" p-id="52479"></path><path d="M0 762.37913h934.956522v10.796522H0z" fill="#134F77" p-id="52480"></path><path d="M0 751.638261h934.956522V762.434783H0z" fill="#124F78" p-id="52481"></path><path d="M0 740.841739h934.956522v10.796522H0z" fill="#125079" p-id="52482"></path><path d="M0 730.045217h934.956522v10.796522H0z" fill="#12517A" p-id="52483"></path><path d="M0 719.248696h934.956522v10.796521H0z" fill="#12517B" p-id="52484"></path><path d="M0 708.452174h934.956522v10.796522H0z" fill="#11527C" p-id="52485"></path><path d="M0 697.711304h934.956522v10.796522H0z" fill="#11527D" p-id="52486"></path><path d="M0 686.914783h934.956522v10.796521H0z" fill="#11537E" p-id="52487"></path><path d="M0 676.118261h934.956522v10.796522H0z" fill="#10547F" p-id="52488"></path><path d="M0 665.321739h934.956522v10.796522H0z" fill="#105480" p-id="52489"></path><path d="M0 654.525217h934.956522v10.796522H0z" fill="#105581" p-id="52490"></path><path d="M0 643.784348h934.956522v10.796522H0z" fill="#105682" p-id="52491"></path><path d="M0 632.987826h934.956522v10.796522H0z" fill="#0F5683" p-id="52492"></path><path d="M0 622.191304h934.956522v10.796522H0z" fill="#0F5784" p-id="52493"></path><path d="M0 611.394783h934.956522v10.796521H0z" fill="#0F5885" p-id="52494"></path><path d="M0 600.598261h934.956522v10.796522H0z" fill="#0E5886" p-id="52495"></path><path d="M0 589.857391h934.956522v10.796522H0z" fill="#0E5987" p-id="52496"></path><path d="M0 579.06087h934.956522v10.796521H0z" fill="#0E5A88" p-id="52497"></path><path d="M0 568.264348h934.956522v10.796522H0z" fill="#0E5A89" p-id="52498"></path><path d="M0 557.467826h934.956522v10.796522H0z" fill="#0D5B8A" p-id="52499"></path><path d="M0 546.671304h934.956522v10.796522H0z" fill="#0D5B8B" p-id="52500"></path><path d="M0 535.930435h934.956522v10.796522H0z" fill="#0D5C8C" p-id="52501"></path><path d="M0 525.133913h934.956522v10.796522H0z" fill="#0C5D8D" p-id="52502"></path><path d="M0 514.337391h934.956522v10.796522H0z" fill="#0C5D8E" p-id="52503"></path><path d="M0 503.54087h934.956522v10.796521H0z" fill="#0C5E8F" p-id="52504"></path><path d="M0 492.744348h934.956522v10.796522H0z" fill="#0C5F90" p-id="52505"></path><path d="M0 482.003478h934.956522v10.796522H0z" fill="#0B5F92" p-id="52506"></path><path d="M0 471.206957h934.956522v10.796521H0z" fill="#0B6093" p-id="52507"></path><path d="M0 460.410435h934.956522v10.796522H0z" fill="#0B6194" p-id="52508"></path><path d="M0 449.613913h934.956522v10.796522H0z" fill="#0B6195" p-id="52509"></path><path d="M0 438.873043h934.956522v10.796522H0z" fill="#0A6296" p-id="52510"></path><path d="M0 428.076522h934.956522v10.796521H0z" fill="#0A6397" p-id="52511"></path><path d="M0 417.28h934.956522v10.796522H0z" fill="#0A6398" p-id="52512"></path><path d="M0 406.483478h934.956522v10.796522H0z" fill="#096499" p-id="52513"></path><path d="M0 395.686957h934.956522v10.796521H0z" fill="#09649A" p-id="52514"></path><path d="M0 384.946087h934.956522v10.796522H0z" fill="#09659B" p-id="52515"></path><path d="M0 374.149565h934.956522v10.796522H0z" fill="#09669C" p-id="52516"></path><path d="M0 363.353043h934.956522v10.796522H0z" fill="#08669D" p-id="52517"></path><path d="M0 352.556522h934.956522v10.796521H0z" fill="#08679E" p-id="52518"></path><path d="M0 341.76h934.956522v10.796522H0z" fill="#08689F" p-id="52519"></path><path d="M0 331.01913h934.956522v10.796522H0z" fill="#0768A0" p-id="52520"></path><path d="M0 320.222609h934.956522v10.796521H0z" fill="#0769A1" p-id="52521"></path><path d="M0 309.426087h934.956522v10.796522H0z" fill="#076AA2" p-id="52522"></path><path d="M0 298.629565h934.956522v10.796522H0z" fill="#076AA3" p-id="52523"></path><path d="M0 287.833043h934.956522v10.796522H0z" fill="#066BA4" p-id="52524"></path><path d="M0 277.092174h934.956522v10.796522H0z" fill="#066CA5" p-id="52525"></path><path d="M0 266.295652h934.956522v10.796522H0z" fill="#066CA6" p-id="52526"></path><path d="M0 255.49913h934.956522v10.796522H0z" fill="#056DA7" p-id="52527"></path><path d="M0 244.702609h934.956522v10.796521H0z" fill="#056DA8" p-id="52528"></path><path d="M0 233.906087h934.956522v10.796522H0z" fill="#056EA9" p-id="52529"></path><path d="M0 223.165217h934.956522v10.796522H0z" fill="#056FAA" p-id="52530"></path><path d="M0 212.368696h934.956522v10.796521H0z" fill="#046FAB" p-id="52531"></path><path d="M0 201.572174h934.956522v10.796522H0z" fill="#0470AC" p-id="52532"></path><path d="M0 190.775652h934.956522v10.796522H0z" fill="#0471AD" p-id="52533"></path><path d="M0 180.034783h934.956522v10.796521H0z" fill="#0371AE" p-id="52534"></path><path d="M0 169.238261h934.956522v10.796522H0z" fill="#0372AF" p-id="52535"></path><path d="M0 158.441739h934.956522v10.796522H0z" fill="#0373B0" p-id="52536"></path><path d="M0 147.645217h934.956522v10.796522H0z" fill="#0373B1" p-id="52537"></path><path d="M0 136.848696h934.956522v10.796521H0z" fill="#0274B2" p-id="52538"></path><path d="M0 126.107826h934.956522v10.796522H0z" fill="#0275B3" p-id="52539"></path><path d="M0 115.311304h934.956522v10.796522H0z" fill="#0275B4" p-id="52540"></path><path d="M0 104.514783h934.956522v10.796521H0z" fill="#0176B5" p-id="52541"></path><path d="M0 93.718261h934.956522v10.796522H0z" fill="#0176B6" p-id="52542"></path><path d="M0 82.921739h934.956522v10.796522H0z" fill="#0177B7" p-id="52543"></path><path d="M0 72.18087h934.956522v10.796521H0z" fill="#0178B8" p-id="52544"></path><path d="M0 61.384348h934.956522v10.796522H0z" fill="#0078B9" p-id="52545"></path><path d="M0 50.587826h934.956522v10.796522H0zM0 0h934.956522v50.587826H0z" fill="#0079BA" p-id="52546"></path><path d="M803.506087 808.793043H362.573913a166.511304 166.511304 0 0 1-165.342609-166.956521V201.73913a166.956522 166.956522 0 0 0-32.667826 99.172174v444.326957a166.344348 166.344348 0 0 0 12.744348 64.333913h-38.956522a50.866087 50.866087 0 0 0 0 101.676522H316.104348c4.563478 0.389565 9.126957 0.612174 13.801739 0.612174h440.932174c4.61913 0 9.182609 0 13.746087-0.612174h6.066087a50.086957 50.086957 0 0 0 20.591304-4.452174 166.956522 166.956522 0 0 0 124.939131-161.391305v-3.895652a165.064348 165.064348 0 0 1-132.674783 67.283478z" fill="#FFFFFF" p-id="52547"></path><path d="M190.608696 0h614.288695a123.937391 123.937391 0 0 1 123.937392 123.937391v609.113044a77.078261 77.078261 0 0 1-77.356522 77.078261H143.805217V46.803478A46.803478 46.803478 0 0 1 190.608696 0z" fill="#FFFFFF" p-id="52548"></path><path d="M200.681739 0h614.288696a123.937391 123.937391 0 0 1 123.937391 123.937391v609.113044a77.078261 77.078261 0 0 1-77.078261 77.078261H153.878261V46.803478A46.803478 46.803478 0 0 1 200.681739 0z" fill="#0BB1D8" p-id="52549"></path><path d="M812.187826 226.05913c-20.591304-39.457391-54.873043-63.443478-77.189565-53.203478-10.24 5.175652-17.14087 18.866087-17.14087 34.281739a199.735652 199.735652 0 0 1-5.12 29.161739c-1.224348 8.45913-3.283478 18.532174-4.396521 23.819131a405.648696 405.648696 0 0 0-24.765218-33.947826c-26.713043-31.721739-59.937391-73.182609-121.766956-75.353044a63.165217 63.165217 0 0 1 30.886956-37.732174c16.361739-9.572174 48.027826-12.633043 60.215652-13.467826a18.866087 18.866087 0 1 0 26.379131-8.069565 18.643478 18.643478 0 0 0-18.810435 0 17.92 17.92 0 0 0-6.789565 6.733913l-2.671305-0.723478s-23.986087-6.845217-60.048695 8.570435a70.010435 70.010435 0 0 0-39.958261 44.521739c-27.826087 1.001739-45.467826 9.349565-66.337391 22.260869-19.366957 11.909565-50.086957 44.521739-71.68 75.408696-0.77913-3.951304-1.502609-8.18087-2.059131-12.076522a208.417391 208.417391 0 0 1-5.12-29.161739c0-15.471304-6.90087-29.161739-17.140869-34.281739-22.26087-10.295652-56.598261 13.690435-77.189566 53.147826-22.26087 39.457391-20.591304 82.309565 1.725218 92.605217 11.965217 5.175652 27.38087 1.725217 42.852174-10.24 5.12-1.725217 11.965217-3.450435 18.810434-5.175652a59.325217 59.325217 0 0 1 9.071305 0.723479 100.173913 100.173913 0 0 0-3.951305 43.965217c3.227826 29.217391 29.161739 54.928696 53.314783 70.344348a192.333913 192.333913 0 0 0 72.013913 25.711304h-5.231304s-22.26087 17.14087-34.281739 17.14087-1.725217-17.14087-17.14087-18.866087-11.965217 13.746087-11.965217 13.746087-30.886957 0-18.866087 23.986087c10.295652 24.041739 42.852174 10.295652 42.852174 10.295652A207.193043 207.193043 0 0 1 498.42087 473.043478c12.855652-3.227826 19.70087-16.695652 20.535652-18.69913-1.446957 3.172174-22.26087 48.64-22.26087 70.121739 0 23.986087 10.295652 25.711304 10.295652 34.281739s0 13.746087-5.175652 13.746087c-5.12 1.669565-27.38087-8.570435-44.521739-12.02087s-36.006957 15.415652-36.006956 23.986087a20.702609 20.702609 0 0 0 5.12 13.746087s5.175652 6.845217 44.521739 5.12c37.732174-1.669565 30.831304-5.12 44.521739-5.12s22.26087 1.669565 25.711304-3.450434-3.394783-18.810435-3.394782-22.26087a16.695652 16.695652 0 0 1 3.394782-15.471304c3.394783-3.394783 5.175652-1.669565 10.295652-1.669566s6.845217 0 10.24 3.394783c5.175652 3.394783 1.725217 10.295652 1.725218 15.415652 0 3.450435-5.175652 15.471304-1.725218 22.26087 3.450435 5.175652 15.471304 1.725217 27.436522 3.394782a326.455652 326.455652 0 0 0 54.873044 5.175653c25.711304 0 30.886957-1.725217 36.006956-8.570435s0-32.556522-27.38087-34.281739c-25.711304-3.394783-22.26087 6.845217-36.062608 10.295652s-15.415652 6.845217-18.810435-1.725218c-5.175652-8.570435-5.175652-12.02087-3.450435-15.415652s10.295652-10.295652 10.295652-36.062608c-1.725217-25.711304-18.866087-61.718261-18.866087-61.718261a97.28 97.28 0 0 0 25.711305 20.591304c12.02087 5.175652 22.26087 5.175652 30.886956 12.02087 10.295652 8.570435 24.041739 6.845217 36.062609-1.725218s6.845217-27.38087-1.725217-30.831304a48.027826 48.027826 0 0 0-13.746087-1.725217c-3.394783-5.175652 0-12.02087-12.02087-12.02087s-6.845217 13.746087-12.020869 17.14087-36.006957-8.570435-36.006957-13.746087a156.493913 156.493913 0 0 0 56.542609-17.14087c17.14087-13.690435 75.464348-46.302609 75.464348-89.043478a126.163478 126.163478 0 0 0-5.008696-34.893913 66.281739 66.281739 0 0 1 18.754782-2.949566c6.845217 1.725217 13.690435 3.394783 18.810435 5.175653 15.471304 12.02087 30.886957 15.415652 42.852174 10.24 22.26087-10.184348 24.097391-53.092174 1.836522-92.493913zM362.073043 740.452174V652.8h17.474783l20.758261 62.052174c1.892174 5.565217 3.283478 10.128696 4.173913 12.966956q1.502609-4.730435 4.674783-14.024347l20.980869-61.217392h15.582609v87.652174h-11.130435v-73.126956l-25.433043 73.349565h-10.518261l-25.377392-74.629565v74.629565zM490.907826 740.452174V652.8h11.575652v87.652174zM588.466087 706.05913V695.652174h37.12v32.556522a66.782609 66.782609 0 0 1-17.641739 10.24 52.646957 52.646957 0 0 1-18.643478 3.450434 49.252174 49.252174 0 0 1-23.485218-5.565217 36.507826 36.507826 0 0 1-15.916522-15.972174 50.086957 50.086957 0 0 1-5.565217-23.373913 54.316522 54.316522 0 0 1 5.565217-23.874783 35.283478 35.283478 0 0 1 15.415653-16.695652 47.916522 47.916522 0 0 1 23.151304-5.565217 46.747826 46.747826 0 0 1 17.14087 3.060869 28.605217 28.605217 0 0 1 12.076521 8.626087 37.89913 37.89913 0 0 1 6.622609 14.302609l-10.462609 2.893913a33.391304 33.391304 0 0 0-4.897391-10.518261 19.70087 19.70087 0 0 0-8.347826-6.121739 30.553043 30.553043 0 0 0-12.076522-2.337391 35.283478 35.283478 0 0 0-13.746087 2.448696 25.933913 25.933913 0 0 0-9.405217 6.344347 32.723478 32.723478 0 0 0-5.565218 8.681739 45.913043 45.913043 0 0 0-3.33913 17.64174 42.963478 42.963478 0 0 0 4.006956 19.589565 26.045217 26.045217 0 0 0 11.742609 11.742609 36.507826 36.507826 0 0 0 16.695652 3.84 39.68 39.68 0 0 0 14.692174-2.893914 38.121739 38.121739 0 0 0 11.130435-6.233043v-16.306087zM724.646957 652.8h11.631304v50.643478a59.65913 59.65913 0 0 1-3.005218 20.98087 25.433043 25.433043 0 0 1-10.796521 12.633043 38.344348 38.344348 0 0 1-20.48 4.897392 42.073043 42.073043 0 0 1-20.146087-4.285218 24.208696 24.208696 0 0 1-11.130435-12.243478 58.88 58.88 0 0 1-3.33913-21.982609v-50.643478h11.631304v50.587826a48.417391 48.417391 0 0 0 2.114783 16.695652 15.972174 15.972174 0 0 0 7.290434 8.347826 25.266087 25.266087 0 0 0 12.633044 2.949566 24.208696 24.208696 0 0 0 18.253913-5.843479c3.617391-3.84 5.565217-11.130435 5.565217-22.260869z" fill="#FFFFFF" p-id="52550"></path><path d="M188.438261 105.73913a51.533913 51.533913 0 0 1 50.086956 38.956522V0H155.325217a17.029565 17.029565 0 0 0-16.973913 17.029565V144.695652a51.533913 51.533913 0 0 1 50.086957-38.956522z" fill="#DE0124" p-id="52551"></path></svg>