<svg id="svg" version="1.1" xmlns="http://www.w3.org/2000/svg" xmlns:xlink="http://www.w3.org/1999/xlink" width="48" height="48" viewBox="0 0 400 400"><g id="svgg"><path id="path0" d="M100.381 94.250 C 99.824 95.715,100.068 226.166,100.631 227.769 C 101.229 229.474,102.104 229.896,103.690 229.246 C 104.410 228.950,105.810 228.431,106.800 228.093 C 107.790 227.755,108.873 227.246,109.206 226.962 C 109.539 226.679,110.587 226.272,111.535 226.059 C 112.482 225.846,113.559 225.407,113.929 225.083 C 114.298 224.760,115.050 224.374,115.600 224.227 C 116.699 223.932,117.937 223.423,124.859 220.421 C 127.421 219.309,129.712 218.400,129.949 218.400 C 130.187 218.400,130.970 218.041,131.690 217.601 C 132.411 217.162,133.402 216.802,133.894 216.801 C 134.385 216.801,135.375 216.275,136.094 215.633 L 137.400 214.466 137.600 174.133 L 137.800 133.800 138.926 133.671 C 139.545 133.600,140.451 133.804,140.940 134.124 C 141.428 134.444,143.082 135.200,144.614 135.805 C 147.056 136.769,148.862 137.554,153.800 139.802 C 154.460 140.102,156.350 140.906,158.000 141.587 C 159.650 142.268,161.720 143.174,162.600 143.599 C 163.480 144.025,165.730 145.023,167.600 145.816 C 169.470 146.610,171.171 147.426,171.380 147.630 C 171.589 147.833,172.129 148.002,172.580 148.005 C 173.031 148.007,174.183 148.457,175.141 149.005 C 176.098 149.552,177.071 150.000,177.302 150.000 C 177.784 150.000,181.487 151.630,183.679 152.806 C 184.493 153.243,185.390 153.600,185.674 153.600 C 185.957 153.600,187.136 154.050,188.294 154.600 C 189.452 155.150,191.348 156.050,192.506 156.600 C 193.664 157.150,194.851 157.600,195.144 157.600 C 195.437 157.600,196.217 157.985,196.877 158.455 C 199.007 159.972,201.525 159.517,207.300 156.570 C 208.345 156.036,209.408 155.600,209.662 155.600 C 210.159 155.600,213.700 154.037,216.054 152.778 C 216.854 152.350,217.754 151.999,218.054 151.998 C 218.355 151.996,219.140 151.706,219.800 151.352 C 220.460 150.999,222.530 150.086,224.400 149.325 C 226.270 148.563,228.361 147.593,229.047 147.170 C 229.733 146.746,230.609 146.400,230.993 146.400 C 231.377 146.400,232.346 146.054,233.146 145.631 C 235.106 144.595,238.776 142.964,239.972 142.598 C 240.507 142.434,241.497 141.963,242.172 141.552 C 242.848 141.140,243.647 140.802,243.948 140.801 C 244.249 140.801,246.172 139.990,248.221 139.000 C 250.270 138.010,252.157 137.200,252.414 137.200 C 252.672 137.200,253.719 136.770,254.741 136.244 C 263.279 131.855,262.800 131.140,262.800 148.293 C 262.800 163.420,262.778 163.295,265.206 161.860 C 265.821 161.497,266.566 161.199,266.862 161.198 C 267.158 161.196,267.940 160.912,268.600 160.565 C 269.260 160.219,271.388 159.314,273.329 158.553 C 275.269 157.793,277.517 156.818,278.323 156.385 C 279.129 155.953,280.061 155.599,280.394 155.599 C 280.727 155.598,281.555 155.259,282.233 154.845 C 282.912 154.431,284.082 153.960,284.833 153.797 C 285.585 153.634,286.650 153.198,287.200 152.828 C 287.750 152.458,289.550 151.639,291.200 151.007 C 296.438 149.002,298.985 147.928,299.500 147.509 C 300.153 146.978,300.236 95.188,299.586 93.974 C 299.186 93.226,298.558 93.200,281.129 93.200 L 263.086 93.200 259.643 94.654 C 257.749 95.454,254.940 96.627,253.400 97.261 C 251.860 97.894,249.970 98.745,249.200 99.151 C 248.430 99.557,247.143 100.009,246.340 100.155 C 245.537 100.301,244.660 100.686,244.391 101.011 C 244.122 101.335,243.636 101.600,243.310 101.600 C 242.984 101.600,240.621 102.512,238.059 103.626 C 235.497 104.741,232.387 106.091,231.150 106.626 C 229.912 107.162,228.702 107.600,228.460 107.600 C 228.217 107.600,227.430 107.959,226.710 108.399 C 225.989 108.838,225.148 109.198,224.840 109.199 C 224.333 109.200,223.148 109.708,218.200 112.046 C 217.320 112.461,216.060 112.969,215.400 113.173 C 213.476 113.770,209.707 115.413,209.091 115.925 C 208.779 116.184,207.911 116.508,207.162 116.646 C 206.413 116.784,205.350 117.179,204.800 117.524 C 202.135 119.194,198.286 119.250,195.349 117.663 C 193.472 116.649,189.051 114.800,188.502 114.800 C 188.168 114.800,187.333 114.461,186.647 114.046 C 185.961 113.631,184.950 113.163,184.400 113.005 C 183.850 112.848,182.500 112.314,181.400 111.819 C 180.300 111.323,178.410 110.510,177.200 110.011 C 175.990 109.512,174.260 108.766,173.356 108.352 C 172.452 107.938,171.552 107.594,171.356 107.587 C 171.160 107.581,170.100 107.132,169.000 106.591 C 167.900 106.050,166.785 105.606,166.521 105.604 C 166.258 105.602,165.196 105.150,164.162 104.600 C 163.127 104.050,162.047 103.600,161.762 103.600 C 161.476 103.600,160.396 103.150,159.362 102.600 C 158.327 102.050,157.243 101.600,156.953 101.600 C 156.433 101.600,154.424 100.704,151.521 99.178 C 150.707 98.750,149.807 98.398,149.521 98.396 C 149.234 98.394,148.100 97.950,147.000 97.409 C 145.900 96.868,144.757 96.419,144.459 96.413 C 144.161 96.406,143.081 95.960,142.059 95.422 C 137.918 93.244,137.446 93.200,118.415 93.200 L 100.780 93.200 100.381 94.250 M295.000 183.458 C 293.240 184.217,290.187 185.476,288.216 186.256 C 286.245 187.035,284.270 187.926,283.827 188.236 C 283.384 188.546,282.759 188.800,282.437 188.800 C 282.116 188.800,281.121 189.150,280.226 189.577 C 279.332 190.004,277.790 190.653,276.800 191.019 C 273.340 192.296,271.389 193.066,270.000 193.701 C 269.230 194.053,267.385 194.885,265.900 195.550 L 263.200 196.758 263.192 198.879 C 263.104 221.855,262.870 229.934,262.225 232.200 C 261.849 233.520,261.379 235.576,261.181 236.769 C 260.826 238.898,259.838 241.788,258.351 245.044 C 257.938 245.948,257.600 246.944,257.600 247.257 C 257.600 247.571,256.965 248.811,256.189 250.013 C 255.413 251.216,254.407 252.965,253.953 253.900 C 253.500 254.835,252.982 255.600,252.804 255.600 C 252.625 255.600,252.128 256.185,251.699 256.900 C 246.318 265.867,230.848 276.879,219.512 279.813 C 218.350 280.114,216.410 280.617,215.200 280.931 C 207.555 282.918,191.815 282.641,185.510 280.410 C 184.250 279.965,182.959 279.600,182.640 279.600 C 182.021 279.600,176.070 277.309,175.400 276.813 C 175.180 276.649,174.391 276.311,173.646 276.060 C 168.017 274.164,155.704 264.317,151.935 258.697 C 151.421 257.931,150.103 255.976,149.006 254.352 C 147.910 252.728,146.469 250.320,145.806 249.000 C 144.332 246.070,142.969 245.697,139.735 247.338 C 138.671 247.878,136.540 248.795,135.000 249.376 C 131.080 250.856,128.434 251.953,126.800 252.777 C 126.030 253.166,124.860 253.614,124.200 253.773 C 123.540 253.932,122.730 254.302,122.400 254.594 C 122.070 254.886,121.080 255.318,120.200 255.553 C 119.320 255.788,117.887 256.345,117.015 256.790 C 116.144 257.236,115.154 257.603,114.815 257.608 C 114.087 257.617,110.399 259.868,110.403 260.301 C 110.407 260.800,115.214 270.153,115.799 270.799 C 116.099 271.130,116.541 271.851,116.782 272.401 C 117.023 272.950,117.621 273.940,118.111 274.600 C 118.602 275.260,120.020 277.171,121.265 278.847 C 124.267 282.891,125.465 284.252,130.200 289.005 C 137.658 296.491,138.765 297.347,151.400 305.403 C 154.137 307.148,162.772 311.200,163.754 311.200 C 164.006 311.200,164.880 311.558,165.697 311.996 C 166.514 312.434,167.861 312.962,168.691 313.169 C 169.521 313.376,171.010 313.823,172.000 314.161 C 183.082 317.950,205.347 319.632,215.400 317.440 C 216.940 317.104,218.830 316.825,219.600 316.820 C 220.928 316.811,223.890 316.044,231.600 313.716 C 238.517 311.627,247.010 307.985,251.000 305.398 C 252.100 304.684,253.476 303.853,254.058 303.550 C 254.640 303.248,256.424 302.100,258.022 301.000 C 259.621 299.900,261.375 298.699,261.922 298.331 C 262.468 297.963,263.024 297.512,263.157 297.328 C 263.291 297.145,264.120 296.470,265.000 295.827 C 267.750 293.819,275.559 285.963,278.546 282.200 C 283.187 276.353,287.200 270.679,287.200 269.965 C 287.200 269.784,287.647 268.977,288.192 268.173 C 289.077 266.870,290.177 264.696,291.823 261.000 C 292.117 260.340,292.817 258.776,293.379 257.525 C 293.940 256.273,294.408 255.013,294.418 254.725 C 294.427 254.436,294.713 253.480,295.052 252.600 C 296.668 248.412,298.333 241.387,299.602 233.400 C 300.015 230.806,300.158 183.678,299.757 182.633 C 299.417 181.747,298.658 181.879,295.000 183.458 " stroke="none" fill="#fafbfb" fill-rule="evenodd"></path><path id="path1" d="M64.780 0.360 C 63.323 0.493,61.683 0.914,61.083 1.307 C 60.491 1.696,59.150 2.119,58.103 2.248 C 57.056 2.376,55.750 2.795,55.200 3.178 C 54.650 3.561,53.334 3.972,52.275 4.091 C 51.100 4.223,49.999 4.637,49.449 5.154 C 48.954 5.619,48.273 6.000,47.936 6.000 C 47.599 6.000,46.998 6.360,46.600 6.800 C 46.202 7.240,45.558 7.600,45.169 7.600 C 44.780 7.600,43.927 8.050,43.273 8.600 C 42.619 9.150,41.805 9.600,41.463 9.600 C 41.121 9.600,40.356 10.050,39.762 10.600 C 39.169 11.150,38.301 11.600,37.835 11.600 C 37.368 11.600,36.159 12.393,35.148 13.361 C 34.137 14.330,32.745 15.415,32.055 15.772 C 31.365 16.129,30.800 16.568,30.800 16.749 C 30.800 16.930,30.449 17.240,30.021 17.439 C 27.702 18.514,17.644 28.609,17.271 30.237 C 17.200 30.547,16.979 30.800,16.781 30.800 C 16.583 30.800,16.121 31.385,15.756 32.100 C 15.390 32.815,14.305 34.147,13.345 35.060 C 12.385 35.974,11.600 37.085,11.600 37.530 C 11.600 37.975,11.150 38.873,10.600 39.527 C 10.050 40.181,9.600 40.924,9.600 41.179 C 9.600 41.434,9.150 42.305,8.600 43.114 C 8.050 43.923,7.600 44.741,7.600 44.930 C 7.600 45.119,7.240 45.731,6.800 46.291 C 6.360 46.850,6.000 47.570,6.000 47.890 C 6.000 48.210,5.635 48.771,5.189 49.136 C 4.634 49.591,4.299 50.493,4.125 52.000 C 3.965 53.387,3.621 54.378,3.193 54.683 C 2.760 54.991,2.416 55.999,2.244 57.466 C 2.095 58.731,1.690 60.080,1.343 60.463 C 0.099 61.838,0.035 68.671,0.035 200.200 C 0.035 330.946,0.109 338.905,1.323 339.793 C 1.660 340.040,2.048 341.248,2.213 342.564 C 2.401 344.073,2.769 345.123,3.252 345.537 C 3.742 345.957,4.000 346.709,4.000 347.715 C 4.000 349.363,4.582 350.802,5.458 351.320 C 5.756 351.496,6.000 352.059,6.000 352.571 C 6.000 353.083,6.272 353.728,6.605 354.004 C 6.937 354.280,7.563 355.247,7.995 356.153 C 8.427 357.059,9.004 358.160,9.278 358.600 C 11.146 361.600,11.600 362.445,11.600 362.919 C 11.600 363.214,12.005 363.831,12.500 364.289 C 14.138 365.806,15.600 367.607,15.600 368.107 C 15.600 368.378,16.334 369.403,17.231 370.385 C 18.129 371.367,19.035 372.491,19.245 372.885 C 19.456 373.278,19.892 373.600,20.214 373.600 C 20.536 373.600,20.800 373.806,20.800 374.059 C 20.800 374.680,25.272 379.181,25.900 379.192 C 26.175 379.196,26.400 379.464,26.400 379.786 C 26.400 380.108,26.805 380.587,27.300 380.849 C 27.795 381.112,28.435 381.658,28.723 382.063 C 29.010 382.469,29.486 382.800,29.780 382.800 C 30.074 382.800,30.414 383.061,30.537 383.379 C 30.659 383.698,31.353 384.261,32.079 384.631 C 32.806 385.001,33.670 385.556,34.000 385.864 C 36.525 388.219,37.256 388.801,37.696 388.809 C 37.973 388.814,38.650 389.170,39.200 389.600 C 39.750 390.030,40.487 390.386,40.838 390.391 C 41.189 390.396,41.787 390.744,42.167 391.164 C 42.548 391.584,43.341 392.048,43.929 392.194 C 44.518 392.340,45.360 392.785,45.800 393.184 C 46.240 393.582,47.049 394.045,47.598 394.212 C 48.148 394.380,48.798 394.792,49.045 395.129 C 49.332 395.521,50.370 395.805,51.934 395.918 C 53.817 396.054,54.427 396.256,54.600 396.800 C 54.830 397.524,56.379 398.000,58.506 398.000 C 59.169 398.000,59.927 398.294,60.190 398.653 C 61.109 399.911,65.574 399.952,200.000 399.952 C 334.426 399.952,338.891 399.911,339.810 398.653 C 340.073 398.294,340.718 397.998,341.244 397.996 C 343.541 397.985,345.311 397.462,345.500 396.739 C 345.654 396.151,346.082 396.000,347.593 396.000 C 348.849 396.000,349.817 395.744,350.453 395.244 C 350.981 394.829,352.040 394.202,352.807 393.852 C 354.209 393.212,354.619 392.976,357.222 391.310 C 358.003 390.809,358.920 390.400,359.260 390.400 C 359.599 390.400,360.193 390.050,360.579 389.623 C 360.966 389.195,361.780 388.736,362.386 388.603 C 362.993 388.470,363.874 387.919,364.342 387.380 C 364.811 386.841,365.364 386.400,365.570 386.400 C 365.777 386.400,366.060 386.040,366.200 385.600 C 366.340 385.160,366.770 384.800,367.157 384.800 C 367.544 384.800,368.283 384.350,368.800 383.800 C 369.317 383.250,369.968 382.800,370.247 382.800 C 370.526 382.800,370.990 382.469,371.277 382.063 C 371.565 381.658,372.205 381.112,372.700 380.849 C 373.195 380.587,373.600 380.108,373.600 379.786 C 373.600 379.464,373.838 379.200,374.128 379.200 C 374.418 379.200,375.039 378.795,375.508 378.300 C 376.581 377.167,377.167 376.581,378.300 375.508 C 378.795 375.039,379.200 374.418,379.200 374.128 C 379.200 373.838,379.464 373.600,379.786 373.600 C 380.108 373.600,380.587 373.195,380.849 372.700 C 381.112 372.205,381.658 371.565,382.063 371.277 C 382.469 370.990,382.800 370.566,382.800 370.335 C 382.800 370.104,383.250 369.381,383.800 368.727 C 384.350 368.073,384.800 367.295,384.800 366.996 C 384.800 366.698,385.160 366.340,385.600 366.200 C 386.040 366.060,386.400 365.777,386.400 365.570 C 386.400 365.364,386.848 364.806,387.395 364.330 C 387.941 363.854,388.502 362.861,388.641 362.122 C 388.780 361.383,389.232 360.597,389.647 360.375 C 390.065 360.151,390.400 359.543,390.400 359.007 C 390.400 358.476,390.850 357.556,391.400 356.962 C 391.950 356.369,392.400 355.631,392.400 355.322 C 392.400 355.014,393.147 353.645,394.060 352.281 C 395.285 350.450,395.771 349.276,395.914 347.800 C 396.021 346.700,396.347 345.660,396.639 345.489 C 397.250 345.130,397.995 342.716,397.998 341.084 C 397.999 340.470,398.405 339.420,398.900 338.750 L 399.800 337.533 399.800 200.466 C 399.800 58.595,399.823 60.800,398.351 60.800 C 398.158 60.800,397.999 60.215,397.998 59.500 C 397.995 57.708,397.277 55.286,396.639 54.911 C 396.347 54.740,396.023 53.700,395.917 52.600 C 395.738 50.717,394.583 48.401,393.010 46.766 C 392.674 46.418,392.400 45.752,392.400 45.287 C 392.400 44.822,391.950 43.956,391.400 43.362 C 390.850 42.769,390.400 41.870,390.400 41.364 C 390.400 40.859,390.077 40.210,389.683 39.923 C 389.288 39.635,388.741 38.635,388.467 37.700 C 388.175 36.704,387.726 36.000,387.384 36.000 C 387.063 36.000,386.800 35.826,386.800 35.614 C 386.800 35.401,386.255 34.636,385.589 33.914 C 383.443 31.587,383.314 31.420,382.642 30.100 C 382.277 29.385,381.798 28.800,381.577 28.800 C 381.356 28.800,381.063 28.485,380.926 28.100 C 380.683 27.416,379.020 25.563,375.800 22.389 C 374.920 21.522,373.834 20.449,373.386 20.006 C 372.938 19.563,372.360 19.200,372.100 19.200 C 371.840 19.200,371.442 18.852,371.214 18.427 C 370.987 18.002,370.396 17.532,369.900 17.383 C 369.405 17.234,368.640 16.773,368.200 16.359 C 364.633 12.999,362.893 11.606,362.258 11.603 C 361.850 11.601,360.981 11.150,360.327 10.600 C 359.673 10.050,358.709 9.600,358.183 9.600 C 357.645 9.600,357.046 9.259,356.809 8.817 C 356.575 8.379,355.772 7.918,354.984 7.771 C 354.211 7.626,353.397 7.168,353.175 6.753 C 352.953 6.339,352.516 6.000,352.204 6.000 C 351.891 6.000,350.972 5.550,350.162 5.000 C 349.278 4.400,348.123 4.000,347.276 4.000 C 346.499 4.000,345.554 3.721,345.177 3.379 C 344.800 3.038,343.301 2.561,341.846 2.320 C 340.391 2.079,339.200 1.746,339.200 1.580 C 339.200 0.192,340.108 0.201,202.000 0.160 C 127.970 0.138,66.221 0.228,64.780 0.360 M138.125 93.822 C 139.266 94.164,141.037 94.884,142.059 95.422 C 143.081 95.960,144.161 96.406,144.459 96.413 C 144.757 96.419,145.900 96.868,147.000 97.409 C 148.100 97.950,149.234 98.394,149.521 98.396 C 149.807 98.398,150.707 98.750,151.521 99.178 C 154.424 100.704,156.433 101.600,156.953 101.600 C 157.243 101.600,158.327 102.050,159.362 102.600 C 160.396 103.150,161.476 103.600,161.762 103.600 C 162.047 103.600,163.127 104.050,164.162 104.600 C 165.196 105.150,166.258 105.602,166.521 105.604 C 166.785 105.606,167.900 106.050,169.000 106.591 C 170.100 107.132,171.160 107.581,171.356 107.587 C 171.552 107.594,172.452 107.938,173.356 108.352 C 174.260 108.766,175.990 109.512,177.200 110.011 C 178.410 110.510,180.300 111.323,181.400 111.819 C 182.500 112.314,183.850 112.848,184.400 113.005 C 184.950 113.163,185.961 113.631,186.647 114.046 C 187.333 114.461,188.168 114.800,188.502 114.800 C 189.051 114.800,193.472 116.649,195.349 117.663 C 198.286 119.250,202.135 119.194,204.800 117.524 C 205.350 117.179,206.413 116.784,207.162 116.646 C 207.911 116.508,208.779 116.184,209.091 115.925 C 209.707 115.413,213.476 113.770,215.400 113.173 C 216.060 112.969,217.320 112.461,218.200 112.046 C 223.148 109.708,224.333 109.200,224.840 109.199 C 225.148 109.198,225.989 108.838,226.710 108.399 C 227.430 107.959,228.217 107.600,228.460 107.600 C 228.702 107.600,229.912 107.162,231.150 106.626 C 232.387 106.091,235.497 104.741,238.059 103.626 C 240.621 102.512,242.984 101.600,243.310 101.600 C 243.636 101.600,244.122 101.335,244.391 101.011 C 244.660 100.686,245.537 100.301,246.340 100.155 C 247.143 100.009,248.430 99.557,249.200 99.151 C 249.970 98.745,251.860 97.894,253.400 97.261 C 254.940 96.627,257.749 95.454,259.643 94.654 L 263.086 93.200 281.129 93.200 C 298.558 93.200,299.186 93.226,299.586 93.974 C 300.236 95.188,300.153 146.978,299.500 147.509 C 298.985 147.928,296.438 149.002,291.200 151.007 C 289.550 151.639,287.750 152.458,287.200 152.828 C 286.650 153.198,285.585 153.634,284.833 153.797 C 284.082 153.960,282.912 154.431,282.233 154.845 C 281.555 155.259,280.727 155.598,280.394 155.599 C 280.061 155.599,279.129 155.953,278.323 156.385 C 277.517 156.818,275.269 157.793,273.329 158.553 C 271.388 159.314,269.260 160.219,268.600 160.565 C 267.940 160.912,267.158 161.196,266.862 161.198 C 266.566 161.199,265.821 161.497,265.206 161.860 C 262.778 163.295,262.800 163.420,262.800 148.293 C 262.800 131.140,263.279 131.855,254.741 136.244 C 253.719 136.770,252.672 137.200,252.414 137.200 C 252.157 137.200,250.270 138.010,248.221 139.000 C 246.172 139.990,244.249 140.801,243.948 140.801 C 243.647 140.802,242.848 141.140,242.172 141.552 C 241.497 141.963,240.507 142.434,239.972 142.598 C 238.776 142.964,235.106 144.595,233.146 145.631 C 232.346 146.054,231.377 146.400,230.993 146.400 C 230.609 146.400,229.733 146.746,229.047 147.170 C 228.361 147.593,226.270 148.563,224.400 149.325 C 222.530 150.086,220.460 150.999,219.800 151.352 C 219.140 151.706,218.355 151.996,218.054 151.998 C 217.754 151.999,216.854 152.350,216.054 152.778 C 213.700 154.037,210.159 155.600,209.662 155.600 C 209.408 155.600,208.345 156.036,207.300 156.570 C 201.525 159.517,199.007 159.972,196.877 158.455 C 196.217 157.985,195.437 157.600,195.144 157.600 C 194.851 157.600,193.664 157.150,192.506 156.600 C 191.348 156.050,189.452 155.150,188.294 154.600 C 187.136 154.050,185.957 153.600,185.674 153.600 C 185.390 153.600,184.493 153.243,183.679 152.806 C 181.487 151.630,177.784 150.000,177.302 150.000 C 177.071 150.000,176.098 149.552,175.141 149.005 C 174.183 148.457,173.031 148.007,172.580 148.005 C 172.129 148.002,171.589 147.833,171.380 147.630 C 171.171 147.426,169.470 146.610,167.600 145.816 C 165.730 145.023,163.480 144.025,162.600 143.599 C 161.720 143.174,159.650 142.268,158.000 141.587 C 156.350 140.906,154.460 140.102,153.800 139.802 C 148.862 137.554,147.056 136.769,144.614 135.805 C 143.082 135.200,141.428 134.444,140.940 134.124 C 140.451 133.804,139.545 133.600,138.926 133.671 L 137.800 133.800 137.600 174.133 L 137.400 214.466 136.094 215.633 C 135.375 216.275,134.385 216.801,133.894 216.801 C 133.402 216.802,132.411 217.162,131.690 217.601 C 130.970 218.041,130.187 218.400,129.949 218.400 C 129.712 218.400,127.421 219.309,124.859 220.421 C 117.937 223.423,116.699 223.932,115.600 224.227 C 115.050 224.374,114.298 224.760,113.929 225.083 C 113.559 225.407,112.482 225.846,111.535 226.059 C 110.587 226.272,109.539 226.679,109.206 226.962 C 108.873 227.246,107.790 227.755,106.800 228.093 C 105.810 228.431,104.410 228.950,103.690 229.246 C 102.104 229.896,101.229 229.474,100.631 227.769 C 100.068 226.166,99.824 95.715,100.381 94.250 L 100.780 93.200 118.415 93.200 C 133.214 93.200,136.383 93.300,138.125 93.822 M299.757 182.633 C 300.158 183.678,300.015 230.806,299.602 233.400 C 298.333 241.387,296.668 248.412,295.052 252.600 C 294.713 253.480,294.427 254.436,294.418 254.725 C 294.408 255.013,293.940 256.273,293.379 257.525 C 292.817 258.776,292.117 260.340,291.823 261.000 C 290.177 264.696,289.077 266.870,288.192 268.173 C 287.647 268.977,287.200 269.784,287.200 269.965 C 287.200 270.679,283.187 276.353,278.546 282.200 C 275.559 285.963,267.750 293.819,265.000 295.827 C 264.120 296.470,263.291 297.145,263.157 297.328 C 263.024 297.512,262.468 297.963,261.922 298.331 C 261.375 298.699,259.621 299.900,258.022 301.000 C 256.424 302.100,254.640 303.248,254.058 303.550 C 253.476 303.853,252.100 304.684,251.000 305.398 C 247.010 307.985,238.517 311.627,231.600 313.716 C 223.890 316.044,220.928 316.811,219.600 316.820 C 218.830 316.825,216.940 317.104,215.400 317.440 C 205.347 319.632,183.082 317.950,172.000 314.161 C 171.010 313.823,169.521 313.376,168.691 313.169 C 167.861 312.962,166.514 312.434,165.697 311.996 C 164.880 311.558,164.006 311.200,163.754 311.200 C 162.772 311.200,154.137 307.148,151.400 305.403 C 138.765 297.347,137.658 296.491,130.200 289.005 C 125.465 284.252,124.267 282.891,121.265 278.847 C 120.020 277.171,118.602 275.260,118.111 274.600 C 117.621 273.940,117.023 272.950,116.782 272.401 C 116.541 271.851,116.099 271.130,115.799 270.799 C 115.214 270.153,110.407 260.800,110.403 260.301 C 110.399 259.868,114.087 257.617,114.815 257.608 C 115.154 257.603,116.144 257.236,117.015 256.790 C 117.887 256.345,119.320 255.788,120.200 255.553 C 121.080 255.318,122.070 254.886,122.400 254.594 C 122.730 254.302,123.540 253.932,124.200 253.773 C 124.860 253.614,126.030 253.166,126.800 252.777 C 128.434 251.953,131.080 250.856,135.000 249.376 C 136.540 248.795,138.671 247.878,139.735 247.338 C 142.969 245.697,144.332 246.070,145.806 249.000 C 146.469 250.320,147.910 252.728,149.006 254.352 C 150.103 255.976,151.421 257.931,151.935 258.697 C 155.704 264.317,168.017 274.164,173.646 276.060 C 174.391 276.311,175.180 276.649,175.400 276.813 C 176.070 277.309,182.021 279.600,182.640 279.600 C 182.959 279.600,184.250 279.965,185.510 280.410 C 191.815 282.641,207.555 282.918,215.200 280.931 C 216.410 280.617,218.350 280.114,219.512 279.813 C 230.848 276.879,246.318 265.867,251.699 256.900 C 252.128 256.185,252.625 255.600,252.804 255.600 C 252.982 255.600,253.500 254.835,253.953 253.900 C 254.407 252.965,255.413 251.216,256.189 250.013 C 256.965 248.811,257.600 247.571,257.600 247.257 C 257.600 246.944,257.938 245.948,258.351 245.044 C 259.838 241.788,260.826 238.898,261.181 236.769 C 261.379 235.576,261.849 233.520,262.225 232.200 C 262.870 229.934,263.104 221.855,263.192 198.879 L 263.200 196.758 265.900 195.550 C 267.385 194.885,269.230 194.053,270.000 193.701 C 271.389 193.066,273.340 192.296,276.800 191.019 C 277.790 190.653,279.332 190.004,280.226 189.577 C 281.121 189.150,282.116 188.800,282.437 188.800 C 282.759 188.800,283.384 188.546,283.827 188.236 C 284.270 187.926,286.245 187.035,288.216 186.256 C 290.187 185.476,293.240 184.217,295.000 183.458 C 298.658 181.879,299.417 181.747,299.757 182.633 " stroke="none" fill="#1bcb88" fill-rule="evenodd"></path></g></svg>