<svg id="svg" version="1.1" xmlns="http://www.w3.org/2000/svg" xmlns:xlink="http://www.w3.org/1999/xlink" width="48" height="48" viewBox="0 0 400 400"><g id="svgg"><path id="path0" d="M73.200 0.400 C 73.200 0.620,72.308 0.800,71.219 0.800 C 69.229 0.800,67.200 1.438,67.200 2.064 C 67.200 2.249,66.390 2.400,65.400 2.400 C 64.133 2.400,63.363 2.637,62.800 3.200 C 62.319 3.681,61.467 4.000,60.662 4.000 C 59.832 4.000,59.049 4.304,58.600 4.800 C 58.199 5.243,57.368 5.600,56.738 5.600 C 56.112 5.600,55.240 5.960,54.800 6.400 C 54.360 6.840,53.548 7.200,52.996 7.200 C 52.444 7.200,51.684 7.560,51.307 8.000 C 50.930 8.440,50.317 8.800,49.944 8.800 C 48.835 8.800,48.000 9.248,48.000 9.843 C 48.000 10.170,47.589 10.400,47.003 10.400 C 46.440 10.400,45.790 10.748,45.507 11.200 C 45.232 11.640,44.685 12.000,44.291 12.000 C 43.897 12.000,43.476 12.259,43.354 12.576 C 43.233 12.892,42.627 13.262,42.008 13.398 C 41.389 13.534,40.566 13.995,40.179 14.423 C 39.793 14.850,39.234 15.200,38.938 15.200 C 38.642 15.200,38.400 15.448,38.400 15.751 C 38.400 16.055,37.860 16.527,37.200 16.800 C 36.540 17.073,36.000 17.452,36.000 17.641 C 36.000 17.830,35.550 18.098,35.000 18.236 C 34.450 18.374,34.000 18.737,34.000 19.043 C 34.000 19.350,33.736 19.600,33.414 19.600 C 33.092 19.600,32.635 19.960,32.400 20.400 C 32.165 20.840,31.729 21.200,31.433 21.200 C 31.136 21.200,30.799 21.560,30.684 22.000 C 30.569 22.440,30.188 22.800,29.837 22.800 C 29.467 22.800,29.200 23.135,29.200 23.600 C 29.200 24.133,28.933 24.400,28.400 24.400 C 27.867 24.400,27.600 24.667,27.600 25.200 C 27.600 25.733,27.333 26.000,26.800 26.000 C 26.267 26.000,26.000 26.267,26.000 26.800 C 26.000 27.333,25.733 27.600,25.200 27.600 C 24.667 27.600,24.400 27.867,24.400 28.400 C 24.400 28.917,24.133 29.200,23.647 29.200 C 23.230 29.200,22.800 29.557,22.684 30.000 C 22.569 30.440,22.188 30.800,21.837 30.800 C 21.480 30.800,21.200 31.131,21.200 31.553 C 21.200 31.970,20.843 32.400,20.400 32.516 C 19.960 32.631,19.600 33.012,19.600 33.363 C 19.600 33.713,19.350 34.000,19.043 34.000 C 18.737 34.000,18.374 34.450,18.236 35.000 C 18.098 35.550,17.830 36.000,17.641 36.000 C 17.452 36.000,17.073 36.540,16.800 37.200 C 16.527 37.860,16.055 38.400,15.751 38.400 C 15.448 38.400,15.200 38.642,15.200 38.938 C 15.200 39.234,14.850 39.793,14.423 40.179 C 13.995 40.566,13.534 41.389,13.398 42.008 C 13.262 42.627,12.892 43.233,12.576 43.354 C 12.259 43.476,12.000 43.897,12.000 44.291 C 12.000 44.685,11.640 45.232,11.200 45.507 C 10.748 45.790,10.400 46.440,10.400 47.003 C 10.400 47.589,10.170 48.000,9.843 48.000 C 9.248 48.000,8.800 48.835,8.800 49.944 C 8.800 50.317,8.440 50.930,8.000 51.307 C 7.560 51.684,7.200 52.444,7.200 52.996 C 7.200 53.548,6.840 54.360,6.400 54.800 C 5.960 55.240,5.600 56.112,5.600 56.738 C 5.600 57.368,5.243 58.199,4.800 58.600 C 4.304 59.049,4.000 59.832,4.000 60.662 C 4.000 61.467,3.681 62.319,3.200 62.800 C 2.637 63.363,2.400 64.133,2.400 65.400 C 2.400 66.390,2.249 67.200,2.064 67.200 C 1.438 67.200,0.800 69.229,0.800 71.219 C 0.800 72.308,0.620 73.200,0.400 73.200 C 0.134 73.200,0.000 115.733,0.000 200.000 C 0.000 273.120,0.150 326.800,0.353 326.800 C 0.548 326.800,0.781 327.960,0.871 329.377 C 0.978 331.058,1.273 332.217,1.718 332.709 C 2.093 333.124,2.400 334.100,2.400 334.878 C 2.400 335.686,2.743 336.728,3.200 337.309 C 3.657 337.891,4.000 338.932,4.000 339.740 C 4.000 340.657,4.259 341.339,4.735 341.677 C 5.140 341.965,5.584 342.910,5.723 343.777 C 5.861 344.644,6.250 345.508,6.587 345.697 C 6.924 345.885,7.200 346.483,7.200 347.024 C 7.200 347.565,7.560 348.316,8.000 348.693 C 8.455 349.083,8.800 349.873,8.800 350.526 C 8.800 351.338,9.034 351.736,9.600 351.884 C 10.086 352.011,10.400 352.430,10.400 352.950 C 10.400 353.422,10.760 354.032,11.200 354.307 C 11.652 354.590,12.000 355.240,12.000 355.803 C 12.000 356.382,12.230 356.800,12.550 356.800 C 12.852 356.800,13.214 357.369,13.353 358.064 C 13.492 358.760,13.964 359.580,14.403 359.887 C 14.841 360.194,15.200 360.705,15.200 361.023 C 15.200 361.340,15.458 361.600,15.773 361.600 C 16.088 361.600,16.466 361.979,16.613 362.441 C 16.986 363.616,18.590 365.913,19.936 367.199 C 20.559 367.795,21.183 368.578,21.322 368.941 C 21.461 369.303,21.851 369.600,22.187 369.600 C 22.524 369.600,22.800 369.858,22.800 370.173 C 22.800 370.488,23.160 370.860,23.600 371.000 C 24.040 371.140,24.400 371.529,24.400 371.864 C 24.400 372.200,24.760 372.569,25.200 372.684 C 25.640 372.799,26.000 373.159,26.000 373.484 C 26.000 373.809,26.360 374.169,26.800 374.284 C 27.240 374.399,27.600 374.742,27.600 375.047 C 27.600 375.351,27.960 375.600,28.400 375.600 C 28.933 375.600,29.200 375.867,29.200 376.400 C 29.200 376.840,29.458 377.200,29.773 377.200 C 30.088 377.200,30.454 377.541,30.586 377.957 C 30.718 378.373,31.181 378.806,31.613 378.919 C 32.046 379.033,32.400 379.412,32.400 379.763 C 32.400 380.133,32.735 380.400,33.200 380.400 C 33.640 380.400,34.007 380.625,34.015 380.900 C 34.030 381.430,37.194 383.600,37.952 383.600 C 38.198 383.600,38.400 383.874,38.400 384.210 C 38.400 384.545,38.850 384.991,39.400 385.200 C 39.950 385.409,40.400 385.756,40.400 385.972 C 40.400 386.187,41.030 386.482,41.800 386.626 C 42.602 386.777,43.200 387.126,43.200 387.445 C 43.200 387.750,43.532 388.000,43.938 388.000 C 44.344 388.000,45.002 388.360,45.400 388.800 C 45.798 389.240,46.359 389.600,46.646 389.600 C 46.934 389.600,47.491 389.939,47.884 390.353 C 48.278 390.768,49.170 391.229,49.867 391.378 C 50.563 391.527,51.233 391.908,51.354 392.224 C 51.488 392.575,52.128 392.800,52.987 392.800 C 53.928 392.800,54.400 392.986,54.400 393.357 C 54.400 394.017,55.257 394.400,56.736 394.400 C 57.374 394.400,58.010 394.724,58.307 395.200 C 58.671 395.783,59.240 396.000,60.403 396.000 C 61.467 396.000,62.267 396.267,62.800 396.800 C 63.303 397.303,64.133 397.600,65.037 397.600 C 65.868 397.600,66.903 397.937,67.491 398.400 C 68.245 398.993,69.114 399.200,70.854 399.200 C 72.151 399.200,73.200 399.379,73.200 399.600 C 73.200 399.866,115.733 400.000,200.000 400.000 C 284.267 400.000,326.800 399.866,326.800 399.600 C 326.800 399.379,327.849 399.200,329.146 399.200 C 330.886 399.200,331.755 398.993,332.509 398.400 C 333.151 397.895,334.132 397.600,335.167 397.600 C 336.313 397.600,337.014 397.359,337.493 396.800 C 337.944 396.273,338.673 396.000,339.627 396.000 C 340.568 396.000,341.330 395.720,341.800 395.200 C 342.202 394.756,343.032 394.400,343.666 394.400 C 344.313 394.400,345.105 394.053,345.493 393.600 C 345.870 393.160,346.656 392.800,347.240 392.800 C 347.824 392.800,348.517 392.542,348.779 392.226 C 349.041 391.910,349.782 391.536,350.425 391.394 C 351.069 391.253,351.731 390.927,351.898 390.669 C 352.227 390.159,353.958 389.086,355.700 388.313 C 356.305 388.044,356.800 387.614,356.800 387.357 C 356.800 387.100,357.425 386.772,358.189 386.628 C 358.953 386.485,359.718 386.136,359.889 385.854 C 360.060 385.571,360.515 385.224,360.900 385.082 C 361.285 384.941,361.600 384.549,361.600 384.213 C 361.600 383.876,361.932 383.600,362.338 383.600 C 362.744 383.600,363.402 383.240,363.800 382.800 C 364.198 382.360,364.765 382.000,365.059 382.000 C 365.353 382.000,365.818 381.640,366.093 381.200 C 366.368 380.760,366.807 380.400,367.069 380.400 C 367.332 380.400,367.654 380.059,367.786 379.643 C 367.918 379.227,368.381 378.794,368.813 378.681 C 369.246 378.567,369.600 378.188,369.600 377.837 C 369.600 377.487,369.858 377.200,370.173 377.200 C 370.488 377.200,370.860 376.840,371.000 376.400 C 371.140 375.960,371.505 375.600,371.813 375.600 C 372.120 375.600,372.564 375.242,372.798 374.804 C 373.032 374.366,373.444 374.051,373.712 374.104 C 373.980 374.157,374.157 373.980,374.104 373.712 C 374.051 373.444,374.366 373.032,374.804 372.798 C 375.242 372.564,375.600 372.120,375.600 371.813 C 375.600 371.505,375.960 371.140,376.400 371.000 C 376.840 370.860,377.200 370.509,377.200 370.220 C 377.200 369.930,377.560 369.599,378.000 369.484 C 378.440 369.369,378.800 369.000,378.800 368.664 C 378.800 368.329,379.160 367.940,379.600 367.800 C 380.040 367.660,380.400 367.332,380.400 367.069 C 380.400 366.807,380.760 366.368,381.200 366.093 C 381.640 365.818,382.000 365.353,382.000 365.059 C 382.000 364.765,382.360 364.198,382.800 363.800 C 383.240 363.402,383.600 362.744,383.600 362.338 C 383.600 361.932,383.876 361.600,384.213 361.600 C 384.549 361.600,384.941 361.285,385.082 360.900 C 385.224 360.515,385.571 360.060,385.854 359.889 C 386.136 359.718,386.485 358.953,386.628 358.189 C 386.772 357.425,387.119 356.800,387.401 356.800 C 387.683 356.800,388.037 356.305,388.189 355.700 C 388.341 355.095,388.810 354.278,389.232 353.884 C 389.655 353.491,390.000 352.925,390.000 352.627 C 390.000 352.329,390.260 351.986,390.578 351.864 C 390.896 351.742,391.273 351.015,391.417 350.249 C 391.561 349.482,391.931 348.759,392.239 348.640 C 392.548 348.522,392.800 347.919,392.800 347.301 C 392.800 346.673,393.152 345.876,393.600 345.493 C 394.053 345.105,394.400 344.313,394.400 343.666 C 394.400 343.032,394.756 342.202,395.200 341.800 C 395.720 341.330,396.000 340.568,396.000 339.627 C 396.000 338.673,396.273 337.944,396.800 337.493 C 397.359 337.014,397.600 336.313,397.600 335.167 C 397.600 334.132,397.895 333.151,398.400 332.509 C 398.993 331.755,399.200 330.886,399.200 329.146 C 399.200 327.849,399.379 326.800,399.600 326.800 C 399.866 326.800,400.000 284.267,400.000 200.000 C 400.000 115.733,399.866 73.200,399.600 73.200 C 399.379 73.200,399.200 72.151,399.200 70.854 C 399.200 69.114,398.993 68.245,398.400 67.491 C 397.937 66.903,397.600 65.868,397.600 65.037 C 397.600 64.133,397.303 63.303,396.800 62.800 C 396.267 62.267,396.000 61.467,396.000 60.403 C 396.000 59.240,395.783 58.671,395.200 58.307 C 394.724 58.010,394.400 57.374,394.400 56.736 C 394.400 55.257,394.017 54.400,393.357 54.400 C 392.986 54.400,392.800 53.928,392.800 52.987 C 392.800 52.128,392.575 51.488,392.224 51.354 C 391.908 51.233,391.527 50.563,391.378 49.867 C 391.229 49.170,390.768 48.278,390.353 47.884 C 389.939 47.491,389.600 46.996,389.600 46.784 C 389.600 46.573,389.240 46.040,388.800 45.600 C 388.360 45.160,388.000 44.440,388.000 44.000 C 388.000 43.560,387.750 43.200,387.445 43.200 C 387.126 43.200,386.777 42.602,386.626 41.800 C 386.482 41.030,386.187 40.400,385.972 40.400 C 385.756 40.400,385.409 39.950,385.200 39.400 C 384.991 38.850,384.585 38.400,384.298 38.400 C 384.010 38.400,383.554 37.905,383.283 37.300 C 382.440 35.414,381.837 34.570,380.294 33.114 C 379.472 32.340,378.800 31.514,378.800 31.280 C 378.800 31.046,378.440 30.740,378.000 30.600 C 377.560 30.460,377.200 30.088,377.200 29.773 C 377.200 29.458,376.840 29.200,376.400 29.200 C 375.867 29.200,375.600 28.933,375.600 28.400 C 375.600 27.960,375.351 27.600,375.047 27.600 C 374.742 27.600,374.399 27.240,374.284 26.800 C 374.169 26.360,373.809 26.000,373.484 26.000 C 373.159 26.000,372.799 25.640,372.684 25.200 C 372.569 24.760,372.200 24.400,371.864 24.400 C 371.529 24.400,371.140 24.040,371.000 23.600 C 370.860 23.160,370.488 22.800,370.173 22.800 C 369.858 22.800,369.600 22.524,369.600 22.187 C 369.600 21.851,369.308 21.463,368.952 21.326 C 368.596 21.190,367.702 20.475,366.966 19.739 C 366.229 19.002,365.469 18.400,365.275 18.400 C 365.082 18.400,364.613 18.056,364.233 17.636 C 363.852 17.216,363.104 16.762,362.571 16.628 C 362.037 16.494,361.600 16.118,361.600 15.792 C 361.600 15.467,361.340 15.200,361.023 15.200 C 360.705 15.200,360.194 14.841,359.887 14.403 C 359.580 13.964,358.760 13.492,358.064 13.353 C 357.369 13.214,356.800 12.852,356.800 12.550 C 356.800 12.246,356.396 12.000,355.896 12.000 C 355.399 12.000,354.768 11.640,354.493 11.200 C 354.218 10.760,353.566 10.400,353.043 10.400 C 352.430 10.400,352.019 10.117,351.884 9.600 C 351.737 9.036,351.338 8.800,350.534 8.800 C 349.826 8.800,349.203 8.496,348.893 8.000 C 348.577 7.495,347.960 7.200,347.216 7.200 C 346.569 7.200,345.885 6.924,345.697 6.587 C 345.508 6.250,344.644 5.861,343.777 5.723 C 342.910 5.584,341.965 5.140,341.677 4.735 C 341.339 4.259,340.657 4.000,339.740 4.000 C 338.932 4.000,337.891 3.657,337.309 3.200 C 336.728 2.743,335.686 2.400,334.878 2.400 C 334.100 2.400,333.124 2.093,332.709 1.718 C 332.217 1.273,331.058 0.978,329.377 0.871 C 327.960 0.781,326.800 0.548,326.800 0.353 C 326.800 0.150,273.120 0.000,200.000 0.000 C 115.733 0.000,73.200 0.134,73.200 0.400 M315.200 1.628 C 316.410 1.825,319.304 2.237,321.631 2.542 C 323.959 2.848,326.209 3.281,326.631 3.503 C 327.054 3.726,328.390 4.036,329.600 4.192 C 330.810 4.348,332.192 4.725,332.672 5.029 C 333.151 5.333,334.321 5.700,335.272 5.844 C 336.222 5.988,337.270 6.332,337.600 6.609 C 337.930 6.885,338.830 7.241,339.600 7.400 C 340.370 7.559,341.270 7.916,341.600 8.194 C 341.930 8.472,342.884 8.821,343.721 8.971 C 344.558 9.121,345.334 9.484,345.447 9.777 C 345.559 10.070,346.158 10.412,346.777 10.535 C 347.397 10.659,348.182 11.040,348.523 11.380 C 348.864 11.721,349.401 12.000,349.717 12.000 C 350.034 12.000,350.750 12.360,351.309 12.800 C 351.869 13.240,352.501 13.600,352.714 13.600 C 352.927 13.600,353.335 13.880,353.619 14.223 C 353.904 14.566,354.736 15.097,355.468 15.403 C 356.201 15.709,356.800 16.148,356.800 16.380 C 356.800 16.611,357.089 16.800,357.442 16.800 C 358.031 16.800,359.662 17.919,361.234 19.402 C 361.582 19.731,362.077 20.000,362.334 20.000 C 362.590 20.000,362.800 20.174,362.800 20.387 C 362.800 20.600,363.236 21.005,363.768 21.287 C 366.472 22.720,377.218 33.478,378.713 36.249 C 378.995 36.772,379.400 37.200,379.613 37.200 C 379.826 37.200,380.000 37.464,380.000 37.786 C 380.000 38.108,380.360 38.565,380.800 38.800 C 381.240 39.035,381.600 39.464,381.600 39.752 C 381.600 40.040,381.960 40.602,382.400 41.000 C 382.840 41.398,383.200 41.944,383.200 42.213 C 383.200 42.482,383.480 42.935,383.823 43.219 C 384.166 43.504,384.702 44.291,385.015 44.968 C 385.629 46.298,386.202 47.246,387.300 48.749 C 387.685 49.277,388.000 50.024,388.000 50.411 C 388.000 50.798,388.260 51.214,388.578 51.336 C 388.896 51.458,389.273 52.185,389.417 52.951 C 389.561 53.718,389.914 54.435,390.202 54.545 C 390.489 54.656,390.849 55.343,391.002 56.073 C 391.154 56.803,391.518 57.779,391.810 58.242 C 392.103 58.704,392.464 59.733,392.613 60.527 C 392.762 61.322,393.126 62.173,393.422 62.418 C 393.718 62.664,394.086 63.700,394.239 64.720 C 394.392 65.740,394.742 66.799,395.018 67.075 C 395.293 67.350,395.647 68.679,395.803 70.027 C 395.960 71.374,396.323 72.930,396.610 73.484 C 396.897 74.038,397.259 76.225,397.413 78.345 C 397.568 80.465,397.898 82.453,398.147 82.761 C 398.899 83.694,398.992 313.914,398.242 316.584 C 397.930 317.693,397.554 320.153,397.406 322.050 C 397.258 323.948,396.881 325.994,396.568 326.596 C 396.256 327.199,396.000 328.131,396.000 328.669 C 396.000 330.039,395.166 333.200,394.805 333.200 C 394.639 333.200,394.412 334.017,394.299 335.016 C 394.187 336.015,393.803 337.154,393.447 337.548 C 393.091 337.941,392.800 338.611,392.800 339.037 C 392.800 339.463,392.440 340.484,392.000 341.304 C 391.560 342.125,391.200 343.133,391.200 343.545 C 391.200 343.956,390.840 344.750,390.400 345.309 C 389.960 345.869,389.600 346.589,389.600 346.909 C 389.600 347.230,389.279 347.921,388.887 348.446 C 388.495 348.971,387.663 350.435,387.039 351.700 C 386.415 352.965,385.750 354.000,385.560 354.000 C 385.370 354.000,385.106 354.437,384.972 354.971 C 384.838 355.504,384.384 356.252,383.964 356.633 C 383.544 357.013,383.200 357.460,383.200 357.626 C 383.200 358.142,381.077 361.200,380.719 361.200 C 380.533 361.200,380.209 361.650,380.000 362.200 C 379.791 362.750,379.435 363.200,379.210 363.200 C 378.984 363.200,378.800 363.425,378.800 363.700 C 378.799 364.991,364.991 378.799,363.700 378.800 C 363.425 378.800,363.200 378.984,363.200 379.210 C 363.200 379.435,362.750 379.791,362.200 380.000 C 361.650 380.209,361.200 380.533,361.200 380.719 C 361.200 381.077,358.142 383.200,357.626 383.200 C 357.460 383.200,357.013 383.544,356.633 383.964 C 356.252 384.384,355.504 384.838,354.971 384.972 C 354.437 385.106,354.000 385.370,354.000 385.560 C 354.000 385.750,352.965 386.415,351.700 387.039 C 350.435 387.663,348.971 388.495,348.446 388.887 C 347.921 389.279,347.230 389.600,346.909 389.600 C 346.589 389.600,345.869 389.960,345.309 390.400 C 344.750 390.840,343.956 391.200,343.545 391.200 C 343.133 391.200,342.125 391.560,341.304 392.000 C 340.484 392.440,339.463 392.800,339.037 392.800 C 338.611 392.800,337.948 393.085,337.563 393.434 C 337.177 393.783,336.086 394.172,335.137 394.299 C 334.189 394.426,333.185 394.758,332.906 395.036 C 332.628 395.315,331.365 395.660,330.100 395.804 C 328.835 395.948,327.260 396.306,326.600 396.600 C 325.940 396.894,323.870 397.257,322.000 397.407 C 320.130 397.557,317.693 397.934,316.584 398.244 C 313.883 398.999,83.913 398.896,82.600 398.138 C 82.160 397.885,79.984 397.499,77.764 397.281 C 75.543 397.064,73.383 396.696,72.964 396.463 C 72.544 396.230,71.165 395.927,69.900 395.791 C 68.635 395.654,67.369 395.312,67.087 395.030 C 66.805 394.748,65.740 394.392,64.720 394.239 C 63.700 394.086,62.664 393.718,62.418 393.422 C 62.173 393.126,61.322 392.762,60.527 392.613 C 59.733 392.464,58.704 392.103,58.242 391.810 C 57.779 391.518,56.803 391.154,56.073 391.002 C 55.343 390.849,54.656 390.489,54.545 390.202 C 54.435 389.914,53.718 389.561,52.951 389.417 C 52.185 389.273,51.458 388.896,51.336 388.578 C 51.214 388.260,50.798 388.000,50.411 388.000 C 50.024 388.000,49.277 387.685,48.749 387.300 C 47.246 386.202,46.298 385.629,44.968 385.015 C 44.291 384.702,43.504 384.166,43.219 383.823 C 42.935 383.480,42.482 383.200,42.213 383.200 C 41.944 383.200,41.398 382.840,41.000 382.400 C 40.602 381.960,40.040 381.600,39.752 381.600 C 39.464 381.600,39.035 381.240,38.800 380.800 C 38.565 380.360,38.108 380.000,37.786 380.000 C 37.464 380.000,37.200 379.826,37.200 379.613 C 37.200 379.400,36.772 378.995,36.249 378.713 C 33.478 377.218,22.720 366.472,21.287 363.768 C 21.005 363.236,20.600 362.800,20.387 362.800 C 20.174 362.800,20.000 362.590,20.000 362.334 C 20.000 362.077,19.731 361.582,19.402 361.234 C 17.919 359.662,16.800 358.031,16.800 357.442 C 16.800 357.089,16.611 356.800,16.380 356.800 C 16.148 356.800,15.696 356.170,15.374 355.400 C 15.052 354.630,14.624 354.000,14.422 354.000 C 14.219 354.000,13.927 353.595,13.772 353.100 C 13.617 352.605,13.155 351.771,12.745 351.246 C 12.335 350.721,12.000 350.034,12.000 349.717 C 12.000 349.401,11.721 348.864,11.380 348.523 C 11.040 348.182,10.659 347.397,10.535 346.777 C 10.412 346.158,10.070 345.559,9.777 345.447 C 9.484 345.334,9.121 344.558,8.971 343.721 C 8.821 342.884,8.472 341.930,8.194 341.600 C 7.916 341.270,7.559 340.370,7.400 339.600 C 7.241 338.830,6.885 337.930,6.609 337.600 C 6.332 337.270,5.988 336.222,5.844 335.272 C 5.700 334.321,5.333 333.151,5.029 332.672 C 4.725 332.192,4.348 330.810,4.192 329.600 C 4.036 328.390,3.726 327.054,3.503 326.631 C 3.281 326.209,2.848 323.959,2.542 321.631 C 2.237 319.304,1.824 316.410,1.625 315.200 C 1.033 311.592,1.290 84.027,1.887 82.800 C 2.155 82.250,2.549 79.942,2.762 77.672 C 2.975 75.401,3.320 73.331,3.530 73.072 C 3.739 72.812,4.034 71.679,4.186 70.552 C 4.337 69.426,4.710 68.023,5.015 67.435 C 5.320 66.847,5.687 65.699,5.830 64.883 C 5.973 64.067,6.340 63.001,6.645 62.514 C 6.950 62.027,7.200 61.390,7.200 61.099 C 7.200 60.807,7.560 59.863,8.000 59.000 C 8.440 58.137,8.800 57.133,8.800 56.769 C 8.800 56.406,9.160 55.650,9.600 55.091 C 10.040 54.531,10.400 53.811,10.400 53.491 C 10.400 53.170,10.749 52.464,11.175 51.922 C 11.602 51.380,12.069 50.463,12.214 49.885 C 12.360 49.306,12.731 48.623,13.039 48.367 C 13.348 48.111,13.600 47.725,13.600 47.509 C 13.600 47.292,14.050 46.581,14.600 45.927 C 15.150 45.273,15.600 44.502,15.600 44.212 C 15.600 43.923,15.870 43.582,16.200 43.455 C 16.530 43.329,16.800 42.874,16.800 42.446 C 16.800 42.017,16.935 41.607,17.100 41.533 C 17.265 41.460,18.347 40.140,19.505 38.600 C 25.104 31.155,31.155 25.104,38.600 19.505 C 40.140 18.347,41.460 17.265,41.533 17.100 C 41.607 16.935,42.017 16.800,42.446 16.800 C 42.874 16.800,43.329 16.530,43.455 16.200 C 43.582 15.870,43.923 15.600,44.212 15.600 C 44.502 15.600,45.273 15.150,45.927 14.600 C 46.581 14.050,47.292 13.600,47.509 13.600 C 47.725 13.600,48.111 13.348,48.367 13.039 C 48.623 12.731,49.306 12.360,49.885 12.214 C 50.463 12.069,51.380 11.602,51.922 11.175 C 52.464 10.749,53.166 10.400,53.483 10.400 C 53.799 10.400,54.327 10.130,54.657 9.801 C 54.986 9.471,55.738 9.092,56.328 8.958 C 56.918 8.824,58.132 8.374,59.026 7.957 C 59.921 7.541,60.872 7.200,61.140 7.200 C 61.409 7.200,62.027 6.950,62.514 6.645 C 63.001 6.340,64.101 5.966,64.958 5.816 C 65.816 5.665,66.896 5.302,67.358 5.009 C 67.821 4.716,69.190 4.349,70.400 4.193 C 71.610 4.038,72.811 3.741,73.068 3.533 C 73.325 3.325,75.305 2.986,77.468 2.780 C 79.631 2.573,82.030 2.224,82.800 2.004 C 83.570 1.785,84.830 1.542,85.600 1.466 C 88.876 1.140,313.177 1.299,315.200 1.628 M293.000 77.420 C 291.240 77.957,288.990 78.598,288.000 78.844 C 287.010 79.090,285.120 79.624,283.800 80.029 C 282.480 80.434,280.500 80.954,279.400 81.185 C 278.300 81.415,276.050 81.951,274.400 82.376 C 264.516 84.922,252.765 87.042,245.488 87.594 C 242.456 87.824,237.686 88.270,234.888 88.585 C 228.822 89.269,223.930 89.459,193.000 90.217 C 167.375 90.844,152.517 91.638,147.683 92.637 C 145.987 92.988,143.250 93.502,141.600 93.779 C 130.819 95.588,120.837 100.078,112.800 106.732 C 108.532 110.266,94.874 124.343,95.486 124.578 C 96.445 124.946,98.416 124.831,102.000 124.199 C 103.870 123.870,106.930 123.412,108.800 123.183 C 110.670 122.954,114.630 122.336,117.600 121.810 C 120.570 121.284,124.260 120.736,125.800 120.592 C 127.340 120.448,129.783 120.086,131.228 119.786 C 138.600 118.258,149.582 117.824,181.800 117.785 C 221.980 117.737,228.004 117.313,244.800 113.351 C 254.815 110.989,266.433 106.638,273.600 102.567 C 274.810 101.880,276.425 100.976,277.190 100.559 C 287.906 94.709,301.208 78.945,297.226 76.814 C 296.801 76.586,296.396 76.410,296.326 76.421 C 296.257 76.433,294.760 76.882,293.000 77.420 M336.745 136.623 C 335.952 136.898,334.052 137.316,332.523 137.554 C 330.994 137.791,329.033 138.235,328.166 138.541 C 327.299 138.847,325.782 139.224,324.795 139.379 C 323.808 139.534,321.740 140.003,320.200 140.422 C 318.660 140.842,315.780 141.466,313.800 141.811 C 311.820 142.156,309.300 142.687,308.200 142.992 C 307.100 143.297,305.210 143.664,304.000 143.807 C 302.790 143.950,300.796 144.319,299.568 144.627 C 297.433 145.162,292.121 146.019,282.600 147.362 C 266.325 149.659,237.291 150.552,192.000 150.147 C 153.365 149.803,135.980 151.550,117.200 157.666 C 110.632 159.805,103.841 162.499,100.234 164.398 C 95.932 166.663,94.274 167.691,86.089 173.170 C 75.876 180.008,74.853 180.623,67.229 184.509 C 61.337 187.512,62.101 187.745,77.069 187.507 C 85.221 187.378,89.242 187.129,93.800 186.472 C 126.406 181.772,131.819 181.246,147.840 181.217 C 159.918 181.196,161.708 181.766,161.023 185.416 C 160.542 187.983,153.884 195.414,148.600 199.283 C 143.740 202.841,115.580 230.045,106.246 240.200 C 89.066 258.890,87.590 289.361,102.946 308.338 C 108.559 315.274,120.852 322.804,130.200 325.031 C 131.520 325.345,133.050 325.802,133.600 326.045 C 137.828 327.914,190.838 329.257,247.196 328.922 C 259.777 328.848,275.887 327.439,280.328 326.026 C 281.578 325.628,283.230 325.168,284.000 325.003 C 291.401 323.418,303.657 314.518,309.618 306.400 C 313.555 301.038,318.800 290.935,318.800 288.713 C 318.800 288.390,319.168 287.062,319.617 285.763 C 324.622 271.289,321.901 249.938,312.974 233.652 C 307.279 223.263,293.241 211.985,281.061 208.014 C 280.215 207.738,279.045 207.263,278.461 206.959 C 277.878 206.654,277.094 206.404,276.721 206.402 C 276.347 206.401,274.637 205.966,272.921 205.435 C 260.216 201.508,240.572 201.614,229.400 205.671 C 212.252 211.898,203.152 224.687,202.524 243.443 C 201.844 263.767,210.235 276.157,227.186 279.860 C 242.376 283.177,257.996 274.645,258.160 262.940 C 258.241 257.149,253.933 254.078,252.333 258.786 C 250.749 263.448,247.696 265.251,240.933 265.520 C 225.226 266.146,218.174 253.288,226.741 239.645 C 237.470 222.561,267.187 223.530,280.554 241.400 C 286.608 249.492,289.539 261.566,287.255 269.000 C 286.154 272.583,283.722 276.929,280.940 280.285 C 279.122 282.478,273.620 287.600,273.081 287.600 C 272.971 287.600,271.917 288.253,270.740 289.050 C 268.427 290.617,263.863 292.823,259.400 294.530 C 248.757 298.602,188.132 300.147,168.385 296.850 C 165.863 296.429,162.900 295.963,161.800 295.815 C 154.555 294.838,144.919 291.313,139.577 287.685 C 132.463 282.854,129.486 273.849,132.354 265.837 C 132.819 264.538,133.199 263.188,133.199 262.837 C 133.195 260.794,139.277 250.637,143.226 246.094 C 145.494 243.484,149.776 238.672,150.456 237.967 C 150.817 237.593,154.223 233.893,158.024 229.744 C 161.826 225.595,167.117 219.950,169.783 217.200 C 172.449 214.450,177.233 209.500,180.415 206.200 C 188.635 197.675,197.000 189.793,199.800 187.934 C 202.534 186.119,208.573 183.200,209.593 183.200 C 209.968 183.200,211.299 182.848,212.551 182.417 C 215.132 181.529,218.785 181.185,238.200 180.004 C 250.924 179.230,263.987 177.878,271.400 176.568 C 273.160 176.257,276.220 175.725,278.200 175.385 C 282.015 174.730,283.899 174.280,290.000 172.566 C 295.570 171.001,298.285 170.156,301.200 169.082 C 305.634 167.447,306.459 167.084,311.400 164.594 C 315.697 162.428,317.190 161.535,322.347 158.044 C 323.123 157.518,325.544 155.358,327.725 153.244 C 338.436 142.862,342.996 134.459,336.745 136.623 " stroke="none" fill="#0695fc" fill-rule="evenodd"></path><path id="path1" d="M85.600 1.466 C 84.830 1.542,83.570 1.785,82.800 2.004 C 82.030 2.224,79.631 2.573,77.468 2.780 C 75.305 2.986,73.325 3.325,73.068 3.533 C 72.811 3.741,71.610 4.038,70.400 4.193 C 69.190 4.349,67.821 4.716,67.358 5.009 C 66.896 5.302,65.816 5.665,64.958 5.816 C 64.101 5.966,63.001 6.340,62.514 6.645 C 62.027 6.950,61.409 7.200,61.140 7.200 C 60.872 7.200,59.921 7.541,59.026 7.957 C 58.132 8.374,56.918 8.824,56.328 8.958 C 55.738 9.092,54.986 9.471,54.657 9.801 C 54.327 10.130,53.799 10.400,53.483 10.400 C 53.166 10.400,52.464 10.749,51.922 11.175 C 51.380 11.602,50.463 12.069,49.885 12.214 C 49.306 12.360,48.623 12.731,48.367 13.039 C 48.111 13.348,47.725 13.600,47.509 13.600 C 47.292 13.600,46.581 14.050,45.927 14.600 C 45.273 15.150,44.502 15.600,44.212 15.600 C 43.923 15.600,43.582 15.870,43.455 16.200 C 43.329 16.530,42.874 16.800,42.446 16.800 C 42.017 16.800,41.607 16.935,41.533 17.100 C 41.460 17.265,40.140 18.347,38.600 19.505 C 31.155 25.104,25.104 31.155,19.505 38.600 C 18.347 40.140,17.265 41.460,17.100 41.533 C 16.935 41.607,16.800 42.017,16.800 42.446 C 16.800 42.874,16.530 43.329,16.200 43.455 C 15.870 43.582,15.600 43.923,15.600 44.212 C 15.600 44.502,15.150 45.273,14.600 45.927 C 14.050 46.581,13.600 47.292,13.600 47.509 C 13.600 47.725,13.348 48.111,13.039 48.367 C 12.731 48.623,12.360 49.306,12.214 49.885 C 12.069 50.463,11.602 51.380,11.175 51.922 C 10.749 52.464,10.400 53.170,10.400 53.491 C 10.400 53.811,10.040 54.531,9.600 55.091 C 9.160 55.650,8.800 56.406,8.800 56.769 C 8.800 57.133,8.440 58.137,8.000 59.000 C 7.560 59.863,7.200 60.807,7.200 61.099 C 7.200 61.390,6.950 62.027,6.645 62.514 C 6.340 63.001,5.973 64.067,5.830 64.883 C 5.687 65.699,5.320 66.847,5.015 67.435 C 4.710 68.023,4.337 69.426,4.186 70.552 C 4.034 71.679,3.739 72.812,3.530 73.072 C 3.320 73.331,2.975 75.401,2.762 77.672 C 2.549 79.942,2.155 82.250,1.887 82.800 C 1.290 84.027,1.033 311.592,1.625 315.200 C 1.824 316.410,2.237 319.304,2.542 321.631 C 2.848 323.959,3.281 326.209,3.503 326.631 C 3.726 327.054,4.036 328.390,4.192 329.600 C 4.348 330.810,4.725 332.192,5.029 332.672 C 5.333 333.151,5.700 334.321,5.844 335.272 C 5.988 336.222,6.332 337.270,6.609 337.600 C 6.885 337.930,7.241 338.830,7.400 339.600 C 7.559 340.370,7.916 341.270,8.194 341.600 C 8.472 341.930,8.821 342.884,8.971 343.721 C 9.121 344.558,9.484 345.334,9.777 345.447 C 10.070 345.559,10.412 346.158,10.535 346.777 C 10.659 347.397,11.040 348.182,11.380 348.523 C 11.721 348.864,12.000 349.401,12.000 349.717 C 12.000 350.034,12.335 350.721,12.745 351.246 C 13.155 351.771,13.617 352.605,13.772 353.100 C 13.927 353.595,14.219 354.000,14.422 354.000 C 14.624 354.000,15.052 354.630,15.374 355.400 C 15.696 356.170,16.148 356.800,16.380 356.800 C 16.611 356.800,16.800 357.089,16.800 357.442 C 16.800 358.031,17.919 359.662,19.402 361.234 C 19.731 361.582,20.000 362.077,20.000 362.334 C 20.000 362.590,20.174 362.800,20.387 362.800 C 20.600 362.800,21.005 363.236,21.287 363.768 C 22.720 366.472,33.478 377.218,36.249 378.713 C 36.772 378.995,37.200 379.400,37.200 379.613 C 37.200 379.826,37.464 380.000,37.786 380.000 C 38.108 380.000,38.565 380.360,38.800 380.800 C 39.035 381.240,39.464 381.600,39.752 381.600 C 40.040 381.600,40.602 381.960,41.000 382.400 C 41.398 382.840,41.944 383.200,42.213 383.200 C 42.482 383.200,42.935 383.480,43.219 383.823 C 43.504 384.166,44.291 384.702,44.968 385.015 C 46.298 385.629,47.246 386.202,48.749 387.300 C 49.277 387.685,50.024 388.000,50.411 388.000 C 50.798 388.000,51.214 388.260,51.336 388.578 C 51.458 388.896,52.185 389.273,52.951 389.417 C 53.718 389.561,54.435 389.914,54.545 390.202 C 54.656 390.489,55.343 390.849,56.073 391.002 C 56.803 391.154,57.779 391.518,58.242 391.810 C 58.704 392.103,59.733 392.464,60.527 392.613 C 61.322 392.762,62.173 393.126,62.418 393.422 C 62.664 393.718,63.700 394.086,64.720 394.239 C 65.740 394.392,66.805 394.748,67.087 395.030 C 67.369 395.312,68.635 395.654,69.900 395.791 C 71.165 395.927,72.544 396.230,72.964 396.463 C 73.383 396.696,75.543 397.064,77.764 397.281 C 79.984 397.499,82.160 397.885,82.600 398.138 C 83.913 398.896,313.883 398.999,316.584 398.244 C 317.693 397.934,320.130 397.557,322.000 397.407 C 323.870 397.257,325.940 396.894,326.600 396.600 C 327.260 396.306,328.835 395.948,330.100 395.804 C 331.365 395.660,332.628 395.315,332.906 395.036 C 333.185 394.758,334.189 394.426,335.137 394.299 C 336.086 394.172,337.177 393.783,337.563 393.434 C 337.948 393.085,338.611 392.800,339.037 392.800 C 339.463 392.800,340.484 392.440,341.304 392.000 C 342.125 391.560,343.133 391.200,343.545 391.200 C 343.956 391.200,344.750 390.840,345.309 390.400 C 345.869 389.960,346.589 389.600,346.909 389.600 C 347.230 389.600,347.921 389.279,348.446 388.887 C 348.971 388.495,350.435 387.663,351.700 387.039 C 352.965 386.415,354.000 385.750,354.000 385.560 C 354.000 385.370,354.437 385.106,354.971 384.972 C 355.504 384.838,356.252 384.384,356.633 383.964 C 357.013 383.544,357.460 383.200,357.626 383.200 C 358.142 383.200,361.200 381.077,361.200 380.719 C 361.200 380.533,361.650 380.209,362.200 380.000 C 362.750 379.791,363.200 379.435,363.200 379.210 C 363.200 378.984,363.425 378.800,363.700 378.800 C 364.991 378.799,378.799 364.991,378.800 363.700 C 378.800 363.425,378.984 363.200,379.210 363.200 C 379.435 363.200,379.791 362.750,380.000 362.200 C 380.209 361.650,380.533 361.200,380.719 361.200 C 381.077 361.200,383.200 358.142,383.200 357.626 C 383.200 357.460,383.544 357.013,383.964 356.633 C 384.384 356.252,384.838 355.504,384.972 354.971 C 385.106 354.437,385.370 354.000,385.560 354.000 C 385.750 354.000,386.415 352.965,387.039 351.700 C 387.663 350.435,388.495 348.971,388.887 348.446 C 389.279 347.921,389.600 347.230,389.600 346.909 C 389.600 346.589,389.960 345.869,390.400 345.309 C 390.840 344.750,391.200 343.956,391.200 343.545 C 391.200 343.133,391.560 342.125,392.000 341.304 C 392.440 340.484,392.800 339.463,392.800 339.037 C 392.800 338.611,393.091 337.941,393.447 337.548 C 393.803 337.154,394.187 336.015,394.299 335.016 C 394.412 334.017,394.639 333.200,394.805 333.200 C 395.166 333.200,396.000 330.039,396.000 328.669 C 396.000 328.131,396.256 327.199,396.568 326.596 C 396.881 325.994,397.258 323.948,397.406 322.050 C 397.554 320.153,397.930 317.693,398.242 316.584 C 398.992 313.914,398.899 83.694,398.147 82.761 C 397.898 82.453,397.568 80.465,397.413 78.345 C 397.259 76.225,396.897 74.038,396.610 73.484 C 396.323 72.930,395.960 71.374,395.803 70.027 C 395.647 68.679,395.293 67.350,395.018 67.075 C 394.742 66.799,394.392 65.740,394.239 64.720 C 394.086 63.700,393.718 62.664,393.422 62.418 C 393.126 62.173,392.762 61.322,392.613 60.527 C 392.464 59.733,392.103 58.704,391.810 58.242 C 391.518 57.779,391.154 56.803,391.002 56.073 C 390.849 55.343,390.489 54.656,390.202 54.545 C 389.914 54.435,389.561 53.718,389.417 52.951 C 389.273 52.185,388.896 51.458,388.578 51.336 C 388.260 51.214,388.000 50.798,388.000 50.411 C 388.000 50.024,387.685 49.277,387.300 48.749 C 386.202 47.246,385.629 46.298,385.015 44.968 C 384.702 44.291,384.166 43.504,383.823 43.219 C 383.480 42.935,383.200 42.482,383.200 42.213 C 383.200 41.944,382.840 41.398,382.400 41.000 C 381.960 40.602,381.600 40.040,381.600 39.752 C 381.600 39.464,381.240 39.035,380.800 38.800 C 380.360 38.565,380.000 38.108,380.000 37.786 C 380.000 37.464,379.826 37.200,379.613 37.200 C 379.400 37.200,378.995 36.772,378.713 36.249 C 377.218 33.478,366.472 22.720,363.768 21.287 C 363.236 21.005,362.800 20.600,362.800 20.387 C 362.800 20.174,362.590 20.000,362.334 20.000 C 362.077 20.000,361.582 19.731,361.234 19.402 C 359.662 17.919,358.031 16.800,357.442 16.800 C 357.089 16.800,356.800 16.611,356.800 16.380 C 356.800 16.148,356.201 15.709,355.468 15.403 C 354.736 15.097,353.904 14.566,353.619 14.223 C 353.335 13.880,352.927 13.600,352.714 13.600 C 352.501 13.600,351.869 13.240,351.309 12.800 C 350.750 12.360,350.034 12.000,349.717 12.000 C 349.401 12.000,348.864 11.721,348.523 11.380 C 348.182 11.040,347.397 10.659,346.777 10.535 C 346.158 10.412,345.559 10.070,345.447 9.777 C 345.334 9.484,344.558 9.121,343.721 8.971 C 342.884 8.821,341.930 8.472,341.600 8.194 C 341.270 7.916,340.370 7.559,339.600 7.400 C 338.830 7.241,337.930 6.885,337.600 6.609 C 337.270 6.332,336.222 5.988,335.272 5.844 C 334.321 5.700,333.151 5.333,332.672 5.029 C 332.192 4.725,330.810 4.348,329.600 4.192 C 328.390 4.036,327.054 3.726,326.631 3.503 C 326.209 3.281,323.959 2.848,321.631 2.542 C 319.304 2.237,316.410 1.825,315.200 1.628 C 313.177 1.299,88.876 1.140,85.600 1.466 M297.226 76.814 C 301.208 78.945,287.906 94.709,277.190 100.559 C 276.425 100.976,274.810 101.880,273.600 102.567 C 266.433 106.638,254.815 110.989,244.800 113.351 C 228.004 117.313,221.980 117.737,181.800 117.785 C 149.582 117.824,138.600 118.258,131.228 119.786 C 129.783 120.086,127.340 120.448,125.800 120.592 C 124.260 120.736,120.570 121.284,117.600 121.810 C 114.630 122.336,110.670 122.954,108.800 123.183 C 106.930 123.412,103.870 123.870,102.000 124.199 C 98.416 124.831,96.445 124.946,95.486 124.578 C 94.874 124.343,108.532 110.266,112.800 106.732 C 120.837 100.078,130.819 95.588,141.600 93.779 C 143.250 93.502,145.987 92.988,147.683 92.637 C 152.517 91.638,167.375 90.844,193.000 90.217 C 223.930 89.459,228.822 89.269,234.888 88.585 C 237.686 88.270,242.456 87.824,245.488 87.594 C 252.765 87.042,264.516 84.922,274.400 82.376 C 276.050 81.951,278.300 81.415,279.400 81.185 C 280.500 80.954,282.480 80.434,283.800 80.029 C 285.120 79.624,287.010 79.090,288.000 78.844 C 288.990 78.598,291.240 77.957,293.000 77.420 C 294.760 76.882,296.257 76.433,296.326 76.421 C 296.396 76.410,296.801 76.586,297.226 76.814 M339.599 137.547 C 339.596 140.597,328.307 154.009,322.347 158.044 C 317.190 161.535,315.697 162.428,311.400 164.594 C 306.459 167.084,305.634 167.447,301.200 169.082 C 298.285 170.156,295.570 171.001,290.000 172.566 C 283.899 174.280,282.015 174.730,278.200 175.385 C 276.220 175.725,273.160 176.257,271.400 176.568 C 263.987 177.878,250.924 179.230,238.200 180.004 C 218.785 181.185,215.132 181.529,212.551 182.417 C 211.299 182.848,209.968 183.200,209.593 183.200 C 208.573 183.200,202.534 186.119,199.800 187.934 C 197.000 189.793,188.635 197.675,180.415 206.200 C 177.233 209.500,172.449 214.450,169.783 217.200 C 167.117 219.950,161.826 225.595,158.024 229.744 C 154.223 233.893,150.817 237.593,150.456 237.967 C 149.776 238.672,145.494 243.484,143.226 246.094 C 139.277 250.637,133.195 260.794,133.199 262.837 C 133.199 263.188,132.819 264.538,132.354 265.837 C 127.252 280.091,139.781 292.846,161.800 295.815 C 162.900 295.963,165.863 296.429,168.385 296.850 C 188.132 300.147,248.757 298.602,259.400 294.530 C 263.863 292.823,268.427 290.617,270.740 289.050 C 271.917 288.253,272.971 287.600,273.081 287.600 C 274.168 287.600,281.939 279.565,283.721 276.600 C 290.243 265.745,289.078 252.795,280.554 241.400 C 263.462 218.550,223.369 225.285,223.406 251.000 C 223.420 260.791,229.671 265.969,240.933 265.520 C 247.696 265.251,250.749 263.448,252.333 258.786 C 253.933 254.078,258.241 257.149,258.160 262.940 C 257.996 274.645,242.376 283.177,227.186 279.860 C 210.235 276.157,201.844 263.767,202.524 243.443 C 203.152 224.687,212.252 211.898,229.400 205.671 C 240.572 201.614,260.216 201.508,272.921 205.435 C 274.637 205.966,276.347 206.401,276.721 206.402 C 277.094 206.404,277.878 206.654,278.461 206.959 C 279.045 207.263,280.215 207.738,281.061 208.014 C 284.172 209.028,291.910 212.996,295.781 215.562 C 307.340 223.224,314.590 233.482,319.556 249.200 C 322.556 258.697,322.587 277.175,319.617 285.763 C 319.168 287.062,318.800 288.390,318.800 288.713 C 318.800 290.935,313.555 301.038,309.618 306.400 C 303.657 314.518,291.401 323.418,284.000 325.003 C 283.230 325.168,281.578 325.628,280.328 326.026 C 275.887 327.439,259.777 328.848,247.196 328.922 C 190.838 329.257,137.828 327.914,133.600 326.045 C 133.050 325.802,131.520 325.345,130.200 325.031 C 120.852 322.804,108.559 315.274,102.946 308.338 C 87.590 289.361,89.066 258.890,106.246 240.200 C 115.580 230.045,143.740 202.841,148.600 199.283 C 153.884 195.414,160.542 187.983,161.023 185.416 C 161.708 181.766,159.918 181.196,147.840 181.217 C 131.819 181.246,126.406 181.772,93.800 186.472 C 89.242 187.129,85.221 187.378,77.069 187.507 C 62.101 187.745,61.337 187.512,67.229 184.509 C 74.853 180.623,75.876 180.008,86.089 173.170 C 97.831 165.309,100.543 163.821,109.000 160.597 C 131.819 151.896,148.775 149.762,192.000 150.147 C 237.291 150.552,266.325 149.659,282.600 147.362 C 292.121 146.019,297.433 145.162,299.568 144.627 C 300.796 144.319,302.790 143.950,304.000 143.807 C 305.210 143.664,307.100 143.297,308.200 142.992 C 309.300 142.687,311.820 142.156,313.800 141.811 C 315.780 141.466,318.660 140.842,320.200 140.422 C 321.740 140.003,323.808 139.534,324.795 139.379 C 325.782 139.224,327.299 138.847,328.166 138.541 C 329.033 138.235,330.994 137.791,332.523 137.554 C 334.052 137.316,335.952 136.898,336.745 136.623 C 338.697 135.947,339.600 136.240,339.599 137.547 " stroke="none" fill="#fbfbfb" fill-rule="evenodd"></path></g></svg>