<svg id="svg" version="1.1" xmlns="http://www.w3.org/2000/svg" xmlns:xlink="http://www.w3.org/1999/xlink" width="48" height="48" viewBox="0 0 400 400"><g id="svgg"><path id="path0" d="M34.667 18.667 C 34.206 19.127,34.375 19.600,35.000 19.600 C 35.330 19.600,35.600 19.330,35.600 19.000 C 35.600 18.375,35.127 18.206,34.667 18.667 M109.648 98.857 C 108.904 99.073,107.914 99.489,107.448 99.780 C 106.982 100.072,105.901 100.533,105.046 100.804 C 104.191 101.076,102.861 101.726,102.090 102.249 C 101.319 102.772,100.475 103.200,100.215 103.200 C 99.506 103.200,95.319 107.423,94.136 109.331 C 93.567 110.249,92.781 111.360,92.390 111.800 C 92.000 112.240,91.167 114.130,90.540 116.000 L 89.400 119.400 89.283 198.200 C 89.149 288.678,89.050 286.117,92.886 291.600 C 95.364 295.142,99.656 299.200,100.924 299.200 C 101.103 299.200,102.373 299.741,103.745 300.403 L 106.240 301.607 200.638 301.503 C 289.808 301.406,295.094 301.361,296.105 300.699 C 296.693 300.314,298.213 299.610,299.482 299.135 C 304.709 297.179,309.395 290.675,310.432 283.937 C 310.678 282.339,310.781 255.434,310.711 211.200 L 310.600 141.000 309.513 138.286 C 306.900 131.766,301.231 126.762,294.673 125.190 C 291.531 124.437,289.745 124.405,250.080 124.403 C 203.641 124.400,207.191 124.647,205.389 121.291 C 204.831 120.251,203.846 118.590,203.200 117.600 C 202.554 116.610,201.566 114.990,201.003 114.000 C 196.973 106.907,193.809 103.827,186.781 100.157 L 183.800 98.600 147.400 98.532 C 124.534 98.489,110.497 98.610,109.648 98.857 M209.600 180.320 C 214.390 181.207,220.020 183.043,221.904 184.332 C 222.507 184.745,223.450 185.380,224.000 185.745 C 224.550 186.110,225.720 186.887,226.600 187.471 C 230.808 190.266,236.182 196.478,238.980 201.783 C 240.017 203.749,241.122 205.725,241.436 206.173 C 241.751 206.622,242.227 208.051,242.495 209.349 C 243.074 212.154,244.136 213.030,248.591 214.383 C 254.718 216.243,258.795 218.859,262.500 223.306 C 263.985 225.088,265.200 226.722,265.200 226.936 C 265.200 227.149,265.647 227.911,266.194 228.627 C 269.478 232.933,270.584 243.552,268.470 250.490 C 265.496 260.253,257.455 267.848,248.000 269.827 C 244.074 270.648,162.974 270.653,158.735 269.832 C 148.830 267.913,140.287 261.092,135.335 251.144 C 127.893 236.199,133.838 214.651,147.307 207.751 C 148.018 207.387,148.691 206.949,148.802 206.779 C 149.233 206.120,155.151 203.699,158.003 203.015 C 161.332 202.216,163.269 201.000,164.259 199.086 C 165.240 197.190,170.120 191.532,172.508 189.525 C 175.043 187.392,178.601 184.800,178.992 184.800 C 179.148 184.800,179.754 184.461,180.338 184.046 C 181.958 182.895,188.239 180.861,191.600 180.398 C 193.250 180.171,195.140 179.818,195.800 179.614 C 197.682 179.034,204.553 179.385,209.600 180.320 M194.663 203.404 C 191.677 204.224,188.897 206.324,184.567 211.031 C 182.385 213.402,179.322 216.728,177.761 218.423 C 172.265 224.387,171.600 226.008,173.480 228.849 C 176.467 233.363,179.724 232.426,187.037 224.952 C 192.153 219.723,193.263 218.944,193.757 220.233 C 193.891 220.581,194.000 228.691,194.000 238.256 C 194.000 257.569,194.122 258.798,196.158 260.040 C 198.755 261.624,202.230 260.887,203.785 258.423 L 204.800 256.816 204.823 239.908 C 204.856 215.717,204.382 216.655,212.478 224.759 C 218.635 230.923,219.045 231.200,222.007 231.200 C 226.707 231.200,228.839 227.657,226.520 223.700 C 225.305 221.627,210.810 206.996,208.175 205.183 C 204.958 202.969,199.067 202.194,194.663 203.404 M34.492 380.875 C 34.739 381.617,35.600 381.740,35.600 381.033 C 35.600 380.685,35.315 380.400,34.967 380.400 C 34.618 380.400,34.405 380.614,34.492 380.875 M364.400 381.033 C 364.400 381.382,364.614 381.595,364.875 381.508 C 365.617 381.261,365.740 380.400,365.033 380.400 C 364.685 380.400,364.400 380.685,364.400 381.033 " stroke="none" fill="#f8f9fc" fill-rule="evenodd"></path><path id="path1" d="M76.800 0.600 C 76.800 1.199,76.660 1.211,68.734 1.298 C 67.949 1.307,67.702 1.489,67.798 1.989 C 68.049 3.294,67.412 3.577,64.083 3.637 C 60.909 3.695,60.800 3.728,60.800 4.648 C 60.800 5.410,60.580 5.608,59.700 5.642 C 59.095 5.666,57.520 5.721,56.200 5.765 C 53.606 5.851,52.000 6.482,52.000 7.414 C 52.000 7.787,51.599 8.000,50.896 8.000 C 50.219 8.000,49.596 8.315,49.283 8.816 C 49.003 9.264,48.595 9.521,48.377 9.386 C 48.159 9.251,48.030 9.316,48.090 9.530 C 48.151 9.745,48.036 9.922,47.836 9.924 C 47.636 9.926,47.306 10.224,47.104 10.586 C 46.820 11.093,46.609 11.139,46.185 10.788 C 45.343 10.089,44.708 10.682,45.239 11.673 C 45.559 12.270,45.559 12.422,45.240 12.225 C 44.998 12.075,44.800 12.126,44.800 12.337 C 44.800 12.548,44.215 12.726,43.500 12.732 C 42.785 12.738,41.840 12.832,41.400 12.941 C 40.960 13.050,40.454 13.153,40.276 13.169 C 40.098 13.186,40.042 13.344,40.150 13.519 C 40.487 14.064,39.770 14.837,38.864 14.905 C 38.389 14.941,37.979 15.157,37.954 15.385 C 37.928 15.613,37.883 16.070,37.854 16.400 C 37.823 16.739,37.322 17.055,36.700 17.127 C 35.779 17.233,35.600 17.444,35.600 18.427 C 35.600 19.639,35.256 19.818,33.264 19.641 C 32.597 19.582,32.412 19.708,32.622 20.079 C 32.859 20.498,32.811 20.502,32.379 20.100 C 31.837 19.597,30.838 19.372,31.330 19.863 C 31.475 20.008,31.394 20.366,31.152 20.658 C 30.909 20.951,30.825 21.488,30.964 21.851 C 31.177 22.405,31.119 22.431,30.609 22.008 C 30.125 21.606,29.878 21.603,29.404 21.996 C 28.778 22.516,28.981 23.383,29.634 22.979 C 29.843 22.850,29.909 22.577,29.783 22.372 C 29.411 21.770,29.857 21.946,30.419 22.623 C 30.846 23.137,30.837 23.224,30.368 23.123 C 30.049 23.054,29.854 23.249,29.923 23.568 C 30.024 24.037,29.937 24.046,29.423 23.619 C 29.002 23.270,28.800 23.248,28.800 23.551 C 28.800 23.798,28.530 24.000,28.200 24.000 C 27.870 24.000,27.597 24.225,27.594 24.500 C 27.589 24.874,27.503 24.866,27.250 24.466 C 26.980 24.041,26.859 24.069,26.654 24.603 C 26.513 24.971,26.486 25.416,26.594 25.591 C 26.820 25.955,25.857 26.859,25.342 26.767 C 24.157 26.554,23.577 27.836,24.561 28.494 C 24.818 28.666,24.627 28.811,24.100 28.844 C 22.270 28.958,21.455 29.445,21.760 30.240 C 21.899 30.603,21.698 30.800,21.187 30.800 C 20.233 30.800,20.157 31.424,21.051 31.925 C 21.497 32.174,21.560 32.378,21.251 32.568 C 20.701 32.909,19.904 32.478,20.200 32.000 C 20.317 31.810,20.226 31.539,19.997 31.398 C 19.768 31.256,19.606 31.289,19.637 31.470 C 20.061 33.908,19.554 35.600,18.400 35.600 C 17.327 35.600,17.200 35.730,17.200 36.827 C 17.200 37.812,17.062 38.011,16.500 37.836 C 15.699 37.587,15.018 37.969,14.960 38.700 C 14.938 38.975,14.893 39.439,14.860 39.732 C 14.827 40.024,14.415 40.249,13.945 40.232 C 12.996 40.197,12.863 40.577,12.629 44.000 C 12.428 46.933,12.461 46.800,11.951 46.800 C 11.644 46.800,11.662 46.607,12.008 46.190 C 12.286 45.855,12.420 45.486,12.305 45.371 C 11.977 45.043,10.765 46.420,11.020 46.832 C 11.145 47.035,11.057 47.200,10.824 47.200 C 10.591 47.200,10.400 47.709,10.400 48.331 C 10.400 49.340,10.280 49.444,9.288 49.298 C 8.276 49.150,8.166 49.255,8.077 50.467 C 8.018 51.269,7.641 52.057,7.132 52.445 C 6.595 52.854,6.402 53.280,6.604 53.607 C 6.814 53.947,6.765 54.026,6.462 53.838 C 6.207 53.681,5.975 53.788,5.944 54.076 C 5.875 54.725,5.684 58.217,5.636 59.700 C 5.607 60.580,5.411 60.800,4.653 60.800 C 3.776 60.800,3.701 60.966,3.654 63.030 C 3.610 64.950,3.432 65.430,2.373 66.489 C 1.434 67.428,1.268 67.797,1.672 68.053 C 2.095 68.321,2.098 68.389,1.682 68.394 C 1.398 68.397,1.194 68.625,1.230 68.900 C 1.548 71.348,1.145 74.402,0.500 74.428 C -0.099 74.452,-0.084 74.506,0.600 74.800 C 1.284 75.094,1.299 75.148,0.700 75.172 C -0.207 75.208,-0.207 75.887,0.700 76.124 C 1.367 76.298,1.367 76.309,0.700 76.354 C -0.390 76.426,-0.390 323.439,0.700 323.724 C 1.367 323.898,1.367 323.909,0.700 323.954 C 0.315 323.979,0.000 324.180,0.000 324.400 C 0.000 324.620,0.315 324.813,0.700 324.828 C 1.299 324.852,1.284 324.906,0.600 325.200 C -0.084 325.494,-0.099 325.548,0.500 325.572 C 1.145 325.598,1.548 328.652,1.230 331.100 C 1.194 331.375,1.398 331.603,1.682 331.606 C 2.098 331.611,2.095 331.679,1.672 331.947 C 1.268 332.203,1.434 332.572,2.373 333.511 C 3.432 334.570,3.610 335.050,3.654 336.970 C 3.701 339.034,3.776 339.200,4.653 339.200 C 5.411 339.200,5.607 339.420,5.636 340.300 C 5.684 341.783,5.875 345.275,5.944 345.924 C 5.975 346.212,6.207 346.319,6.462 346.162 C 6.765 345.974,6.814 346.053,6.604 346.393 C 6.402 346.720,6.595 347.146,7.132 347.555 C 7.633 347.937,8.017 348.730,8.074 349.500 C 8.158 350.633,8.314 350.800,9.285 350.800 C 10.208 350.800,10.400 350.973,10.400 351.800 C 10.400 352.781,10.702 352.963,12.098 352.821 C 12.691 352.761,12.785 353.070,12.725 354.875 C 12.592 358.895,13.173 360.559,14.436 359.778 C 14.770 359.571,14.954 360.244,14.907 361.500 C 14.890 361.970,15.361 362.173,16.142 362.033 C 16.803 361.915,17.515 362.837,17.325 363.565 C 17.175 364.141,17.361 364.300,18.183 364.300 C 19.555 364.300,19.678 364.461,19.693 366.273 C 19.700 367.113,19.787 367.575,19.886 367.300 C 20.144 366.585,21.069 366.683,21.366 367.457 C 21.587 368.030,21.532 368.043,20.934 367.557 C 20.330 367.065,20.282 367.084,20.521 367.721 C 20.672 368.124,20.629 368.341,20.423 368.214 C 20.221 368.089,19.939 368.174,19.798 368.403 C 19.656 368.632,19.689 368.790,19.870 368.753 C 20.452 368.634,22.800 369.665,22.800 370.039 C 22.800 370.238,22.620 370.400,22.400 370.400 C 22.180 370.400,22.000 370.190,22.000 369.933 C 22.000 369.677,21.884 369.582,21.743 369.724 C 21.164 370.303,22.478 371.233,23.130 370.705 C 23.504 370.402,23.644 370.382,23.481 370.655 C 23.321 370.922,23.577 371.210,24.104 371.355 C 24.782 371.540,24.870 371.684,24.466 371.945 C 23.512 372.561,24.608 374.013,25.576 373.415 C 25.779 373.290,26.053 373.362,26.185 373.576 C 26.317 373.790,26.735 373.848,27.113 373.705 C 27.761 373.460,27.761 373.484,27.117 374.134 C 26.741 374.513,26.521 375.050,26.627 375.327 C 26.918 376.084,28.326 376.044,28.529 375.273 C 28.628 374.900,28.728 375.100,28.754 375.724 C 28.779 376.342,28.960 376.749,29.155 376.628 C 29.350 376.507,29.718 376.661,29.974 376.969 C 30.328 377.395,30.324 377.600,29.958 377.826 C 29.663 378.008,29.581 377.955,29.745 377.689 C 29.892 377.451,29.843 377.150,29.634 377.021 C 29.426 376.892,29.155 376.949,29.032 377.148 C 28.743 377.615,29.850 378.540,30.337 378.239 C 30.678 378.028,31.345 379.397,31.243 380.100 C 31.177 380.562,31.780 380.456,32.379 379.900 C 32.810 379.500,32.861 379.500,32.635 379.900 C 32.428 380.267,32.823 380.400,34.124 380.400 C 35.855 380.400,35.892 380.427,35.756 381.597 C 35.679 382.256,35.748 382.774,35.908 382.750 C 36.901 382.598,38.009 382.861,37.800 383.199 C 37.498 383.689,38.413 384.985,39.100 385.040 C 41.030 385.194,41.027 385.193,40.400 385.637 C 39.946 385.958,39.922 386.110,40.302 386.265 C 40.579 386.377,40.679 386.678,40.526 386.934 C 40.372 387.190,40.586 387.130,41.000 386.800 C 41.439 386.450,41.628 386.409,41.453 386.700 C 41.250 387.038,41.453 387.220,42.076 387.263 C 44.691 387.440,45.159 387.499,45.747 387.724 C 46.098 387.859,46.644 388.561,46.960 389.285 C 47.276 390.008,47.549 390.375,47.567 390.100 C 47.624 389.225,49.200 389.514,49.200 390.400 C 49.200 390.840,48.975 391.205,48.700 391.212 C 48.421 391.219,48.508 391.404,48.897 391.630 C 49.280 391.854,49.820 392.007,50.097 391.971 C 51.298 391.814,52.000 392.041,52.000 392.586 C 52.000 393.518,53.606 394.149,56.200 394.235 C 57.520 394.279,59.095 394.334,59.700 394.358 C 60.579 394.391,60.800 394.591,60.800 395.348 C 60.800 396.243,60.947 396.300,63.405 396.353 C 65.945 396.408,68.042 397.474,67.690 398.531 C 67.629 398.713,68.079 398.829,68.690 398.789 C 72.722 398.521,76.800 398.829,76.800 399.400 C 76.800 399.932,90.756 400.000,200.000 400.000 C 309.244 400.000,323.200 399.932,323.200 399.400 C 323.200 398.901,323.978 398.800,327.800 398.800 C 330.330 398.800,332.355 398.665,332.300 398.500 C 331.957 397.472,334.086 396.408,336.595 396.353 C 339.053 396.300,339.200 396.243,339.200 395.348 C 339.200 394.591,339.421 394.391,340.300 394.358 C 340.905 394.334,342.480 394.279,343.800 394.235 C 346.394 394.149,348.000 393.518,348.000 392.586 C 348.000 392.041,348.702 391.814,349.903 391.971 C 350.180 392.007,350.720 391.835,351.103 391.588 C 351.629 391.249,351.646 391.186,351.170 391.330 C 350.315 391.589,350.433 390.037,351.305 389.549 C 351.766 389.291,352.061 389.381,352.329 389.858 C 352.664 390.458,352.734 390.438,352.978 389.669 C 353.129 389.195,353.147 388.638,353.019 388.431 C 352.627 387.797,353.689 387.418,356.200 387.296 C 359.470 387.137,359.594 387.115,359.355 386.727 C 359.239 386.540,358.949 386.508,358.711 386.655 C 358.458 386.812,358.391 386.738,358.551 386.479 C 358.702 386.235,359.090 386.136,359.413 386.260 C 359.736 386.384,360.000 386.286,360.000 386.043 C 360.000 385.799,359.775 385.589,359.500 385.575 C 359.225 385.561,359.431 385.377,359.958 385.166 C 360.485 384.955,361.009 384.876,361.122 384.989 C 361.455 385.322,362.470 383.637,362.200 383.199 C 361.991 382.861,363.099 382.598,364.092 382.750 C 364.252 382.774,364.321 382.256,364.244 381.597 C 364.108 380.427,364.145 380.400,365.876 380.400 C 367.177 380.400,367.572 380.267,367.365 379.900 C 367.139 379.500,367.190 379.500,367.621 379.900 C 368.220 380.456,368.823 380.562,368.757 380.100 C 368.655 379.397,369.322 378.028,369.663 378.239 C 370.150 378.540,371.257 377.615,370.968 377.148 C 370.845 376.949,370.574 376.892,370.366 377.021 C 370.157 377.150,370.108 377.451,370.255 377.689 C 370.419 377.955,370.337 378.008,370.042 377.826 C 369.676 377.600,369.672 377.395,370.026 376.969 C 370.282 376.661,370.650 376.507,370.845 376.628 C 371.040 376.749,371.200 376.597,371.200 376.290 C 371.200 375.958,371.563 375.763,372.100 375.806 C 373.253 375.899,373.660 375.266,373.118 374.222 C 372.883 373.770,372.834 373.533,373.009 373.697 C 373.184 373.860,373.549 373.808,373.821 373.582 C 374.093 373.357,374.470 373.200,374.658 373.233 C 375.843 373.446,376.423 372.164,375.439 371.506 C 375.182 371.334,375.373 371.189,375.900 371.156 C 377.701 371.044,378.546 370.557,378.255 369.799 C 378.073 369.324,379.322 368.636,380.130 368.767 C 380.311 368.796,380.344 368.632,380.202 368.403 C 380.061 368.174,379.779 368.089,379.577 368.214 C 379.371 368.341,379.328 368.124,379.479 367.721 C 379.718 367.084,379.670 367.065,379.066 367.557 C 378.468 368.043,378.413 368.030,378.634 367.457 C 378.931 366.681,379.839 366.588,380.156 367.300 C 380.279 367.575,380.363 367.440,380.344 367.000 C 380.239 364.668,380.369 364.400,381.600 364.400 C 382.260 364.400,382.779 364.265,382.753 364.100 C 382.544 362.777,382.858 361.964,383.500 362.164 C 384.301 362.413,384.982 362.031,385.040 361.300 C 385.162 359.776,385.232 359.573,385.564 359.778 C 386.827 360.559,387.408 358.895,387.275 354.875 C 387.215 353.070,387.309 352.761,387.902 352.821 C 389.319 352.965,389.600 352.775,389.600 351.669 C 389.600 350.660,389.720 350.556,390.712 350.702 C 391.724 350.850,391.834 350.745,391.923 349.533 C 391.982 348.731,392.359 347.943,392.868 347.555 C 393.405 347.146,393.598 346.720,393.396 346.393 C 393.186 346.053,393.235 345.974,393.538 346.162 C 393.793 346.319,394.025 346.212,394.056 345.924 C 394.125 345.275,394.316 341.783,394.364 340.300 C 394.393 339.418,394.589 339.200,395.352 339.200 C 396.271 339.200,396.305 339.090,396.362 335.944 C 396.431 332.192,396.526 331.935,397.771 332.160 C 398.539 332.300,398.692 332.152,398.702 331.264 C 398.762 325.822,398.793 325.600,399.500 325.572 C 400.099 325.548,400.084 325.494,399.400 325.200 C 398.716 324.906,398.701 324.852,399.300 324.828 C 400.207 324.792,400.207 324.113,399.300 323.876 C 398.633 323.702,398.633 323.691,399.300 323.646 C 400.390 323.574,400.390 76.561,399.300 76.276 C 398.633 76.102,398.633 76.091,399.300 76.046 C 399.685 76.021,400.000 75.820,400.000 75.600 C 400.000 75.380,399.685 75.187,399.300 75.172 C 398.701 75.148,398.716 75.094,399.400 74.800 C 400.084 74.506,400.099 74.452,399.500 74.428 C 398.922 74.405,398.800 74.018,398.800 72.200 C 398.800 70.710,398.639 69.998,398.300 69.994 C 397.973 69.990,397.945 69.886,398.219 69.694 C 398.681 69.370,398.914 67.562,398.475 67.708 C 397.470 68.043,396.407 65.888,396.353 63.405 C 396.300 60.947,396.243 60.800,395.348 60.800 C 394.589 60.800,394.393 60.581,394.364 59.700 C 394.316 58.217,394.125 54.725,394.056 54.076 C 394.025 53.788,393.793 53.681,393.538 53.838 C 393.235 54.026,393.186 53.947,393.396 53.607 C 393.598 53.280,393.405 52.854,392.868 52.445 C 392.359 52.057,391.982 51.269,391.923 50.467 C 391.834 49.255,391.724 49.150,390.712 49.298 C 389.720 49.444,389.600 49.340,389.600 48.331 C 389.600 47.709,389.409 47.200,389.176 47.200 C 388.943 47.200,388.855 47.035,388.980 46.832 C 389.239 46.413,388.076 45.106,387.668 45.357 C 387.520 45.448,387.359 44.684,387.308 43.661 C 387.159 40.652,386.993 40.197,386.055 40.232 C 385.258 40.261,385.042 39.872,385.093 38.500 C 385.111 38.006,384.678 37.843,383.694 37.971 C 383.165 38.041,382.364 36.420,382.671 35.900 C 382.768 35.735,382.297 35.600,381.624 35.600 C 380.366 35.600,380.239 35.342,380.344 33.000 C 380.363 32.560,380.279 32.425,380.156 32.700 C 379.839 33.412,378.931 33.319,378.634 32.543 C 378.413 31.970,378.468 31.957,379.066 32.443 C 379.670 32.935,379.718 32.916,379.479 32.279 C 379.328 31.876,379.371 31.659,379.577 31.786 C 379.779 31.911,380.061 31.826,380.202 31.597 C 380.344 31.368,380.311 31.204,380.130 31.233 C 379.344 31.360,378.072 30.679,378.246 30.225 C 378.417 29.780,377.280 28.454,376.939 28.700 C 376.862 28.755,376.395 28.797,375.900 28.794 C 375.383 28.790,375.187 28.663,375.439 28.494 C 376.423 27.836,375.843 26.554,374.658 26.767 C 374.143 26.859,373.180 25.955,373.406 25.591 C 373.514 25.416,373.487 24.971,373.346 24.603 C 373.141 24.069,373.020 24.041,372.750 24.466 C 372.497 24.866,372.411 24.874,372.406 24.500 C 372.403 24.225,372.130 24.000,371.800 24.000 C 371.470 24.000,371.200 23.809,371.200 23.576 C 371.200 23.343,371.040 23.251,370.845 23.372 C 370.650 23.493,370.282 23.339,370.026 23.031 C 369.672 22.605,369.676 22.400,370.042 22.174 C 370.337 21.992,370.419 22.045,370.255 22.311 C 370.108 22.549,370.157 22.850,370.366 22.979 C 370.574 23.108,370.845 23.051,370.968 22.852 C 371.257 22.385,370.150 21.460,369.663 21.761 C 369.322 21.972,368.655 20.603,368.757 19.900 C 368.823 19.438,368.220 19.544,367.621 20.100 C 367.190 20.500,367.139 20.500,367.365 20.100 C 367.520 19.825,367.443 19.600,367.193 19.600 C 366.943 19.600,366.210 19.072,365.565 18.426 C 364.919 17.780,363.898 17.195,363.295 17.126 C 362.677 17.055,362.177 16.739,362.146 16.400 C 362.117 16.070,362.072 15.613,362.046 15.385 C 362.021 15.157,361.611 14.941,361.136 14.905 C 360.230 14.837,359.513 14.064,359.850 13.519 C 359.958 13.344,359.902 13.186,359.724 13.169 C 359.546 13.153,359.040 13.052,358.600 12.946 C 358.160 12.840,357.275 12.734,356.633 12.710 C 355.992 12.686,355.137 12.382,354.733 12.033 C 354.330 11.685,353.640 11.085,353.200 10.700 C 352.760 10.315,352.265 9.955,352.100 9.900 C 351.935 9.845,351.849 9.652,351.910 9.470 C 351.970 9.289,351.841 9.251,351.623 9.386 C 351.405 9.521,350.997 9.264,350.717 8.816 C 350.404 8.315,349.781 8.000,349.104 8.000 C 348.401 8.000,348.000 7.787,348.000 7.414 C 348.000 6.482,346.394 5.851,343.800 5.765 C 342.480 5.721,340.905 5.666,340.300 5.642 C 339.421 5.609,339.200 5.409,339.200 4.652 C 339.200 3.757,339.053 3.700,336.595 3.647 C 334.061 3.592,331.958 2.526,332.308 1.475 C 332.368 1.296,330.928 1.174,329.108 1.202 C 323.574 1.290,323.200 1.252,323.200 0.600 C 323.200 0.068,309.244 0.000,200.000 0.000 C 90.756 0.000,76.800 0.068,76.800 0.600 M365.508 19.125 C 365.595 19.386,365.382 19.600,365.033 19.600 C 364.685 19.600,364.400 19.315,364.400 18.967 C 364.400 18.260,365.261 18.383,365.508 19.125 M181.222 96.538 C 181.784 96.832,183.288 97.194,184.564 97.344 C 187.216 97.656,188.400 98.171,188.400 99.014 C 188.400 99.362,188.781 99.600,189.340 99.600 C 190.795 99.600,192.800 100.419,192.800 101.012 C 192.800 101.306,193.197 101.672,193.682 101.826 C 194.706 102.151,197.600 105.041,197.600 105.738 C 197.600 105.998,198.005 106.388,198.500 106.605 C 198.995 106.822,199.458 107.405,199.528 107.901 C 199.598 108.396,199.984 108.977,200.385 109.192 C 200.785 109.406,201.448 110.397,201.857 111.393 C 202.265 112.390,202.897 113.300,203.260 113.417 C 203.623 113.533,204.041 114.109,204.188 114.696 C 204.336 115.284,204.799 116.004,205.217 116.297 C 205.635 116.590,206.165 117.526,206.394 118.378 C 206.624 119.230,207.326 120.478,207.955 121.152 L 209.099 122.376 252.684 122.488 L 296.269 122.600 297.834 123.675 C 298.695 124.266,299.905 124.873,300.523 125.024 C 301.141 125.175,301.926 125.726,302.269 126.249 C 302.612 126.772,303.179 127.200,303.529 127.200 C 304.383 127.200,307.200 129.989,307.200 130.835 C 307.200 131.204,307.558 131.600,307.995 131.715 C 308.433 131.829,308.981 132.424,309.214 133.037 C 309.447 133.650,309.977 134.389,310.391 134.679 C 310.836 134.991,311.331 136.102,311.599 137.395 C 311.849 138.599,312.356 140.173,312.727 140.892 C 313.765 142.909,313.765 282.594,312.727 284.885 C 312.357 285.701,311.926 287.218,311.771 288.256 C 311.590 289.462,311.148 290.457,310.544 291.017 C 310.025 291.498,309.600 292.167,309.600 292.504 C 309.600 292.840,309.099 293.651,308.488 294.306 C 307.876 294.961,307.152 295.988,306.878 296.588 C 306.605 297.189,306.025 297.773,305.590 297.887 C 305.156 298.000,304.800 298.351,304.800 298.667 C 304.800 299.283,302.519 300.400,301.262 300.400 C 300.841 300.400,300.248 300.776,299.942 301.237 C 299.359 302.115,297.024 302.751,294.271 302.783 C 293.431 302.792,292.473 303.070,292.143 303.400 C 291.613 303.930,280.838 304.000,200.000 304.000 C 119.162 304.000,108.387 303.930,107.857 303.400 C 107.527 303.070,106.659 302.792,105.929 302.783 C 103.442 302.750,101.035 302.084,100.350 301.238 C 99.977 300.777,99.377 300.400,99.016 300.400 C 97.154 300.400,92.800 296.381,92.800 294.662 C 92.800 293.964,92.525 293.618,91.832 293.444 C 91.164 293.276,90.780 292.820,90.594 291.973 C 90.446 291.298,90.088 290.655,89.799 290.544 C 89.105 290.278,88.530 288.737,88.031 285.800 C 87.807 284.480,87.345 281.960,87.005 280.200 C 86.027 275.132,86.279 122.260,87.271 119.600 C 87.640 118.610,88.067 116.932,88.220 115.872 C 88.374 114.811,88.900 113.461,89.390 112.872 C 89.880 112.282,90.454 111.260,90.666 110.600 C 90.878 109.940,91.445 109.222,91.926 109.005 C 92.416 108.784,92.800 108.247,92.800 107.782 C 92.800 106.757,97.039 102.208,98.378 101.797 C 98.915 101.632,99.637 101.149,99.982 100.723 C 100.352 100.266,101.337 99.852,102.392 99.710 C 103.428 99.571,104.433 99.154,104.788 98.716 C 105.479 97.863,107.797 97.224,110.251 97.210 C 111.220 97.204,112.108 96.952,112.400 96.600 C 113.105 95.751,179.599 95.691,181.222 96.538 M191.370 182.408 C 190.897 182.881,189.650 183.364,188.362 183.574 C 187.152 183.771,185.540 184.290,184.781 184.727 C 184.021 185.165,182.770 185.643,182.000 185.791 C 179.619 186.248,179.200 186.434,179.200 187.036 C 179.200 187.355,178.705 187.837,178.100 188.107 C 177.495 188.376,176.672 189.002,176.271 189.498 C 175.870 189.994,175.329 190.400,175.069 190.400 C 174.809 190.400,173.517 191.585,172.198 193.033 C 170.879 194.481,169.305 196.173,168.700 196.793 C 168.095 197.413,167.600 198.106,167.600 198.331 C 167.600 198.557,167.150 199.096,166.600 199.529 C 166.050 199.961,165.600 200.523,165.600 200.777 C 165.600 202.842,163.323 204.400,160.304 204.400 C 159.199 204.400,158.530 204.645,158.064 205.219 C 157.588 205.805,156.588 206.157,154.535 206.462 C 152.317 206.790,151.628 207.051,151.480 207.616 C 151.363 208.064,150.655 208.516,149.644 208.788 C 148.672 209.050,147.734 209.635,147.353 210.216 C 146.998 210.757,146.479 211.200,146.200 211.200 C 145.921 211.200,145.406 211.636,145.057 212.170 C 144.707 212.703,144.084 213.246,143.671 213.377 C 143.259 213.508,142.725 214.046,142.485 214.573 C 142.245 215.100,141.699 215.642,141.272 215.777 C 140.821 215.920,140.395 216.527,140.255 217.224 C 140.123 217.884,139.562 218.844,139.008 219.358 C 138.453 219.872,138.000 220.544,138.000 220.853 C 138.000 221.162,137.556 222.067,137.014 222.865 C 136.472 223.663,135.756 225.620,135.424 227.213 C 135.092 228.806,134.546 230.529,134.210 231.041 C 133.365 232.330,133.329 240.877,134.165 241.571 C 134.701 242.016,135.256 243.968,135.794 247.300 C 135.927 248.125,136.203 248.800,136.408 248.800 C 136.903 248.800,138.000 250.960,138.000 251.934 C 138.000 252.360,138.442 252.997,138.981 253.351 C 139.584 253.746,140.066 254.547,140.231 255.426 C 140.417 256.419,140.788 256.967,141.439 257.215 C 141.955 257.411,142.492 258.028,142.632 258.586 C 142.775 259.155,143.175 259.601,143.543 259.602 C 144.139 259.604,144.952 260.217,148.559 263.383 C 149.196 263.942,149.996 264.400,150.337 264.400 C 150.677 264.400,151.416 264.832,151.978 265.359 C 152.757 266.090,153.738 266.414,156.108 266.723 C 157.817 266.945,159.938 267.504,160.820 267.964 C 163.351 269.283,243.712 269.282,246.174 267.963 C 247.033 267.503,248.919 266.942,250.365 266.717 C 252.113 266.444,253.375 265.987,254.128 265.353 C 254.752 264.829,255.675 264.296,256.181 264.169 C 256.686 264.042,257.298 263.502,257.541 262.969 C 257.785 262.435,258.326 262.000,258.748 262.000 C 259.229 262.000,259.606 261.631,259.763 261.006 C 259.917 260.393,260.393 259.917,261.006 259.763 C 261.652 259.601,262.000 259.232,262.000 258.709 C 262.000 258.267,262.540 257.291,263.200 256.539 C 263.860 255.787,264.400 254.900,264.400 254.567 C 264.400 254.234,264.895 253.503,265.500 252.942 L 266.600 251.923 266.600 242.169 C 266.600 232.508,266.591 232.409,265.700 231.785 C 265.179 231.420,264.608 230.393,264.345 229.346 C 264.018 228.049,263.623 227.437,262.945 227.179 C 262.425 226.981,262.000 226.549,262.000 226.219 C 262.000 225.889,261.548 225.322,260.995 224.960 C 260.443 224.598,259.883 223.874,259.752 223.351 C 259.621 222.828,259.267 222.400,258.966 222.400 C 258.665 222.400,258.137 221.971,257.794 221.447 C 257.451 220.923,256.631 220.386,255.973 220.255 C 255.314 220.123,254.376 219.588,253.888 219.066 C 253.400 218.545,252.343 217.996,251.541 217.848 C 250.738 217.700,249.642 217.234,249.106 216.812 C 248.570 216.390,247.156 215.919,245.965 215.766 C 242.841 215.363,242.187 215.027,241.610 213.534 C 241.327 212.800,240.751 211.451,240.329 210.536 C 239.908 209.620,239.425 207.997,239.256 206.928 C 239.051 205.634,238.590 204.626,237.874 203.911 C 237.283 203.320,236.800 202.580,236.800 202.267 C 236.800 201.954,236.501 201.451,236.135 201.149 C 235.769 200.847,235.131 199.835,234.716 198.900 C 234.302 197.965,233.787 197.200,233.573 197.200 C 233.358 197.200,232.979 196.753,232.731 196.208 C 232.482 195.662,231.935 195.106,231.515 194.973 C 231.095 194.840,230.553 194.296,230.311 193.765 C 230.070 193.234,229.635 192.800,229.345 192.800 C 229.055 192.800,228.513 192.334,228.139 191.764 C 227.766 191.193,227.024 190.561,226.491 190.359 C 225.959 190.156,225.429 189.633,225.315 189.195 C 225.200 188.758,224.809 188.400,224.444 188.400 C 224.080 188.400,223.155 187.883,222.389 187.252 C 221.621 186.618,220.240 185.976,219.310 185.819 C 218.382 185.662,217.204 185.203,216.691 184.800 C 216.177 184.396,215.047 183.946,214.179 183.799 C 211.598 183.363,210.085 182.798,209.848 182.181 C 209.446 181.134,192.435 181.343,191.370 182.408 M206.000 201.500 C 206.401 201.995,207.026 202.400,207.390 202.400 C 208.223 202.400,209.561 203.078,210.600 204.025 C 216.614 209.509,220.400 213.357,220.400 213.987 C 220.400 214.214,220.666 214.400,220.991 214.400 C 221.316 214.400,221.864 214.831,222.209 215.358 C 222.555 215.885,223.202 216.412,223.648 216.529 C 224.094 216.645,224.555 217.106,224.671 217.552 C 224.788 217.998,225.315 218.645,225.842 218.991 C 226.369 219.336,226.800 219.856,226.800 220.147 C 226.800 220.438,227.185 221.019,227.655 221.438 C 232.460 225.719,228.528 234.000,221.690 234.000 C 218.738 234.000,217.743 233.353,212.948 228.315 C 212.259 227.592,210.861 226.280,209.840 225.400 C 208.819 224.520,207.725 223.350,207.408 222.800 C 206.900 221.918,206.830 223.841,206.816 239.080 C 206.798 258.430,206.656 259.895,204.672 261.175 C 203.972 261.626,202.860 262.356,202.200 262.796 C 200.431 263.975,197.458 263.894,196.196 262.632 C 195.663 262.100,194.921 261.605,194.547 261.532 C 194.173 261.459,193.688 260.866,193.471 260.214 C 193.254 259.562,192.699 258.723,192.238 258.350 C 191.415 257.684,191.398 257.365,191.276 241.036 C 191.153 224.583,191.061 223.532,189.896 225.310 C 189.567 225.811,188.647 226.572,187.851 227.001 C 186.930 227.496,186.252 228.235,185.991 229.028 C 184.976 232.104,180.261 234.452,176.408 233.801 C 171.626 232.993,168.666 226.024,171.582 222.435 C 172.044 221.866,172.684 220.828,173.004 220.129 C 173.324 219.430,173.949 218.743,174.393 218.602 C 174.837 218.461,175.200 218.151,175.200 217.913 C 175.200 217.427,178.706 214.000,179.203 214.000 C 179.378 214.000,179.710 213.460,179.940 212.800 C 180.170 212.140,180.642 211.600,180.989 211.600 C 181.336 211.600,181.798 211.133,182.015 210.561 C 182.232 209.990,182.730 209.439,183.121 209.337 C 183.512 209.234,184.004 208.757,184.216 208.275 C 184.427 207.794,184.988 207.345,185.462 207.277 C 185.991 207.202,186.421 206.771,186.573 206.164 C 186.710 205.619,187.267 204.970,187.811 204.722 C 188.355 204.474,188.800 204.038,188.800 203.752 C 188.800 203.466,189.565 203.014,190.500 202.748 C 191.435 202.482,192.560 201.958,193.000 201.583 C 194.279 200.494,194.726 200.427,200.136 200.516 C 204.928 200.594,205.321 200.660,206.000 201.500 " stroke="none" fill="#338bfb" fill-rule="evenodd"></path><path id="path2" d="M74.800 0.600 C 74.800 0.973,75.178 1.200,75.800 1.200 C 76.422 1.200,76.800 0.973,76.800 0.600 C 76.800 0.227,76.422 0.000,75.800 0.000 C 75.178 0.000,74.800 0.227,74.800 0.600 M323.200 0.600 C 323.200 0.973,323.578 1.200,324.200 1.200 C 324.822 1.200,325.200 0.973,325.200 0.600 C 325.200 0.227,324.822 0.000,324.200 0.000 C 323.578 0.000,323.200 0.227,323.200 0.600 M66.667 2.667 C 66.218 3.115,66.369 3.600,66.957 3.600 C 67.264 3.600,67.618 3.330,67.745 3.000 C 67.975 2.399,67.181 2.153,66.667 2.667 M49.200 8.321 C 49.200 8.571,48.959 8.682,48.664 8.569 C 48.006 8.317,47.032 9.405,47.393 9.989 C 47.537 10.222,47.826 10.308,48.034 10.179 C 48.243 10.050,48.292 9.749,48.145 9.511 C 47.995 9.268,48.060 9.190,48.293 9.334 C 48.771 9.629,49.846 8.512,49.457 8.124 C 49.316 7.982,49.200 8.071,49.200 8.321 M350.432 8.251 C 350.388 8.880,351.404 9.656,351.801 9.297 C 351.981 9.133,352.006 9.213,351.858 9.472 C 351.518 10.064,352.249 10.568,352.607 9.989 C 352.960 9.417,352.000 8.314,351.362 8.559 C 351.081 8.667,350.764 8.540,350.657 8.278 C 350.526 7.954,350.453 7.945,350.432 8.251 M353.376 11.013 C 353.804 11.336,354.309 11.600,354.500 11.600 C 354.691 11.600,354.720 11.825,354.565 12.100 C 354.363 12.457,354.442 12.449,354.841 12.073 C 355.475 11.475,354.416 10.388,353.224 10.413 C 352.725 10.423,352.756 10.543,353.376 11.013 M34.433 18.367 C 33.543 19.257,33.346 20.000,34.000 20.000 C 34.220 20.000,34.400 19.739,34.400 19.420 C 34.400 19.101,34.714 18.664,35.097 18.450 C 35.480 18.235,35.675 17.942,35.530 17.797 C 35.385 17.652,34.892 17.908,34.433 18.367 M29.700 22.500 C 29.755 22.775,29.545 22.945,29.232 22.877 C 28.763 22.776,28.754 22.863,29.181 23.377 C 29.806 24.130,30.034 24.169,29.900 23.500 C 29.845 23.225,30.055 23.055,30.368 23.123 C 30.837 23.224,30.846 23.137,30.419 22.623 C 29.794 21.870,29.566 21.831,29.700 22.500 M19.823 31.563 C 19.498 32.089,20.765 32.995,21.207 32.553 C 21.438 32.322,21.286 31.996,20.809 31.698 C 20.384 31.433,19.941 31.372,19.823 31.563 M379.501 31.432 C 379.366 31.568,379.366 31.976,379.502 32.339 C 379.719 32.917,379.664 32.930,379.066 32.443 C 378.468 31.957,378.413 31.970,378.634 32.543 C 378.960 33.394,379.842 33.388,380.170 32.533 C 380.437 31.838,379.929 31.004,379.501 31.432 M18.667 34.667 C 18.206 35.127,18.375 35.600,19.000 35.600 C 19.330 35.600,19.600 35.330,19.600 35.000 C 19.600 34.375,19.127 34.206,18.667 34.667 M380.400 34.967 C 380.400 35.315,380.685 35.600,381.033 35.600 C 381.382 35.600,381.595 35.386,381.508 35.125 C 381.261 34.383,380.400 34.260,380.400 34.967 M9.639 48.553 C 9.285 48.980,9.319 49.160,9.790 49.341 C 10.209 49.502,10.400 49.329,10.400 48.787 C 10.400 47.855,10.255 47.810,9.639 48.553 M389.600 48.787 C 389.600 49.329,389.791 49.502,390.210 49.341 C 390.681 49.160,390.715 48.980,390.361 48.553 C 389.745 47.810,389.600 47.855,389.600 48.787 M112.400 96.600 C 112.108 96.952,111.220 97.204,110.251 97.210 C 107.797 97.224,105.479 97.863,104.788 98.716 C 104.433 99.154,103.428 99.571,102.392 99.710 C 101.337 99.852,100.352 100.266,99.982 100.723 C 99.637 101.149,98.915 101.632,98.378 101.797 C 97.039 102.208,92.800 106.757,92.800 107.782 C 92.800 108.247,92.416 108.784,91.926 109.005 C 91.445 109.222,90.878 109.940,90.666 110.600 C 90.454 111.260,89.880 112.282,89.390 112.872 C 88.900 113.461,88.374 114.811,88.220 115.872 C 88.067 116.932,87.640 118.610,87.271 119.600 C 86.279 122.260,86.027 275.132,87.005 280.200 C 87.345 281.960,87.807 284.480,88.031 285.800 C 88.530 288.737,89.105 290.278,89.799 290.544 C 90.088 290.655,90.446 291.298,90.594 291.973 C 90.780 292.820,91.164 293.276,91.832 293.444 C 92.525 293.618,92.800 293.964,92.800 294.662 C 92.800 296.381,97.154 300.400,99.016 300.400 C 99.377 300.400,99.977 300.777,100.350 301.238 C 101.035 302.084,103.442 302.750,105.929 302.783 C 106.659 302.792,107.527 303.070,107.857 303.400 C 108.387 303.930,119.162 304.000,200.000 304.000 C 280.838 304.000,291.613 303.930,292.143 303.400 C 292.473 303.070,293.431 302.792,294.271 302.783 C 297.024 302.751,299.359 302.115,299.942 301.237 C 300.248 300.776,300.841 300.400,301.262 300.400 C 302.519 300.400,304.800 299.283,304.800 298.667 C 304.800 298.351,305.156 298.000,305.590 297.887 C 306.025 297.773,306.605 297.189,306.878 296.588 C 307.152 295.988,307.876 294.961,308.488 294.306 C 309.099 293.651,309.600 292.840,309.600 292.504 C 309.600 292.167,310.025 291.498,310.544 291.017 C 311.148 290.457,311.590 289.462,311.771 288.256 C 311.926 287.218,312.357 285.701,312.727 284.885 C 313.765 282.594,313.765 142.909,312.727 140.892 C 312.356 140.173,311.849 138.599,311.599 137.395 C 311.331 136.102,310.836 134.991,310.391 134.679 C 309.977 134.389,309.447 133.650,309.214 133.037 C 308.981 132.424,308.433 131.829,307.995 131.715 C 307.558 131.600,307.200 131.204,307.200 130.835 C 307.200 129.989,304.383 127.200,303.529 127.200 C 303.179 127.200,302.612 126.772,302.269 126.249 C 301.926 125.726,301.141 125.175,300.523 125.024 C 299.905 124.873,298.695 124.266,297.834 123.675 L 296.269 122.600 252.684 122.488 L 209.099 122.376 207.955 121.152 C 207.326 120.478,206.624 119.230,206.394 118.378 C 206.165 117.526,205.635 116.590,205.217 116.297 C 204.799 116.004,204.336 115.284,204.188 114.696 C 204.041 114.109,203.623 113.533,203.260 113.417 C 202.897 113.300,202.265 112.390,201.857 111.393 C 201.448 110.397,200.785 109.406,200.385 109.192 C 199.984 108.977,199.598 108.396,199.528 107.901 C 199.458 107.405,198.995 106.822,198.500 106.605 C 198.005 106.388,197.600 105.998,197.600 105.738 C 197.600 105.041,194.706 102.151,193.682 101.826 C 193.197 101.672,192.800 101.306,192.800 101.012 C 192.800 100.419,190.795 99.600,189.340 99.600 C 188.781 99.600,188.400 99.362,188.400 99.014 C 188.400 98.171,187.216 97.656,184.564 97.344 C 183.288 97.194,181.784 96.832,181.222 96.538 C 179.599 95.691,113.105 95.751,112.400 96.600 M186.781 100.157 C 193.809 103.827,196.973 106.907,201.003 114.000 C 201.566 114.990,202.554 116.610,203.200 117.600 C 203.846 118.590,204.831 120.251,205.389 121.291 C 207.191 124.647,203.641 124.400,250.080 124.403 C 289.745 124.405,291.531 124.437,294.673 125.190 C 301.231 126.762,306.900 131.766,309.513 138.286 L 310.600 141.000 310.711 211.200 C 310.781 255.434,310.678 282.339,310.432 283.937 C 309.395 290.675,304.709 297.179,299.482 299.135 C 298.213 299.610,296.693 300.314,296.105 300.699 C 295.094 301.361,289.808 301.406,200.638 301.503 L 106.240 301.607 103.745 300.403 C 102.373 299.741,101.103 299.200,100.924 299.200 C 99.656 299.200,95.364 295.142,92.886 291.600 C 89.050 286.117,89.149 288.678,89.283 198.200 L 89.400 119.400 90.540 116.000 C 91.167 114.130,92.000 112.240,92.390 111.800 C 92.781 111.360,93.567 110.249,94.136 109.331 C 95.319 107.423,99.506 103.200,100.215 103.200 C 100.475 103.200,101.319 102.772,102.090 102.249 C 102.861 101.726,104.191 101.076,105.046 100.804 C 105.901 100.533,106.982 100.072,107.448 99.780 C 109.450 98.527,111.460 98.465,147.400 98.532 L 183.800 98.600 186.781 100.157 M195.800 179.614 C 195.140 179.818,193.250 180.171,191.600 180.398 C 188.239 180.861,181.958 182.895,180.338 184.046 C 179.754 184.461,179.148 184.800,178.992 184.800 C 178.601 184.800,175.043 187.392,172.508 189.525 C 170.120 191.532,165.240 197.190,164.259 199.086 C 163.269 201.000,161.332 202.216,158.003 203.015 C 155.151 203.699,149.233 206.120,148.802 206.779 C 148.691 206.949,148.018 207.387,147.307 207.751 C 143.063 209.925,138.496 215.283,135.162 222.000 C 125.652 241.158,137.784 265.774,158.735 269.832 C 162.974 270.653,244.074 270.648,248.000 269.827 C 257.455 267.848,265.496 260.253,268.470 250.490 C 270.584 243.552,269.478 232.933,266.194 228.627 C 265.647 227.911,265.200 227.149,265.200 226.936 C 265.200 226.722,263.985 225.088,262.500 223.306 C 258.795 218.859,254.718 216.243,248.591 214.383 C 244.136 213.030,243.074 212.154,242.495 209.349 C 242.227 208.051,241.751 206.622,241.436 206.173 C 241.122 205.725,240.017 203.749,238.980 201.783 C 236.182 196.478,230.808 190.266,226.600 187.471 C 225.720 186.887,224.550 186.110,224.000 185.745 C 223.450 185.380,222.507 184.745,221.904 184.332 C 217.379 181.236,200.457 178.177,195.800 179.614 M209.848 182.181 C 210.085 182.798,211.598 183.363,214.179 183.799 C 215.047 183.946,216.177 184.396,216.691 184.800 C 217.204 185.203,218.382 185.662,219.310 185.819 C 220.240 185.976,221.621 186.618,222.389 187.252 C 223.155 187.883,224.080 188.400,224.444 188.400 C 224.809 188.400,225.200 188.758,225.315 189.195 C 225.429 189.633,225.959 190.156,226.491 190.359 C 227.024 190.561,227.766 191.193,228.139 191.764 C 228.513 192.334,229.055 192.800,229.345 192.800 C 229.635 192.800,230.070 193.234,230.311 193.765 C 230.553 194.296,231.095 194.840,231.515 194.973 C 231.935 195.106,232.482 195.662,232.731 196.208 C 232.979 196.753,233.358 197.200,233.573 197.200 C 233.787 197.200,234.302 197.965,234.716 198.900 C 235.131 199.835,235.769 200.847,236.135 201.149 C 236.501 201.451,236.800 201.954,236.800 202.267 C 236.800 202.580,237.283 203.320,237.874 203.911 C 238.590 204.626,239.051 205.634,239.256 206.928 C 239.425 207.997,239.908 209.620,240.329 210.536 C 240.751 211.451,241.327 212.800,241.610 213.534 C 242.187 215.027,242.841 215.363,245.965 215.766 C 247.156 215.919,248.570 216.390,249.106 216.812 C 249.642 217.234,250.738 217.700,251.541 217.848 C 252.343 217.996,253.400 218.545,253.888 219.066 C 254.376 219.588,255.314 220.123,255.973 220.255 C 256.631 220.386,257.451 220.923,257.794 221.447 C 258.137 221.971,258.665 222.400,258.966 222.400 C 259.267 222.400,259.621 222.828,259.752 223.351 C 259.883 223.874,260.443 224.598,260.995 224.960 C 261.548 225.322,262.000 225.889,262.000 226.219 C 262.000 226.549,262.425 226.981,262.945 227.179 C 263.623 227.437,264.018 228.049,264.345 229.346 C 264.608 230.393,265.179 231.420,265.700 231.785 C 266.591 232.409,266.600 232.508,266.600 242.169 L 266.600 251.923 265.500 252.942 C 264.895 253.503,264.400 254.234,264.400 254.567 C 264.400 254.900,263.860 255.787,263.200 256.539 C 262.540 257.291,262.000 258.267,262.000 258.709 C 262.000 259.232,261.652 259.601,261.006 259.763 C 260.393 259.917,259.917 260.393,259.763 261.006 C 259.606 261.631,259.229 262.000,258.748 262.000 C 258.326 262.000,257.785 262.435,257.541 262.969 C 257.298 263.502,256.686 264.042,256.181 264.169 C 255.675 264.296,254.752 264.829,254.128 265.353 C 253.375 265.987,252.113 266.444,250.365 266.717 C 248.919 266.942,247.033 267.503,246.174 267.963 C 243.712 269.282,163.351 269.283,160.820 267.964 C 159.938 267.504,157.817 266.945,156.108 266.723 C 153.738 266.414,152.757 266.090,151.978 265.359 C 151.416 264.832,150.677 264.400,150.337 264.400 C 149.996 264.400,149.196 263.942,148.559 263.383 C 144.952 260.217,144.139 259.604,143.543 259.602 C 143.175 259.601,142.775 259.155,142.632 258.586 C 142.492 258.028,141.955 257.411,141.439 257.215 C 140.788 256.967,140.417 256.419,140.231 255.426 C 140.066 254.547,139.584 253.746,138.981 253.351 C 138.442 252.997,138.000 252.360,138.000 251.934 C 138.000 250.960,136.903 248.800,136.408 248.800 C 136.203 248.800,135.927 248.125,135.794 247.300 C 135.256 243.968,134.701 242.016,134.165 241.571 C 133.329 240.877,133.365 232.330,134.210 231.041 C 134.546 230.529,135.092 228.806,135.424 227.213 C 135.756 225.620,136.472 223.663,137.014 222.865 C 137.556 222.067,138.000 221.162,138.000 220.853 C 138.000 220.544,138.453 219.872,139.008 219.358 C 139.562 218.844,140.123 217.884,140.255 217.224 C 140.395 216.527,140.821 215.920,141.272 215.777 C 141.699 215.642,142.245 215.100,142.485 214.573 C 142.725 214.046,143.259 213.508,143.671 213.377 C 144.084 213.246,144.707 212.703,145.057 212.170 C 145.406 211.636,145.921 211.200,146.200 211.200 C 146.479 211.200,146.998 210.757,147.353 210.216 C 147.734 209.635,148.672 209.050,149.644 208.788 C 150.655 208.516,151.363 208.064,151.480 207.616 C 151.628 207.051,152.317 206.790,154.535 206.462 C 156.588 206.157,157.588 205.805,158.064 205.219 C 158.530 204.645,159.199 204.400,160.304 204.400 C 163.323 204.400,165.600 202.842,165.600 200.777 C 165.600 200.523,166.050 199.961,166.600 199.529 C 167.150 199.096,167.600 198.557,167.600 198.331 C 167.600 198.106,168.095 197.413,168.700 196.793 C 169.305 196.173,170.879 194.481,172.198 193.033 C 173.517 191.585,174.809 190.400,175.069 190.400 C 175.329 190.400,175.870 189.994,176.271 189.498 C 176.672 189.002,177.495 188.376,178.100 188.107 C 178.705 187.837,179.200 187.355,179.200 187.036 C 179.200 186.434,179.619 186.248,182.000 185.791 C 182.770 185.643,184.021 185.165,184.781 184.727 C 185.540 184.290,187.152 183.771,188.362 183.574 C 189.650 183.364,190.897 182.881,191.370 182.408 C 192.435 181.343,209.446 181.134,209.848 182.181 M194.400 200.667 C 194.070 200.796,193.440 201.208,193.000 201.583 C 192.560 201.958,191.435 202.482,190.500 202.748 C 189.565 203.014,188.800 203.466,188.800 203.752 C 188.800 204.038,188.355 204.474,187.811 204.722 C 187.267 204.970,186.710 205.619,186.573 206.164 C 186.421 206.771,185.991 207.202,185.462 207.277 C 184.988 207.345,184.427 207.794,184.216 208.275 C 184.004 208.757,183.512 209.234,183.121 209.337 C 182.730 209.439,182.232 209.990,182.015 210.561 C 181.798 211.133,181.336 211.600,180.989 211.600 C 180.642 211.600,180.170 212.140,179.940 212.800 C 179.710 213.460,179.378 214.000,179.203 214.000 C 178.706 214.000,175.200 217.427,175.200 217.913 C 175.200 218.151,174.837 218.461,174.393 218.602 C 173.949 218.743,173.324 219.430,173.004 220.129 C 172.684 220.828,172.044 221.866,171.582 222.435 C 168.666 226.024,171.626 232.993,176.408 233.801 C 180.261 234.452,184.976 232.104,185.991 229.028 C 186.252 228.235,186.930 227.496,187.851 227.001 C 188.647 226.572,189.567 225.811,189.896 225.310 C 191.061 223.532,191.153 224.583,191.276 241.036 C 191.398 257.365,191.415 257.684,192.238 258.350 C 192.699 258.723,193.254 259.562,193.471 260.214 C 193.688 260.866,194.173 261.459,194.547 261.532 C 194.921 261.605,195.663 262.100,196.196 262.632 C 197.458 263.894,200.431 263.975,202.200 262.796 C 202.860 262.356,203.972 261.626,204.672 261.175 C 206.656 259.895,206.798 258.430,206.816 239.080 C 206.830 223.841,206.900 221.918,207.408 222.800 C 207.725 223.350,208.819 224.520,209.840 225.400 C 210.861 226.280,212.259 227.592,212.948 228.315 C 217.743 233.353,218.738 234.000,221.690 234.000 C 228.528 234.000,232.460 225.719,227.655 221.438 C 227.185 221.019,226.800 220.438,226.800 220.147 C 226.800 219.856,226.369 219.336,225.842 218.991 C 225.315 218.645,224.788 217.998,224.671 217.552 C 224.555 217.106,224.094 216.645,223.648 216.529 C 223.202 216.412,222.555 215.885,222.209 215.358 C 221.864 214.831,221.316 214.400,220.991 214.400 C 220.666 214.400,220.400 214.214,220.400 213.987 C 220.400 213.357,216.614 209.509,210.600 204.025 C 209.561 203.078,208.223 202.400,207.390 202.400 C 207.026 202.400,206.401 201.995,206.000 201.500 C 205.272 200.599,196.231 199.950,194.400 200.667 M204.149 203.404 C 209.485 204.793,227.600 222.668,227.600 226.543 C 227.600 229.177,225.170 231.200,222.007 231.200 C 219.045 231.200,218.635 230.923,212.478 224.759 C 204.382 216.655,204.856 215.717,204.823 239.908 L 204.800 256.816 203.785 258.423 C 202.230 260.887,198.755 261.624,196.158 260.040 C 194.122 258.798,194.000 257.569,194.000 238.256 C 194.000 228.691,193.891 220.581,193.757 220.233 C 193.263 218.944,192.153 219.723,187.037 224.952 C 179.724 232.426,176.467 233.363,173.480 228.849 C 171.600 226.008,172.265 224.387,177.761 218.423 C 179.322 216.728,182.385 213.402,184.567 211.031 C 191.587 203.400,196.617 201.442,204.149 203.404 M396.538 332.617 C 396.408 332.957,396.401 333.335,396.524 333.457 C 396.874 333.808,397.600 333.213,397.600 332.576 C 397.600 331.809,396.837 331.838,396.538 332.617 M389.600 351.262 C 389.600 351.960,389.699 352.016,390.200 351.600 C 390.530 351.326,390.800 351.053,390.800 350.994 C 390.800 350.934,390.530 350.782,390.200 350.655 C 389.785 350.496,389.600 350.682,389.600 351.262 M9.200 350.951 C 9.200 351.034,9.470 351.326,9.800 351.600 C 10.291 352.008,10.400 351.980,10.400 351.449 C 10.400 351.092,10.130 350.800,9.800 350.800 C 9.470 350.800,9.200 350.868,9.200 350.951 M10.902 353.561 C 11.988 354.954,12.800 354.972,12.800 353.603 C 12.800 353.030,12.519 352.862,11.602 352.888 C 10.564 352.917,10.470 353.008,10.902 353.561 M387.200 353.603 C 387.200 354.972,388.012 354.954,389.098 353.561 C 389.530 353.008,389.436 352.917,388.398 352.888 C 387.481 352.862,387.200 353.030,387.200 353.603 M18.421 364.839 C 18.895 365.725,19.600 365.849,19.600 365.047 C 19.600 364.742,19.243 364.400,18.807 364.286 C 18.132 364.110,18.075 364.192,18.421 364.839 M380.400 365.033 C 380.400 365.382,380.614 365.595,380.875 365.508 C 381.617 365.261,381.740 364.400,381.033 364.400 C 380.685 364.400,380.400 364.685,380.400 365.033 M19.841 367.436 C 19.553 368.189,19.905 368.906,20.410 368.594 C 20.605 368.473,20.649 368.065,20.508 367.687 C 20.281 367.083,20.333 367.068,20.934 367.557 C 21.532 368.043,21.587 368.030,21.366 367.457 C 21.045 366.620,20.159 366.608,19.841 367.436 M378.634 367.457 C 378.413 368.030,378.468 368.043,379.066 367.557 C 379.667 367.068,379.719 367.083,379.492 367.687 C 379.217 368.423,379.792 369.061,380.174 368.443 C 380.511 367.897,379.994 366.800,379.400 366.800 C 379.117 366.800,378.772 367.095,378.634 367.457 M353.272 387.713 C 352.556 388.576,353.354 389.389,354.142 388.601 C 354.504 388.239,354.800 387.776,354.800 387.571 C 354.800 387.024,353.764 387.120,353.272 387.713 M45.443 388.169 C 45.682 388.790,46.800 389.365,46.800 388.867 C 46.800 388.470,45.930 387.600,45.533 387.600 C 45.363 387.600,45.323 387.856,45.443 388.169 M351.225 389.585 C 350.318 390.145,350.383 391.529,351.305 391.288 C 351.724 391.179,352.166 390.832,352.287 390.518 C 352.588 389.732,351.927 389.151,351.225 389.585 M47.675 390.295 C 47.876 391.338,49.200 391.454,49.200 390.429 C 49.200 389.857,48.943 389.600,48.371 389.600 C 47.798 389.600,47.583 389.815,47.675 390.295 M74.800 399.400 C 74.800 399.773,75.178 400.000,75.800 400.000 C 76.422 400.000,76.800 399.773,76.800 399.400 C 76.800 399.027,76.422 398.800,75.800 398.800 C 75.178 398.800,74.800 399.027,74.800 399.400 M323.200 399.400 C 323.200 399.773,323.578 400.000,324.200 400.000 C 324.822 400.000,325.200 399.773,325.200 399.400 C 325.200 399.027,324.822 398.800,324.200 398.800 C 323.578 398.800,323.200 399.027,323.200 399.400 " stroke="none" fill="#4b9cfc" fill-rule="evenodd"></path></g></svg>