<?xml version="1.0" standalone="no"?><!DOCTYPE svg PUBLIC "-//W3C//DTD SVG 1.1//EN" "http://www.w3.org/Graphics/SVG/1.1/DTD/svg11.dtd"><svg t="1707711738768" class="icon" viewBox="0 0 1024 1024" version="1.1" xmlns="http://www.w3.org/2000/svg" p-id="22759" xmlns:xlink="http://www.w3.org/1999/xlink" width="48" height="48"><path d="M853.343368 0H170.656632A170.656632 170.656632 0 0 0 0 170.656632v682.656632a170.656632 170.656632 0 0 0 170.656632 170.656633h682.686736a170.656632 170.656632 0 0 0 170.656632-170.656633V170.656632A170.656632 170.656632 0 0 0 853.343368 0zM85.313264 412.568203c79.804327-75.288805 190.886171-73.121355 285.441204 23.209784 94.585136 96.331138 275.928504 3.4619 275.928505 3.4619-173.546566 216.955786-336.797742 56.112888-336.797743 56.112888s-8.549389-8.398871-64.933207-57.407338c-56.383819-49.068674-159.638758-25.377234-159.638759-25.377234z m853.222954 119.510819c-8.12794 124.357479-121.467545 124.357479-121.467544 124.357478-2.920038 109.907808-93.712135 129.595484-93.712136 129.595485-104.12794 31.819379-148.079022-45.727187-148.079022-45.727187-15.05174 19.11571-78.088429 59.574788-144.045155 22.57761s-61.32079-111.65381-61.32079-111.65381c-126.675447-30.645343-135.947319-144.015052-135.947319-144.015051 87.932267 75.800564 173.546566 78.088429 173.546566 78.088429 157.350894 0.60207 257.866416-97.475071 257.866416-97.475071-29.501411 47.714017-63.789276 88.082785-119.330197 134.502352-55.540922 46.419567-127.096896 39.044214-127.096896 39.044214 25.587959 43.349012 74.626529 45.095014 74.626529 45.095014 68.124177-2.137347 87.661336-50.302916 87.661336-50.302916 39.495767 82.001881 112.797742 46.419567 112.797742 46.419567 76.342427-45.57667 39.887112-104.12794 39.887112-104.127939 62.464722 15.172154 96.301035-16.045155 96.301035-16.045156 51.175917-45.57667 7.375353-89.828786 7.375352-89.828786-53.79492-49.008467-117.132643-16.045155-117.132643-16.045155-12.161806-128.963311-100.66604-146.904986-100.66604-146.904986-89.076199-19.657573-135.375353 54.366886-135.375352 54.366886 58.430856 19.657573 128.421449 3.4619 128.421448 3.4619-69.990593 75.800564-134.803387 56.684854-134.803386 56.684854-103.495767-20.169332-103.495767-134.472248-103.495767-134.472248 47.412982 54.637817 83.838194 66.227658 83.838194 66.227658 26.039511-160.240828 168.940734-145.189087 168.940734-145.189088 166.562559 21.403575 142.871119 174.690499 142.871119 174.690499 25.467545-8.669802 57.828786-5.207902 57.828787-5.207902 119.17968 18.513641 110.509878 131.883349 110.509877 131.883349z" fill="#4FB9EB" p-id="22760"></path></svg>