<?xml version="1.0" standalone="no"?><!DOCTYPE svg PUBLIC "-//W3C//DTD SVG 1.1//EN" "http://www.w3.org/Graphics/SVG/1.1/DTD/svg11.dtd"><svg t="1707724916291" class="icon" viewBox="0 0 1053 1024" version="1.1" xmlns="http://www.w3.org/2000/svg" p-id="86465" xmlns:xlink="http://www.w3.org/1999/xlink" width="49.359375" height="48"><path d="M850.983 962h-654.331c-73.229 0-134.646-59.056-134.646-134.646v-630.709c0-73.229 59.055-134.646 134.646-134.646h654.331c73.229 0 134.646 59.056 134.646 134.646v630.709c0 75.591-59.056 134.646-134.646 134.646zM584.053 702.158v-377.952h-141.732v-94.489l-70.867 23.622v70.867h-118.11v23.622h-23.622v354.331h23.622v23.622h330.709v-23.622zM820.273 678.535v-165.353h-47.243v-23.622h47.243v-188.977h-188.977v496.062h47.243v-70.867h118.11v-23.622h23.622v-23.622zM773.030 678.535h-47.243v23.622h-47.243v-377.952h94.489v165.353h-47.243v23.622h47.243v165.353zM371.455 489.559h-70.867v23.622h70.867v165.353h70.867v-165.353h70.867v-23.622h-70.867v-141.732h94.489v354.331h-259.842v-354.331h94.489v141.732z" p-id="86466" fill="#F91E23"></path></svg>