<svg id="svg" version="1.1" xmlns="http://www.w3.org/2000/svg" xmlns:xlink="http://www.w3.org/1999/xlink" width="47" height="47" viewBox="0 0 400 400"><g id="svgg"><path id="path0" d="M229.000 97.071 C 228.120 97.146,226.320 97.381,225.000 97.593 C 223.680 97.805,220.919 98.167,218.865 98.397 C 216.811 98.627,214.643 99.068,214.047 99.376 C 213.451 99.684,211.657 100.117,210.059 100.338 C 208.461 100.560,206.926 100.929,206.649 101.159 C 206.372 101.389,205.168 101.785,203.973 102.038 C 202.778 102.291,201.132 102.836,200.316 103.249 C 199.500 103.662,198.528 104.000,198.156 104.000 C 197.784 104.000,196.562 104.431,195.440 104.958 C 194.318 105.486,192.407 106.386,191.194 106.958 C 189.981 107.531,188.788 108.000,188.543 108.000 C 188.298 108.000,187.875 108.269,187.602 108.598 C 187.328 108.927,186.425 109.400,185.593 109.649 C 184.681 109.922,183.914 110.470,183.659 111.030 C 183.427 111.540,182.733 112.266,182.118 112.643 C 179.909 113.997,177.974 115.217,176.478 116.200 C 175.642 116.750,174.455 117.200,173.841 117.200 C 172.818 117.200,169.346 119.471,167.000 121.674 C 160.547 127.734,155.820 132.741,152.909 136.599 C 152.079 137.698,151.175 138.836,150.900 139.127 C 150.625 139.419,150.400 140.319,150.399 141.129 C 150.399 142.206,149.974 143.189,148.811 144.800 C 147.938 146.010,146.959 147.581,146.636 148.291 C 146.313 149.001,145.420 150.134,144.652 150.808 C 143.884 151.482,143.142 152.554,143.002 153.189 C 142.863 153.825,142.491 154.558,142.177 154.819 C 141.863 155.080,141.408 156.037,141.166 156.947 C 140.924 157.856,140.489 158.870,140.200 159.200 C 139.911 159.530,139.463 160.594,139.205 161.564 C 138.946 162.534,138.497 163.704,138.207 164.164 C 137.916 164.624,137.550 165.630,137.394 166.400 C 137.237 167.170,136.792 168.520,136.404 169.400 C 136.016 170.280,135.572 171.900,135.418 173.000 C 135.264 174.100,134.874 175.410,134.553 175.910 C 134.231 176.411,133.861 178.031,133.731 179.510 C 133.601 180.990,133.156 182.959,132.743 183.887 C 131.282 187.167,131.325 214.423,132.794 216.193 C 133.065 216.520,133.450 218.240,133.648 220.015 C 133.847 221.790,134.267 223.638,134.582 224.121 C 134.897 224.605,135.333 226.113,135.551 227.474 C 135.769 228.834,136.209 230.364,136.529 230.874 C 136.849 231.383,137.234 232.520,137.385 233.400 C 137.536 234.280,137.901 235.376,138.197 235.836 C 138.493 236.296,138.946 237.466,139.205 238.436 C 139.463 239.406,139.914 240.470,140.206 240.800 C 140.498 241.130,140.869 241.940,141.030 242.600 C 141.191 243.260,141.642 244.213,142.033 244.719 C 142.425 245.224,142.860 246.162,143.000 246.802 C 143.141 247.442,143.860 248.497,144.598 249.144 C 145.336 249.792,146.242 250.908,146.612 251.624 C 146.982 252.339,147.449 253.122,147.650 253.362 C 149.212 255.237,150.386 257.580,150.393 258.837 C 150.397 259.695,150.729 260.661,151.219 261.237 C 151.669 261.766,152.571 262.920,153.223 263.800 C 155.772 267.241,162.104 273.883,166.933 278.181 C 170.687 281.522,168.202 283.170,162.990 280.796 C 162.030 280.358,160.826 280.000,160.316 280.000 C 159.806 280.000,158.716 279.640,157.896 279.200 C 157.075 278.760,156.191 278.400,155.933 278.400 C 155.153 278.400,150.407 275.965,149.409 275.052 C 147.806 273.587,147.221 273.170,146.075 272.678 C 145.464 272.415,144.702 271.967,144.382 271.683 C 144.062 271.398,142.888 270.588,141.772 269.883 C 139.999 268.761,137.184 266.594,134.600 264.361 C 132.853 262.851,125.283 255.219,123.400 253.069 C 122.300 251.812,120.841 250.538,120.159 250.237 C 118.538 249.522,116.585 246.592,116.296 244.441 C 116.171 243.504,115.754 242.391,115.369 241.966 C 114.985 241.542,114.475 240.854,114.236 240.439 C 113.996 240.023,113.125 238.701,112.300 237.500 C 111.475 236.300,110.800 235.137,110.800 234.917 C 110.800 234.697,110.350 234.031,109.800 233.438 C 109.250 232.844,108.800 232.111,108.800 231.808 C 108.800 231.505,108.553 231.010,108.252 230.709 C 107.950 230.408,107.365 229.567,106.952 228.842 C 106.538 228.117,105.711 226.686,105.112 225.662 C 104.514 224.638,103.722 223.125,103.352 222.300 C 102.981 221.475,102.540 220.800,102.370 220.800 C 102.201 220.800,101.855 220.173,101.602 219.407 C 101.349 218.640,100.604 217.630,99.946 217.161 C 99.288 216.693,98.356 215.554,97.875 214.631 C 94.992 209.098,92.130 207.495,88.000 209.100 C 84.831 210.332,83.836 211.728,83.835 214.938 C 83.835 216.980,83.991 217.763,84.447 218.018 C 84.784 218.207,85.300 219.090,85.594 219.980 C 85.888 220.871,86.260 221.600,86.421 221.600 C 86.581 221.600,87.015 222.275,87.384 223.100 C 87.752 223.925,88.573 225.500,89.206 226.600 C 89.840 227.700,90.713 229.345,91.146 230.256 C 91.579 231.167,92.115 232.024,92.336 232.161 C 92.557 232.297,92.857 232.947,93.001 233.605 C 93.145 234.262,93.436 234.800,93.646 234.800 C 93.856 234.800,94.388 235.565,94.828 236.500 C 95.268 237.435,96.117 238.985,96.714 239.943 C 98.213 242.350,99.405 244.346,100.334 246.007 C 101.071 247.324,101.522 247.825,104.600 250.745 C 105.260 251.371,106.250 252.551,106.800 253.366 C 107.350 254.181,108.041 255.110,108.335 255.430 C 108.629 255.751,109.571 256.945,110.427 258.085 C 111.283 259.224,112.660 260.871,113.487 261.744 C 115.989 264.384,117.200 266.068,117.200 266.908 C 117.200 267.886,119.764 270.343,125.200 274.577 C 126.190 275.348,127.450 276.356,128.000 276.816 C 128.550 277.276,129.342 277.884,129.761 278.166 C 130.183 278.450,130.395 278.884,130.238 279.139 C 129.801 279.846,128.438 279.688,127.309 278.800 C 126.750 278.360,125.981 278.000,125.600 278.000 C 125.219 278.000,124.479 277.678,123.954 277.284 C 123.429 276.890,122.550 276.342,122.000 276.065 C 121.450 275.788,120.280 275.124,119.400 274.589 C 118.520 274.054,117.568 273.501,117.285 273.360 C 117.002 273.218,116.502 272.585,116.175 271.952 C 115.847 271.318,115.323 270.800,115.010 270.800 C 114.697 270.800,113.956 270.350,113.362 269.800 C 112.769 269.250,112.046 268.800,111.756 268.800 C 111.466 268.800,111.035 268.440,110.800 268.000 C 110.565 267.560,110.133 267.200,109.841 267.200 C 109.549 267.200,108.610 266.666,107.755 266.014 C 106.900 265.361,105.840 264.554,105.400 264.220 C 104.960 263.886,103.953 263.115,103.162 262.506 C 102.371 261.898,101.128 260.950,100.400 260.400 C 97.450 258.171,94.628 255.720,91.324 252.517 C 90.369 251.591,88.996 250.671,88.273 250.471 C 86.096 249.870,82.800 246.304,82.800 244.551 C 82.800 244.053,82.048 242.849,81.100 241.831 C 79.146 239.731,77.532 237.740,74.590 233.800 C 74.262 233.360,73.582 232.460,73.079 231.800 C 72.246 230.706,71.859 230.151,70.000 227.389 C 69.318 226.376,66.741 222.500,65.339 220.378 C 64.823 219.597,64.400 218.772,64.400 218.545 C 64.400 218.319,63.695 217.567,62.834 216.875 C 61.956 216.170,61.063 214.997,60.803 214.208 C 60.547 213.434,60.200 212.800,60.032 212.800 C 59.864 212.800,59.387 212.170,58.972 211.400 C 58.557 210.630,58.077 210.000,57.905 210.000 C 57.732 210.000,56.783 209.620,55.795 209.156 C 53.493 208.074,51.487 208.364,50.525 209.919 C 50.157 210.513,49.577 211.230,49.235 211.512 C 48.203 212.363,48.377 216.734,49.500 218.162 C 50.170 219.015,50.400 219.837,50.400 221.376 C 50.400 222.954,50.637 223.766,51.400 224.800 C 51.950 225.545,52.400 226.363,52.400 226.616 C 52.400 226.869,52.760 227.402,53.200 227.800 C 53.640 228.198,54.000 228.752,54.000 229.031 C 54.000 229.310,54.450 230.073,55.000 230.727 C 55.550 231.381,56.000 232.044,56.000 232.200 C 56.000 232.356,56.450 233.019,57.000 233.673 C 57.550 234.327,58.000 235.090,58.000 235.369 C 58.000 235.648,58.360 236.202,58.800 236.600 C 59.240 236.998,59.600 237.544,59.600 237.813 C 59.600 238.082,59.881 238.535,60.225 238.821 C 60.568 239.106,61.513 240.341,62.325 241.567 C 63.136 242.792,64.070 244.096,64.400 244.466 C 64.730 244.836,65.708 246.057,66.574 247.180 C 67.440 248.303,68.533 249.319,69.003 249.437 C 69.474 249.555,70.835 250.756,72.029 252.107 C 73.223 253.458,76.270 256.702,78.800 259.316 C 81.330 261.930,83.531 264.548,83.691 265.134 C 84.092 266.601,90.974 272.801,96.197 276.400 C 96.995 276.950,98.043 277.715,98.524 278.099 C 100.105 279.361,102.185 280.773,103.016 281.148 C 103.465 281.351,104.073 281.805,104.365 282.158 C 104.708 282.571,105.532 282.800,106.677 282.800 C 108.370 282.800,112.402 284.528,113.907 285.899 C 114.209 286.174,114.884 286.506,115.407 286.637 C 115.930 286.769,116.642 287.309,116.988 287.838 C 117.335 288.367,117.862 288.800,118.160 288.800 C 118.458 288.800,118.917 289.058,119.179 289.374 C 119.441 289.690,120.212 290.071,120.893 290.221 C 121.574 290.370,122.939 290.922,123.925 291.446 C 124.912 291.971,125.986 292.400,126.312 292.400 C 126.639 292.400,127.467 292.741,128.153 293.158 C 128.839 293.574,130.155 294.039,131.077 294.189 C 131.999 294.339,132.955 294.704,133.200 295.000 C 133.445 295.296,134.401 295.662,135.323 295.813 C 136.245 295.965,137.630 296.362,138.400 296.696 C 139.170 297.029,140.970 297.536,142.400 297.822 C 143.830 298.107,145.810 298.600,146.800 298.917 C 152.110 300.616,155.030 301.132,164.400 302.031 C 167.150 302.295,170.840 302.651,172.600 302.823 C 177.802 303.332,313.257 303.278,314.724 302.767 C 315.417 302.525,316.084 301.949,316.230 301.467 C 316.374 300.990,316.847 300.212,317.281 299.737 C 319.435 297.381,317.913 289.936,315.114 289.140 C 314.611 288.997,295.030 288.858,271.600 288.830 C 246.119 288.801,228.357 288.627,227.400 288.399 C 226.520 288.189,223.822 287.826,221.405 287.592 C 218.769 287.337,216.631 286.919,216.064 286.548 C 215.544 286.207,213.928 285.760,212.473 285.553 C 211.018 285.347,209.385 284.889,208.845 284.535 C 208.188 284.105,206.660 283.837,204.231 283.727 C 201.775 283.616,200.082 283.317,199.000 282.803 C 193.961 280.407,191.222 279.032,189.800 278.185 C 188.920 277.661,187.660 276.927,187.000 276.554 C 185.175 275.524,182.800 273.522,182.800 273.014 C 182.800 272.766,182.252 272.121,181.582 271.581 C 178.815 269.353,178.111 268.764,176.251 267.121 C 171.350 262.792,165.870 256.968,163.000 253.039 C 162.120 251.834,160.905 250.635,160.300 250.375 C 159.695 250.115,159.200 249.759,159.200 249.582 C 159.200 249.406,158.762 248.740,158.226 248.104 C 157.690 247.467,157.134 246.476,156.990 245.902 C 156.846 245.328,156.492 244.767,156.204 244.657 C 155.916 244.546,155.457 243.768,155.184 242.928 C 154.910 242.088,154.450 241.260,154.160 241.089 C 153.869 240.918,153.516 240.160,153.374 239.403 C 153.232 238.647,152.866 237.821,152.561 237.568 C 152.256 237.314,151.808 236.363,151.566 235.453 C 151.324 234.544,150.829 233.468,150.467 233.063 C 149.968 232.504,149.755 231.194,149.587 227.663 C 149.431 224.383,149.162 222.620,148.682 221.720 C 148.307 221.016,148.000 219.975,148.000 219.407 C 148.000 218.839,147.595 217.255,147.100 215.887 C 146.234 213.494,146.200 212.893,146.200 200.000 C 146.200 187.107,146.234 186.506,147.100 184.113 C 147.595 182.745,148.000 181.161,148.000 180.593 C 148.000 180.025,148.307 178.984,148.682 178.280 C 149.162 177.380,149.431 175.617,149.587 172.337 C 149.755 168.806,149.968 167.496,150.467 166.937 C 150.829 166.532,151.324 165.456,151.566 164.547 C 151.808 163.637,152.256 162.686,152.561 162.432 C 152.866 162.179,153.232 161.353,153.374 160.597 C 153.516 159.840,153.869 159.082,154.160 158.911 C 154.450 158.740,154.910 157.912,155.184 157.072 C 155.457 156.232,155.916 155.454,156.204 155.343 C 156.492 155.233,156.846 154.672,156.990 154.098 C 157.134 153.524,157.690 152.533,158.226 151.896 C 158.762 151.260,159.200 150.594,159.200 150.418 C 159.200 150.241,159.695 149.885,160.300 149.625 C 160.905 149.365,162.120 148.166,163.000 146.961 C 165.870 143.032,171.350 137.208,176.251 132.879 C 178.111 131.236,178.815 130.647,181.582 128.419 C 182.252 127.879,182.800 127.234,182.800 126.986 C 182.800 126.478,185.175 124.476,187.000 123.446 C 187.660 123.073,188.920 122.339,189.800 121.815 C 191.222 120.968,193.961 119.593,199.000 117.197 C 200.082 116.683,201.775 116.384,204.231 116.273 C 206.660 116.163,208.188 115.895,208.845 115.465 C 209.385 115.111,211.018 114.653,212.473 114.447 C 213.928 114.240,215.544 113.793,216.064 113.452 C 216.631 113.081,218.769 112.663,221.405 112.408 C 223.822 112.174,226.520 111.811,227.400 111.601 C 228.357 111.373,246.119 111.199,271.600 111.170 C 295.030 111.142,314.611 111.003,315.114 110.860 C 317.913 110.064,319.435 102.619,317.281 100.263 C 316.847 99.788,316.374 99.010,316.230 98.533 C 316.084 98.051,315.417 97.475,314.724 97.233 C 313.581 96.835,233.547 96.683,229.000 97.071 M229.200 134.428 C 228.210 134.609,225.270 135.022,222.668 135.346 C 219.629 135.724,217.687 136.159,217.241 136.563 C 216.860 136.908,215.929 137.306,215.174 137.448 C 214.418 137.589,213.260 138.019,212.600 138.404 C 211.940 138.788,210.743 139.219,209.940 139.362 C 209.137 139.505,208.260 139.886,207.991 140.211 C 207.722 140.535,207.313 140.800,207.081 140.800 C 206.397 140.800,200.873 143.630,200.367 144.240 C 200.111 144.548,199.682 144.800,199.413 144.800 C 199.144 144.800,198.401 145.250,197.762 145.800 C 197.123 146.349,196.439 146.799,196.243 146.800 C 196.047 146.800,194.938 147.610,193.779 148.600 C 192.367 149.806,191.302 150.400,190.549 150.400 C 188.770 150.400,183.600 155.895,183.600 157.785 C 183.600 158.762,183.364 159.298,182.800 159.600 C 182.360 159.835,182.000 160.270,182.000 160.565 C 182.000 160.860,181.717 161.337,181.371 161.624 C 181.025 161.911,180.350 162.849,179.871 163.708 C 179.392 164.566,178.702 165.806,178.337 166.462 C 177.972 167.118,177.412 167.958,177.091 168.328 C 176.770 168.697,176.398 169.462,176.265 170.026 C 176.131 170.591,175.657 171.473,175.211 171.987 C 174.765 172.502,174.400 173.321,174.400 173.807 C 174.400 174.294,174.066 175.121,173.658 175.646 C 173.250 176.171,172.788 177.295,172.632 178.143 C 172.475 178.992,172.012 180.432,171.603 181.343 C 167.718 189.982,167.718 210.018,171.603 218.657 C 172.012 219.568,172.475 221.008,172.632 221.857 C 172.788 222.705,173.250 223.829,173.658 224.354 C 174.066 224.879,174.400 225.706,174.400 226.193 C 174.400 226.679,174.765 227.498,175.211 228.013 C 175.657 228.527,176.131 229.409,176.265 229.974 C 176.398 230.538,176.770 231.303,177.091 231.672 C 177.412 232.042,177.972 232.882,178.337 233.538 C 178.702 234.194,179.392 235.434,179.871 236.292 C 180.350 237.151,181.025 238.089,181.371 238.376 C 181.717 238.663,182.000 239.140,182.000 239.435 C 182.000 239.730,182.360 240.165,182.800 240.400 C 183.364 240.702,183.600 241.238,183.600 242.215 C 183.600 244.105,188.770 249.600,190.549 249.600 C 191.302 249.600,192.367 250.194,193.779 251.400 C 194.938 252.390,196.047 253.200,196.243 253.200 C 196.439 253.201,197.123 253.651,197.762 254.200 C 198.401 254.750,199.144 255.200,199.413 255.200 C 199.682 255.200,200.111 255.452,200.367 255.760 C 200.873 256.370,206.397 259.200,207.081 259.200 C 207.313 259.200,207.722 259.465,207.991 259.789 C 208.260 260.114,209.137 260.495,209.940 260.638 C 210.743 260.781,211.940 261.216,212.600 261.606 C 213.260 261.995,214.430 262.443,215.200 262.601 C 215.970 262.760,216.901 263.154,217.268 263.478 C 217.668 263.830,219.755 264.286,222.468 264.615 C 224.961 264.917,228.080 265.351,229.400 265.580 C 232.942 266.193,313.623 266.155,314.973 265.539 C 315.530 265.286,316.092 264.740,316.224 264.326 C 316.355 263.912,316.808 263.251,317.230 262.858 C 318.640 261.544,318.630 254.400,317.218 254.400 C 317.041 254.400,316.682 253.881,316.420 253.248 C 315.723 251.565,316.902 251.609,272.200 251.604 C 237.609 251.601,230.923 251.509,228.265 251.000 C 226.540 250.670,223.280 250.400,221.019 250.400 C 217.557 250.400,216.752 250.278,215.922 249.625 C 215.380 249.198,214.411 248.722,213.768 248.566 C 213.126 248.411,212.150 247.986,211.600 247.622 C 211.050 247.259,210.150 246.736,209.600 246.461 C 208.636 245.980,207.450 245.265,204.284 243.260 C 203.468 242.744,202.800 242.171,202.800 241.987 C 202.800 241.804,202.443 241.541,202.006 241.402 C 200.905 241.052,192.523 232.620,192.172 231.507 C 192.014 231.008,191.551 230.365,191.143 230.077 C 190.734 229.790,190.400 229.323,190.400 229.039 C 190.400 228.756,190.047 228.204,189.615 227.814 C 189.183 227.423,188.629 226.495,188.384 225.752 C 188.139 225.008,187.786 224.400,187.600 224.400 C 187.414 224.400,187.042 223.725,186.773 222.900 C 186.504 222.075,185.950 220.971,185.542 220.446 C 185.134 219.921,184.800 219.123,184.800 218.672 C 184.800 218.221,184.395 217.420,183.900 216.894 L 183.000 215.936 183.000 200.000 L 183.000 184.064 183.900 183.106 C 184.395 182.580,184.800 181.779,184.800 181.328 C 184.800 180.877,185.134 180.079,185.542 179.554 C 185.950 179.029,186.504 177.925,186.773 177.100 C 187.042 176.275,187.414 175.600,187.600 175.600 C 187.786 175.600,188.139 174.992,188.384 174.248 C 188.629 173.505,189.183 172.577,189.615 172.186 C 190.047 171.796,190.400 171.244,190.400 170.961 C 190.400 170.677,190.734 170.210,191.143 169.923 C 191.551 169.635,192.014 168.992,192.172 168.493 C 192.523 167.380,200.905 158.948,202.006 158.598 C 202.443 158.459,202.800 158.196,202.800 158.013 C 202.800 157.829,203.468 157.256,204.284 156.740 C 207.450 154.735,208.636 154.020,209.600 153.539 C 210.150 153.264,211.050 152.741,211.600 152.378 C 212.150 152.014,213.126 151.589,213.768 151.434 C 214.411 151.278,215.380 150.802,215.922 150.375 C 216.752 149.722,217.557 149.600,221.019 149.600 C 223.280 149.600,226.540 149.330,228.265 149.000 C 230.923 148.491,237.609 148.399,272.200 148.396 C 316.902 148.391,315.723 148.435,316.420 146.752 C 316.682 146.119,317.041 145.600,317.218 145.600 C 318.630 145.600,318.640 138.456,317.230 137.142 C 316.808 136.749,316.355 136.088,316.224 135.674 C 316.092 135.260,315.530 134.714,314.973 134.461 C 313.778 133.916,232.180 133.885,229.200 134.428 M230.600 171.574 C 230.160 171.752,228.464 172.122,226.831 172.396 C 225.199 172.671,223.057 173.324,222.072 173.848 C 221.087 174.371,220.078 174.800,219.830 174.800 C 219.233 174.800,217.249 176.737,216.000 178.540 C 215.450 179.334,214.685 180.089,214.300 180.219 C 213.915 180.348,213.600 180.678,213.600 180.952 C 213.600 181.629,211.609 183.447,210.500 183.782 C 209.998 183.934,209.600 184.374,209.600 184.778 C 209.600 185.176,209.331 185.726,209.001 185.999 C 208.672 186.272,208.149 187.329,207.838 188.348 C 207.528 189.367,206.958 190.920,206.571 191.800 C 205.544 194.141,205.544 205.859,206.571 208.200 C 206.958 209.080,207.528 210.633,207.838 211.652 C 208.149 212.671,208.672 213.728,209.001 214.001 C 209.331 214.274,209.600 214.824,209.600 215.222 C 209.600 215.626,209.998 216.066,210.500 216.218 C 211.609 216.553,213.600 218.371,213.600 219.048 C 213.600 219.322,213.915 219.652,214.300 219.781 C 214.685 219.911,215.450 220.666,216.000 221.460 C 217.228 223.232,219.230 225.200,219.805 225.200 C 220.039 225.200,220.944 225.579,221.815 226.043 C 226.512 228.541,226.162 228.523,271.800 228.676 C 318.478 228.833,315.570 229.008,316.417 226.003 C 316.635 225.231,317.080 224.251,317.406 223.824 C 318.606 222.254,317.458 217.857,315.600 216.907 C 315.270 216.738,296.370 216.500,273.600 216.377 C 225.309 216.116,227.935 216.365,223.000 211.579 C 220.766 209.412,220.408 208.942,219.947 207.570 C 219.694 206.816,219.197 205.866,218.843 205.458 C 217.906 204.377,217.906 195.623,218.843 194.542 C 219.197 194.134,219.694 193.184,219.947 192.430 C 220.408 191.058,220.766 190.588,223.000 188.421 C 227.935 183.635,225.309 183.884,273.600 183.623 C 296.370 183.500,315.270 183.262,315.600 183.093 C 317.458 182.143,318.606 177.746,317.406 176.176 C 317.080 175.749,316.633 174.770,316.413 174.000 C 315.560 171.014,318.463 171.197,272.468 171.225 C 249.880 171.239,231.040 171.396,230.600 171.574 " stroke="none" fill="#f9f7f7" fill-rule="evenodd"></path><path id="path1" d="M67.600 0.400 C 67.600 0.621,66.550 0.800,65.250 0.800 C 61.788 0.800,60.400 1.158,60.400 2.050 C 60.400 2.772,58.288 3.105,55.500 2.821 C 54.997 2.770,54.800 3.038,54.800 3.775 C 54.800 4.777,54.738 4.800,52.000 4.800 C 49.523 4.800,49.200 4.887,49.200 5.555 C 49.200 6.142,48.802 6.369,47.400 6.579 C 45.978 6.792,45.600 7.012,45.600 7.625 C 45.600 8.216,45.321 8.400,44.421 8.400 C 43.717 8.400,42.806 8.803,42.162 9.400 C 41.569 9.950,40.839 10.400,40.542 10.400 C 40.244 10.400,40.000 10.750,40.000 11.178 C 40.000 11.823,39.674 11.977,38.100 12.078 C 36.479 12.182,36.181 12.332,36.072 13.100 C 35.990 13.678,35.668 14.000,35.172 14.000 C 34.682 14.000,34.400 14.276,34.400 14.755 C 34.400 15.342,34.002 15.569,32.600 15.779 C 31.178 15.992,30.800 16.212,30.800 16.825 C 30.800 17.385,30.523 17.600,29.800 17.600 C 29.000 17.600,28.800 17.800,28.800 18.600 C 28.800 19.400,28.600 19.600,27.800 19.600 C 27.067 19.600,26.800 19.813,26.800 20.400 C 26.800 20.933,26.533 21.200,26.000 21.200 C 25.413 21.200,25.200 21.467,25.200 22.200 C 25.200 23.000,25.000 23.200,24.200 23.200 C 23.400 23.200,23.200 23.400,23.200 24.200 C 23.200 25.000,23.000 25.200,22.200 25.200 C 21.467 25.200,21.200 25.413,21.200 26.000 C 21.200 26.533,20.933 26.800,20.400 26.800 C 19.813 26.800,19.600 27.067,19.600 27.800 C 19.600 28.600,19.400 28.800,18.600 28.800 C 17.800 28.800,17.600 29.000,17.600 29.800 C 17.600 30.523,17.385 30.800,16.825 30.800 C 16.212 30.800,15.992 31.178,15.779 32.600 C 15.573 33.974,15.337 34.400,14.782 34.400 C 14.333 34.400,14.007 34.744,13.928 35.300 C 13.844 35.891,13.525 36.200,13.000 36.200 C 12.425 36.200,12.164 36.509,12.073 37.300 C 12.002 37.924,11.701 38.400,11.379 38.400 C 11.042 38.400,10.631 39.116,10.368 40.163 C 10.074 41.327,9.664 41.994,9.162 42.126 C 8.569 42.281,8.400 42.689,8.400 43.963 C 8.400 45.302,8.262 45.600,7.643 45.600 C 6.781 45.600,6.400 46.345,6.400 48.033 C 6.400 48.933,6.217 49.200,5.600 49.200 C 5.160 49.200,4.821 49.335,4.847 49.500 C 5.261 52.118,4.731 54.800,3.800 54.800 C 2.829 54.800,2.800 54.880,2.800 57.600 C 2.800 60.081,2.714 60.400,2.043 60.400 C 1.072 60.400,0.800 61.151,0.800 63.833 C 0.800 65.025,0.620 66.000,0.400 66.000 C 0.134 66.000,0.000 110.933,0.000 200.000 C 0.000 284.790,0.140 334.000,0.382 334.000 C 0.592 334.000,0.817 335.215,0.882 336.700 C 0.989 339.153,1.082 339.412,1.900 339.528 C 2.734 339.646,2.800 339.858,2.800 342.428 C 2.800 345.118,2.830 345.200,3.800 345.200 C 4.771 345.200,4.800 345.280,4.800 348.000 C 4.800 350.506,4.882 350.800,5.577 350.800 C 6.205 350.800,6.378 351.126,6.477 352.500 C 6.579 353.913,6.752 354.222,7.500 354.328 C 8.279 354.438,8.400 354.695,8.400 356.228 C 8.400 357.203,8.567 358.000,8.771 358.000 C 9.525 358.000,10.400 359.290,10.400 360.402 C 10.400 361.182,10.646 361.624,11.175 361.792 C 11.601 361.927,12.006 362.434,12.075 362.919 C 12.154 363.479,12.528 363.847,13.100 363.928 C 13.795 364.027,14.000 364.318,14.000 365.205 C 14.000 365.871,14.313 366.575,14.743 366.877 C 15.151 367.165,15.607 367.786,15.756 368.257 C 15.905 368.728,16.381 369.206,16.813 369.319 C 17.280 369.441,17.600 369.866,17.600 370.363 C 17.600 370.989,17.852 371.200,18.600 371.200 C 19.400 371.200,19.600 371.400,19.600 372.200 C 19.600 372.933,19.813 373.200,20.400 373.200 C 20.933 373.200,21.200 373.467,21.200 374.000 C 21.200 374.587,21.467 374.800,22.200 374.800 C 23.000 374.800,23.200 375.000,23.200 375.800 C 23.200 376.600,23.400 376.800,24.200 376.800 C 25.000 376.800,25.200 377.000,25.200 377.800 C 25.200 378.533,25.413 378.800,26.000 378.800 C 26.533 378.800,26.800 379.067,26.800 379.600 C 26.800 380.187,27.067 380.400,27.800 380.400 C 28.600 380.400,28.800 380.600,28.800 381.400 C 28.800 382.148,29.011 382.400,29.637 382.400 C 30.134 382.400,30.559 382.720,30.681 383.187 C 30.794 383.619,31.272 384.095,31.743 384.244 C 32.214 384.393,32.835 384.849,33.123 385.257 C 33.425 385.687,34.129 386.000,34.795 386.000 C 35.682 386.000,35.973 386.205,36.072 386.900 C 36.153 387.472,36.521 387.846,37.081 387.925 C 37.566 387.994,38.073 388.399,38.208 388.825 C 38.376 389.354,38.818 389.600,39.598 389.600 C 40.710 389.600,42.000 390.475,42.000 391.229 C 42.000 391.433,42.797 391.600,43.772 391.600 C 45.305 391.600,45.562 391.721,45.672 392.500 C 45.778 393.248,46.087 393.421,47.500 393.523 C 48.874 393.622,49.200 393.795,49.200 394.423 C 49.200 395.118,49.494 395.200,52.000 395.200 C 54.720 395.200,54.800 395.229,54.800 396.200 C 54.800 397.170,54.882 397.200,57.572 397.200 C 60.142 397.200,60.354 397.266,60.472 398.100 C 60.588 398.918,60.847 399.011,63.300 399.118 C 64.785 399.183,66.000 399.408,66.000 399.618 C 66.000 399.860,115.210 400.000,200.000 400.000 C 289.067 400.000,334.000 399.866,334.000 399.600 C 334.000 399.380,334.975 399.200,336.167 399.200 C 338.849 399.200,339.600 398.928,339.600 397.957 C 339.600 397.286,339.919 397.200,342.400 397.200 C 345.120 397.200,345.200 397.171,345.200 396.200 C 345.200 395.269,347.882 394.739,350.500 395.153 C 350.665 395.179,350.800 394.840,350.800 394.400 C 350.800 393.783,351.067 393.600,351.967 393.600 C 353.655 393.600,354.400 393.219,354.400 392.357 C 354.400 391.738,354.698 391.600,356.037 391.600 C 357.311 391.600,357.719 391.431,357.874 390.838 C 358.006 390.336,358.673 389.926,359.837 389.632 C 360.884 389.369,361.600 388.958,361.600 388.621 C 361.600 388.299,362.076 387.998,362.700 387.927 C 363.491 387.836,363.800 387.575,363.800 387.000 C 363.800 386.475,364.109 386.156,364.700 386.072 C 365.256 385.993,365.600 385.667,365.600 385.218 C 365.600 384.663,366.026 384.427,367.400 384.221 C 368.822 384.008,369.200 383.788,369.200 383.175 C 369.200 382.615,369.477 382.400,370.200 382.400 C 371.000 382.400,371.200 382.200,371.200 381.400 C 371.200 380.600,371.400 380.400,372.200 380.400 C 372.933 380.400,373.200 380.187,373.200 379.600 C 373.200 379.067,373.467 378.800,374.000 378.800 C 374.587 378.800,374.800 378.533,374.800 377.800 C 374.800 377.000,375.000 376.800,375.800 376.800 C 376.600 376.800,376.800 376.600,376.800 375.800 C 376.800 375.000,377.000 374.800,377.800 374.800 C 378.533 374.800,378.800 374.587,378.800 374.000 C 378.800 373.467,379.067 373.200,379.600 373.200 C 380.187 373.200,380.400 372.933,380.400 372.200 C 380.400 371.400,380.600 371.200,381.400 371.200 C 382.200 371.200,382.400 371.000,382.400 370.200 C 382.400 369.477,382.615 369.200,383.175 369.200 C 383.788 369.200,384.008 368.822,384.221 367.400 C 384.431 365.998,384.658 365.600,385.245 365.600 C 385.724 365.600,386.000 365.318,386.000 364.828 C 386.000 364.332,386.322 364.010,386.900 363.928 C 387.668 363.819,387.818 363.521,387.922 361.900 C 388.023 360.326,388.177 360.000,388.822 360.000 C 389.250 360.000,389.600 359.756,389.600 359.458 C 389.600 359.161,390.050 358.431,390.600 357.838 C 391.197 357.194,391.600 356.283,391.600 355.579 C 391.600 354.679,391.784 354.400,392.375 354.400 C 392.988 354.400,393.208 354.022,393.421 352.600 C 393.631 351.198,393.858 350.800,394.445 350.800 C 395.113 350.800,395.200 350.477,395.200 348.000 C 395.200 345.262,395.223 345.200,396.225 345.200 C 396.962 345.200,397.230 345.003,397.179 344.500 C 396.895 341.712,397.228 339.600,397.950 339.600 C 398.842 339.600,399.200 338.212,399.200 334.750 C 399.200 333.450,399.379 332.400,399.600 332.400 C 399.866 332.400,400.000 288.000,400.000 200.000 C 400.000 112.000,399.866 67.600,399.600 67.600 C 399.375 67.600,399.200 66.475,399.200 65.026 C 399.200 62.104,398.695 60.400,397.828 60.400 C 397.376 60.400,397.209 59.763,397.118 57.700 C 397.013 55.306,396.909 55.000,396.200 55.000 C 395.484 55.000,395.388 54.694,395.282 52.100 C 395.181 49.600,395.064 49.200,394.434 49.200 C 393.892 49.200,393.637 48.792,393.451 47.627 C 393.277 46.540,392.952 45.975,392.400 45.800 C 391.889 45.638,391.600 45.195,391.600 44.573 C 391.600 43.886,391.378 43.600,390.845 43.600 C 390.258 43.600,390.031 43.202,389.821 41.800 C 389.611 40.399,389.384 40.000,388.797 40.000 C 388.182 40.000,388.021 39.651,387.922 38.100 C 387.818 36.479,387.668 36.181,386.900 36.072 C 386.322 35.990,386.000 35.668,386.000 35.172 C 386.000 34.667,385.724 34.400,385.200 34.400 C 384.610 34.400,384.400 34.133,384.400 33.382 C 384.400 32.822,383.964 31.928,383.432 31.396 C 382.900 30.863,382.403 30.106,382.328 29.714 C 382.253 29.321,381.789 28.942,381.296 28.872 C 380.649 28.780,380.400 28.474,380.400 27.772 C 380.400 27.067,380.181 26.800,379.600 26.800 C 379.067 26.800,378.800 26.533,378.800 26.000 C 378.800 25.413,378.533 25.200,377.800 25.200 C 377.000 25.200,376.800 25.000,376.800 24.200 C 376.800 23.400,376.600 23.200,375.800 23.200 C 375.000 23.200,374.800 23.000,374.800 22.200 C 374.800 21.467,374.587 21.200,374.000 21.200 C 373.467 21.200,373.200 20.933,373.200 20.400 C 373.200 19.819,372.933 19.600,372.228 19.600 C 371.526 19.600,371.220 19.351,371.128 18.704 C 371.058 18.211,370.679 17.747,370.286 17.672 C 369.894 17.597,369.137 17.100,368.604 16.568 C 368.072 16.036,367.178 15.600,366.618 15.600 C 365.867 15.600,365.600 15.390,365.600 14.800 C 365.600 14.276,365.333 14.000,364.828 14.000 C 364.332 14.000,364.010 13.678,363.928 13.100 C 363.819 12.332,363.521 12.182,361.900 12.078 C 360.349 11.979,360.000 11.818,360.000 11.203 C 360.000 10.616,359.601 10.389,358.200 10.179 C 356.798 9.969,356.400 9.742,356.400 9.155 C 356.400 8.622,356.114 8.400,355.427 8.400 C 354.805 8.400,354.362 8.111,354.200 7.600 C 354.025 7.048,353.460 6.723,352.373 6.549 C 351.208 6.363,350.800 6.108,350.800 5.566 C 350.800 4.936,350.400 4.819,347.900 4.718 C 345.306 4.612,345.000 4.516,345.000 3.800 C 345.000 3.091,344.694 2.987,342.300 2.882 C 340.237 2.791,339.600 2.624,339.600 2.172 C 339.600 1.305,337.896 0.800,334.974 0.800 C 333.525 0.800,332.400 0.625,332.400 0.400 C 332.400 0.134,288.000 0.000,200.000 0.000 C 112.000 0.000,67.600 0.134,67.600 0.400 M317.330 98.100 C 320.312 102.663,320.443 106.447,317.733 109.731 C 317.220 110.353,316.800 111.023,316.800 111.220 C 316.800 112.770,316.017 112.800,274.720 112.809 C 230.160 112.819,219.719 113.106,217.330 114.386 C 216.495 114.834,215.214 115.200,214.484 115.200 C 213.754 115.200,212.311 115.587,211.278 116.061 C 209.905 116.690,208.327 116.975,205.413 117.119 C 202.248 117.275,201.060 117.510,199.653 118.258 C 198.678 118.776,197.660 119.200,197.389 119.200 C 197.119 119.200,196.678 119.465,196.409 119.789 C 196.140 120.114,195.319 120.491,194.586 120.629 C 193.852 120.767,192.952 121.211,192.585 121.617 C 192.217 122.023,191.384 122.472,190.731 122.615 C 190.079 122.758,189.452 123.120,189.338 123.418 C 189.223 123.717,188.537 124.157,187.813 124.396 C 187.089 124.635,186.177 125.183,185.786 125.615 C 185.396 126.047,184.848 126.400,184.569 126.400 C 184.290 126.400,183.867 126.992,183.628 127.716 C 183.376 128.480,182.669 129.341,181.942 129.771 C 180.527 130.606,180.493 130.635,176.442 134.314 C 171.897 138.440,165.899 144.761,165.034 146.335 C 164.833 146.701,164.562 147.090,164.432 147.200 C 164.302 147.310,163.709 148.054,163.113 148.853 C 162.518 149.652,161.610 150.411,161.096 150.540 C 160.581 150.669,159.845 151.366,159.460 152.088 C 159.075 152.809,158.320 154.120,157.783 155.000 C 157.245 155.880,156.517 157.230,156.163 158.000 C 155.810 158.770,155.285 159.670,154.997 160.000 C 154.710 160.330,154.276 161.344,154.034 162.253 C 153.792 163.163,153.326 164.130,152.997 164.402 C 152.669 164.675,152.400 165.198,152.400 165.564 C 152.400 165.931,152.016 166.944,151.546 167.815 C 150.868 169.074,150.634 170.430,150.408 174.401 C 150.225 177.602,149.902 179.834,149.509 180.601 C 149.171 181.261,148.583 183.690,148.201 186.000 C 147.820 188.310,147.359 191.010,147.178 192.000 C 146.750 194.332,146.750 205.668,147.178 208.000 C 147.359 208.990,147.820 211.690,148.201 214.000 C 148.583 216.310,149.171 218.739,149.509 219.399 C 149.902 220.166,150.225 222.398,150.408 225.599 C 150.634 229.570,150.868 230.926,151.546 232.185 C 152.016 233.056,152.400 234.069,152.400 234.436 C 152.400 234.802,152.669 235.325,152.997 235.598 C 153.326 235.870,153.792 236.837,154.034 237.747 C 154.276 238.656,154.710 239.670,154.997 240.000 C 155.285 240.330,155.810 241.230,156.163 242.000 C 156.517 242.770,157.245 244.120,157.783 245.000 C 158.320 245.880,159.075 247.191,159.460 247.912 C 159.845 248.634,160.581 249.331,161.096 249.460 C 161.610 249.589,162.518 250.348,163.113 251.147 C 163.709 251.946,164.302 252.690,164.432 252.800 C 164.562 252.910,164.833 253.299,165.034 253.665 C 165.899 255.239,171.897 261.560,176.442 265.686 C 180.493 269.365,180.527 269.394,181.942 270.229 C 182.669 270.659,183.376 271.520,183.628 272.284 C 183.867 273.008,184.290 273.600,184.569 273.600 C 184.848 273.600,185.396 273.953,185.786 274.385 C 186.177 274.817,187.089 275.365,187.813 275.604 C 188.537 275.843,189.223 276.283,189.338 276.582 C 189.452 276.880,190.079 277.242,190.731 277.385 C 191.384 277.528,192.217 277.977,192.585 278.383 C 192.952 278.789,193.852 279.233,194.586 279.371 C 195.319 279.509,196.140 279.886,196.409 280.211 C 196.678 280.535,197.119 280.800,197.389 280.800 C 197.660 280.800,198.678 281.224,199.653 281.742 C 201.060 282.490,202.248 282.725,205.413 282.881 C 208.327 283.025,209.905 283.310,211.278 283.939 C 212.311 284.413,213.754 284.800,214.484 284.800 C 215.214 284.800,216.495 285.166,217.330 285.614 C 219.719 286.894,230.160 287.181,274.720 287.191 C 316.017 287.200,316.800 287.230,316.800 288.780 C 316.800 288.977,317.223 289.647,317.739 290.269 C 320.106 293.118,320.235 298.352,318.001 300.890 C 317.754 301.171,317.203 301.989,316.777 302.709 L 316.001 304.018 239.700 303.897 C 170.616 303.788,163.192 303.715,161.200 303.125 C 159.990 302.767,157.290 302.352,155.200 302.203 C 152.670 302.022,150.999 301.693,150.200 301.217 C 149.540 300.823,147.924 300.382,146.608 300.237 C 145.292 300.091,143.848 299.730,143.398 299.436 C 142.949 299.141,141.597 298.765,140.394 298.599 C 139.192 298.434,137.591 297.968,136.837 297.564 C 136.083 297.160,134.692 296.713,133.746 296.571 C 132.800 296.429,131.830 296.077,131.590 295.788 C 131.350 295.499,130.399 295.137,129.477 294.983 C 128.555 294.829,126.991 294.275,126.003 293.752 C 125.015 293.228,123.914 292.800,123.557 292.800 C 123.200 292.800,122.450 292.440,121.891 292.000 C 121.331 291.560,120.533 291.200,120.116 291.200 C 119.321 291.200,116.000 288.957,116.000 288.420 C 116.000 288.249,115.190 287.799,114.200 287.421 C 113.210 287.043,112.400 286.583,112.400 286.398 C 112.400 286.213,111.784 285.859,111.032 285.611 C 110.280 285.362,109.453 284.905,109.196 284.595 C 108.939 284.285,107.653 283.910,106.338 283.761 C 105.023 283.612,103.735 283.284,103.474 283.031 C 103.213 282.778,102.445 282.218,101.766 281.786 C 101.088 281.354,99.873 280.577,99.066 280.060 C 98.260 279.544,97.600 278.959,97.600 278.760 C 97.600 278.562,97.438 278.400,97.240 278.400 C 96.788 278.400,92.806 275.736,92.229 275.047 C 91.993 274.765,89.890 272.970,87.555 271.056 C 84.719 268.732,83.191 267.190,82.955 266.414 C 82.760 265.774,81.070 263.661,79.200 261.719 C 75.467 257.840,70.550 252.392,69.743 251.240 C 69.460 250.836,68.680 250.396,68.010 250.262 C 67.237 250.107,66.623 249.649,66.331 249.009 C 66.078 248.454,65.725 248.000,65.546 248.000 C 65.367 248.000,64.936 247.450,64.589 246.779 C 64.242 246.107,63.652 245.225,63.279 244.819 C 62.905 244.413,62.150 243.422,61.600 242.617 C 61.050 241.811,60.408 240.938,60.173 240.676 C 59.939 240.414,59.400 239.660,58.977 239.000 C 58.553 238.340,58.067 237.620,57.896 237.400 C 56.870 236.077,55.564 234.073,55.216 233.289 C 54.994 232.789,54.626 232.159,54.399 231.889 C 53.593 230.933,52.026 228.582,51.407 227.400 C 51.061 226.740,50.516 225.750,50.195 225.200 C 49.874 224.650,49.606 223.480,49.600 222.600 C 49.594 221.720,49.334 220.550,49.024 220.000 C 46.554 215.619,46.476 212.479,48.787 210.327 C 49.234 209.910,49.600 209.334,49.600 209.046 C 49.600 205.981,58.793 207.228,59.810 210.430 C 59.931 210.813,60.277 211.221,60.578 211.336 C 60.878 211.451,61.240 212.070,61.381 212.711 C 61.521 213.352,62.390 214.661,63.312 215.620 C 65.047 217.426,66.604 219.543,67.248 220.974 C 67.601 221.757,68.879 223.666,70.199 225.381 C 70.529 225.811,70.800 226.387,70.800 226.661 C 70.800 226.936,71.028 227.304,71.306 227.480 C 71.584 227.656,72.529 228.871,73.406 230.180 C 74.283 231.489,75.270 232.871,75.600 233.252 C 76.202 233.946,76.895 234.824,79.195 237.800 C 79.875 238.680,81.099 240.178,81.915 241.129 C 82.732 242.079,83.527 243.449,83.682 244.173 C 84.062 245.942,87.587 249.600,88.912 249.600 C 89.541 249.600,90.616 250.287,91.887 251.500 C 94.490 253.987,97.677 256.800,97.890 256.800 C 97.983 256.800,99.261 257.799,100.730 259.020 C 102.198 260.242,103.760 261.503,104.200 261.824 C 104.640 262.145,105.540 262.818,106.200 263.321 C 106.860 263.823,107.922 264.587,108.560 265.017 C 109.197 265.448,110.104 266.070,110.574 266.400 C 111.044 266.730,112.020 267.360,112.744 267.800 C 113.467 268.240,114.433 268.915,114.891 269.300 C 115.348 269.685,115.965 270.000,116.261 270.000 C 116.558 270.000,116.800 270.167,116.800 270.372 C 116.800 271.247,119.532 273.600,120.547 273.600 C 121.126 273.600,121.600 273.420,121.600 273.200 C 121.600 272.980,121.448 272.800,121.263 272.800 C 120.428 272.800,116.486 268.504,116.224 267.307 C 116.067 266.593,115.118 265.177,114.071 264.095 C 113.042 263.031,111.480 261.307,110.600 260.264 C 109.720 259.221,108.505 257.795,107.900 257.095 C 107.295 256.395,106.800 255.709,106.800 255.572 C 106.800 255.435,106.485 254.941,106.100 254.474 C 105.715 254.008,104.870 252.900,104.223 252.013 C 103.576 251.126,102.841 250.400,102.590 250.400 C 102.134 250.400,99.995 247.935,99.467 246.800 C 99.313 246.470,98.653 245.390,98.000 244.400 C 97.348 243.410,96.496 241.970,96.107 241.200 C 95.718 240.430,95.250 239.735,95.067 239.656 C 94.883 239.576,94.386 238.766,93.961 237.856 C 93.536 236.945,92.747 235.480,92.208 234.600 C 91.669 233.720,90.932 232.373,90.570 231.607 C 90.208 230.840,89.571 229.781,89.156 229.253 C 88.740 228.724,88.400 227.984,88.400 227.608 C 88.400 227.232,88.050 226.607,87.623 226.221 C 87.195 225.834,86.731 224.998,86.592 224.363 C 86.453 223.728,86.157 223.097,85.936 222.961 C 85.715 222.824,85.183 221.967,84.753 221.056 C 84.324 220.145,83.702 218.950,83.371 218.400 C 80.653 213.881,84.832 207.200,90.376 207.200 C 93.723 207.200,97.852 210.276,98.621 213.343 C 98.765 213.914,99.579 215.011,100.432 215.781 C 101.284 216.551,102.257 217.770,102.594 218.491 C 102.930 219.211,103.651 220.520,104.194 221.400 C 104.738 222.280,105.484 223.675,105.852 224.500 C 106.220 225.325,106.652 226.000,106.812 226.000 C 106.972 226.000,107.334 226.585,107.617 227.300 C 107.900 228.015,108.389 228.903,108.703 229.272 C 109.326 230.006,110.401 231.862,111.384 233.900 C 111.729 234.615,112.177 235.200,112.379 235.200 C 112.582 235.200,112.976 235.830,113.254 236.600 C 113.533 237.370,113.900 238.000,114.070 238.000 C 114.240 238.000,114.682 238.585,115.051 239.300 C 115.421 240.015,115.964 240.780,116.259 241.000 C 116.554 241.220,116.911 242.300,117.054 243.400 C 117.318 245.442,120.195 249.600,121.344 249.600 C 121.609 249.600,122.811 250.689,124.013 252.021 C 129.919 258.560,136.250 264.497,140.200 267.200 C 141.004 267.750,142.124 268.605,142.689 269.100 C 143.254 269.595,143.890 270.000,144.101 270.000 C 144.312 270.000,145.019 270.450,145.673 271.000 C 146.327 271.550,147.088 272.000,147.364 272.000 C 147.641 272.000,148.649 272.722,149.604 273.604 C 150.559 274.485,152.008 275.387,152.824 275.606 C 153.639 275.826,154.514 276.256,154.768 276.561 C 155.021 276.866,155.868 277.236,156.649 277.383 C 157.431 277.529,158.729 277.988,159.535 278.402 C 161.650 279.489,166.000 279.926,166.000 279.052 C 166.000 278.693,165.834 278.400,165.630 278.400 C 165.259 278.400,156.800 270.209,156.800 269.849 C 156.800 269.687,154.886 267.548,152.619 265.177 C 151.049 263.536,149.614 260.906,149.607 259.658 C 149.603 258.818,149.226 257.871,148.600 257.127 C 148.050 256.473,147.600 255.710,147.600 255.431 C 147.600 255.152,147.240 254.598,146.800 254.200 C 146.360 253.802,146.000 253.225,146.000 252.919 C 146.000 252.612,145.211 251.605,144.246 250.681 C 143.281 249.756,142.356 248.550,142.191 248.000 C 142.025 247.450,141.555 246.571,141.145 246.046 C 140.735 245.521,140.400 244.856,140.400 244.567 C 140.400 244.279,139.950 243.196,139.400 242.162 C 138.850 241.127,138.400 240.014,138.400 239.688 C 138.400 239.361,138.055 238.533,137.634 237.847 C 137.212 237.161,136.742 235.923,136.588 235.096 C 136.435 234.268,135.970 232.925,135.555 232.111 C 135.140 231.297,134.796 230.174,134.791 229.615 C 134.786 229.057,134.441 227.848,134.024 226.929 C 133.606 226.009,133.149 224.209,133.007 222.929 C 132.865 221.648,132.417 219.610,132.011 218.400 C 129.778 211.736,129.774 188.209,132.006 181.600 C 132.414 180.390,132.869 178.320,133.016 177.000 C 133.162 175.681,133.541 174.101,133.857 173.490 C 134.172 172.880,134.620 171.350,134.850 170.090 C 135.081 168.831,135.502 167.530,135.784 167.200 C 136.067 166.870,136.427 165.880,136.583 165.000 C 136.739 164.120,137.212 162.839,137.634 162.153 C 138.055 161.467,138.400 160.639,138.400 160.312 C 138.400 159.986,138.850 158.873,139.400 157.838 C 139.950 156.804,140.400 155.721,140.400 155.433 C 140.400 155.144,140.749 154.464,141.175 153.922 C 141.602 153.380,142.066 152.477,142.207 151.915 C 142.348 151.353,143.259 150.156,144.232 149.256 C 145.204 148.356,146.000 147.373,146.000 147.072 C 146.000 146.771,146.360 146.198,146.800 145.800 C 147.240 145.402,147.600 144.848,147.600 144.569 C 147.600 144.290,148.050 143.527,148.600 142.873 C 149.207 142.152,149.600 141.186,149.600 140.416 C 149.600 138.737,150.014 137.961,152.400 135.166 C 152.950 134.522,154.120 133.143,155.000 132.101 C 156.387 130.459,163.877 122.941,166.200 120.859 C 169.922 117.523,171.500 116.489,173.254 116.234 C 174.308 116.081,175.413 115.627,175.816 115.182 C 176.205 114.752,176.695 114.400,176.904 114.400 C 177.113 114.400,177.819 113.950,178.473 113.400 C 179.127 112.850,179.888 112.400,180.166 112.400 C 180.443 112.400,181.464 111.591,182.435 110.603 C 183.406 109.615,184.352 108.805,184.538 108.803 C 184.724 108.801,185.354 108.464,185.938 108.052 C 186.522 107.641,187.450 107.170,188.000 107.005 C 188.550 106.840,189.270 106.479,189.600 106.203 C 189.930 105.927,190.920 105.476,191.800 105.200 C 192.680 104.924,193.670 104.472,194.000 104.194 C 194.330 103.916,195.230 103.561,196.000 103.405 C 196.770 103.249,197.800 102.868,198.289 102.559 C 198.777 102.250,200.126 101.793,201.285 101.544 C 202.444 101.296,203.754 100.857,204.196 100.568 C 204.638 100.280,206.195 99.854,207.655 99.621 C 209.116 99.389,210.826 98.930,211.455 98.602 C 212.085 98.274,213.061 98.004,213.624 98.002 C 214.187 98.001,216.077 97.649,217.824 97.219 C 219.571 96.790,221.450 96.365,222.000 96.274 C 222.550 96.183,243.915 96.084,269.479 96.054 L 315.957 96.000 317.330 98.100 M316.418 134.000 C 316.829 134.550,317.503 135.450,317.915 136.000 C 320.310 139.198,320.234 143.928,317.739 146.931 C 317.223 147.553,316.800 148.199,316.800 148.368 C 316.800 149.968,316.441 149.980,265.877 150.093 L 217.554 150.200 216.877 151.076 C 216.505 151.557,215.660 152.080,215.000 152.237 C 214.340 152.394,213.387 152.842,212.881 153.233 C 212.376 153.625,211.431 154.061,210.781 154.204 C 210.132 154.347,209.600 154.638,209.600 154.852 C 209.600 155.066,208.925 155.521,208.100 155.863 C 207.275 156.206,206.456 156.737,206.280 157.043 C 206.104 157.349,205.769 157.600,205.535 157.600 C 204.413 157.600,192.800 168.739,192.800 169.815 C 192.800 170.151,192.523 170.531,192.185 170.661 C 191.847 170.791,191.301 171.460,190.971 172.149 C 190.641 172.837,189.929 174.120,189.389 175.000 C 188.848 175.880,188.119 177.230,187.769 178.000 C 185.914 182.080,184.969 183.846,184.415 184.268 C 183.486 184.974,183.486 215.026,184.415 215.732 C 184.969 216.154,185.914 217.920,187.769 222.000 C 188.119 222.770,188.848 224.120,189.389 225.000 C 189.929 225.880,190.641 227.163,190.971 227.851 C 191.301 228.540,191.847 229.209,192.185 229.339 C 192.523 229.469,192.800 229.849,192.800 230.185 C 192.800 231.261,204.413 242.400,205.535 242.400 C 205.769 242.400,206.104 242.651,206.280 242.957 C 206.456 243.263,207.275 243.794,208.100 244.137 C 208.925 244.479,209.600 244.934,209.600 245.148 C 209.600 245.362,210.132 245.653,210.781 245.796 C 211.431 245.939,212.376 246.375,212.881 246.767 C 213.387 247.158,214.340 247.606,215.000 247.763 C 215.660 247.920,216.505 248.443,216.877 248.924 L 217.554 249.800 265.877 249.907 C 316.441 250.020,316.800 250.032,316.800 251.632 C 316.800 251.801,317.220 252.447,317.733 253.069 C 320.231 256.096,320.312 260.832,317.921 264.000 C 317.505 264.550,316.829 265.450,316.418 266.000 L 315.670 267.000 270.735 266.994 L 225.800 266.988 222.625 266.094 C 220.878 265.602,218.968 265.200,218.379 265.200 C 217.790 265.200,216.869 264.855,216.333 264.433 C 215.796 264.011,214.647 263.539,213.779 263.384 C 212.910 263.229,211.660 262.784,211.000 262.394 C 210.340 262.005,209.227 261.565,208.528 261.417 C 207.828 261.270,207.041 260.890,206.779 260.574 C 206.517 260.258,206.081 260.000,205.811 260.000 C 205.180 260.000,199.997 257.255,199.286 256.543 C 198.987 256.244,198.501 256.000,198.205 256.000 C 197.910 256.000,197.248 255.642,196.734 255.204 C 196.220 254.765,195.080 253.870,194.200 253.213 C 193.320 252.556,192.324 251.754,191.987 251.431 C 191.650 251.108,190.577 250.664,189.604 250.445 C 187.261 249.919,183.308 245.814,182.942 243.528 C 182.811 242.708,182.365 241.731,181.952 241.356 C 181.538 240.982,181.200 240.428,181.200 240.125 C 181.200 239.823,180.922 239.468,180.583 239.338 C 180.244 239.208,179.607 238.449,179.168 237.651 C 178.729 236.853,177.935 235.480,177.402 234.600 C 176.870 233.720,176.081 232.255,175.650 231.344 C 175.219 230.433,174.685 229.576,174.464 229.439 C 174.243 229.303,173.934 228.608,173.779 227.895 C 173.623 227.183,173.180 226.197,172.794 225.705 C 172.408 225.212,171.973 224.012,171.827 223.037 C 171.680 222.063,171.304 221.053,170.991 220.793 C 170.678 220.532,170.305 219.663,170.162 218.860 C 170.019 218.057,169.580 216.860,169.185 216.200 C 166.973 212.501,166.973 187.499,169.185 183.800 C 169.580 183.140,170.019 181.943,170.162 181.140 C 170.305 180.337,170.678 179.468,170.991 179.207 C 171.304 178.947,171.680 177.937,171.827 176.963 C 171.973 175.988,172.408 174.788,172.794 174.295 C 173.180 173.803,173.623 172.817,173.779 172.105 C 173.934 171.392,174.243 170.697,174.464 170.561 C 174.685 170.424,175.219 169.567,175.650 168.656 C 176.081 167.745,176.870 166.280,177.402 165.400 C 177.935 164.520,178.729 163.147,179.168 162.349 C 179.607 161.551,180.244 160.792,180.583 160.662 C 180.922 160.532,181.200 160.177,181.200 159.875 C 181.200 159.572,181.538 159.018,181.952 158.644 C 182.365 158.269,182.811 157.292,182.942 156.472 C 183.308 154.186,187.261 150.081,189.604 149.555 C 190.577 149.336,191.650 148.892,191.987 148.569 C 192.324 148.246,193.320 147.444,194.200 146.787 C 195.080 146.130,196.220 145.235,196.734 144.796 C 197.248 144.358,197.910 144.000,198.205 144.000 C 198.501 144.000,198.987 143.756,199.286 143.457 C 199.997 142.745,205.180 140.000,205.811 140.000 C 206.081 140.000,206.517 139.742,206.779 139.426 C 207.041 139.110,207.828 138.730,208.528 138.583 C 209.227 138.435,210.340 137.995,211.000 137.606 C 211.660 137.216,212.910 136.771,213.779 136.616 C 214.647 136.461,215.796 135.989,216.333 135.567 C 216.869 135.145,217.786 134.800,218.370 134.800 C 218.954 134.800,220.505 134.501,221.816 134.135 C 225.776 133.031,230.531 132.924,273.935 132.963 L 315.671 133.000 316.418 134.000 M315.042 170.405 C 316.854 171.036,318.800 175.395,318.800 178.820 C 318.800 181.902,318.332 182.722,315.752 184.165 L 313.899 185.200 273.450 185.234 C 233.715 185.267,228.626 185.387,228.056 186.309 C 227.900 186.562,227.095 187.052,226.269 187.397 C 225.442 187.743,224.666 188.283,224.546 188.597 C 224.425 188.912,223.983 189.279,223.563 189.412 C 223.143 189.545,222.800 189.855,222.800 190.101 C 222.800 190.347,222.459 190.920,222.042 191.374 C 220.633 192.909,219.200 197.257,219.200 200.000 C 219.200 202.743,220.633 207.091,222.042 208.626 C 222.459 209.080,222.800 209.653,222.800 209.899 C 222.800 210.145,223.143 210.455,223.563 210.588 C 223.983 210.721,224.425 211.088,224.546 211.403 C 224.666 211.717,225.442 212.257,226.269 212.603 C 227.095 212.948,227.900 213.438,228.056 213.691 C 228.626 214.613,233.715 214.733,273.450 214.766 L 313.899 214.800 315.752 215.835 C 318.332 217.278,318.800 218.098,318.800 221.180 C 318.800 224.902,316.844 229.035,314.800 229.632 C 312.124 230.414,228.486 229.937,226.800 229.130 C 226.030 228.761,224.810 228.341,224.088 228.195 C 221.589 227.692,216.400 224.701,216.400 223.764 C 216.400 223.464,215.743 222.630,214.940 221.910 C 214.137 221.189,213.282 220.370,213.040 220.089 C 212.798 219.808,211.998 218.998,211.263 218.289 C 208.246 215.380,207.584 214.562,207.158 213.214 C 206.912 212.436,206.451 211.386,206.133 210.879 C 203.913 207.345,203.913 192.655,206.133 189.121 C 206.451 188.614,206.912 187.564,207.158 186.786 C 207.584 185.438,208.246 184.620,211.263 181.711 C 211.998 181.002,212.798 180.192,213.040 179.911 C 213.282 179.630,214.137 178.811,214.940 178.090 C 215.743 177.370,216.400 176.536,216.400 176.236 C 216.400 175.250,221.765 172.222,224.333 171.760 C 225.140 171.615,225.994 171.343,226.231 171.156 C 226.469 170.969,227.369 170.651,228.231 170.448 C 230.461 169.925,313.548 169.884,315.042 170.405 " stroke="none" fill="#9b3b3b" fill-rule="evenodd"></path><path id="path2" d="M222.000 96.274 C 221.450 96.365,219.571 96.790,217.824 97.219 C 216.077 97.649,214.187 98.001,213.624 98.002 C 213.061 98.004,212.085 98.274,211.455 98.602 C 210.826 98.930,209.116 99.389,207.655 99.621 C 206.195 99.854,204.638 100.280,204.196 100.568 C 203.754 100.857,202.444 101.296,201.285 101.544 C 200.126 101.793,198.777 102.250,198.289 102.559 C 197.800 102.868,196.770 103.249,196.000 103.405 C 195.230 103.561,194.330 103.916,194.000 104.194 C 193.670 104.472,192.680 104.924,191.800 105.200 C 190.920 105.476,189.930 105.927,189.600 106.203 C 189.270 106.479,188.550 106.840,188.000 107.005 C 187.450 107.170,186.522 107.641,185.938 108.052 C 185.354 108.464,184.724 108.801,184.538 108.803 C 184.352 108.805,183.406 109.615,182.435 110.603 C 181.464 111.591,180.443 112.400,180.166 112.400 C 179.888 112.400,179.127 112.850,178.473 113.400 C 177.819 113.950,177.113 114.400,176.904 114.400 C 176.695 114.400,176.205 114.752,175.816 115.182 C 175.413 115.627,174.308 116.081,173.254 116.234 C 171.500 116.489,169.922 117.523,166.200 120.859 C 163.877 122.941,156.387 130.459,155.000 132.101 C 154.120 133.143,152.950 134.522,152.400 135.166 C 150.014 137.961,149.600 138.737,149.600 140.416 C 149.600 141.186,149.207 142.152,148.600 142.873 C 148.050 143.527,147.600 144.290,147.600 144.569 C 147.600 144.848,147.240 145.402,146.800 145.800 C 146.360 146.198,146.000 146.771,146.000 147.072 C 146.000 147.373,145.204 148.356,144.232 149.256 C 143.259 150.156,142.348 151.353,142.207 151.915 C 142.066 152.477,141.602 153.380,141.175 153.922 C 140.749 154.464,140.400 155.144,140.400 155.433 C 140.400 155.721,139.950 156.804,139.400 157.838 C 138.850 158.873,138.400 159.986,138.400 160.312 C 138.400 160.639,138.055 161.467,137.634 162.153 C 137.212 162.839,136.739 164.120,136.583 165.000 C 136.427 165.880,136.067 166.870,135.784 167.200 C 135.502 167.530,135.081 168.831,134.850 170.090 C 134.620 171.350,134.172 172.880,133.857 173.490 C 133.541 174.101,133.162 175.681,133.016 177.000 C 132.869 178.320,132.414 180.390,132.006 181.600 C 129.774 188.209,129.778 211.736,132.011 218.400 C 132.417 219.610,132.865 221.648,133.007 222.929 C 133.149 224.209,133.606 226.009,134.024 226.929 C 134.441 227.848,134.786 229.057,134.791 229.615 C 134.796 230.174,135.140 231.297,135.555 232.111 C 135.970 232.925,136.435 234.268,136.588 235.096 C 136.742 235.923,137.212 237.161,137.634 237.847 C 138.055 238.533,138.400 239.361,138.400 239.688 C 138.400 240.014,138.850 241.127,139.400 242.162 C 139.950 243.196,140.400 244.279,140.400 244.567 C 140.400 244.856,140.735 245.521,141.145 246.046 C 141.555 246.571,142.025 247.450,142.191 248.000 C 142.356 248.550,143.281 249.756,144.246 250.681 C 145.211 251.605,146.000 252.612,146.000 252.919 C 146.000 253.225,146.360 253.802,146.800 254.200 C 147.240 254.598,147.600 255.152,147.600 255.431 C 147.600 255.710,148.050 256.473,148.600 257.127 C 149.226 257.871,149.603 258.818,149.607 259.658 C 149.614 260.906,151.049 263.536,152.619 265.177 C 154.886 267.548,156.800 269.687,156.800 269.849 C 156.800 270.209,165.259 278.400,165.630 278.400 C 165.834 278.400,166.000 278.693,166.000 279.052 C 166.000 279.926,161.650 279.489,159.535 278.402 C 158.729 277.988,157.431 277.529,156.649 277.383 C 155.868 277.236,155.021 276.866,154.768 276.561 C 154.514 276.256,153.639 275.826,152.824 275.606 C 152.008 275.387,150.559 274.485,149.604 273.604 C 148.649 272.722,147.641 272.000,147.364 272.000 C 147.088 272.000,146.327 271.550,145.673 271.000 C 145.019 270.450,144.312 270.000,144.101 270.000 C 143.890 270.000,143.254 269.595,142.689 269.100 C 142.124 268.605,141.004 267.750,140.200 267.200 C 136.250 264.497,129.919 258.560,124.013 252.021 C 122.811 250.689,121.609 249.600,121.344 249.600 C 120.195 249.600,117.318 245.442,117.054 243.400 C 116.911 242.300,116.554 241.220,116.259 241.000 C 115.964 240.780,115.421 240.015,115.051 239.300 C 114.682 238.585,114.240 238.000,114.070 238.000 C 113.900 238.000,113.533 237.370,113.254 236.600 C 112.976 235.830,112.582 235.200,112.379 235.200 C 112.177 235.200,111.729 234.615,111.384 233.900 C 110.401 231.862,109.326 230.006,108.703 229.272 C 108.389 228.903,107.900 228.015,107.617 227.300 C 107.334 226.585,106.972 226.000,106.812 226.000 C 106.652 226.000,106.220 225.325,105.852 224.500 C 105.484 223.675,104.738 222.280,104.194 221.400 C 103.651 220.520,102.930 219.211,102.594 218.491 C 102.257 217.770,101.284 216.551,100.432 215.781 C 99.579 215.011,98.765 213.914,98.621 213.343 C 97.852 210.276,93.723 207.200,90.376 207.200 C 84.832 207.200,80.653 213.881,83.371 218.400 C 83.702 218.950,84.324 220.145,84.753 221.056 C 85.183 221.967,85.715 222.824,85.936 222.961 C 86.157 223.097,86.453 223.728,86.592 224.363 C 86.731 224.998,87.195 225.834,87.623 226.221 C 88.050 226.607,88.400 227.232,88.400 227.608 C 88.400 227.984,88.740 228.724,89.156 229.253 C 89.571 229.781,90.208 230.840,90.570 231.607 C 90.932 232.373,91.669 233.720,92.208 234.600 C 92.747 235.480,93.536 236.945,93.961 237.856 C 94.386 238.766,94.883 239.576,95.067 239.656 C 95.250 239.735,95.718 240.430,96.107 241.200 C 96.496 241.970,97.348 243.410,98.000 244.400 C 98.653 245.390,99.313 246.470,99.467 246.800 C 99.995 247.935,102.134 250.400,102.590 250.400 C 102.841 250.400,103.576 251.126,104.223 252.013 C 104.870 252.900,105.715 254.008,106.100 254.474 C 106.485 254.941,106.800 255.435,106.800 255.572 C 106.800 255.709,107.295 256.395,107.900 257.095 C 108.505 257.795,109.720 259.221,110.600 260.264 C 111.480 261.307,113.042 263.031,114.071 264.095 C 115.118 265.177,116.067 266.593,116.224 267.307 C 116.486 268.504,120.428 272.800,121.263 272.800 C 121.448 272.800,121.600 272.980,121.600 273.200 C 121.600 273.420,121.126 273.600,120.547 273.600 C 119.532 273.600,116.800 271.247,116.800 270.372 C 116.800 270.167,116.558 270.000,116.261 270.000 C 115.965 270.000,115.348 269.685,114.891 269.300 C 114.433 268.915,113.467 268.240,112.744 267.800 C 112.020 267.360,111.044 266.730,110.574 266.400 C 110.104 266.070,109.197 265.448,108.560 265.017 C 107.922 264.587,106.860 263.823,106.200 263.321 C 105.540 262.818,104.640 262.145,104.200 261.824 C 103.760 261.503,102.198 260.242,100.730 259.020 C 99.261 257.799,97.983 256.800,97.890 256.800 C 97.677 256.800,94.490 253.987,91.887 251.500 C 90.616 250.287,89.541 249.600,88.912 249.600 C 87.587 249.600,84.062 245.942,83.682 244.173 C 83.527 243.449,82.732 242.079,81.915 241.129 C 81.099 240.178,79.875 238.680,79.195 237.800 C 76.895 234.824,76.202 233.946,75.600 233.252 C 75.270 232.871,74.283 231.489,73.406 230.180 C 72.529 228.871,71.584 227.656,71.306 227.480 C 71.028 227.304,70.800 226.936,70.800 226.661 C 70.800 226.387,70.529 225.811,70.199 225.381 C 68.879 223.666,67.601 221.757,67.248 220.974 C 66.604 219.543,65.047 217.426,63.312 215.620 C 62.390 214.661,61.521 213.352,61.381 212.711 C 61.240 212.070,60.878 211.451,60.578 211.336 C 60.277 211.221,59.931 210.813,59.810 210.430 C 58.793 207.228,49.600 205.981,49.600 209.046 C 49.600 209.334,49.234 209.910,48.787 210.327 C 46.476 212.479,46.554 215.619,49.024 220.000 C 49.334 220.550,49.594 221.720,49.600 222.600 C 49.606 223.480,49.874 224.650,50.195 225.200 C 50.516 225.750,51.061 226.740,51.407 227.400 C 52.026 228.582,53.593 230.933,54.399 231.889 C 54.626 232.159,54.994 232.789,55.216 233.289 C 55.564 234.073,56.870 236.077,57.896 237.400 C 58.067 237.620,58.553 238.340,58.977 239.000 C 59.400 239.660,59.939 240.414,60.173 240.676 C 60.408 240.938,61.050 241.811,61.600 242.617 C 62.150 243.422,62.905 244.413,63.279 244.819 C 63.652 245.225,64.242 246.107,64.589 246.779 C 64.936 247.450,65.367 248.000,65.546 248.000 C 65.725 248.000,66.078 248.454,66.331 249.009 C 66.623 249.649,67.237 250.107,68.010 250.262 C 68.680 250.396,69.460 250.836,69.743 251.240 C 70.550 252.392,75.467 257.840,79.200 261.719 C 81.070 263.661,82.760 265.774,82.955 266.414 C 83.191 267.190,84.719 268.732,87.555 271.056 C 89.890 272.970,91.993 274.765,92.229 275.047 C 92.806 275.736,96.788 278.400,97.240 278.400 C 97.438 278.400,97.600 278.562,97.600 278.760 C 97.600 278.959,98.260 279.544,99.066 280.060 C 99.873 280.577,101.088 281.354,101.766 281.786 C 102.445 282.218,103.213 282.778,103.474 283.031 C 103.735 283.284,105.023 283.612,106.338 283.761 C 107.653 283.910,108.939 284.285,109.196 284.595 C 109.453 284.905,110.280 285.362,111.032 285.611 C 111.784 285.859,112.400 286.213,112.400 286.398 C 112.400 286.583,113.210 287.043,114.200 287.421 C 115.190 287.799,116.000 288.249,116.000 288.420 C 116.000 288.957,119.321 291.200,120.116 291.200 C 120.533 291.200,121.331 291.560,121.891 292.000 C 122.450 292.440,123.200 292.800,123.557 292.800 C 123.914 292.800,125.015 293.228,126.003 293.752 C 126.991 294.275,128.555 294.829,129.477 294.983 C 130.399 295.137,131.350 295.499,131.590 295.788 C 131.830 296.077,132.800 296.429,133.746 296.571 C 134.692 296.713,136.083 297.160,136.837 297.564 C 137.591 297.968,139.192 298.434,140.394 298.599 C 141.597 298.765,142.949 299.141,143.398 299.436 C 143.848 299.730,145.292 300.091,146.608 300.237 C 147.924 300.382,149.540 300.823,150.200 301.217 C 150.999 301.693,152.670 302.022,155.200 302.203 C 157.290 302.352,159.990 302.767,161.200 303.125 C 163.192 303.715,170.616 303.788,239.700 303.897 L 316.001 304.018 316.777 302.709 C 317.203 301.989,317.754 301.171,318.001 300.890 C 320.235 298.352,320.106 293.118,317.739 290.269 C 317.223 289.647,316.800 288.977,316.800 288.780 C 316.800 287.230,316.017 287.200,274.720 287.191 C 230.160 287.181,219.719 286.894,217.330 285.614 C 216.495 285.166,215.214 284.800,214.484 284.800 C 213.754 284.800,212.311 284.413,211.278 283.939 C 209.905 283.310,208.327 283.025,205.413 282.881 C 202.248 282.725,201.060 282.490,199.653 281.742 C 198.678 281.224,197.660 280.800,197.389 280.800 C 197.119 280.800,196.678 280.535,196.409 280.211 C 196.140 279.886,195.319 279.509,194.586 279.371 C 193.852 279.233,192.952 278.789,192.585 278.383 C 192.217 277.977,191.384 277.528,190.731 277.385 C 190.079 277.242,189.452 276.880,189.338 276.582 C 189.223 276.283,188.537 275.843,187.813 275.604 C 187.089 275.365,186.177 274.817,185.786 274.385 C 185.396 273.953,184.848 273.600,184.569 273.600 C 184.290 273.600,183.867 273.008,183.628 272.284 C 183.376 271.520,182.669 270.659,181.942 270.229 C 180.527 269.394,180.493 269.365,176.442 265.686 C 171.897 261.560,165.899 255.239,165.034 253.665 C 164.833 253.299,164.562 252.910,164.432 252.800 C 164.302 252.690,163.709 251.946,163.113 251.147 C 162.518 250.348,161.610 249.589,161.096 249.460 C 160.581 249.331,159.845 248.634,159.460 247.912 C 159.075 247.191,158.320 245.880,157.783 245.000 C 157.245 244.120,156.517 242.770,156.163 242.000 C 155.810 241.230,155.285 240.330,154.997 240.000 C 154.710 239.670,154.276 238.656,154.034 237.747 C 153.792 236.837,153.326 235.870,152.997 235.598 C 152.669 235.325,152.400 234.802,152.400 234.436 C 152.400 234.069,152.016 233.056,151.546 232.185 C 150.868 230.926,150.634 229.570,150.408 225.599 C 150.225 222.398,149.902 220.166,149.509 219.399 C 149.171 218.739,148.583 216.310,148.201 214.000 C 147.820 211.690,147.359 208.990,147.178 208.000 C 146.750 205.668,146.750 194.332,147.178 192.000 C 147.359 191.010,147.820 188.310,148.201 186.000 C 148.583 183.690,149.171 181.261,149.509 180.601 C 149.902 179.834,150.225 177.602,150.408 174.401 C 150.634 170.430,150.868 169.074,151.546 167.815 C 152.016 166.944,152.400 165.931,152.400 165.564 C 152.400 165.198,152.669 164.675,152.997 164.402 C 153.326 164.130,153.792 163.163,154.034 162.253 C 154.276 161.344,154.710 160.330,154.997 160.000 C 155.285 159.670,155.810 158.770,156.163 158.000 C 156.517 157.230,157.245 155.880,157.783 155.000 C 158.320 154.120,159.075 152.809,159.460 152.088 C 159.845 151.366,160.581 150.669,161.096 150.540 C 161.610 150.411,162.518 149.652,163.113 148.853 C 163.709 148.054,164.302 147.310,164.432 147.200 C 164.562 147.090,164.833 146.701,165.034 146.335 C 165.899 144.761,171.897 138.440,176.442 134.314 C 180.493 130.635,180.527 130.606,181.942 129.771 C 182.669 129.341,183.376 128.480,183.628 127.716 C 183.867 126.992,184.290 126.400,184.569 126.400 C 184.848 126.400,185.396 126.047,185.786 125.615 C 186.177 125.183,187.089 124.635,187.813 124.396 C 188.537 124.157,189.223 123.717,189.338 123.418 C 189.452 123.120,190.079 122.758,190.731 122.615 C 191.384 122.472,192.217 122.023,192.585 121.617 C 192.952 121.211,193.852 120.767,194.586 120.629 C 195.319 120.491,196.140 120.114,196.409 119.789 C 196.678 119.465,197.119 119.200,197.389 119.200 C 197.660 119.200,198.678 118.776,199.653 118.258 C 201.060 117.510,202.248 117.275,205.413 117.119 C 208.327 116.975,209.905 116.690,211.278 116.061 C 212.311 115.587,213.754 115.200,214.484 115.200 C 215.214 115.200,216.495 114.834,217.330 114.386 C 219.719 113.106,230.160 112.819,274.720 112.809 C 316.017 112.800,316.800 112.770,316.800 111.220 C 316.800 111.023,317.220 110.353,317.733 109.731 C 320.443 106.447,320.312 102.663,317.330 98.100 L 315.957 96.000 269.479 96.054 C 243.915 96.084,222.550 96.183,222.000 96.274 M314.724 97.233 C 315.417 97.475,316.084 98.051,316.230 98.533 C 316.374 99.010,316.847 99.788,317.281 100.263 C 319.435 102.619,317.913 110.064,315.114 110.860 C 314.611 111.003,295.030 111.142,271.600 111.170 C 246.119 111.199,228.357 111.373,227.400 111.601 C 226.520 111.811,223.822 112.174,221.405 112.408 C 218.769 112.663,216.631 113.081,216.064 113.452 C 215.544 113.793,213.928 114.240,212.473 114.447 C 211.018 114.653,209.385 115.111,208.845 115.465 C 208.188 115.895,206.660 116.163,204.231 116.273 C 201.775 116.384,200.082 116.683,199.000 117.197 C 193.961 119.593,191.222 120.968,189.800 121.815 C 188.920 122.339,187.660 123.073,187.000 123.446 C 185.175 124.476,182.800 126.478,182.800 126.986 C 182.800 127.234,182.252 127.879,181.582 128.419 C 178.815 130.647,178.111 131.236,176.251 132.879 C 171.350 137.208,165.870 143.032,163.000 146.961 C 162.120 148.166,160.905 149.365,160.300 149.625 C 159.695 149.885,159.200 150.241,159.200 150.418 C 159.200 150.594,158.762 151.260,158.226 151.896 C 157.690 152.533,157.134 153.524,156.990 154.098 C 156.846 154.672,156.492 155.233,156.204 155.343 C 155.916 155.454,155.457 156.232,155.184 157.072 C 154.910 157.912,154.450 158.740,154.160 158.911 C 153.869 159.082,153.516 159.840,153.374 160.597 C 153.232 161.353,152.866 162.179,152.561 162.432 C 152.256 162.686,151.808 163.637,151.566 164.547 C 151.324 165.456,150.829 166.532,150.467 166.937 C 149.968 167.496,149.755 168.806,149.587 172.337 C 149.431 175.617,149.162 177.380,148.682 178.280 C 148.307 178.984,148.000 180.025,148.000 180.593 C 148.000 181.161,147.595 182.745,147.100 184.113 C 146.234 186.506,146.200 187.107,146.200 200.000 C 146.200 212.893,146.234 213.494,147.100 215.887 C 147.595 217.255,148.000 218.839,148.000 219.407 C 148.000 219.975,148.307 221.016,148.682 221.720 C 149.162 222.620,149.431 224.383,149.587 227.663 C 149.755 231.194,149.968 232.504,150.467 233.063 C 150.829 233.468,151.324 234.544,151.566 235.453 C 151.808 236.363,152.256 237.314,152.561 237.568 C 152.866 237.821,153.232 238.647,153.374 239.403 C 153.516 240.160,153.869 240.918,154.160 241.089 C 154.450 241.260,154.910 242.088,155.184 242.928 C 155.457 243.768,155.916 244.546,156.204 244.657 C 156.492 244.767,156.846 245.328,156.990 245.902 C 157.134 246.476,157.690 247.467,158.226 248.104 C 158.762 248.740,159.200 249.406,159.200 249.582 C 159.200 249.759,159.695 250.115,160.300 250.375 C 160.905 250.635,162.120 251.834,163.000 253.039 C 165.870 256.968,171.350 262.792,176.251 267.121 C 178.111 268.764,178.815 269.353,181.582 271.581 C 182.252 272.121,182.800 272.766,182.800 273.014 C 182.800 273.522,185.175 275.524,187.000 276.554 C 187.660 276.927,188.920 277.661,189.800 278.185 C 191.222 279.032,193.961 280.407,199.000 282.803 C 200.082 283.317,201.775 283.616,204.231 283.727 C 206.660 283.837,208.188 284.105,208.845 284.535 C 209.385 284.889,211.018 285.347,212.473 285.553 C 213.928 285.760,215.544 286.207,216.064 286.548 C 216.631 286.919,218.769 287.337,221.405 287.592 C 223.822 287.826,226.520 288.189,227.400 288.399 C 228.357 288.627,246.119 288.801,271.600 288.830 C 295.030 288.858,314.611 288.997,315.114 289.140 C 317.913 289.936,319.435 297.381,317.281 299.737 C 316.847 300.212,316.374 300.990,316.230 301.467 C 316.084 301.949,315.417 302.525,314.724 302.767 C 313.257 303.278,177.802 303.332,172.600 302.823 C 170.840 302.651,167.150 302.295,164.400 302.031 C 155.030 301.132,152.110 300.616,146.800 298.917 C 145.810 298.600,143.830 298.107,142.400 297.822 C 140.970 297.536,139.170 297.029,138.400 296.696 C 137.630 296.362,136.245 295.965,135.323 295.813 C 134.401 295.662,133.445 295.296,133.200 295.000 C 132.955 294.704,131.999 294.339,131.077 294.189 C 130.155 294.039,128.839 293.574,128.153 293.158 C 127.467 292.741,126.639 292.400,126.312 292.400 C 125.986 292.400,124.912 291.971,123.925 291.446 C 122.939 290.922,121.574 290.370,120.893 290.221 C 120.212 290.071,119.441 289.690,119.179 289.374 C 118.917 289.058,118.458 288.800,118.160 288.800 C 117.862 288.800,117.335 288.367,116.988 287.838 C 116.642 287.309,115.930 286.769,115.407 286.637 C 114.884 286.506,114.209 286.174,113.907 285.899 C 112.402 284.528,108.370 282.800,106.677 282.800 C 105.532 282.800,104.708 282.571,104.365 282.158 C 104.073 281.805,103.465 281.351,103.016 281.148 C 102.185 280.773,100.105 279.361,98.524 278.099 C 98.043 277.715,96.995 276.950,96.197 276.400 C 90.974 272.801,84.092 266.601,83.691 265.134 C 83.531 264.548,81.330 261.930,78.800 259.316 C 76.270 256.702,73.223 253.458,72.029 252.107 C 70.835 250.756,69.474 249.555,69.003 249.437 C 68.533 249.319,67.440 248.303,66.574 247.180 C 65.708 246.057,64.730 244.836,64.400 244.466 C 64.070 244.096,63.136 242.792,62.325 241.567 C 61.513 240.341,60.568 239.106,60.225 238.821 C 59.881 238.535,59.600 238.082,59.600 237.813 C 59.600 237.544,59.240 236.998,58.800 236.600 C 58.360 236.202,58.000 235.648,58.000 235.369 C 58.000 235.090,57.550 234.327,57.000 233.673 C 56.450 233.019,56.000 232.356,56.000 232.200 C 56.000 232.044,55.550 231.381,55.000 230.727 C 54.450 230.073,54.000 229.310,54.000 229.031 C 54.000 228.752,53.640 228.198,53.200 227.800 C 52.760 227.402,52.400 226.869,52.400 226.616 C 52.400 226.363,51.950 225.545,51.400 224.800 C 50.637 223.766,50.400 222.954,50.400 221.376 C 50.400 219.837,50.170 219.015,49.500 218.162 C 48.377 216.734,48.203 212.363,49.235 211.512 C 49.577 211.230,50.157 210.513,50.525 209.919 C 51.487 208.364,53.493 208.074,55.795 209.156 C 56.783 209.620,57.732 210.000,57.905 210.000 C 58.077 210.000,58.557 210.630,58.972 211.400 C 59.387 212.170,59.864 212.800,60.032 212.800 C 60.200 212.800,60.547 213.434,60.803 214.208 C 61.063 214.997,61.956 216.170,62.834 216.875 C 63.695 217.567,64.400 218.319,64.400 218.545 C 64.400 218.772,64.823 219.597,65.339 220.378 C 66.741 222.500,69.318 226.376,70.000 227.389 C 71.859 230.151,72.246 230.706,73.079 231.800 C 73.582 232.460,74.262 233.360,74.590 233.800 C 77.532 237.740,79.146 239.731,81.100 241.831 C 82.048 242.849,82.800 244.053,82.800 244.551 C 82.800 246.304,86.096 249.870,88.273 250.471 C 88.996 250.671,90.369 251.591,91.324 252.517 C 94.628 255.720,97.450 258.171,100.400 260.400 C 101.128 260.950,102.371 261.898,103.162 262.506 C 103.953 263.115,104.960 263.886,105.400 264.220 C 105.840 264.554,106.900 265.361,107.755 266.014 C 108.610 266.666,109.549 267.200,109.841 267.200 C 110.133 267.200,110.565 267.560,110.800 268.000 C 111.035 268.440,111.466 268.800,111.756 268.800 C 112.046 268.800,112.769 269.250,113.362 269.800 C 113.956 270.350,114.697 270.800,115.010 270.800 C 115.323 270.800,115.847 271.318,116.175 271.952 C 116.502 272.585,117.002 273.218,117.285 273.360 C 117.568 273.501,118.520 274.054,119.400 274.589 C 120.280 275.124,121.450 275.788,122.000 276.065 C 122.550 276.342,123.429 276.890,123.954 277.284 C 124.479 277.678,125.219 278.000,125.600 278.000 C 125.981 278.000,126.750 278.360,127.309 278.800 C 128.438 279.688,129.801 279.846,130.238 279.139 C 130.395 278.884,130.183 278.450,129.761 278.166 C 129.342 277.884,128.550 277.276,128.000 276.816 C 127.450 276.356,126.190 275.348,125.200 274.577 C 119.764 270.343,117.200 267.886,117.200 266.908 C 117.200 266.068,115.989 264.384,113.487 261.744 C 112.660 260.871,111.283 259.224,110.427 258.085 C 109.571 256.945,108.629 255.751,108.335 255.430 C 108.041 255.110,107.350 254.181,106.800 253.366 C 106.250 252.551,105.260 251.371,104.600 250.745 C 101.522 247.825,101.071 247.324,100.334 246.007 C 99.405 244.346,98.213 242.350,96.714 239.943 C 96.117 238.985,95.268 237.435,94.828 236.500 C 94.388 235.565,93.856 234.800,93.646 234.800 C 93.436 234.800,93.145 234.262,93.001 233.605 C 92.857 232.947,92.557 232.297,92.336 232.161 C 92.115 232.024,91.579 231.167,91.146 230.256 C 90.713 229.345,89.840 227.700,89.206 226.600 C 88.573 225.500,87.752 223.925,87.384 223.100 C 87.015 222.275,86.581 221.600,86.421 221.600 C 86.260 221.600,85.888 220.871,85.594 219.980 C 85.300 219.090,84.784 218.207,84.447 218.018 C 83.991 217.763,83.835 216.980,83.835 214.938 C 83.836 211.728,84.831 210.332,88.000 209.100 C 92.130 207.495,94.992 209.098,97.875 214.631 C 98.356 215.554,99.288 216.693,99.946 217.161 C 100.604 217.630,101.349 218.640,101.602 219.407 C 101.855 220.173,102.201 220.800,102.370 220.800 C 102.540 220.800,102.981 221.475,103.352 222.300 C 103.722 223.125,104.514 224.638,105.112 225.662 C 105.711 226.686,106.538 228.117,106.952 228.842 C 107.365 229.567,107.950 230.408,108.252 230.709 C 108.553 231.010,108.800 231.505,108.800 231.808 C 108.800 232.111,109.250 232.844,109.800 233.438 C 110.350 234.031,110.800 234.697,110.800 234.917 C 110.800 235.137,111.475 236.300,112.300 237.500 C 113.125 238.701,113.996 240.023,114.236 240.439 C 114.475 240.854,114.985 241.542,115.369 241.966 C 115.754 242.391,116.171 243.504,116.296 244.441 C 116.585 246.592,118.538 249.522,120.159 250.237 C 120.841 250.538,122.300 251.812,123.400 253.069 C 125.283 255.219,132.853 262.851,134.600 264.361 C 137.184 266.594,139.999 268.761,141.772 269.883 C 142.888 270.588,144.062 271.398,144.382 271.683 C 144.702 271.967,145.464 272.415,146.075 272.678 C 147.221 273.170,147.806 273.587,149.409 275.052 C 150.407 275.965,155.153 278.400,155.933 278.400 C 156.191 278.400,157.075 278.760,157.896 279.200 C 158.716 279.640,159.806 280.000,160.316 280.000 C 160.826 280.000,162.030 280.358,162.990 280.796 C 168.202 283.170,170.687 281.522,166.933 278.181 C 162.104 273.883,155.772 267.241,153.223 263.800 C 152.571 262.920,151.669 261.766,151.219 261.237 C 150.729 260.661,150.397 259.695,150.393 258.837 C 150.386 257.580,149.212 255.237,147.650 253.362 C 147.449 253.122,146.982 252.339,146.612 251.624 C 146.242 250.908,145.336 249.792,144.598 249.144 C 143.860 248.497,143.141 247.442,143.000 246.802 C 142.860 246.162,142.425 245.224,142.033 244.719 C 141.642 244.213,141.191 243.260,141.030 242.600 C 140.869 241.940,140.498 241.130,140.206 240.800 C 139.914 240.470,139.463 239.406,139.205 238.436 C 138.946 237.466,138.493 236.296,138.197 235.836 C 137.901 235.376,137.536 234.280,137.385 233.400 C 137.234 232.520,136.849 231.383,136.529 230.874 C 136.209 230.364,135.769 228.834,135.551 227.474 C 135.333 226.113,134.897 224.605,134.582 224.121 C 134.267 223.638,133.847 221.790,133.648 220.015 C 133.450 218.240,133.065 216.520,132.794 216.193 C 131.325 214.423,131.282 187.167,132.743 183.887 C 133.156 182.959,133.601 180.990,133.731 179.510 C 133.861 178.031,134.231 176.411,134.553 175.910 C 134.874 175.410,135.264 174.100,135.418 173.000 C 135.572 171.900,136.016 170.280,136.404 169.400 C 136.792 168.520,137.237 167.170,137.394 166.400 C 137.550 165.630,137.916 164.624,138.207 164.164 C 138.497 163.704,138.946 162.534,139.205 161.564 C 139.463 160.594,139.911 159.530,140.200 159.200 C 140.489 158.870,140.924 157.856,141.166 156.947 C 141.408 156.037,141.863 155.080,142.177 154.819 C 142.491 154.558,142.863 153.825,143.002 153.189 C 143.142 152.554,143.884 151.482,144.652 150.808 C 145.420 150.134,146.313 149.001,146.636 148.291 C 146.959 147.581,147.938 146.010,148.811 144.800 C 149.974 143.189,150.399 142.206,150.399 141.129 C 150.400 140.319,150.625 139.419,150.900 139.127 C 151.175 138.836,152.079 137.698,152.909 136.599 C 155.820 132.741,160.547 127.734,167.000 121.674 C 169.346 119.471,172.818 117.200,173.841 117.200 C 174.455 117.200,175.642 116.750,176.478 116.200 C 177.974 115.217,179.909 113.997,182.118 112.643 C 182.733 112.266,183.427 111.540,183.659 111.030 C 183.914 110.470,184.681 109.922,185.593 109.649 C 186.425 109.400,187.328 108.927,187.602 108.598 C 187.875 108.269,188.298 108.000,188.543 108.000 C 188.788 108.000,189.981 107.531,191.194 106.958 C 192.407 106.386,194.318 105.486,195.440 104.958 C 196.562 104.431,197.784 104.000,198.156 104.000 C 198.528 104.000,199.500 103.662,200.316 103.249 C 201.132 102.836,202.778 102.291,203.973 102.038 C 205.168 101.785,206.372 101.389,206.649 101.159 C 206.926 100.929,208.461 100.560,210.059 100.338 C 211.657 100.117,213.451 99.684,214.047 99.376 C 214.643 99.068,216.811 98.627,218.865 98.397 C 220.919 98.167,223.680 97.805,225.000 97.593 C 229.049 96.942,229.409 96.936,272.040 96.867 C 300.931 96.820,313.857 96.931,314.724 97.233 M228.200 133.198 C 226.000 133.348,223.127 133.769,221.816 134.135 C 220.505 134.501,218.954 134.800,218.370 134.800 C 217.786 134.800,216.869 135.145,216.333 135.567 C 215.796 135.989,214.647 136.461,213.779 136.616 C 212.910 136.771,211.660 137.216,211.000 137.606 C 210.340 137.995,209.227 138.435,208.528 138.583 C 207.828 138.730,207.041 139.110,206.779 139.426 C 206.517 139.742,206.081 140.000,205.811 140.000 C 205.180 140.000,199.997 142.745,199.286 143.457 C 198.987 143.756,198.501 144.000,198.205 144.000 C 197.910 144.000,197.248 144.358,196.734 144.796 C 196.220 145.235,195.080 146.130,194.200 146.787 C 193.320 147.444,192.324 148.246,191.987 148.569 C 191.650 148.892,190.577 149.336,189.604 149.555 C 187.261 150.081,183.308 154.186,182.942 156.472 C 182.811 157.292,182.365 158.269,181.952 158.644 C 181.538 159.018,181.200 159.572,181.200 159.875 C 181.200 160.177,180.922 160.532,180.583 160.662 C 180.244 160.792,179.607 161.551,179.168 162.349 C 178.729 163.147,177.935 164.520,177.402 165.400 C 176.870 166.280,176.081 167.745,175.650 168.656 C 175.219 169.567,174.685 170.424,174.464 170.561 C 174.243 170.697,173.934 171.392,173.779 172.105 C 173.623 172.817,173.180 173.803,172.794 174.295 C 172.408 174.788,171.973 175.988,171.827 176.963 C 171.680 177.937,171.304 178.947,170.991 179.207 C 170.678 179.468,170.305 180.337,170.162 181.140 C 170.019 181.943,169.580 183.140,169.185 183.800 C 166.973 187.499,166.973 212.501,169.185 216.200 C 169.580 216.860,170.019 218.057,170.162 218.860 C 170.305 219.663,170.678 220.532,170.991 220.793 C 171.304 221.053,171.680 222.063,171.827 223.037 C 171.973 224.012,172.408 225.212,172.794 225.705 C 173.180 226.197,173.623 227.183,173.779 227.895 C 173.934 228.608,174.243 229.303,174.464 229.439 C 174.685 229.576,175.219 230.433,175.650 231.344 C 176.081 232.255,176.870 233.720,177.402 234.600 C 177.935 235.480,178.729 236.853,179.168 237.651 C 179.607 238.449,180.244 239.208,180.583 239.338 C 180.922 239.468,181.200 239.823,181.200 240.125 C 181.200 240.428,181.538 240.982,181.952 241.356 C 182.365 241.731,182.811 242.708,182.942 243.528 C 183.308 245.814,187.261 249.919,189.604 250.445 C 190.577 250.664,191.650 251.108,191.987 251.431 C 192.324 251.754,193.320 252.556,194.200 253.213 C 195.080 253.870,196.220 254.765,196.734 255.204 C 197.248 255.642,197.910 256.000,198.205 256.000 C 198.501 256.000,198.987 256.244,199.286 256.543 C 199.997 257.255,205.180 260.000,205.811 260.000 C 206.081 260.000,206.517 260.258,206.779 260.574 C 207.041 260.890,207.828 261.270,208.528 261.417 C 209.227 261.565,210.340 262.005,211.000 262.394 C 211.660 262.784,212.910 263.229,213.779 263.384 C 214.647 263.539,215.796 264.011,216.333 264.433 C 216.869 264.855,217.790 265.200,218.379 265.200 C 218.968 265.200,220.878 265.602,222.625 266.094 L 225.800 266.988 270.735 266.994 L 315.670 267.000 316.418 266.000 C 316.829 265.450,317.505 264.550,317.921 264.000 C 320.312 260.832,320.231 256.096,317.733 253.069 C 317.220 252.447,316.800 251.801,316.800 251.632 C 316.800 250.032,316.441 250.020,265.877 249.907 L 217.554 249.800 216.877 248.924 C 216.505 248.443,215.660 247.920,215.000 247.763 C 214.340 247.606,213.387 247.158,212.881 246.767 C 212.376 246.375,211.431 245.939,210.781 245.796 C 210.132 245.653,209.600 245.362,209.600 245.148 C 209.600 244.934,208.925 244.479,208.100 244.137 C 207.275 243.794,206.456 243.263,206.280 242.957 C 206.104 242.651,205.769 242.400,205.535 242.400 C 204.413 242.400,192.800 231.261,192.800 230.185 C 192.800 229.849,192.523 229.469,192.185 229.339 C 191.847 229.209,191.301 228.540,190.971 227.851 C 190.641 227.163,189.929 225.880,189.389 225.000 C 188.848 224.120,188.119 222.770,187.769 222.000 C 185.914 217.920,184.969 216.154,184.415 215.732 C 183.486 215.026,183.486 184.974,184.415 184.268 C 184.969 183.846,185.914 182.080,187.769 178.000 C 188.119 177.230,188.848 175.880,189.389 175.000 C 189.929 174.120,190.641 172.837,190.971 172.149 C 191.301 171.460,191.847 170.791,192.185 170.661 C 192.523 170.531,192.800 170.151,192.800 169.815 C 192.800 168.739,204.413 157.600,205.535 157.600 C 205.769 157.600,206.104 157.349,206.280 157.043 C 206.456 156.737,207.275 156.206,208.100 155.863 C 208.925 155.521,209.600 155.066,209.600 154.852 C 209.600 154.638,210.132 154.347,210.781 154.204 C 211.431 154.061,212.376 153.625,212.881 153.233 C 213.387 152.842,214.340 152.394,215.000 152.237 C 215.660 152.080,216.505 151.557,216.877 151.076 L 217.554 150.200 265.877 150.093 C 316.441 149.980,316.800 149.968,316.800 148.368 C 316.800 148.199,317.223 147.553,317.739 146.931 C 320.234 143.928,320.310 139.198,317.915 136.000 C 317.503 135.450,316.829 134.550,316.418 134.000 L 315.671 133.000 273.935 132.963 C 250.981 132.942,230.400 133.048,228.200 133.198 M314.973 134.461 C 315.530 134.714,316.092 135.260,316.224 135.674 C 316.355 136.088,316.808 136.749,317.230 137.142 C 318.640 138.456,318.630 145.600,317.218 145.600 C 317.041 145.600,316.682 146.119,316.420 146.752 C 315.723 148.435,316.902 148.391,272.200 148.396 C 237.609 148.399,230.923 148.491,228.265 149.000 C 226.540 149.330,223.280 149.600,221.019 149.600 C 217.557 149.600,216.752 149.722,215.922 150.375 C 215.380 150.802,214.411 151.278,213.768 151.434 C 213.126 151.589,212.150 152.014,211.600 152.378 C 211.050 152.741,210.150 153.264,209.600 153.539 C 208.636 154.020,207.450 154.735,204.284 156.740 C 203.468 157.256,202.800 157.829,202.800 158.013 C 202.800 158.196,202.443 158.459,202.006 158.598 C 200.905 158.948,192.523 167.380,192.172 168.493 C 192.014 168.992,191.551 169.635,191.143 169.923 C 190.734 170.210,190.400 170.677,190.400 170.961 C 190.400 171.244,190.047 171.796,189.615 172.186 C 189.183 172.577,188.629 173.505,188.384 174.248 C 188.139 174.992,187.786 175.600,187.600 175.600 C 187.414 175.600,187.042 176.275,186.773 177.100 C 186.504 177.925,185.950 179.029,185.542 179.554 C 185.134 180.079,184.800 180.877,184.800 181.328 C 184.800 181.779,184.395 182.580,183.900 183.106 L 183.000 184.064 183.000 200.000 L 183.000 215.936 183.900 216.894 C 184.395 217.420,184.800 218.221,184.800 218.672 C 184.800 219.123,185.134 219.921,185.542 220.446 C 185.950 220.971,186.504 222.075,186.773 222.900 C 187.042 223.725,187.414 224.400,187.600 224.400 C 187.786 224.400,188.139 225.008,188.384 225.752 C 188.629 226.495,189.183 227.423,189.615 227.814 C 190.047 228.204,190.400 228.756,190.400 229.039 C 190.400 229.323,190.734 229.790,191.143 230.077 C 191.551 230.365,192.014 231.008,192.172 231.507 C 192.523 232.620,200.905 241.052,202.006 241.402 C 202.443 241.541,202.800 241.804,202.800 241.987 C 202.800 242.171,203.468 242.744,204.284 243.260 C 207.450 245.265,208.636 245.980,209.600 246.461 C 210.150 246.736,211.050 247.259,211.600 247.622 C 212.150 247.986,213.126 248.411,213.768 248.566 C 214.411 248.722,215.380 249.198,215.922 249.625 C 216.752 250.278,217.557 250.400,221.019 250.400 C 223.280 250.400,226.540 250.670,228.265 251.000 C 230.923 251.509,237.609 251.601,272.200 251.604 C 316.902 251.609,315.723 251.565,316.420 253.248 C 316.682 253.881,317.041 254.400,317.218 254.400 C 318.630 254.400,318.640 261.544,317.230 262.858 C 316.808 263.251,316.355 263.912,316.224 264.326 C 316.092 264.740,315.530 265.286,314.973 265.539 C 313.623 266.155,232.942 266.193,229.400 265.580 C 228.080 265.351,224.961 264.917,222.468 264.615 C 219.755 264.286,217.668 263.830,217.268 263.478 C 216.901 263.154,215.970 262.760,215.200 262.601 C 214.430 262.443,213.260 261.995,212.600 261.606 C 211.940 261.216,210.743 260.781,209.940 260.638 C 209.137 260.495,208.260 260.114,207.991 259.789 C 207.722 259.465,207.313 259.200,207.081 259.200 C 206.397 259.200,200.873 256.370,200.367 255.760 C 200.111 255.452,199.682 255.200,199.413 255.200 C 199.144 255.200,198.401 254.750,197.762 254.200 C 197.123 253.651,196.439 253.201,196.243 253.200 C 196.047 253.200,194.938 252.390,193.779 251.400 C 192.367 250.194,191.302 249.600,190.549 249.600 C 188.770 249.600,183.600 244.105,183.600 242.215 C 183.600 241.238,183.364 240.702,182.800 240.400 C 182.360 240.165,182.000 239.730,182.000 239.435 C 182.000 239.140,181.717 238.663,181.371 238.376 C 181.025 238.089,180.350 237.151,179.871 236.292 C 179.392 235.434,178.702 234.194,178.337 233.538 C 177.972 232.882,177.412 232.042,177.091 231.672 C 176.770 231.303,176.398 230.538,176.265 229.974 C 176.131 229.409,175.657 228.527,175.211 228.013 C 174.765 227.498,174.400 226.679,174.400 226.193 C 174.400 225.706,174.066 224.879,173.658 224.354 C 173.250 223.829,172.788 222.705,172.632 221.857 C 172.475 221.008,172.012 219.568,171.603 218.657 C 167.718 210.018,167.718 189.982,171.603 181.343 C 172.012 180.432,172.475 178.992,172.632 178.143 C 172.788 177.295,173.250 176.171,173.658 175.646 C 174.066 175.121,174.400 174.294,174.400 173.807 C 174.400 173.321,174.765 172.502,175.211 171.987 C 175.657 171.473,176.131 170.591,176.265 170.026 C 176.398 169.462,176.770 168.697,177.091 168.328 C 177.412 167.958,177.972 167.118,178.337 166.462 C 178.702 165.806,179.392 164.566,179.871 163.708 C 180.350 162.849,181.025 161.911,181.371 161.624 C 181.717 161.337,182.000 160.860,182.000 160.565 C 182.000 160.270,182.360 159.835,182.800 159.600 C 183.364 159.298,183.600 158.762,183.600 157.785 C 183.600 155.895,188.770 150.400,190.549 150.400 C 191.302 150.400,192.367 149.806,193.779 148.600 C 194.938 147.610,196.047 146.800,196.243 146.800 C 196.439 146.799,197.123 146.349,197.762 145.800 C 198.401 145.250,199.144 144.800,199.413 144.800 C 199.682 144.800,200.111 144.548,200.367 144.240 C 200.873 143.630,206.397 140.800,207.081 140.800 C 207.313 140.800,207.722 140.535,207.991 140.211 C 208.260 139.886,209.137 139.505,209.940 139.362 C 210.743 139.219,211.940 138.788,212.600 138.404 C 213.260 138.019,214.418 137.589,215.174 137.448 C 215.929 137.306,216.860 136.908,217.241 136.563 C 217.687 136.159,219.629 135.724,222.668 135.346 C 225.270 135.022,228.210 134.609,229.200 134.428 C 232.180 133.885,313.778 133.916,314.973 134.461 M228.231 170.448 C 227.369 170.651,226.469 170.969,226.231 171.156 C 225.994 171.343,225.140 171.615,224.333 171.760 C 221.765 172.222,216.400 175.250,216.400 176.236 C 216.400 176.536,215.743 177.370,214.940 178.090 C 214.137 178.811,213.282 179.630,213.040 179.911 C 212.798 180.192,211.998 181.002,211.263 181.711 C 208.246 184.620,207.584 185.438,207.158 186.786 C 206.912 187.564,206.451 188.614,206.133 189.121 C 203.913 192.655,203.913 207.345,206.133 210.879 C 206.451 211.386,206.912 212.436,207.158 213.214 C 207.584 214.562,208.246 215.380,211.263 218.289 C 211.998 218.998,212.798 219.808,213.040 220.089 C 213.282 220.370,214.137 221.189,214.940 221.910 C 215.743 222.630,216.400 223.464,216.400 223.764 C 216.400 224.701,221.589 227.692,224.088 228.195 C 224.810 228.341,226.030 228.761,226.800 229.130 C 228.486 229.937,312.124 230.414,314.800 229.632 C 316.844 229.035,318.800 224.902,318.800 221.180 C 318.800 218.098,318.332 217.278,315.752 215.835 L 313.899 214.800 273.450 214.766 C 233.715 214.733,228.626 214.613,228.056 213.691 C 227.900 213.438,227.095 212.948,226.269 212.603 C 225.442 212.257,224.666 211.717,224.546 211.403 C 224.425 211.088,223.983 210.721,223.563 210.588 C 223.143 210.455,222.800 210.145,222.800 209.899 C 222.800 209.653,222.459 209.080,222.042 208.626 C 220.633 207.091,219.200 202.743,219.200 200.000 C 219.200 197.257,220.633 192.909,222.042 191.374 C 222.459 190.920,222.800 190.347,222.800 190.101 C 222.800 189.855,223.143 189.545,223.563 189.412 C 223.983 189.279,224.425 188.912,224.546 188.597 C 224.666 188.283,225.442 187.743,226.269 187.397 C 227.095 187.052,227.900 186.562,228.056 186.309 C 228.626 185.387,233.715 185.267,273.450 185.234 L 313.899 185.200 315.752 184.165 C 318.332 182.722,318.800 181.902,318.800 178.820 C 318.800 175.395,316.854 171.036,315.042 170.405 C 313.548 169.884,230.461 169.925,228.231 170.448 M314.774 171.900 C 315.576 172.353,316.154 173.093,316.413 174.000 C 316.633 174.770,317.080 175.749,317.406 176.176 C 318.606 177.746,317.458 182.143,315.600 183.093 C 315.270 183.262,296.370 183.500,273.600 183.623 C 225.309 183.884,227.935 183.635,223.000 188.421 C 220.766 190.588,220.408 191.058,219.947 192.430 C 219.694 193.184,219.197 194.134,218.843 194.542 C 217.906 195.623,217.906 204.377,218.843 205.458 C 219.197 205.866,219.694 206.816,219.947 207.570 C 220.408 208.942,220.766 209.412,223.000 211.579 C 227.935 216.365,225.309 216.116,273.600 216.377 C 296.370 216.500,315.270 216.738,315.600 216.907 C 317.458 217.857,318.606 222.254,317.406 223.824 C 317.080 224.251,316.635 225.231,316.417 226.003 C 315.570 229.008,318.478 228.833,271.800 228.676 C 226.162 228.523,226.512 228.541,221.815 226.043 C 220.944 225.579,220.039 225.200,219.805 225.200 C 219.230 225.200,217.228 223.232,216.000 221.460 C 215.450 220.666,214.685 219.911,214.300 219.781 C 213.915 219.652,213.600 219.322,213.600 219.048 C 213.600 218.371,211.609 216.553,210.500 216.218 C 209.998 216.066,209.600 215.626,209.600 215.222 C 209.600 214.824,209.331 214.274,209.001 214.001 C 208.672 213.728,208.149 212.671,207.838 211.652 C 207.528 210.633,206.958 209.080,206.571 208.200 C 205.544 205.859,205.544 194.141,206.571 191.800 C 206.958 190.920,207.528 189.367,207.838 188.348 C 208.149 187.329,208.672 186.272,209.001 185.999 C 209.331 185.726,209.600 185.176,209.600 184.778 C 209.600 184.374,209.998 183.934,210.500 183.782 C 211.609 183.447,213.600 181.629,213.600 180.952 C 213.600 180.678,213.915 180.348,214.300 180.219 C 214.685 180.089,215.450 179.334,216.000 178.540 C 217.249 176.737,219.233 174.800,219.830 174.800 C 220.078 174.800,221.087 174.371,222.072 173.848 C 223.057 173.324,225.199 172.671,226.831 172.396 C 228.464 172.122,230.160 171.752,230.600 171.574 C 232.445 170.829,313.433 171.142,314.774 171.900 " stroke="none" fill="#d0a4a4" fill-rule="evenodd"></path></g></svg>