<svg id="svg" version="1.1" xmlns="http://www.w3.org/2000/svg" xmlns:xlink="http://www.w3.org/1999/xlink" width="48" height="48" viewBox="0 0 400 400"><g id="svgg"><path id="path0" d="M213.029 69.029 C 212.174 69.884,212.058 132.018,212.910 132.725 C 213.190 132.958,214.405 133.274,215.610 133.428 C 216.814 133.582,218.089 133.855,218.442 134.037 C 218.795 134.218,220.290 134.559,221.765 134.794 C 223.239 135.030,225.107 135.577,225.917 136.011 C 226.726 136.445,227.682 136.800,228.040 136.800 C 228.399 136.800,229.121 137.127,229.646 137.527 C 230.171 137.927,231.185 138.489,231.900 138.776 C 232.615 139.062,233.200 139.443,233.200 139.622 C 233.200 139.800,233.605 140.072,234.100 140.227 C 235.066 140.528,237.983 142.493,239.403 143.800 C 242.670 146.805,246.400 150.529,246.400 150.785 C 246.400 151.101,248.347 153.746,249.357 154.801 C 250.370 155.860,255.552 166.335,255.834 167.895 C 255.984 168.723,256.352 169.884,256.651 170.474 C 256.950 171.065,257.485 173.495,257.842 175.874 C 258.198 178.254,258.636 181.100,258.815 182.200 C 259.478 186.262,258.767 193.560,257.217 198.600 C 256.287 201.624,255.191 204.347,254.237 206.000 C 253.666 206.990,252.884 208.430,252.500 209.201 C 251.199 211.806,247.219 216.922,244.447 219.552 C 241.758 222.104,237.020 225.925,235.936 226.417 C 235.421 226.650,234.280 227.279,233.400 227.813 C 230.698 229.455,226.044 231.556,224.483 231.839 C 223.667 231.986,222.489 232.366,221.865 232.682 C 221.241 232.998,219.111 233.361,217.133 233.490 C 214.831 233.639,213.330 233.927,212.967 234.290 C 212.096 235.161,212.120 291.270,212.992 291.993 C 213.880 292.730,231.555 292.315,234.000 291.500 C 234.990 291.170,236.970 290.766,238.400 290.602 C 239.830 290.438,241.810 289.991,242.800 289.609 C 243.790 289.226,245.387 288.792,246.350 288.644 C 247.312 288.496,248.877 288.020,249.828 287.587 C 250.778 287.154,251.791 286.794,252.078 286.787 C 252.365 286.781,253.500 286.332,254.600 285.791 C 255.700 285.250,256.808 284.806,257.063 284.804 C 257.496 284.800,261.062 283.165,262.400 282.357 C 262.730 282.157,263.450 281.776,264.000 281.510 C 265.426 280.820,269.612 278.473,270.840 277.675 C 271.413 277.304,272.403 276.656,273.040 276.236 C 273.678 275.816,274.920 275.009,275.800 274.442 C 277.298 273.479,280.342 271.200,282.924 269.110 C 283.820 268.385,290.072 262.596,292.154 260.565 C 292.399 260.325,293.770 258.814,295.200 257.206 C 296.630 255.598,298.250 253.784,298.800 253.175 C 299.350 252.565,300.250 251.417,300.800 250.623 C 301.350 249.830,302.520 248.215,303.400 247.034 C 304.909 245.010,305.618 243.919,307.313 241.020 C 307.706 240.349,308.463 239.080,308.996 238.200 C 309.530 237.320,310.331 235.880,310.778 235.000 C 311.225 234.120,311.760 233.130,311.968 232.800 C 312.176 232.470,312.906 230.940,313.591 229.400 C 314.275 227.860,315.188 225.934,315.618 225.121 C 316.048 224.307,316.400 223.315,316.400 222.915 C 316.400 222.515,316.731 221.561,317.136 220.794 C 317.541 220.027,318.088 218.528,318.351 217.463 C 318.615 216.397,319.074 215.137,319.373 214.663 C 319.671 214.188,320.033 212.798,320.177 211.573 C 320.321 210.348,320.693 208.857,321.002 208.261 C 321.312 207.664,321.767 205.696,322.015 203.888 C 322.262 202.080,322.725 199.610,323.045 198.400 C 324.450 193.081,324.447 167.154,323.041 162.254 C 322.716 161.124,322.246 158.680,321.996 156.823 C 321.746 154.965,321.294 152.969,320.992 152.385 C 320.691 151.802,320.324 150.352,320.176 149.163 C 320.029 147.973,319.666 146.612,319.369 146.137 C 319.073 145.663,318.621 144.403,318.365 143.337 C 318.109 142.272,317.652 141.000,317.348 140.511 C 317.045 140.023,316.602 138.718,316.365 137.611 C 316.128 136.505,315.783 135.600,315.599 135.600 C 315.415 135.600,314.966 134.702,314.602 133.605 C 314.237 132.507,313.786 131.515,313.599 131.399 C 313.411 131.283,313.039 130.516,312.771 129.694 C 312.503 128.872,311.950 127.771,311.542 127.246 C 311.134 126.721,310.800 125.978,310.800 125.595 C 310.800 125.212,310.502 124.651,310.138 124.349 C 309.774 124.047,309.227 123.260,308.923 122.600 C 308.619 121.940,307.837 120.590,307.186 119.600 C 306.535 118.610,305.739 117.237,305.416 116.549 C 305.094 115.860,304.553 115.191,304.215 115.061 C 303.877 114.931,303.593 114.594,303.584 114.313 C 303.575 114.031,303.035 113.177,302.384 112.415 C 301.733 111.653,301.200 110.888,301.200 110.715 C 301.200 110.542,300.885 110.051,300.500 109.625 C 300.115 109.199,298.993 107.894,298.006 106.725 C 295.919 104.253,285.160 93.468,283.316 92.000 C 282.625 91.450,281.641 90.683,281.130 90.296 C 280.618 89.910,279.660 89.173,279.000 88.659 C 277.614 87.581,272.055 83.850,270.000 82.619 C 269.230 82.158,268.240 81.563,267.800 81.298 C 267.360 81.032,265.341 79.994,263.313 78.991 C 261.286 77.987,259.533 77.014,259.418 76.829 C 259.303 76.643,258.532 76.365,257.704 76.212 C 256.877 76.058,255.639 75.588,254.953 75.166 C 254.267 74.745,253.367 74.399,252.953 74.399 C 252.539 74.398,251.618 74.042,250.906 73.608 C 250.195 73.174,248.512 72.642,247.166 72.426 C 245.821 72.209,244.481 71.833,244.188 71.590 C 243.895 71.347,242.158 70.904,240.328 70.606 C 238.498 70.308,236.469 69.860,235.819 69.611 C 232.747 68.433,214.101 67.956,213.029 69.029 M106.014 175.174 C 105.436 176.255,105.436 337.745,106.014 338.826 C 106.418 339.581,107.195 339.600,138.000 339.600 C 168.805 339.600,169.582 339.581,169.986 338.826 C 170.624 337.634,170.559 175.519,169.920 174.880 C 168.969 173.929,106.527 174.216,106.014 175.174 " stroke="none" fill="#06c9fc" fill-rule="evenodd"></path><path id="path1" d="M105.823 68.489 C 104.944 69.744,104.867 132.026,105.744 132.753 C 106.140 133.082,115.020 133.177,138.444 133.102 L 170.600 133.000 170.702 101.034 C 170.796 71.716,170.750 69.008,170.140 68.334 C 169.507 67.634,168.026 67.600,137.961 67.600 L 106.445 67.600 105.823 68.489 " stroke="none" fill="#fcdc06" fill-rule="evenodd"></path><path id="path2" d="M67.686 0.457 C 67.920 1.160,70.000 1.263,70.000 0.573 C 70.000 0.200,69.570 0.000,68.767 0.000 C 68.019 0.000,67.593 0.180,67.686 0.457 M330.000 0.376 C 330.000 0.982,330.745 1.271,331.604 0.999 C 332.807 0.617,332.558 0.000,331.200 0.000 C 330.540 0.000,330.000 0.169,330.000 0.376 M61.300 1.082 C 59.974 1.338,60.080 2.800,61.424 2.800 C 61.987 2.800,62.345 2.635,62.220 2.432 C 62.095 2.230,62.277 1.780,62.625 1.432 C 63.290 0.767,63.140 0.728,61.300 1.082 M336.900 1.087 C 337.663 1.202,338.000 1.490,338.000 2.027 C 338.000 2.533,338.276 2.800,338.800 2.800 C 339.250 2.800,339.600 2.533,339.600 2.190 C 339.600 1.501,337.991 0.770,336.674 0.860 C 336.007 0.906,336.061 0.959,336.900 1.087 M54.800 3.800 C 54.800 4.644,54.987 4.800,56.000 4.800 C 57.329 4.800,57.750 3.497,56.567 3.043 C 55.327 2.567,54.800 2.793,54.800 3.800 M343.553 3.071 C 343.527 3.252,343.527 3.535,343.553 3.700 C 343.579 3.865,343.409 4.000,343.176 4.000 C 342.943 4.000,342.864 4.180,343.000 4.400 C 343.532 5.260,345.264 4.857,345.128 3.904 C 345.008 3.065,343.656 2.350,343.553 3.071 M78.400 3.997 C 74.388 4.522,66.771 5.987,66.053 6.372 C 65.664 6.580,64.277 7.020,62.973 7.350 C 60.009 8.098,56.294 9.374,54.200 10.363 C 53.320 10.778,51.520 11.624,50.200 12.241 C 48.880 12.859,47.350 13.659,46.800 14.019 C 46.250 14.380,45.080 15.121,44.200 15.666 C 34.634 21.593,26.954 28.439,21.297 36.082 C 18.752 39.520,17.079 41.921,15.917 43.800 C 15.236 44.900,14.257 46.440,13.740 47.222 C 13.223 48.003,12.797 48.813,12.793 49.022 C 12.790 49.230,12.148 50.660,11.367 52.200 C 9.861 55.173,8.298 59.306,7.435 62.600 C 7.147 63.700,6.624 65.500,6.273 66.600 C 5.921 67.700,5.221 70.760,4.717 73.400 L 3.800 78.200 3.800 200.000 L 3.800 321.800 4.717 326.600 C 5.221 329.240,5.921 332.300,6.273 333.400 C 6.624 334.500,7.147 336.300,7.435 337.400 C 8.298 340.694,9.861 344.827,11.367 347.800 C 12.148 349.340,12.793 350.780,12.801 351.000 C 12.808 351.220,13.306 352.138,13.907 353.039 C 14.508 353.940,15.450 355.439,16.000 356.370 C 16.550 357.301,17.654 358.916,18.453 359.960 C 19.252 361.003,20.181 362.384,20.519 363.028 C 21.962 365.786,31.294 375.287,36.236 379.028 C 42.013 383.403,45.774 385.623,54.200 389.631 C 56.141 390.555,59.889 391.866,62.600 392.569 C 63.700 392.855,65.500 393.376,66.600 393.727 C 67.700 394.079,70.760 394.779,73.400 395.283 L 78.200 396.200 200.000 396.200 L 321.800 396.200 326.600 395.283 C 329.240 394.779,332.300 394.079,333.400 393.727 C 334.500 393.376,336.300 392.855,337.400 392.569 C 340.111 391.866,343.859 390.555,345.800 389.631 C 354.226 385.623,357.987 383.403,363.764 379.028 C 368.738 375.262,378.048 365.775,379.493 363.000 C 379.837 362.340,380.699 361.080,381.409 360.200 C 382.119 359.320,382.999 358.060,383.365 357.400 C 383.730 356.740,384.552 355.390,385.192 354.400 C 386.234 352.787,387.174 350.965,389.631 345.800 C 390.555 343.859,391.866 340.111,392.569 337.400 C 392.855 336.300,393.376 334.500,393.727 333.400 C 394.079 332.300,394.779 329.240,395.283 326.600 L 396.200 321.800 396.200 200.000 L 396.200 78.200 395.283 73.400 C 394.779 70.760,394.079 67.700,393.727 66.600 C 393.376 65.500,392.853 63.700,392.565 62.600 C 391.702 59.306,390.139 55.173,388.633 52.200 C 387.852 50.660,387.210 49.230,387.207 49.022 C 387.203 48.813,386.719 47.913,386.131 47.022 C 385.543 46.130,384.643 44.725,384.131 43.900 C 383.013 42.098,381.401 39.745,379.886 37.702 C 379.274 36.876,378.347 35.570,377.827 34.800 C 374.293 29.565,364.494 21.053,355.800 15.666 C 354.920 15.121,353.750 14.380,353.200 14.019 C 352.650 13.659,351.120 12.859,349.800 12.241 C 348.480 11.624,346.680 10.778,345.800 10.363 C 343.327 9.195,338.468 7.602,332.600 6.034 C 331.720 5.799,329.020 5.200,326.600 4.704 L 322.200 3.800 201.400 3.755 C 134.960 3.730,79.610 3.839,78.400 3.997 M49.200 5.800 C 49.200 6.996,51.287 7.237,52.624 6.194 C 53.051 5.861,53.220 5.612,53.000 5.642 C 52.102 5.761,51.835 5.565,52.400 5.200 C 52.834 4.920,52.474 4.811,51.100 4.806 C 49.338 4.800,49.200 4.873,49.200 5.800 M347.046 5.425 C 346.838 5.966,347.126 6.400,347.690 6.400 C 347.887 6.400,347.936 6.220,347.800 6.000 C 347.664 5.780,347.724 5.600,347.934 5.600 C 348.143 5.600,348.418 5.870,348.544 6.199 C 348.895 7.113,350.574 6.696,350.728 5.658 C 350.876 4.661,347.422 4.443,347.046 5.425 M46.525 6.679 C 45.998 6.781,45.600 7.198,45.525 7.725 C 45.426 8.419,45.175 8.574,44.313 8.473 C 43.521 8.381,42.895 8.685,42.007 9.593 C 41.337 10.279,40.611 10.730,40.394 10.596 C 40.175 10.461,40.000 10.806,40.000 11.376 C 40.000 12.111,40.212 12.400,40.751 12.400 C 41.718 12.400,42.516 11.476,41.997 10.957 C 41.752 10.712,41.984 10.543,42.639 10.488 C 43.763 10.395,45.362 9.633,44.476 9.612 C 44.184 9.605,44.079 9.396,44.237 9.139 C 44.434 8.821,44.698 8.914,45.092 9.439 C 45.649 10.183,45.659 10.183,45.531 9.415 C 45.442 8.883,45.659 8.584,46.200 8.491 C 47.930 8.193,48.234 7.993,47.589 7.578 C 47.072 7.246,47.073 7.152,47.600 6.806 C 48.215 6.402,48.049 6.383,46.525 6.679 M351.422 6.835 C 351.550 7.043,351.823 7.109,352.028 6.983 C 352.232 6.856,352.400 7.123,352.400 7.576 C 352.400 8.188,352.657 8.400,353.400 8.400 C 355.187 8.400,354.379 6.861,352.464 6.618 C 351.726 6.525,351.286 6.616,351.422 6.835 M357.300 10.276 C 357.685 10.376,358.000 10.805,358.000 11.229 C 358.000 12.038,358.317 12.160,359.367 11.757 C 360.072 11.487,360.240 10.400,359.576 10.400 C 359.343 10.400,359.263 10.578,359.397 10.795 C 359.537 11.022,359.377 11.089,359.021 10.953 C 358.679 10.822,358.400 10.554,358.400 10.357 C 358.400 10.161,357.995 10.021,357.500 10.046 C 356.823 10.081,356.773 10.138,357.300 10.276 M36.271 12.262 C 36.122 12.411,36.000 12.863,36.000 13.267 C 36.000 13.733,35.709 14.000,35.200 14.000 C 34.760 14.000,34.421 14.135,34.447 14.300 C 34.596 15.238,34.219 15.536,32.576 15.783 C 30.987 16.021,29.823 17.694,31.300 17.616 C 31.465 17.607,32.209 17.600,32.953 17.600 C 33.970 17.600,34.359 17.401,34.516 16.800 C 34.638 16.334,35.062 16.000,35.530 16.000 C 36.312 16.000,39.601 13.197,39.599 12.531 C 39.599 12.124,36.648 11.886,36.271 12.262 M361.200 13.070 C 361.200 13.700,361.518 14.141,362.145 14.379 C 362.665 14.577,363.201 15.026,363.336 15.376 C 363.497 15.798,363.989 15.983,364.785 15.922 C 365.509 15.867,365.845 15.685,365.627 15.467 C 365.426 15.266,365.361 14.847,365.480 14.535 C 365.600 14.223,365.541 13.996,365.349 14.031 C 364.452 14.195,364.045 13.929,363.928 13.100 C 363.733 11.727,361.200 11.700,361.200 13.070 M367.400 16.639 C 367.400 17.517,367.683 17.776,368.500 17.647 C 368.665 17.621,368.800 17.791,368.800 18.024 C 368.800 18.257,368.963 18.346,369.163 18.223 C 369.362 18.100,369.431 18.359,369.316 18.799 C 369.155 19.414,369.303 19.600,369.953 19.600 C 370.579 19.600,370.800 19.849,370.800 20.553 C 370.800 21.672,372.601 22.296,372.980 21.308 C 373.429 20.138,373.192 19.600,372.228 19.600 C 371.526 19.600,371.220 19.351,371.128 18.704 C 371.054 18.185,370.664 17.746,370.200 17.659 C 369.760 17.578,369.257 17.263,369.083 16.960 C 368.414 15.800,367.400 15.606,367.400 16.639 M365.762 16.862 C 365.593 17.135,365.651 17.216,365.904 17.059 C 366.139 16.914,366.404 17.012,366.492 17.277 C 366.594 17.582,366.749 17.509,366.914 17.080 C 367.213 16.300,366.225 16.113,365.762 16.862 M28.800 18.600 C 28.800 19.400,28.600 19.600,27.800 19.600 C 27.067 19.600,26.800 19.813,26.800 20.400 C 26.800 20.941,26.533 21.200,25.976 21.200 C 25.523 21.200,25.254 21.364,25.378 21.564 C 25.808 22.261,25.108 23.200,24.157 23.200 C 23.403 23.200,23.200 23.412,23.200 24.200 C 23.200 25.012,23.003 25.200,22.153 25.200 C 21.304 25.200,21.146 25.351,21.316 26.000 C 21.482 26.636,21.328 26.800,20.563 26.800 C 19.802 26.800,19.600 27.010,19.600 27.800 C 19.600 28.612,19.403 28.800,18.555 28.800 C 17.635 28.800,17.529 28.936,17.675 29.929 C 17.820 30.916,17.728 31.037,16.951 30.889 C 16.164 30.738,16.029 30.931,15.785 32.559 C 15.569 33.999,15.345 34.400,14.755 34.400 C 14.340 34.400,14.021 34.535,14.047 34.700 C 14.184 35.563,13.912 35.957,13.100 36.072 C 12.388 36.173,12.200 36.459,12.200 37.436 C 12.200 38.390,12.049 38.633,11.539 38.500 C 10.881 38.328,10.142 39.659,10.539 40.301 C 10.800 40.724,9.951 41.793,9.100 42.112 C 8.340 42.397,8.103 44.400,8.829 44.400 C 9.064 44.400,8.987 44.670,8.657 45.000 C 8.327 45.330,7.778 45.600,7.436 45.600 C 6.750 45.600,6.182 47.256,6.544 48.199 C 7.252 50.044,8.717 48.456,8.440 46.145 C 8.410 45.895,8.839 45.577,9.393 45.438 C 10.223 45.229,10.400 44.945,10.400 43.820 C 10.400 42.710,10.568 42.432,11.300 42.328 C 11.944 42.236,12.236 41.888,12.327 41.100 C 12.396 40.495,12.690 40.000,12.981 40.000 C 13.586 40.000,14.800 38.305,14.800 37.461 C 14.800 37.149,15.160 36.799,15.600 36.684 C 16.083 36.558,16.400 36.138,16.400 35.625 C 16.400 35.157,16.670 34.671,17.000 34.545 C 17.330 34.418,17.600 34.014,17.600 33.646 C 17.600 32.733,18.768 31.133,19.227 31.417 C 19.546 31.614,19.778 30.817,19.659 29.935 C 19.639 29.789,20.158 29.484,20.812 29.256 C 21.465 29.028,22.000 28.638,22.000 28.390 C 22.000 27.816,23.978 25.837,24.900 25.489 C 25.285 25.344,25.600 24.859,25.600 24.413 C 25.600 23.876,25.863 23.600,26.373 23.600 C 26.798 23.600,27.257 23.249,27.394 22.820 C 27.530 22.392,27.972 21.936,28.377 21.807 C 28.782 21.679,29.210 21.206,29.327 20.757 C 29.445 20.308,29.886 19.850,30.309 19.740 C 31.489 19.431,31.014 17.600,29.753 17.600 C 29.003 17.600,28.800 17.813,28.800 18.600 M373.169 21.500 C 373.153 21.665,373.078 22.115,373.005 22.500 C 372.916 22.962,373.122 23.200,373.609 23.200 C 374.117 23.200,374.386 23.543,374.473 24.300 C 374.573 25.164,374.836 25.427,375.700 25.527 C 376.457 25.614,376.800 25.883,376.800 26.391 C 376.800 26.878,377.038 27.084,377.500 26.995 C 377.885 26.922,378.335 26.847,378.500 26.831 C 378.665 26.814,378.800 26.429,378.800 25.975 C 378.800 25.349,378.583 25.180,377.900 25.275 C 377.182 25.375,376.975 25.183,376.876 24.324 C 376.780 23.493,376.507 23.220,375.676 23.124 C 374.817 23.025,374.625 22.818,374.725 22.100 C 374.820 21.417,374.651 21.200,374.025 21.200 C 373.571 21.200,373.186 21.335,373.169 21.500 M378.558 27.046 C 377.687 27.405,378.428 29.200,379.447 29.200 C 380.151 29.200,380.400 29.421,380.400 30.047 C 380.400 30.697,380.586 30.845,381.201 30.684 C 381.641 30.569,381.900 30.638,381.777 30.837 C 381.654 31.037,381.743 31.200,381.976 31.200 C 382.209 31.200,382.379 31.335,382.353 31.500 C 382.224 32.317,382.483 32.600,383.361 32.600 C 384.394 32.600,384.200 31.586,383.040 30.917 C 382.737 30.743,382.422 30.240,382.341 29.800 C 382.254 29.336,381.815 28.946,381.296 28.872 C 380.649 28.780,380.400 28.474,380.400 27.772 C 380.400 26.828,379.727 26.563,378.558 27.046 M382.800 33.207 C 382.365 33.483,382.344 33.589,382.724 33.594 C 383.026 33.597,383.128 33.811,382.965 34.100 C 382.749 34.483,382.800 34.491,383.186 34.135 C 383.890 33.486,383.570 32.718,382.800 33.207 M384.080 35.188 C 384.016 36.019,384.227 36.493,384.795 36.797 C 385.238 37.034,385.600 37.479,385.600 37.786 C 385.600 38.780,386.772 39.658,387.363 39.106 C 388.255 38.272,387.942 36.220,386.900 36.072 C 386.071 35.955,385.805 35.548,385.969 34.651 C 386.004 34.459,385.777 34.400,385.465 34.520 C 385.153 34.639,384.734 34.574,384.533 34.373 C 384.315 34.155,384.134 34.480,384.080 35.188 M388.243 40.633 C 387.840 41.683,387.962 42.000,388.771 42.000 C 389.195 42.000,389.624 42.315,389.724 42.700 C 389.862 43.227,389.919 43.177,389.954 42.500 C 389.979 42.005,389.839 41.600,389.643 41.600 C 389.446 41.600,389.178 41.321,389.047 40.979 C 388.911 40.623,388.978 40.463,389.205 40.603 C 389.422 40.737,389.600 40.657,389.600 40.424 C 389.600 39.760,388.513 39.928,388.243 40.633 M391.600 46.600 C 391.600 47.343,391.812 47.600,392.424 47.600 C 392.877 47.600,393.144 47.768,393.017 47.972 C 392.891 48.177,392.957 48.450,393.165 48.578 C 393.384 48.714,393.475 48.274,393.382 47.536 C 393.139 45.621,391.600 44.813,391.600 46.600 M4.851 51.380 C 4.920 53.503,5.460 54.001,6.664 53.050 C 7.457 52.424,6.829 49.382,5.883 49.272 C 4.785 49.146,4.778 49.160,4.851 51.380 M393.570 49.300 C 393.220 50.479,393.304 51.265,393.801 51.456 C 394.130 51.582,394.400 51.857,394.400 52.066 C 394.400 52.276,394.220 52.336,394.000 52.200 C 393.571 51.935,393.441 52.508,393.839 52.906 C 394.456 53.522,395.078 52.602,395.139 50.982 C 395.195 49.500,393.918 48.131,393.570 49.300 M2.800 56.200 C 2.800 57.050,2.996 57.602,3.300 57.606 C 3.633 57.610,3.600 57.742,3.200 58.000 C 2.396 58.519,3.050 58.508,4.026 57.986 C 5.289 57.310,5.111 54.800,3.800 54.800 C 2.924 54.800,2.800 54.973,2.800 56.200 M395.200 55.749 C 395.200 56.301,395.380 56.864,395.600 57.000 C 395.820 57.136,396.000 57.057,396.000 56.824 C 396.000 56.591,396.225 56.445,396.500 56.500 C 396.775 56.555,397.000 56.240,397.000 55.800 C 397.000 55.275,396.691 54.956,396.100 54.872 C 395.372 54.769,395.200 54.936,395.200 55.749 M1.043 61.033 C 0.533 62.361,0.764 64.315,1.314 63.326 C 1.581 62.846,1.980 62.486,2.200 62.526 C 2.420 62.567,2.657 62.105,2.727 61.500 C 2.870 60.253,1.489 59.870,1.043 61.033 M397.200 61.200 C 397.200 61.733,397.467 62.000,398.000 62.000 C 398.593 62.000,398.814 62.285,398.854 63.100 C 398.895 63.925,398.950 63.994,399.073 63.374 C 399.304 62.208,398.536 60.400,397.810 60.400 C 397.467 60.400,397.200 60.750,397.200 61.200 M0.000 68.200 C 0.000 69.889,0.139 70.400,0.600 70.400 C 1.226 70.400,1.459 67.940,0.957 66.633 C 0.456 65.327,0.000 66.075,0.000 68.200 M171.256 67.165 L 172.200 67.929 172.311 100.265 L 172.422 132.600 171.566 133.300 C 170.284 134.350,105.890 134.387,104.731 133.338 C 103.715 132.418,103.581 69.971,104.592 68.016 C 105.442 66.372,103.453 66.466,138.256 66.432 C 169.245 66.401,170.343 66.425,171.256 67.165 M228.200 67.221 C 229.080 67.446,231.760 67.803,234.156 68.014 C 236.552 68.225,239.067 68.674,239.746 69.013 C 240.425 69.352,242.092 69.786,243.450 69.978 C 244.807 70.171,246.342 70.595,246.859 70.921 C 247.377 71.247,248.640 71.632,249.667 71.776 C 250.694 71.921,251.747 72.296,252.007 72.609 C 252.268 72.922,253.137 73.298,253.940 73.444 C 254.743 73.590,256.209 74.134,257.197 74.654 C 258.185 75.174,259.303 75.600,259.681 75.600 C 260.059 75.600,260.691 75.939,261.084 76.353 C 261.478 76.768,262.366 77.228,263.059 77.376 C 263.751 77.524,264.634 77.995,265.021 78.423 C 265.407 78.850,266.148 79.200,266.666 79.200 C 267.184 79.200,267.916 79.560,268.293 80.000 C 268.670 80.440,269.163 80.803,269.389 80.807 C 269.804 80.815,272.723 82.632,274.200 83.803 C 274.640 84.151,275.379 84.653,275.843 84.918 C 277.665 85.960,279.863 87.546,281.142 88.744 C 281.881 89.435,282.577 90.000,282.689 90.000 C 282.802 90.000,283.478 90.495,284.191 91.100 C 284.904 91.705,286.098 92.712,286.844 93.338 C 289.064 95.201,294.510 100.604,295.800 102.223 C 296.460 103.051,297.405 104.126,297.900 104.610 C 298.395 105.095,298.800 105.630,298.800 105.800 C 298.800 105.970,299.205 106.509,299.700 106.998 C 300.195 107.487,300.921 108.318,301.314 108.844 C 301.706 109.370,302.561 110.500,303.214 111.355 C 303.866 112.210,304.400 113.112,304.400 113.359 C 304.400 113.606,304.760 114.032,305.200 114.307 C 305.640 114.582,306.000 115.069,306.000 115.389 C 306.000 115.710,306.339 116.153,306.754 116.375 C 307.169 116.597,307.633 117.279,307.785 117.889 C 307.938 118.500,308.335 119.303,308.668 119.672 C 309.384 120.467,310.503 122.413,311.445 124.500 C 311.817 125.325,312.260 126.000,312.430 126.000 C 312.599 126.000,312.958 126.675,313.227 127.500 C 313.496 128.325,314.050 129.429,314.458 129.954 C 314.866 130.479,315.200 131.309,315.200 131.800 C 315.200 132.291,315.562 133.152,316.004 133.714 C 316.445 134.275,316.919 135.335,317.056 136.068 C 317.193 136.800,317.619 137.940,318.004 138.600 C 318.388 139.260,318.830 140.520,318.985 141.400 C 319.141 142.280,319.529 143.291,319.847 143.647 C 320.166 144.002,320.608 145.413,320.828 146.783 C 321.049 148.152,321.492 149.674,321.813 150.164 C 322.134 150.654,322.513 152.213,322.654 153.628 C 322.796 155.042,323.180 156.730,323.507 157.379 C 323.851 158.061,324.249 160.586,324.452 163.379 C 324.645 166.030,325.024 169.190,325.294 170.400 C 325.959 173.385,325.956 187.068,325.289 190.200 C 325.008 191.520,324.626 194.770,324.440 197.421 C 324.241 200.258,323.856 202.728,323.504 203.421 C 323.176 204.070,322.781 205.770,322.627 207.200 C 322.473 208.630,322.086 210.204,321.766 210.697 C 321.447 211.190,321.078 212.450,320.946 213.497 C 320.814 214.544,320.376 215.980,319.973 216.688 C 319.570 217.397,319.120 218.657,318.972 219.488 C 318.824 220.320,318.386 221.540,318.000 222.200 C 317.614 222.860,317.181 224.057,317.038 224.860 C 316.895 225.663,316.514 226.540,316.189 226.809 C 315.865 227.078,315.600 227.498,315.600 227.743 C 315.600 227.988,315.158 229.091,314.617 230.194 C 314.077 231.297,313.350 232.830,313.001 233.600 C 311.771 236.320,310.789 238.000,310.429 238.000 C 310.228 238.000,309.948 238.528,309.806 239.172 C 309.664 239.817,309.275 240.572,308.940 240.850 C 308.605 241.127,308.063 242.026,307.735 242.846 C 307.406 243.667,306.882 244.437,306.569 244.557 C 306.256 244.677,306.000 245.040,306.000 245.365 C 306.000 245.689,305.685 246.191,305.300 246.481 C 304.915 246.770,304.330 247.478,304.000 248.055 C 302.877 250.016,301.308 252.197,299.953 253.680 C 299.209 254.495,297.885 256.025,297.012 257.080 C 296.138 258.136,293.438 260.933,291.012 263.296 C 288.585 265.659,286.234 267.954,285.786 268.396 C 285.338 268.838,284.753 269.200,284.486 269.200 C 284.219 269.200,284.000 269.348,284.000 269.528 C 284.000 269.963,278.986 273.968,277.537 274.691 C 276.912 275.003,276.400 275.408,276.400 275.590 C 276.400 275.773,275.860 276.110,275.200 276.340 C 274.540 276.570,274.000 276.926,274.000 277.131 C 274.000 277.335,273.415 277.733,272.700 278.013 C 271.985 278.294,271.215 278.745,270.989 279.017 C 270.578 279.510,268.860 280.470,265.744 281.948 C 264.833 282.380,263.968 282.929,263.820 283.167 C 263.673 283.405,263.238 283.600,262.854 283.600 C 262.470 283.600,261.576 284.028,260.867 284.551 C 260.158 285.073,258.887 285.612,258.041 285.747 C 257.196 285.882,256.282 286.260,256.012 286.586 C 255.741 286.912,254.863 287.295,254.060 287.438 C 253.257 287.581,252.060 288.014,251.400 288.402 C 250.740 288.789,249.316 289.232,248.234 289.387 C 247.153 289.542,245.626 290.013,244.840 290.434 C 244.055 290.855,242.730 291.200,241.896 291.200 C 241.062 291.200,239.350 291.563,238.090 292.008 C 236.609 292.530,234.317 292.889,231.600 293.023 C 229.290 293.137,225.369 293.514,222.888 293.861 C 217.711 294.583,213.986 294.349,212.065 293.181 L 210.800 292.412 210.800 263.215 L 210.800 234.018 211.700 233.454 C 212.195 233.144,213.817 232.800,215.304 232.691 C 216.791 232.581,218.245 232.294,218.536 232.053 C 218.826 231.813,220.489 231.407,222.232 231.151 C 224.035 230.887,225.537 230.453,225.719 230.145 C 225.894 229.847,226.761 229.488,227.646 229.346 C 228.530 229.205,229.505 228.838,229.813 228.530 C 230.120 228.223,230.978 227.718,231.718 227.409 C 232.458 227.099,233.282 226.583,233.548 226.262 C 233.815 225.941,234.480 225.566,235.027 225.429 C 235.573 225.292,236.371 224.869,236.799 224.490 C 237.227 224.110,238.121 223.350,238.785 222.800 C 239.450 222.250,240.293 221.530,240.658 221.200 C 241.023 220.870,241.722 220.330,242.211 220.000 C 242.700 219.670,244.309 217.976,245.786 216.235 C 247.264 214.495,248.726 212.817,249.036 212.507 C 249.346 212.197,249.600 211.708,249.600 211.420 C 249.600 211.133,249.885 210.661,250.234 210.372 C 250.583 210.082,251.143 209.160,251.478 208.323 C 251.813 207.485,252.240 206.800,252.427 206.800 C 252.615 206.800,252.989 206.061,253.260 205.158 C 253.530 204.255,253.979 203.430,254.257 203.323 C 254.534 203.216,254.879 202.290,255.024 201.265 C 255.168 200.239,255.669 198.770,256.138 198.000 C 257.454 195.840,257.457 176.466,256.142 173.400 C 255.671 172.300,255.159 170.455,255.005 169.300 C 254.851 168.145,254.591 167.200,254.427 167.200 C 254.027 167.200,253.200 165.342,253.200 164.443 C 253.200 164.048,252.850 163.407,252.423 163.021 C 251.995 162.634,251.522 161.751,251.371 161.059 C 251.219 160.366,250.759 159.371,250.348 158.846 C 249.937 158.321,249.600 157.673,249.600 157.404 C 249.600 156.970,249.181 156.401,247.037 153.927 C 246.716 153.556,246.126 152.749,245.727 152.133 C 245.327 151.517,244.730 150.708,244.400 150.335 C 244.070 149.962,243.602 149.419,243.359 149.129 C 242.362 147.932,237.058 143.360,236.067 142.843 C 235.480 142.537,234.856 142.042,234.680 141.743 C 234.504 141.445,234.018 141.200,233.601 141.200 C 233.183 141.200,232.356 140.750,231.762 140.200 C 231.169 139.650,230.409 139.200,230.073 139.200 C 229.738 139.200,229.152 138.918,228.772 138.574 C 228.392 138.230,227.152 137.704,226.018 137.405 C 224.883 137.105,223.708 136.655,223.406 136.405 C 223.104 136.154,220.999 135.775,218.728 135.563 C 213.361 135.062,212.912 134.948,211.766 133.802 L 210.800 132.836 210.800 100.907 C 210.800 66.214,210.704 67.751,212.943 66.765 C 214.005 66.298,225.988 66.656,228.200 67.221 M399.001 68.396 C 398.729 69.255,399.018 70.000,399.624 70.000 C 399.831 70.000,400.000 69.460,400.000 68.800 C 400.000 67.442,399.383 67.193,399.001 68.396 M171.511 174.223 L 172.400 174.845 172.400 256.363 C 172.400 343.647,172.490 340.011,170.311 340.771 C 168.741 341.318,107.308 341.373,105.875 340.829 C 103.944 340.094,104.000 342.620,104.000 256.363 L 104.000 174.845 104.889 174.223 C 106.240 173.276,170.160 173.276,171.511 174.223 M0.000 331.767 C 0.000 334.038,0.590 334.777,1.024 333.048 C 1.366 331.685,1.085 329.890,0.500 329.698 C 0.140 329.579,0.000 330.159,0.000 331.767 M398.970 331.081 C 399.134 332.624,400.000 332.752,400.000 331.233 C 400.000 330.430,399.800 330.000,399.427 330.000 C 399.043 330.000,398.893 330.356,398.970 331.081 M0.916 337.800 C 1.020 339.777,2.551 340.415,2.893 338.624 C 3.096 337.566,2.332 336.548,1.652 336.968 C 1.441 337.098,1.170 336.979,1.050 336.702 C 0.930 336.426,0.870 336.920,0.916 337.800 M398.476 337.449 C 398.188 337.762,397.783 337.913,397.576 337.785 C 397.369 337.657,397.200 338.013,397.200 338.576 C 397.200 340.157,398.628 339.961,398.953 338.336 C 399.253 336.837,399.174 336.692,398.476 337.449 M2.894 343.444 C 2.824 345.046,2.900 345.200,3.766 345.200 C 5.366 345.200,5.375 342.578,3.777 341.987 C 3.051 341.719,2.962 341.865,2.894 343.444 M395.200 344.000 C 395.200 345.013,395.356 345.200,396.200 345.200 C 397.207 345.200,397.433 344.673,396.957 343.433 C 396.503 342.250,395.200 342.671,395.200 344.000 M4.853 348.665 C 4.805 350.764,4.824 350.800,5.959 350.800 C 6.599 350.800,7.214 351.059,7.337 351.380 C 7.489 351.776,7.367 351.886,6.950 351.726 C 6.465 351.539,6.368 351.768,6.471 352.846 C 6.578 353.972,6.778 354.221,7.658 354.323 C 8.658 354.438,8.706 354.543,8.531 356.223 C 8.429 357.200,8.510 358.000,8.712 358.000 C 9.638 358.000,10.716 359.460,10.525 360.457 C 10.337 361.442,11.212 362.287,11.950 361.831 C 12.102 361.737,12.221 362.141,12.213 362.730 C 12.203 363.540,12.419 363.831,13.100 363.928 C 13.795 364.027,14.000 364.318,14.000 365.205 C 14.000 365.871,14.313 366.575,14.743 366.877 C 15.151 367.165,15.607 367.786,15.756 368.257 C 15.905 368.728,16.381 369.206,16.813 369.319 C 17.280 369.441,17.600 369.866,17.600 370.363 C 17.600 370.989,17.852 371.200,18.600 371.200 C 19.400 371.200,19.600 371.400,19.600 372.200 C 19.600 372.933,19.813 373.200,20.400 373.200 C 20.933 373.200,21.200 373.467,21.200 374.000 C 21.200 374.587,21.467 374.800,22.200 374.800 C 23.151 374.800,23.383 375.145,23.225 376.323 C 23.186 376.610,23.390 376.814,23.677 376.775 C 24.855 376.617,25.200 376.849,25.200 377.800 C 25.200 378.533,25.413 378.800,26.000 378.800 C 26.533 378.800,26.800 379.067,26.800 379.600 C 26.800 380.187,27.067 380.400,27.800 380.400 C 28.600 380.400,28.800 380.600,28.800 381.400 C 28.800 382.148,29.011 382.400,29.637 382.400 C 30.134 382.400,30.559 382.720,30.681 383.187 C 30.794 383.619,31.272 384.095,31.743 384.244 C 32.214 384.393,32.835 384.849,33.123 385.257 C 33.425 385.687,34.129 386.000,34.795 386.000 C 35.682 386.000,35.973 386.205,36.072 386.900 C 36.169 387.581,36.460 387.797,37.270 387.787 C 37.859 387.779,38.263 387.898,38.169 388.050 C 37.713 388.788,38.558 389.663,39.543 389.475 C 40.540 389.284,42.000 390.362,42.000 391.288 C 42.000 391.490,42.800 391.571,43.777 391.469 C 45.457 391.294,45.562 391.342,45.677 392.342 C 45.779 393.222,46.028 393.422,47.154 393.529 C 48.232 393.632,48.461 393.535,48.274 393.050 C 48.114 392.633,48.224 392.511,48.620 392.663 C 48.941 392.786,49.200 393.401,49.200 394.041 C 49.200 395.176,49.236 395.195,51.335 395.147 C 53.821 395.090,54.447 393.200,51.979 393.200 C 50.499 393.200,48.692 392.499,48.978 392.036 C 49.102 391.835,48.461 391.545,47.553 391.392 C 46.416 391.200,45.841 390.878,45.705 390.357 C 45.548 389.758,45.136 389.600,43.730 389.600 C 42.752 389.600,42.054 389.436,42.178 389.236 C 42.301 389.036,42.300 388.605,42.174 388.278 C 41.901 387.565,40.007 387.114,39.984 387.755 C 39.976 388.000,39.722 387.632,39.420 386.938 C 39.118 386.244,38.495 385.557,38.035 385.411 C 37.575 385.265,37.013 384.798,36.786 384.373 C 36.558 383.948,36.039 383.600,35.633 383.600 C 35.226 383.600,34.799 383.240,34.684 382.800 C 34.567 382.353,34.138 382.000,33.713 382.000 C 33.294 382.000,32.562 381.637,32.086 381.194 C 31.610 380.751,30.755 380.211,30.186 379.995 C 29.617 379.778,29.257 379.432,29.385 379.225 C 29.513 379.018,29.335 378.612,28.990 378.324 C 28.644 378.036,28.055 377.514,27.681 377.164 C 27.306 376.814,26.674 376.411,26.275 376.267 C 25.876 376.123,25.646 375.848,25.765 375.656 C 26.034 375.221,24.631 373.902,24.277 374.256 C 24.135 374.398,23.896 374.174,23.745 373.757 C 23.595 373.341,23.186 372.694,22.836 372.319 C 22.486 371.945,21.964 371.356,21.676 371.010 C 21.388 370.665,20.982 370.487,20.775 370.615 C 20.568 370.743,20.223 370.387,20.009 369.824 C 19.768 369.191,19.311 368.800,18.810 368.800 C 18.129 368.800,18.000 368.540,18.000 367.163 C 18.000 365.862,17.836 365.482,17.200 365.316 C 16.760 365.201,16.400 364.774,16.400 364.367 C 16.400 363.961,16.052 363.442,15.627 363.214 C 15.202 362.987,14.735 362.425,14.589 361.965 C 14.443 361.505,13.756 360.882,13.062 360.580 C 12.368 360.278,12.009 360.024,12.265 360.016 C 13.053 359.989,12.234 357.845,11.247 357.351 C 10.753 357.103,10.361 356.788,10.375 356.651 C 10.523 355.179,10.302 354.468,9.643 354.295 C 9.122 354.159,8.800 353.584,8.608 352.447 C 8.455 351.539,8.165 350.898,7.964 351.022 C 7.501 351.308,6.800 349.501,6.800 348.021 C 6.800 345.553,4.910 346.179,4.853 348.665 M393.614 347.574 C 392.785 349.122,393.090 350.800,394.200 350.800 C 395.127 350.800,395.200 350.662,395.194 348.900 C 395.189 347.526,395.080 347.166,394.800 347.600 C 394.451 348.140,394.228 347.890,394.353 347.100 C 394.442 346.535,394.028 346.800,393.614 347.574 M391.845 352.411 C 391.736 352.735,391.585 353.360,391.509 353.800 C 391.416 354.341,391.117 354.558,390.585 354.469 C 389.817 354.341,389.817 354.351,390.561 354.908 C 391.086 355.302,391.179 355.566,390.861 355.763 C 390.604 355.921,390.395 355.816,390.388 355.524 C 390.368 354.670,389.606 356.216,389.517 357.291 C 389.461 357.970,389.202 358.239,388.619 358.223 C 388.065 358.207,387.759 358.491,387.672 359.100 C 387.567 359.837,387.734 360.000,388.596 360.000 C 389.184 360.000,389.540 359.827,389.404 359.606 C 389.270 359.389,389.721 358.663,390.407 357.993 C 391.315 357.105,391.619 356.479,391.527 355.687 C 391.425 354.817,391.580 354.574,392.300 354.472 C 392.795 354.402,393.200 354.102,393.200 353.805 C 393.200 353.508,393.307 352.936,393.438 352.533 C 393.636 351.921,393.603 351.899,393.238 352.400 C 392.853 352.927,392.754 352.928,392.422 352.411 C 392.088 351.893,392.019 351.893,391.845 352.411 M385.500 362.057 C 384.675 362.947,384.000 364.034,384.000 364.474 C 384.000 364.938,383.664 365.363,383.200 365.484 C 382.599 365.641,382.400 366.030,382.400 367.047 C 382.400 367.791,382.393 368.535,382.384 368.700 C 382.306 370.177,383.979 369.013,384.217 367.424 C 384.464 365.781,384.762 365.404,385.700 365.553 C 385.865 365.579,386.000 365.253,386.000 364.828 C 386.000 364.332,386.322 364.010,386.900 363.928 C 387.669 363.819,387.802 363.553,387.814 362.100 C 387.832 360.001,387.415 359.993,385.500 362.057 M380.260 369.691 C 380.150 370.114,379.692 370.555,379.243 370.673 C 378.794 370.790,378.321 371.218,378.193 371.623 C 378.064 372.028,377.608 372.470,377.180 372.606 C 376.751 372.743,376.400 373.202,376.400 373.627 C 376.400 374.137,376.124 374.400,375.587 374.400 C 375.141 374.400,374.656 374.715,374.511 375.100 C 374.163 376.022,372.184 378.000,371.610 378.000 C 371.362 378.000,370.972 378.535,370.744 379.188 C 370.516 379.842,370.211 380.361,370.065 380.341 C 369.290 380.237,368.811 380.453,368.900 380.867 C 369.015 381.403,367.341 382.385,366.300 382.394 C 365.915 382.397,365.600 382.670,365.600 383.000 C 365.600 383.330,365.420 383.623,365.200 383.650 C 364.980 383.678,364.620 383.745,364.400 383.800 C 364.180 383.855,363.820 383.923,363.600 383.950 C 363.380 383.978,363.200 384.226,363.200 384.502 C 363.200 384.779,362.660 385.244,362.000 385.536 C 361.269 385.859,360.800 386.367,360.800 386.834 C 360.800 387.442,360.513 387.600,359.408 387.600 C 358.256 387.600,357.972 387.773,357.764 388.600 C 357.551 389.449,357.024 389.768,355.985 389.676 C 355.867 389.665,355.737 390.055,355.697 390.542 C 355.602 391.678,357.482 391.982,357.889 390.897 C 358.207 390.049,359.277 389.200,359.699 389.461 C 360.341 389.858,361.672 389.119,361.500 388.461 C 361.367 387.951,361.610 387.800,362.564 387.800 C 363.541 387.800,363.827 387.612,363.928 386.900 C 364.043 386.088,364.437 385.816,365.300 385.953 C 365.465 385.979,365.600 385.660,365.600 385.245 C 365.600 384.655,366.001 384.431,367.441 384.215 C 369.069 383.971,369.262 383.836,369.111 383.049 C 368.963 382.272,369.084 382.180,370.071 382.325 C 371.064 382.471,371.200 382.365,371.200 381.445 C 371.200 380.597,371.388 380.400,372.200 380.400 C 372.990 380.400,373.200 380.198,373.200 379.437 C 373.200 378.672,373.364 378.518,374.000 378.684 C 374.649 378.854,374.800 378.696,374.800 377.847 C 374.800 376.997,374.988 376.800,375.800 376.800 C 376.588 376.800,376.800 376.597,376.800 375.843 C 376.800 374.892,377.739 374.192,378.436 374.622 C 378.636 374.746,378.800 374.477,378.800 374.024 C 378.800 373.467,379.059 373.200,379.600 373.200 C 380.187 373.200,380.400 372.933,380.400 372.200 C 380.400 371.400,380.600 371.200,381.400 371.200 C 382.187 371.200,382.400 370.997,382.400 370.247 C 382.400 368.986,380.569 368.511,380.260 369.691 M352.300 391.514 C 351.081 391.668,350.727 393.044,351.801 393.456 C 352.842 393.855,354.400 393.244,354.400 392.435 C 354.400 391.566,353.840 391.320,352.300 391.514 M348.500 393.120 C 347.565 393.189,346.800 393.401,346.800 393.590 C 346.800 393.780,346.702 394.191,346.581 394.505 C 346.410 394.952,346.843 395.091,348.581 395.148 C 350.693 395.217,350.800 395.173,350.800 394.234 C 350.800 393.034,350.650 392.961,348.500 393.120 M55.300 395.097 C 53.811 395.602,54.799 397.183,56.556 397.106 C 58.128 397.038,58.280 396.947,58.017 396.233 C 57.717 395.422,56.206 394.790,55.300 395.097 M342.014 395.974 C 341.492 396.950,341.481 397.604,342.000 396.800 C 342.258 396.400,342.390 396.367,342.394 396.700 C 342.398 397.004,342.950 397.200,343.800 397.200 C 345.027 397.200,345.200 397.076,345.200 396.200 C 345.200 394.889,342.690 394.711,342.014 395.974 M61.276 397.112 C 59.547 397.392,60.292 398.984,62.200 399.084 C 63.080 399.130,63.585 399.074,63.322 398.958 C 63.060 398.843,62.933 398.519,63.041 398.238 C 63.313 397.528,62.381 396.933,61.276 397.112 M337.400 397.600 C 337.264 397.820,337.298 398.006,337.476 398.014 C 337.654 398.022,337.350 398.286,336.800 398.600 L 335.800 399.172 337.067 399.186 C 338.842 399.206,339.600 398.838,339.600 397.957 C 339.600 397.135,337.862 396.853,337.400 397.600 M66.500 399.055 C 65.331 399.549,66.158 400.000,68.233 400.000 C 69.841 400.000,70.421 399.860,70.302 399.500 C 70.135 398.991,67.408 398.672,66.500 399.055 M329.600 399.400 C 329.600 399.861,330.111 400.000,331.800 400.000 C 333.925 400.000,334.673 399.544,333.367 399.043 C 332.060 398.541,329.600 398.774,329.600 399.400 " stroke="none" fill="#fbfbfb" fill-rule="evenodd"></path><path id="path3" d="M70.000 0.500 C 70.000 0.864,69.064 0.991,66.563 0.966 C 63.184 0.932,61.619 1.461,62.220 2.432 C 62.427 2.767,60.501 2.935,57.400 2.853 C 56.740 2.835,56.425 2.921,56.700 3.044 C 58.041 3.642,57.207 4.800,55.400 4.850 C 54.410 4.878,53.420 4.945,53.200 5.000 C 52.980 5.055,52.609 5.122,52.376 5.150 C 52.143 5.177,52.066 5.383,52.204 5.607 C 52.342 5.830,52.668 5.907,52.928 5.777 C 53.187 5.647,53.040 5.836,52.600 6.197 C 52.083 6.621,51.269 6.804,50.300 6.716 C 49.454 6.639,48.797 6.758,48.794 6.989 C 48.791 7.215,48.651 7.185,48.483 6.921 C 48.280 6.602,47.982 6.568,47.589 6.821 C 47.099 7.136,47.092 7.259,47.543 7.550 C 48.242 8.001,47.669 8.352,46.032 8.476 C 44.745 8.574,43.335 9.587,44.451 9.612 C 45.360 9.632,43.800 10.392,42.654 10.487 C 41.941 10.546,41.756 10.707,42.027 11.032 C 42.560 11.675,41.422 12.551,40.402 12.285 C 39.961 12.169,39.600 12.252,39.600 12.469 C 39.600 13.182,36.352 16.000,35.530 16.000 C 35.062 16.000,34.638 16.334,34.516 16.800 C 34.326 17.526,32.661 17.925,31.050 17.631 C 30.858 17.596,30.785 18.010,30.889 18.553 C 31.029 19.283,30.878 19.591,30.309 19.740 C 29.886 19.850,29.445 20.308,29.327 20.757 C 29.210 21.206,28.782 21.679,28.377 21.807 C 27.972 21.936,27.530 22.392,27.394 22.820 C 27.257 23.249,26.798 23.600,26.373 23.600 C 25.863 23.600,25.600 23.876,25.600 24.413 C 25.600 24.859,25.285 25.344,24.900 25.489 C 23.978 25.837,22.000 27.816,22.000 28.390 C 22.000 28.638,21.465 29.028,20.812 29.256 C 20.158 29.484,19.639 29.789,19.659 29.935 C 19.778 30.817,19.546 31.614,19.227 31.417 C 18.768 31.133,17.600 32.733,17.600 33.646 C 17.600 34.014,17.330 34.418,17.000 34.545 C 16.670 34.671,16.400 35.157,16.400 35.625 C 16.400 36.138,16.083 36.558,15.600 36.684 C 15.160 36.799,14.800 37.149,14.800 37.461 C 14.800 38.305,13.586 40.000,12.981 40.000 C 12.690 40.000,12.396 40.495,12.327 41.100 C 12.236 41.888,11.944 42.236,11.300 42.328 C 10.568 42.432,10.400 42.710,10.400 43.820 C 10.400 44.945,10.223 45.229,9.393 45.438 C 8.839 45.577,8.410 45.895,8.440 46.145 C 8.682 48.162,8.386 48.891,7.400 48.702 C 6.462 48.523,6.028 48.923,6.706 49.342 C 7.490 49.826,6.733 53.130,5.783 53.368 C 4.966 53.574,4.826 53.882,4.721 55.702 C 4.607 57.673,4.539 57.794,3.600 57.699 C 2.820 57.620,2.732 57.685,3.200 57.993 C 3.567 58.234,3.614 58.390,3.321 58.394 C 3.030 58.398,2.794 59.186,2.721 60.405 C 2.654 61.508,2.420 62.420,2.200 62.432 C 1.276 62.480,0.862 64.259,1.066 67.300 C 1.243 69.955,1.182 70.400,0.637 70.400 C -0.325 70.400,-0.344 329.382,0.617 329.751 C 1.122 329.945,1.200 330.542,1.048 333.041 C 0.842 336.408,1.003 337.250,1.793 336.947 C 2.599 336.638,2.955 337.563,2.843 339.677 C 2.751 341.415,2.839 341.634,3.770 341.989 C 4.438 342.243,4.813 342.700,4.837 343.290 C 4.967 346.510,4.995 346.599,5.900 346.728 C 6.594 346.826,6.800 347.118,6.800 348.002 C 6.800 349.498,7.498 351.310,7.964 351.022 C 8.165 350.898,8.455 351.539,8.608 352.447 C 8.800 353.584,9.122 354.159,9.643 354.295 C 10.302 354.468,10.523 355.179,10.375 356.651 C 10.361 356.788,10.753 357.103,11.247 357.351 C 12.234 357.845,13.053 359.989,12.265 360.016 C 12.009 360.024,12.368 360.278,13.062 360.580 C 13.756 360.882,14.443 361.505,14.589 361.965 C 14.735 362.425,15.202 362.987,15.627 363.214 C 16.052 363.442,16.400 363.961,16.400 364.367 C 16.400 364.774,16.760 365.201,17.200 365.316 C 17.836 365.482,18.000 365.862,18.000 367.163 C 18.000 368.540,18.129 368.800,18.810 368.800 C 19.311 368.800,19.768 369.191,20.009 369.824 C 20.223 370.387,20.568 370.743,20.775 370.615 C 20.982 370.487,21.388 370.665,21.676 371.010 C 21.964 371.356,22.486 371.945,22.836 372.319 C 23.186 372.694,23.589 373.326,23.733 373.725 C 23.877 374.124,24.152 374.354,24.344 374.235 C 24.779 373.966,26.098 375.369,25.744 375.723 C 25.602 375.865,25.826 376.104,26.243 376.255 C 26.659 376.405,27.306 376.814,27.681 377.164 C 28.055 377.514,28.644 378.036,28.990 378.324 C 29.335 378.612,29.513 379.018,29.385 379.225 C 29.257 379.432,29.617 379.778,30.186 379.995 C 30.755 380.211,31.610 380.751,32.086 381.194 C 32.562 381.637,33.294 382.000,33.713 382.000 C 34.138 382.000,34.567 382.353,34.684 382.800 C 34.799 383.240,35.226 383.600,35.633 383.600 C 36.039 383.600,36.558 383.948,36.786 384.373 C 37.013 384.798,37.575 385.265,38.035 385.411 C 38.495 385.557,39.118 386.244,39.420 386.938 C 39.722 387.632,39.976 388.000,39.984 387.755 C 40.007 387.114,41.901 387.565,42.174 388.278 C 42.300 388.605,42.301 389.036,42.178 389.236 C 42.054 389.436,42.752 389.600,43.730 389.600 C 45.136 389.600,45.548 389.758,45.705 390.357 C 45.841 390.878,46.416 391.200,47.553 391.392 C 48.461 391.545,49.102 391.835,48.978 392.036 C 48.690 392.502,50.502 393.200,51.998 393.200 C 52.882 393.200,53.174 393.406,53.272 394.100 C 53.401 395.005,53.490 395.033,56.710 395.163 C 57.300 395.187,57.757 395.562,58.011 396.230 C 58.366 397.161,58.585 397.249,60.323 397.157 C 62.437 397.045,63.362 397.401,63.053 398.207 C 62.750 398.997,63.592 399.158,66.959 398.952 C 69.458 398.800,70.055 398.878,70.249 399.383 C 70.618 400.344,329.600 400.325,329.600 399.363 C 329.600 398.818,330.045 398.757,332.700 398.934 C 335.741 399.138,337.520 398.724,337.568 397.800 C 337.580 397.580,338.492 397.346,339.595 397.279 C 340.814 397.206,341.602 396.970,341.606 396.679 C 341.610 396.386,341.766 396.433,342.007 396.800 C 342.315 397.268,342.380 397.180,342.301 396.400 C 342.206 395.461,342.327 395.393,344.298 395.279 C 346.118 395.174,346.426 395.034,346.632 394.217 C 346.870 393.267,350.174 392.510,350.658 393.294 C 351.077 393.972,351.477 393.538,351.298 392.600 C 351.096 391.543,351.565 391.394,354.500 391.588 C 355.533 391.656,355.851 391.189,355.647 389.900 C 355.621 389.735,355.735 389.621,355.900 389.647 C 356.943 389.812,357.545 389.474,357.764 388.600 C 357.972 387.773,358.256 387.600,359.408 387.600 C 360.513 387.600,360.800 387.442,360.800 386.834 C 360.800 386.367,361.269 385.859,362.000 385.536 C 362.660 385.244,363.200 384.779,363.200 384.502 C 363.200 384.226,363.380 383.978,363.600 383.950 C 363.820 383.923,364.180 383.855,364.400 383.800 C 364.620 383.745,364.980 383.678,365.200 383.650 C 365.420 383.623,365.600 383.330,365.600 383.000 C 365.600 382.670,365.915 382.397,366.300 382.394 C 367.341 382.385,369.015 381.403,368.900 380.867 C 368.811 380.453,369.290 380.237,370.065 380.341 C 370.211 380.361,370.516 379.842,370.744 379.188 C 370.972 378.535,371.362 378.000,371.610 378.000 C 372.184 378.000,374.163 376.022,374.511 375.100 C 374.656 374.715,375.141 374.400,375.587 374.400 C 376.124 374.400,376.400 374.137,376.400 373.627 C 376.400 373.202,376.751 372.743,377.180 372.606 C 377.608 372.470,378.064 372.028,378.193 371.623 C 378.321 371.218,378.794 370.790,379.243 370.673 C 379.692 370.555,380.150 370.114,380.260 369.691 C 380.409 369.122,380.717 368.971,381.447 369.111 C 381.990 369.215,382.404 369.142,382.369 368.950 C 382.075 367.339,382.474 365.674,383.200 365.484 C 383.666 365.362,384.000 364.938,384.000 364.470 C 384.000 363.678,386.807 360.400,387.484 360.400 C 387.675 360.400,387.824 359.905,387.816 359.300 C 387.804 358.446,387.983 358.205,388.619 358.223 C 389.202 358.239,389.461 357.970,389.517 357.291 C 389.609 356.184,390.368 354.665,390.388 355.549 C 390.413 356.665,391.426 355.255,391.524 353.968 C 391.648 352.331,391.999 351.758,392.450 352.457 C 392.741 352.908,392.864 352.901,393.179 352.411 C 393.432 352.018,393.398 351.720,393.079 351.517 C 392.815 351.349,392.785 351.209,393.011 351.206 C 393.242 351.203,393.361 350.546,393.284 349.700 C 393.196 348.731,393.379 347.917,393.803 347.400 C 394.164 346.960,394.353 346.813,394.223 347.072 C 394.093 347.332,394.170 347.658,394.393 347.796 C 394.617 347.934,394.822 347.857,394.850 347.624 C 394.878 347.391,394.945 347.020,395.000 346.800 C 395.055 346.580,395.123 345.590,395.150 344.600 C 395.200 342.793,396.358 341.959,396.956 343.300 C 397.079 343.575,397.165 343.260,397.147 342.600 C 397.065 339.499,397.233 337.573,397.568 337.780 C 398.539 338.381,399.068 336.816,399.034 333.437 C 399.009 330.936,399.136 330.000,399.500 330.000 C 400.232 330.000,400.236 70.145,399.505 69.902 C 399.180 69.793,398.995 68.782,398.969 66.968 C 398.898 62.125,398.874 62.000,398.000 62.000 C 397.278 62.000,397.200 61.733,397.200 59.267 C 397.200 57.104,397.075 56.533,396.600 56.533 C 396.270 56.533,396.000 56.719,396.000 56.947 C 396.000 58.312,395.228 56.278,395.148 54.700 C 395.076 53.289,394.900 52.825,394.467 52.900 C 394.146 52.955,393.796 52.750,393.690 52.444 C 393.572 52.106,393.673 51.998,393.948 52.168 C 394.197 52.322,394.400 52.276,394.400 52.066 C 394.400 51.857,394.126 51.580,393.791 51.452 C 393.376 51.293,393.244 50.871,393.378 50.134 C 393.486 49.538,393.355 48.780,393.087 48.449 C 392.691 47.959,392.705 47.910,393.162 48.185 C 393.543 48.415,393.632 48.375,393.438 48.062 C 393.281 47.808,392.803 47.600,392.376 47.600 C 391.727 47.600,391.600 47.316,391.600 45.864 C 391.600 44.401,391.443 44.057,390.600 43.673 C 390.050 43.422,389.600 42.943,389.600 42.609 C 389.600 42.256,389.245 42.000,388.757 42.000 C 388.049 42.000,387.955 41.833,388.173 40.966 C 388.360 40.219,388.299 40.015,387.953 40.229 C 387.617 40.437,387.541 40.268,387.700 39.663 C 387.824 39.188,387.762 38.800,387.563 38.800 C 387.363 38.800,387.200 38.974,387.200 39.187 C 387.200 39.959,385.987 39.087,385.751 38.145 C 385.617 37.614,385.166 36.996,384.749 36.773 C 384.141 36.447,384.010 35.990,384.095 34.483 C 384.191 32.758,384.125 32.603,383.300 32.632 C 382.484 32.661,382.219 32.344,382.353 31.500 C 382.379 31.335,382.209 31.200,381.976 31.200 C 381.743 31.200,381.654 31.037,381.777 30.837 C 381.900 30.638,381.641 30.569,381.201 30.684 C 380.586 30.845,380.400 30.697,380.400 30.047 C 380.400 29.421,380.151 29.200,379.447 29.200 C 378.425 29.200,377.693 27.415,378.558 27.033 C 378.801 26.925,378.505 26.907,377.900 26.992 C 377.037 27.114,376.800 26.986,376.800 26.400 C 376.800 25.883,376.462 25.614,375.700 25.527 C 374.836 25.427,374.573 25.164,374.473 24.300 C 374.386 23.538,374.117 23.200,373.600 23.200 C 373.014 23.200,372.886 22.963,373.008 22.100 C 373.093 21.495,373.075 21.199,372.967 21.442 C 372.585 22.307,370.800 21.575,370.800 20.553 C 370.800 19.849,370.579 19.600,369.953 19.600 C 369.303 19.600,369.155 19.414,369.316 18.799 C 369.431 18.359,369.362 18.100,369.163 18.223 C 368.963 18.346,368.800 18.257,368.800 18.024 C 368.800 17.791,368.665 17.621,368.500 17.647 C 367.656 17.781,367.339 17.516,367.368 16.700 C 367.397 15.874,367.244 15.809,365.490 15.908 C 364.042 15.989,363.522 15.861,363.336 15.377 C 363.201 15.026,362.665 14.577,362.145 14.379 C 361.496 14.132,361.200 13.704,361.200 13.010 C 361.200 11.980,360.788 11.791,358.900 11.953 C 358.236 12.010,358.000 11.817,358.000 11.215 C 358.000 10.752,357.737 10.400,357.391 10.400 C 357.057 10.400,356.578 9.950,356.327 9.400 C 355.943 8.557,355.599 8.400,354.136 8.400 C 352.684 8.400,352.400 8.273,352.400 7.624 C 352.400 7.197,352.192 6.719,351.938 6.562 C 351.625 6.368,351.585 6.457,351.815 6.838 C 352.090 7.295,352.041 7.309,351.551 6.913 C 351.220 6.645,350.462 6.514,349.866 6.622 C 349.129 6.756,348.707 6.624,348.548 6.209 C 348.420 5.874,348.143 5.600,347.934 5.600 C 347.724 5.600,347.678 5.803,347.832 6.052 C 348.002 6.327,347.894 6.428,347.556 6.310 C 347.250 6.204,347.045 5.854,347.100 5.533 C 347.175 5.100,346.711 4.924,345.300 4.852 C 343.722 4.772,341.688 4.000,343.053 4.000 C 343.281 4.000,343.467 3.730,343.467 3.400 C 343.467 2.925,342.896 2.800,340.733 2.800 C 338.267 2.800,338.000 2.722,338.000 2.000 C 338.000 1.126,337.875 1.102,333.032 1.031 C 331.218 1.005,330.207 0.820,330.098 0.495 C 329.855 -0.236,70.000 -0.232,70.000 0.500 M326.600 4.704 C 329.020 5.200,331.720 5.799,332.600 6.034 C 338.468 7.602,343.327 9.195,345.800 10.363 C 346.680 10.778,348.480 11.624,349.800 12.241 C 351.120 12.859,352.650 13.659,353.200 14.019 C 353.750 14.380,354.920 15.121,355.800 15.666 C 364.494 21.053,374.293 29.565,377.827 34.800 C 378.347 35.570,379.274 36.876,379.886 37.702 C 381.401 39.745,383.013 42.098,384.131 43.900 C 384.643 44.725,385.543 46.130,386.131 47.022 C 386.719 47.913,387.203 48.813,387.207 49.022 C 387.210 49.230,387.852 50.660,388.633 52.200 C 390.139 55.173,391.702 59.306,392.565 62.600 C 392.853 63.700,393.376 65.500,393.727 66.600 C 394.079 67.700,394.779 70.760,395.283 73.400 L 396.200 78.200 396.200 200.000 L 396.200 321.800 395.283 326.600 C 394.779 329.240,394.079 332.300,393.727 333.400 C 393.376 334.500,392.855 336.300,392.569 337.400 C 391.866 340.111,390.555 343.859,389.631 345.800 C 387.174 350.965,386.234 352.787,385.192 354.400 C 384.552 355.390,383.730 356.740,383.365 357.400 C 382.999 358.060,382.119 359.320,381.409 360.200 C 380.699 361.080,379.837 362.340,379.493 363.000 C 378.048 365.775,368.738 375.262,363.764 379.028 C 357.987 383.403,354.226 385.623,345.800 389.631 C 343.859 390.555,340.111 391.866,337.400 392.569 C 336.300 392.855,334.500 393.376,333.400 393.727 C 332.300 394.079,329.240 394.779,326.600 395.283 L 321.800 396.200 200.000 396.200 L 78.200 396.200 73.400 395.283 C 70.760 394.779,67.700 394.079,66.600 393.727 C 65.500 393.376,63.700 392.855,62.600 392.569 C 59.889 391.866,56.141 390.555,54.200 389.631 C 45.774 385.623,42.013 383.403,36.236 379.028 C 31.294 375.287,21.962 365.786,20.519 363.028 C 20.181 362.384,19.252 361.003,18.453 359.960 C 17.654 358.916,16.550 357.301,16.000 356.370 C 15.450 355.439,14.508 353.940,13.907 353.039 C 13.306 352.138,12.808 351.220,12.801 351.000 C 12.793 350.780,12.148 349.340,11.367 347.800 C 9.861 344.827,8.298 340.694,7.435 337.400 C 7.147 336.300,6.624 334.500,6.273 333.400 C 5.921 332.300,5.221 329.240,4.717 326.600 L 3.800 321.800 3.800 200.000 L 3.800 78.200 4.717 73.400 C 5.221 70.760,5.921 67.700,6.273 66.600 C 6.624 65.500,7.147 63.700,7.435 62.600 C 8.298 59.306,9.861 55.173,11.367 52.200 C 12.148 50.660,12.790 49.230,12.793 49.022 C 12.797 48.813,13.223 48.003,13.740 47.222 C 14.257 46.440,15.236 44.900,15.917 43.800 C 17.079 41.921,18.752 39.520,21.297 36.082 C 26.954 28.439,34.634 21.593,44.200 15.666 C 45.080 15.121,46.250 14.380,46.800 14.019 C 47.350 13.659,48.880 12.859,50.200 12.241 C 51.520 11.624,53.320 10.778,54.200 10.363 C 56.294 9.374,60.009 8.098,62.973 7.350 C 64.277 7.020,65.664 6.580,66.053 6.372 C 66.771 5.987,74.388 4.522,78.400 3.997 C 79.610 3.839,134.960 3.730,201.400 3.755 L 322.200 3.800 326.600 4.704 M366.914 17.080 C 366.749 17.509,366.594 17.582,366.492 17.277 C 366.404 17.012,366.139 16.914,365.904 17.059 C 365.651 17.216,365.593 17.135,365.762 16.862 C 366.225 16.113,367.213 16.300,366.914 17.080 M383.186 34.135 C 382.800 34.491,382.749 34.483,382.965 34.100 C 383.128 33.811,383.026 33.597,382.724 33.594 C 382.344 33.589,382.365 33.483,382.800 33.207 C 383.570 32.718,383.890 33.486,383.186 34.135 M105.692 66.668 C 104.013 67.343,104.000 67.601,104.000 100.918 C 104.000 131.177,104.035 132.707,104.731 133.338 C 105.890 134.387,170.284 134.350,171.566 133.300 L 172.422 132.600 172.311 100.265 L 172.200 67.929 171.256 67.165 C 170.343 66.426,107.476 65.950,105.692 66.668 M170.140 68.334 C 170.750 69.008,170.796 71.716,170.702 101.034 L 170.600 133.000 138.444 133.102 C 115.020 133.177,106.140 133.082,105.744 132.753 C 104.867 132.026,104.944 69.744,105.823 68.489 L 106.445 67.600 137.961 67.600 C 168.026 67.600,169.507 67.634,170.140 68.334 " stroke="none" fill="#dcdcdc" fill-rule="evenodd"></path><path id="path4" d="M212.943 66.765 C 210.704 67.751,210.800 66.214,210.800 100.907 L 210.800 132.836 211.766 133.802 C 212.912 134.948,213.361 135.062,218.728 135.563 C 220.999 135.775,223.104 136.154,223.406 136.405 C 223.708 136.655,224.883 137.105,226.018 137.405 C 227.152 137.704,228.392 138.230,228.772 138.574 C 229.152 138.918,229.738 139.200,230.073 139.200 C 230.409 139.200,231.169 139.650,231.762 140.200 C 232.356 140.750,233.183 141.200,233.601 141.200 C 234.018 141.200,234.504 141.445,234.680 141.743 C 234.856 142.042,235.480 142.537,236.067 142.843 C 237.058 143.360,242.362 147.932,243.359 149.129 C 243.602 149.419,244.070 149.962,244.400 150.335 C 244.730 150.708,245.327 151.517,245.727 152.133 C 246.126 152.749,246.716 153.556,247.037 153.927 C 249.181 156.401,249.600 156.970,249.600 157.404 C 249.600 157.673,249.937 158.321,250.348 158.846 C 250.759 159.371,251.219 160.366,251.371 161.059 C 251.522 161.751,251.995 162.634,252.423 163.021 C 252.850 163.407,253.200 164.048,253.200 164.443 C 253.200 165.342,254.027 167.200,254.427 167.200 C 254.591 167.200,254.851 168.145,255.005 169.300 C 255.159 170.455,255.671 172.300,256.142 173.400 C 257.457 176.466,257.454 195.840,256.138 198.000 C 255.669 198.770,255.168 200.239,255.024 201.265 C 254.879 202.290,254.534 203.216,254.257 203.323 C 253.979 203.430,253.530 204.255,253.260 205.158 C 252.989 206.061,252.615 206.800,252.427 206.800 C 252.240 206.800,251.813 207.485,251.478 208.323 C 251.143 209.160,250.583 210.082,250.234 210.372 C 249.885 210.661,249.600 211.133,249.600 211.420 C 249.600 211.708,249.346 212.197,249.036 212.507 C 248.726 212.817,247.264 214.495,245.786 216.235 C 244.309 217.976,242.700 219.670,242.211 220.000 C 241.722 220.330,241.023 220.870,240.658 221.200 C 240.293 221.530,239.450 222.250,238.785 222.800 C 238.121 223.350,237.227 224.110,236.799 224.490 C 236.371 224.869,235.573 225.292,235.027 225.429 C 234.480 225.566,233.815 225.941,233.548 226.262 C 233.282 226.583,232.458 227.099,231.718 227.409 C 230.978 227.718,230.120 228.223,229.813 228.530 C 229.505 228.838,228.515 229.207,227.612 229.352 C 226.708 229.496,225.874 229.862,225.758 230.164 C 225.632 230.492,224.630 230.822,223.274 230.981 C 222.023 231.127,219.964 231.596,218.698 232.023 C 217.433 232.450,215.538 232.800,214.487 232.800 C 213.407 232.800,212.192 233.070,211.689 233.423 L 210.800 234.045 210.800 262.849 C 210.800 281.138,210.945 291.923,211.197 292.394 C 211.961 293.822,216.767 294.638,220.600 293.990 C 221.920 293.767,225.944 293.403,229.542 293.180 C 233.581 292.930,236.635 292.546,237.522 292.175 C 238.312 291.845,240.218 291.396,241.759 291.178 C 243.299 290.959,244.838 290.531,245.179 290.227 C 245.521 289.922,246.837 289.546,248.106 289.390 C 249.374 289.234,250.814 288.790,251.306 288.404 C 251.797 288.018,252.955 287.575,253.877 287.420 C 254.799 287.265,255.757 286.893,256.005 286.594 C 256.252 286.296,257.028 285.930,257.728 285.781 C 258.812 285.551,261.383 284.391,263.600 283.131 C 263.930 282.943,264.920 282.424,265.800 281.976 C 269.977 279.852,270.622 279.472,270.920 278.955 C 271.096 278.650,271.487 278.400,271.789 278.400 C 272.091 278.400,272.847 277.975,273.469 277.455 C 274.091 276.935,275.005 276.383,275.500 276.228 C 275.995 276.073,276.400 275.791,276.400 275.602 C 276.400 275.413,276.912 275.003,277.537 274.691 C 278.986 273.968,284.000 269.963,284.000 269.528 C 284.000 269.348,284.203 269.200,284.452 269.200 C 284.701 269.200,285.714 268.435,286.705 267.500 C 290.986 263.459,295.535 258.859,297.009 257.080 C 297.884 256.025,299.209 254.495,299.953 253.680 C 301.308 252.197,302.877 250.016,304.000 248.055 C 304.330 247.478,304.915 246.770,305.300 246.481 C 305.685 246.191,306.000 245.689,306.000 245.365 C 306.000 245.040,306.256 244.677,306.569 244.557 C 306.882 244.437,307.406 243.667,307.735 242.846 C 308.063 242.026,308.605 241.127,308.940 240.850 C 309.275 240.572,309.664 239.817,309.806 239.172 C 309.948 238.528,310.228 238.000,310.429 238.000 C 310.789 238.000,311.771 236.320,313.001 233.600 C 313.350 232.830,314.077 231.297,314.617 230.194 C 315.158 229.091,315.600 227.988,315.600 227.743 C 315.600 227.498,315.865 227.078,316.189 226.809 C 316.514 226.540,316.895 225.663,317.038 224.860 C 317.181 224.057,317.614 222.860,318.000 222.200 C 318.386 221.540,318.824 220.320,318.972 219.488 C 319.120 218.657,319.570 217.397,319.973 216.688 C 320.376 215.980,320.814 214.544,320.946 213.497 C 321.078 212.450,321.447 211.190,321.766 210.697 C 322.086 210.204,322.473 208.630,322.627 207.200 C 322.781 205.770,323.176 204.070,323.504 203.421 C 323.856 202.728,324.241 200.258,324.440 197.421 C 324.626 194.770,325.008 191.520,325.289 190.200 C 325.956 187.068,325.959 173.385,325.294 170.400 C 325.024 169.190,324.645 166.030,324.452 163.379 C 324.249 160.586,323.851 158.061,323.507 157.379 C 323.180 156.730,322.796 155.042,322.654 153.628 C 322.513 152.213,322.134 150.654,321.813 150.164 C 321.492 149.674,321.049 148.152,320.828 146.783 C 320.608 145.413,320.166 144.002,319.847 143.647 C 319.529 143.291,319.141 142.280,318.985 141.400 C 318.830 140.520,318.388 139.260,318.004 138.600 C 317.619 137.940,317.193 136.800,317.056 136.068 C 316.919 135.335,316.445 134.275,316.004 133.714 C 315.562 133.152,315.200 132.291,315.200 131.800 C 315.200 131.309,314.866 130.479,314.458 129.954 C 314.050 129.429,313.496 128.325,313.227 127.500 C 312.958 126.675,312.599 126.000,312.430 126.000 C 312.260 126.000,311.817 125.325,311.445 124.500 C 310.503 122.413,309.384 120.467,308.668 119.672 C 308.335 119.303,307.938 118.500,307.785 117.889 C 307.633 117.279,307.169 116.597,306.754 116.375 C 306.339 116.153,306.000 115.710,306.000 115.389 C 306.000 115.069,305.640 114.582,305.200 114.307 C 304.760 114.032,304.400 113.606,304.400 113.359 C 304.400 113.112,303.866 112.210,303.214 111.355 C 302.561 110.500,301.706 109.370,301.314 108.844 C 300.921 108.318,300.195 107.487,299.700 106.998 C 299.205 106.509,298.800 105.970,298.800 105.800 C 298.800 105.630,298.395 105.095,297.900 104.610 C 297.405 104.126,296.460 103.051,295.800 102.223 C 294.510 100.604,289.064 95.201,286.844 93.338 C 286.098 92.712,284.904 91.705,284.191 91.100 C 283.478 90.495,282.802 90.000,282.689 90.000 C 282.577 90.000,281.881 89.435,281.142 88.744 C 279.863 87.546,277.665 85.960,275.843 84.918 C 275.379 84.653,274.640 84.151,274.200 83.803 C 272.723 82.632,269.804 80.815,269.389 80.807 C 269.163 80.803,268.670 80.440,268.293 80.000 C 267.916 79.560,267.184 79.200,266.666 79.200 C 266.148 79.200,265.407 78.850,265.021 78.423 C 264.634 77.995,263.751 77.524,263.059 77.376 C 262.366 77.228,261.478 76.768,261.084 76.353 C 260.691 75.939,260.059 75.600,259.681 75.600 C 259.303 75.600,258.185 75.174,257.197 74.654 C 256.209 74.134,254.743 73.590,253.940 73.444 C 253.137 73.298,252.268 72.922,252.007 72.609 C 251.747 72.296,250.694 71.921,249.667 71.776 C 248.640 71.632,247.377 71.247,246.859 70.921 C 246.342 70.595,244.807 70.171,243.450 69.978 C 242.092 69.786,240.425 69.352,239.746 69.013 C 239.067 68.674,236.552 68.225,234.156 68.014 C 231.760 67.803,229.080 67.446,228.200 67.221 C 225.988 66.656,214.005 66.298,212.943 66.765 M229.619 68.791 C 232.379 68.993,235.169 69.362,235.819 69.611 C 236.469 69.860,238.498 70.308,240.328 70.606 C 242.158 70.904,243.895 71.347,244.188 71.590 C 244.481 71.833,245.821 72.209,247.166 72.426 C 248.512 72.642,250.195 73.174,250.906 73.608 C 251.618 74.042,252.539 74.398,252.953 74.399 C 253.367 74.399,254.267 74.745,254.953 75.166 C 255.639 75.588,256.877 76.058,257.704 76.212 C 258.532 76.365,259.303 76.643,259.418 76.829 C 259.533 77.014,261.286 77.987,263.313 78.991 C 265.341 79.994,267.360 81.032,267.800 81.298 C 268.240 81.563,269.230 82.158,270.000 82.619 C 272.055 83.850,277.614 87.581,279.000 88.659 C 279.660 89.173,280.618 89.910,281.130 90.296 C 281.641 90.683,282.625 91.450,283.316 92.000 C 285.160 93.468,295.919 104.253,298.006 106.725 C 298.993 107.894,300.115 109.199,300.500 109.625 C 300.885 110.051,301.200 110.542,301.200 110.715 C 301.200 110.888,301.733 111.653,302.384 112.415 C 303.035 113.177,303.575 114.031,303.584 114.313 C 303.593 114.594,303.877 114.931,304.215 115.061 C 304.553 115.191,305.094 115.860,305.416 116.549 C 305.739 117.237,306.535 118.610,307.186 119.600 C 307.837 120.590,308.619 121.940,308.923 122.600 C 309.227 123.260,309.774 124.047,310.138 124.349 C 310.502 124.651,310.800 125.212,310.800 125.595 C 310.800 125.978,311.134 126.721,311.542 127.246 C 311.950 127.771,312.503 128.872,312.771 129.694 C 313.039 130.516,313.411 131.283,313.599 131.399 C 313.786 131.515,314.237 132.507,314.602 133.605 C 314.966 134.702,315.415 135.600,315.599 135.600 C 315.783 135.600,316.128 136.505,316.365 137.611 C 316.602 138.718,317.045 140.023,317.348 140.511 C 317.652 141.000,318.109 142.272,318.365 143.337 C 318.621 144.403,319.073 145.663,319.369 146.137 C 319.666 146.612,320.029 147.973,320.176 149.163 C 320.324 150.352,320.691 151.802,320.992 152.385 C 321.294 152.969,321.746 154.965,321.996 156.823 C 322.246 158.680,322.716 161.124,323.041 162.254 C 324.447 167.154,324.450 193.081,323.045 198.400 C 322.725 199.610,322.262 202.080,322.015 203.888 C 321.767 205.696,321.312 207.664,321.002 208.261 C 320.693 208.857,320.321 210.348,320.177 211.573 C 320.033 212.798,319.671 214.188,319.373 214.663 C 319.074 215.137,318.615 216.397,318.351 217.463 C 318.088 218.528,317.541 220.027,317.136 220.794 C 316.731 221.561,316.400 222.515,316.400 222.915 C 316.400 223.315,316.048 224.307,315.618 225.121 C 315.188 225.934,314.275 227.860,313.591 229.400 C 312.906 230.940,312.176 232.470,311.968 232.800 C 311.760 233.130,311.225 234.120,310.778 235.000 C 310.331 235.880,309.530 237.320,308.996 238.200 C 308.463 239.080,307.706 240.349,307.313 241.020 C 305.618 243.919,304.909 245.010,303.400 247.034 C 302.520 248.215,301.350 249.830,300.800 250.623 C 300.250 251.417,299.350 252.565,298.800 253.175 C 298.250 253.784,296.630 255.598,295.200 257.206 C 293.770 258.814,292.399 260.325,292.154 260.565 C 290.072 262.596,283.820 268.385,282.924 269.110 C 280.342 271.200,277.298 273.479,275.800 274.442 C 274.920 275.009,273.678 275.816,273.040 276.236 C 272.403 276.656,271.413 277.304,270.840 277.675 C 269.612 278.473,265.426 280.820,264.000 281.510 C 263.450 281.776,262.730 282.157,262.400 282.357 C 261.062 283.165,257.496 284.800,257.063 284.804 C 256.808 284.806,255.700 285.250,254.600 285.791 C 253.500 286.332,252.365 286.781,252.078 286.787 C 251.791 286.794,250.778 287.154,249.828 287.587 C 248.877 288.020,247.312 288.496,246.350 288.644 C 245.387 288.792,243.790 289.226,242.800 289.609 C 241.810 289.991,239.830 290.438,238.400 290.602 C 236.970 290.766,234.990 291.170,234.000 291.500 C 231.555 292.315,213.880 292.730,212.992 291.993 C 212.120 291.270,212.096 235.161,212.967 234.290 C 213.330 233.927,214.831 233.639,217.133 233.490 C 219.111 233.361,221.241 232.998,221.865 232.682 C 222.489 232.366,223.667 231.986,224.483 231.839 C 226.044 231.556,230.698 229.455,233.400 227.813 C 234.280 227.279,235.421 226.650,235.936 226.417 C 237.020 225.925,241.758 222.104,244.447 219.552 C 247.219 216.922,251.199 211.806,252.500 209.201 C 252.884 208.430,253.666 206.990,254.237 206.000 C 257.691 200.012,259.872 188.675,258.815 182.200 C 258.636 181.100,258.198 178.254,257.842 175.874 C 257.485 173.495,256.950 171.065,256.651 170.474 C 256.352 169.884,255.984 168.723,255.834 167.895 C 255.552 166.335,250.370 155.860,249.357 154.801 C 248.347 153.746,246.400 151.101,246.400 150.785 C 246.400 150.529,242.670 146.805,239.403 143.800 C 237.983 142.493,235.066 140.528,234.100 140.227 C 233.605 140.072,233.200 139.800,233.200 139.622 C 233.200 139.443,232.615 139.062,231.900 138.776 C 231.185 138.489,230.171 137.927,229.646 137.527 C 229.121 137.127,228.399 136.800,228.040 136.800 C 227.682 136.800,226.726 136.445,225.917 136.011 C 225.107 135.577,223.239 135.030,221.765 134.794 C 220.290 134.559,218.795 134.218,218.442 134.037 C 218.089 133.855,216.814 133.582,215.610 133.428 C 214.405 133.274,213.190 132.958,212.910 132.725 C 212.058 132.018,212.174 69.884,213.029 69.029 C 213.771 68.286,221.256 68.179,229.619 68.791 M104.889 174.223 L 104.000 174.845 104.000 256.363 C 104.000 342.620,103.944 340.094,105.875 340.829 C 107.308 341.373,168.741 341.318,170.311 340.771 C 172.490 340.011,172.400 343.647,172.400 256.363 L 172.400 174.845 171.511 174.223 C 170.160 173.276,106.240 173.276,104.889 174.223 M169.920 174.880 C 170.559 175.519,170.624 337.634,169.986 338.826 C 169.582 339.581,168.805 339.600,138.000 339.600 C 107.195 339.600,106.418 339.581,106.014 338.826 C 105.436 337.745,105.436 176.255,106.014 175.174 C 106.527 174.216,168.969 173.929,169.920 174.880 " stroke="none" fill="#9decfc" fill-rule="evenodd"></path></g></svg>