<svg id="svg" version="1.1" xmlns="http://www.w3.org/2000/svg" xmlns:xlink="http://www.w3.org/1999/xlink" width="48" height="48" viewBox="0 0 400 400"><g id="svgg"><path id="path0" d="M189.000 38.420 C 187.240 38.616,184.090 39.131,182.000 39.565 C 179.910 39.998,175.164 40.644,171.453 41.001 C 167.295 41.400,163.995 41.928,162.853 42.377 C 161.834 42.777,159.570 43.399,157.823 43.759 C 156.076 44.119,153.907 44.847,153.004 45.376 C 152.101 45.906,149.661 46.776,147.581 47.311 C 145.501 47.846,142.900 48.662,141.800 49.123 C 140.700 49.585,139.350 50.055,138.800 50.168 C 138.250 50.280,136.830 51.000,135.644 51.767 C 134.458 52.534,132.954 53.278,132.302 53.422 C 130.955 53.717,123.821 57.282,122.844 58.148 C 122.490 58.461,121.030 59.281,119.600 59.970 C 115.696 61.850,113.237 63.369,112.582 64.305 C 112.258 64.767,111.050 65.610,109.897 66.179 C 106.538 67.835,104.804 69.004,103.102 70.758 C 102.225 71.661,101.349 72.400,101.154 72.400 C 100.959 72.400,100.441 72.759,100.002 73.198 C 99.563 73.637,98.383 74.507,97.381 75.131 C 93.855 77.325,77.069 94.438,74.653 98.300 C 74.068 99.235,73.424 100.000,73.222 100.000 C 73.020 100.000,72.744 100.347,72.609 100.771 C 72.474 101.195,71.633 102.252,70.740 103.119 C 69.102 104.709,68.124 106.140,66.175 109.800 C 65.590 110.900,64.660 112.168,64.110 112.618 C 63.560 113.069,62.725 114.176,62.255 115.079 C 61.785 115.982,60.816 117.848,60.102 119.226 C 59.389 120.604,58.555 122.017,58.249 122.366 C 57.605 123.100,53.200 132.065,53.200 132.641 C 53.200 132.853,52.571 134.003,51.803 135.196 C 51.034 136.389,50.293 138.003,50.155 138.782 C 50.017 139.562,49.391 141.327,48.763 142.704 C 48.135 144.081,47.416 146.390,47.165 147.835 C 46.913 149.279,46.183 151.444,45.542 152.645 C 44.901 153.847,44.090 156.218,43.740 157.915 C 43.391 159.612,42.788 161.810,42.400 162.800 C 42.013 163.790,41.491 166.580,41.241 169.000 C 40.284 178.271,39.900 181.115,39.135 184.600 C 37.554 191.799,37.711 211.222,39.404 218.000 C 39.706 219.210,40.144 222.090,40.376 224.400 C 41.416 234.735,41.701 236.709,42.401 238.411 C 42.810 239.407,43.361 241.477,43.625 243.011 C 43.889 244.545,44.687 246.970,45.399 248.400 C 46.111 249.830,46.891 252.144,47.134 253.543 C 47.377 254.941,48.102 257.191,48.746 258.543 C 49.390 259.894,50.040 261.708,50.190 262.574 C 50.348 263.478,51.025 264.803,51.782 265.687 C 52.507 266.534,53.198 267.832,53.318 268.572 C 53.600 270.310,56.676 276.702,57.857 278.006 C 58.359 278.559,59.049 279.806,59.392 280.778 C 59.735 281.750,60.436 283.097,60.950 283.773 C 61.464 284.448,62.012 285.401,62.167 285.891 C 62.321 286.381,63.032 287.481,63.745 288.334 C 64.458 289.188,65.843 291.206,66.821 292.818 C 67.799 294.431,69.246 296.391,70.036 297.175 C 70.826 297.959,71.959 299.410,72.553 300.400 C 74.031 302.862,75.590 304.981,76.890 306.297 C 89.531 319.085,95.366 324.800,95.785 324.800 C 96.070 324.800,96.538 325.085,96.827 325.433 C 97.603 326.368,102.862 330.577,104.721 331.750 C 105.607 332.310,106.441 332.943,106.574 333.158 C 106.858 333.618,111.667 336.828,113.400 337.715 C 114.060 338.052,115.129 338.885,115.775 339.564 C 116.421 340.244,117.129 340.800,117.347 340.800 C 118.064 340.800,126.650 345.138,127.168 345.761 C 127.446 346.096,128.654 346.737,129.854 347.186 C 131.053 347.635,132.523 348.363,133.119 348.804 C 133.716 349.245,135.327 349.803,136.700 350.045 C 138.386 350.342,139.670 350.861,140.652 351.642 C 141.453 352.278,142.848 352.982,143.754 353.206 C 144.659 353.430,146.750 354.142,148.400 354.787 C 150.050 355.432,152.880 356.228,154.689 356.556 C 156.497 356.883,158.567 357.417,159.289 357.741 C 161.299 358.645,163.058 359.101,167.200 359.791 C 169.290 360.140,172.260 360.774,173.800 361.201 C 181.814 363.425,219.184 363.398,227.800 361.163 C 229.560 360.706,232.890 360.013,235.200 359.622 C 237.510 359.231,240.271 358.514,241.336 358.029 C 242.400 357.544,244.380 356.965,245.736 356.742 C 249.162 356.178,258.554 352.938,260.691 351.583 C 261.665 350.965,263.213 350.337,264.131 350.188 C 265.049 350.038,266.610 349.491,267.600 348.971 C 268.590 348.452,270.390 347.648,271.600 347.185 C 272.810 346.721,274.250 345.919,274.800 345.402 C 275.350 344.885,276.610 344.148,277.600 343.765 C 278.590 343.381,279.850 342.761,280.400 342.386 C 280.950 342.012,281.810 341.578,282.311 341.422 C 282.812 341.267,283.999 340.466,284.950 339.643 C 285.900 338.821,287.291 337.905,288.039 337.609 C 288.788 337.313,290.120 336.545,291.000 335.902 C 295.803 332.395,299.948 329.450,301.068 328.750 C 301.766 328.315,302.801 327.350,303.368 326.606 C 303.935 325.863,304.805 325.133,305.300 324.985 C 306.869 324.516,323.846 307.524,324.964 305.304 C 325.323 304.591,326.081 303.703,326.649 303.331 C 327.217 302.959,328.107 302.012,328.626 301.227 C 329.145 300.442,330.566 298.450,331.783 296.800 C 333.001 295.150,334.890 292.450,335.981 290.800 C 337.072 289.150,338.529 287.021,339.219 286.068 C 339.909 285.116,340.822 283.549,341.248 282.585 C 341.674 281.622,342.186 280.732,342.385 280.609 C 342.585 280.486,343.129 279.366,343.595 278.121 C 344.061 276.876,344.973 275.254,345.621 274.515 C 346.269 273.776,346.800 272.960,346.800 272.702 C 346.800 272.443,347.497 270.784,348.348 269.015 C 349.199 267.247,350.095 264.958,350.339 263.928 C 350.583 262.899,351.307 261.229,351.949 260.217 C 352.590 259.205,353.239 257.707,353.391 256.888 C 353.543 256.070,354.175 254.230,354.797 252.800 C 355.418 251.370,356.226 248.587,356.592 246.615 C 356.958 244.643,357.620 242.234,358.063 241.262 C 358.506 240.289,359.047 238.393,359.266 237.047 C 359.484 235.701,360.091 232.710,360.615 230.400 C 362.305 222.944,362.450 221.232,362.680 206.000 C 362.922 189.954,362.437 178.134,361.382 174.356 C 361.050 173.170,360.502 170.760,360.163 169.000 C 359.016 163.052,358.307 160.230,357.742 159.367 C 357.432 158.895,356.900 156.909,356.559 154.954 C 356.218 152.999,355.435 150.230,354.817 148.800 C 354.200 147.370,353.473 145.244,353.202 144.077 C 352.931 142.909,352.252 141.410,351.694 140.747 C 351.123 140.069,350.430 138.460,350.109 137.071 C 349.796 135.712,349.207 134.060,348.800 133.400 C 348.394 132.740,347.681 131.181,347.216 129.936 C 346.750 128.691,346.085 127.436,345.736 127.147 C 345.388 126.858,344.498 125.380,343.760 123.862 C 343.021 122.344,342.252 120.899,342.050 120.651 C 341.848 120.403,341.451 119.419,341.167 118.464 C 340.838 117.356,340.183 116.370,339.357 115.740 C 338.644 115.196,337.872 114.209,337.641 113.545 C 337.094 111.976,333.961 107.274,332.634 106.030 C 332.065 105.497,331.600 104.854,331.600 104.602 C 331.600 104.350,331.005 103.437,330.278 102.572 C 329.551 101.707,328.518 100.370,327.983 99.600 C 327.449 98.830,326.514 97.779,325.906 97.264 C 325.297 96.750,324.800 96.083,324.800 95.782 C 324.800 95.354,311.300 81.626,306.430 77.101 C 304.646 75.443,299.406 71.616,298.909 71.608 C 298.639 71.604,298.124 71.150,297.763 70.600 C 297.403 70.050,295.914 68.825,294.454 67.878 C 290.912 65.579,288.810 64.164,287.600 63.265 C 285.925 62.021,281.861 59.716,280.800 59.409 C 280.250 59.249,279.170 58.636,278.400 58.047 C 276.819 56.836,271.020 53.964,268.600 53.194 C 267.720 52.913,266.498 52.266,265.884 51.754 C 265.270 51.243,263.482 50.441,261.910 49.973 C 260.339 49.505,258.666 48.869,258.192 48.558 C 257.719 48.248,255.816 47.662,253.965 47.256 C 252.114 46.851,249.642 46.033,248.471 45.438 C 247.300 44.843,244.742 44.015,242.787 43.597 C 240.833 43.180,238.731 42.585,238.117 42.276 C 237.114 41.772,233.762 41.308,226.000 40.597 C 224.570 40.467,220.970 39.894,218.000 39.326 C 212.033 38.183,195.709 37.673,189.000 38.420 M208.161 57.400 C 208.780 57.840,209.865 58.560,210.573 59.000 C 212.802 60.386,216.358 63.634,216.630 64.535 C 216.774 65.011,217.218 65.760,217.617 66.200 C 218.915 67.632,220.147 75.441,219.620 78.903 C 218.691 85.014,216.634 89.283,213.777 91.028 C 213.031 91.484,212.093 92.154,211.692 92.517 C 210.579 93.524,202.521 96.000,200.357 96.000 C 199.241 96.000,196.767 95.424,194.344 94.600 C 192.079 93.830,190.185 93.200,190.134 93.200 C 189.375 93.200,185.067 88.815,184.445 87.408 C 184.008 86.421,183.202 85.025,182.654 84.306 C 177.690 77.798,182.621 63.014,191.038 59.165 C 192.117 58.672,193.296 58.017,193.657 57.711 C 195.507 56.142,206.075 55.915,208.161 57.400 M172.305 133.887 C 175.104 134.596,177.518 136.734,178.670 139.524 C 179.005 140.336,179.577 141.334,179.940 141.741 C 180.530 142.405,180.621 144.730,180.800 163.741 C 180.950 179.696,181.125 185.218,181.500 185.873 C 183.187 188.821,187.660 186.595,192.094 180.600 C 193.233 179.060,195.478 176.362,197.082 174.605 C 198.687 172.847,200.000 171.199,200.000 170.942 C 200.000 170.684,201.133 169.332,202.517 167.937 C 203.901 166.542,205.473 164.770,206.009 164.000 C 207.035 162.528,208.702 160.584,210.433 158.840 C 211.001 158.268,211.967 157.006,212.579 156.036 C 213.190 155.066,214.202 153.842,214.826 153.317 C 215.450 152.792,216.782 151.269,217.786 149.934 C 218.789 148.599,220.014 147.190,220.507 146.802 C 221.000 146.414,222.213 145.050,223.202 143.770 C 225.243 141.129,228.695 137.600,229.236 137.600 C 229.435 137.600,230.345 136.925,231.258 136.100 C 232.848 134.663,233.054 134.594,236.176 134.462 C 241.139 134.253,242.096 134.654,246.268 138.695 L 249.887 142.200 250.179 144.933 C 250.868 151.389,249.950 154.091,245.400 158.995 C 244.740 159.706,243.300 161.460,242.200 162.891 C 241.100 164.323,239.704 165.833,239.098 166.247 C 238.491 166.661,237.899 167.301,237.780 167.669 C 237.662 168.038,236.377 169.658,234.925 171.269 C 233.473 172.881,231.965 174.720,231.574 175.355 C 231.182 175.990,229.633 177.772,228.131 179.314 C 226.629 180.857,225.219 182.442,224.997 182.838 C 224.776 183.234,223.376 184.962,221.885 186.679 C 216.361 193.043,212.000 198.468,212.000 198.976 C 212.000 199.264,211.892 200.041,211.760 200.702 C 211.540 201.798,211.865 202.268,215.460 206.058 C 217.627 208.342,220.722 211.739,222.337 213.606 C 223.953 215.473,225.866 217.540,226.590 218.200 C 227.313 218.860,229.483 221.200,231.411 223.400 C 233.339 225.600,236.735 229.290,238.958 231.600 C 241.181 233.910,243.295 236.250,243.655 236.800 C 244.015 237.350,245.257 238.790,246.415 240.000 C 250.054 243.801,252.400 246.738,253.206 248.499 C 253.634 249.435,254.366 250.672,254.832 251.249 C 257.424 254.456,253.822 263.286,248.800 266.037 C 248.030 266.458,246.929 267.180,246.354 267.640 C 244.705 268.957,240.122 268.868,238.102 267.478 C 237.276 266.910,235.766 266.090,234.747 265.657 C 233.727 265.223,232.599 264.449,232.240 263.935 C 231.880 263.422,230.270 261.652,228.661 260.001 C 227.051 258.351,225.390 256.460,224.969 255.800 C 224.548 255.140,222.760 253.160,220.996 251.400 C 219.232 249.640,217.251 247.489,216.594 246.620 C 215.937 245.750,213.468 243.085,211.107 240.697 C 208.746 238.309,206.664 236.087,206.481 235.759 C 206.132 235.136,201.754 230.375,197.000 225.450 C 195.460 223.855,193.217 221.301,192.015 219.775 C 188.848 215.752,183.624 212.673,182.465 214.145 C 181.025 215.971,181.003 216.278,180.800 237.000 L 180.600 257.400 178.851 260.899 C 177.244 264.113,176.918 264.501,174.851 265.674 C 173.613 266.376,172.097 267.317,171.482 267.764 C 167.181 270.892,159.034 266.986,155.068 259.895 L 153.589 257.251 153.695 199.858 L 153.800 142.464 154.653 141.532 C 155.122 141.019,155.784 140.060,156.124 139.400 C 158.099 135.559,160.454 134.080,166.200 133.076 C 167.333 132.877,169.402 133.152,172.305 133.887 M324.233 143.458 C 332.825 146.494,337.003 152.497,336.996 161.800 L 336.993 167.000 335.059 170.900 C 333.995 173.045,332.884 174.800,332.590 174.800 C 332.295 174.800,331.677 175.330,331.215 175.978 C 330.689 176.718,328.934 177.872,326.503 179.078 L 322.630 181.000 317.615 181.000 C 313.312 181.000,312.373 180.882,311.000 180.167 C 305.526 177.316,304.400 176.679,304.400 176.434 C 304.400 176.283,303.510 175.056,302.422 173.706 C 301.335 172.356,300.251 170.530,300.013 169.649 C 299.776 168.768,299.230 167.271,298.800 166.323 C 297.735 163.978,297.709 159.344,298.749 157.284 C 299.161 156.468,299.793 154.777,300.153 153.526 C 300.519 152.255,301.203 150.932,301.706 150.526 C 302.200 150.127,302.923 149.304,303.312 148.699 C 303.702 148.093,304.691 147.150,305.510 146.603 C 306.330 146.056,307.395 145.321,307.879 144.969 C 311.659 142.221,318.850 141.556,324.233 143.458 M86.600 143.407 C 89.845 143.896,91.027 144.274,92.860 145.405 C 94.103 146.172,95.270 146.800,95.454 146.800 C 95.949 146.800,100.000 151.216,100.000 151.757 C 100.000 152.013,100.658 153.567,101.463 155.211 C 103.662 159.704,103.670 165.142,101.483 169.669 C 100.667 171.357,100.000 173.016,100.000 173.357 C 100.000 173.697,99.480 174.360,98.845 174.830 C 98.210 175.299,97.472 176.092,97.205 176.591 C 96.938 177.090,95.973 177.917,95.060 178.430 C 94.147 178.942,92.818 179.756,92.106 180.239 C 89.093 182.281,78.134 182.385,75.014 180.401 C 74.346 179.976,72.765 179.080,71.500 178.409 C 70.235 177.738,69.200 177.005,69.200 176.781 C 69.200 176.557,68.589 175.762,67.842 175.015 C 67.071 174.245,66.177 172.735,65.777 171.528 C 65.388 170.358,64.649 168.608,64.135 167.640 C 62.810 165.146,62.816 160.921,64.149 158.397 C 64.671 157.409,65.385 155.601,65.737 154.380 C 67.511 148.217,73.656 143.958,82.400 142.831 C 82.510 142.816,84.400 143.076,86.600 143.407 M136.509 283.305 C 138.649 284.333,140.400 285.353,140.400 285.572 C 140.400 285.791,141.102 286.652,141.960 287.485 C 146.702 292.088,148.234 301.693,145.184 307.694 C 144.533 308.976,143.998 310.244,143.996 310.512 C 143.991 311.078,139.686 315.345,137.530 316.920 C 131.661 321.210,117.251 319.517,113.214 314.064 C 112.781 313.479,111.859 312.264,111.167 311.365 C 106.004 304.661,106.056 295.966,111.301 288.865 C 112.384 287.399,113.389 286.000,113.535 285.757 C 114.002 284.976,119.857 281.985,121.660 281.607 C 126.380 280.616,132.323 281.296,136.509 283.305 M283.049 283.435 C 285.580 284.699,287.028 285.678,287.386 286.366 C 287.682 286.935,288.385 287.831,288.948 288.357 C 289.515 288.887,290.360 290.494,290.840 291.957 C 291.316 293.411,291.847 294.780,292.018 295.000 C 292.814 296.023,293.355 300.410,292.918 302.297 C 292.029 306.131,290.032 310.868,288.667 312.378 C 287.916 313.210,287.143 314.146,286.951 314.458 C 286.758 314.770,285.322 315.789,283.760 316.722 C 274.448 322.286,259.876 318.707,256.391 310.000 C 256.083 309.230,255.306 307.751,254.664 306.714 C 253.137 304.244,253.157 296.353,254.696 294.705 C 255.160 294.207,255.900 292.882,256.341 291.760 C 260.174 281.992,272.482 278.156,283.049 283.435 " stroke="none" fill="#fcfbfb" fill-rule="evenodd"></path><path id="path1" d="M264.000 2.400 L 264.000 4.800 261.000 4.800 L 258.000 4.800 258.000 6.319 C 258.000 8.563,255.645 10.800,253.283 10.800 L 251.600 10.800 251.600 12.519 C 251.600 14.937,249.428 17.095,246.811 17.276 L 245.022 17.400 243.800 20.400 L 242.578 23.400 240.889 23.523 C 239.227 23.644,239.200 23.670,239.200 25.142 C 239.200 26.360,238.903 26.928,237.600 28.200 C 236.289 29.481,236.000 30.036,236.000 31.281 C 236.000 32.773,235.973 32.800,234.481 32.800 C 233.244 32.800,232.681 33.088,231.448 34.351 L 229.934 35.902 204.467 36.109 C 176.126 36.341,170.401 36.741,168.517 38.626 C 168.239 38.903,166.615 39.243,164.906 39.381 C 159.992 39.777,159.266 39.966,157.839 41.220 C 156.901 42.043,156.074 42.400,155.102 42.400 C 152.299 42.400,149.429 43.203,147.931 44.407 C 146.876 45.255,146.006 45.603,144.923 45.610 C 142.358 45.626,140.362 46.281,139.051 47.537 C 138.183 48.368,137.219 48.820,135.903 49.013 C 134.660 49.194,133.556 49.686,132.703 50.439 C 131.986 51.071,130.770 51.684,130.000 51.801 C 127.208 52.227,125.404 52.990,125.000 53.917 C 124.780 54.421,124.150 54.928,123.600 55.044 C 121.651 55.456,120.819 55.985,120.572 56.971 C 120.350 57.853,120.043 58.001,117.940 58.239 C 115.854 58.475,115.431 58.675,114.532 59.854 C 113.967 60.594,113.203 61.200,112.833 61.200 C 112.464 61.200,111.425 61.908,110.524 62.773 C 109.576 63.684,108.189 64.534,107.226 64.793 C 106.139 65.086,105.417 65.564,105.139 66.175 C 104.904 66.691,104.156 67.269,103.468 67.466 C 102.563 67.726,102.128 68.157,101.873 69.046 C 101.575 70.085,101.226 70.345,99.551 70.774 C 98.125 71.139,97.300 71.646,96.566 72.609 C 96.008 73.340,95.022 74.123,94.374 74.349 C 93.701 74.584,93.027 75.202,92.804 75.790 C 92.588 76.357,92.094 76.933,91.706 77.071 C 90.583 77.470,89.600 78.465,89.600 79.204 C 89.600 79.629,89.113 80.022,88.300 80.252 C 87.340 80.523,86.905 80.940,86.635 81.845 C 86.374 82.725,85.922 83.174,85.035 83.435 C 84.145 83.698,83.698 84.145,83.435 85.035 C 83.174 85.922,82.725 86.374,81.845 86.635 C 80.940 86.905,80.523 87.340,80.252 88.300 C 80.022 89.113,79.629 89.600,79.204 89.600 C 78.465 89.600,77.470 90.583,77.071 91.706 C 76.933 92.094,76.381 92.579,75.844 92.783 C 75.282 92.997,74.663 93.714,74.384 94.477 C 74.118 95.205,73.351 96.160,72.679 96.600 C 71.852 97.142,71.246 98.040,70.800 99.382 C 70.286 100.933,69.873 101.475,68.906 101.869 C 68.055 102.217,67.590 102.735,67.415 103.532 C 67.267 104.206,66.762 104.871,66.205 105.125 C 65.628 105.388,65.098 106.106,64.869 106.933 C 64.661 107.688,63.750 109.069,62.845 110.001 C 61.940 110.934,61.200 111.891,61.200 112.129 C 61.200 112.367,60.640 113.140,59.955 113.847 C 59.130 114.697,58.591 115.768,58.358 117.014 C 58.121 118.280,57.547 119.405,56.603 120.449 C 55.831 121.303,55.197 122.407,55.194 122.901 C 55.186 124.009,54.817 124.578,53.882 124.924 C 53.021 125.242,52.000 127.524,52.000 129.131 C 52.000 129.845,51.474 130.952,50.627 132.023 C 49.650 133.257,49.176 134.342,48.987 135.779 C 48.793 137.244,48.393 138.144,47.529 139.051 C 46.321 140.320,45.627 142.356,45.610 144.680 C 45.604 145.444,45.087 146.720,44.326 147.847 C 43.072 149.706,42.471 151.940,42.424 154.917 C 42.407 155.959,42.086 156.773,41.399 157.514 C 40.110 158.905,39.728 160.230,39.419 164.387 C 39.278 166.284,38.932 168.043,38.634 168.387 C 36.721 170.588,36.362 175.728,36.133 204.200 L 35.927 229.800 34.482 231.300 C 33.253 232.576,32.782 232.800,31.319 232.800 L 29.600 232.800 29.600 236.000 L 29.600 239.200 26.600 239.200 L 23.600 239.200 23.600 240.706 C 23.600 242.098,23.236 242.576,18.800 247.000 C 14.364 251.424,14.000 251.902,14.000 253.294 C 14.000 254.784,13.983 254.800,12.400 254.800 L 10.800 254.800 10.800 256.400 L 10.800 258.000 7.800 258.000 L 4.800 258.000 4.800 261.000 L 4.800 264.000 2.400 264.000 L 0.000 264.000 0.000 305.600 C 0.000 346.296,0.017 347.200,0.765 347.200 C 1.451 347.200,2.360 349.739,2.082 350.879 C 2.045 351.032,2.660 351.842,3.449 352.679 C 4.238 353.516,4.940 354.492,5.009 354.849 C 5.078 355.206,5.240 356.160,5.368 356.969 C 5.584 358.325,7.211 360.400,8.058 360.400 C 8.246 360.400,8.379 360.535,8.353 360.700 C 8.154 361.955,8.594 363.023,9.761 364.120 C 10.640 364.947,11.194 365.896,11.325 366.800 C 11.671 369.186,11.890 369.804,12.353 369.700 C 12.599 369.645,12.800 369.788,12.800 370.018 C 12.800 370.247,13.095 370.382,13.456 370.318 C 13.914 370.235,14.264 370.683,14.614 371.800 C 14.890 372.680,15.135 373.274,15.158 373.121 C 15.307 372.129,17.409 373.733,17.492 374.902 C 17.542 375.613,17.757 376.252,17.969 376.323 C 18.181 376.394,18.264 376.688,18.153 376.978 C 18.042 377.267,18.457 377.883,19.076 378.347 C 19.694 378.812,20.406 379.362,20.657 379.572 C 20.909 379.781,21.208 379.859,21.321 379.746 C 21.434 379.632,21.635 379.881,21.768 380.298 C 21.900 380.714,22.560 381.463,23.234 381.962 C 23.928 382.475,24.369 383.104,24.250 383.414 C 24.120 383.753,24.244 383.881,24.580 383.752 C 24.876 383.639,25.255 383.766,25.421 384.035 C 25.608 384.336,25.557 384.421,25.289 384.255 C 25.051 384.108,24.739 384.174,24.598 384.403 C 24.456 384.632,24.489 384.794,24.670 384.763 C 25.522 384.615,26.021 384.843,25.762 385.262 C 25.585 385.548,25.652 385.615,25.938 385.438 C 26.192 385.281,26.625 385.292,26.900 385.462 C 27.174 385.631,27.669 385.791,28.000 385.817 C 29.875 385.962,30.000 386.035,30.000 386.977 C 30.000 388.028,31.312 389.200,32.489 389.200 C 32.895 389.200,33.205 389.501,33.213 389.900 C 33.234 391.094,34.134 391.795,35.800 391.916 C 36.840 391.992,37.592 392.307,37.949 392.816 C 38.251 393.247,38.756 393.600,39.072 393.600 C 39.389 393.600,39.552 393.754,39.436 393.942 C 39.179 394.357,40.929 395.200,42.050 395.200 C 42.497 395.200,43.524 395.875,44.331 396.700 C 45.139 397.525,46.025 398.218,46.300 398.240 C 46.575 398.262,47.970 398.307,49.400 398.340 C 51.713 398.393,52.000 398.488,52.000 399.200 C 52.000 399.999,52.267 400.000,200.200 400.000 C 348.133 400.000,348.400 399.999,348.400 399.200 C 348.400 398.449,348.667 398.400,352.733 398.400 L 357.066 398.400 358.352 396.800 C 359.454 395.429,359.860 395.200,361.190 395.200 C 362.973 395.200,364.000 394.385,364.000 392.971 C 364.000 392.059,364.136 392.000,366.226 392.000 C 368.915 392.000,370.000 391.490,370.000 390.226 C 370.000 389.465,370.289 389.211,371.477 388.930 C 372.687 388.644,373.015 388.347,373.288 387.290 C 373.541 386.314,373.844 386.000,374.530 386.000 C 376.441 386.000,379.600 382.893,379.600 381.013 C 379.600 379.662,379.662 379.600,381.013 379.600 C 382.868 379.600,386.000 376.445,386.000 374.577 C 386.000 373.948,386.351 373.616,387.300 373.345 C 388.344 373.047,388.671 372.688,388.961 371.525 C 389.243 370.397,389.564 370.027,390.409 369.858 C 391.640 369.612,391.986 368.762,391.995 365.972 C 392.000 364.296,392.108 364.097,393.300 363.572 C 394.346 363.112,394.683 362.656,395.025 361.239 C 395.323 360.001,395.888 359.109,396.925 358.239 L 398.400 357.000 398.400 352.700 C 398.400 348.667,398.450 348.400,399.200 348.400 C 399.999 348.400,400.000 348.133,400.000 200.200 C 400.000 52.267,399.999 52.000,399.200 52.000 C 398.505 52.000,398.396 51.724,398.373 49.900 C 398.316 45.436,397.662 43.527,396.011 43.003 C 395.443 42.823,395.200 42.400,395.200 41.589 C 395.200 40.952,394.975 40.249,394.700 40.026 C 392.145 37.952,392.037 37.790,391.883 35.800 C 391.616 32.345,389.632 30.000,386.977 30.000 C 386.325 30.000,385.990 29.767,385.969 29.300 C 385.953 28.915,385.855 28.240,385.752 27.800 C 385.650 27.360,385.507 26.465,385.435 25.811 C 385.330 24.860,385.114 24.623,384.352 24.628 C 383.175 24.635,382.514 24.025,382.336 22.765 C 382.246 22.128,381.685 21.528,380.685 21.000 C 379.647 20.452,379.223 19.987,379.340 19.526 C 379.435 19.155,379.250 18.751,378.930 18.629 C 378.589 18.497,378.474 18.199,378.651 17.903 C 378.860 17.556,378.744 17.570,378.277 17.949 C 377.772 18.358,377.600 18.373,377.600 18.006 C 377.600 17.724,377.333 17.617,376.972 17.755 C 376.552 17.917,375.643 17.273,374.227 15.810 C 373.062 14.608,372.013 13.721,371.895 13.839 C 371.777 13.957,371.707 13.726,371.740 13.327 C 371.777 12.874,371.530 12.599,371.083 12.597 C 370.689 12.595,370.215 12.348,370.031 12.050 C 369.846 11.751,369.119 11.439,368.416 11.357 C 366.849 11.175,366.310 10.870,366.633 10.347 C 366.997 9.758,365.699 8.505,364.683 8.465 C 364.197 8.446,363.440 8.347,363.000 8.246 C 362.560 8.144,361.885 8.047,361.500 8.031 C 361.077 8.012,360.800 7.684,360.800 7.200 C 360.800 6.756,360.533 6.400,360.200 6.400 C 359.870 6.400,359.600 6.160,359.600 5.867 C 359.600 5.573,359.375 5.324,359.100 5.313 C 355.743 5.176,353.431 4.642,353.730 4.072 C 353.809 3.923,353.542 3.485,353.137 3.100 C 352.731 2.715,352.400 2.512,352.400 2.649 C 352.400 2.786,352.175 2.720,351.900 2.504 C 351.625 2.287,351.130 2.082,350.800 2.048 C 349.855 1.951,347.830 1.708,347.500 1.652 C 347.335 1.623,347.200 1.240,347.200 0.800 C 347.200 0.005,346.933 0.000,305.600 0.000 L 264.000 0.000 264.000 2.400 M390.800 32.924 C 390.800 33.144,390.440 32.998,390.000 32.600 C 389.560 32.202,389.200 31.696,389.200 31.476 C 389.200 31.256,389.560 31.402,390.000 31.800 C 390.440 32.198,390.800 32.704,390.800 32.924 M218.000 39.326 C 220.970 39.894,224.570 40.467,226.000 40.597 C 233.762 41.308,237.114 41.772,238.117 42.276 C 238.731 42.585,240.833 43.180,242.787 43.597 C 244.742 44.015,247.300 44.843,248.471 45.438 C 249.642 46.033,252.114 46.851,253.965 47.256 C 255.816 47.662,257.719 48.248,258.192 48.558 C 258.666 48.869,260.339 49.505,261.910 49.973 C 263.482 50.441,265.270 51.243,265.884 51.754 C 266.498 52.266,267.720 52.913,268.600 53.194 C 271.020 53.964,276.819 56.836,278.400 58.047 C 279.170 58.636,280.250 59.249,280.800 59.409 C 281.861 59.716,285.925 62.021,287.600 63.265 C 288.810 64.164,290.912 65.579,294.454 67.878 C 295.914 68.825,297.403 70.050,297.763 70.600 C 298.124 71.150,298.639 71.604,298.909 71.608 C 299.406 71.616,304.646 75.443,306.430 77.101 C 311.300 81.626,324.800 95.354,324.800 95.782 C 324.800 96.083,325.297 96.750,325.906 97.264 C 326.514 97.779,327.449 98.830,327.983 99.600 C 328.518 100.370,329.551 101.707,330.278 102.572 C 331.005 103.437,331.600 104.350,331.600 104.602 C 331.600 104.854,332.065 105.497,332.634 106.030 C 333.961 107.274,337.094 111.976,337.641 113.545 C 337.872 114.209,338.644 115.196,339.357 115.740 C 340.183 116.370,340.838 117.356,341.167 118.464 C 341.451 119.419,341.848 120.403,342.050 120.651 C 342.252 120.899,343.021 122.344,343.760 123.862 C 344.498 125.380,345.388 126.858,345.736 127.147 C 346.085 127.436,346.750 128.691,347.216 129.936 C 347.681 131.181,348.394 132.740,348.800 133.400 C 349.207 134.060,349.796 135.712,350.109 137.071 C 350.430 138.460,351.123 140.069,351.694 140.747 C 352.252 141.410,352.931 142.909,353.202 144.077 C 353.473 145.244,354.200 147.370,354.817 148.800 C 355.435 150.230,356.218 152.999,356.559 154.954 C 356.900 156.909,357.432 158.895,357.742 159.367 C 358.307 160.230,359.016 163.052,360.163 169.000 C 360.502 170.760,361.050 173.170,361.382 174.356 C 362.437 178.134,362.922 189.954,362.680 206.000 C 362.450 221.232,362.305 222.944,360.615 230.400 C 360.091 232.710,359.484 235.701,359.266 237.047 C 359.047 238.393,358.506 240.289,358.063 241.262 C 357.620 242.234,356.958 244.643,356.592 246.615 C 356.226 248.587,355.418 251.370,354.797 252.800 C 354.175 254.230,353.543 256.070,353.391 256.888 C 353.239 257.707,352.590 259.205,351.949 260.217 C 351.307 261.229,350.583 262.899,350.339 263.928 C 350.095 264.958,349.199 267.247,348.348 269.015 C 347.497 270.784,346.800 272.443,346.800 272.702 C 346.800 272.960,346.269 273.776,345.621 274.515 C 344.973 275.254,344.061 276.876,343.595 278.121 C 343.129 279.366,342.585 280.486,342.385 280.609 C 342.186 280.732,341.674 281.622,341.248 282.585 C 340.822 283.549,339.909 285.116,339.219 286.068 C 338.529 287.021,337.072 289.150,335.981 290.800 C 334.890 292.450,333.001 295.150,331.783 296.800 C 330.566 298.450,329.145 300.442,328.626 301.227 C 328.107 302.012,327.217 302.959,326.649 303.331 C 326.081 303.703,325.323 304.591,324.964 305.304 C 323.846 307.524,306.869 324.516,305.300 324.985 C 304.805 325.133,303.935 325.863,303.368 326.606 C 302.801 327.350,301.766 328.315,301.068 328.750 C 299.948 329.450,295.803 332.395,291.000 335.902 C 290.120 336.545,288.788 337.313,288.039 337.609 C 287.291 337.905,285.900 338.821,284.950 339.643 C 283.999 340.466,282.812 341.267,282.311 341.422 C 281.810 341.578,280.950 342.012,280.400 342.386 C 279.850 342.761,278.590 343.381,277.600 343.765 C 276.610 344.148,275.350 344.885,274.800 345.402 C 274.250 345.919,272.810 346.721,271.600 347.185 C 270.390 347.648,268.590 348.452,267.600 348.971 C 266.610 349.491,265.049 350.038,264.131 350.188 C 263.213 350.337,261.665 350.965,260.691 351.583 C 258.554 352.938,249.162 356.178,245.736 356.742 C 244.380 356.965,242.400 357.544,241.336 358.029 C 240.271 358.514,237.510 359.231,235.200 359.622 C 232.890 360.013,229.560 360.706,227.800 361.163 C 219.184 363.398,181.814 363.425,173.800 361.201 C 172.260 360.774,169.290 360.140,167.200 359.791 C 163.058 359.101,161.299 358.645,159.289 357.741 C 158.567 357.417,156.497 356.883,154.689 356.556 C 152.880 356.228,150.050 355.432,148.400 354.787 C 146.750 354.142,144.659 353.430,143.754 353.206 C 142.848 352.982,141.453 352.278,140.652 351.642 C 139.670 350.861,138.386 350.342,136.700 350.045 C 135.327 349.803,133.716 349.245,133.119 348.804 C 132.523 348.363,131.053 347.635,129.854 347.186 C 128.654 346.737,127.446 346.096,127.168 345.761 C 126.650 345.138,118.064 340.800,117.347 340.800 C 117.129 340.800,116.421 340.244,115.775 339.564 C 115.129 338.885,114.060 338.052,113.400 337.715 C 111.667 336.828,106.858 333.618,106.574 333.158 C 106.441 332.943,105.607 332.310,104.721 331.750 C 102.862 330.577,97.603 326.368,96.827 325.433 C 96.538 325.085,96.070 324.800,95.785 324.800 C 95.366 324.800,89.531 319.085,76.890 306.297 C 75.590 304.981,74.031 302.862,72.553 300.400 C 71.959 299.410,70.826 297.959,70.036 297.175 C 69.246 296.391,67.799 294.431,66.821 292.818 C 65.843 291.206,64.458 289.188,63.745 288.334 C 63.032 287.481,62.321 286.381,62.167 285.891 C 62.012 285.401,61.464 284.448,60.950 283.773 C 60.436 283.097,59.735 281.750,59.392 280.778 C 59.049 279.806,58.359 278.559,57.857 278.006 C 56.676 276.702,53.600 270.310,53.318 268.572 C 53.198 267.832,52.507 266.534,51.782 265.687 C 51.025 264.803,50.348 263.478,50.190 262.574 C 50.040 261.708,49.390 259.894,48.746 258.543 C 48.102 257.191,47.377 254.941,47.134 253.543 C 46.891 252.144,46.111 249.830,45.399 248.400 C 44.687 246.970,43.889 244.545,43.625 243.011 C 43.361 241.477,42.810 239.407,42.401 238.411 C 41.701 236.709,41.416 234.735,40.376 224.400 C 40.144 222.090,39.706 219.210,39.404 218.000 C 37.711 211.222,37.554 191.799,39.135 184.600 C 39.900 181.115,40.284 178.271,41.241 169.000 C 41.491 166.580,42.013 163.790,42.400 162.800 C 42.788 161.810,43.391 159.612,43.740 157.915 C 44.090 156.218,44.901 153.847,45.542 152.645 C 46.183 151.444,46.913 149.279,47.165 147.835 C 47.416 146.390,48.135 144.081,48.763 142.704 C 49.391 141.327,50.017 139.562,50.155 138.782 C 50.293 138.003,51.034 136.389,51.803 135.196 C 52.571 134.003,53.200 132.853,53.200 132.641 C 53.200 132.065,57.605 123.100,58.249 122.366 C 58.555 122.017,59.389 120.604,60.102 119.226 C 60.816 117.848,61.785 115.982,62.255 115.079 C 62.725 114.176,63.560 113.069,64.110 112.618 C 64.660 112.168,65.590 110.900,66.175 109.800 C 68.124 106.140,69.102 104.709,70.740 103.119 C 71.633 102.252,72.474 101.195,72.609 100.771 C 72.744 100.347,73.020 100.000,73.222 100.000 C 73.424 100.000,74.068 99.235,74.653 98.300 C 77.069 94.438,93.855 77.325,97.381 75.131 C 98.383 74.507,99.563 73.637,100.002 73.198 C 100.441 72.759,100.959 72.400,101.154 72.400 C 101.349 72.400,102.225 71.661,103.102 70.758 C 104.804 69.004,106.538 67.835,109.897 66.179 C 111.050 65.610,112.258 64.767,112.582 64.305 C 113.237 63.369,115.696 61.850,119.600 59.970 C 121.030 59.281,122.490 58.461,122.844 58.148 C 123.821 57.282,130.955 53.717,132.302 53.422 C 132.954 53.278,134.458 52.534,135.644 51.767 C 136.830 51.000,138.250 50.280,138.800 50.168 C 139.350 50.055,140.700 49.585,141.800 49.123 C 142.900 48.662,145.501 47.846,147.581 47.311 C 149.661 46.776,152.101 45.906,153.004 45.376 C 153.907 44.847,156.076 44.119,157.823 43.759 C 159.570 43.399,161.834 42.777,162.853 42.377 C 163.995 41.928,167.295 41.400,171.453 41.001 C 175.164 40.644,179.910 39.998,182.000 39.565 C 191.250 37.647,208.630 37.531,218.000 39.326 M195.457 56.792 C 194.828 56.991,194.018 57.405,193.657 57.711 C 193.296 58.017,192.117 58.672,191.038 59.165 C 182.621 63.014,177.690 77.798,182.654 84.306 C 183.202 85.025,184.008 86.421,184.445 87.408 C 185.067 88.815,189.375 93.200,190.134 93.200 C 190.185 93.200,192.079 93.830,194.344 94.600 C 196.767 95.424,199.241 96.000,200.357 96.000 C 202.521 96.000,210.579 93.524,211.692 92.517 C 212.093 92.154,213.031 91.484,213.777 91.028 C 216.634 89.283,218.691 85.014,219.620 78.903 C 220.147 75.441,218.915 67.632,217.617 66.200 C 217.218 65.760,216.774 65.011,216.630 64.535 C 216.358 63.634,212.802 60.386,210.573 59.000 C 209.865 58.560,208.780 57.840,208.161 57.400 C 206.905 56.506,197.746 56.068,195.457 56.792 M202.463 58.700 C 202.498 59.085,202.518 59.623,202.508 59.896 C 202.498 60.168,202.650 60.293,202.845 60.172 C 203.040 60.051,203.200 60.163,203.200 60.419 C 203.200 60.676,203.452 60.789,203.761 60.670 C 204.947 60.215,204.755 61.012,203.327 62.475 C 201.862 63.976,201.786 64.001,198.619 64.067 C 196.848 64.104,196.075 64.205,196.900 64.291 C 199.147 64.526,199.100 66.754,196.800 69.000 C 195.489 70.281,195.200 70.836,195.200 72.081 C 195.200 73.586,195.186 73.600,193.600 73.600 C 192.038 73.600,192.000 73.633,192.000 75.000 L 192.000 76.400 189.000 76.400 L 186.000 76.400 186.000 78.000 L 186.000 79.600 184.400 79.600 L 182.800 79.600 182.800 76.432 L 182.800 73.264 183.967 73.007 C 185.304 72.714,185.508 72.326,185.847 69.435 C 186.072 67.524,186.203 67.306,187.328 66.970 C 188.255 66.692,188.644 66.277,188.892 65.300 C 189.148 64.296,189.437 64.000,190.162 64.000 C 191.275 64.000,191.872 63.372,192.062 62.000 C 192.191 61.066,192.370 60.992,194.785 60.879 C 197.663 60.744,198.400 60.351,198.400 58.951 C 198.400 57.699,202.351 57.455,202.463 58.700 M166.200 133.076 C 160.454 134.080,158.099 135.559,156.124 139.400 C 155.784 140.060,155.122 141.019,154.653 141.532 L 153.800 142.464 153.695 199.858 L 153.589 257.251 155.068 259.895 C 159.034 266.986,167.181 270.892,171.482 267.764 C 172.097 267.317,173.613 266.376,174.851 265.674 C 176.918 264.501,177.244 264.113,178.851 260.899 L 180.600 257.400 180.800 237.000 C 181.003 216.278,181.025 215.971,182.465 214.145 C 183.624 212.673,188.848 215.752,192.015 219.775 C 193.217 221.301,195.460 223.855,197.000 225.450 C 201.754 230.375,206.132 235.136,206.481 235.759 C 206.664 236.087,208.746 238.309,211.107 240.697 C 213.468 243.085,215.937 245.750,216.594 246.620 C 217.251 247.489,219.232 249.640,220.996 251.400 C 222.760 253.160,224.548 255.140,224.969 255.800 C 225.390 256.460,227.051 258.351,228.661 260.001 C 230.270 261.652,231.880 263.422,232.240 263.935 C 232.599 264.449,233.727 265.223,234.747 265.657 C 235.766 266.090,237.276 266.910,238.102 267.478 C 240.122 268.868,244.705 268.957,246.354 267.640 C 246.929 267.180,248.030 266.458,248.800 266.037 C 253.822 263.286,257.424 254.456,254.832 251.249 C 254.366 250.672,253.634 249.435,253.206 248.499 C 252.400 246.738,250.054 243.801,246.415 240.000 C 245.257 238.790,244.015 237.350,243.655 236.800 C 243.295 236.250,241.181 233.910,238.958 231.600 C 236.735 229.290,233.339 225.600,231.411 223.400 C 229.483 221.200,227.313 218.860,226.590 218.200 C 225.866 217.540,223.953 215.473,222.337 213.606 C 220.722 211.739,217.627 208.342,215.460 206.058 C 211.865 202.268,211.540 201.798,211.760 200.702 C 211.892 200.041,212.000 199.264,212.000 198.976 C 212.000 198.468,216.361 193.043,221.885 186.679 C 223.376 184.962,224.776 183.234,224.997 182.838 C 225.219 182.442,226.629 180.857,228.131 179.314 C 229.633 177.772,231.182 175.990,231.574 175.355 C 231.965 174.720,233.473 172.881,234.925 171.269 C 236.377 169.658,237.662 168.038,237.780 167.669 C 237.899 167.301,238.491 166.661,239.098 166.247 C 239.704 165.833,241.100 164.323,242.200 162.891 C 243.300 161.460,244.740 159.706,245.400 158.995 C 249.950 154.091,250.868 151.389,250.179 144.933 L 249.887 142.200 246.268 138.695 C 242.096 134.654,241.139 134.253,236.176 134.462 C 233.054 134.594,232.848 134.663,231.258 136.100 C 230.345 136.925,229.435 137.600,229.236 137.600 C 228.695 137.600,225.243 141.129,223.202 143.770 C 222.213 145.050,221.000 146.414,220.507 146.802 C 220.014 147.190,218.789 148.599,217.786 149.934 C 216.782 151.269,215.450 152.792,214.826 153.317 C 214.202 153.842,213.190 155.066,212.579 156.036 C 211.967 157.006,211.001 158.268,210.433 158.840 C 208.702 160.584,207.035 162.528,206.009 164.000 C 205.473 164.770,203.901 166.542,202.517 167.937 C 201.133 169.332,200.000 170.684,200.000 170.942 C 200.000 171.199,198.687 172.847,197.082 174.605 C 195.478 176.362,193.233 179.060,192.094 180.600 C 187.660 186.595,183.187 188.821,181.500 185.873 C 181.125 185.218,180.950 179.696,180.800 163.741 C 180.621 144.730,180.530 142.405,179.940 141.741 C 179.577 141.334,179.005 140.336,178.670 139.524 C 176.945 135.345,170.950 132.245,166.200 133.076 M312.479 143.175 C 310.432 143.811,308.362 144.618,307.879 144.969 C 307.395 145.321,306.330 146.056,305.510 146.603 C 304.691 147.150,303.702 148.093,303.312 148.699 C 302.923 149.304,302.200 150.127,301.706 150.526 C 301.203 150.932,300.519 152.255,300.153 153.526 C 299.793 154.777,299.161 156.468,298.749 157.284 C 297.709 159.344,297.735 163.978,298.800 166.323 C 299.230 167.271,299.776 168.768,300.013 169.649 C 300.251 170.530,301.335 172.356,302.422 173.706 C 303.510 175.056,304.400 176.283,304.400 176.434 C 304.400 176.679,305.526 177.316,311.000 180.167 C 312.373 180.882,313.312 181.000,317.615 181.000 L 322.630 181.000 326.503 179.078 C 328.934 177.872,330.689 176.718,331.215 175.978 C 331.677 175.330,332.295 174.800,332.590 174.800 C 332.884 174.800,333.995 173.045,335.059 170.900 L 336.993 167.000 336.996 161.800 C 337.006 148.224,325.171 139.234,312.479 143.175 M78.800 143.584 C 72.122 145.013,67.281 149.014,65.737 154.380 C 65.385 155.601,64.671 157.409,64.149 158.397 C 62.816 160.921,62.810 165.146,64.135 167.640 C 64.649 168.608,65.388 170.358,65.777 171.528 C 66.177 172.735,67.071 174.245,67.842 175.015 C 68.589 175.762,69.200 176.557,69.200 176.781 C 69.200 177.005,70.235 177.738,71.500 178.409 C 72.765 179.080,74.346 179.976,75.014 180.401 C 78.134 182.385,89.093 182.281,92.106 180.239 C 92.818 179.756,94.147 178.942,95.060 178.430 C 95.973 177.917,96.938 177.090,97.205 176.591 C 97.472 176.092,98.210 175.299,98.845 174.830 C 99.480 174.360,100.000 173.697,100.000 173.357 C 100.000 173.016,100.667 171.357,101.483 169.669 C 103.670 165.142,103.662 159.704,101.463 155.211 C 100.658 153.567,100.000 152.013,100.000 151.757 C 100.000 151.216,95.949 146.800,95.454 146.800 C 95.270 146.800,94.103 146.172,92.860 145.405 C 90.926 144.212,84.313 142.584,82.400 142.831 C 82.290 142.845,80.670 143.184,78.800 143.584 M88.754 146.800 C 89.886 147.967,90.632 148.400,91.507 148.400 C 92.337 148.400,92.904 148.700,93.343 149.370 C 93.693 149.903,94.319 150.447,94.735 150.579 C 95.226 150.735,95.614 151.405,95.845 152.495 C 96.147 153.921,96.394 154.226,97.500 154.543 L 98.800 154.916 98.800 161.009 L 98.800 167.103 97.551 167.620 C 96.128 168.210,95.200 170.013,95.200 172.187 L 95.200 173.600 92.200 173.600 L 89.200 173.600 89.200 175.200 C 89.200 176.640,89.100 176.800,88.200 176.800 C 87.650 176.800,87.200 176.991,87.200 177.224 C 87.200 177.457,87.018 177.535,86.795 177.397 C 86.570 177.258,86.282 177.692,86.145 178.373 C 85.985 179.174,85.660 179.600,85.209 179.600 C 84.828 179.600,83.438 179.713,82.119 179.851 L 79.720 180.101 79.469 178.844 C 79.178 177.389,78.041 176.805,75.474 176.791 C 73.982 176.784,73.735 176.642,73.200 175.491 C 72.774 174.574,72.285 174.164,71.513 174.075 C 70.631 173.973,70.379 173.694,70.172 172.589 C 69.892 171.101,69.422 170.564,68.200 170.338 C 66.177 169.963,66.240 155.056,68.267 154.547 C 69.315 154.284,70.000 153.295,70.000 152.045 C 70.000 151.520,70.476 151.012,71.360 150.592 C 72.109 150.237,72.812 149.599,72.923 149.173 C 73.046 148.701,73.472 148.400,74.016 148.400 C 75.957 148.400,78.051 147.461,78.637 146.329 C 79.218 145.205,79.238 145.200,83.211 145.200 L 87.201 145.200 88.754 146.800 M121.660 281.607 C 119.857 281.985,114.002 284.976,113.535 285.757 C 113.389 286.000,112.384 287.399,111.301 288.865 C 106.056 295.966,106.004 304.661,111.167 311.365 C 111.859 312.264,112.781 313.479,113.214 314.064 C 117.251 319.517,131.661 321.210,137.530 316.920 C 139.686 315.345,143.991 311.078,143.996 310.512 C 143.998 310.244,144.533 308.976,145.184 307.694 C 148.234 301.693,146.702 292.088,141.960 287.485 C 141.102 286.652,140.400 285.791,140.400 285.572 C 140.400 283.106,127.509 280.379,121.660 281.607 M268.397 281.573 C 263.029 282.565,258.421 286.458,256.341 291.760 C 255.900 292.882,255.160 294.207,254.696 294.705 C 253.157 296.353,253.137 304.244,254.664 306.714 C 255.306 307.751,256.083 309.230,256.391 310.000 C 259.876 318.707,274.448 322.286,283.760 316.722 C 285.322 315.789,286.758 314.770,286.951 314.458 C 287.143 314.146,287.916 313.210,288.667 312.378 C 290.032 310.868,292.029 306.131,292.918 302.297 C 293.355 300.410,292.814 296.023,292.018 295.000 C 291.847 294.780,291.316 293.411,290.840 291.957 C 290.360 290.494,289.515 288.887,288.948 288.357 C 288.385 287.831,287.682 286.935,287.386 286.366 C 285.626 282.984,275.115 280.330,268.397 281.573 " stroke="none" fill="#fc403d" fill-rule="evenodd"></path><path id="path2" d="M52.000 0.776 C 52.000 1.384,51.675 1.579,50.500 1.676 C 49.081 1.793,48.993 1.881,48.876 3.300 L 48.752 4.800 44.750 4.800 C 40.137 4.800,39.200 5.136,39.200 6.790 C 39.200 7.844,39.061 7.963,37.700 8.076 C 36.285 8.193,36.193 8.284,36.077 9.683 L 35.954 11.166 33.077 11.283 L 30.200 11.400 30.076 12.900 C 29.955 14.358,29.908 14.400,28.376 14.400 C 26.842 14.400,26.800 14.437,26.800 15.800 C 26.800 17.136,26.735 17.200,25.387 17.200 C 23.215 17.200,21.273 18.171,20.961 19.413 C 20.786 20.111,20.285 20.621,19.510 20.891 C 18.667 21.185,18.112 21.806,17.578 23.052 C 17.166 24.013,16.597 24.801,16.314 24.803 C 15.539 24.806,14.400 27.085,14.400 28.632 C 14.400 29.961,14.355 30.000,12.800 30.000 L 11.200 30.000 11.200 33.000 L 11.200 36.000 9.917 36.000 C 7.359 36.000,4.800 39.405,4.800 42.809 C 4.800 45.481,4.759 45.600,3.849 45.600 C 2.469 45.600,1.955 46.461,1.708 49.185 C 1.526 51.195,1.364 51.600,0.744 51.600 C 0.020 51.600,0.000 54.508,0.000 157.800 L 0.000 264.000 2.400 264.000 L 4.800 264.000 4.800 261.000 L 4.800 258.000 7.800 258.000 L 10.800 258.000 10.800 256.400 L 10.800 254.800 12.400 254.800 C 13.983 254.800,14.000 254.784,14.000 253.294 C 14.000 251.902,14.364 251.424,18.800 247.000 C 23.236 242.576,23.600 242.098,23.600 240.706 L 23.600 239.200 26.600 239.200 L 29.600 239.200 29.600 236.000 L 29.600 232.800 31.319 232.800 C 32.782 232.800,33.253 232.576,34.482 231.300 L 35.927 229.800 36.133 204.200 C 36.362 175.728,36.721 170.588,38.634 168.387 C 38.932 168.043,39.278 166.284,39.419 164.387 C 39.728 160.230,40.110 158.905,41.399 157.514 C 42.086 156.773,42.407 155.959,42.424 154.917 C 42.471 151.940,43.072 149.706,44.326 147.847 C 45.087 146.720,45.604 145.444,45.610 144.680 C 45.627 142.356,46.321 140.320,47.529 139.051 C 48.393 138.144,48.793 137.244,48.987 135.779 C 49.176 134.342,49.650 133.257,50.627 132.023 C 51.474 130.952,52.000 129.845,52.000 129.131 C 52.000 127.524,53.021 125.242,53.882 124.924 C 54.817 124.578,55.186 124.009,55.194 122.901 C 55.197 122.407,55.831 121.303,56.603 120.449 C 57.547 119.405,58.121 118.280,58.358 117.014 C 58.591 115.768,59.130 114.697,59.955 113.847 C 60.640 113.140,61.200 112.367,61.200 112.129 C 61.200 111.891,61.940 110.934,62.845 110.001 C 63.750 109.069,64.661 107.688,64.869 106.933 C 65.098 106.106,65.628 105.388,66.205 105.125 C 66.762 104.871,67.267 104.206,67.415 103.532 C 67.590 102.735,68.055 102.217,68.906 101.869 C 69.873 101.475,70.286 100.933,70.800 99.382 C 71.246 98.040,71.852 97.142,72.679 96.600 C 73.351 96.160,74.118 95.205,74.384 94.477 C 74.663 93.714,75.282 92.997,75.844 92.783 C 76.381 92.579,76.933 92.094,77.071 91.706 C 77.470 90.583,78.465 89.600,79.204 89.600 C 79.629 89.600,80.022 89.113,80.252 88.300 C 80.523 87.340,80.940 86.905,81.845 86.635 C 82.725 86.374,83.174 85.922,83.435 85.035 C 83.698 84.145,84.145 83.698,85.035 83.435 C 85.922 83.174,86.374 82.725,86.635 81.845 C 86.905 80.940,87.340 80.523,88.300 80.252 C 89.113 80.022,89.600 79.629,89.600 79.204 C 89.600 78.465,90.583 77.470,91.706 77.071 C 92.094 76.933,92.588 76.357,92.804 75.790 C 93.027 75.202,93.701 74.584,94.374 74.349 C 95.022 74.123,96.008 73.340,96.566 72.609 C 97.300 71.646,98.125 71.139,99.551 70.774 C 101.226 70.345,101.575 70.085,101.873 69.046 C 102.128 68.157,102.563 67.726,103.468 67.466 C 104.156 67.269,104.904 66.691,105.139 66.175 C 105.417 65.564,106.139 65.086,107.226 64.793 C 108.189 64.534,109.576 63.684,110.524 62.773 C 111.425 61.908,112.464 61.200,112.833 61.200 C 113.203 61.200,113.967 60.594,114.532 59.854 C 115.431 58.675,115.854 58.475,117.940 58.239 C 120.043 58.001,120.350 57.853,120.572 56.971 C 120.819 55.985,121.651 55.456,123.600 55.044 C 124.150 54.928,124.780 54.421,125.000 53.917 C 125.404 52.990,127.208 52.227,130.000 51.801 C 130.770 51.684,131.986 51.071,132.703 50.439 C 133.556 49.686,134.660 49.194,135.903 49.013 C 137.219 48.820,138.183 48.368,139.051 47.537 C 140.362 46.281,142.358 45.626,144.923 45.610 C 146.006 45.603,146.876 45.255,147.931 44.407 C 149.429 43.203,152.299 42.400,155.102 42.400 C 156.074 42.400,156.901 42.043,157.839 41.220 C 159.266 39.966,159.992 39.777,164.906 39.381 C 166.615 39.243,168.239 38.903,168.517 38.626 C 170.401 36.741,176.126 36.341,204.467 36.109 L 229.934 35.902 231.448 34.351 C 232.681 33.088,233.244 32.800,234.481 32.800 C 235.973 32.800,236.000 32.773,236.000 31.281 C 236.000 30.036,236.289 29.481,237.600 28.200 C 238.903 26.928,239.200 26.360,239.200 25.142 C 239.200 23.670,239.227 23.644,240.889 23.523 L 242.578 23.400 243.800 20.400 L 245.022 17.400 246.811 17.276 C 249.428 17.095,251.600 14.937,251.600 12.519 L 251.600 10.800 253.319 10.800 C 255.664 10.800,258.000 8.546,258.000 6.283 L 258.000 4.800 261.000 4.800 L 264.000 4.800 264.000 2.400 L 264.000 0.000 158.000 0.000 C 53.366 0.000,52.000 0.010,52.000 0.776 M347.200 0.800 C 347.200 1.240,347.275 1.600,347.367 1.600 C 347.459 1.600,347.796 1.700,348.116 1.823 C 348.558 1.993,348.651 1.801,348.502 1.023 C 348.272 -0.181,347.200 -0.365,347.200 0.800 M349.981 1.980 C 350.300 2.182,350.713 2.254,350.898 2.139 C 351.084 2.025,351.497 2.149,351.818 2.415 C 352.138 2.680,352.400 2.786,352.400 2.649 C 352.400 2.512,352.731 2.715,353.137 3.100 C 353.542 3.485,353.807 3.926,353.725 4.080 C 353.644 4.234,353.923 4.545,354.344 4.770 C 355.058 5.152,355.088 5.079,354.785 3.732 C 354.375 1.914,353.893 1.612,351.400 1.612 C 350.030 1.612,349.583 1.728,349.981 1.980 M356.448 4.982 C 356.548 5.082,357.298 5.209,358.115 5.264 C 359.013 5.324,359.600 5.568,359.600 5.882 C 359.600 6.167,359.870 6.400,360.200 6.400 C 360.533 6.400,360.800 6.756,360.800 7.200 C 360.800 7.684,361.077 8.012,361.500 8.031 C 361.885 8.047,362.560 8.144,363.000 8.246 C 363.440 8.347,364.197 8.446,364.683 8.465 C 365.699 8.505,366.997 9.758,366.633 10.347 C 366.498 10.566,366.570 10.858,366.793 10.996 C 367.374 11.354,367.307 9.067,366.720 8.480 C 366.456 8.216,365.727 8.000,365.099 8.000 C 364.193 8.000,363.873 7.755,363.543 6.809 C 363.234 5.922,362.754 5.514,361.664 5.211 C 360.220 4.810,356.095 4.629,356.448 4.982 M369.836 11.894 C 370.218 12.275,370.816 12.590,371.165 12.594 C 371.532 12.597,371.775 12.907,371.740 13.327 C 371.707 13.726,371.777 13.957,371.895 13.839 C 372.013 13.721,373.062 14.608,374.227 15.810 C 375.643 17.273,376.552 17.917,376.972 17.755 C 377.333 17.617,377.600 17.724,377.600 18.006 C 377.600 18.385,377.744 18.379,378.223 17.981 C 378.731 17.559,378.823 17.559,378.723 17.982 C 378.655 18.267,378.825 18.583,379.100 18.683 C 379.375 18.784,379.600 18.601,379.600 18.276 C 379.600 17.608,378.771 17.200,377.417 17.200 C 376.717 17.200,376.443 16.915,376.258 15.992 C 376.071 15.053,375.752 14.730,374.830 14.546 C 373.904 14.361,373.584 14.034,373.372 13.054 C 373.035 11.504,372.612 11.214,370.671 11.206 C 369.221 11.200,369.178 11.235,369.836 11.894 M381.100 21.196 C 381.898 21.682,382.400 22.311,382.400 22.823 C 382.400 23.938,383.204 24.681,384.321 24.598 C 384.823 24.561,385.344 24.709,385.479 24.927 C 385.614 25.146,385.522 25.199,385.274 25.046 C 384.982 24.866,385.026 25.339,385.396 26.389 C 386.023 28.164,386.000 28.060,386.000 29.200 C 386.000 29.782,386.267 30.000,386.977 30.000 C 388.369 30.000,390.581 31.414,391.205 32.702 C 391.587 33.493,391.777 33.623,391.884 33.168 C 392.177 31.919,391.285 30.482,390.048 30.211 C 389.126 30.008,388.819 29.698,388.724 28.873 C 388.635 28.106,388.230 27.637,387.300 27.228 C 386.389 26.827,386.000 26.387,386.000 25.756 C 386.000 24.579,384.988 23.600,383.771 23.600 C 382.934 23.600,382.800 23.413,382.800 22.243 C 382.800 20.831,382.299 20.399,380.667 20.401 C 379.922 20.403,379.984 20.515,381.100 21.196 M389.200 31.476 C 389.200 31.696,389.560 32.202,390.000 32.600 C 390.440 32.998,390.800 33.144,390.800 32.924 C 390.800 32.704,390.440 32.198,390.000 31.800 C 389.560 31.402,389.200 31.256,389.200 31.476 M392.000 37.171 C 392.000 37.595,392.495 38.313,393.100 38.767 C 393.705 39.220,394.425 39.780,394.700 40.011 C 395.453 40.644,395.352 38.395,394.577 37.289 C 393.781 36.151,392.000 36.070,392.000 37.171 M396.285 43.169 C 397.053 43.647,397.727 44.499,397.962 45.285 C 398.332 46.525,398.350 46.486,398.277 44.600 L 398.200 42.600 396.600 42.484 L 395.000 42.368 396.285 43.169 M198.400 58.951 C 198.400 60.351,197.663 60.744,194.785 60.879 C 192.370 60.992,192.191 61.066,192.062 62.000 C 191.872 63.372,191.275 64.000,190.162 64.000 C 189.437 64.000,189.148 64.296,188.892 65.300 C 188.644 66.277,188.255 66.692,187.328 66.970 C 186.203 67.306,186.072 67.524,185.847 69.435 C 185.508 72.326,185.304 72.714,183.967 73.007 L 182.800 73.264 182.800 76.432 L 182.800 79.600 184.400 79.600 L 186.000 79.600 186.000 78.000 L 186.000 76.400 189.000 76.400 L 192.000 76.400 192.000 75.000 C 192.000 73.633,192.038 73.600,193.600 73.600 C 195.186 73.600,195.200 73.586,195.200 72.081 C 195.200 70.836,195.489 70.281,196.800 69.000 C 199.100 66.754,199.147 64.526,196.900 64.291 C 196.075 64.205,196.848 64.104,198.619 64.067 C 201.786 64.001,201.862 63.976,203.327 62.475 C 204.755 61.012,204.947 60.215,203.761 60.670 C 203.452 60.789,203.200 60.676,203.200 60.419 C 203.200 60.163,203.040 60.051,202.845 60.172 C 202.650 60.293,202.498 60.168,202.508 59.896 C 202.572 58.127,202.431 58.000,200.400 58.000 C 198.561 58.000,198.400 58.076,198.400 58.951 M78.637 146.329 C 78.051 147.461,75.957 148.400,74.016 148.400 C 73.472 148.400,73.046 148.701,72.923 149.173 C 72.812 149.599,72.109 150.237,71.360 150.592 C 70.476 151.012,70.000 151.520,70.000 152.045 C 70.000 153.295,69.315 154.284,68.267 154.547 C 66.240 155.056,66.177 169.963,68.200 170.338 C 69.422 170.564,69.892 171.101,70.172 172.589 C 70.379 173.694,70.631 173.973,71.513 174.075 C 72.285 174.164,72.774 174.574,73.200 175.491 C 73.735 176.642,73.982 176.784,75.474 176.791 C 78.041 176.805,79.178 177.389,79.469 178.844 L 79.720 180.101 82.119 179.851 C 83.438 179.713,84.828 179.600,85.209 179.600 C 85.660 179.600,85.985 179.174,86.145 178.373 C 86.282 177.692,86.570 177.258,86.795 177.397 C 87.018 177.535,87.200 177.457,87.200 177.224 C 87.200 176.991,87.650 176.800,88.200 176.800 C 89.100 176.800,89.200 176.640,89.200 175.200 L 89.200 173.600 92.200 173.600 L 95.200 173.600 95.200 172.187 C 95.200 170.013,96.128 168.210,97.551 167.620 L 98.800 167.103 98.800 161.009 L 98.800 154.916 97.500 154.543 C 96.394 154.226,96.147 153.921,95.845 152.495 C 95.614 151.405,95.226 150.735,94.735 150.579 C 94.319 150.447,93.693 149.903,93.343 149.370 C 92.904 148.700,92.337 148.400,91.507 148.400 C 90.632 148.400,89.886 147.967,88.754 146.800 L 87.201 145.200 83.211 145.200 C 79.238 145.200,79.218 145.205,78.637 146.329 M0.000 347.800 C 0.000 348.133,0.356 348.400,0.800 348.400 C 1.244 348.400,1.600 348.133,1.600 347.800 C 1.600 347.467,1.244 347.200,0.800 347.200 C 0.356 347.200,0.000 347.467,0.000 347.800 M1.600 350.507 C 1.600 353.192,2.131 354.277,3.605 354.601 C 5.373 354.989,5.384 354.762,3.685 352.940 C 2.805 351.996,2.147 350.864,2.092 350.198 C 1.936 348.323,1.600 348.535,1.600 350.507 M4.880 357.813 L 5.000 360.600 6.800 360.704 C 8.280 360.789,8.468 360.728,7.855 360.358 C 6.387 359.474,5.591 358.371,5.359 356.897 C 4.971 354.429,4.752 354.847,4.880 357.813 M396.567 358.560 C 395.000 359.920,394.842 360.834,396.309 360.049 C 397.127 359.611,398.582 357.648,398.299 357.365 C 398.208 357.274,397.428 357.812,396.567 358.560 M8.234 363.586 C 8.507 366.725,8.549 366.800,10.024 366.800 C 11.622 366.800,11.605 365.523,9.990 364.329 C 9.325 363.837,8.606 362.887,8.394 362.217 C 8.097 361.280,8.060 361.595,8.234 363.586 M394.684 362.399 C 394.569 362.838,394.053 363.367,393.538 363.574 C 392.892 363.832,392.809 363.957,393.271 363.975 C 394.083 364.005,395.200 362.961,395.200 362.171 C 395.200 361.348,394.928 361.469,394.684 362.399 M11.200 369.074 C 11.200 372.187,12.678 373.590,15.967 373.598 C 17.075 373.600,16.981 373.342,15.800 373.138 C 15.294 373.051,14.837 372.486,14.556 371.600 C 14.255 370.650,13.901 370.238,13.456 370.318 C 13.095 370.382,12.800 370.247,12.800 370.018 C 12.800 369.788,12.599 369.645,12.353 369.700 C 12.107 369.755,11.851 369.469,11.783 369.063 C 11.572 367.801,11.200 367.808,11.200 369.074 M388.832 372.113 C 388.814 372.505,388.395 372.989,387.900 373.188 C 387.291 373.432,387.210 373.557,387.651 373.575 C 388.474 373.607,389.341 372.590,389.069 371.913 C 388.942 371.596,388.851 371.672,388.832 372.113 M17.254 376.326 C 17.181 378.655,17.744 379.600,19.206 379.600 C 20.162 379.600,20.435 379.808,20.648 380.700 C 21.012 382.227,21.546 382.800,22.604 382.800 C 23.319 382.800,23.565 383.088,23.766 384.161 C 24.033 385.584,24.597 386.000,26.256 386.000 C 26.857 386.000,27.143 385.832,26.983 385.573 C 26.838 385.338,26.458 385.246,26.139 385.368 C 25.815 385.493,25.666 385.416,25.803 385.195 C 26.027 384.833,25.477 384.622,24.670 384.763 C 24.489 384.794,24.456 384.632,24.598 384.403 C 24.739 384.174,25.051 384.108,25.289 384.255 C 25.557 384.421,25.608 384.336,25.421 384.035 C 25.255 383.766,24.876 383.639,24.580 383.752 C 24.244 383.881,24.120 383.753,24.250 383.414 C 24.369 383.104,23.928 382.475,23.234 381.962 C 22.560 381.463,21.900 380.714,21.768 380.298 C 21.635 379.881,21.434 379.632,21.321 379.746 C 21.208 379.859,20.909 379.781,20.657 379.572 C 20.406 379.362,19.694 378.812,19.076 378.347 C 18.443 377.872,18.044 377.263,18.163 376.952 C 18.280 376.648,18.213 376.400,18.015 376.400 C 17.817 376.400,17.578 375.995,17.482 375.500 C 17.387 375.005,17.284 375.377,17.254 376.326 M384.800 376.819 C 384.800 377.050,384.324 377.680,383.742 378.219 C 383.026 378.882,382.877 379.200,383.280 379.200 C 383.944 379.200,384.947 378.171,385.327 377.100 C 385.463 376.715,385.401 376.400,385.187 376.400 C 384.974 376.400,384.800 376.589,384.800 376.819 M378.467 383.474 C 378.211 383.953,377.641 384.460,377.200 384.600 C 376.172 384.926,376.148 385.591,377.174 385.323 C 378.203 385.054,379.326 383.777,379.108 383.124 C 378.992 382.777,378.778 382.894,378.467 383.474 M30.000 388.391 C 30.000 388.782,31.185 390.024,33.004 391.540 C 33.770 392.179,34.362 391.802,33.673 391.113 C 33.413 390.853,33.200 390.316,33.200 389.920 C 33.200 389.497,32.907 389.200,32.489 389.200 C 32.098 389.200,31.378 388.920,30.889 388.577 C 30.361 388.208,30.000 388.132,30.000 388.391 M36.800 392.367 C 36.800 393.712,38.660 395.218,40.280 395.186 C 40.877 395.174,40.844 395.085,40.087 394.665 C 39.586 394.386,39.301 394.033,39.454 393.879 C 39.608 393.726,39.440 393.600,39.081 393.600 C 38.722 393.600,38.235 393.240,38.000 392.800 C 37.562 391.982,36.800 391.707,36.800 392.367 M42.400 396.320 C 42.400 397.741,43.059 398.400,44.480 398.400 C 45.910 398.400,45.890 398.263,44.213 396.587 C 42.537 394.910,42.400 394.890,42.400 396.320 M358.951 396.100 C 357.030 398.292,356.945 398.509,358.315 397.723 C 358.999 397.330,359.744 396.602,359.971 396.105 C 360.499 394.944,359.966 394.942,358.951 396.100 " stroke="none" fill="#fc1644" fill-rule="evenodd"></path></g></svg>