<svg id="svg" version="1.1" xmlns="http://www.w3.org/2000/svg" xmlns:xlink="http://www.w3.org/1999/xlink" width="48" height="47" viewBox="0 0 400 400"><g id="svgg"><path id="path0" d="M70.671 115.862 C 70.522 116.011,70.400 120.401,70.400 125.618 C 70.400 133.948,70.320 135.169,69.739 135.651 C 69.220 136.082,66.244 136.243,55.839 136.400 L 42.600 136.600 42.670 138.600 C 42.709 139.700,43.017 141.590,43.355 142.800 C 43.693 144.010,44.075 145.840,44.204 146.867 C 44.889 152.313,46.961 153.200,59.005 153.200 L 68.436 153.200 69.418 154.182 C 70.627 155.391,70.975 169.860,69.833 171.424 C 69.292 172.163,68.588 172.205,54.979 172.315 L 40.692 172.430 40.965 175.438 C 41.115 177.093,41.406 178.889,41.611 179.429 C 41.816 179.969,42.157 181.480,42.367 182.788 C 43.291 188.523,44.345 188.952,58.133 189.200 C 68.566 189.387,69.302 189.449,69.833 190.176 C 70.730 191.404,70.676 257.028,69.777 258.311 C 69.138 259.223,60.176 259.706,58.960 258.894 C 57.671 258.033,57.600 256.819,57.600 235.640 L 57.600 214.428 56.376 213.034 C 54.958 211.418,51.871 210.130,48.492 209.742 C 47.231 209.598,45.502 209.237,44.650 208.940 C 43.797 208.643,42.672 208.400,42.150 208.400 L 41.200 208.400 41.200 238.416 C 41.200 273.759,40.960 272.279,47.150 275.041 L 49.300 276.000 115.619 276.000 L 181.938 276.000 183.640 274.700 C 185.531 273.256,186.668 270.466,187.592 265.000 C 187.853 263.460,188.164 261.685,188.285 261.056 C 188.643 259.183,189.446 259.213,137.780 259.206 C 99.727 259.201,88.048 259.088,87.680 258.720 C 87.137 258.177,86.976 228.971,87.512 228.129 C 87.722 227.798,90.427 227.617,96.606 227.521 C 109.839 227.315,110.452 226.843,112.249 215.482 C 113.122 209.959,114.182 210.400,100.031 210.400 C 91.331 210.400,88.032 210.272,87.680 209.920 C 86.998 209.238,86.998 190.362,87.680 189.680 C 88.022 189.338,90.531 189.197,96.380 189.190 C 110.257 189.174,111.165 188.306,112.907 173.400 C 112.998 172.619,112.706 172.595,100.600 172.400 C 93.780 172.290,87.975 172.054,87.700 171.876 C 87.060 171.462,86.982 155.154,87.614 153.974 C 88.002 153.248,88.528 153.200,96.027 153.200 C 106.745 153.200,108.324 152.433,109.234 146.781 C 109.456 145.404,109.822 143.933,110.047 143.512 C 110.272 143.091,110.489 141.363,110.528 139.673 L 110.600 136.600 99.433 136.494 C 92.011 136.423,88.088 136.239,87.733 135.945 C 87.331 135.610,87.200 133.971,87.200 129.245 C 87.200 121.687,85.499 117.687,82.255 117.616 C 81.845 117.607,80.045 117.258,78.255 116.840 C 74.305 115.917,71.038 115.496,70.671 115.862 M272.689 115.844 C 272.530 116.003,272.397 127.128,272.394 140.567 C 272.390 155.258,272.237 165.239,272.009 165.600 C 271.681 166.119,268.768 166.215,250.532 166.310 C 234.430 166.395,229.361 166.537,229.123 166.910 C 228.299 168.207,228.765 218.023,229.629 221.105 C 231.189 226.664,235.131 230.927,240.622 232.994 L 243.295 234.000 291.748 234.002 L 340.200 234.004 343.022 232.977 C 348.081 231.136,351.672 227.587,353.523 222.600 L 354.414 220.200 354.307 193.400 L 354.200 166.600 323.268 166.400 C 293.231 166.206,292.319 166.178,291.768 165.424 C 291.295 164.777,291.200 161.208,291.200 144.070 C 291.200 129.401,291.064 123.040,290.727 121.915 C 290.013 119.529,287.712 117.755,284.879 117.406 C 283.625 117.251,281.610 116.885,280.400 116.593 C 277.570 115.909,273.062 115.471,272.689 115.844 M122.491 128.897 C 122.057 129.429,122.414 132.576,123.116 134.400 C 123.328 134.950,123.630 136.390,123.788 137.600 C 124.192 140.686,125.374 142.875,127.319 144.136 L 128.960 145.200 146.851 145.200 C 162.583 145.200,164.819 145.276,165.371 145.829 C 166.320 146.777,166.320 172.823,165.371 173.771 C 165.026 174.117,164.711 174.436,164.671 174.481 C 164.632 174.526,156.018 174.661,145.529 174.781 C 123.929 175.029,125.275 174.810,123.359 178.394 L 122.400 180.188 122.406 214.194 C 122.409 232.897,122.551 248.418,122.720 248.684 C 123.211 249.457,133.012 247.524,135.968 246.072 C 139.184 244.491,138.987 246.253,139.103 218.071 C 139.205 193.137,139.210 192.996,140.047 192.300 C 140.819 191.658,142.260 191.600,157.344 191.600 C 177.431 191.600,178.082 191.454,181.545 186.200 L 182.600 184.600 182.600 156.600 L 182.600 128.600 152.751 128.497 C 129.176 128.416,122.816 128.501,122.491 128.897 M307.800 131.795 C 305.293 132.972,303.631 135.588,303.604 138.400 C 303.597 139.170,303.235 141.240,302.800 143.000 C 302.365 144.760,302.007 146.965,302.005 147.900 L 302.000 149.600 324.842 149.600 L 347.685 149.600 349.219 148.385 C 351.061 146.926,352.225 144.124,352.843 139.659 C 353.076 137.977,353.519 135.626,353.828 134.435 C 354.243 132.838,354.274 132.130,353.946 131.735 C 353.273 130.923,309.534 130.980,307.800 131.795 M335.111 185.823 C 336.465 186.771,336.513 211.640,335.165 213.354 C 333.302 215.722,335.653 215.600,291.804 215.600 C 246.003 215.600,248.919 215.813,247.999 212.395 C 247.328 209.905,247.634 186.721,248.349 185.861 C 249.166 184.878,333.709 184.840,335.111 185.823 M179.284 204.189 C 178.340 204.484,176.450 204.849,175.084 205.000 C 171.409 205.408,168.386 206.880,167.076 208.901 L 166.000 210.560 166.000 225.632 L 166.000 240.703 165.016 242.852 C 164.475 244.033,163.133 245.885,162.034 246.967 C 159.341 249.619,159.293 249.600,168.813 249.600 C 178.303 249.600,179.725 249.255,181.620 246.489 L 182.600 245.059 182.711 224.884 C 182.838 201.642,183.065 203.009,179.284 204.189 M220.667 241.467 C 220.239 241.894,220.356 269.252,220.792 270.773 C 221.642 273.736,224.912 275.541,230.614 276.194 C 231.926 276.345,234.028 276.744,235.285 277.082 C 239.073 278.101,238.800 279.234,238.800 262.505 L 238.800 247.786 237.758 246.252 C 236.465 244.350,233.492 242.954,229.945 242.585 C 228.545 242.440,226.384 242.069,225.142 241.760 C 222.692 241.152,221.087 241.047,220.667 241.467 M344.825 241.770 C 344.475 242.191,344.386 245.925,344.482 256.070 C 344.657 274.602,344.813 274.900,355.000 276.186 C 356.100 276.325,358.203 276.732,359.674 277.090 C 363.922 278.124,363.658 279.129,363.516 262.436 C 363.410 249.860,363.315 248.058,362.708 246.979 C 361.173 244.254,358.816 243.108,353.262 242.386 C 351.427 242.147,349.480 241.782,348.936 241.576 C 347.474 241.020,345.365 241.120,344.825 241.770 M261.900 247.422 C 261.172 248.177,261.582 269.722,262.356 271.400 C 263.727 274.371,266.310 275.796,271.073 276.209 C 272.573 276.338,274.991 276.733,276.447 277.086 C 280.689 278.113,280.400 278.935,280.400 265.846 C 280.400 255.496,280.330 254.304,279.629 252.667 C 278.723 250.553,276.148 248.800,273.949 248.800 C 273.189 248.800,271.514 248.526,270.226 248.190 C 267.414 247.457,262.319 246.988,261.900 247.422 M303.391 248.439 C 303.242 249.121,303.241 254.566,303.390 260.539 C 303.748 274.835,304.035 275.287,313.437 276.341 C 315.397 276.561,317.507 276.934,318.126 277.170 C 318.745 277.407,319.780 277.600,320.426 277.600 L 321.600 277.600 321.600 265.214 L 321.600 252.828 320.398 251.458 C 318.982 249.846,316.962 248.800,315.265 248.800 C 314.597 248.800,312.554 248.441,310.725 248.003 C 305.601 246.774,303.733 246.885,303.391 248.439 " stroke="none" fill="#fbf8f8" fill-rule="evenodd"></path><path id="path1" d="M72.200 0.294 C 71.320 0.385,70.329 0.704,69.998 1.003 C 69.667 1.302,68.407 1.674,67.198 1.831 C 65.989 1.987,64.645 2.359,64.211 2.658 C 63.777 2.956,63.057 3.202,62.611 3.204 C 62.165 3.206,60.900 3.650,59.800 4.191 C 58.700 4.732,57.468 5.181,57.063 5.187 C 56.658 5.194,55.869 5.560,55.309 6.000 C 54.750 6.440,53.978 6.800,53.595 6.800 C 53.212 6.800,52.683 7.058,52.421 7.374 C 52.159 7.690,51.405 8.067,50.745 8.212 C 50.086 8.357,49.455 8.712,49.344 9.002 C 49.233 9.291,48.660 9.648,48.071 9.795 C 47.482 9.942,46.730 10.300,46.400 10.591 C 46.070 10.882,44.881 11.633,43.757 12.260 C 40.902 13.853,37.062 16.472,36.680 17.086 C 36.504 17.369,36.142 17.600,35.876 17.600 C 35.610 17.600,35.168 17.960,34.893 18.400 C 34.618 18.840,34.158 19.200,33.871 19.200 C 33.584 19.200,31.842 20.640,30.000 22.400 C 28.158 24.160,26.525 25.600,26.371 25.600 C 26.218 25.600,25.818 26.005,25.482 26.500 C 25.147 26.995,23.845 28.474,22.589 29.787 C 21.332 31.099,20.014 32.629,19.658 33.187 C 19.302 33.744,17.974 35.517,16.706 37.126 C 15.438 38.736,14.400 40.267,14.400 40.530 C 14.400 40.793,14.040 41.232,13.600 41.507 C 13.160 41.782,12.800 42.234,12.800 42.513 C 12.800 42.791,12.169 43.976,11.398 45.147 C 10.627 46.318,9.891 47.695,9.762 48.209 C 9.633 48.722,9.291 49.233,9.002 49.344 C 8.712 49.455,8.357 50.086,8.212 50.745 C 8.067 51.405,7.702 52.150,7.400 52.400 C 7.098 52.650,6.738 53.370,6.600 54.000 C 6.462 54.630,6.090 55.359,5.774 55.621 C 5.458 55.883,5.198 56.481,5.196 56.949 C 5.194 57.417,4.750 58.700,4.209 59.800 C 3.668 60.900,3.219 62.165,3.213 62.611 C 3.206 63.057,2.956 63.777,2.658 64.211 C 2.359 64.645,1.987 65.989,1.831 67.198 C 1.674 68.407,1.243 69.731,0.873 70.140 C -0.191 71.316,-0.166 329.112,0.898 330.287 C 1.282 330.711,1.708 331.945,1.846 333.029 C 1.983 334.113,2.344 335.399,2.648 335.886 C 2.952 336.373,3.200 337.100,3.200 337.501 C 3.200 337.903,3.558 338.934,3.996 339.793 C 4.434 340.652,4.903 341.944,5.038 342.663 C 5.173 343.383,5.523 344.170,5.816 344.413 C 6.109 344.656,6.462 345.370,6.600 346.000 C 6.738 346.630,7.110 347.359,7.426 347.621 C 7.742 347.883,8.000 348.401,8.000 348.771 C 8.000 349.142,8.450 350.055,9.000 350.800 C 9.550 351.545,10.000 352.331,10.000 352.546 C 10.000 352.761,10.250 353.221,10.555 353.569 C 10.861 353.916,11.608 355.161,12.216 356.336 C 12.824 357.511,13.564 358.565,13.861 358.679 C 14.157 358.792,14.400 359.066,14.400 359.287 C 14.400 359.874,16.877 363.600,17.267 363.600 C 17.450 363.600,17.600 363.876,17.600 364.213 C 17.600 364.549,17.846 364.920,18.147 365.035 C 18.448 365.151,19.251 366.090,19.932 367.123 C 21.993 370.251,32.747 380.800,33.875 380.800 C 34.160 380.800,34.618 381.160,34.893 381.600 C 35.168 382.040,35.619 382.400,35.896 382.400 C 36.173 382.400,36.400 382.567,36.400 382.772 C 36.400 383.187,39.827 385.600,40.417 385.600 C 40.624 385.600,41.018 385.960,41.293 386.400 C 41.568 386.840,42.087 387.200,42.447 387.200 C 42.807 387.200,43.320 387.463,43.587 387.785 C 43.854 388.106,44.434 388.484,44.876 388.624 C 45.317 388.764,46.021 389.221,46.439 389.639 C 46.858 390.058,47.532 390.400,47.938 390.400 C 48.344 390.400,49.002 390.760,49.400 391.200 C 49.798 391.640,50.524 392.000,51.013 392.000 C 51.502 392.000,52.117 392.258,52.379 392.574 C 52.641 392.890,53.370 393.262,54.000 393.400 C 54.630 393.538,55.348 393.896,55.595 394.194 C 55.843 394.493,56.745 394.856,57.600 395.000 C 58.455 395.144,59.362 395.514,59.617 395.821 C 59.872 396.128,60.737 396.484,61.540 396.613 C 62.343 396.742,63.480 397.109,64.067 397.427 C 64.654 397.746,66.004 398.119,67.067 398.257 C 68.130 398.395,69.334 398.798,69.742 399.154 C 70.884 400.148,329.116 400.148,330.258 399.154 C 330.666 398.798,331.888 398.392,332.974 398.251 C 334.060 398.110,335.320 397.755,335.774 397.461 C 336.228 397.167,337.297 396.816,338.150 396.681 C 339.002 396.545,339.992 396.179,340.350 395.868 C 340.707 395.556,341.657 395.184,342.460 395.040 C 343.263 394.896,344.140 394.514,344.409 394.189 C 344.678 393.865,345.212 393.600,345.595 393.600 C 345.978 393.600,346.750 393.240,347.309 392.800 C 347.869 392.360,348.705 392.000,349.167 392.000 C 349.629 392.000,350.316 391.640,350.693 391.200 C 351.070 390.760,351.653 390.400,351.989 390.399 C 352.325 390.399,353.637 389.679,354.904 388.799 C 356.172 387.920,357.470 387.200,357.790 387.200 C 358.110 387.200,358.553 386.861,358.775 386.446 C 358.997 386.031,359.590 385.589,360.093 385.463 C 360.596 385.336,361.704 384.596,362.554 383.817 C 363.405 383.037,364.249 382.400,364.430 382.400 C 364.612 382.400,364.904 382.174,365.080 381.899 C 365.256 381.623,366.135 380.899,367.033 380.291 C 369.220 378.809,376.512 371.636,379.123 368.400 C 380.277 366.970,381.441 365.541,381.710 365.224 C 383.693 362.891,385.600 360.215,385.600 359.766 C 385.600 359.470,385.960 359.035,386.400 358.800 C 386.840 358.565,387.200 358.092,387.200 357.750 C 387.200 357.407,387.920 356.101,388.800 354.846 C 389.680 353.592,390.400 352.286,390.400 351.945 C 390.400 351.603,390.760 350.998,391.200 350.600 C 391.640 350.202,392.000 349.527,392.000 349.101 C 392.000 348.675,392.360 347.869,392.800 347.309 C 393.240 346.750,393.600 345.978,393.600 345.595 C 393.600 345.212,393.865 344.678,394.189 344.409 C 394.514 344.140,394.896 343.263,395.040 342.460 C 395.184 341.657,395.556 340.707,395.868 340.350 C 396.179 339.992,396.545 339.002,396.681 338.150 C 396.816 337.297,397.167 336.228,397.461 335.774 C 397.755 335.320,398.110 334.060,398.251 332.974 C 398.392 331.888,398.798 330.666,399.154 330.258 C 400.148 329.116,400.148 70.884,399.154 69.742 C 398.798 69.334,398.392 68.112,398.251 67.026 C 398.110 65.940,397.726 64.642,397.398 64.140 C 397.069 63.639,396.799 62.817,396.799 62.314 C 396.798 61.811,396.448 60.828,396.022 60.129 C 395.596 59.430,395.128 58.222,394.982 57.443 C 394.836 56.665,394.477 55.830,394.184 55.587 C 393.891 55.344,393.538 54.630,393.400 54.000 C 393.262 53.370,392.890 52.641,392.574 52.379 C 392.258 52.117,392.000 51.502,392.000 51.013 C 392.000 50.524,391.640 49.798,391.200 49.400 C 390.760 49.002,390.400 48.397,390.400 48.055 C 390.400 47.714,389.704 46.437,388.853 45.217 C 388.002 43.998,387.185 42.612,387.037 42.137 C 386.890 41.662,386.506 41.173,386.185 41.050 C 385.863 40.926,385.600 40.577,385.600 40.275 C 385.600 39.972,385.240 39.398,384.800 39.000 C 384.360 38.602,384.000 38.066,384.000 37.810 C 384.000 37.554,383.595 36.958,383.100 36.486 C 381.451 34.912,380.800 34.136,380.800 33.744 C 380.800 32.527,367.304 19.200,366.071 19.200 C 365.827 19.200,365.435 18.840,365.200 18.400 C 364.965 17.960,364.508 17.600,364.186 17.600 C 363.864 17.600,363.600 17.449,363.600 17.265 C 363.600 17.080,362.401 16.135,360.936 15.165 C 359.471 14.194,357.806 13.086,357.236 12.701 C 356.666 12.317,355.705 11.804,355.100 11.562 C 354.495 11.320,354.000 10.981,354.000 10.809 C 354.000 10.638,353.415 10.262,352.700 9.976 C 351.985 9.689,350.971 9.127,350.446 8.727 C 349.921 8.327,349.178 8.000,348.795 8.000 C 348.412 8.000,347.883 7.742,347.621 7.426 C 347.359 7.110,346.630 6.738,346.000 6.600 C 345.370 6.462,344.652 6.104,344.405 5.806 C 344.157 5.507,343.255 5.144,342.400 5.000 C 341.545 4.856,340.645 4.496,340.400 4.200 C 340.155 3.904,339.203 3.536,338.286 3.381 C 337.368 3.226,336.254 2.873,335.809 2.597 C 335.364 2.321,334.113 1.983,333.029 1.846 C 331.945 1.708,330.711 1.282,330.287 0.898 C 329.563 0.243,78.395 -0.345,72.200 0.294 M73.450 114.541 C 74.302 114.838,75.990 115.209,77.200 115.364 C 81.850 115.961,84.684 117.124,86.307 119.103 L 87.800 120.924 87.927 127.955 C 88.014 132.807,88.200 135.079,88.527 135.287 C 88.787 135.452,94.063 135.591,100.251 135.594 C 112.552 135.601,112.716 135.632,112.279 137.896 C 112.162 138.503,111.856 140.260,111.601 141.800 C 109.693 153.298,108.307 154.466,96.200 154.788 L 88.200 155.000 88.200 163.000 L 88.200 171.000 100.639 171.200 C 115.530 171.439,115.423 171.400,113.796 176.010 C 113.464 176.951,113.091 178.729,112.966 179.961 C 112.070 188.823,109.691 190.400,97.216 190.400 C 90.642 190.400,88.802 190.515,88.441 190.951 C 88.122 191.335,88.017 194.133,88.092 200.251 L 88.200 209.000 101.000 209.214 C 108.040 209.332,113.831 209.467,113.868 209.514 C 114.359 210.132,114.267 212.387,113.651 214.800 C 113.231 216.450,112.767 218.771,112.622 219.958 C 112.227 223.175,110.711 225.726,108.200 227.400 C 107.110 228.127,106.138 228.218,97.600 228.400 L 88.200 228.600 88.200 243.200 L 88.200 257.800 138.292 257.902 L 188.384 258.003 189.051 259.022 C 189.675 259.974,189.673 260.254,189.032 263.320 C 188.655 265.124,188.129 267.773,187.864 269.207 C 187.258 272.485,186.229 274.261,184.046 275.794 L 182.331 277.000 115.266 277.000 L 48.200 277.000 46.200 275.937 C 43.993 274.765,42.621 273.419,41.164 271.000 L 40.200 269.400 40.083 239.305 C 39.999 217.621,40.092 208.975,40.416 208.371 C 41.469 206.403,53.319 208.773,56.531 211.593 C 59.131 213.876,59.200 214.539,59.200 237.082 C 59.200 260.159,58.705 258.000,64.000 258.000 C 66.453 258.000,68.013 257.827,68.320 257.520 C 69.271 256.569,68.984 191.327,68.026 190.814 C 67.555 190.562,63.507 190.400,57.659 190.400 C 47.031 190.400,45.433 190.093,43.153 187.607 C 42.057 186.413,40.400 181.186,40.400 178.923 C 40.400 178.251,40.130 176.935,39.800 176.000 C 38.100 171.182,38.045 171.200,54.811 171.200 L 68.385 171.200 68.606 170.300 C 68.728 169.805,68.776 166.160,68.714 162.200 L 68.600 155.000 59.000 154.785 C 47.131 154.518,44.292 153.369,43.415 148.474 C 43.270 147.663,42.905 146.100,42.605 145.000 C 41.586 141.276,41.088 136.816,41.619 136.177 C 42.018 135.697,44.206 135.600,54.675 135.600 C 62.580 135.600,67.540 135.446,68.026 135.186 C 68.758 134.794,68.800 134.253,68.800 125.117 C 68.800 113.363,68.969 112.978,73.450 114.541 M275.832 114.412 C 276.428 114.639,278.285 115.003,279.958 115.222 C 286.948 116.135,289.621 117.326,291.488 120.358 C 292.374 121.799,292.375 121.818,292.388 142.867 C 292.394 154.454,292.509 164.219,292.643 164.567 C 292.861 165.137,295.965 165.200,323.643 165.200 C 353.867 165.200,354.414 165.214,355.200 166.000 C 356.291 167.091,356.456 215.211,355.386 220.340 C 354.048 226.754,350.391 231.145,344.000 234.013 L 341.800 235.000 291.779 235.000 L 241.759 235.000 238.581 233.429 C 233.532 230.934,231.248 228.373,228.647 222.286 C 227.553 219.727,227.673 166.203,228.774 165.614 C 229.279 165.344,236.769 165.200,250.331 165.200 C 268.914 165.200,271.140 165.133,271.357 164.567 C 271.491 164.219,271.600 152.915,271.600 139.447 C 271.600 120.935,271.717 114.843,272.080 114.480 C 272.669 113.891,274.380 113.860,275.832 114.412 M183.493 128.190 L 184.517 129.381 184.233 155.990 C 183.884 188.705,184.019 187.995,177.513 191.410 L 175.627 192.400 158.693 192.400 C 146.056 192.400,141.638 192.522,141.280 192.880 C 140.918 193.242,140.798 199.241,140.791 217.380 C 140.783 240.693,140.758 241.453,139.966 243.200 C 138.415 246.623,135.959 248.174,131.128 248.782 C 129.659 248.967,128.274 249.231,128.051 249.368 C 127.044 249.991,123.194 250.425,122.409 250.005 C 121.606 249.575,121.600 249.288,121.600 214.065 L 121.600 178.558 122.846 176.864 C 125.437 173.340,124.974 173.414,145.200 173.301 C 154.990 173.246,163.405 173.108,163.900 172.993 L 164.800 172.785 164.800 160.221 C 164.800 149.333,164.716 147.573,164.171 147.029 C 163.620 146.477,161.492 146.400,146.871 146.398 C 123.789 146.395,124.380 146.652,122.067 135.600 C 120.642 128.797,120.639 128.697,121.797 127.702 L 122.862 126.785 152.666 126.893 L 182.469 127.000 183.493 128.190 M354.571 130.229 C 355.379 131.036,355.377 133.737,354.567 137.400 C 354.227 138.940,353.802 141.280,353.623 142.600 C 353.100 146.457,350.859 149.562,348.000 150.390 C 345.207 151.199,301.835 150.923,301.082 150.091 C 300.344 149.275,300.620 146.442,302.028 140.400 C 302.464 138.530,302.816 136.630,302.810 136.178 C 302.791 134.626,305.050 131.693,307.080 130.637 L 309.000 129.637 331.471 129.619 C 351.383 129.602,354.014 129.672,354.571 130.229 M249.068 186.665 C 248.921 186.813,248.800 192.582,248.800 199.485 L 248.800 212.036 249.782 213.018 L 250.764 214.000 291.782 214.000 C 332.361 214.000,332.809 213.991,333.606 213.194 C 334.384 212.416,334.408 211.959,334.306 199.494 L 334.200 186.600 291.768 186.498 C 268.431 186.442,249.216 186.517,249.068 186.665 M183.334 203.302 C 183.971 203.768,184.013 205.307,183.911 224.202 C 183.785 247.335,183.901 246.499,180.469 249.092 L 178.738 250.400 169.218 250.400 C 157.396 250.400,156.892 250.113,161.404 245.953 C 164.660 242.952,164.798 242.145,164.810 226.085 C 164.820 211.449,165.005 209.527,166.601 207.435 C 167.741 205.940,170.586 204.405,172.244 204.389 C 172.880 204.384,174.660 204.035,176.200 203.614 C 179.474 202.719,182.364 202.593,183.334 203.302 M227.734 241.036 C 229.018 241.347,231.088 241.714,232.334 241.851 C 239.533 242.647,240.491 245.296,240.320 263.928 C 240.172 280.152,240.433 279.733,231.800 277.600 C 230.040 277.165,228.009 276.807,227.287 276.805 C 225.736 276.799,222.567 275.273,221.314 273.928 C 219.345 271.817,219.200 270.540,219.200 255.372 C 219.200 238.133,218.764 238.865,227.734 241.036 M351.800 240.885 C 352.680 241.103,354.660 241.489,356.200 241.742 C 359.720 242.320,361.922 243.568,363.319 245.775 L 364.410 247.499 364.305 262.850 L 364.200 278.200 361.747 278.318 C 360.206 278.392,358.134 278.132,356.172 277.618 C 354.454 277.168,352.442 276.800,351.700 276.800 C 349.335 276.800,346.101 274.957,344.783 272.859 L 343.615 271.000 343.608 255.920 C 343.601 241.975,343.653 240.809,344.300 240.432 C 345.062 239.987,349.194 240.237,351.800 240.885 M308.221 246.396 C 318.073 247.625,321.208 249.096,322.585 253.138 C 323.328 255.318,323.500 276.292,322.786 277.626 C 322.259 278.610,318.120 278.700,314.673 277.802 C 313.411 277.473,311.348 277.088,310.089 276.946 C 302.979 276.144,302.010 273.931,302.004 258.482 L 302.000 247.564 303.003 246.560 C 303.555 246.008,304.149 245.645,304.324 245.753 C 304.498 245.861,306.252 246.150,308.221 246.396 M267.000 246.413 C 275.262 247.357,278.844 248.781,280.639 251.835 C 281.759 253.741,282.185 276.855,281.120 277.920 C 280.403 278.637,276.259 278.485,272.400 277.600 C 270.530 277.171,268.499 276.816,267.887 276.810 C 265.870 276.792,262.992 274.998,261.848 273.047 L 260.800 271.258 260.800 259.109 C 260.800 244.384,260.189 245.635,267.000 246.413 " stroke="none" fill="#ec1225" fill-rule="evenodd"></path><path id="path2" d="M69.462 114.731 C 68.884 115.370,68.800 116.695,68.800 125.117 C 68.800 134.253,68.758 134.794,68.026 135.186 C 67.540 135.446,62.580 135.600,54.675 135.600 C 44.206 135.600,42.018 135.697,41.619 136.177 C 41.088 136.816,41.586 141.276,42.605 145.000 C 42.905 146.100,43.270 147.663,43.415 148.474 C 44.292 153.369,47.131 154.518,59.000 154.785 L 68.600 155.000 68.714 162.200 C 68.776 166.160,68.728 169.805,68.606 170.300 L 68.385 171.200 54.811 171.200 C 38.045 171.200,38.100 171.182,39.800 176.000 C 40.130 176.935,40.400 178.251,40.400 178.923 C 40.400 181.186,42.057 186.413,43.153 187.607 C 45.433 190.093,47.031 190.400,57.659 190.400 C 63.507 190.400,67.555 190.562,68.026 190.814 C 68.984 191.327,69.271 256.569,68.320 257.520 C 68.013 257.827,66.453 258.000,64.000 258.000 C 58.705 258.000,59.200 260.159,59.200 237.082 C 59.200 214.539,59.131 213.876,56.531 211.593 C 53.319 208.773,41.469 206.403,40.416 208.371 C 40.092 208.975,39.999 217.621,40.083 239.305 L 40.200 269.400 41.164 271.000 C 42.621 273.419,43.993 274.765,46.200 275.937 L 48.200 277.000 115.266 277.000 L 182.331 277.000 184.046 275.794 C 186.229 274.261,187.258 272.485,187.864 269.207 C 188.129 267.773,188.655 265.124,189.032 263.320 C 189.673 260.254,189.675 259.974,189.051 259.022 L 188.384 258.003 138.292 257.902 L 88.200 257.800 88.200 243.200 L 88.200 228.600 97.600 228.400 C 106.138 228.218,107.110 228.127,108.200 227.400 C 110.711 225.726,112.227 223.175,112.622 219.958 C 112.767 218.771,113.231 216.450,113.651 214.800 C 114.267 212.387,114.359 210.132,113.868 209.514 C 113.831 209.467,108.040 209.332,101.000 209.214 L 88.200 209.000 88.092 200.251 C 88.017 194.133,88.122 191.335,88.441 190.951 C 88.802 190.515,90.642 190.400,97.216 190.400 C 109.691 190.400,112.070 188.823,112.966 179.961 C 113.091 178.729,113.464 176.951,113.796 176.010 C 115.423 171.400,115.530 171.439,100.639 171.200 L 88.200 171.000 88.200 163.000 L 88.200 155.000 96.200 154.788 C 108.307 154.466,109.693 153.298,111.601 141.800 C 111.856 140.260,112.162 138.503,112.279 137.896 C 112.716 135.632,112.552 135.601,100.251 135.594 C 94.063 135.591,88.787 135.452,88.527 135.287 C 88.200 135.079,88.014 132.807,87.927 127.955 L 87.800 120.924 86.307 119.103 C 84.684 117.124,81.850 115.961,77.200 115.364 C 75.990 115.209,74.302 114.838,73.450 114.541 C 71.350 113.808,70.250 113.861,69.462 114.731 M272.080 114.480 C 271.717 114.843,271.600 120.935,271.600 139.447 C 271.600 152.915,271.491 164.219,271.357 164.567 C 271.140 165.133,268.914 165.200,250.331 165.200 C 236.769 165.200,229.279 165.344,228.774 165.614 C 227.673 166.203,227.553 219.727,228.647 222.286 C 231.248 228.373,233.532 230.934,238.581 233.429 L 241.759 235.000 291.779 235.000 L 341.800 235.000 344.000 234.013 C 350.391 231.145,354.048 226.754,355.386 220.340 C 356.456 215.211,356.291 167.091,355.200 166.000 C 354.414 165.214,353.867 165.200,323.643 165.200 C 295.965 165.200,292.861 165.137,292.643 164.567 C 292.509 164.219,292.394 154.454,292.388 142.867 C 292.375 121.818,292.374 121.799,291.488 120.358 C 289.621 117.326,286.948 116.135,279.958 115.222 C 278.285 115.003,276.428 114.639,275.832 114.412 C 274.380 113.860,272.669 113.891,272.080 114.480 M78.255 116.840 C 80.045 117.258,81.845 117.607,82.255 117.616 C 85.499 117.687,87.200 121.687,87.200 129.245 C 87.200 133.971,87.331 135.610,87.733 135.945 C 88.088 136.239,92.011 136.423,99.433 136.494 L 110.600 136.600 110.528 139.673 C 110.489 141.363,110.272 143.091,110.047 143.512 C 109.822 143.933,109.456 145.404,109.234 146.781 C 108.324 152.433,106.745 153.200,96.027 153.200 C 88.528 153.200,88.002 153.248,87.614 153.974 C 86.982 155.154,87.060 171.462,87.700 171.876 C 87.975 172.054,93.780 172.290,100.600 172.400 C 112.706 172.595,112.998 172.619,112.907 173.400 C 111.165 188.306,110.257 189.174,96.380 189.190 C 90.531 189.197,88.022 189.338,87.680 189.680 C 86.998 190.362,86.998 209.238,87.680 209.920 C 88.032 210.272,91.331 210.400,100.031 210.400 C 114.182 210.400,113.122 209.959,112.249 215.482 C 110.452 226.843,109.839 227.315,96.606 227.521 C 90.427 227.617,87.722 227.798,87.512 228.129 C 86.976 228.971,87.137 258.177,87.680 258.720 C 88.048 259.088,99.727 259.201,137.780 259.206 C 189.446 259.213,188.643 259.183,188.285 261.056 C 188.164 261.685,187.853 263.460,187.592 265.000 C 186.668 270.466,185.531 273.256,183.640 274.700 L 181.938 276.000 115.619 276.000 L 49.300 276.000 47.150 275.041 C 40.960 272.279,41.200 273.759,41.200 238.416 L 41.200 208.400 42.150 208.400 C 42.672 208.400,43.797 208.643,44.650 208.940 C 45.502 209.237,47.231 209.598,48.492 209.742 C 51.871 210.130,54.958 211.418,56.376 213.034 L 57.600 214.428 57.600 235.640 C 57.600 256.819,57.671 258.033,58.960 258.894 C 60.176 259.706,69.138 259.223,69.777 258.311 C 70.676 257.028,70.730 191.404,69.833 190.176 C 69.302 189.449,68.566 189.387,58.133 189.200 C 44.345 188.952,43.291 188.523,42.367 182.788 C 42.157 181.480,41.816 179.969,41.611 179.429 C 41.406 178.889,41.115 177.093,40.965 175.438 L 40.692 172.430 54.979 172.315 C 68.588 172.205,69.292 172.163,69.833 171.424 C 70.975 169.860,70.627 155.391,69.418 154.182 L 68.436 153.200 59.005 153.200 C 46.961 153.200,44.889 152.313,44.204 146.867 C 44.075 145.840,43.693 144.010,43.355 142.800 C 43.017 141.590,42.709 139.700,42.670 138.600 L 42.600 136.600 55.839 136.400 C 66.244 136.243,69.220 136.082,69.739 135.651 C 70.320 135.169,70.400 133.948,70.400 125.618 C 70.400 120.401,70.522 116.011,70.671 115.862 C 71.038 115.496,74.305 115.917,78.255 116.840 M280.400 116.593 C 281.610 116.885,283.625 117.251,284.879 117.406 C 287.712 117.755,290.013 119.529,290.727 121.915 C 291.064 123.040,291.200 129.401,291.200 144.070 C 291.200 161.208,291.295 164.777,291.768 165.424 C 292.319 166.178,293.231 166.206,323.268 166.400 L 354.200 166.600 354.307 193.400 L 354.414 220.200 353.523 222.600 C 351.672 227.587,348.081 231.136,343.022 232.977 L 340.200 234.004 291.748 234.002 L 243.295 234.000 240.622 232.994 C 235.131 230.927,231.189 226.664,229.629 221.105 C 228.765 218.023,228.299 168.207,229.123 166.910 C 229.361 166.537,234.430 166.395,250.532 166.310 C 268.768 166.215,271.681 166.119,272.009 165.600 C 272.237 165.239,272.390 155.258,272.394 140.567 C 272.397 127.128,272.530 116.003,272.689 115.844 C 273.062 115.471,277.570 115.909,280.400 116.593 M121.797 127.702 C 120.639 128.697,120.642 128.797,122.067 135.600 C 124.380 146.652,123.789 146.395,146.871 146.398 C 161.492 146.400,163.620 146.477,164.171 147.029 C 164.716 147.573,164.800 149.333,164.800 160.221 L 164.800 172.785 163.900 172.993 C 163.405 173.108,154.990 173.246,145.200 173.301 C 124.974 173.414,125.437 173.340,122.846 176.864 L 121.600 178.558 121.600 214.065 C 121.600 249.288,121.606 249.575,122.409 250.005 C 123.194 250.425,127.044 249.991,128.051 249.368 C 128.274 249.231,129.659 248.967,131.128 248.782 C 135.959 248.174,138.415 246.623,139.966 243.200 C 140.758 241.453,140.783 240.693,140.791 217.380 C 140.798 199.241,140.918 193.242,141.280 192.880 C 141.638 192.522,146.056 192.400,158.693 192.400 L 175.627 192.400 177.513 191.410 C 184.019 187.995,183.884 188.705,184.233 155.990 L 184.517 129.381 183.493 128.190 L 182.469 127.000 152.666 126.893 L 122.862 126.785 121.797 127.702 M182.600 156.600 L 182.600 184.600 181.545 186.200 C 178.082 191.454,177.431 191.600,157.344 191.600 C 142.260 191.600,140.819 191.658,140.047 192.300 C 139.210 192.996,139.205 193.137,139.103 218.071 C 138.987 246.253,139.184 244.491,135.968 246.072 C 133.012 247.524,123.211 249.457,122.720 248.684 C 122.551 248.418,122.409 232.897,122.406 214.194 L 122.400 180.188 123.359 178.394 C 125.275 174.810,123.929 175.029,145.529 174.781 C 156.018 174.661,164.632 174.526,164.671 174.481 C 164.711 174.436,165.026 174.117,165.371 173.771 C 166.320 172.823,166.320 146.777,165.371 145.829 C 164.819 145.276,162.583 145.200,146.851 145.200 L 128.960 145.200 127.319 144.136 C 125.374 142.875,124.192 140.686,123.788 137.600 C 123.630 136.390,123.328 134.950,123.116 134.400 C 122.414 132.576,122.057 129.429,122.491 128.897 C 122.816 128.501,129.176 128.416,152.751 128.497 L 182.600 128.600 182.600 156.600 M307.080 130.637 C 305.050 131.693,302.791 134.626,302.810 136.178 C 302.816 136.630,302.464 138.530,302.028 140.400 C 300.620 146.442,300.344 149.275,301.082 150.091 C 301.835 150.923,345.207 151.199,348.000 150.390 C 350.859 149.562,353.100 146.457,353.623 142.600 C 353.802 141.280,354.227 138.940,354.567 137.400 C 356.431 128.970,358.291 129.596,331.471 129.619 L 309.000 129.637 307.080 130.637 M353.946 131.735 C 354.274 132.130,354.243 132.838,353.828 134.435 C 353.519 135.626,353.076 137.977,352.843 139.659 C 352.225 144.124,351.061 146.926,349.219 148.385 L 347.685 149.600 324.842 149.600 L 302.000 149.600 302.005 147.900 C 302.007 146.965,302.365 144.760,302.800 143.000 C 303.235 141.240,303.597 139.170,303.604 138.400 C 303.631 135.588,305.293 132.972,307.800 131.795 C 309.534 130.980,353.273 130.923,353.946 131.735 M248.349 185.861 C 247.634 186.721,247.328 209.905,247.999 212.395 C 248.919 215.813,246.003 215.600,291.804 215.600 C 335.653 215.600,333.302 215.722,335.165 213.354 C 336.513 211.640,336.465 186.771,335.111 185.823 C 333.709 184.840,249.166 184.878,248.349 185.861 M334.306 199.494 C 334.408 211.959,334.384 212.416,333.606 213.194 C 332.809 213.991,332.361 214.000,291.782 214.000 L 250.764 214.000 249.782 213.018 L 248.800 212.036 248.800 199.485 C 248.800 192.582,248.921 186.813,249.068 186.665 C 249.216 186.517,268.431 186.442,291.768 186.498 L 334.200 186.600 334.306 199.494 M176.200 203.614 C 174.660 204.035,172.880 204.384,172.244 204.389 C 170.586 204.405,167.741 205.940,166.601 207.435 C 165.005 209.527,164.820 211.449,164.810 226.085 C 164.798 242.145,164.660 242.952,161.404 245.953 C 156.892 250.113,157.396 250.400,169.218 250.400 L 178.738 250.400 180.469 249.092 C 183.901 246.499,183.785 247.335,183.911 224.202 C 184.036 201.162,184.269 202.779,180.824 202.824 C 179.821 202.837,177.740 203.193,176.200 203.614 M182.362 204.154 C 182.698 204.559,182.792 210.129,182.711 224.884 L 182.600 245.059 181.620 246.489 C 179.725 249.255,178.303 249.600,168.813 249.600 C 159.293 249.600,159.341 249.619,162.034 246.967 C 163.133 245.885,164.475 244.033,165.016 242.852 L 166.000 240.703 166.000 225.632 L 166.000 210.560 167.076 208.901 C 168.386 206.880,171.409 205.408,175.084 205.000 C 176.450 204.849,178.340 204.484,179.284 204.189 C 181.511 203.494,181.811 203.491,182.362 204.154 M220.080 240.629 C 218.919 241.442,218.687 268.045,219.814 271.238 C 220.860 274.204,224.337 276.794,227.287 276.805 C 228.009 276.807,230.040 277.165,231.800 277.600 C 240.433 279.733,240.172 280.152,240.320 263.928 C 240.491 245.296,239.533 242.647,232.334 241.851 C 231.088 241.714,229.018 241.347,227.734 241.036 C 223.760 240.074,221.076 239.931,220.080 240.629 M344.300 240.432 C 343.653 240.809,343.601 241.975,343.608 255.920 L 343.615 271.000 344.783 272.859 C 346.101 274.957,349.335 276.800,351.700 276.800 C 352.442 276.800,354.454 277.168,356.172 277.618 C 358.134 278.132,360.206 278.392,361.747 278.318 L 364.200 278.200 364.305 262.850 L 364.410 247.499 363.319 245.775 C 361.922 243.568,359.720 242.320,356.200 241.742 C 354.660 241.489,352.680 241.103,351.800 240.885 C 349.194 240.237,345.062 239.987,344.300 240.432 M225.142 241.760 C 226.384 242.069,228.545 242.440,229.945 242.585 C 233.492 242.954,236.465 244.350,237.758 246.252 L 238.800 247.786 238.800 262.505 C 238.800 279.234,239.073 278.101,235.285 277.082 C 234.028 276.744,231.926 276.345,230.614 276.194 C 224.912 275.541,221.642 273.736,220.792 270.773 C 220.356 269.252,220.239 241.894,220.667 241.467 C 221.087 241.047,222.692 241.152,225.142 241.760 M348.936 241.576 C 349.480 241.782,351.427 242.147,353.262 242.386 C 358.816 243.108,361.173 244.254,362.708 246.979 C 363.315 248.058,363.410 249.860,363.516 262.436 C 363.658 279.129,363.922 278.124,359.674 277.090 C 358.203 276.732,356.100 276.325,355.000 276.186 C 344.813 274.900,344.657 274.602,344.482 256.070 C 344.331 240.167,344.425 239.861,348.936 241.576 M303.003 246.560 L 302.000 247.564 302.004 258.482 C 302.010 273.931,302.979 276.144,310.089 276.946 C 311.348 277.088,313.411 277.473,314.673 277.802 C 318.120 278.700,322.259 278.610,322.786 277.626 C 323.500 276.292,323.328 255.318,322.585 253.138 C 321.208 249.096,318.073 247.625,308.221 246.396 C 306.252 246.150,304.498 245.861,304.324 245.753 C 304.149 245.645,303.555 246.008,303.003 246.560 M261.280 246.480 C 260.928 246.832,260.800 250.193,260.800 259.109 L 260.800 271.258 261.848 273.047 C 262.992 274.998,265.870 276.792,267.887 276.810 C 268.499 276.816,270.530 277.171,272.400 277.600 C 276.259 278.485,280.403 278.637,281.120 277.920 C 282.185 276.855,281.759 253.741,280.639 251.835 C 278.844 248.781,275.262 247.357,267.000 246.413 C 262.414 245.890,261.864 245.896,261.280 246.480 M270.226 248.190 C 271.514 248.526,273.189 248.800,273.949 248.800 C 276.148 248.800,278.723 250.553,279.629 252.667 C 280.330 254.304,280.400 255.496,280.400 265.846 C 280.400 278.935,280.689 278.113,276.447 277.086 C 274.991 276.733,272.573 276.338,271.073 276.209 C 266.310 275.796,263.727 274.371,262.356 271.400 C 261.582 269.722,261.172 248.177,261.900 247.422 C 262.319 246.988,267.414 247.457,270.226 248.190 M310.725 248.003 C 312.554 248.441,314.597 248.800,315.265 248.800 C 316.962 248.800,318.982 249.846,320.398 251.458 L 321.600 252.828 321.600 265.214 L 321.600 277.600 320.426 277.600 C 319.780 277.600,318.745 277.407,318.126 277.170 C 317.507 276.934,315.397 276.561,313.437 276.341 C 304.035 275.287,303.748 274.835,303.390 260.539 C 303.017 245.578,302.721 246.084,310.725 248.003 " stroke="none" fill="#f48c94" fill-rule="evenodd"></path></g></svg>