<svg id="svg" version="1.1" xmlns="http://www.w3.org/2000/svg" xmlns:xlink="http://www.w3.org/1999/xlink" width="48" height="48" viewBox="0 0 400 400"><g id="svgg"><path id="path0" d="M87.518 37.617 C 85.603 37.790,83.878 38.028,83.686 38.147 C 83.494 38.266,82.091 38.558,80.568 38.796 C 76.811 39.383,72.568 41.047,67.000 44.118 C 54.494 51.014,44.501 65.396,42.345 79.600 C 41.672 84.036,41.383 121.056,42.016 121.819 C 42.433 122.322,50.000 122.400,98.327 122.400 L 154.157 122.400 155.666 121.354 C 159.421 118.752,162.456 111.955,164.396 101.800 C 164.606 100.700,165.071 98.270,165.429 96.400 C 165.787 94.530,166.251 91.830,166.460 90.400 C 166.668 88.970,167.123 86.270,167.471 84.400 C 167.818 82.530,168.332 79.470,168.613 77.600 C 168.895 75.730,169.412 73.412,169.762 72.450 C 170.113 71.487,170.400 70.358,170.400 69.941 C 170.400 69.523,170.955 67.860,171.633 66.243 C 175.339 57.414,180.784 58.720,183.888 69.183 C 184.872 72.502,185.219 74.224,186.585 82.600 C 186.944 84.800,187.578 88.400,187.993 90.600 C 188.407 92.800,188.853 95.500,188.983 96.600 C 191.075 114.313,199.343 125.222,204.657 117.280 C 205.862 115.478,207.597 111.843,207.598 111.115 C 207.599 110.738,207.935 109.568,208.344 108.515 C 208.754 107.462,209.209 105.664,209.355 104.521 C 209.502 103.378,209.977 101.054,210.411 99.357 C 210.845 97.660,211.200 95.578,211.200 94.729 C 211.200 93.880,211.547 91.524,211.972 89.493 C 212.396 87.462,212.942 84.000,213.185 81.800 C 213.428 79.600,213.793 77.170,213.996 76.400 C 214.199 75.630,214.561 73.380,214.801 71.400 C 215.041 69.420,215.576 66.450,215.990 64.800 C 216.405 63.150,216.923 60.990,217.142 60.000 C 217.642 57.743,218.720 54.452,219.303 53.400 C 219.547 52.960,219.993 52.113,220.294 51.519 C 224.433 43.328,231.602 52.004,233.416 67.400 C 233.546 68.500,233.905 70.580,234.213 72.023 C 234.522 73.465,234.972 76.795,235.214 79.423 C 235.455 82.050,235.833 85.010,236.052 86.000 C 236.272 86.990,236.708 90.579,237.020 93.975 C 237.333 97.372,237.853 101.602,238.176 103.375 C 238.500 105.149,238.929 107.860,239.131 109.400 C 240.857 122.550,244.036 125.528,248.421 118.100 C 249.745 115.858,254.000 117.121,254.000 119.756 C 254.000 120.028,254.506 120.735,255.123 121.327 L 256.247 122.403 307.623 122.302 L 359.000 122.200 359.000 101.200 C 359.000 76.371,358.728 74.442,353.930 65.251 C 353.199 63.850,352.266 62.050,351.857 61.251 C 349.288 56.230,339.313 46.528,334.354 44.228 C 333.609 43.882,332.055 43.081,330.899 42.447 C 327.707 40.696,324.570 39.662,317.800 38.133 C 314.364 37.357,95.840 36.867,87.518 37.617 M42.800 133.487 C 41.646 133.935,41.612 134.801,41.606 163.703 C 41.599 197.780,41.668 198.716,44.606 204.604 C 46.733 208.866,52.153 214.800,53.919 214.800 C 54.124 214.800,54.745 215.156,55.298 215.591 C 55.852 216.027,57.795 216.854,59.618 217.429 L 62.931 218.476 198.846 218.420 C 275.220 218.389,335.689 218.210,336.880 218.012 C 347.708 216.208,354.517 210.486,358.076 200.200 L 359.183 197.000 359.191 165.514 C 359.200 134.672,359.184 134.020,358.418 133.610 C 357.882 133.323,341.705 133.224,307.060 133.295 C 249.651 133.414,255.721 133.012,253.790 136.821 C 251.961 140.427,249.932 140.278,247.366 136.348 C 244.895 132.563,241.905 133.324,240.972 137.976 C 240.859 138.539,240.426 140.350,240.010 142.000 C 239.593 143.650,239.049 146.752,238.800 148.894 C 238.551 151.035,238.183 153.363,237.981 154.066 C 237.779 154.770,237.424 157.698,237.191 160.573 C 236.959 163.448,236.509 167.240,236.192 169.000 C 235.875 170.760,235.429 174.348,235.200 176.973 C 234.971 179.599,234.533 182.749,234.225 183.973 C 233.918 185.198,233.550 187.370,233.406 188.800 C 233.263 190.230,232.890 192.210,232.578 193.200 C 232.266 194.190,231.832 195.944,231.616 197.099 C 231.399 198.253,230.878 199.963,230.458 200.899 C 230.039 201.834,229.580 202.979,229.439 203.443 C 228.881 205.277,226.218 207.600,224.675 207.600 C 222.326 207.600,218.400 202.995,218.400 200.240 C 218.400 199.866,218.145 199.067,217.833 198.463 C 217.521 197.860,217.061 196.241,216.812 194.866 C 216.563 193.492,216.008 190.995,215.579 189.319 C 215.151 187.643,214.797 185.626,214.794 184.836 C 214.790 184.046,214.451 181.780,214.039 179.800 C 213.627 177.820,213.167 174.760,213.016 173.000 C 212.864 171.240,212.491 168.810,212.185 167.600 C 211.880 166.390,211.438 163.690,211.204 161.600 C 210.969 159.510,210.519 156.810,210.204 155.600 C 209.889 154.390,209.368 152.140,209.046 150.600 C 206.731 139.521,203.367 135.161,198.399 136.800 C 194.663 138.033,190.147 148.970,188.984 159.600 C 188.852 160.810,188.412 163.330,188.007 165.200 C 187.602 167.070,187.148 169.860,186.999 171.400 C 186.849 172.940,186.385 175.640,185.966 177.400 C 185.548 179.160,185.205 181.050,185.205 181.600 C 185.199 186.864,180.227 196.007,177.375 195.997 C 173.899 195.986,169.580 187.165,168.563 178.000 C 168.429 176.790,168.074 174.810,167.775 173.600 C 167.475 172.390,167.037 169.697,166.802 167.615 C 166.566 165.533,166.115 162.923,165.800 161.815 C 165.484 160.707,165.050 158.352,164.835 156.583 C 164.619 154.813,164.240 152.833,163.991 152.183 C 163.743 151.532,163.357 150.010,163.134 148.800 C 162.074 143.047,158.734 136.885,155.400 134.530 L 153.800 133.400 98.600 133.327 C 68.240 133.286,43.130 133.358,42.800 133.487 " stroke="none" fill="#fcfbfb" fill-rule="evenodd"></path><path id="path1" d="M68.000 0.624 C 68.000 1.009,67.815 1.133,67.517 0.949 C 66.749 0.474,65.236 0.419,64.966 0.855 C 64.831 1.074,64.963 1.220,65.260 1.179 C 66.549 1.002,66.813 1.209,66.564 2.200 C 66.344 3.078,66.442 3.200,67.374 3.200 C 68.163 3.200,68.405 3.020,68.318 2.500 C 68.240 2.041,68.496 1.758,69.059 1.678 C 70.487 1.474,70.578 0.000,69.163 0.000 C 68.376 0.000,68.000 0.202,68.000 0.624 M329.757 0.633 C 329.891 0.981,330.000 1.351,330.000 1.456 C 330.000 1.561,330.180 1.536,330.400 1.400 C 330.620 1.264,330.800 1.365,330.800 1.625 C 330.800 1.978,330.953 1.971,331.400 1.600 C 332.418 0.756,332.114 -0.000,330.757 0.000 C 329.788 0.000,329.568 0.139,329.757 0.633 M332.634 0.800 C 331.951 2.300,333.033 4.041,333.838 2.738 C 334.014 2.454,333.948 2.385,333.666 2.559 C 333.371 2.742,333.293 2.622,333.447 2.221 C 333.578 1.879,333.486 1.600,333.243 1.600 C 332.999 1.600,332.800 1.409,332.800 1.176 C 332.800 0.943,332.979 0.863,333.197 0.998 C 333.415 1.133,333.903 1.070,334.281 0.859 C 334.840 0.546,334.759 0.486,333.846 0.537 C 333.230 0.572,332.684 0.690,332.634 0.800 M61.578 2.040 C 61.029 3.066,61.097 3.200,62.120 3.115 C 62.768 3.061,63.040 2.787,63.040 2.186 C 63.040 1.154,62.103 1.060,61.578 2.040 M337.606 2.276 C 337.598 2.947,338.144 3.205,338.762 2.824 C 339.129 2.596,339.154 2.419,338.843 2.226 C 338.599 2.076,338.397 2.188,338.394 2.476 C 338.389 2.857,338.282 2.836,338.000 2.400 C 337.767 2.039,337.610 1.990,337.606 2.276 M57.797 2.795 C 58.043 3.193,57.910 3.270,57.263 3.100 C 56.788 2.976,56.400 3.038,56.400 3.237 C 56.400 3.437,56.265 3.571,56.100 3.536 C 55.353 3.378,54.466 4.116,54.663 4.733 C 54.818 5.218,54.775 5.261,54.507 4.888 C 54.044 4.246,51.575 4.401,51.311 5.089 C 51.203 5.370,50.774 5.600,50.357 5.600 C 49.941 5.600,49.600 5.870,49.600 6.200 C 49.600 6.530,49.409 6.800,49.176 6.800 C 48.943 6.800,48.864 6.620,49.000 6.400 C 49.484 5.617,48.676 6.017,47.746 7.021 C 47.226 7.582,46.800 7.920,46.800 7.772 C 46.800 7.623,46.532 7.724,46.205 7.996 C 45.878 8.267,45.329 8.381,44.984 8.249 C 44.622 8.110,44.462 8.177,44.605 8.407 C 44.740 8.626,44.524 8.926,44.125 9.074 C 43.726 9.221,43.302 9.485,43.183 9.661 C 43.063 9.837,42.523 10.030,41.983 10.090 C 41.100 10.189,39.700 11.468,39.875 12.016 C 39.913 12.135,39.342 12.249,38.607 12.268 C 37.234 12.305,37.064 12.407,34.400 14.800 C 31.901 17.045,31.433 17.405,31.139 17.310 C 30.987 17.261,30.263 17.794,29.531 18.494 C 28.799 19.195,28.020 19.783,27.800 19.802 C 27.580 19.821,27.450 20.067,27.510 20.349 C 27.571 20.631,27.075 21.067,26.409 21.319 C 25.743 21.570,25.095 22.099,24.970 22.494 C 24.845 22.889,24.620 23.148,24.471 23.069 C 24.322 22.991,23.885 23.258,23.500 23.663 C 23.115 24.069,22.898 24.400,23.018 24.400 C 23.138 24.400,22.778 24.858,22.218 25.418 C 21.658 25.978,21.200 26.608,21.200 26.818 C 21.200 27.028,20.930 27.200,20.600 27.200 C 20.270 27.200,20.000 27.404,20.000 27.654 C 20.000 27.904,19.550 28.525,19.000 29.035 C 18.450 29.545,18.000 30.200,18.000 30.492 C 18.000 30.783,17.495 31.467,16.878 32.011 C 16.262 32.555,15.633 33.326,15.481 33.725 C 15.330 34.124,15.024 34.339,14.803 34.202 C 14.581 34.065,14.400 34.244,14.400 34.600 C 14.400 34.956,14.220 35.136,14.000 35.000 C 13.780 34.864,13.600 35.134,13.600 35.600 C 13.600 36.066,13.425 36.339,13.212 36.207 C 12.998 36.075,12.709 36.425,12.568 36.984 C 12.428 37.543,12.142 38.000,11.933 38.000 C 11.724 38.000,11.655 38.165,11.780 38.368 C 11.905 38.570,11.736 39.007,11.404 39.339 C 11.072 39.671,10.800 40.146,10.800 40.395 C 10.800 40.644,10.614 40.732,10.386 40.592 C 10.127 40.431,10.042 40.720,10.160 41.368 C 10.263 41.936,10.179 42.400,9.974 42.400 C 9.768 42.400,9.600 42.664,9.600 42.986 C 9.600 43.308,9.234 43.768,8.787 44.007 C 8.340 44.246,8.025 44.663,8.087 44.934 C 8.273 45.743,6.696 48.919,5.504 50.134 C 4.851 50.801,4.392 51.709,4.392 52.334 C 4.391 54.540,4.209 55.207,3.554 55.415 C 2.917 55.617,2.850 57.654,3.420 59.500 C 3.923 61.127,5.600 59.177,5.600 56.965 C 5.600 56.306,5.928 55.833,6.600 55.527 C 7.168 55.268,7.620 54.711,7.646 54.236 C 7.715 52.993,7.787 52.736,8.524 51.113 C 8.896 50.295,9.200 49.471,9.200 49.283 C 9.200 49.094,9.642 48.524,10.182 48.017 C 10.723 47.509,11.151 46.983,11.135 46.847 C 11.000 45.727,11.338 44.928,12.088 44.595 C 12.652 44.344,13.079 43.689,13.258 42.803 C 13.412 42.034,13.913 41.157,14.369 40.854 C 14.826 40.551,15.200 40.120,15.200 39.898 C 15.200 39.676,15.588 39.158,16.061 38.747 C 16.535 38.336,16.760 37.997,16.561 37.994 C 16.363 37.991,16.386 37.856,16.613 37.694 C 16.840 37.532,17.624 36.455,18.355 35.300 C 19.086 34.145,19.833 33.200,20.015 33.200 C 20.197 33.200,20.468 32.795,20.618 32.300 C 20.918 31.306,22.664 29.600,23.382 29.600 C 23.633 29.600,24.067 28.970,24.346 28.200 C 24.624 27.430,25.106 26.800,25.416 26.800 C 25.726 26.800,26.262 26.254,26.607 25.587 C 27.018 24.791,27.640 24.292,28.411 24.138 C 29.058 24.008,29.489 23.745,29.370 23.551 C 29.250 23.358,29.354 23.200,29.600 23.200 C 29.846 23.200,29.935 23.019,29.798 22.797 C 29.661 22.576,29.831 22.286,30.175 22.154 C 30.519 22.022,30.801 21.709,30.801 21.457 C 30.802 21.206,31.792 20.466,33.001 19.814 C 34.211 19.162,35.200 18.407,35.200 18.138 C 35.200 17.534,35.714 17.199,36.994 16.967 C 37.533 16.869,38.422 16.341,38.969 15.794 C 39.516 15.248,40.152 14.800,40.382 14.800 C 40.612 14.800,40.800 14.542,40.800 14.227 C 40.800 13.681,41.898 13.123,43.208 13.003 C 43.543 12.972,44.328 12.485,44.954 11.919 C 47.101 9.978,47.534 9.667,47.767 9.900 C 47.895 10.028,48.000 9.903,48.000 9.621 C 48.000 9.289,48.390 9.166,49.113 9.273 C 49.882 9.385,50.529 9.152,51.205 8.518 C 51.743 8.013,52.502 7.578,52.892 7.550 C 53.281 7.522,53.782 7.477,54.005 7.450 C 54.228 7.422,54.813 6.903,55.305 6.297 C 55.838 5.639,56.652 5.159,57.318 5.108 C 59.170 4.967,59.742 3.960,58.498 3.032 C 57.932 2.609,57.616 2.502,57.797 2.795 M341.824 3.447 C 341.513 4.684,341.459 4.620,343.084 4.929 C 344.615 5.221,345.002 4.798,344.158 3.759 C 343.818 3.342,343.643 3.206,343.768 3.458 C 343.909 3.742,343.641 3.893,343.061 3.858 C 342.381 3.816,342.177 3.609,342.310 3.100 C 342.411 2.715,342.402 2.400,342.290 2.400 C 342.178 2.400,341.968 2.871,341.824 3.447 M76.306 3.247 C 73.944 3.426,71.514 3.827,70.906 4.136 C 70.298 4.446,68.618 4.823,67.173 4.974 C 65.657 5.132,64.050 5.575,63.373 6.021 C 62.728 6.447,61.750 6.798,61.200 6.801 C 60.650 6.804,59.300 7.250,58.200 7.791 C 57.100 8.332,55.793 8.781,55.296 8.787 C 54.799 8.794,54.084 9.160,53.707 9.600 C 53.330 10.040,52.618 10.400,52.125 10.400 C 51.189 10.400,46.000 13.068,46.000 13.549 C 46.000 13.701,45.505 14.040,44.900 14.302 C 44.295 14.565,42.900 15.321,41.800 15.981 C 40.700 16.641,39.346 17.439,38.791 17.754 C 38.235 18.069,36.975 19.063,35.991 19.963 C 35.006 20.864,34.037 21.600,33.838 21.600 C 33.151 21.600,20.794 34.572,19.871 36.262 C 19.650 36.668,19.362 37.090,19.232 37.200 C 18.185 38.086,15.207 42.795,14.363 44.900 C 14.120 45.505,13.749 46.000,13.538 46.000 C 13.328 46.000,12.792 46.765,12.347 47.700 C 11.903 48.635,11.286 49.850,10.976 50.400 C 10.666 50.950,10.409 51.765,10.406 52.211 C 10.403 52.657,10.040 53.330,9.600 53.707 C 9.160 54.084,8.794 54.799,8.787 55.296 C 8.781 55.793,8.332 57.100,7.791 58.200 C 7.250 59.300,6.804 60.650,6.801 61.200 C 6.798 61.750,6.447 62.728,6.021 63.373 C 5.575 64.050,5.132 65.657,4.974 67.173 C 4.823 68.618,4.464 70.262,4.177 70.827 C 3.115 72.916,3.069 77.781,2.971 198.000 C 2.874 319.164,2.937 326.060,4.185 329.200 C 4.491 329.970,4.850 331.667,4.983 332.972 C 5.115 334.277,5.556 335.897,5.962 336.572 C 6.367 337.247,6.797 338.579,6.916 339.531 C 7.035 340.483,7.407 341.566,7.743 341.937 C 8.079 342.308,8.528 343.387,8.741 344.335 C 8.954 345.282,9.394 346.359,9.719 346.729 C 10.045 347.098,10.435 347.983,10.586 348.695 C 10.738 349.408,11.023 350.090,11.219 350.212 C 11.416 350.334,11.942 351.191,12.388 352.117 C 12.834 353.042,13.735 354.610,14.391 355.600 C 15.047 356.590,15.758 357.791,15.971 358.270 C 16.347 359.118,19.172 363.195,20.771 365.200 C 24.079 369.347,33.009 378.400,33.800 378.409 C 34.020 378.411,34.878 379.102,35.707 379.943 C 36.535 380.784,37.705 381.723,38.307 382.030 C 39.607 382.694,41.490 383.930,42.600 384.847 C 43.040 385.211,43.850 385.643,44.400 385.809 C 44.950 385.974,45.909 386.535,46.531 387.055 C 47.153 387.575,47.844 388.000,48.068 388.000 C 48.291 388.000,48.931 388.360,49.491 388.800 C 50.050 389.240,50.909 389.600,51.400 389.600 C 51.891 389.600,52.742 389.954,53.291 390.386 C 53.840 390.818,55.016 391.334,55.903 391.534 C 56.791 391.733,57.935 392.190,58.447 392.548 C 58.959 392.907,59.923 393.206,60.589 393.213 C 61.255 393.219,62.700 393.668,63.800 394.209 C 65.114 394.855,66.490 395.194,67.811 395.196 C 68.966 395.198,70.195 395.461,70.699 395.814 C 72.506 397.080,78.734 397.139,202.000 397.070 L 327.000 397.000 328.951 396.100 C 330.024 395.605,331.604 395.200,332.463 395.200 C 333.322 395.200,335.093 394.750,336.400 394.200 C 337.707 393.650,339.186 393.199,339.688 393.199 C 340.190 393.198,341.140 392.869,341.800 392.467 C 342.460 392.066,343.600 391.618,344.332 391.472 C 345.065 391.326,346.125 390.845,346.686 390.404 C 347.248 389.962,348.109 389.600,348.600 389.600 C 349.091 389.600,349.950 389.240,350.509 388.800 C 351.069 388.360,351.709 388.000,351.932 388.000 C 352.156 388.000,352.847 387.576,353.469 387.058 C 354.091 386.540,355.259 385.901,356.065 385.639 C 356.870 385.376,357.630 384.900,357.752 384.581 C 357.875 384.261,358.229 384.000,358.538 384.000 C 358.848 384.000,359.335 383.720,359.619 383.377 C 359.904 383.034,360.691 382.508,361.368 382.208 C 362.046 381.908,363.396 380.929,364.368 380.031 C 365.340 379.134,366.240 378.400,366.368 378.400 C 366.571 378.400,370.461 374.983,371.922 373.522 C 374.753 370.690,378.400 366.532,378.400 366.135 C 378.400 365.863,378.680 365.483,379.022 365.292 C 379.364 365.100,379.949 364.485,380.322 363.926 C 380.695 363.366,381.540 362.134,382.200 361.188 C 383.839 358.840,385.053 356.849,385.791 355.300 C 386.132 354.585,386.571 354.000,386.766 354.000 C 386.962 354.000,387.313 353.452,387.547 352.781 C 387.780 352.111,388.338 351.097,388.786 350.527 C 389.234 349.958,389.600 349.004,389.600 348.408 C 389.600 347.812,389.956 347.001,390.392 346.607 C 390.828 346.213,391.298 345.283,391.438 344.541 C 391.577 343.799,392.030 342.525,392.445 341.711 C 392.860 340.897,393.200 339.812,393.200 339.299 C 393.200 338.787,393.570 337.643,394.022 336.757 C 394.474 335.870,394.938 334.213,395.052 333.073 C 395.166 331.933,395.510 330.370,395.818 329.600 C 397.148 326.266,397.192 322.124,397.196 200.099 C 397.200 76.882,397.155 72.793,395.796 70.610 C 395.519 70.165,395.202 68.713,395.091 67.383 C 394.980 66.042,394.515 64.265,394.045 63.389 C 393.580 62.522,393.200 61.357,393.200 60.800 C 393.200 60.243,392.866 59.161,392.459 58.394 C 392.051 57.627,391.597 56.350,391.451 55.555 C 391.304 54.760,390.850 53.807,390.440 53.437 C 390.031 53.066,389.583 52.051,389.443 51.182 C 389.304 50.312,389.032 49.600,388.839 49.600 C 388.645 49.600,388.213 48.915,387.878 48.077 C 387.543 47.240,386.983 46.318,386.634 46.028 C 386.285 45.739,386.000 45.309,386.000 45.073 C 386.000 44.836,385.581 44.003,385.069 43.222 C 384.557 42.440,383.620 40.990,382.986 40.000 C 382.352 39.010,381.060 37.271,380.116 36.136 C 379.172 35.001,378.399 33.921,378.398 33.736 C 378.397 33.442,377.105 32.000,375.517 30.518 C 375.233 30.253,373.115 28.138,370.812 25.818 C 368.508 23.498,366.459 21.600,366.258 21.600 C 366.056 21.600,365.491 21.195,365.002 20.700 C 363.577 19.259,359.982 16.740,358.226 15.954 C 357.772 15.751,356.590 15.054,355.600 14.406 C 354.002 13.359,352.946 12.717,349.846 10.906 C 349.381 10.634,348.623 10.409,348.162 10.406 C 347.701 10.403,346.998 10.040,346.600 9.600 C 346.202 9.160,345.409 8.799,344.838 8.799 C 344.267 8.798,343.214 8.440,342.497 8.003 C 341.781 7.566,340.431 7.094,339.497 6.953 C 338.564 6.813,337.238 6.361,336.552 5.948 C 335.865 5.536,334.155 5.084,332.752 4.943 C 331.348 4.803,329.679 4.425,329.043 4.104 C 328.361 3.760,325.896 3.393,323.043 3.211 C 316.556 2.796,81.777 2.830,76.306 3.247 M345.718 4.986 C 345.709 5.214,345.658 5.580,345.604 5.800 C 345.404 6.612,345.612 7.240,346.000 7.000 C 346.220 6.864,346.400 6.954,346.400 7.200 C 346.400 7.446,346.588 7.531,346.818 7.389 C 347.047 7.247,347.497 7.349,347.818 7.615 C 348.138 7.880,348.400 7.952,348.400 7.773 C 348.400 7.594,348.625 7.738,348.900 8.095 C 349.403 8.745,350.165 8.931,351.980 8.846 C 352.704 8.812,352.843 8.683,352.511 8.351 C 352.264 8.104,352.169 7.625,352.299 7.286 C 352.429 6.946,352.370 6.767,352.168 6.887 C 351.553 7.253,349.920 6.453,350.236 5.942 C 350.409 5.663,350.350 5.584,350.089 5.745 C 349.850 5.893,349.417 5.685,349.127 5.284 C 348.555 4.494,345.746 4.248,345.718 4.986 M353.693 8.701 C 353.821 9.196,353.762 9.500,353.563 9.377 C 353.363 9.254,353.200 9.307,353.200 9.496 C 353.200 10.089,354.128 10.800,354.901 10.800 C 355.356 10.800,355.795 11.240,356.039 11.941 C 356.353 12.840,356.631 13.045,357.353 12.907 C 358.040 12.775,358.751 13.214,360.203 14.666 C 361.267 15.730,362.286 16.622,362.468 16.650 C 362.651 16.678,362.845 16.736,362.900 16.781 C 362.955 16.825,363.334 16.924,363.742 17.001 C 364.150 17.078,364.745 17.515,365.065 17.971 C 365.384 18.427,365.883 18.800,366.174 18.800 C 366.464 18.800,366.926 19.070,367.200 19.400 C 367.474 19.730,368.227 20.000,368.873 20.000 C 369.572 20.000,369.945 20.166,369.794 20.409 C 369.338 21.147,370.556 23.158,371.894 23.879 C 372.615 24.267,373.309 24.913,373.437 25.315 C 373.564 25.717,374.106 26.212,374.641 26.416 C 375.177 26.619,375.770 27.194,375.961 27.693 C 376.546 29.223,377.890 30.185,379.700 30.369 C 379.865 30.386,379.964 30.535,379.919 30.700 C 379.875 30.865,380.235 31.758,380.719 32.684 C 381.204 33.610,381.600 34.567,381.600 34.811 C 381.600 35.336,383.411 37.837,384.692 39.081 C 385.192 39.565,385.600 40.138,385.600 40.354 C 385.600 40.570,385.960 40.860,386.400 41.000 C 386.941 41.172,387.200 41.605,387.200 42.338 C 387.200 42.994,387.634 43.844,388.300 44.492 C 390.404 46.539,390.819 47.229,391.075 49.097 C 391.217 50.130,391.667 51.335,392.076 51.774 C 392.485 52.213,392.734 52.794,392.630 53.066 C 392.525 53.338,392.785 53.975,393.207 54.480 C 393.723 55.100,393.978 55.212,393.987 54.824 C 393.996 54.406,394.165 54.461,394.601 55.024 C 395.184 55.776,395.194 55.777,394.933 55.034 C 394.760 54.541,394.815 54.362,395.090 54.532 C 395.324 54.677,395.617 54.532,395.741 54.211 C 395.864 53.889,395.790 53.517,395.576 53.385 C 395.362 53.253,395.280 52.993,395.395 52.808 C 395.732 52.263,395.163 51.200,394.534 51.200 C 394.214 51.200,394.065 51.019,394.202 50.797 C 394.339 50.576,394.169 50.286,393.825 50.154 C 393.481 50.022,393.203 49.619,393.206 49.257 C 393.211 48.687,393.263 48.679,393.600 49.200 C 393.911 49.681,393.989 49.613,393.994 48.857 C 393.998 48.204,393.825 47.982,393.429 48.133 C 392.814 48.369,391.720 47.346,392.140 46.927 C 392.279 46.788,392.208 46.451,391.982 46.179 C 391.757 45.907,391.623 45.485,391.686 45.241 C 391.749 44.998,391.350 44.569,390.800 44.287 C 390.049 43.903,389.790 43.441,389.760 42.427 C 389.738 41.684,389.468 40.879,389.160 40.637 C 388.628 40.219,388.510 39.937,388.186 38.303 C 388.109 37.919,387.589 37.181,387.030 36.663 C 386.471 36.144,386.130 35.603,386.273 35.460 C 386.416 35.317,386.233 35.200,385.867 35.200 C 385.500 35.200,385.200 35.020,385.200 34.800 C 385.200 34.580,384.911 34.400,384.557 34.400 C 384.189 34.400,384.001 34.174,384.117 33.871 C 384.229 33.581,383.978 33.129,383.560 32.868 C 383.142 32.607,382.800 32.114,382.800 31.773 C 382.800 31.432,382.620 31.264,382.400 31.400 C 382.040 31.622,381.827 31.097,381.953 30.300 C 381.979 30.135,381.652 30.000,381.227 30.000 C 380.682 30.000,380.416 29.677,380.327 28.909 C 380.251 28.262,379.835 27.638,379.302 27.374 C 378.809 27.129,378.495 26.838,378.606 26.727 C 378.717 26.616,378.365 26.047,377.823 25.463 C 377.281 24.878,376.920 24.400,377.019 24.400 C 377.119 24.400,376.885 24.071,376.500 23.669 C 376.115 23.267,375.575 23.016,375.300 23.112 C 374.830 23.275,374.604 22.701,374.786 21.800 C 374.830 21.580,374.738 21.529,374.581 21.686 C 374.236 22.030,372.600 20.952,372.600 20.381 C 372.600 20.159,371.520 19.433,370.200 18.768 C 368.880 18.103,368.124 17.656,368.521 17.775 C 368.939 17.900,369.139 17.825,368.997 17.595 C 368.863 17.378,368.506 17.200,368.203 17.200 C 367.901 17.200,367.539 16.837,367.398 16.394 C 367.257 15.951,366.974 15.692,366.768 15.820 C 366.563 15.947,366.286 15.769,366.154 15.425 C 366.022 15.081,365.742 14.800,365.531 14.800 C 365.321 14.800,364.694 14.260,364.139 13.600 C 363.583 12.940,362.875 12.400,362.564 12.400 C 362.254 12.400,362.000 12.220,362.000 12.000 C 362.000 11.780,361.544 11.600,360.987 11.600 C 360.431 11.600,359.872 11.331,359.746 11.002 C 359.619 10.674,359.355 10.504,359.158 10.626 C 358.961 10.748,358.800 10.667,358.800 10.447 C 358.800 10.226,358.452 10.113,358.026 10.195 C 357.600 10.277,357.038 10.087,356.777 9.772 C 356.516 9.457,356.054 9.200,355.751 9.200 C 355.448 9.200,355.186 8.885,355.168 8.500 C 355.148 8.055,355.061 7.988,354.930 8.317 C 354.760 8.739,354.607 8.739,354.092 8.317 C 353.545 7.868,353.492 7.919,353.693 8.701 M317.800 38.133 C 324.570 39.662,327.707 40.696,330.899 42.447 C 332.055 43.081,333.609 43.882,334.354 44.228 C 339.313 46.528,349.288 56.230,351.857 61.251 C 352.266 62.050,353.199 63.850,353.930 65.251 C 358.728 74.442,359.000 76.371,359.000 101.200 L 359.000 122.200 307.623 122.302 L 256.247 122.403 255.123 121.327 C 254.506 120.735,254.000 120.028,254.000 119.756 C 254.000 117.121,249.745 115.858,248.421 118.100 C 244.036 125.528,240.857 122.550,239.131 109.400 C 238.929 107.860,238.500 105.149,238.176 103.375 C 237.853 101.602,237.333 97.372,237.020 93.975 C 236.708 90.579,236.272 86.990,236.052 86.000 C 235.833 85.010,235.455 82.050,235.214 79.423 C 234.972 76.795,234.522 73.465,234.213 72.023 C 233.905 70.580,233.546 68.500,233.416 67.400 C 231.602 52.004,224.433 43.328,220.294 51.519 C 219.993 52.113,219.547 52.960,219.303 53.400 C 218.720 54.452,217.642 57.743,217.142 60.000 C 216.923 60.990,216.405 63.150,215.990 64.800 C 215.576 66.450,215.041 69.420,214.801 71.400 C 214.561 73.380,214.199 75.630,213.996 76.400 C 213.793 77.170,213.428 79.600,213.185 81.800 C 212.942 84.000,212.396 87.462,211.972 89.493 C 211.547 91.524,211.200 93.880,211.200 94.729 C 211.200 95.578,210.845 97.660,210.411 99.357 C 209.977 101.054,209.502 103.378,209.355 104.521 C 209.209 105.664,208.754 107.462,208.344 108.515 C 207.935 109.568,207.599 110.738,207.598 111.115 C 207.597 111.843,205.862 115.478,204.657 117.280 C 199.343 125.222,191.075 114.313,188.983 96.600 C 188.853 95.500,188.407 92.800,187.993 90.600 C 187.578 88.400,186.944 84.800,186.585 82.600 C 185.219 74.224,184.872 72.502,183.888 69.183 C 180.784 58.720,175.339 57.414,171.633 66.243 C 170.955 67.860,170.400 69.523,170.400 69.941 C 170.400 70.358,170.113 71.487,169.762 72.450 C 169.412 73.412,168.895 75.730,168.613 77.600 C 168.332 79.470,167.818 82.530,167.471 84.400 C 167.123 86.270,166.668 88.970,166.460 90.400 C 166.251 91.830,165.787 94.530,165.429 96.400 C 165.071 98.270,164.606 100.700,164.396 101.800 C 162.456 111.955,159.421 118.752,155.666 121.354 L 154.157 122.400 98.327 122.400 C 50.000 122.400,42.433 122.322,42.016 121.819 C 41.383 121.056,41.672 84.036,42.345 79.600 C 44.501 65.396,54.494 51.014,67.000 44.118 C 72.568 41.047,76.811 39.383,80.568 38.796 C 82.091 38.558,83.494 38.266,83.686 38.147 C 85.625 36.949,312.498 36.935,317.800 38.133 M395.460 56.000 C 395.119 57.629,395.288 58.236,396.097 58.297 C 396.732 58.345,396.777 58.254,396.363 57.755 C 395.958 57.268,395.972 57.178,396.432 57.277 C 396.745 57.345,397.122 57.670,397.272 58.000 C 397.514 58.533,397.547 58.533,397.570 58.000 C 397.584 57.670,397.163 56.860,396.633 56.200 L 395.670 55.000 395.460 56.000 M1.429 61.280 C 1.004 61.887,0.948 62.244,1.249 62.430 C 1.563 62.624,1.561 62.777,1.243 62.974 C 0.999 63.124,0.803 63.462,0.806 63.724 C 0.810 64.041,0.927 64.019,1.157 63.656 C 1.396 63.278,1.555 63.562,1.674 64.580 C 1.768 65.388,1.700 66.138,1.523 66.248 C 1.345 66.358,1.200 65.976,1.200 65.400 C 1.200 64.824,1.037 64.454,0.838 64.577 C 0.638 64.700,0.569 65.161,0.684 65.600 C 0.801 66.047,0.696 66.400,0.447 66.400 C 0.160 66.400,0.000 67.409,0.000 69.214 C 0.000 71.904,0.035 72.009,0.800 71.600 C 1.240 71.365,1.600 70.832,1.600 70.417 C 1.600 70.001,2.068 69.105,2.641 68.425 C 3.354 67.577,3.585 66.970,3.377 66.494 C 3.210 66.112,3.091 65.696,3.113 65.569 C 3.908 61.028,3.081 58.922,1.429 61.280 M397.333 67.467 C 397.333 67.760,397.543 68.000,397.800 68.000 C 398.057 68.000,398.267 67.760,398.267 67.467 C 398.267 67.173,398.057 66.933,397.800 66.933 C 397.543 66.933,397.333 67.173,397.333 67.467 M398.972 67.771 C 398.679 68.935,399.107 70.504,399.629 70.182 C 400.143 69.865,400.097 68.400,399.573 68.400 C 399.328 68.400,399.254 68.059,399.400 67.600 C 399.540 67.160,399.555 66.800,399.435 66.800 C 399.314 66.800,399.106 67.237,398.972 67.771 M155.400 134.530 C 158.734 136.885,162.074 143.047,163.134 148.800 C 163.357 150.010,163.743 151.532,163.991 152.183 C 164.240 152.833,164.619 154.813,164.835 156.583 C 165.050 158.352,165.484 160.707,165.800 161.815 C 166.115 162.923,166.566 165.533,166.802 167.615 C 167.037 169.697,167.475 172.390,167.775 173.600 C 168.074 174.810,168.429 176.790,168.563 178.000 C 169.580 187.165,173.899 195.986,177.375 195.997 C 180.227 196.007,185.199 186.864,185.205 181.600 C 185.205 181.050,185.548 179.160,185.966 177.400 C 186.385 175.640,186.849 172.940,186.999 171.400 C 187.148 169.860,187.602 167.070,188.007 165.200 C 188.412 163.330,188.852 160.810,188.984 159.600 C 190.147 148.970,194.663 138.033,198.399 136.800 C 203.367 135.161,206.731 139.521,209.046 150.600 C 209.368 152.140,209.889 154.390,210.204 155.600 C 210.519 156.810,210.969 159.510,211.204 161.600 C 211.438 163.690,211.880 166.390,212.185 167.600 C 212.491 168.810,212.864 171.240,213.016 173.000 C 213.167 174.760,213.627 177.820,214.039 179.800 C 214.451 181.780,214.790 184.046,214.794 184.836 C 214.797 185.626,215.151 187.643,215.579 189.319 C 216.008 190.995,216.563 193.492,216.812 194.866 C 217.061 196.241,217.521 197.860,217.833 198.463 C 218.145 199.067,218.400 199.866,218.400 200.240 C 218.400 202.995,222.326 207.600,224.675 207.600 C 226.218 207.600,228.881 205.277,229.439 203.443 C 229.580 202.979,230.039 201.834,230.458 200.899 C 230.878 199.963,231.399 198.253,231.616 197.099 C 231.832 195.944,232.266 194.190,232.578 193.200 C 232.890 192.210,233.263 190.230,233.406 188.800 C 233.550 187.370,233.918 185.198,234.225 183.973 C 234.533 182.749,234.971 179.599,235.200 176.973 C 235.429 174.348,235.875 170.760,236.192 169.000 C 236.509 167.240,236.959 163.448,237.191 160.573 C 237.424 157.698,237.779 154.770,237.981 154.066 C 238.183 153.363,238.551 151.035,238.800 148.894 C 239.049 146.752,239.593 143.650,240.010 142.000 C 240.426 140.350,240.859 138.539,240.972 137.976 C 241.905 133.324,244.895 132.563,247.366 136.348 C 249.932 140.278,251.961 140.427,253.790 136.821 C 255.721 133.012,249.651 133.414,307.060 133.295 C 341.705 133.224,357.882 133.323,358.418 133.610 C 359.184 134.020,359.200 134.672,359.191 165.514 L 359.183 197.000 358.076 200.200 C 354.517 210.486,347.708 216.208,336.880 218.012 C 335.689 218.210,275.220 218.389,198.846 218.420 L 62.931 218.476 59.618 217.429 C 57.795 216.854,55.852 216.027,55.298 215.591 C 54.745 215.156,54.124 214.800,53.919 214.800 C 50.262 214.800,43.266 204.112,42.204 196.903 C 41.555 192.500,41.283 135.093,41.906 134.160 C 42.494 133.280,44.266 133.254,98.600 133.327 L 153.800 133.400 155.400 134.530 M312.394 242.226 C 322.080 244.429,320.694 257.006,310.679 257.788 C 302.228 258.448,87.843 257.824,86.600 257.136 C 82.766 255.013,81.139 250.562,82.823 246.800 C 84.128 243.887,85.611 242.840,89.800 241.877 C 92.378 241.284,309.751 241.625,312.394 242.226 M354.679 277.058 C 360.739 280.124,360.694 288.153,354.600 291.200 L 352.600 292.200 201.000 292.308 C 32.154 292.429,47.645 292.684,44.375 289.730 C 40.128 285.893,42.220 277.710,47.810 276.293 C 48.245 276.183,116.997 276.072,200.594 276.046 L 352.589 276.000 354.679 277.058 M353.370 310.834 C 359.918 312.483,361.121 321.280,355.335 325.200 L 353.859 326.200 200.569 326.200 L 47.279 326.200 45.539 324.946 C 40.320 321.184,41.171 313.062,47.000 311.001 C 49.077 310.267,350.464 310.103,353.370 310.834 M0.243 328.233 C -0.290 329.622,-0.026 333.600,0.600 333.600 C 1.310 333.600,1.376 334.064,0.755 334.685 C 0.510 334.930,0.446 335.350,0.611 335.619 C 0.777 335.887,0.950 336.719,0.996 337.467 C 1.089 339.007,2.390 340.500,3.202 339.999 C 3.686 339.699,3.817 336.476,3.437 334.200 C 3.363 333.760,3.467 333.193,3.668 332.939 C 3.913 332.630,3.632 332.192,2.812 331.608 C 2.140 331.130,1.673 330.605,1.775 330.441 C 1.876 330.277,1.716 329.673,1.418 329.100 C 1.120 328.526,0.980 327.954,1.105 327.828 C 1.231 327.703,1.143 327.600,0.909 327.600 C 0.676 327.600,0.376 327.885,0.243 328.233 M398.754 330.300 C 398.728 330.465,398.683 330.870,398.654 331.200 C 398.624 331.530,398.346 331.745,398.037 331.679 C 397.727 331.612,397.344 331.767,397.186 332.023 C 396.822 332.612,397.179 334.060,397.621 333.787 C 397.802 333.675,398.136 333.902,398.363 334.292 C 398.713 334.893,398.778 334.819,398.794 333.800 C 398.808 332.858,398.900 332.729,399.218 333.200 C 399.520 333.645,399.558 333.516,399.369 332.700 C 399.208 332.008,399.278 331.600,399.557 331.600 C 399.800 331.600,400.000 331.240,400.000 330.800 C 400.000 330.065,398.860 329.608,398.754 330.300 M397.096 337.432 C 396.847 338.734,397.816 339.197,398.601 338.150 C 399.090 337.497,399.078 337.335,398.505 336.900 C 397.558 336.181,397.318 336.271,397.096 337.432 M3.094 340.639 C 2.963 340.771,2.953 341.133,3.072 341.444 C 3.192 341.755,3.044 342.312,2.745 342.682 C 2.282 343.253,2.285 343.303,2.763 343.014 C 3.195 342.754,3.275 342.869,3.107 343.512 C 2.974 344.022,3.105 344.431,3.444 344.562 C 3.750 344.679,4.000 345.201,4.000 345.721 C 4.000 346.241,4.129 346.796,4.287 346.953 C 4.444 347.111,4.579 347.664,4.587 348.182 C 4.594 348.700,5.109 349.695,5.731 350.393 C 6.353 351.091,6.763 351.918,6.643 352.231 C 6.523 352.544,6.595 352.800,6.802 352.800 C 7.308 352.800,8.439 355.028,8.103 355.363 C 7.958 355.509,8.325 356.079,8.919 356.630 C 9.853 357.496,10.184 358.253,10.065 359.247 C 10.049 359.383,10.464 359.897,10.989 360.389 C 11.513 360.882,11.844 361.542,11.723 361.856 C 11.602 362.171,11.909 362.827,12.404 363.314 C 14.562 365.439,17.200 368.630,17.200 369.117 C 17.200 369.420,17.401 369.523,17.668 369.358 C 17.966 369.174,18.057 369.274,17.918 369.636 C 17.684 370.246,18.555 371.312,18.957 370.909 C 19.091 370.776,19.200 371.061,19.200 371.542 C 19.200 372.087,19.577 372.589,20.200 372.873 C 20.750 373.123,21.200 373.568,21.200 373.861 C 21.200 374.154,21.560 374.618,22.000 374.893 C 22.440 375.168,22.800 375.542,22.800 375.725 C 22.800 376.196,23.863 377.200,24.362 377.200 C 24.593 377.200,25.076 377.650,25.437 378.200 C 25.797 378.750,26.341 379.200,26.646 379.200 C 26.951 379.200,27.155 379.397,27.100 379.637 C 27.045 379.878,27.344 380.283,27.765 380.537 C 28.186 380.792,28.867 381.322,29.279 381.715 C 29.692 382.108,30.230 382.305,30.476 382.153 C 30.748 381.985,30.812 382.057,30.638 382.338 C 30.481 382.592,30.563 382.800,30.819 382.800 C 31.075 382.800,31.639 383.250,32.071 383.800 C 32.504 384.350,33.216 384.800,33.653 384.800 C 34.090 384.800,34.336 384.980,34.200 385.201 C 34.063 385.421,34.403 385.773,34.955 385.983 C 35.507 386.193,36.250 386.810,36.607 387.355 C 36.964 387.900,37.559 388.324,37.928 388.297 C 38.735 388.237,40.800 389.529,40.800 390.093 C 40.800 390.313,41.143 390.404,41.562 390.294 C 42.394 390.076,44.574 391.293,44.137 391.730 C 43.988 391.879,44.197 392.000,44.602 392.000 C 45.006 392.000,45.697 392.315,46.137 392.700 C 46.577 393.085,46.795 393.157,46.620 392.860 C 46.363 392.422,46.465 392.407,47.163 392.780 C 47.636 393.033,47.917 393.411,47.788 393.620 C 47.658 393.829,47.743 394.000,47.976 394.000 C 48.209 394.000,48.400 393.793,48.400 393.541 C 48.400 393.288,48.912 393.603,49.539 394.241 C 50.813 395.538,51.234 395.720,53.102 395.782 C 53.818 395.806,54.792 396.158,55.266 396.564 C 56.197 397.361,59.825 397.887,59.375 397.159 C 59.233 396.929,59.495 396.978,59.958 397.267 C 60.421 397.556,60.800 398.030,60.800 398.320 C 60.800 398.610,60.980 398.736,61.200 398.600 C 61.420 398.464,61.600 398.554,61.600 398.800 C 61.600 399.046,61.768 399.144,61.972 399.017 C 62.177 398.891,62.463 398.979,62.608 399.213 C 62.791 399.509,63.043 399.496,63.436 399.170 C 63.875 398.806,64.001 398.824,64.006 399.251 C 64.011 399.698,64.080 399.694,64.376 399.226 C 64.691 398.727,64.832 398.727,65.446 399.226 C 65.888 399.585,66.041 399.612,65.853 399.300 C 65.686 399.022,65.746 398.800,65.989 398.800 C 66.229 398.800,66.529 399.070,66.655 399.400 C 66.919 400.087,72.000 400.291,72.000 399.614 C 72.000 399.284,70.610 398.298,70.000 398.195 C 69.035 398.031,68.033 397.476,68.108 397.145 C 68.234 396.589,61.322 396.280,60.984 396.826 C 60.624 397.408,59.590 396.491,59.848 395.818 C 60.053 395.286,58.140 394.400,56.786 394.400 C 56.404 394.400,55.797 393.950,55.437 393.400 C 55.076 392.850,54.425 392.400,53.989 392.400 C 53.554 392.400,52.525 392.040,51.704 391.600 C 50.884 391.160,49.916 390.800,49.555 390.800 C 49.194 390.800,48.697 390.558,48.451 390.262 C 48.206 389.966,47.239 389.392,46.302 388.988 C 45.366 388.583,44.240 387.936,43.800 387.550 C 43.044 386.887,42.845 386.800,42.083 386.800 C 41.909 386.800,40.874 385.991,39.783 385.002 C 38.692 384.013,37.590 383.203,37.334 383.202 C 36.860 383.200,35.384 382.080,33.849 380.557 C 33.382 380.094,32.418 379.416,31.707 379.051 C 30.995 378.685,30.136 377.850,29.796 377.193 C 29.457 376.537,29.021 376.000,28.828 376.000 C 28.241 376.000,24.000 371.899,24.000 371.331 C 24.000 371.039,23.865 370.800,23.700 370.800 C 23.300 370.799,20.400 368.206,20.400 367.848 C 20.400 367.467,18.805 365.286,17.700 364.156 C 17.205 363.650,16.800 362.999,16.800 362.709 C 16.800 362.420,15.980 361.289,14.978 360.198 C 13.790 358.904,13.222 357.960,13.345 357.487 C 13.462 357.042,13.084 356.300,12.368 355.567 C 11.725 354.910,11.200 354.025,11.200 353.600 C 11.200 353.176,10.882 352.658,10.492 352.449 C 10.103 352.241,9.564 351.245,9.294 350.235 C 9.024 349.226,8.633 348.400,8.426 348.400 C 8.219 348.400,7.931 347.611,7.786 346.647 C 7.588 345.326,7.286 344.785,6.562 344.455 C 5.907 344.157,5.600 343.687,5.600 342.982 C 5.600 341.049,4.093 339.640,3.094 340.639 M395.230 341.182 C 394.956 341.351,394.747 341.604,394.766 341.745 C 394.992 343.432,394.715 344.497,394.002 344.684 C 393.488 344.818,393.032 345.480,392.718 346.546 C 392.451 347.456,392.007 348.380,391.733 348.600 C 391.459 348.820,391.154 349.462,391.057 350.027 C 390.959 350.593,390.501 351.760,390.040 352.622 C 389.578 353.483,389.200 354.491,389.200 354.861 C 389.200 355.978,388.749 356.800,388.136 356.800 C 387.818 356.800,387.370 357.340,387.140 358.000 C 386.910 358.660,386.469 359.200,386.161 359.200 C 385.852 359.200,385.600 359.359,385.600 359.553 C 385.600 359.746,385.065 360.428,384.410 361.068 C 383.756 361.708,383.159 362.634,383.084 363.126 C 383.009 363.619,382.554 364.297,382.074 364.633 C 381.593 364.970,381.200 365.495,381.200 365.800 C 381.200 366.556,376.807 371.252,376.359 370.974 C 376.161 370.853,376.000 371.071,376.000 371.460 C 376.000 372.144,372.312 376.000,371.658 376.000 C 371.481 376.000,371.098 376.444,370.807 376.986 C 370.517 377.529,370.153 377.894,369.998 377.799 C 369.844 377.703,369.515 378.069,369.267 378.613 C 369.020 379.156,368.642 379.600,368.429 379.600 C 367.751 379.600,364.497 381.971,364.234 382.657 C 364.095 383.018,363.872 383.205,363.738 383.071 C 363.604 382.938,363.113 383.027,362.647 383.269 C 361.781 383.721,361.366 384.046,359.581 385.673 C 359.020 386.184,358.075 386.921,357.481 387.310 C 356.886 387.700,356.400 388.239,356.399 388.509 C 356.399 388.797,355.736 389.045,354.800 389.110 C 353.902 389.171,351.930 389.888,350.301 390.744 C 348.705 391.582,346.911 392.390,346.314 392.538 C 345.717 392.687,344.770 393.266,344.211 393.826 C 343.651 394.385,343.030 394.742,342.830 394.619 C 342.047 394.134,340.505 395.124,340.569 396.070 C 340.604 396.581,340.850 396.955,341.116 396.900 C 341.382 396.845,341.600 396.980,341.600 397.200 C 341.600 397.956,343.484 397.599,344.511 396.648 C 345.228 395.983,346.028 395.688,347.160 395.673 C 348.338 395.657,349.084 395.365,349.890 394.605 C 350.501 394.029,351.483 393.458,352.074 393.335 C 352.665 393.211,353.245 392.860,353.362 392.555 C 353.479 392.250,353.951 392.000,354.411 392.000 C 354.871 392.000,355.136 391.820,355.000 391.600 C 354.864 391.380,354.943 391.200,355.176 391.200 C 355.409 391.200,355.600 391.401,355.600 391.647 C 355.600 391.894,356.174 391.533,356.876 390.847 C 357.808 389.936,358.238 389.735,358.470 390.100 C 358.700 390.462,359.121 390.247,360.000 389.315 C 360.667 388.608,361.435 388.115,361.706 388.219 C 361.978 388.323,362.736 387.911,363.390 387.304 C 364.045 386.697,364.709 386.200,364.865 386.200 C 365.022 386.200,365.656 385.656,366.275 384.992 C 366.894 384.327,367.898 383.530,368.508 383.220 C 369.302 382.816,369.472 382.565,369.108 382.334 C 368.768 382.119,368.911 382.010,369.542 382.006 C 370.067 382.003,370.835 381.555,371.274 380.996 C 371.709 380.444,372.257 380.112,372.494 380.258 C 372.749 380.415,372.807 380.336,372.638 380.062 C 372.481 379.808,372.513 379.600,372.710 379.600 C 372.906 379.600,373.592 379.065,374.233 378.411 C 374.875 377.757,375.548 377.217,375.729 377.211 C 376.096 377.199,377.200 376.174,377.200 375.846 C 377.200 375.334,379.126 372.860,379.350 373.084 C 379.488 373.221,379.600 373.113,379.600 372.843 C 379.600 372.573,379.780 372.464,380.000 372.600 C 380.220 372.736,380.400 372.577,380.400 372.246 C 380.400 371.916,380.759 371.394,381.199 371.086 C 381.638 370.778,382.196 369.958,382.438 369.264 C 382.680 368.569,383.016 368.086,383.186 368.191 C 383.355 368.296,383.832 367.994,384.247 367.522 C 384.661 367.049,384.775 366.794,384.500 366.955 C 384.189 367.137,384.000 367.012,384.000 366.624 C 384.000 366.280,384.337 366.000,384.751 366.000 C 385.552 366.000,386.547 365.080,386.162 364.696 C 386.035 364.569,386.303 364.266,386.757 364.023 C 387.210 363.780,387.784 363.204,388.031 362.743 C 388.394 362.065,388.376 361.966,387.940 362.229 C 387.498 362.495,387.500 362.431,387.949 361.877 C 388.307 361.436,388.342 361.200,388.049 361.200 C 387.802 361.200,387.960 360.840,388.400 360.400 C 388.840 359.960,389.359 359.600,389.553 359.600 C 389.748 359.600,389.991 359.159,390.094 358.620 C 390.197 358.081,390.173 357.652,390.041 357.667 C 389.137 357.771,389.278 357.451,390.600 356.400 C 391.431 355.740,391.892 355.200,391.626 355.200 C 391.310 355.200,391.360 354.983,391.771 354.571 C 392.117 354.226,392.400 353.692,392.400 353.386 C 392.400 353.079,392.772 352.629,393.226 352.386 C 393.813 352.072,393.935 351.804,393.649 351.459 C 393.171 350.883,393.727 349.784,394.313 350.146 C 394.805 350.450,395.306 349.295,394.939 348.702 C 394.795 348.468,394.864 348.392,395.093 348.534 C 395.666 348.888,396.005 346.392,395.512 345.452 C 395.276 345.000,395.271 344.797,395.500 344.938 C 396.103 345.311,396.997 343.190,396.847 341.743 C 396.784 341.127,395.845 340.802,395.230 341.182 M314.643 345.600 C 320.537 349.186,320.164 357.310,313.984 359.969 L 312.052 360.800 200.526 360.796 L 89.000 360.792 87.000 359.853 C 80.082 356.603,80.661 347.567,87.954 344.950 C 89.128 344.528,110.428 344.447,201.200 344.515 L 313.000 344.600 314.643 345.600 M331.859 396.990 C 331.734 397.315,330.816 397.964,329.819 398.433 C 327.474 399.535,327.826 400.000,331.008 400.000 C 333.065 400.000,333.717 399.840,334.324 399.189 C 335.104 398.352,336.636 398.482,336.121 399.342 C 335.970 399.594,336.143 399.560,336.506 399.266 C 336.868 398.972,337.340 398.840,337.555 398.972 C 337.769 399.105,338.060 399.027,338.200 398.800 C 338.340 398.573,338.651 398.508,338.889 398.655 C 339.133 398.806,339.210 398.739,339.064 398.504 C 338.921 398.273,339.083 397.977,339.423 397.847 C 339.906 397.661,339.936 397.498,339.561 397.097 C 339.089 396.590,336.368 396.525,335.597 397.002 C 335.379 397.137,335.200 397.035,335.200 396.775 C 335.200 396.450,335.043 396.427,334.700 396.702 C 334.415 396.929,333.856 396.962,333.400 396.779 C 332.249 396.315,332.111 396.334,331.859 396.990 " stroke="none" fill="#f13b3b" fill-rule="evenodd"></path><path id="path2" d="M70.122 0.778 C 70.010 1.205,69.532 1.610,69.059 1.678 C 68.496 1.758,68.240 2.041,68.318 2.500 C 68.405 3.020,68.163 3.200,67.374 3.200 C 66.442 3.200,66.344 3.078,66.564 2.200 C 66.733 1.528,66.649 1.198,66.308 1.194 C 65.959 1.190,65.988 1.066,66.400 0.800 C 66.761 0.567,66.810 0.410,66.524 0.406 C 66.262 0.403,65.936 0.580,65.800 0.800 C 65.664 1.020,65.373 1.200,65.153 1.200 C 64.933 1.200,64.864 1.020,65.000 0.800 C 65.448 0.075,62.640 0.378,61.290 1.201 C 60.570 1.641,59.636 2.000,59.214 2.000 C 58.792 2.000,58.346 2.163,58.223 2.362 C 58.100 2.562,57.627 2.627,57.171 2.508 C 56.683 2.381,55.903 2.616,55.271 3.083 C 54.682 3.518,53.338 3.971,52.284 4.090 C 49.997 4.347,47.266 6.800,49.267 6.800 C 49.450 6.800,49.600 6.530,49.600 6.200 C 49.600 5.870,49.941 5.600,50.357 5.600 C 50.774 5.600,51.203 5.370,51.311 5.089 C 51.575 4.401,54.044 4.246,54.507 4.888 C 54.775 5.261,54.818 5.218,54.663 4.733 C 54.466 4.116,55.353 3.378,56.100 3.536 C 56.265 3.571,56.400 3.459,56.400 3.287 C 56.400 2.855,58.052 2.965,58.929 3.456 C 59.855 3.974,58.913 4.899,57.256 5.099 C 56.675 5.169,55.797 5.715,55.305 6.313 C 54.813 6.911,54.228 7.422,54.005 7.450 C 53.782 7.478,53.281 7.522,52.892 7.550 C 52.502 7.578,51.743 8.013,51.205 8.518 C 50.529 9.152,49.882 9.385,49.113 9.273 C 48.390 9.166,48.000 9.289,48.000 9.621 C 48.000 9.903,47.895 10.028,47.767 9.900 C 47.534 9.667,47.101 9.978,44.954 11.919 C 44.328 12.485,43.543 12.972,43.208 13.003 C 41.898 13.123,40.800 13.681,40.800 14.227 C 40.800 14.542,40.612 14.800,40.382 14.800 C 40.152 14.800,39.516 15.248,38.969 15.794 C 38.422 16.341,37.533 16.869,36.994 16.967 C 35.714 17.199,35.200 17.534,35.200 18.138 C 35.200 18.407,34.211 19.162,33.001 19.814 C 31.792 20.466,30.802 21.206,30.801 21.457 C 30.801 21.709,30.519 22.022,30.175 22.154 C 29.831 22.286,29.661 22.576,29.798 22.797 C 29.935 23.019,29.846 23.200,29.600 23.200 C 29.354 23.200,29.250 23.358,29.370 23.551 C 29.489 23.745,29.058 24.008,28.411 24.138 C 27.640 24.292,27.018 24.791,26.607 25.587 C 26.262 26.254,25.726 26.800,25.416 26.800 C 25.106 26.800,24.624 27.430,24.346 28.200 C 24.067 28.970,23.633 29.600,23.382 29.600 C 22.664 29.600,20.918 31.306,20.618 32.300 C 20.468 32.795,20.197 33.200,20.015 33.200 C 19.833 33.200,19.086 34.145,18.355 35.300 C 17.624 36.455,16.840 37.532,16.613 37.694 C 16.386 37.856,16.363 37.991,16.561 37.994 C 16.760 37.997,16.535 38.336,16.061 38.747 C 15.588 39.158,15.200 39.676,15.200 39.898 C 15.200 40.120,14.826 40.551,14.369 40.854 C 13.913 41.157,13.412 42.034,13.258 42.803 C 13.079 43.689,12.652 44.344,12.088 44.595 C 11.338 44.928,11.000 45.727,11.135 46.847 C 11.151 46.983,10.723 47.509,10.182 48.017 C 9.642 48.524,9.200 49.094,9.200 49.283 C 9.200 49.471,8.896 50.295,8.524 51.113 C 7.787 52.736,7.715 52.993,7.646 54.236 C 7.620 54.711,7.168 55.268,6.600 55.527 C 5.928 55.833,5.600 56.306,5.600 56.965 C 5.600 59.177,3.923 61.127,3.420 59.500 C 2.795 57.476,2.912 55.618,3.680 55.375 C 4.243 55.196,4.355 54.995,4.057 54.697 C 3.275 53.915,2.294 55.195,2.536 56.681 C 2.653 57.407,2.581 58.000,2.375 58.000 C 2.169 58.000,2.000 58.391,2.000 58.869 C 2.000 59.346,1.709 60.059,1.353 60.452 C 0.578 61.309,0.027 65.078,0.741 64.636 C 1.042 64.451,1.200 64.714,1.200 65.400 C 1.200 65.976,1.345 66.358,1.523 66.248 C 1.700 66.138,1.768 65.388,1.674 64.580 C 1.555 63.562,1.396 63.278,1.157 63.656 C 0.927 64.019,0.810 64.041,0.806 63.724 C 0.803 63.462,0.999 63.124,1.243 62.974 C 1.561 62.777,1.563 62.624,1.249 62.430 C 0.697 62.089,1.804 60.400,2.580 60.400 C 3.524 60.400,3.707 62.177,3.113 65.569 C 3.091 65.696,3.210 66.112,3.377 66.494 C 3.585 66.970,3.354 67.577,2.641 68.425 C 2.068 69.105,1.600 70.001,1.600 70.417 C 1.600 70.832,1.240 71.365,0.800 71.600 C 0.002 72.027,0.000 72.421,0.032 200.314 C 0.049 270.871,0.154 328.375,0.265 328.100 C 0.376 327.825,0.662 327.600,0.900 327.600 C 1.138 327.600,1.231 327.703,1.105 327.828 C 0.980 327.954,1.120 328.526,1.418 329.100 C 1.716 329.673,1.876 330.277,1.775 330.441 C 1.673 330.605,2.140 331.130,2.812 331.608 C 3.632 332.192,3.913 332.630,3.668 332.939 C 3.467 333.193,3.363 333.760,3.437 334.200 C 3.817 336.476,3.686 339.699,3.202 339.999 C 2.610 340.365,1.567 339.593,1.904 339.038 C 2.025 338.839,1.930 338.796,1.694 338.942 C 1.217 339.237,0.593 337.059,0.977 336.437 C 1.107 336.227,1.004 335.926,0.748 335.768 C 0.000 335.306,0.598 339.263,1.359 339.820 C 1.712 340.077,2.000 340.753,2.000 341.320 C 2.000 341.888,2.156 342.449,2.346 342.567 C 2.537 342.685,2.611 343.207,2.512 343.727 C 2.308 344.793,3.628 346.516,3.937 345.588 C 4.032 345.303,3.860 344.874,3.555 344.635 C 2.662 343.935,2.848 340.640,3.791 340.459 C 4.748 340.274,5.600 341.417,5.600 342.885 C 5.600 343.692,5.876 344.143,6.562 344.455 C 7.286 344.785,7.588 345.326,7.786 346.647 C 7.931 347.611,8.219 348.400,8.426 348.400 C 8.633 348.400,9.024 349.226,9.294 350.235 C 9.564 351.245,10.103 352.241,10.492 352.449 C 10.882 352.658,11.200 353.176,11.200 353.600 C 11.200 354.025,11.725 354.910,12.368 355.567 C 13.084 356.300,13.462 357.042,13.345 357.487 C 13.222 357.960,13.790 358.904,14.978 360.198 C 15.980 361.289,16.800 362.420,16.800 362.709 C 16.800 362.999,17.205 363.650,17.700 364.156 C 18.805 365.286,20.400 367.467,20.400 367.848 C 20.400 368.206,23.300 370.799,23.700 370.800 C 23.865 370.800,24.000 371.039,24.000 371.331 C 24.000 371.899,28.241 376.000,28.828 376.000 C 29.021 376.000,29.457 376.537,29.796 377.193 C 30.136 377.850,30.995 378.685,31.707 379.051 C 32.418 379.416,33.382 380.094,33.849 380.557 C 35.384 382.080,36.860 383.200,37.334 383.202 C 37.590 383.203,38.692 384.013,39.783 385.002 C 41.613 386.661,42.117 386.969,42.568 386.700 C 42.660 386.645,43.155 386.972,43.668 387.426 C 44.180 387.880,45.366 388.583,46.302 388.988 C 47.239 389.392,48.206 389.966,48.451 390.262 C 48.697 390.558,49.194 390.800,49.555 390.800 C 49.916 390.800,50.884 391.160,51.704 391.600 C 52.525 392.040,53.554 392.400,53.989 392.400 C 54.425 392.400,55.076 392.850,55.437 393.400 C 55.797 393.950,56.404 394.400,56.786 394.400 C 58.140 394.400,60.053 395.286,59.848 395.818 C 59.590 396.491,60.624 397.408,60.984 396.826 C 61.293 396.326,67.993 396.541,68.028 397.052 C 68.058 397.481,69.694 398.389,70.045 398.172 C 70.185 398.086,70.780 398.461,71.368 399.005 L 72.436 399.995 200.442 399.999 C 275.798 400.001,328.358 399.855,328.227 399.644 C 328.105 399.447,328.803 398.911,329.777 398.453 C 330.752 397.995,331.707 397.337,331.901 396.992 C 332.175 396.501,332.476 396.449,333.275 396.753 C 333.981 397.021,334.438 397.002,334.749 396.691 C 335.084 396.356,335.200 396.370,335.200 396.744 C 335.200 397.021,335.379 397.137,335.597 397.002 C 336.339 396.543,339.080 396.582,339.524 397.057 C 340.439 398.036,337.384 399.387,335.862 398.676 C 335.324 398.425,334.913 398.558,334.346 399.166 C 333.570 399.999,333.570 400.000,334.784 400.000 C 335.453 400.000,336.000 399.856,336.000 399.680 C 336.000 399.504,336.612 399.432,337.361 399.520 C 338.356 399.636,338.947 399.453,339.561 398.839 C 340.083 398.317,340.966 397.979,341.900 397.946 C 342.829 397.912,343.057 397.825,342.500 397.718 C 342.005 397.622,341.600 397.377,341.600 397.172 C 341.600 396.967,341.382 396.845,341.116 396.900 C 340.850 396.955,340.604 396.581,340.569 396.070 C 340.505 395.124,342.047 394.134,342.830 394.619 C 343.030 394.742,343.651 394.385,344.211 393.826 C 344.770 393.266,345.717 392.687,346.314 392.538 C 346.911 392.390,348.705 391.582,350.301 390.744 C 351.930 389.888,353.902 389.171,354.800 389.110 C 355.736 389.045,356.399 388.797,356.399 388.509 C 356.400 388.239,356.886 387.700,357.481 387.310 C 358.075 386.921,359.020 386.184,359.581 385.673 C 361.366 384.046,361.781 383.721,362.647 383.269 C 363.113 383.027,363.604 382.938,363.738 383.071 C 363.872 383.205,364.095 383.018,364.234 382.657 C 364.497 381.971,367.751 379.600,368.429 379.600 C 368.642 379.600,369.020 379.156,369.267 378.613 C 369.515 378.069,369.844 377.703,369.998 377.799 C 370.153 377.894,370.517 377.529,370.807 376.986 C 371.098 376.444,371.481 376.000,371.658 376.000 C 372.312 376.000,376.000 372.144,376.000 371.460 C 376.000 371.071,376.161 370.853,376.359 370.974 C 376.807 371.252,381.200 366.556,381.200 365.800 C 381.200 365.495,381.593 364.970,382.074 364.633 C 382.554 364.297,383.009 363.619,383.084 363.126 C 383.159 362.634,383.756 361.708,384.410 361.068 C 385.065 360.428,385.600 359.746,385.600 359.553 C 385.600 359.359,385.852 359.200,386.161 359.200 C 386.469 359.200,386.910 358.660,387.140 358.000 C 387.370 357.340,387.818 356.800,388.136 356.800 C 388.749 356.800,389.200 355.978,389.200 354.861 C 389.200 354.491,389.578 353.483,390.040 352.622 C 390.501 351.760,390.959 350.593,391.057 350.027 C 391.154 349.462,391.459 348.820,391.733 348.600 C 392.007 348.380,392.451 347.456,392.718 346.546 C 393.032 345.480,393.488 344.818,394.002 344.684 C 394.709 344.499,395.075 343.158,394.860 341.538 C 394.841 341.394,395.084 341.176,395.401 341.055 C 396.184 340.755,397.217 341.862,396.947 342.712 C 396.454 344.258,395.856 345.159,395.478 344.925 C 395.238 344.776,395.202 344.880,395.389 345.183 C 395.572 345.478,395.472 345.835,395.151 346.039 C 394.848 346.231,394.799 346.391,395.042 346.394 C 395.933 346.406,397.688 344.380,397.479 343.581 C 397.367 343.151,397.438 342.800,397.637 342.800 C 397.837 342.800,398.000 342.163,398.000 341.384 C 398.000 340.597,398.355 339.486,398.798 338.884 C 399.739 337.608,400.452 331.600,399.663 331.600 C 399.414 331.600,399.091 332.341,398.946 333.246 C 398.742 334.522,398.601 334.745,398.317 334.237 C 398.116 333.878,397.802 333.675,397.621 333.787 C 397.179 334.060,396.822 332.612,397.186 332.023 C 397.344 331.767,397.727 331.612,398.037 331.679 C 398.373 331.751,398.600 331.479,398.601 331.005 C 398.601 330.567,398.915 330.150,399.301 330.076 C 399.965 329.948,400.000 323.382,400.000 199.947 C 400.000 116.003,399.862 70.038,399.612 70.193 C 399.006 70.567,398.648 68.450,399.152 67.475 L 399.604 66.600 399.375 67.500 C 399.244 68.014,399.329 68.400,399.573 68.400 C 399.812 68.400,400.000 67.609,400.000 66.600 C 400.000 65.610,399.837 64.800,399.637 64.800 C 399.438 64.800,399.369 64.439,399.485 63.997 C 399.718 63.105,398.901 60.800,398.351 60.800 C 398.158 60.800,397.997 60.035,397.994 59.100 C 397.989 57.800,397.889 57.541,397.570 58.000 C 397.257 58.449,397.213 58.284,397.398 57.344 C 397.594 56.345,397.435 55.864,396.622 54.986 C 396.060 54.379,395.600 54.100,395.600 54.365 C 395.600 54.631,395.390 54.718,395.132 54.558 C 394.809 54.358,394.747 54.505,394.933 55.034 C 395.194 55.777,395.184 55.776,394.601 55.024 C 394.165 54.461,393.996 54.406,393.987 54.824 C 393.978 55.212,393.723 55.100,393.207 54.480 C 392.785 53.975,392.525 53.338,392.630 53.066 C 392.734 52.794,392.485 52.213,392.076 51.774 C 391.667 51.335,391.217 50.130,391.075 49.097 C 390.819 47.229,390.404 46.539,388.300 44.492 C 387.634 43.844,387.200 42.994,387.200 42.338 C 387.200 41.605,386.941 41.172,386.400 41.000 C 385.960 40.860,385.600 40.570,385.600 40.354 C 385.600 40.138,385.192 39.565,384.692 39.081 C 383.411 37.837,381.600 35.336,381.600 34.811 C 381.600 34.567,381.204 33.610,380.719 32.684 C 380.235 31.758,379.875 30.865,379.919 30.700 C 379.964 30.535,379.865 30.386,379.700 30.369 C 377.890 30.185,376.546 29.223,375.961 27.693 C 375.770 27.194,375.177 26.619,374.641 26.416 C 374.106 26.212,373.564 25.717,373.437 25.315 C 373.309 24.913,372.615 24.267,371.894 23.879 C 370.556 23.158,369.338 21.147,369.794 20.409 C 369.945 20.166,369.572 20.000,368.873 20.000 C 368.227 20.000,367.474 19.730,367.200 19.400 C 366.926 19.070,366.464 18.800,366.174 18.800 C 365.883 18.800,365.384 18.427,365.065 17.971 C 364.745 17.515,364.150 17.078,363.742 17.001 C 363.334 16.924,362.955 16.825,362.900 16.781 C 362.845 16.736,362.651 16.677,362.468 16.650 C 362.286 16.622,361.267 15.730,360.203 14.666 C 358.751 13.214,358.040 12.775,357.353 12.907 C 356.631 13.045,356.353 12.840,356.039 11.941 C 355.795 11.240,355.356 10.800,354.901 10.800 C 354.128 10.800,353.200 10.089,353.200 9.496 C 353.200 9.307,353.363 9.254,353.563 9.377 C 353.762 9.500,353.821 9.196,353.693 8.701 C 353.492 7.919,353.545 7.868,354.092 8.317 C 354.607 8.739,354.760 8.739,354.930 8.317 C 355.061 7.988,355.148 8.055,355.168 8.500 C 355.186 8.885,355.481 9.200,355.824 9.200 C 356.193 9.200,356.331 9.388,356.162 9.662 C 355.991 9.937,356.051 10.015,356.311 9.855 C 356.549 9.708,356.851 9.759,356.981 9.969 C 357.111 10.179,357.573 10.282,358.008 10.198 C 358.444 10.115,358.800 10.226,358.800 10.447 C 358.800 10.667,358.961 10.748,359.158 10.626 C 359.355 10.504,359.619 10.674,359.746 11.002 C 359.872 11.331,360.296 11.594,360.687 11.587 C 361.747 11.569,359.405 9.600,358.324 9.600 C 357.866 9.600,357.075 9.150,356.565 8.600 C 356.050 8.045,355.191 7.600,354.633 7.600 C 354.022 7.600,353.452 7.271,353.180 6.762 C 352.885 6.211,352.470 5.993,351.966 6.125 C 351.545 6.235,351.200 6.159,351.200 5.957 C 351.200 5.277,348.614 4.003,347.231 4.001 C 346.479 4.001,345.579 3.744,345.231 3.431 C 344.124 2.434,342.536 2.237,342.318 3.070 C 342.176 3.613,342.366 3.815,343.061 3.858 C 343.641 3.893,343.909 3.742,343.768 3.458 C 343.643 3.206,343.825 3.350,344.172 3.779 C 344.980 4.775,344.541 5.167,342.905 4.912 C 341.735 4.730,341.618 4.588,341.705 3.455 C 341.792 2.308,341.688 2.189,340.500 2.075 C 339.785 2.006,339.200 1.803,339.200 1.623 C 339.200 0.511,333.255 0.034,332.894 1.117 C 332.806 1.383,332.948 1.600,333.209 1.600 C 333.475 1.600,333.580 1.874,333.447 2.221 C 333.293 2.622,333.371 2.742,333.666 2.559 C 333.948 2.385,334.014 2.454,333.838 2.738 C 333.129 3.885,332.369 3.207,332.563 1.600 C 332.669 0.720,332.586 0.000,332.378 0.000 C 332.170 0.000,332.000 0.248,332.000 0.551 C 332.000 0.854,331.730 1.326,331.400 1.600 C 330.953 1.971,330.800 1.978,330.800 1.625 C 330.800 1.365,330.633 1.256,330.429 1.382 C 330.225 1.508,329.943 1.249,329.802 0.806 C 329.405 -0.445,70.449 -0.473,70.122 0.778 M63.040 2.186 C 63.040 2.787,62.768 3.061,62.120 3.115 C 61.097 3.200,61.029 3.066,61.578 2.040 C 62.103 1.060,63.040 1.154,63.040 2.186 M338.394 2.476 C 338.397 2.188,338.599 2.076,338.843 2.226 C 339.154 2.419,339.129 2.596,338.762 2.824 C 338.144 3.205,337.598 2.947,337.606 2.276 C 337.610 1.990,337.767 2.039,338.000 2.400 C 338.282 2.836,338.389 2.857,338.394 2.476 M323.043 3.211 C 325.896 3.393,328.361 3.760,329.043 4.104 C 329.679 4.425,331.348 4.803,332.752 4.943 C 334.155 5.084,335.865 5.536,336.552 5.948 C 337.238 6.361,338.564 6.813,339.497 6.953 C 340.431 7.094,341.781 7.566,342.497 8.003 C 343.214 8.440,344.267 8.798,344.838 8.799 C 345.409 8.799,346.202 9.160,346.600 9.600 C 346.998 10.040,347.701 10.403,348.162 10.406 C 348.623 10.409,349.381 10.634,349.846 10.906 C 352.946 12.717,354.002 13.359,355.600 14.406 C 356.590 15.054,357.772 15.751,358.226 15.954 C 359.982 16.740,363.577 19.259,365.002 20.700 C 365.491 21.195,366.056 21.600,366.258 21.600 C 366.459 21.600,368.508 23.498,370.812 25.818 C 373.115 28.138,375.233 30.253,375.517 30.518 C 377.105 32.000,378.397 33.442,378.398 33.736 C 378.399 33.921,379.172 35.001,380.116 36.136 C 381.060 37.271,382.352 39.010,382.986 40.000 C 383.620 40.990,384.557 42.440,385.069 43.222 C 385.581 44.003,386.000 44.836,386.000 45.073 C 386.000 45.309,386.285 45.739,386.634 46.028 C 386.983 46.318,387.543 47.240,387.878 48.077 C 388.213 48.915,388.645 49.600,388.839 49.600 C 389.032 49.600,389.304 50.312,389.443 51.182 C 389.583 52.051,390.031 53.066,390.440 53.437 C 390.850 53.807,391.304 54.760,391.451 55.555 C 391.597 56.350,392.051 57.627,392.459 58.394 C 392.866 59.161,393.200 60.243,393.200 60.800 C 393.200 61.357,393.580 62.522,394.045 63.389 C 394.515 64.265,394.980 66.042,395.091 67.383 C 395.202 68.713,395.519 70.165,395.796 70.610 C 397.155 72.793,397.200 76.882,397.196 200.099 C 397.192 322.124,397.148 326.266,395.818 329.600 C 395.510 330.370,395.166 331.933,395.052 333.073 C 394.938 334.213,394.474 335.870,394.022 336.757 C 393.570 337.643,393.200 338.787,393.200 339.299 C 393.200 339.812,392.860 340.897,392.445 341.711 C 392.030 342.525,391.577 343.799,391.438 344.541 C 391.298 345.283,390.828 346.213,390.392 346.607 C 389.956 347.001,389.600 347.812,389.600 348.408 C 389.600 349.004,389.234 349.958,388.786 350.527 C 388.338 351.097,387.780 352.111,387.547 352.781 C 387.313 353.452,386.962 354.000,386.766 354.000 C 386.571 354.000,386.132 354.585,385.791 355.300 C 385.053 356.849,383.839 358.840,382.200 361.188 C 381.540 362.134,380.695 363.366,380.322 363.926 C 379.949 364.485,379.364 365.100,379.022 365.292 C 378.680 365.483,378.400 365.863,378.400 366.135 C 378.400 367.072,367.287 378.400,366.368 378.400 C 366.240 378.400,365.340 379.134,364.368 380.031 C 363.396 380.929,362.046 381.908,361.368 382.208 C 360.691 382.508,359.904 383.034,359.619 383.377 C 359.335 383.720,358.848 384.000,358.538 384.000 C 358.229 384.000,357.875 384.261,357.752 384.581 C 357.630 384.900,356.870 385.376,356.065 385.639 C 355.259 385.901,354.091 386.540,353.469 387.058 C 352.847 387.576,352.156 388.000,351.932 388.000 C 351.709 388.000,351.069 388.360,350.509 388.800 C 349.950 389.240,349.091 389.600,348.600 389.600 C 348.109 389.600,347.248 389.962,346.686 390.404 C 346.125 390.845,345.065 391.326,344.332 391.472 C 343.600 391.618,342.460 392.066,341.800 392.467 C 341.140 392.869,340.190 393.198,339.688 393.199 C 339.186 393.199,337.707 393.650,336.400 394.200 C 335.093 394.750,333.322 395.200,332.463 395.200 C 331.604 395.200,330.024 395.605,328.951 396.100 L 327.000 397.000 202.000 397.070 C 78.734 397.139,72.506 397.080,70.699 395.814 C 70.195 395.461,68.966 395.198,67.811 395.196 C 66.490 395.194,65.114 394.855,63.800 394.209 C 62.700 393.668,61.255 393.219,60.589 393.213 C 59.923 393.206,58.959 392.907,58.447 392.548 C 57.935 392.190,56.791 391.733,55.903 391.534 C 55.016 391.334,53.840 390.818,53.291 390.386 C 52.742 389.954,51.891 389.600,51.400 389.600 C 50.909 389.600,50.050 389.240,49.491 388.800 C 48.931 388.360,48.291 388.000,48.068 388.000 C 47.844 388.000,47.153 387.575,46.531 387.055 C 45.909 386.535,44.950 385.974,44.400 385.809 C 43.850 385.643,43.040 385.211,42.600 384.847 C 41.490 383.930,39.607 382.694,38.307 382.030 C 37.705 381.723,36.535 380.784,35.707 379.943 C 34.878 379.102,34.020 378.411,33.800 378.409 C 33.009 378.400,24.079 369.347,20.771 365.200 C 19.172 363.195,16.347 359.118,15.971 358.270 C 15.758 357.791,15.047 356.590,14.391 355.600 C 13.735 354.610,12.834 353.042,12.388 352.117 C 11.942 351.191,11.416 350.334,11.219 350.212 C 11.023 350.090,10.738 349.408,10.586 348.695 C 10.435 347.983,10.045 347.098,9.719 346.729 C 9.394 346.359,8.954 345.282,8.741 344.335 C 8.528 343.387,8.079 342.308,7.743 341.937 C 7.407 341.566,7.035 340.483,6.916 339.531 C 6.797 338.579,6.367 337.247,5.962 336.572 C 5.556 335.897,5.115 334.277,4.983 332.972 C 4.850 331.667,4.491 329.970,4.185 329.200 C 2.937 326.060,2.874 319.164,2.971 198.000 C 3.069 77.781,3.115 72.916,4.177 70.827 C 4.464 70.262,4.823 68.618,4.974 67.173 C 5.132 65.657,5.575 64.050,6.021 63.373 C 6.447 62.728,6.798 61.750,6.801 61.200 C 6.804 60.650,7.250 59.300,7.791 58.200 C 8.332 57.100,8.781 55.793,8.787 55.296 C 8.794 54.799,9.160 54.084,9.600 53.707 C 10.040 53.330,10.403 52.657,10.406 52.211 C 10.409 51.765,10.666 50.950,10.976 50.400 C 11.286 49.850,11.903 48.635,12.347 47.700 C 12.792 46.765,13.328 46.000,13.538 46.000 C 13.749 46.000,14.120 45.505,14.363 44.900 C 15.207 42.795,18.185 38.086,19.232 37.200 C 19.362 37.090,19.650 36.668,19.871 36.262 C 20.794 34.572,33.151 21.600,33.838 21.600 C 34.037 21.600,35.006 20.864,35.991 19.963 C 36.975 19.063,38.235 18.069,38.791 17.754 C 39.346 17.439,40.700 16.641,41.800 15.981 C 42.900 15.321,44.295 14.565,44.900 14.302 C 45.505 14.040,46.000 13.701,46.000 13.549 C 46.000 13.068,51.189 10.400,52.125 10.400 C 52.618 10.400,53.330 10.040,53.707 9.600 C 54.084 9.160,54.799 8.794,55.296 8.787 C 55.793 8.781,57.100 8.332,58.200 7.791 C 59.300 7.250,60.650 6.804,61.200 6.801 C 61.750 6.798,62.728 6.447,63.373 6.021 C 64.050 5.575,65.657 5.132,67.173 4.974 C 68.618 4.823,70.298 4.446,70.906 4.136 C 71.514 3.827,73.944 3.426,76.306 3.247 C 81.777 2.830,316.556 2.796,323.043 3.211 M349.127 5.284 C 349.417 5.685,349.850 5.893,350.089 5.745 C 350.350 5.584,350.409 5.663,350.236 5.942 C 349.920 6.453,351.553 7.253,352.168 6.887 C 352.370 6.767,352.429 6.946,352.299 7.286 C 352.169 7.625,352.264 8.104,352.511 8.351 C 352.843 8.683,352.704 8.812,351.980 8.846 C 350.165 8.931,349.403 8.745,348.900 8.095 C 348.625 7.738,348.400 7.594,348.400 7.773 C 348.400 7.952,348.138 7.880,347.818 7.615 C 347.497 7.349,347.047 7.247,346.818 7.389 C 346.588 7.531,346.400 7.446,346.400 7.200 C 346.400 6.954,346.220 6.864,346.000 7.000 C 345.612 7.240,345.404 6.612,345.604 5.800 C 345.658 5.580,345.709 5.214,345.718 4.986 C 345.746 4.248,348.555 4.494,349.127 5.284 M46.600 6.800 C 46.202 7.240,45.558 7.600,45.169 7.600 C 44.780 7.600,43.927 8.050,43.273 8.600 C 42.619 9.150,41.805 9.600,41.463 9.600 C 41.121 9.600,40.356 10.050,39.762 10.600 C 39.169 11.150,38.301 11.600,37.835 11.600 C 37.368 11.600,36.159 12.393,35.148 13.361 C 34.137 14.330,32.745 15.415,32.055 15.772 C 31.365 16.129,30.800 16.568,30.800 16.749 C 30.800 16.930,30.449 17.240,30.021 17.439 C 27.702 18.514,17.644 28.609,17.271 30.237 C 17.200 30.547,16.978 30.800,16.779 30.800 C 16.326 30.800,14.665 33.998,14.963 34.296 C 15.083 34.416,15.311 34.174,15.469 33.757 C 15.627 33.341,16.262 32.555,16.878 32.011 C 17.495 31.467,18.000 30.783,18.000 30.492 C 18.000 30.200,18.450 29.545,19.000 29.035 C 19.550 28.525,20.000 27.904,20.000 27.654 C 20.000 27.404,20.270 27.200,20.600 27.200 C 20.930 27.200,21.200 27.028,21.200 26.818 C 21.200 26.608,21.658 25.978,22.218 25.418 C 22.778 24.858,23.138 24.400,23.018 24.400 C 22.898 24.400,23.115 24.069,23.500 23.663 C 23.885 23.258,24.322 22.991,24.471 23.069 C 24.620 23.148,24.845 22.889,24.970 22.494 C 25.095 22.099,25.743 21.570,26.409 21.319 C 27.075 21.067,27.571 20.631,27.510 20.349 C 27.450 20.067,27.580 19.821,27.800 19.802 C 28.020 19.783,28.799 19.195,29.531 18.494 C 30.263 17.794,30.987 17.261,31.139 17.310 C 31.433 17.405,31.901 17.045,34.400 14.800 C 37.064 12.407,37.234 12.305,38.607 12.268 C 39.342 12.249,39.913 12.135,39.875 12.016 C 39.700 11.468,41.100 10.189,41.983 10.090 C 42.523 10.030,43.063 9.837,43.183 9.661 C 43.302 9.485,43.726 9.221,44.125 9.074 C 44.524 8.926,44.740 8.626,44.605 8.407 C 44.462 8.177,44.622 8.110,44.984 8.249 C 45.329 8.381,45.878 8.267,46.205 7.996 C 46.532 7.724,46.800 7.614,46.800 7.751 C 46.800 7.888,47.160 7.640,47.600 7.200 C 48.539 6.261,48.596 6.000,47.862 6.000 C 47.566 6.000,46.998 6.360,46.600 6.800 M362.000 12.000 C 362.000 12.220,362.254 12.400,362.564 12.400 C 362.875 12.400,363.583 12.940,364.139 13.600 C 364.694 14.260,365.321 14.800,365.531 14.800 C 365.742 14.800,366.022 15.081,366.154 15.425 C 366.286 15.769,366.563 15.947,366.768 15.820 C 366.974 15.692,367.257 15.951,367.398 16.394 C 367.539 16.837,367.901 17.200,368.203 17.200 C 368.506 17.200,368.863 17.378,368.997 17.595 C 369.139 17.825,368.939 17.900,368.521 17.775 C 368.124 17.656,368.880 18.103,370.200 18.768 C 371.520 19.433,372.600 20.159,372.600 20.381 C 372.600 20.952,374.236 22.030,374.581 21.686 C 374.738 21.529,374.830 21.580,374.786 21.800 C 374.604 22.701,374.830 23.275,375.300 23.112 C 375.575 23.016,376.115 23.267,376.500 23.669 C 376.885 24.071,377.119 24.400,377.019 24.400 C 376.920 24.400,377.281 24.878,377.823 25.463 C 378.365 26.047,378.717 26.616,378.606 26.727 C 378.495 26.838,378.809 27.129,379.302 27.374 C 379.835 27.638,380.251 28.262,380.327 28.909 C 380.416 29.677,380.682 30.000,381.227 30.000 C 381.652 30.000,381.979 30.135,381.953 30.300 C 381.827 31.097,382.040 31.622,382.400 31.400 C 382.620 31.264,382.800 31.432,382.800 31.773 C 382.800 32.114,383.142 32.607,383.560 32.868 C 383.978 33.129,384.229 33.581,384.117 33.871 C 384.001 34.174,384.189 34.400,384.557 34.400 C 384.911 34.400,385.200 34.580,385.200 34.800 C 385.200 35.020,385.500 35.200,385.867 35.200 C 386.233 35.200,386.416 35.317,386.273 35.460 C 386.130 35.603,386.471 36.144,387.030 36.663 C 387.589 37.181,388.109 37.919,388.186 38.303 C 388.510 39.937,388.628 40.219,389.160 40.637 C 389.468 40.879,389.738 41.684,389.760 42.427 C 389.790 43.441,390.049 43.903,390.800 44.287 C 391.350 44.569,391.749 44.998,391.686 45.241 C 391.623 45.485,391.757 45.907,391.982 46.179 C 392.208 46.451,392.279 46.788,392.140 46.927 C 391.720 47.346,392.814 48.369,393.429 48.133 C 393.825 47.982,393.998 48.204,393.994 48.857 C 393.989 49.613,393.911 49.681,393.600 49.200 C 393.263 48.679,393.211 48.687,393.206 49.257 C 393.203 49.619,393.481 50.022,393.825 50.154 C 394.169 50.286,394.339 50.576,394.202 50.797 C 394.065 51.019,394.214 51.200,394.534 51.200 C 395.163 51.200,395.732 52.263,395.395 52.808 C 395.280 52.993,395.370 53.258,395.593 53.396 C 396.204 53.773,396.079 51.560,395.423 50.400 C 395.113 49.850,394.561 48.829,394.198 48.131 C 393.835 47.433,393.282 46.764,392.969 46.643 C 392.656 46.523,392.400 45.979,392.400 45.433 C 392.400 44.888,391.950 43.956,391.400 43.362 C 390.850 42.769,390.400 41.870,390.400 41.364 C 390.400 40.859,390.077 40.210,389.683 39.923 C 389.288 39.635,388.741 38.635,388.467 37.700 C 388.189 36.753,387.721 36.000,387.411 36.000 C 387.105 36.000,386.740 35.640,386.600 35.200 C 386.460 34.759,385.998 34.213,385.573 33.986 C 385.148 33.758,384.800 33.303,384.800 32.973 C 384.800 32.644,384.522 32.268,384.183 32.138 C 383.844 32.008,383.210 31.204,382.775 30.351 C 382.340 29.498,381.802 28.800,381.579 28.800 C 381.357 28.800,381.063 28.485,380.926 28.100 C 380.683 27.416,379.020 25.563,375.800 22.389 C 374.920 21.522,373.834 20.449,373.386 20.006 C 372.938 19.563,372.360 19.200,372.100 19.200 C 371.840 19.200,371.442 18.852,371.214 18.427 C 370.987 18.002,370.396 17.532,369.900 17.383 C 369.405 17.234,368.640 16.773,368.200 16.359 C 363.495 11.927,362.000 10.876,362.000 12.000 M12.500 35.870 C 12.005 36.215,11.600 36.836,11.600 37.249 C 11.600 38.349,12.272 38.165,12.568 36.984 C 12.709 36.425,12.998 36.075,13.212 36.207 C 13.425 36.339,13.600 36.167,13.600 35.824 C 13.600 35.081,13.633 35.079,12.500 35.870 M10.500 39.488 C 10.005 40.059,9.600 40.778,9.600 41.085 C 9.600 41.391,9.150 42.305,8.600 43.114 C 8.050 43.923,7.600 44.741,7.600 44.930 C 7.600 45.119,7.240 45.731,6.800 46.291 C 6.360 46.850,6.000 47.570,6.000 47.890 C 6.000 48.210,5.635 48.771,5.189 49.136 C 4.623 49.600,4.311 50.464,4.156 52.000 C 4.014 53.410,4.068 54.011,4.307 53.674 C 4.512 53.385,4.601 52.739,4.505 52.239 C 4.387 51.621,4.698 50.957,5.474 50.165 C 6.690 48.924,8.275 45.752,8.087 44.934 C 8.025 44.663,8.340 44.246,8.787 44.007 C 9.234 43.768,9.600 43.308,9.600 42.986 C 9.600 42.664,9.768 42.400,9.974 42.400 C 10.179 42.400,10.263 41.936,10.160 41.368 C 10.042 40.720,10.127 40.431,10.386 40.592 C 10.614 40.732,10.800 40.567,10.800 40.224 C 10.800 39.881,10.961 39.600,11.157 39.600 C 11.354 39.600,11.618 39.330,11.745 39.000 C 12.092 38.094,11.510 38.323,10.500 39.488 M396.970 57.248 C 396.846 57.449,396.532 57.486,396.272 57.330 C 395.983 57.156,396.005 57.299,396.330 57.701 C 396.787 58.264,396.755 58.347,396.097 58.297 C 395.288 58.236,395.120 57.631,395.459 56.000 L 395.667 55.000 396.432 55.942 C 396.852 56.460,397.094 57.048,396.970 57.248 M398.267 67.467 C 398.267 67.760,398.057 68.000,397.800 68.000 C 397.543 68.000,397.333 67.760,397.333 67.467 C 397.333 67.173,397.543 66.933,397.800 66.933 C 398.057 66.933,398.267 67.173,398.267 67.467 M89.800 241.877 C 85.611 242.840,84.128 243.887,82.823 246.800 C 81.139 250.562,82.766 255.013,86.600 257.136 C 87.843 257.824,302.228 258.448,310.679 257.788 C 320.694 257.006,322.080 244.429,312.394 242.226 C 309.751 241.625,92.378 241.284,89.800 241.877 M47.810 276.293 C 42.220 277.710,40.128 285.893,44.375 289.730 C 47.645 292.684,32.154 292.429,201.000 292.308 L 352.600 292.200 354.600 291.200 C 360.694 288.153,360.739 280.124,354.679 277.058 L 352.589 276.000 200.594 276.046 C 116.997 276.072,48.245 276.183,47.810 276.293 M47.000 311.001 C 41.171 313.062,40.320 321.184,45.539 324.946 L 47.279 326.200 200.569 326.200 L 353.859 326.200 355.335 325.200 C 361.121 321.280,359.918 312.483,353.370 310.834 C 350.464 310.103,49.077 310.267,47.000 311.001 M0.000 333.951 C 0.000 334.762,1.032 335.167,1.092 334.380 C 1.125 333.941,0.899 333.600,0.575 333.600 C 0.259 333.600,0.000 333.758,0.000 333.951 M398.505 336.900 C 399.078 337.335,399.090 337.497,398.601 338.150 C 397.816 339.197,396.847 338.734,397.096 337.432 C 397.318 336.271,397.558 336.181,398.505 336.900 M87.954 344.950 C 80.661 347.567,80.082 356.603,87.000 359.853 L 89.000 360.792 200.526 360.796 L 312.052 360.800 313.984 359.969 C 320.164 357.310,320.537 349.186,314.643 345.600 L 313.000 344.600 201.200 344.515 C 110.428 344.447,89.128 344.528,87.954 344.950 M4.000 347.960 C 4.000 349.388,4.625 350.827,5.458 351.320 C 5.756 351.496,6.000 352.059,6.000 352.571 C 6.000 353.083,6.272 353.728,6.605 354.004 C 6.937 354.280,7.563 355.247,7.995 356.153 C 8.427 357.059,8.951 358.070,9.160 358.400 C 9.369 358.730,9.929 359.676,10.404 360.502 C 10.879 361.329,11.448 361.894,11.667 361.759 C 11.893 361.619,11.602 361.029,10.994 360.394 C 10.404 359.778,9.940 359.168,9.961 359.037 C 10.116 358.093,9.861 357.504,8.919 356.630 C 8.325 356.079,7.958 355.509,8.103 355.363 C 8.439 355.028,7.308 352.800,6.802 352.800 C 6.595 352.800,6.523 352.544,6.643 352.231 C 6.763 351.918,6.353 351.091,5.731 350.393 C 5.109 349.695,4.594 348.700,4.587 348.182 C 4.579 347.664,4.444 347.111,4.287 346.953 C 4.129 346.796,4.000 347.249,4.000 347.960 M395.600 347.824 C 395.600 348.495,395.441 348.749,395.138 348.562 C 394.866 348.394,394.784 348.451,394.939 348.702 C 395.306 349.295,394.805 350.450,394.313 350.146 C 393.727 349.784,393.171 350.883,393.649 351.459 C 393.935 351.804,393.813 352.072,393.226 352.386 C 392.772 352.629,392.400 353.079,392.400 353.386 C 392.400 353.692,392.117 354.226,391.771 354.571 C 391.360 354.983,391.310 355.200,391.626 355.200 C 391.892 355.200,391.449 355.725,390.641 356.368 C 389.811 357.027,389.352 357.647,389.586 357.791 C 390.117 358.119,390.128 359.600,389.600 359.600 C 389.380 359.600,388.840 359.960,388.400 360.400 C 387.956 360.844,387.813 361.200,388.080 361.200 C 388.435 361.200,388.443 361.317,388.111 361.649 C 387.864 361.896,387.753 362.332,387.863 362.619 C 387.973 362.906,387.593 363.448,387.019 363.824 C 386.445 364.201,386.069 364.602,386.184 364.717 C 386.562 365.095,385.519 366.000,384.704 366.000 C 384.109 366.000,383.959 366.199,384.112 366.785 C 384.312 367.548,383.545 368.612,383.109 368.176 C 382.990 368.057,382.691 368.537,382.445 369.243 C 382.199 369.949,381.638 370.778,381.199 371.086 C 380.759 371.394,380.400 371.916,380.400 372.246 C 380.400 372.577,380.220 372.736,380.000 372.600 C 379.780 372.464,379.600 372.573,379.600 372.843 C 379.600 373.113,379.488 373.221,379.350 373.084 C 379.126 372.860,377.200 375.334,377.200 375.846 C 377.200 376.149,376.107 377.200,375.793 377.200 C 375.519 377.200,374.059 378.445,371.687 380.700 C 370.935 381.415,369.933 382.012,369.460 382.027 C 368.627 382.053,368.630 382.069,369.549 382.510 C 370.352 382.896,370.601 382.839,371.166 382.142 C 371.533 381.688,372.231 381.105,372.717 380.845 C 373.202 380.585,373.600 380.108,373.600 379.786 C 373.600 379.464,373.838 379.200,374.128 379.200 C 374.418 379.200,375.039 378.795,375.508 378.300 C 376.581 377.167,377.167 376.581,378.300 375.508 C 378.795 375.039,379.200 374.418,379.200 374.128 C 379.200 373.838,379.464 373.600,379.786 373.600 C 380.108 373.600,380.587 373.195,380.849 372.700 C 381.112 372.205,381.658 371.565,382.063 371.277 C 382.469 370.990,382.800 370.566,382.800 370.335 C 382.800 370.104,383.251 369.379,383.803 368.724 C 384.354 368.068,384.704 367.368,384.580 367.168 C 384.456 366.967,384.815 366.594,385.377 366.337 C 385.940 366.081,386.400 365.719,386.400 365.533 C 386.400 365.347,386.848 364.806,387.395 364.330 C 387.941 363.854,388.502 362.861,388.641 362.122 C 388.780 361.383,389.232 360.597,389.647 360.375 C 390.065 360.151,390.400 359.543,390.400 359.007 C 390.400 358.476,390.850 357.556,391.400 356.962 C 391.950 356.369,392.400 355.631,392.400 355.322 C 392.400 355.014,393.142 353.645,394.050 352.281 C 395.491 350.115,396.581 346.800,395.853 346.800 C 395.714 346.800,395.600 347.261,395.600 347.824 M11.600 363.114 C 11.600 363.302,12.005 363.831,12.500 364.289 C 14.138 365.806,15.600 367.607,15.600 368.107 C 15.600 368.378,16.334 369.403,17.231 370.385 C 18.129 371.367,19.035 372.491,19.245 372.885 C 19.456 373.278,19.892 373.600,20.214 373.600 C 20.536 373.600,20.804 373.825,20.808 374.100 C 20.817 374.614,25.266 379.200,25.755 379.200 C 26.262 379.200,25.154 377.557,24.474 377.300 C 23.661 376.992,22.800 376.182,22.800 375.725 C 22.800 375.542,22.440 375.168,22.000 374.893 C 21.560 374.618,21.200 374.154,21.200 373.861 C 21.200 373.568,20.750 373.123,20.200 372.873 C 19.577 372.589,19.200 372.087,19.200 371.542 C 19.200 371.061,19.091 370.776,18.957 370.909 C 18.555 371.312,17.684 370.246,17.918 369.636 C 18.057 369.274,17.966 369.174,17.668 369.358 C 17.401 369.523,17.200 369.420,17.200 369.117 C 17.200 368.825,16.300 367.603,15.200 366.400 C 14.100 365.197,13.200 364.081,13.200 363.921 C 13.200 363.760,12.840 363.435,12.400 363.200 C 11.960 362.965,11.600 362.926,11.600 363.114 M26.400 379.786 C 26.400 380.108,26.805 380.587,27.300 380.849 C 27.795 381.112,28.435 381.658,28.723 382.063 C 29.010 382.469,29.486 382.800,29.780 382.800 C 30.074 382.800,30.414 383.061,30.537 383.379 C 30.659 383.698,31.353 384.261,32.079 384.631 C 32.806 385.001,33.670 385.556,34.000 385.864 C 36.525 388.219,37.256 388.801,37.696 388.809 C 37.973 388.814,38.650 389.170,39.200 389.600 C 40.291 390.454,40.800 390.595,40.800 390.046 C 40.800 389.518,38.701 388.240,37.928 388.297 C 37.559 388.324,36.964 387.900,36.607 387.355 C 36.250 386.810,35.507 386.193,34.955 385.983 C 34.403 385.773,34.063 385.421,34.200 385.201 C 34.336 384.980,34.066 384.800,33.600 384.800 C 33.061 384.800,32.857 384.632,33.038 384.338 C 33.212 384.057,33.148 383.985,32.875 384.154 C 32.628 384.306,32.197 384.064,31.917 383.616 C 31.637 383.167,31.170 382.800,30.880 382.800 C 30.583 382.800,30.478 382.598,30.638 382.338 C 30.812 382.057,30.748 381.985,30.476 382.153 C 30.230 382.305,29.692 382.108,29.279 381.715 C 28.867 381.322,28.186 380.792,27.765 380.537 C 27.344 380.283,27.045 379.878,27.100 379.637 C 27.155 379.397,27.020 379.200,26.800 379.200 C 26.580 379.200,26.400 379.464,26.400 379.786 M368.200 383.324 C 367.760 383.586,366.894 384.340,366.275 385.000 C 365.656 385.660,365.022 386.200,364.866 386.200 C 364.709 386.200,364.153 386.599,363.630 387.086 C 363.107 387.574,362.498 387.861,362.278 387.724 C 362.032 387.573,362.004 387.682,362.204 388.006 C 362.440 388.389,362.350 388.466,361.877 388.285 C 361.504 388.142,360.930 388.328,360.540 388.717 C 360.164 389.093,359.709 389.423,359.529 389.450 C 359.348 389.478,359.074 389.523,358.920 389.550 C 358.766 389.578,358.854 389.814,359.115 390.075 C 359.481 390.441,359.796 390.356,360.495 389.704 C 360.993 389.240,361.875 388.741,362.456 388.597 C 363.037 388.453,363.891 387.900,364.353 387.368 C 364.816 386.835,365.364 386.400,365.570 386.400 C 365.777 386.400,366.060 386.040,366.200 385.600 C 366.340 385.160,366.770 384.800,367.157 384.800 C 367.544 384.800,368.283 384.350,368.800 383.800 C 369.795 382.741,369.530 382.531,368.200 383.324 M356.894 390.830 C 356.182 391.526,355.600 391.894,355.600 391.647 C 355.600 391.401,355.409 391.200,355.176 391.200 C 354.943 391.200,354.864 391.380,355.000 391.600 C 355.136 391.820,354.871 392.000,354.411 392.000 C 353.951 392.000,353.479 392.250,353.362 392.555 C 353.245 392.860,352.665 393.211,352.074 393.335 C 351.483 393.458,350.530 394.002,349.955 394.544 C 349.381 395.086,348.481 395.611,347.955 395.710 C 347.165 395.860,347.215 395.900,348.246 395.946 C 348.957 395.977,349.929 395.657,350.509 395.200 C 351.069 394.760,351.733 394.400,351.987 394.400 C 352.240 394.400,352.319 394.192,352.162 393.938 C 351.977 393.640,352.053 393.586,352.376 393.785 C 352.666 393.964,353.326 393.762,353.946 393.303 C 354.534 392.868,355.372 392.392,355.808 392.245 C 356.959 391.856,358.494 390.483,358.330 389.989 C 358.252 389.756,357.606 390.134,356.894 390.830 M41.837 390.340 C 41.550 390.805,42.742 391.830,44.000 392.199 C 44.550 392.360,45.360 392.811,45.800 393.200 C 46.240 393.589,47.049 394.045,47.598 394.212 C 48.148 394.380,48.778 394.758,48.998 395.053 C 49.219 395.348,50.030 395.683,50.800 395.799 C 51.570 395.914,51.980 395.903,51.710 395.774 C 51.441 395.645,51.126 395.553,51.012 395.568 C 50.897 395.584,50.263 395.031,49.602 394.339 C 48.941 393.647,48.400 393.288,48.400 393.541 C 48.400 393.793,48.209 394.000,47.976 394.000 C 47.743 394.000,47.658 393.829,47.788 393.620 C 47.917 393.411,47.657 393.045,47.211 392.806 C 46.765 392.567,46.400 392.504,46.400 392.666 C 46.400 392.828,46.184 392.744,45.920 392.480 C 45.656 392.216,45.105 392.000,44.696 392.000 C 44.287 392.000,44.044 391.853,44.155 391.673 C 44.266 391.494,43.839 391.041,43.206 390.667 C 42.573 390.293,41.957 390.146,41.837 390.340 M54.474 396.603 C 54.724 397.151,55.164 397.600,55.452 397.600 C 56.158 397.600,55.769 396.698,54.802 396.094 C 54.072 395.638,54.050 395.672,54.474 396.603 M344.562 396.600 C 343.504 397.581,343.500 397.600,344.379 397.600 C 344.930 397.600,345.353 397.300,345.478 396.821 C 345.590 396.393,345.979 395.964,346.341 395.868 C 346.935 395.710,346.933 395.688,346.321 395.646 C 345.947 395.621,345.156 396.050,344.562 396.600 M59.409 397.214 C 59.626 397.565,59.275 397.615,58.051 397.409 C 56.957 397.224,56.400 397.277,56.400 397.565 C 56.400 397.806,57.114 398.000,58.000 398.000 C 59.067 398.000,59.867 398.267,60.400 398.800 C 61.211 399.611,63.059 399.942,62.596 399.193 C 62.458 398.970,62.177 398.891,61.972 399.017 C 61.768 399.144,61.600 399.046,61.600 398.800 C 61.600 398.554,61.420 398.464,61.200 398.600 C 60.980 398.736,60.800 398.610,60.800 398.320 C 60.800 398.030,60.421 397.556,59.958 397.267 C 59.388 396.911,59.211 396.894,59.409 397.214 M63.503 399.031 C 62.942 399.591,63.682 400.000,65.257 400.000 C 66.814 400.000,67.290 399.297,66.019 398.873 C 65.658 398.753,65.595 398.873,65.821 399.248 C 66.088 399.691,66.014 399.686,65.446 399.226 C 64.873 398.761,64.678 398.750,64.418 399.171 C 64.184 399.550,64.054 399.563,63.940 399.220 C 63.854 398.962,63.657 398.876,63.503 399.031 " stroke="none" fill="#bc2c2c" fill-rule="evenodd"></path></g></svg>