<?xml version="1.0" standalone="no"?><!DOCTYPE svg PUBLIC "-//W3C//DTD SVG 1.1//EN" "http://www.w3.org/Graphics/SVG/1.1/DTD/svg11.dtd"><svg t="1707716942445" class="icon" viewBox="0 0 1088 1024" version="1.1" xmlns="http://www.w3.org/2000/svg" p-id="2456" xmlns:xlink="http://www.w3.org/1999/xlink" width="51" height="48"><path d="M3.764706 0h1024v1024H3.764706z" fill="#017AFF" fill-opacity="0" p-id="2457"></path><path d="M360.975059 709.481412a252.054588 252.054588 0 0 1 23.717647-61.199059 212.720941 212.720941 0 0 1-89.720471-173.733647c0-117.579294 95.397647-212.961882 212.976941-212.961882 117.564235 0 212.961882 95.382588 212.961883 212.961882 0 23.055059-3.719529 45.236706-10.390588 66.002823a253.44 253.44 0 0 1 108.619294 94.298353 193.355294 193.355294 0 0 1 90.48847 28.521412 441.630118 441.630118 0 0 0 42.059294-188.717176c0-244.976941-198.656-443.632941-443.632941-443.632942S64.301176 229.571765 64.301176 474.548706c0 152.756706 77.251765 287.488 194.725648 367.254588a161.942588 161.942588 0 0 1 101.948235-132.321882z" fill="#4795F4" p-id="2458"></path><path d="M964.472471 801.159529c-11.474824-80.971294-80.534588-143.691294-164.336942-144.896a223.412706 223.412706 0 0 0-153.856-106.420705 219.346824 219.346824 0 0 0-38.896941-3.824942c-106.767059 0-197.345882 74.089412-218.864941 177.453177-55.070118 18.356706-94.960941 70.264471-94.960941 131.44847 0 76.378353 62.177882 138.661647 138.541176 138.661647 27.557647 0 53.775059-7.981176 76.498824-23.04a223.774118 223.774118 0 0 0 98.785882 23.04c35.614118 0 70.927059-8.628706 102.384941-24.907294a166.746353 166.746353 0 0 0 87.958589 24.907294c88.079059 0 160.527059-67.855059 167.845647-154.066823 0.436706-4.818824 0.752941-9.728 0.752941-14.637177a141.718588 141.718588 0 0 0-1.852235-23.717647z" fill="#E5E5E5" p-id="2459"></path></svg>