<?xml version="1.0" standalone="no"?><!DOCTYPE svg PUBLIC "-//W3C//DTD SVG 1.1//EN" "http://www.w3.org/Graphics/SVG/1.1/DTD/svg11.dtd"><svg t="1707713796532" class="icon" viewBox="0 0 1024 1024" version="1.1" xmlns="http://www.w3.org/2000/svg" p-id="53611" xmlns:xlink="http://www.w3.org/1999/xlink" width="48" height="48"><path d="M200.113133 370.685211s-25.564497-186.62083 97.14509-296.548169c0 0 92.03219-84.362841 240.306274-71.580592 148.274084 12.782249 242.862724 125.266037 276.096571 258.201423 33.233846 132.935386-109.927338 332.338465-109.927338 332.338464l-316.999767 20.451598-163.612783-63.911243-23.008047-178.951481z" fill="#231815" p-id="53612"></path><path d="M361.169466 224.967576c0 46.016095 25.564497 81.806391 58.798344 81.806392 33.233846 0 58.798344-35.790296 58.798344-81.806392s-25.564497-81.806391-58.798344-81.806391c-33.233846-2.55645-58.798344 35.790296-58.798344 81.806391zM527.338698 224.967576c0 46.016095 25.564497 81.806391 58.798344 81.806392s58.798344-35.790296 58.798344-81.806392-25.564497-81.806391-58.798344-81.806391-58.798344 35.790296-58.798344 81.806391z" fill="#F9FDFF" p-id="53613"></path><path d="M414.85491 222.411127c0 20.451598 10.225799 38.346746 25.564498 38.346746s25.564497-17.895148 25.564497-38.346746-10.225799-38.346746-25.564497-38.346746-25.564497 15.338698-25.564498 38.346746z" fill="#231D27" p-id="53614"></path><path d="M414.85491 222.411127c0 20.451598 10.225799 38.346746 25.564498 38.346746s25.564497-17.895148 25.564497-38.346746-10.225799-38.346746-25.564497-38.346746-25.564497 15.338698-25.564498 38.346746z" fill="#231D27" p-id="53615"></path><path d="M435.306508 222.411127c0 7.669349 5.112899 12.782249 10.225799 12.782248s10.225799-5.112899 10.225799-12.782248-5.112899-12.782249-10.225799-12.782249-10.225799 5.112899-10.225799 12.782249z" fill="#F9FDFF" p-id="53616"></path><path d="M322.82272 386.023909c-5.112899-2.55645-7.669349-7.669349-10.225799-10.225799-2.55645-2.55645-5.112899-5.112899-5.112899-7.669349-2.55645-10.225799 10.225799-15.338698 17.895148-17.895148 15.338698-5.112899 28.120947-7.669349 43.459645-12.782249 33.233846-7.669349 66.467693-17.895148 102.257989-20.451597 61.354794-5.112899 120.153137 7.669349 178.951481 20.451597 17.895148 5.112899 33.233846 7.669349 48.572545 17.895149 2.55645 2.55645 5.112899 5.112899 5.1129 7.669349 0 5.112899-2.55645 7.669349-5.1129 10.225799-17.895148 17.895148-40.903196 28.120947-63.911243 40.903195-38.346746 23.008048-76.693492 48.572545-120.153137 53.685445-33.233846 2.55645-63.911243-7.669349-94.58864-23.008048-20.451598-10.225799-38.346746-23.008048-58.798344-35.790296-10.225799-7.669349-25.564497-15.338698-38.346746-23.008048z" fill="#FFAC00" p-id="53617"></path><path d="M407.185561 411.588407s-40.903196-28.120947-53.685444-40.903196c51.128995 40.903196 117.596688 63.911243 181.507931 51.128995 46.016095-7.669349 86.919291-28.120947 122.709587-56.241895-23.008048 17.895148-51.128995 35.790296-76.693492 51.128995-23.008048 12.782249-51.128995 38.346746-76.693492 38.346746-17.895148 0-35.790296-7.669349-51.128995-15.338698-12.782249-10.225799-30.677397-17.895148-46.016095-28.120947" fill="#AC2B28" p-id="53618"></path><path d="M113.193842 411.588407l28.120947-56.241894s166.169232 48.572545 363.015862 158.499883c0 0 191.73373-115.040238 368.128761-161.056333l43.459645 76.693492-43.459645 196.846629-189.17728 120.153137-219.854677-20.451598-184.06438-63.911243-166.169233-250.532073z" fill="#FFFFFF" p-id="53619"></path><path d="M69.734197 444.822253s-10.225799-25.564497 28.120947-48.572545c0 0 89.475741 12.782249 255.644973 71.580593l117.596687 48.572545s25.564497 12.782249 81.806392 0c0 0 40.903196-25.564497 155.943433-66.467693 0 0 33.233846-15.338698 184.064381-48.572545 0 0 43.459645-20.451598 56.241894 33.233846l-28.120947 286.32237-15.338699 163.612783s2.55645 20.451598-40.903195 25.564497c-43.459645 5.112899-316.999767 99.701539-316.999767 99.70154s-30.677397 20.451598-74.137042 0-296.548169-99.701539-327.225565-102.25799c0 0-30.677397 2.55645-33.233847-48.572545-7.669349-58.798344-33.233846-337.451364-43.459645-414.144856z" fill="#00ADFB" p-id="53620"></path><path d="M895.46746 398.806158c-150.830534 30.677397-184.064381 48.572545-184.064381 48.572545-115.040238 40.903196-155.943434 66.467693-155.943434 66.467693-56.241894 12.782249-81.806391 0-81.806391 0l-117.596688-48.572545c-166.169232-58.798344-255.644973-71.580592-255.644973-71.580593-17.895148 12.782249-25.564497 23.008048-28.120947 33.233847 7.669349-2.55645 17.895148-5.112899 33.233847 2.55645 0 0 255.644973 74.137042 360.459412 120.153137 0 0 35.790296 12.782249 97.14509 0 0 0 184.064381-89.475741 363.015861-125.266037 0 0 10.225799 0 23.008048 5.1129-10.225799-48.572545-53.685444-30.677397-53.685444-30.677397z" fill="#74D3FD" p-id="53621"></path><path d="M465.983905 549.636692l7.669349 465.273851c43.459645 20.451598 71.580592 0 71.580592 0l7.66935-462.717401c-51.128995 7.669349-81.806391-2.55645-86.919291-2.55645z" fill="#1AB5FF" p-id="53622"></path><path d="M611.701539 483.168999s0-7.669349 76.693492-28.120947l40.903196 15.338698s2.55645 81.806391 5.1129 132.935386l7.669349 63.911244-33.233847-10.225799s-5.112899-2.55645-15.338698 10.225799c-10.225799 10.225799-23.008048 25.564497-23.008048 25.564497s-17.895148-28.120947-20.451598-94.58864c-2.55645-48.572545 2.55645-97.14509 2.55645-97.14509l-40.903196-17.895148z" fill="#FB0026" p-id="53623"></path><path d="M95.298694 631.443083s30.677397 15.338698 35.790296 43.459646c5.112899 28.120947 5.112899 66.467693-17.895148 69.024143-23.008048 2.55645-53.685444-20.451598-56.241894-56.241895-2.55645-35.790296 7.669349-81.806391 25.564497-66.467693 17.895148 15.338698 5.112899 5.112899 12.782249 10.225799z m838.515512-2.556449l-25.564498 20.451598c-12.782249 10.225799-25.564497 40.903196-12.782248 84.362841 15.338698 23.008048 40.903196 10.225799 48.572544 2.556449 7.669349-7.669349 25.564497-38.346746 23.008048-56.241894-2.55645-17.895148 0-33.233846-10.225799-56.241894-12.782249-20.451598-23.008048 5.112899-23.008047 5.1129z" fill="#231D27" p-id="53624"></path><path d="M578.467693 204.515978c17.895148 0 23.008048 17.895148 28.120947 30.677397 2.55645-17.895148-7.669349-43.459645-28.120947-43.459645s-30.677397 25.564497-28.120947 43.459645c5.112899-12.782249 12.782249-30.677397 28.120947-30.677397z" fill="#000405" p-id="53625"></path></svg>