<svg id="svg" version="1.1" xmlns="http://www.w3.org/2000/svg" xmlns:xlink="http://www.w3.org/1999/xlink" width="48" height="48" viewBox="0 0 400 400"><g id="svgg"><path id="path0" d="M54.160 80.631 C 48.679 83.515,46.800 87.019,46.800 94.354 C 46.800 101.232,47.670 102.036,56.800 103.595 C 58.230 103.839,60.000 104.229,60.734 104.462 C 61.468 104.694,63.261 105.134,64.718 105.439 C 69.767 106.495,73.971 108.652,77.944 112.225 C 81.414 115.345,82.826 117.513,86.008 124.600 C 87.724 128.421,90.141 133.260,92.004 136.600 C 93.108 138.580,94.185 140.608,94.398 141.106 C 94.611 141.604,95.120 142.504,95.530 143.106 C 95.940 143.708,96.724 144.920,97.274 145.800 C 98.115 147.148,102.028 153.211,104.031 156.270 C 109.264 164.263,120.956 176.633,129.780 183.510 C 139.165 190.825,150.029 196.772,161.394 200.815 C 162.607 201.247,164.545 201.939,165.700 202.353 C 166.855 202.768,169.009 203.416,170.486 203.794 C 173.647 204.603,174.025 205.218,172.895 207.711 C 172.473 208.640,171.721 210.390,171.223 211.600 C 170.725 212.810,169.985 214.520,169.580 215.400 C 169.174 216.280,168.379 218.080,167.813 219.400 C 167.247 220.720,166.533 222.250,166.228 222.800 C 165.923 223.350,164.854 225.420,163.852 227.400 C 162.851 229.380,161.224 232.350,160.236 234.000 C 159.248 235.650,157.976 237.810,157.410 238.800 C 156.206 240.901,155.693 241.689,153.000 245.573 C 146.784 254.536,147.721 260.501,155.970 264.479 C 158.471 265.685,162.982 268.223,165.400 269.784 C 166.500 270.494,168.750 271.946,170.400 273.009 C 181.878 280.408,201.494 297.157,201.658 299.700 C 201.793 301.794,201.070 307.381,199.597 315.624 C 198.751 320.361,197.997 320.062,210.400 319.913 L 219.800 319.800 219.932 318.640 C 220.005 318.002,219.864 316.684,219.619 315.711 C 219.229 314.161,218.430 308.483,217.183 298.400 C 215.336 283.465,214.466 252.577,215.544 240.200 C 215.792 237.340,216.184 232.660,216.415 229.800 C 218.003 210.059,220.518 205.594,231.175 203.592 C 233.279 203.197,236.080 202.634,237.400 202.341 C 239.079 201.969,243.170 201.808,251.018 201.805 C 263.714 201.799,264.052 201.871,264.726 204.699 C 266.876 213.722,268.360 225.964,268.659 237.135 C 268.911 246.570,268.330 261.533,267.600 264.400 C 267.404 265.170,267.046 267.690,266.804 270.000 C 266.563 272.310,266.178 274.788,265.949 275.507 C 265.721 276.226,265.296 278.206,265.006 279.907 C 264.193 284.675,261.442 295.227,260.185 298.400 C 259.880 299.170,259.440 300.550,259.209 301.467 C 258.977 302.383,258.521 303.643,258.196 304.267 C 257.871 304.890,257.604 305.621,257.602 305.892 C 257.600 306.451,255.898 310.995,254.790 313.400 C 253.062 317.154,252.339 319.178,252.585 319.576 C 252.986 320.224,271.457 320.156,271.859 319.504 C 272.028 319.231,272.379 316.666,272.640 313.804 C 274.135 297.399,274.440 294.434,274.797 292.800 C 275.014 291.810,275.374 289.380,275.597 287.400 C 276.055 283.331,277.675 273.895,278.791 268.800 C 280.679 260.179,281.344 257.229,281.903 255.000 C 282.233 253.680,282.838 251.250,283.247 249.600 C 284.231 245.626,285.698 240.230,286.998 235.800 C 287.579 233.820,288.396 231.030,288.813 229.600 C 291.437 220.600,294.381 213.200,295.337 213.200 C 296.041 213.200,304.369 218.778,307.629 221.434 C 319.272 230.916,327.470 241.686,333.944 256.000 C 334.692 257.655,335.962 261.216,337.794 266.800 C 342.230 280.322,342.216 305.935,337.766 317.077 C 336.607 319.980,336.653 320.000,344.538 320.000 C 349.654 320.000,351.596 319.867,351.857 319.500 C 352.353 318.800,352.183 274.856,351.661 269.055 C 350.447 255.559,346.420 236.391,342.616 226.000 C 342.012 224.350,341.195 222.100,340.801 221.000 C 340.406 219.900,339.796 218.460,339.444 217.800 C 339.093 217.140,338.804 216.366,338.802 216.079 C 338.801 215.793,338.447 214.893,338.015 214.079 C 337.584 213.266,336.755 211.520,336.174 210.200 C 335.594 208.880,334.334 206.180,333.374 204.200 C 329.360 195.918,328.944 193.655,329.639 183.893 C 330.634 169.925,328.106 160.613,320.602 150.598 C 319.944 149.719,319.314 148.910,319.202 148.800 C 319.091 148.690,318.285 147.790,317.412 146.800 C 315.489 144.620,312.590 142.223,309.329 140.114 C 307.008 138.614,304.894 137.527,297.825 134.195 C 290.351 130.671,282.699 124.207,275.106 115.000 C 272.125 111.384,268.024 107.345,266.056 106.084 C 265.475 105.712,264.214 104.816,263.254 104.092 C 253.074 96.422,234.387 93.713,220.800 97.940 C 217.957 98.824,213.744 100.523,213.305 100.962 C 213.153 101.114,212.302 101.588,211.414 102.016 C 204.462 105.363,198.133 111.402,191.939 120.600 C 186.083 129.296,183.010 132.681,178.128 135.814 C 176.848 136.635,175.347 137.618,174.792 137.998 C 174.238 138.377,173.338 138.825,172.792 138.993 C 172.247 139.161,171.597 139.460,171.348 139.658 C 171.099 139.856,169.322 140.550,167.399 141.200 C 142.593 149.585,116.509 134.952,110.380 109.210 C 108.577 101.640,109.415 90.921,112.112 87.063 C 113.604 84.930,113.520 82.640,111.891 81.011 L 110.480 79.600 83.300 79.600 L 56.119 79.600 54.160 80.631 M193.241 225.897 C 193.688 226.940,194.293 228.816,194.584 230.066 C 194.876 231.316,195.243 232.545,195.399 232.799 C 195.750 233.366,197.492 240.078,198.203 243.600 C 198.492 245.030,199.001 247.550,199.334 249.200 C 201.863 261.720,202.965 277.200,201.327 277.200 C 200.692 277.200,187.790 270.657,186.800 269.833 C 186.470 269.558,185.120 268.743,183.800 268.021 C 166.027 258.304,165.795 251.726,182.548 232.600 C 190.080 224.000,191.931 222.840,193.241 225.897 " stroke="none" fill="#fafbfb" fill-rule="evenodd"></path><path id="path1" d="M68.000 0.400 C 68.000 0.626,66.866 0.800,65.397 0.800 C 63.120 0.800,62.686 0.925,61.925 1.800 C 61.186 2.650,60.710 2.800,58.757 2.800 C 56.781 2.800,56.347 2.941,55.671 3.800 C 55.017 4.632,54.544 4.800,52.858 4.800 C 51.382 4.800,50.637 5.007,50.116 5.562 C 49.722 5.981,48.950 6.386,48.400 6.462 C 47.721 6.556,47.359 6.889,47.272 7.500 C 47.162 8.279,46.905 8.400,45.372 8.400 C 43.885 8.400,43.600 8.525,43.600 9.175 C 43.600 9.788,43.222 10.008,41.800 10.221 C 40.398 10.431,40.000 10.658,40.000 11.245 C 40.000 11.860,39.701 12.000,38.390 12.000 C 37.041 12.000,36.719 12.162,36.400 13.000 C 36.167 13.612,35.706 14.000,35.210 14.000 C 34.667 14.000,34.400 14.263,34.400 14.800 C 34.400 15.329,34.133 15.600,33.614 15.600 C 33.182 15.600,32.635 15.960,32.400 16.401 C 32.164 16.841,31.348 17.462,30.586 17.780 C 29.824 18.099,29.200 18.638,29.200 18.980 C 29.200 19.370,28.839 19.600,28.227 19.600 C 27.624 19.600,27.163 19.888,27.014 20.357 C 26.882 20.773,26.419 21.206,25.987 21.319 C 25.520 21.441,25.200 21.866,25.200 22.363 C 25.200 22.989,24.948 23.200,24.200 23.200 C 23.400 23.200,23.200 23.400,23.200 24.200 C 23.200 24.948,22.989 25.200,22.363 25.200 C 21.866 25.200,21.441 25.520,21.319 25.987 C 21.206 26.419,20.773 26.882,20.357 27.014 C 19.941 27.146,19.600 27.595,19.600 28.013 C 19.600 28.430,19.259 28.954,18.842 29.177 C 18.425 29.401,17.899 30.113,17.674 30.761 C 17.448 31.408,16.889 32.138,16.432 32.383 C 15.974 32.628,15.600 33.182,15.600 33.614 C 15.600 34.133,15.329 34.400,14.800 34.400 C 14.290 34.400,14.000 34.667,14.000 35.136 C 14.000 35.540,13.550 36.077,13.000 36.327 C 12.175 36.703,12.000 37.064,12.000 38.391 C 12.000 39.701,11.860 40.000,11.245 40.000 C 10.658 40.000,10.431 40.398,10.221 41.800 C 10.011 43.199,9.783 43.600,9.200 43.600 C 8.620 43.600,8.420 43.943,8.324 45.100 C 8.233 46.203,7.962 46.705,7.300 46.995 C 6.790 47.219,6.400 47.743,6.400 48.206 C 6.400 48.655,6.040 49.330,5.600 49.707 C 4.980 50.238,4.800 50.887,4.800 52.596 C 4.800 54.492,4.694 54.800,4.043 54.800 C 3.076 54.800,2.800 55.551,2.800 58.184 C 2.800 59.921,2.642 60.407,1.923 60.885 C 1.203 61.363,1.016 61.942,0.877 64.133 C 0.783 65.600,0.548 66.800,0.353 66.800 C 0.150 66.800,0.000 123.176,0.000 200.000 C 0.000 288.533,0.134 333.200,0.400 333.200 C 0.620 333.200,0.800 333.988,0.800 334.950 C 0.800 337.677,1.240 339.285,2.043 339.495 C 2.632 339.649,2.787 340.176,2.883 342.342 C 2.989 344.752,3.084 345.012,3.900 345.128 C 4.728 345.245,4.800 345.464,4.800 347.865 C 4.800 350.138,4.903 350.502,5.600 350.684 C 6.067 350.806,6.400 351.230,6.400 351.701 C 6.400 352.145,6.850 352.925,7.400 353.435 C 7.950 353.945,8.400 354.777,8.400 355.285 C 8.400 355.792,8.751 356.427,9.180 356.695 C 9.609 356.963,10.079 357.816,10.225 358.591 C 10.416 359.612,10.697 360.000,11.245 360.000 C 11.873 360.000,12.000 360.302,12.000 361.792 C 12.000 363.371,12.119 363.615,13.000 363.836 C 13.626 363.993,14.000 364.370,14.000 364.843 C 14.000 365.333,14.282 365.600,14.800 365.600 C 15.350 365.600,15.600 365.867,15.600 366.454 C 15.600 366.924,16.032 367.709,16.560 368.198 C 17.088 368.687,17.584 369.428,17.662 369.844 C 17.741 370.260,18.209 370.778,18.702 370.995 C 19.196 371.212,19.600 371.724,19.600 372.132 C 19.600 372.541,19.960 372.969,20.400 373.084 C 20.843 373.200,21.200 373.630,21.200 374.047 C 21.200 374.584,21.487 374.800,22.200 374.800 C 23.000 374.800,23.200 375.000,23.200 375.800 C 23.200 376.600,23.400 376.800,24.200 376.800 C 25.000 376.800,25.200 377.000,25.200 377.800 C 25.200 378.513,25.416 378.800,25.953 378.800 C 26.370 378.800,26.800 379.157,26.916 379.600 C 27.031 380.040,27.459 380.400,27.868 380.400 C 28.276 380.400,28.788 380.804,29.005 381.298 C 29.222 381.791,29.740 382.259,30.156 382.338 C 30.572 382.416,31.313 382.912,31.802 383.440 C 32.291 383.968,33.076 384.400,33.546 384.400 C 34.133 384.400,34.400 384.650,34.400 385.200 C 34.400 385.718,34.667 386.000,35.157 386.000 C 35.630 386.000,36.007 386.374,36.164 387.000 C 36.385 387.881,36.629 388.000,38.208 388.000 C 39.698 388.000,40.000 388.127,40.000 388.755 C 40.000 389.303,40.388 389.584,41.409 389.775 C 42.184 389.921,43.037 390.391,43.305 390.820 C 43.573 391.249,44.208 391.600,44.715 391.600 C 45.223 391.600,46.055 392.050,46.565 392.600 C 47.075 393.150,47.855 393.600,48.299 393.600 C 48.770 393.600,49.194 393.933,49.316 394.400 C 49.498 395.097,49.862 395.200,52.135 395.200 C 54.536 395.200,54.755 395.272,54.872 396.100 C 54.988 396.916,55.248 397.011,57.658 397.117 C 59.824 397.213,60.351 397.368,60.505 397.957 C 60.715 398.760,62.323 399.200,65.050 399.200 C 66.013 399.200,66.800 399.380,66.800 399.600 C 66.800 399.866,111.467 400.000,200.000 400.000 C 276.824 400.000,333.200 399.850,333.200 399.647 C 333.200 399.452,334.400 399.217,335.867 399.123 C 338.058 398.984,338.637 398.797,339.115 398.077 C 339.593 397.358,340.079 397.200,341.816 397.200 C 344.449 397.200,345.200 396.924,345.200 395.957 C 345.200 395.306,345.508 395.200,347.404 395.200 C 349.113 395.200,349.762 395.020,350.293 394.400 C 350.670 393.960,351.345 393.600,351.794 393.600 C 352.257 393.600,352.781 393.210,353.005 392.700 C 353.295 392.038,353.797 391.767,354.900 391.676 C 356.057 391.580,356.400 391.380,356.400 390.800 C 356.400 390.217,356.801 389.989,358.200 389.779 C 359.602 389.569,360.000 389.342,360.000 388.755 C 360.000 388.140,360.299 388.000,361.609 388.000 C 362.936 388.000,363.297 387.825,363.673 387.000 C 363.923 386.450,364.460 386.000,364.864 386.000 C 365.333 386.000,365.600 385.710,365.600 385.200 C 365.600 384.671,365.867 384.400,366.386 384.400 C 366.818 384.400,367.372 384.026,367.617 383.568 C 367.862 383.111,368.592 382.552,369.239 382.326 C 369.887 382.101,370.599 381.575,370.823 381.158 C 371.046 380.741,371.570 380.400,371.987 380.400 C 372.405 380.400,372.854 380.059,372.986 379.643 C 373.118 379.227,373.581 378.794,374.013 378.681 C 374.480 378.559,374.800 378.134,374.800 377.637 C 374.800 377.011,375.052 376.800,375.800 376.800 C 376.600 376.800,376.800 376.600,376.800 375.800 C 376.800 375.052,377.011 374.800,377.637 374.800 C 378.134 374.800,378.559 374.480,378.681 374.013 C 378.794 373.581,379.227 373.118,379.643 372.986 C 380.112 372.837,380.400 372.376,380.400 371.773 C 380.400 371.161,380.630 370.800,381.020 370.800 C 381.362 370.800,381.901 370.176,382.220 369.414 C 382.538 368.652,383.159 367.836,383.599 367.600 C 384.040 367.365,384.400 366.818,384.400 366.386 C 384.400 365.867,384.671 365.600,385.200 365.600 C 385.737 365.600,386.000 365.333,386.000 364.790 C 386.000 364.294,386.388 363.833,387.000 363.600 C 387.838 363.281,388.000 362.959,388.000 361.610 C 388.000 360.299,388.140 360.000,388.755 360.000 C 389.342 360.000,389.569 359.602,389.779 358.200 C 389.992 356.778,390.212 356.400,390.825 356.400 C 391.475 356.400,391.600 356.115,391.600 354.628 C 391.600 353.095,391.721 352.838,392.500 352.728 C 393.111 352.641,393.444 352.279,393.538 351.600 C 393.614 351.050,394.019 350.278,394.438 349.884 C 394.993 349.363,395.200 348.618,395.200 347.142 C 395.200 345.456,395.368 344.983,396.200 344.329 C 397.059 343.653,397.200 343.219,397.200 341.243 C 397.200 339.290,397.350 338.814,398.200 338.075 C 399.075 337.314,399.200 336.880,399.200 334.603 C 399.200 333.134,399.374 332.000,399.600 332.000 C 399.866 332.000,400.000 287.800,400.000 200.200 C 400.000 112.600,399.866 68.400,399.600 68.400 C 399.377 68.400,399.200 67.325,399.200 65.974 C 399.200 63.357,398.717 62.000,397.786 62.000 C 397.333 62.000,397.200 61.422,397.200 59.446 C 397.200 57.163,397.094 56.822,396.200 56.237 C 395.326 55.664,395.200 55.293,395.200 53.287 C 395.200 51.452,395.045 50.896,394.426 50.509 C 393.977 50.229,393.600 49.475,393.526 48.713 C 393.429 47.703,393.192 47.370,392.500 47.272 C 391.721 47.162,391.600 46.905,391.600 45.372 C 391.600 43.903,391.471 43.600,390.847 43.600 C 390.079 43.600,389.616 42.592,389.605 40.900 C 389.602 40.268,389.361 40.000,388.800 40.000 C 388.239 40.000,387.998 39.732,387.995 39.100 C 387.984 37.408,387.521 36.400,386.753 36.400 C 386.216 36.400,386.000 36.113,386.000 35.400 C 386.000 34.679,385.785 34.400,385.228 34.400 C 384.732 34.400,384.410 34.078,384.328 33.500 C 384.246 32.922,383.878 32.554,383.300 32.472 C 382.744 32.393,382.400 32.067,382.400 31.618 C 382.400 31.219,381.950 30.597,381.400 30.237 C 380.763 29.819,380.400 29.209,380.400 28.553 C 380.400 27.877,380.138 27.457,379.634 27.325 C 379.213 27.215,378.759 26.691,378.626 26.162 C 378.473 25.551,378.096 25.200,377.592 25.200 C 377.014 25.200,376.800 24.930,376.800 24.200 C 376.800 23.400,376.600 23.200,375.800 23.200 C 375.070 23.200,374.800 22.986,374.800 22.408 C 374.800 21.904,374.449 21.527,373.838 21.374 C 373.309 21.241,372.785 20.787,372.675 20.366 C 372.543 19.862,372.123 19.600,371.447 19.600 C 370.791 19.600,370.181 19.237,369.763 18.600 C 369.403 18.050,368.781 17.600,368.382 17.600 C 367.933 17.600,367.607 17.256,367.528 16.700 C 367.446 16.122,367.078 15.754,366.500 15.672 C 365.922 15.590,365.600 15.268,365.600 14.772 C 365.600 14.215,365.321 14.000,364.600 14.000 C 363.887 14.000,363.600 13.784,363.600 13.247 C 363.600 12.479,362.592 12.016,360.900 12.005 C 360.268 12.002,360.000 11.761,360.000 11.200 C 360.000 10.639,359.732 10.398,359.100 10.395 C 357.408 10.384,356.400 9.921,356.400 9.153 C 356.400 8.529,356.097 8.400,354.628 8.400 C 353.095 8.400,352.838 8.279,352.728 7.500 C 352.630 6.808,352.297 6.571,351.287 6.474 C 350.525 6.400,349.771 6.023,349.491 5.574 C 349.104 4.955,348.548 4.800,346.713 4.800 C 344.707 4.800,344.336 4.674,343.763 3.800 C 343.178 2.906,342.837 2.800,340.554 2.800 C 338.578 2.800,338.000 2.667,338.000 2.214 C 338.000 1.283,336.643 0.800,334.026 0.800 C 332.675 0.800,331.600 0.623,331.600 0.400 C 331.600 0.134,287.400 0.000,199.800 0.000 C 112.200 0.000,68.000 0.134,68.000 0.400 M111.891 81.011 C 113.520 82.640,113.604 84.930,112.112 87.063 C 109.415 90.921,108.577 101.640,110.380 109.210 C 116.509 134.952,142.593 149.585,167.399 141.200 C 169.322 140.550,171.099 139.856,171.348 139.658 C 171.597 139.460,172.247 139.161,172.792 138.993 C 173.338 138.825,174.238 138.377,174.792 137.998 C 175.347 137.618,176.848 136.635,178.128 135.814 C 183.010 132.681,186.083 129.296,191.939 120.600 C 198.133 111.402,204.462 105.363,211.414 102.016 C 212.302 101.588,213.153 101.114,213.305 100.962 C 213.744 100.523,217.957 98.824,220.800 97.940 C 234.387 93.713,253.074 96.422,263.254 104.092 C 264.214 104.816,265.475 105.712,266.056 106.084 C 268.024 107.345,272.125 111.384,275.106 115.000 C 282.699 124.207,290.351 130.671,297.825 134.195 C 304.894 137.527,307.008 138.614,309.329 140.114 C 312.590 142.223,315.489 144.620,317.412 146.800 C 318.285 147.790,319.091 148.690,319.202 148.800 C 319.314 148.910,319.944 149.719,320.602 150.598 C 328.106 160.613,330.634 169.925,329.639 183.893 C 328.944 193.655,329.360 195.918,333.374 204.200 C 334.334 206.180,335.594 208.880,336.174 210.200 C 336.755 211.520,337.584 213.266,338.015 214.079 C 338.447 214.893,338.801 215.793,338.802 216.079 C 338.804 216.366,339.093 217.140,339.444 217.800 C 339.796 218.460,340.406 219.900,340.801 221.000 C 341.195 222.100,342.012 224.350,342.616 226.000 C 346.420 236.391,350.447 255.559,351.661 269.055 C 352.183 274.856,352.353 318.800,351.857 319.500 C 351.596 319.867,349.654 320.000,344.538 320.000 C 336.653 320.000,336.607 319.980,337.766 317.077 C 342.216 305.935,342.230 280.322,337.794 266.800 C 335.962 261.216,334.692 257.655,333.944 256.000 C 328.502 243.966,323.087 236.093,314.473 227.688 C 308.259 221.624,297.132 213.200,295.337 213.200 C 294.381 213.200,291.437 220.600,288.813 229.600 C 288.396 231.030,287.579 233.820,286.998 235.800 C 285.698 240.230,284.231 245.626,283.247 249.600 C 282.838 251.250,282.233 253.680,281.903 255.000 C 281.344 257.229,280.679 260.179,278.791 268.800 C 277.675 273.895,276.055 283.331,275.597 287.400 C 275.374 289.380,275.014 291.810,274.797 292.800 C 274.440 294.434,274.135 297.399,272.640 313.804 C 272.379 316.666,272.028 319.231,271.859 319.504 C 271.457 320.156,252.986 320.224,252.585 319.576 C 252.339 319.178,253.062 317.154,254.790 313.400 C 255.898 310.995,257.600 306.451,257.602 305.892 C 257.604 305.621,257.871 304.890,258.196 304.267 C 258.521 303.643,258.977 302.383,259.209 301.467 C 259.440 300.550,259.880 299.170,260.185 298.400 C 261.442 295.227,264.193 284.675,265.006 279.907 C 265.296 278.206,265.721 276.226,265.949 275.507 C 266.178 274.788,266.563 272.310,266.804 270.000 C 267.046 267.690,267.404 265.170,267.600 264.400 C 268.330 261.533,268.911 246.570,268.659 237.135 C 268.360 225.964,266.876 213.722,264.726 204.699 C 264.052 201.871,263.714 201.799,251.018 201.805 C 243.170 201.808,239.079 201.969,237.400 202.341 C 236.080 202.634,233.279 203.197,231.175 203.592 C 220.518 205.594,218.003 210.059,216.415 229.800 C 216.184 232.660,215.792 237.340,215.544 240.200 C 214.466 252.577,215.336 283.465,217.183 298.400 C 218.430 308.483,219.229 314.161,219.619 315.711 C 219.864 316.684,220.005 318.002,219.932 318.640 L 219.800 319.800 210.400 319.913 C 197.997 320.062,198.751 320.361,199.597 315.624 C 201.070 307.381,201.793 301.794,201.658 299.700 C 201.494 297.157,181.878 280.408,170.400 273.009 C 168.750 271.946,166.500 270.494,165.400 269.784 C 162.982 268.223,158.471 265.685,155.970 264.479 C 147.721 260.501,146.784 254.536,153.000 245.573 C 155.693 241.689,156.206 240.901,157.410 238.800 C 157.976 237.810,159.248 235.650,160.236 234.000 C 161.224 232.350,162.851 229.380,163.852 227.400 C 164.854 225.420,165.923 223.350,166.228 222.800 C 166.533 222.250,167.247 220.720,167.813 219.400 C 168.379 218.080,169.174 216.280,169.580 215.400 C 169.985 214.520,170.725 212.810,171.223 211.600 C 171.721 210.390,172.473 208.640,172.895 207.711 C 174.025 205.218,173.647 204.603,170.486 203.794 C 169.009 203.416,166.855 202.768,165.700 202.353 C 164.545 201.939,162.607 201.247,161.394 200.815 C 152.018 197.479,144.737 193.771,135.200 187.473 C 125.087 180.794,110.577 166.268,104.031 156.270 C 102.028 153.211,98.115 147.148,97.274 145.800 C 96.724 144.920,95.940 143.708,95.530 143.106 C 95.120 142.504,94.611 141.604,94.398 141.106 C 94.185 140.608,93.108 138.580,92.004 136.600 C 90.141 133.260,87.724 128.421,86.008 124.600 C 82.826 117.513,81.414 115.345,77.944 112.225 C 73.971 108.652,69.767 106.495,64.718 105.439 C 63.261 105.134,61.468 104.694,60.734 104.462 C 60.000 104.229,58.230 103.839,56.800 103.595 C 47.670 102.036,46.800 101.232,46.800 94.354 C 46.800 87.019,48.679 83.515,54.160 80.631 L 56.119 79.600 83.300 79.600 L 110.480 79.600 111.891 81.011 M187.933 226.900 C 182.034 232.733,177.940 237.761,173.926 244.103 C 166.966 255.099,168.948 259.901,183.800 268.021 C 185.120 268.743,186.470 269.558,186.800 269.833 C 187.790 270.657,200.692 277.200,201.327 277.200 C 202.965 277.200,201.863 261.720,199.334 249.200 C 199.001 247.550,198.492 245.030,198.203 243.600 C 197.492 240.078,195.750 233.366,195.399 232.799 C 195.243 232.545,194.876 231.316,194.584 230.066 C 192.994 223.249,192.070 222.809,187.933 226.900 " stroke="none" fill="#1cdce6" fill-rule="evenodd"></path></g></svg>