<svg id="svg" version="1.1" xmlns="http://www.w3.org/2000/svg" xmlns:xlink="http://www.w3.org/1999/xlink" width="48" height="47" viewBox="0 0 400 400"><g id="svgg"><path id="path0" d="M130.402 59.137 C 129.776 59.762,129.065 61.014,128.822 61.920 C 128.188 64.272,127.894 64.299,124.105 62.351 C 113.245 56.768,101.528 64.573,103.184 76.288 C 103.664 79.685,105.371 82.829,109.579 88.067 C 110.581 89.314,111.850 90.984,112.400 91.779 C 113.470 93.325,114.811 95.169,117.648 99.000 C 120.819 103.282,121.263 104.181,120.804 105.389 C 120.335 106.623,118.835 106.552,116.600 105.189 C 107.718 99.776,106.024 100.481,106.001 109.600 C 105.985 116.238,104.895 119.285,99.890 126.680 C 83.797 150.460,77.382 165.821,74.199 188.199 C 72.750 198.392,72.527 216.091,73.825 217.870 C 75.255 219.828,96.148 231.600,98.193 231.600 C 98.306 231.600,100.964 232.746,104.099 234.146 C 115.923 239.426,125.121 242.669,137.000 245.746 C 155.617 250.569,169.540 250.809,178.426 246.459 C 185.894 242.803,187.921 240.394,197.413 223.900 C 199.804 219.744,200.496 220.028,203.996 226.600 C 214.045 245.465,221.649 250.135,241.200 249.450 C 255.849 248.937,264.869 246.626,289.966 236.954 C 298.787 233.555,322.238 221.059,324.222 218.701 L 325.272 217.453 325.085 204.227 C 324.847 187.411,324.174 182.876,319.595 167.265 C 316.328 156.129,308.327 140.625,302.222 133.600 C 298.825 129.692,298.683 128.395,301.197 124.248 C 310.534 108.846,307.449 96.309,293.200 91.751 C 287.835 90.034,287.707 89.644,291.062 85.198 C 299.853 73.549,294.875 60.600,281.607 60.600 C 275.387 60.600,272.750 62.461,266.443 71.300 C 263.500 75.425,262.647 75.724,260.456 73.401 C 250.136 62.460,237.164 64.233,228.281 77.800 C 224.872 83.006,224.302 83.386,220.722 82.833 C 204.539 80.337,181.035 81.509,167.529 85.486 C 161.795 87.175,161.247 85.327,165.450 78.472 C 169.628 71.659,169.856 70.882,168.390 68.476 C 167.201 66.526,165.531 66.000,160.513 65.997 C 151.289 65.990,146.253 64.574,139.800 60.173 C 136.027 57.599,132.345 57.193,130.402 59.137 M138.804 60.657 C 147.362 65.982,149.431 66.636,159.000 67.034 C 168.774 67.440,170.186 69.108,166.191 75.528 C 161.147 83.633,160.008 87.323,159.999 95.600 C 159.986 106.811,157.670 107.837,146.877 101.410 C 141.088 97.962,139.452 97.533,130.968 97.235 C 120.095 96.854,118.313 94.607,123.131 87.351 C 127.423 80.886,128.637 77.449,129.187 70.200 C 129.839 61.597,129.983 60.781,131.028 59.735 C 132.650 58.114,135.204 58.416,138.804 60.657 M248.845 67.597 C 255.891 68.895,261.172 74.000,267.182 85.319 C 270.444 91.465,269.613 91.088,280.400 91.315 C 292.496 91.570,296.204 92.622,300.638 97.055 C 307.519 103.936,307.583 112.064,300.847 123.400 C 299.801 125.160,298.435 127.500,297.810 128.600 C 293.893 135.501,287.619 139.156,280.466 138.706 C 271.854 138.163,266.992 133.455,259.239 118.148 C 257.342 114.402,258.051 114.603,246.638 114.581 C 235.765 114.560,234.349 114.345,230.400 112.115 C 220.779 106.684,218.311 93.533,225.170 84.241 C 226.254 82.772,227.989 80.124,229.024 78.358 C 233.955 69.948,240.961 66.144,248.845 67.597 M113.416 104.769 C 114.359 105.446,115.254 106.000,115.404 106.000 C 115.554 106.000,116.154 106.327,116.738 106.728 C 119.496 108.618,122.374 109.292,128.858 109.567 C 137.015 109.914,137.962 110.773,135.179 115.296 C 130.799 122.415,129.767 125.418,129.645 131.400 C 129.479 139.538,128.520 140.364,123.069 137.055 C 115.909 132.708,113.569 132.038,105.474 132.012 C 100.010 131.995,98.570 130.726,100.800 127.891 C 101.240 127.331,101.600 126.705,101.600 126.499 C 101.600 126.293,101.944 125.813,102.363 125.433 C 102.783 125.053,103.353 124.170,103.629 123.471 C 103.906 122.772,104.380 121.907,104.684 121.549 C 106.270 119.677,107.273 115.476,107.488 109.800 C 107.763 102.535,108.929 101.546,113.416 104.769 M153.737 155.204 C 162.613 158.551,166.554 169.069,162.219 177.840 C 155.487 191.461,135.277 189.378,131.358 174.660 C 127.947 161.848,141.080 150.431,153.737 155.204 M258.101 155.310 C 269.030 160.283,271.325 174.113,262.592 182.372 C 251.920 192.465,234.744 185.084,234.734 170.400 C 234.726 158.538,247.322 150.404,258.101 155.310 M198.049 218.271 L 198.920 219.142 194.995 226.271 C 185.981 242.643,180.663 246.945,167.537 248.485 C 157.833 249.624,139.746 246.474,123.400 240.799 C 117.492 238.748,109.694 235.807,106.888 234.572 C 105.630 234.018,103.700 233.175,102.600 232.698 C 97.466 230.473,80.759 221.881,79.095 220.611 C 74.563 217.150,72.595 217.258,138.689 217.333 L 197.178 217.400 198.049 218.271 M319.970 217.723 C 322.788 218.705,321.757 219.864,314.442 223.938 C 278.931 243.718,243.245 253.004,225.692 247.032 C 215.208 243.464,211.158 239.050,202.428 221.668 C 201.068 218.960,201.154 218.323,202.986 217.581 C 204.364 217.022,318.357 217.160,319.970 217.723 M304.165 241.107 C 298.861 242.999,296.479 245.572,286.543 260.143 C 286.072 260.834,284.599 262.648,283.271 264.172 C 280.730 267.089,276.800 274.047,276.800 275.630 C 276.800 276.897,277.249 276.288,278.590 273.200 C 280.052 269.836,281.999 266.792,284.601 263.800 C 286.476 261.645,288.676 258.634,293.881 251.100 C 302.641 238.422,310.858 237.852,325.400 248.913 C 332.123 254.027,332.186 254.130,331.023 258.046 C 329.582 262.901,330.827 263.824,334.200 260.400 C 336.804 257.756,337.837 257.736,341.197 260.261 C 344.964 263.093,344.972 263.170,342.099 268.766 C 336.515 279.642,338.866 280.692,346.877 270.901 C 350.270 266.755,350.588 266.745,355.783 270.617 C 363.748 276.555,366.213 284.895,362.101 292.000 C 360.884 294.104,353.562 304.411,351.953 306.285 C 351.347 306.992,350.214 308.912,349.436 310.552 C 347.742 314.121,344.582 318.044,342.394 319.293 C 341.521 319.792,340.805 320.425,340.803 320.700 C 340.788 323.095,347.551 316.090,349.944 311.232 C 351.233 308.613,352.324 307.000,356.727 301.200 C 367.480 287.036,367.116 277.564,355.498 269.264 C 350.836 265.933,349.799 265.942,347.156 269.334 C 340.683 277.642,338.618 277.407,342.828 268.841 C 345.709 262.979,345.675 262.626,341.953 259.828 C 337.990 256.849,334.478 256.845,333.337 259.819 C 333.017 260.653,331.599 260.556,331.604 259.700 C 331.607 259.315,331.849 258.190,332.142 257.200 C 332.987 254.351,332.468 253.245,329.101 250.720 C 327.505 249.523,324.580 247.311,322.600 245.805 C 315.922 240.724,309.692 239.136,304.165 241.107 M195.368 255.300 C 189.109 259.532,190.753 269.608,197.953 271.153 C 206.128 272.906,211.734 264.074,206.783 257.240 C 204.235 253.723,199.013 252.835,195.368 255.300 M113.294 270.778 C 106.479 272.464,104.032 281.312,109.063 286.076 C 111.915 288.777,111.951 288.782,131.350 288.791 L 148.900 288.800 151.150 287.761 C 158.531 284.352,158.668 275.524,151.400 271.663 L 149.400 270.600 132.000 270.528 C 122.430 270.488,114.012 270.601,113.294 270.778 M151.200 272.725 C 157.603 276.015,156.906 285.103,150.088 287.234 C 148.011 287.883,120.994 288.211,116.006 287.648 C 106.293 286.551,103.656 276.247,112.098 272.384 C 114.944 271.081,148.572 271.375,151.200 272.725 M197.459 287.611 C 189.940 289.864,189.061 300.667,196.111 304.180 C 205.116 308.668,213.233 296.954,205.989 289.927 C 203.424 287.438,200.596 286.670,197.459 287.611 M203.200 293.000 C 203.200 293.730,203.414 294.000,203.992 294.000 C 205.037 294.000,205.419 295.566,204.957 297.954 L 204.600 299.800 200.205 299.914 C 195.017 300.050,194.800 299.905,194.800 296.324 C 194.800 294.112,194.848 294.000,195.800 294.000 C 196.600 294.000,196.800 293.800,196.800 293.000 C 196.800 292.017,196.853 292.000,200.000 292.000 C 203.147 292.000,203.200 292.017,203.200 293.000 " stroke="none" fill="#40d582" fill-rule="evenodd"></path><path id="path1" d="M131.028 59.735 C 129.983 60.781,129.839 61.597,129.187 70.200 C 128.637 77.449,127.423 80.886,123.131 87.351 C 118.313 94.607,120.095 96.854,130.968 97.235 C 139.452 97.533,141.088 97.962,146.877 101.410 C 157.670 107.837,159.986 106.811,159.999 95.600 C 160.008 87.323,161.147 83.633,166.191 75.528 C 170.186 69.108,168.774 67.440,159.000 67.034 C 149.431 66.636,147.362 65.982,138.804 60.657 C 135.204 58.416,132.650 58.114,131.028 59.735 M242.400 67.634 C 237.173 68.640,232.548 72.348,229.024 78.358 C 227.989 80.124,226.254 82.772,225.170 84.241 C 218.311 93.533,220.779 106.684,230.400 112.115 C 234.349 114.345,235.765 114.560,246.638 114.581 C 258.051 114.603,257.342 114.402,259.239 118.148 C 266.992 133.455,271.854 138.163,280.466 138.706 C 287.619 139.156,293.893 135.501,297.810 128.600 C 298.435 127.500,299.801 125.160,300.847 123.400 C 307.583 112.064,307.519 103.936,300.638 97.055 C 296.204 92.622,292.496 91.570,280.400 91.315 C 269.613 91.088,270.444 91.465,267.182 85.319 C 259.602 71.041,252.188 65.750,242.400 67.634 M108.133 103.659 C 107.895 103.957,107.605 106.717,107.488 109.800 C 107.273 115.476,106.270 119.677,104.684 121.549 C 104.380 121.907,103.906 122.772,103.629 123.471 C 103.353 124.170,102.783 125.053,102.363 125.433 C 101.944 125.813,101.600 126.293,101.600 126.499 C 101.600 126.705,101.240 127.331,100.800 127.891 C 98.570 130.726,100.010 131.995,105.474 132.012 C 113.569 132.038,115.909 132.708,123.069 137.055 C 128.520 140.364,129.479 139.538,129.645 131.400 C 129.767 125.418,130.799 122.415,135.179 115.296 C 137.962 110.773,137.015 109.914,128.858 109.567 C 122.374 109.292,119.496 108.618,116.738 106.728 C 116.154 106.327,115.554 106.000,115.404 106.000 C 115.254 106.000,114.359 105.446,113.416 104.769 C 111.468 103.369,108.812 102.811,108.133 103.659 M143.948 154.398 C 128.640 158.290,126.103 178.445,140.060 185.279 C 152.653 191.445,166.276 180.675,163.646 166.633 C 162.111 158.437,152.222 152.295,143.948 154.398 M245.305 154.947 C 233.133 159.577,230.956 176.829,241.643 183.965 C 258.712 195.364,277.512 172.539,262.640 158.473 C 258.120 154.198,251.052 152.761,245.305 154.947 M78.943 217.634 C 76.957 218.213,76.998 219.009,79.095 220.611 C 80.759 221.881,97.466 230.473,102.600 232.698 C 103.700 233.175,105.630 234.018,106.888 234.572 C 112.110 236.871,125.807 241.782,130.800 243.146 C 139.452 245.510,141.850 246.091,146.800 247.021 C 162.326 249.939,172.857 249.060,180.800 244.184 C 186.324 240.793,188.536 238.002,194.995 226.271 L 198.920 219.142 198.049 218.271 L 197.178 217.400 138.689 217.333 C 104.165 217.294,79.685 217.417,78.943 217.634 M202.986 217.581 C 201.154 218.323,201.068 218.960,202.428 221.668 C 211.158 239.050,215.208 243.464,225.692 247.032 C 243.245 253.004,278.931 243.718,314.442 223.938 C 321.757 219.864,322.788 218.705,319.970 217.723 C 318.357 217.160,204.364 217.022,202.986 217.581 M303.867 242.155 C 299.471 244.006,297.700 245.603,293.800 251.226 C 288.421 258.983,286.463 261.660,284.601 263.800 C 281.475 267.394,277.600 274.019,277.600 275.770 C 277.600 276.742,279.396 278.145,291.800 286.860 C 302.430 294.328,311.863 301.019,316.000 304.023 C 324.522 310.212,336.798 318.569,339.125 319.765 C 341.673 321.075,346.480 316.780,349.436 310.552 C 350.214 308.912,351.347 306.992,351.953 306.285 C 353.562 304.411,360.884 294.104,362.101 292.000 C 366.213 284.895,363.748 276.555,355.783 270.617 C 350.588 266.745,350.270 266.755,346.877 270.901 C 338.866 280.692,336.515 279.642,342.099 268.766 C 344.972 263.170,344.964 263.093,341.197 260.261 C 337.837 257.736,336.804 257.756,334.200 260.400 C 330.827 263.824,329.582 262.901,331.023 258.046 C 332.186 254.130,332.123 254.027,325.400 248.913 C 315.415 241.319,309.936 239.599,303.867 242.155 M112.098 272.384 C 103.656 276.247,106.293 286.551,116.006 287.648 C 120.994 288.211,148.011 287.883,150.088 287.234 C 156.906 285.103,157.603 276.015,151.200 272.725 C 148.572 271.375,114.944 271.081,112.098 272.384 M196.800 293.000 C 196.800 293.800,196.600 294.000,195.800 294.000 C 194.848 294.000,194.800 294.112,194.800 296.324 C 194.800 299.905,195.017 300.050,200.205 299.914 L 204.600 299.800 204.957 297.954 C 205.419 295.566,205.037 294.000,203.992 294.000 C 203.414 294.000,203.200 293.730,203.200 293.000 C 203.200 292.017,203.147 292.000,200.000 292.000 C 196.853 292.000,196.800 292.017,196.800 293.000 " stroke="none" fill="#f1ead2" fill-rule="evenodd"></path><path id="path2" d="M107.400 11.058 C 106.960 11.140,104.980 11.381,103.000 11.594 C 101.020 11.807,97.690 12.165,95.600 12.390 C 93.510 12.614,90.110 12.983,88.044 13.210 C 85.979 13.436,83.819 13.868,83.244 14.170 C 82.670 14.473,80.593 14.896,78.630 15.112 C 76.347 15.362,74.905 15.714,74.630 16.086 C 74.378 16.428,73.162 16.777,71.692 16.929 C 70.213 17.083,68.408 17.602,67.295 18.195 C 66.256 18.748,65.177 19.200,64.896 19.200 C 64.615 19.200,63.534 19.641,62.493 20.180 C 61.452 20.719,60.105 21.345,59.500 21.570 C 58.895 21.796,58.400 22.141,58.400 22.338 C 58.400 22.535,57.599 22.920,56.620 23.194 C 55.641 23.468,54.533 24.032,54.158 24.446 C 53.783 24.861,53.244 25.200,52.961 25.200 C 52.677 25.200,52.210 25.533,51.923 25.940 C 51.635 26.347,50.709 26.929,49.864 27.234 C 49.019 27.538,48.158 28.105,47.950 28.493 C 47.742 28.882,47.312 29.200,46.995 29.200 C 46.678 29.200,46.124 29.650,45.763 30.200 C 45.403 30.750,44.904 31.202,44.654 31.205 C 43.452 31.219,31.200 43.464,31.200 44.652 C 31.200 44.903,30.750 45.403,30.200 45.763 C 29.650 46.124,29.200 46.678,29.200 46.995 C 29.200 47.312,28.882 47.742,28.493 47.950 C 28.105 48.158,27.538 49.019,27.234 49.864 C 26.929 50.709,26.347 51.635,25.940 51.923 C 25.533 52.210,25.200 52.677,25.200 52.961 C 25.200 53.244,24.861 53.783,24.446 54.158 C 24.032 54.533,23.468 55.641,23.194 56.620 C 22.920 57.599,22.535 58.400,22.338 58.400 C 22.141 58.400,21.796 58.895,21.570 59.500 C 21.345 60.105,20.719 61.452,20.180 62.493 C 19.641 63.534,19.200 64.615,19.200 64.896 C 19.200 65.177,18.748 66.256,18.195 67.295 C 17.602 68.408,17.083 70.213,16.929 71.692 C 16.777 73.162,16.428 74.378,16.086 74.630 C 15.726 74.896,15.327 76.423,15.040 78.630 C 14.786 80.594,14.254 82.803,13.858 83.540 C 13.312 84.556,13.086 86.152,12.921 90.140 C 12.799 93.071,12.473 95.931,12.183 96.600 C 10.875 99.619,10.800 105.260,10.800 200.200 C 10.800 295.800,10.870 300.840,12.232 303.860 C 12.564 304.598,12.803 306.422,12.808 308.260 C 12.819 312.380,13.406 316.319,14.133 317.141 C 14.477 317.531,14.831 319.150,14.999 321.099 C 15.197 323.402,15.512 324.689,16.042 325.362 C 16.459 325.892,16.801 326.838,16.802 327.463 C 16.805 329.043,17.566 331.720,18.148 332.200 C 18.415 332.420,18.856 333.582,19.128 334.782 C 19.401 335.981,19.859 337.241,20.146 337.582 C 20.433 337.922,20.911 338.830,21.207 339.600 C 21.504 340.370,22.061 341.413,22.445 341.919 C 22.830 342.424,23.257 343.350,23.395 343.977 C 23.533 344.604,23.995 345.434,24.423 345.821 C 24.850 346.207,25.200 346.738,25.200 347.000 C 25.200 347.262,25.553 347.796,25.985 348.186 C 26.417 348.577,26.971 349.506,27.217 350.251 C 27.463 350.997,28.010 351.791,28.432 352.017 C 28.854 352.243,29.200 352.679,29.200 352.985 C 29.200 353.291,29.605 353.875,30.100 354.283 C 30.595 354.690,31.290 355.536,31.644 356.162 C 32.309 357.335,41.534 366.800,42.013 366.800 C 42.160 366.800,42.829 367.295,43.498 367.900 C 44.166 368.505,45.318 369.503,46.057 370.118 C 46.796 370.733,47.654 371.453,47.965 371.718 C 48.275 371.983,49.202 372.560,50.024 373.000 C 50.846 373.440,52.482 374.455,53.659 375.255 C 54.837 376.055,56.224 376.838,56.741 376.995 C 57.259 377.152,58.319 377.712,59.097 378.240 C 59.875 378.768,60.773 379.200,61.093 379.200 C 61.412 379.200,62.127 379.556,62.681 379.992 C 63.235 380.428,64.583 380.903,65.678 381.048 C 66.773 381.193,67.761 381.553,67.874 381.848 C 68.117 382.483,70.461 383.195,72.316 383.198 C 73.040 383.199,74.145 383.579,74.772 384.043 C 75.622 384.671,76.775 384.953,79.303 385.149 C 81.167 385.294,82.942 385.611,83.246 385.853 C 84.144 386.566,85.849 386.811,92.286 387.154 C 96.005 387.353,98.599 387.667,98.956 387.964 C 101.164 389.796,298.810 389.818,301.018 387.985 C 301.344 387.714,304.192 387.382,307.888 387.185 C 313.913 386.862,316.323 386.475,317.339 385.667 C 317.592 385.465,319.205 385.213,320.922 385.108 C 323.280 384.964,324.329 384.707,325.206 384.059 C 325.947 383.511,326.958 383.200,327.997 383.200 C 329.743 383.200,332.400 382.278,332.400 381.672 C 332.400 381.470,333.229 381.211,334.242 381.096 C 335.255 380.982,336.560 380.546,337.142 380.127 C 337.724 379.708,338.956 379.122,339.879 378.825 C 340.803 378.529,341.643 378.065,341.747 377.794 C 341.851 377.524,342.423 377.181,343.019 377.031 C 343.615 376.881,344.752 376.318,345.544 375.779 C 346.337 375.241,347.208 374.800,347.479 374.800 C 347.750 374.800,348.153 374.461,348.375 374.046 C 348.597 373.631,349.269 373.169,349.868 373.019 C 350.931 372.752,351.936 372.005,355.600 368.759 C 356.590 367.882,357.854 366.858,358.409 366.482 C 359.718 365.598,365.598 359.718,366.482 358.409 C 366.858 357.854,367.882 356.590,368.759 355.600 C 372.013 351.927,372.752 350.930,373.024 349.846 C 373.178 349.235,373.542 348.644,373.835 348.531 C 374.128 348.419,375.120 346.813,376.041 344.964 C 376.962 343.114,377.841 341.600,377.994 341.600 C 378.147 341.600,378.518 340.835,378.818 339.900 C 379.119 338.965,379.708 337.724,380.127 337.142 C 380.546 336.560,380.982 335.255,381.096 334.242 C 381.211 333.229,381.470 332.400,381.672 332.400 C 382.278 332.400,383.200 329.743,383.200 327.997 C 383.200 326.958,383.511 325.947,384.059 325.206 C 384.707 324.329,384.964 323.282,385.107 320.922 C 385.211 319.205,385.522 317.530,385.798 317.200 C 386.726 316.089,387.131 313.827,387.324 308.691 C 387.430 305.882,387.693 303.362,387.909 303.091 C 389.141 301.550,389.200 296.824,389.200 200.244 C 389.200 104.288,389.128 98.397,387.937 96.934 C 387.728 96.677,387.409 93.887,387.227 90.734 C 386.896 84.988,386.702 83.917,385.787 82.800 C 385.517 82.470,385.211 80.795,385.107 79.078 C 384.964 76.718,384.707 75.671,384.059 74.794 C 383.586 74.155,383.199 73.040,383.198 72.316 C 383.195 70.461,382.483 68.117,381.848 67.874 C 381.553 67.761,381.193 66.773,381.048 65.678 C 380.903 64.583,380.454 63.263,380.050 62.744 C 379.647 62.225,379.097 61.128,378.829 60.306 C 378.561 59.484,378.175 58.708,377.972 58.583 C 377.769 58.457,377.220 57.465,376.752 56.377 C 376.284 55.290,375.744 54.400,375.551 54.400 C 375.358 54.400,375.200 54.144,375.200 53.831 C 375.200 53.518,374.783 52.753,374.273 52.131 C 373.763 51.509,373.109 50.408,372.818 49.685 C 372.528 48.961,371.955 48.190,371.545 47.971 C 371.135 47.751,370.800 47.360,370.800 47.100 C 370.800 46.840,370.453 46.262,370.028 45.814 C 368.049 43.726,367.215 42.756,366.872 42.142 C 366.251 41.033,358.721 33.629,357.971 33.391 C 357.586 33.269,356.981 32.726,356.627 32.184 C 356.272 31.643,355.787 31.200,355.548 31.200 C 355.310 31.200,354.761 30.750,354.329 30.200 C 353.896 29.650,353.279 29.200,352.958 29.200 C 352.637 29.200,352.265 28.912,352.130 28.561 C 351.995 28.210,351.145 27.581,350.242 27.163 C 349.339 26.746,347.790 25.806,346.800 25.073 C 345.810 24.341,344.382 23.528,343.626 23.266 C 342.870 23.004,341.970 22.552,341.626 22.261 C 341.282 21.970,340.370 21.492,339.600 21.200 C 338.830 20.908,337.922 20.433,337.582 20.146 C 337.241 19.859,335.981 19.401,334.782 19.128 C 333.582 18.856,332.420 18.415,332.200 18.148 C 331.720 17.566,329.043 16.805,327.463 16.802 C 326.838 16.801,325.892 16.459,325.362 16.042 C 324.690 15.513,323.397 15.196,321.099 14.995 C 319.284 14.837,317.288 14.444,316.661 14.123 C 315.993 13.781,312.768 13.292,308.861 12.940 C 305.198 12.611,301.570 12.188,300.800 12.000 C 296.295 10.901,287.460 10.802,199.155 10.854 C 149.130 10.884,107.840 10.976,107.400 11.058 M136.913 58.541 C 137.621 58.838,138.920 59.572,139.800 60.173 C 146.253 64.574,151.289 65.990,160.513 65.997 C 165.531 66.000,167.201 66.526,168.390 68.476 C 169.856 70.882,169.628 71.659,165.450 78.472 C 161.247 85.327,161.795 87.175,167.529 85.486 C 181.035 81.509,204.539 80.337,220.722 82.833 C 224.302 83.386,224.872 83.006,228.281 77.800 C 237.164 64.233,250.136 62.460,260.456 73.401 C 262.647 75.724,263.500 75.425,266.443 71.300 C 272.750 62.461,275.387 60.600,281.607 60.600 C 294.875 60.600,299.853 73.549,291.062 85.198 C 287.707 89.644,287.835 90.034,293.200 91.751 C 307.449 96.309,310.534 108.846,301.197 124.248 C 298.683 128.395,298.825 129.692,302.222 133.600 C 308.327 140.625,316.328 156.129,319.595 167.265 C 324.174 182.876,324.847 187.411,325.085 204.227 L 325.272 217.453 324.222 218.701 C 322.238 221.059,298.787 233.555,289.966 236.954 C 264.869 246.626,255.849 248.937,241.200 249.450 C 221.649 250.135,214.045 245.465,203.996 226.600 C 200.496 220.028,199.804 219.744,197.413 223.900 C 187.921 240.394,185.894 242.803,178.426 246.459 C 169.540 250.809,155.617 250.569,137.000 245.746 C 125.121 242.669,115.923 239.426,104.099 234.146 C 100.964 232.746,98.306 231.600,98.193 231.600 C 96.148 231.600,75.255 219.828,73.825 217.870 C 72.527 216.091,72.750 198.392,74.199 188.199 C 77.382 165.821,83.797 150.460,99.890 126.680 C 104.895 119.285,105.985 116.238,106.001 109.600 C 106.024 100.481,107.718 99.776,116.600 105.189 C 118.835 106.552,120.335 106.623,120.804 105.389 C 121.263 104.181,120.819 103.282,117.648 99.000 C 114.811 95.169,113.470 93.325,112.400 91.779 C 111.850 90.984,110.581 89.314,109.579 88.067 C 105.371 82.829,103.664 79.685,103.184 76.288 C 101.528 64.573,113.245 56.768,124.105 62.351 C 127.894 64.299,128.188 64.272,128.822 61.920 C 129.769 58.402,133.185 56.975,136.913 58.541 M316.400 241.861 C 317.830 242.524,320.620 244.298,322.600 245.805 C 324.580 247.311,327.505 249.523,329.101 250.720 C 332.468 253.245,332.987 254.351,332.142 257.200 C 331.849 258.190,331.607 259.315,331.604 259.700 C 331.599 260.556,333.017 260.653,333.337 259.819 C 334.478 256.845,337.990 256.849,341.953 259.828 C 345.675 262.626,345.709 262.979,342.828 268.841 C 338.618 277.407,340.683 277.642,347.156 269.334 C 349.799 265.942,350.836 265.933,355.498 269.264 C 367.116 277.564,367.480 287.036,356.727 301.200 C 352.427 306.865,351.213 308.673,349.718 311.637 C 344.005 322.973,326.921 330.961,312.095 329.230 C 309.733 328.954,306.965 328.634,305.945 328.518 C 303.493 328.239,302.544 329.139,296.994 337.000 C 294.665 340.300,291.823 344.310,290.679 345.912 C 283.289 356.261,268.551 352.987,267.697 340.806 C 267.393 336.476,270.357 330.886,279.969 317.654 C 282.804 313.753,282.893 313.124,281.046 310.052 C 275.303 300.499,273.337 288.982,275.867 279.719 C 276.216 278.443,276.623 276.678,276.772 275.796 C 277.189 273.339,280.605 267.232,283.284 264.157 C 284.605 262.641,286.072 260.834,286.543 260.143 C 296.479 245.572,298.861 242.999,304.165 241.107 C 307.410 239.950,313.020 240.296,316.400 241.861 M204.021 254.811 C 210.980 258.361,209.639 269.524,202.059 271.150 C 196.184 272.410,191.600 268.695,191.600 262.676 C 191.600 256.008,198.190 251.836,204.021 254.811 M151.400 271.663 C 158.668 275.524,158.531 284.352,151.150 287.761 L 148.900 288.800 131.350 288.791 C 111.951 288.782,111.915 288.777,109.063 286.076 C 104.032 281.312,106.479 272.464,113.294 270.778 C 114.012 270.601,122.430 270.488,132.000 270.528 L 149.400 270.600 151.400 271.663 M202.529 287.629 C 203.420 287.876,204.865 288.836,205.989 289.927 C 213.233 296.954,205.116 308.668,196.111 304.180 C 186.568 299.425,192.249 284.774,202.529 287.629 " stroke="none" fill="#454b45" fill-rule="evenodd"></path><path id="path3" d="M276.841 276.723 C 272.818 284.240,274.754 299.586,281.046 310.052 C 282.893 313.124,282.804 313.753,279.969 317.654 C 270.357 330.886,267.393 336.476,267.697 340.806 C 268.551 352.987,283.289 356.261,290.679 345.912 C 291.823 344.310,294.665 340.300,296.994 337.000 C 302.544 329.139,303.493 328.239,305.945 328.518 C 306.965 328.634,309.733 328.954,312.095 329.230 C 321.543 330.333,332.285 327.560,339.865 322.060 C 340.748 321.420,341.126 320.400,340.482 320.400 C 339.566 320.400,326.626 311.745,316.000 304.025 C 311.863 301.019,302.481 294.364,291.800 286.860 C 282.354 280.224,280.011 278.508,278.738 277.300 C 277.327 275.960,277.260 275.940,276.841 276.723 " stroke="none" fill="#3e77f2" fill-rule="evenodd"></path></g></svg>