<svg id="svg" version="1.1" xmlns="http://www.w3.org/2000/svg" xmlns:xlink="http://www.w3.org/1999/xlink" width="48" height="48" viewBox="0 0 400 400"><g id="svgg"><path id="path0" d="M3.813 320.941 C 3.146 321.429,3.122 321.656,3.569 323.241 C 3.842 324.209,4.229 326.041,4.429 327.312 C 4.629 328.584,5.064 330.150,5.396 330.792 C 5.728 331.435,6.000 332.347,6.000 332.820 C 6.000 333.292,6.254 334.246,6.566 334.940 C 6.877 335.633,7.352 336.920,7.622 337.800 C 7.893 338.680,8.358 339.755,8.657 340.189 C 8.956 340.623,9.200 341.268,9.200 341.623 C 9.200 342.400,14.115 352.222,14.985 353.183 C 15.323 353.557,15.600 354.079,15.600 354.344 C 15.600 354.609,15.870 354.929,16.200 355.055 C 16.530 355.182,16.800 355.482,16.800 355.721 C 16.800 358.912,30.409 373.177,41.800 381.927 C 42.020 382.096,43.280 382.846,44.600 383.595 C 45.920 384.343,47.845 385.544,48.877 386.264 C 49.909 386.984,51.207 387.687,51.760 387.826 C 52.314 387.965,52.977 388.331,53.233 388.639 C 53.489 388.948,53.991 389.201,54.349 389.203 C 54.707 389.204,55.540 389.563,56.200 390.000 C 56.860 390.437,57.670 390.797,58.000 390.800 C 58.330 390.803,59.050 391.039,59.600 391.325 C 60.150 391.611,62.130 392.348,64.000 392.962 C 65.870 393.577,67.940 394.264,68.600 394.488 C 69.260 394.713,70.700 395.069,71.800 395.280 C 72.900 395.491,74.880 395.936,76.200 396.269 C 77.520 396.602,80.580 397.067,83.000 397.302 C 89.001 397.885,308.494 398.216,313.000 397.648 C 314.760 397.427,317.910 397.059,320.000 396.831 C 322.090 396.604,324.340 396.246,325.000 396.037 C 325.660 395.828,327.100 395.485,328.200 395.277 C 329.300 395.068,330.740 394.709,331.400 394.480 C 332.060 394.250,334.130 393.582,336.000 392.995 C 337.870 392.408,339.580 391.788,339.800 391.616 C 340.020 391.445,340.892 391.081,341.739 390.808 C 342.585 390.536,343.755 390.063,344.339 389.759 C 344.922 389.454,345.603 389.204,345.851 389.202 C 346.099 389.201,346.511 388.948,346.767 388.639 C 347.023 388.331,347.720 387.957,348.316 387.808 C 348.912 387.659,349.716 387.253,350.103 386.904 C 350.845 386.236,351.827 385.623,353.800 384.598 C 354.981 383.985,355.523 383.642,358.636 381.548 C 360.240 380.468,362.347 378.879,364.777 376.914 C 367.657 374.585,375.213 366.861,377.802 363.600 C 381.115 359.427,384.541 354.337,385.766 351.768 C 386.089 351.091,386.634 350.304,386.977 350.019 C 387.320 349.735,387.600 349.245,387.600 348.930 C 387.600 348.616,387.944 347.693,388.365 346.879 C 389.119 345.422,390.532 342.339,391.700 339.600 C 392.932 336.714,395.614 327.751,395.606 326.549 C 395.603 326.081,395.870 325.051,396.200 324.262 C 397.080 322.157,396.979 320.941,395.900 320.652 C 393.807 320.091,4.583 320.378,3.813 320.941 " stroke="none" fill="#25c3a3" fill-rule="evenodd"></path><path id="path1" d="M129.600 71.225 C 128.830 71.427,126.221 71.788,123.802 72.028 C 121.384 72.268,119.215 72.622,118.983 72.814 C 118.750 73.007,117.759 73.276,116.780 73.411 C 113.639 73.846,106.584 76.012,102.956 77.656 C 102.052 78.065,101.098 78.400,100.835 78.400 C 100.573 78.400,99.693 78.753,98.879 79.184 C 98.066 79.615,96.410 80.441,95.200 81.019 C 93.990 81.597,92.280 82.496,91.400 83.016 C 90.520 83.536,89.350 84.193,88.800 84.476 C 88.250 84.759,87.562 85.218,87.271 85.495 C 86.981 85.773,86.597 86.000,86.420 86.000 C 86.242 86.000,85.088 86.765,83.855 87.700 C 82.622 88.635,80.756 90.030,79.707 90.800 C 76.021 93.506,68.339 101.554,65.270 105.924 C 61.389 111.451,60.915 112.206,58.822 116.200 C 58.130 117.520,57.403 118.870,57.206 119.200 C 56.509 120.371,54.800 124.358,54.800 124.814 C 54.800 125.068,54.544 125.754,54.232 126.338 C 53.456 127.789,52.446 130.889,51.752 133.951 C 51.434 135.354,51.023 136.794,50.839 137.151 C 50.656 137.508,50.381 138.970,50.229 140.400 C 50.078 141.830,49.665 144.080,49.312 145.400 C 48.389 148.854,48.387 171.049,49.310 174.600 C 49.653 175.920,50.059 178.170,50.212 179.600 C 50.366 181.030,50.652 182.504,50.847 182.876 C 51.042 183.247,51.460 184.687,51.776 186.076 C 52.479 189.172,53.475 192.248,54.232 193.662 C 54.544 194.246,54.806 194.966,54.813 195.262 C 54.819 195.558,55.268 196.700,55.809 197.800 C 56.350 198.900,56.794 200.003,56.796 200.251 C 56.798 200.499,57.058 200.917,57.374 201.179 C 57.690 201.441,58.064 202.183,58.206 202.828 C 58.348 203.472,58.602 204.000,58.771 204.000 C 58.940 204.000,59.373 204.675,59.733 205.500 C 60.093 206.325,60.745 207.540,61.182 208.200 C 61.618 208.860,62.270 209.923,62.630 210.562 C 62.991 211.202,63.454 211.922,63.661 212.162 C 63.868 212.403,64.884 213.782,65.919 215.227 C 69.118 219.693,75.953 226.723,80.600 230.326 C 82.360 231.691,84.070 233.049,84.400 233.344 C 84.730 233.639,85.900 234.394,87.000 235.021 C 88.100 235.648,89.090 236.274,89.200 236.412 C 89.310 236.550,90.030 236.987,90.800 237.383 C 92.217 238.113,94.501 239.333,95.600 239.947 C 95.930 240.131,97.010 240.644,98.000 241.087 C 98.990 241.529,100.430 242.180,101.200 242.533 C 102.882 243.303,105.547 244.277,108.000 245.019 C 108.990 245.318,110.520 245.833,111.400 246.164 C 112.280 246.494,113.473 246.773,114.051 246.782 C 114.629 246.792,115.709 247.050,116.451 247.356 C 117.193 247.662,118.970 248.036,120.400 248.189 C 121.830 248.341,124.170 248.746,125.600 249.088 C 129.353 249.985,150.246 249.998,154.000 249.105 C 155.430 248.765,157.860 248.358,159.400 248.201 C 160.940 248.044,162.650 247.690,163.200 247.414 C 163.750 247.138,165.082 246.797,166.160 246.656 C 167.237 246.514,168.320 246.233,168.565 246.029 C 168.810 245.826,169.908 245.438,171.005 245.167 C 172.102 244.897,173.355 244.434,173.789 244.138 C 174.223 243.842,174.854 243.600,175.192 243.600 C 175.929 243.600,185.910 238.606,186.822 237.780 C 187.175 237.461,187.578 237.200,187.719 237.200 C 188.825 237.200,197.563 230.367,202.083 225.967 C 205.798 222.351,205.814 222.177,202.712 219.287 C 201.598 218.249,199.564 216.320,198.192 215.000 C 196.821 213.680,193.570 210.620,190.967 208.200 C 188.365 205.780,184.261 201.933,181.849 199.651 L 177.462 195.502 176.631 196.651 C 174.413 199.721,168.760 204.704,165.400 206.551 C 164.740 206.913,163.930 207.377,163.600 207.580 C 154.620 213.121,136.555 214.450,125.792 210.362 C 124.688 209.943,123.587 209.600,123.345 209.600 C 121.351 209.600,112.109 203.740,108.262 200.036 C 104.115 196.044,101.708 192.876,99.820 188.927 C 99.486 188.227,99.049 187.554,98.850 187.431 C 98.651 187.308,98.364 186.712,98.212 186.106 C 98.060 185.500,97.739 184.767,97.498 184.477 C 96.990 183.865,95.806 180.678,95.018 177.800 C 94.717 176.700,94.285 175.170,94.058 174.400 C 91.963 167.294,92.244 150.302,94.558 144.200 C 94.892 143.320,95.173 142.284,95.182 141.899 C 95.192 141.513,95.560 140.525,96.000 139.704 C 96.440 138.884,96.800 137.989,96.800 137.716 C 96.800 136.522,101.798 127.600,102.467 127.600 C 102.650 127.600,102.800 127.394,102.800 127.143 C 102.800 125.229,113.015 115.948,117.600 113.697 C 118.150 113.427,118.870 113.039,119.200 112.835 C 120.423 112.079,123.240 110.800,123.712 110.786 C 123.981 110.779,124.920 110.425,125.800 110.000 C 126.680 109.575,127.760 109.217,128.200 109.204 C 128.640 109.192,130.338 108.825,131.973 108.391 C 135.768 107.381,148.087 107.238,150.886 108.171 C 151.829 108.485,153.660 108.934,154.955 109.168 C 156.250 109.402,157.510 109.754,157.755 109.950 C 158.000 110.147,158.809 110.438,159.554 110.597 C 162.946 111.324,169.501 115.447,173.341 119.271 C 174.849 120.772,176.380 122.000,176.744 122.000 C 177.769 122.000,203.200 96.375,203.200 95.342 C 203.200 93.638,194.770 86.617,187.800 82.516 C 185.652 81.252,179.660 78.400,179.153 78.400 C 178.837 78.400,178.223 78.154,177.789 77.854 C 177.355 77.554,176.100 77.032,175.000 76.693 C 173.900 76.355,172.460 75.893,171.800 75.668 C 168.160 74.425,162.652 73.086,158.200 72.362 C 156.880 72.147,154.630 71.769,153.200 71.521 C 149.954 70.958,131.496 70.727,129.600 71.225 M289.400 71.238 C 288.300 71.428,285.559 71.762,283.309 71.980 C 281.058 72.199,278.358 72.633,277.309 72.944 C 276.259 73.256,274.500 73.697,273.400 73.926 C 270.522 74.524,267.197 75.512,265.740 76.203 C 265.046 76.531,264.272 76.800,264.019 76.800 C 263.766 76.800,262.893 77.144,262.079 77.565 C 261.266 77.986,259.568 78.841,258.306 79.465 C 254.819 81.190,253.494 81.930,253.235 82.295 C 253.106 82.478,251.926 83.332,250.613 84.193 C 248.028 85.888,241.617 92.150,240.000 94.558 C 239.450 95.377,238.794 96.276,238.541 96.554 C 238.289 96.832,237.522 98.110,236.837 99.394 C 236.152 100.678,235.451 101.924,235.278 102.164 C 234.865 102.738,233.500 106.348,232.468 109.600 C 230.435 116.000,230.416 131.993,232.433 138.382 C 233.646 142.224,235.844 146.954,237.253 148.754 C 237.664 149.279,238.000 149.954,238.000 150.254 C 238.000 150.554,238.175 150.800,238.390 150.800 C 238.604 150.800,239.039 151.295,239.355 151.900 C 239.839 152.823,243.483 156.623,246.609 159.465 C 247.305 160.097,251.257 162.756,253.800 164.303 C 255.694 165.454,264.123 169.279,267.100 170.338 C 267.815 170.592,268.985 171.007,269.700 171.261 C 270.415 171.514,271.843 172.054,272.874 172.461 C 273.905 172.867,275.075 173.206,275.474 173.214 C 275.873 173.221,276.920 173.575,277.800 174.000 C 278.680 174.425,279.760 174.780,280.200 174.789 C 280.640 174.798,281.503 175.067,282.117 175.388 C 282.731 175.708,283.901 176.087,284.717 176.230 C 285.533 176.373,286.563 176.716,287.006 176.992 C 287.449 177.269,288.439 177.633,289.206 177.801 C 289.973 177.969,291.227 178.443,291.994 178.853 C 292.761 179.264,293.661 179.610,293.994 179.623 C 294.327 179.636,295.500 180.168,296.600 180.805 C 297.700 181.443,299.044 182.163,299.587 182.406 C 309.767 186.950,312.907 200.103,305.928 208.965 C 304.319 211.007,302.189 212.800,301.371 212.800 C 301.111 212.800,300.683 213.058,300.421 213.374 C 300.159 213.690,299.372 214.072,298.672 214.222 C 297.973 214.373,296.894 214.755,296.276 215.071 C 293.418 216.532,278.031 216.464,275.158 214.978 C 274.543 214.660,273.646 214.400,273.164 214.400 C 272.682 214.400,271.458 214.015,270.444 213.545 C 264.970 211.006,261.172 209.048,260.763 208.556 C 260.510 208.250,260.153 208.000,259.971 208.000 C 259.174 208.000,255.536 205.158,252.447 202.123 C 249.849 199.570,248.949 198.908,248.447 199.181 C 247.798 199.535,224.711 223.033,223.298 224.778 C 222.393 225.895,222.545 226.082,227.942 230.493 C 233.554 235.081,238.482 238.103,245.400 241.197 C 246.280 241.591,247.830 242.293,248.844 242.757 C 249.858 243.220,251.033 243.600,251.455 243.600 C 251.877 243.600,252.586 243.855,253.031 244.167 C 253.477 244.479,254.552 244.863,255.420 245.020 C 256.289 245.178,257.450 245.532,258.000 245.806 C 258.550 246.081,259.810 246.429,260.800 246.580 C 261.790 246.731,263.410 247.109,264.400 247.419 C 265.390 247.729,267.820 248.165,269.800 248.387 C 271.780 248.610,274.029 248.973,274.797 249.196 C 276.567 249.708,293.662 249.710,295.800 249.198 C 296.680 248.987,299.020 248.614,301.000 248.368 C 302.980 248.123,305.143 247.696,305.807 247.420 C 306.470 247.144,307.904 246.785,308.992 246.622 C 310.081 246.459,311.333 246.072,311.775 245.763 C 312.217 245.453,312.903 245.200,313.301 245.200 C 313.699 245.200,315.144 244.741,316.512 244.180 C 325.841 240.354,333.323 235.082,338.681 228.559 C 341.210 225.481,341.868 224.589,342.119 223.900 C 342.260 223.515,342.541 223.200,342.744 223.200 C 342.947 223.200,343.218 222.783,343.346 222.274 C 343.474 221.764,343.943 220.927,344.389 220.413 C 344.835 219.898,345.200 219.167,345.200 218.788 C 345.200 218.408,345.458 217.883,345.774 217.621 C 346.090 217.359,346.474 216.575,346.627 215.878 C 346.780 215.182,347.138 214.249,347.423 213.806 C 347.708 213.363,348.072 212.280,348.233 211.400 C 348.394 210.520,348.768 209.218,349.065 208.508 C 351.080 203.680,351.036 183.627,349.002 179.600 C 348.724 179.050,348.365 177.970,348.204 177.200 C 348.043 176.430,347.684 175.530,347.408 175.200 C 347.131 174.870,346.744 174.150,346.548 173.600 C 345.988 172.026,343.968 168.879,341.951 166.438 C 336.817 160.226,331.442 155.858,324.846 152.537 C 323.441 151.830,322.100 151.060,321.866 150.826 C 321.632 150.592,321.158 150.400,320.814 150.400 C 320.470 150.400,319.516 150.040,318.696 149.600 C 317.875 149.160,316.975 148.800,316.696 148.800 C 316.416 148.800,315.516 148.440,314.696 148.000 C 313.875 147.560,312.887 147.194,312.501 147.186 C 312.116 147.179,311.080 146.825,310.200 146.400 C 309.320 145.975,308.330 145.620,308.000 145.611 C 307.670 145.602,306.950 145.364,306.400 145.082 C 305.850 144.800,303.780 144.064,301.800 143.446 C 299.820 142.828,297.660 142.071,297.000 141.763 C 296.340 141.455,295.170 141.084,294.400 140.939 C 293.630 140.794,292.373 140.343,291.606 139.938 C 290.839 139.532,289.894 139.200,289.504 139.200 C 289.115 139.200,288.125 138.840,287.304 138.400 C 286.484 137.960,285.583 137.600,285.304 137.600 C 284.055 137.600,278.074 134.009,275.977 132.000 C 267.932 124.291,270.669 112.096,281.600 106.943 C 286.405 104.678,296.725 103.544,301.656 104.739 C 304.985 105.546,307.807 106.409,309.060 107.003 C 309.754 107.331,310.502 107.600,310.724 107.600 C 311.276 107.600,315.277 109.671,315.929 110.294 C 316.219 110.572,316.636 110.800,316.855 110.800 C 317.635 110.800,321.786 114.191,324.324 116.900 C 326.275 118.983,324.964 119.889,334.656 109.763 C 354.062 89.489,352.253 91.872,349.796 89.818 C 347.937 88.264,346.844 87.455,343.200 84.934 C 340.659 83.176,340.077 82.847,335.091 80.355 C 329.806 77.714,327.782 76.800,327.217 76.800 C 326.944 76.800,326.154 76.531,325.460 76.203 C 324.206 75.608,321.833 74.868,318.400 74.001 C 317.410 73.751,315.880 73.364,315.000 73.140 C 314.120 72.916,312.230 72.561,310.800 72.351 C 309.370 72.140,306.400 71.704,304.200 71.383 C 299.892 70.752,292.634 70.682,289.400 71.238 " stroke="none" fill="#fafafa" fill-rule="evenodd"></path><path id="path2" d="M76.000 0.400 C 76.000 0.633,74.667 0.800,72.800 0.800 C 70.133 0.800,69.467 0.933,68.800 1.600 C 68.215 2.185,67.467 2.400,66.014 2.400 C 64.438 2.400,63.940 2.565,63.600 3.200 C 63.258 3.838,62.762 4.000,61.148 4.000 C 59.462 4.000,59.090 4.133,58.916 4.800 C 58.752 5.427,58.370 5.600,57.153 5.600 C 55.867 5.600,55.600 5.737,55.600 6.400 C 55.600 7.048,55.333 7.200,54.200 7.200 C 53.333 7.200,52.495 7.505,52.000 8.000 C 51.560 8.440,50.750 8.800,50.200 8.800 C 49.613 8.800,49.200 9.030,49.200 9.355 C 49.200 9.675,48.597 10.024,47.779 10.178 C 46.997 10.324,46.260 10.699,46.140 11.011 C 46.021 11.323,45.310 11.693,44.561 11.834 C 43.789 11.979,43.200 12.329,43.200 12.645 C 43.200 12.950,42.883 13.200,42.496 13.200 C 42.109 13.200,41.568 13.560,41.293 14.000 C 41.003 14.465,40.360 14.800,39.759 14.800 C 39.062 14.800,38.657 15.060,38.516 15.600 C 38.400 16.043,37.970 16.400,37.553 16.400 C 37.067 16.400,36.800 16.683,36.800 17.200 C 36.800 17.733,36.533 18.000,36.000 18.000 C 35.560 18.000,34.840 18.360,34.400 18.800 C 33.960 19.240,33.313 19.600,32.963 19.600 C 32.612 19.600,32.231 19.960,32.116 20.400 C 32.001 20.840,31.641 21.200,31.316 21.200 C 30.991 21.200,30.631 21.560,30.516 22.000 C 30.401 22.440,30.041 22.800,29.716 22.800 C 29.391 22.800,29.031 23.160,28.916 23.600 C 28.801 24.040,28.470 24.400,28.180 24.400 C 27.891 24.400,27.540 24.760,27.400 25.200 C 27.260 25.640,26.888 26.000,26.573 26.000 C 26.258 26.000,26.000 26.258,26.000 26.573 C 26.000 26.888,25.640 27.260,25.200 27.400 C 24.760 27.540,24.400 27.891,24.400 28.180 C 24.400 28.470,24.040 28.801,23.600 28.916 C 23.160 29.031,22.800 29.391,22.800 29.716 C 22.800 30.041,22.440 30.401,22.000 30.516 C 21.560 30.631,21.200 30.991,21.200 31.316 C 21.200 31.641,20.840 32.001,20.400 32.116 C 19.960 32.231,19.600 32.612,19.600 32.963 C 19.600 33.313,19.240 33.960,18.800 34.400 C 18.360 34.840,18.000 35.560,18.000 36.000 C 18.000 36.533,17.733 36.800,17.200 36.800 C 16.683 36.800,16.400 37.067,16.400 37.553 C 16.400 37.970,16.043 38.400,15.600 38.516 C 15.060 38.657,14.800 39.062,14.800 39.759 C 14.800 40.360,14.465 41.003,14.000 41.293 C 13.560 41.568,13.200 42.109,13.200 42.496 C 13.200 42.883,12.950 43.200,12.645 43.200 C 12.329 43.200,11.979 43.789,11.834 44.561 C 11.693 45.310,11.323 46.021,11.011 46.140 C 10.699 46.260,10.324 46.997,10.178 47.779 C 10.024 48.597,9.675 49.200,9.355 49.200 C 9.030 49.200,8.800 49.613,8.800 50.200 C 8.800 50.750,8.440 51.560,8.000 52.000 C 7.505 52.495,7.200 53.333,7.200 54.200 C 7.200 55.333,7.048 55.600,6.400 55.600 C 5.737 55.600,5.600 55.867,5.600 57.153 C 5.600 58.370,5.427 58.752,4.800 58.916 C 4.133 59.090,4.000 59.462,4.000 61.148 C 4.000 62.762,3.838 63.258,3.200 63.600 C 2.565 63.940,2.400 64.438,2.400 66.014 C 2.400 67.467,2.185 68.215,1.600 68.800 C 0.933 69.467,0.800 70.133,0.800 72.800 C 0.800 74.667,0.633 76.000,0.400 76.000 C 0.134 76.000,0.000 117.067,0.000 198.400 L 0.000 320.800 1.036 320.800 C 1.628 320.800,2.384 320.414,2.801 319.900 L 3.529 319.000 199.782 318.899 L 396.034 318.798 396.983 319.747 C 397.506 320.269,398.398 320.813,398.966 320.956 L 400.000 321.215 400.000 198.608 C 400.000 117.136,399.866 76.000,399.600 76.000 C 399.367 76.000,399.200 74.667,399.200 72.800 C 399.200 70.133,399.067 69.467,398.400 68.800 C 397.815 68.215,397.600 67.467,397.600 66.014 C 397.600 64.438,397.435 63.940,396.800 63.600 C 396.162 63.258,396.000 62.762,396.000 61.148 C 396.000 59.462,395.867 59.090,395.200 58.916 C 394.573 58.752,394.400 58.370,394.400 57.153 C 394.400 55.867,394.263 55.600,393.600 55.600 C 392.952 55.600,392.800 55.333,392.800 54.200 C 392.800 53.333,392.495 52.495,392.000 52.000 C 391.560 51.560,391.200 50.750,391.200 50.200 C 391.200 49.613,390.970 49.200,390.645 49.200 C 390.325 49.200,389.976 48.597,389.822 47.779 C 389.676 46.997,389.301 46.260,388.989 46.140 C 388.677 46.021,388.307 45.310,388.166 44.561 C 388.021 43.789,387.671 43.200,387.355 43.200 C 387.050 43.200,386.800 42.883,386.800 42.496 C 386.800 42.109,386.440 41.568,386.000 41.293 C 385.535 41.003,385.200 40.360,385.200 39.759 C 385.200 39.062,384.940 38.657,384.400 38.516 C 383.957 38.400,383.600 37.970,383.600 37.553 C 383.600 37.067,383.317 36.800,382.800 36.800 C 382.267 36.800,382.000 36.533,382.000 36.000 C 382.000 35.560,381.640 34.840,381.200 34.400 C 380.760 33.960,380.400 33.313,380.400 32.963 C 380.400 32.612,380.057 32.235,379.637 32.126 C 379.217 32.016,378.784 31.583,378.674 31.163 C 378.565 30.743,378.209 30.400,377.884 30.400 C 377.559 30.400,377.199 30.040,377.084 29.600 C 376.969 29.160,376.588 28.800,376.237 28.800 C 375.887 28.800,375.600 28.542,375.600 28.227 C 375.600 27.912,375.240 27.540,374.800 27.400 C 374.360 27.260,374.000 26.888,374.000 26.573 C 374.000 26.258,373.742 26.000,373.427 26.000 C 373.112 26.000,372.740 25.640,372.600 25.200 C 372.460 24.760,372.109 24.400,371.820 24.400 C 371.530 24.400,371.199 24.040,371.084 23.600 C 370.969 23.160,370.609 22.800,370.284 22.800 C 369.959 22.800,369.599 22.440,369.484 22.000 C 369.369 21.560,369.009 21.200,368.684 21.200 C 368.359 21.200,367.999 20.840,367.884 20.400 C 367.769 19.960,367.388 19.600,367.037 19.600 C 366.687 19.600,366.040 19.240,365.600 18.800 C 365.160 18.360,364.440 18.000,364.000 18.000 C 363.467 18.000,363.200 17.733,363.200 17.200 C 363.200 16.683,362.933 16.400,362.447 16.400 C 362.030 16.400,361.600 16.043,361.484 15.600 C 361.343 15.060,360.938 14.800,360.241 14.800 C 359.640 14.800,358.997 14.465,358.707 14.000 C 358.432 13.560,357.891 13.200,357.504 13.200 C 357.117 13.200,356.800 12.950,356.800 12.645 C 356.800 12.329,356.211 11.979,355.439 11.834 C 354.690 11.693,353.979 11.323,353.860 11.011 C 353.740 10.699,353.003 10.324,352.221 10.178 C 351.403 10.024,350.800 9.675,350.800 9.355 C 350.800 9.030,350.387 8.800,349.800 8.800 C 349.250 8.800,348.440 8.440,348.000 8.000 C 347.505 7.505,346.667 7.200,345.800 7.200 C 344.667 7.200,344.400 7.048,344.400 6.400 C 344.400 5.737,344.133 5.600,342.847 5.600 C 341.630 5.600,341.248 5.427,341.084 4.800 C 340.910 4.133,340.538 4.000,338.852 4.000 C 337.238 4.000,336.742 3.838,336.400 3.200 C 336.060 2.565,335.562 2.400,333.986 2.400 C 332.533 2.400,331.785 2.185,331.200 1.600 C 330.533 0.933,329.867 0.800,327.200 0.800 C 325.333 0.800,324.000 0.633,324.000 0.400 C 324.000 0.134,282.400 0.000,200.000 0.000 C 117.600 0.000,76.000 0.134,76.000 0.400 M154.600 70.481 C 155.480 70.699,157.874 71.116,159.920 71.407 C 161.967 71.698,163.861 72.119,164.130 72.342 C 164.400 72.566,165.605 72.873,166.810 73.026 C 168.014 73.179,169.270 73.526,169.600 73.799 C 169.930 74.071,171.010 74.417,172.000 74.567 C 172.990 74.717,174.160 75.074,174.600 75.360 C 175.040 75.646,176.057 76.001,176.860 76.150 C 177.663 76.299,178.540 76.686,178.809 77.011 C 179.078 77.335,179.656 77.600,180.095 77.600 C 180.533 77.600,181.546 77.938,182.346 78.351 C 183.145 78.764,184.250 79.308,184.800 79.559 C 185.350 79.810,186.520 80.455,187.400 80.992 C 188.280 81.529,189.495 82.173,190.100 82.423 C 190.705 82.674,191.200 83.029,191.200 83.212 C 191.200 83.396,191.605 83.672,192.100 83.827 C 192.885 84.072,195.593 86.087,197.682 87.982 C 198.057 88.322,198.930 89.050,199.622 89.600 C 202.825 92.145,204.800 94.331,204.800 95.329 C 204.800 96.653,178.069 123.600,176.756 123.600 C 176.261 123.600,174.704 122.364,172.850 120.500 C 169.005 116.633,168.329 116.096,165.600 114.732 C 165.050 114.457,164.171 113.910,163.646 113.516 C 163.121 113.122,162.261 112.800,161.734 112.800 C 161.206 112.800,160.675 112.539,160.552 112.219 C 160.425 111.889,159.524 111.523,158.465 111.370 C 157.439 111.223,156.330 110.871,156.000 110.589 C 155.670 110.306,154.140 109.947,152.600 109.790 C 151.060 109.633,149.193 109.256,148.451 108.952 C 146.761 108.260,137.152 108.183,135.903 108.852 C 135.438 109.101,133.695 109.457,132.029 109.643 C 130.363 109.830,128.460 110.248,127.800 110.573 C 127.140 110.897,125.943 111.266,125.140 111.392 C 124.337 111.518,123.460 111.886,123.191 112.211 C 122.922 112.535,122.388 112.800,122.005 112.800 C 121.622 112.800,120.850 113.160,120.291 113.600 C 119.731 114.040,119.015 114.400,118.698 114.400 C 118.381 114.400,117.707 114.760,117.200 115.200 C 116.693 115.640,116.116 116.000,115.917 116.000 C 115.384 116.000,110.455 120.020,108.509 122.042 C 105.388 125.286,103.600 127.365,103.600 127.750 C 103.600 127.961,103.326 128.418,102.990 128.766 C 102.011 129.783,100.400 132.390,100.400 132.956 C 100.400 133.242,100.040 133.802,99.600 134.200 C 99.160 134.598,98.800 135.333,98.800 135.833 C 98.800 136.334,98.528 137.015,98.195 137.348 C 97.862 137.681,97.480 138.549,97.346 139.277 C 97.212 140.005,96.851 141.004,96.544 141.497 C 96.237 141.990,95.877 143.250,95.745 144.297 C 95.613 145.344,95.211 146.650,94.852 147.200 C 93.973 148.548,93.859 171.467,94.726 172.511 C 95.016 172.860,95.425 174.363,95.636 175.852 C 95.847 177.340,96.285 178.852,96.610 179.211 C 96.934 179.569,97.201 180.299,97.203 180.831 C 97.204 181.364,97.563 182.340,98.000 183.000 C 98.437 183.660,98.796 184.491,98.797 184.846 C 98.799 185.201,99.160 185.950,99.600 186.509 C 100.040 187.069,100.400 187.785,100.400 188.101 C 100.400 188.417,100.760 189.002,101.200 189.400 C 101.640 189.798,102.000 190.366,102.000 190.662 C 102.000 190.958,102.281 191.515,102.624 191.900 C 102.966 192.285,104.091 193.691,105.124 195.024 C 107.705 198.359,114.407 204.400,115.524 204.400 C 115.732 204.400,116.117 204.658,116.379 204.974 C 116.641 205.290,117.368 205.661,117.994 205.799 C 118.621 205.936,119.223 206.283,119.333 206.568 C 119.442 206.854,120.357 207.296,121.366 207.550 C 122.375 207.804,123.200 208.189,123.200 208.406 C 123.200 208.623,123.702 208.800,124.315 208.800 C 124.929 208.800,126.082 209.132,126.879 209.538 C 127.675 209.944,129.659 210.389,131.287 210.527 C 132.915 210.664,134.906 211.052,135.711 211.388 C 137.654 212.200,144.483 212.218,146.754 211.416 C 147.664 211.095,149.801 210.709,151.504 210.557 C 153.251 210.402,155.207 209.959,155.994 209.541 C 156.761 209.133,157.774 208.800,158.245 208.800 C 158.716 208.800,159.310 208.549,159.565 208.242 C 159.820 207.935,160.634 207.570,161.374 207.431 C 162.114 207.292,162.940 206.914,163.209 206.589 C 163.478 206.265,163.948 206.000,164.253 206.000 C 164.558 206.000,165.116 205.640,165.493 205.200 C 165.870 204.760,166.410 204.400,166.693 204.400 C 166.976 204.400,167.516 204.040,167.893 203.600 C 168.270 203.160,168.754 202.800,168.969 202.800 C 169.184 202.800,171.124 200.981,173.280 198.757 C 178.114 193.772,177.434 193.661,184.548 200.594 C 187.599 203.567,190.152 206.000,190.223 206.000 C 190.293 206.000,192.096 207.710,194.231 209.800 C 196.366 211.890,198.175 213.600,198.253 213.600 C 198.330 213.600,198.890 214.110,199.497 214.734 C 200.103 215.358,201.860 217.000,203.400 218.383 C 207.446 222.017,207.445 222.153,203.334 226.301 C 201.458 228.194,198.815 230.608,197.461 231.664 C 196.107 232.721,194.715 233.859,194.366 234.193 C 194.018 234.527,193.532 234.800,193.286 234.800 C 193.041 234.800,192.696 235.046,192.520 235.346 C 192.344 235.646,191.660 236.191,191.000 236.558 C 190.340 236.924,189.260 237.577,188.600 238.008 C 187.940 238.439,186.950 239.011,186.400 239.280 C 185.850 239.548,184.971 240.090,184.446 240.484 C 183.921 240.878,183.176 241.200,182.789 241.200 C 182.402 241.200,181.986 241.460,181.864 241.778 C 181.742 242.096,181.003 242.476,180.221 242.622 C 179.439 242.769,178.800 243.042,178.800 243.228 C 178.800 243.415,178.035 243.786,177.100 244.053 C 176.165 244.320,175.130 244.754,174.800 245.018 C 174.470 245.283,173.480 245.627,172.600 245.783 C 171.720 245.940,170.730 246.298,170.400 246.580 C 170.070 246.862,168.982 247.198,167.982 247.327 C 166.982 247.456,165.632 247.840,164.982 248.179 C 164.332 248.518,163.058 248.796,162.152 248.798 C 161.246 248.799,159.356 249.185,157.952 249.655 C 154.009 250.977,125.572 250.980,121.648 249.659 C 120.244 249.187,118.300 248.800,117.328 248.800 C 116.356 248.800,115.048 248.535,114.422 248.211 C 113.796 247.888,112.500 247.500,111.542 247.351 C 110.584 247.201,109.173 246.746,108.406 246.339 C 107.639 245.933,106.536 245.600,105.955 245.600 C 105.374 245.600,104.686 245.344,104.426 245.031 C 104.166 244.718,103.255 244.344,102.400 244.200 C 101.545 244.056,100.649 243.700,100.409 243.411 C 100.168 243.121,99.366 242.770,98.626 242.631 C 97.886 242.492,97.070 242.125,96.813 241.815 C 96.555 241.505,95.819 241.136,95.177 240.995 C 94.535 240.854,93.905 240.570,93.777 240.363 C 93.650 240.157,92.973 239.714,92.273 239.380 C 90.083 238.333,88.626 237.483,88.075 236.932 C 87.782 236.639,87.314 236.400,87.033 236.400 C 86.753 236.400,86.198 236.040,85.800 235.600 C 85.402 235.160,84.843 234.800,84.558 234.800 C 84.273 234.800,83.896 234.556,83.720 234.258 C 83.544 233.961,83.021 233.518,82.557 233.275 C 81.786 232.871,80.311 231.668,77.682 229.300 C 77.133 228.805,76.529 228.400,76.342 228.400 C 76.154 228.400,76.000 228.130,76.000 227.800 C 76.000 227.470,75.804 227.200,75.564 227.200 C 74.894 227.200,66.800 218.709,66.800 218.005 C 66.800 217.782,66.638 217.600,66.440 217.600 C 66.121 217.600,65.204 216.335,63.736 213.871 C 63.481 213.442,63.121 212.981,62.936 212.846 C 62.364 212.427,60.804 210.064,60.402 209.006 C 60.192 208.453,59.844 208.000,59.628 208.000 C 59.413 208.000,59.120 207.382,58.979 206.628 C 58.837 205.873,58.486 205.165,58.198 205.055 C 57.911 204.944,57.557 204.314,57.412 203.655 C 57.267 202.995,56.895 202.245,56.585 201.987 C 56.275 201.730,55.909 200.920,55.771 200.188 C 55.634 199.455,55.295 198.769,55.019 198.663 C 54.742 198.556,54.411 197.822,54.282 197.031 C 54.154 196.239,53.768 195.311,53.424 194.967 C 53.081 194.624,52.800 193.948,52.800 193.466 C 52.800 192.983,52.440 191.916,52.000 191.096 C 51.560 190.275,51.196 189.107,51.191 188.501 C 51.186 187.896,50.826 186.615,50.391 185.656 C 49.956 184.697,49.600 183.236,49.600 182.408 C 49.600 181.581,49.266 179.846,48.858 178.552 C 47.002 172.669,47.070 145.424,48.951 141.113 C 49.308 140.295,49.606 138.765,49.614 137.713 C 49.621 136.661,49.975 135.080,50.400 134.200 C 50.825 133.320,51.179 132.028,51.186 131.329 C 51.194 130.629,51.474 129.783,51.808 129.449 C 52.143 129.114,52.577 127.982,52.773 126.932 C 52.969 125.882,53.326 124.958,53.565 124.878 C 53.805 124.798,54.116 124.013,54.257 123.132 C 54.398 122.252,54.740 121.444,55.017 121.338 C 55.295 121.232,55.634 120.545,55.771 119.812 C 55.909 119.080,56.275 118.270,56.585 118.013 C 56.895 117.755,57.267 117.005,57.412 116.345 C 57.557 115.686,57.917 115.053,58.213 114.940 C 58.509 114.826,58.869 114.196,59.013 113.540 C 59.157 112.883,59.528 112.249,59.838 112.130 C 60.147 112.012,60.400 111.602,60.400 111.219 C 60.400 110.837,60.760 110.198,61.200 109.800 C 61.640 109.402,62.000 108.835,62.000 108.541 C 62.000 108.247,62.360 107.782,62.800 107.507 C 63.240 107.232,63.600 106.803,63.600 106.552 C 63.600 105.978,67.039 101.522,67.819 101.085 C 68.139 100.906,68.400 100.607,68.400 100.421 C 68.400 99.917,75.072 93.200,75.572 93.200 C 75.807 93.200,76.000 92.930,76.000 92.600 C 76.000 92.270,76.147 92.000,76.327 92.000 C 76.507 92.000,77.362 91.363,78.227 90.585 C 79.092 89.806,80.610 88.643,81.600 87.999 C 82.590 87.356,83.685 86.553,84.034 86.215 C 84.382 85.877,84.849 85.600,85.072 85.600 C 85.294 85.600,85.802 85.240,86.200 84.800 C 86.598 84.360,87.216 84.000,87.573 84.000 C 87.930 84.000,88.530 83.640,88.907 83.200 C 89.284 82.760,89.851 82.400,90.168 82.400 C 90.484 82.400,90.981 82.172,91.271 81.894 C 91.921 81.273,95.923 79.200,96.474 79.200 C 96.694 79.200,97.331 78.840,97.891 78.400 C 98.450 77.960,99.312 77.600,99.805 77.600 C 100.298 77.600,100.922 77.335,101.191 77.011 C 101.460 76.686,102.337 76.299,103.140 76.150 C 103.943 76.001,104.960 75.646,105.400 75.360 C 105.840 75.074,107.008 74.712,107.995 74.554 C 108.982 74.396,110.005 74.052,110.269 73.788 C 110.532 73.525,111.864 73.183,113.228 73.029 C 114.591 72.874,116.088 72.510,116.554 72.220 C 117.019 71.929,118.826 71.571,120.569 71.423 C 122.312 71.275,124.112 70.944,124.569 70.686 C 126.333 69.694,150.759 69.526,154.600 70.481 M307.889 70.612 C 308.694 70.948,310.714 71.336,312.377 71.474 C 314.039 71.612,315.760 71.948,316.200 72.219 C 316.640 72.491,317.900 72.837,319.000 72.988 C 320.100 73.139,321.404 73.522,321.897 73.838 C 322.390 74.155,323.621 74.528,324.632 74.666 C 325.643 74.805,326.557 75.143,326.662 75.418 C 326.768 75.693,327.637 76.035,328.594 76.178 C 329.551 76.322,330.536 76.682,330.782 76.978 C 331.027 77.274,331.834 77.630,332.574 77.769 C 333.314 77.908,334.140 78.286,334.409 78.611 C 334.678 78.935,335.212 79.200,335.595 79.200 C 335.978 79.200,336.721 79.522,337.246 79.916 C 337.771 80.310,338.650 80.857,339.200 81.132 C 340.860 81.961,341.957 82.638,342.697 83.288 C 343.084 83.628,343.788 84.024,344.263 84.168 C 344.738 84.312,345.227 84.694,345.350 85.015 C 345.474 85.337,345.844 85.600,346.173 85.600 C 346.503 85.600,346.965 85.960,347.200 86.400 C 347.435 86.840,347.883 87.200,348.194 87.200 C 348.506 87.200,348.904 87.429,349.080 87.710 C 349.256 87.990,349.892 88.532,350.494 88.915 C 353.422 90.777,353.237 92.037,349.498 95.687 C 348.234 96.921,347.200 98.126,347.200 98.365 C 347.200 98.604,346.942 98.800,346.627 98.800 C 346.312 98.800,345.940 99.160,345.800 99.600 C 345.660 100.040,345.288 100.400,344.973 100.400 C 344.658 100.400,344.400 100.592,344.400 100.826 C 344.400 101.061,343.275 102.379,341.900 103.756 C 340.525 105.132,337.600 108.201,335.400 110.574 C 325.773 120.960,326.590 120.532,323.002 117.068 C 320.313 114.471,318.697 113.190,317.513 112.713 C 317.121 112.555,316.800 112.252,316.800 112.040 C 316.800 111.828,316.395 111.527,315.900 111.372 C 315.405 111.217,314.571 110.755,314.046 110.345 C 313.521 109.935,312.778 109.600,312.395 109.600 C 312.012 109.600,311.493 109.352,311.241 109.050 C 310.990 108.747,310.092 108.389,309.244 108.253 C 308.397 108.118,307.500 107.761,307.250 107.460 C 307.001 107.160,305.713 106.800,304.388 106.662 C 303.064 106.523,301.453 106.138,300.810 105.805 C 299.303 105.026,292.509 104.994,290.000 105.754 C 289.010 106.054,287.210 106.431,286.000 106.593 C 284.790 106.754,283.530 107.113,283.200 107.389 C 282.870 107.666,282.100 108.011,281.490 108.156 C 280.267 108.447,279.748 108.841,277.095 111.495 C 274.410 114.179,274.108 114.597,273.790 116.059 C 273.629 116.797,273.251 117.755,272.949 118.189 C 272.610 118.676,272.400 120.058,272.400 121.800 C 272.400 123.542,272.610 124.924,272.949 125.411 C 273.251 125.845,273.625 126.785,273.781 127.501 C 274.188 129.370,277.019 132.178,280.000 133.668 C 280.550 133.943,281.429 134.490,281.954 134.884 C 282.479 135.278,283.222 135.600,283.605 135.600 C 283.988 135.600,284.527 135.872,284.803 136.204 C 285.078 136.536,286.013 136.920,286.879 137.059 C 287.745 137.198,288.671 137.528,288.937 137.794 C 289.203 138.060,290.136 138.408,291.010 138.568 C 291.885 138.728,292.964 139.093,293.409 139.379 C 293.854 139.665,294.982 140.028,295.917 140.186 C 296.851 140.344,297.843 140.700,298.121 140.978 C 298.399 141.256,299.473 141.610,300.508 141.765 C 301.543 141.921,302.650 142.307,302.967 142.624 C 303.284 142.941,303.968 143.200,304.487 143.200 C 305.006 143.200,306.137 143.560,307.000 144.000 C 307.863 144.440,308.853 144.800,309.200 144.800 C 309.547 144.800,310.537 145.160,311.400 145.600 C 312.263 146.040,313.336 146.401,313.785 146.403 C 314.233 146.404,315.140 146.763,315.800 147.200 C 316.460 147.637,317.324 147.996,317.721 147.997 C 318.117 147.999,319.107 148.345,319.921 148.767 C 320.734 149.189,321.850 149.727,322.400 149.964 C 323.336 150.367,323.717 150.569,325.500 151.608 C 325.885 151.832,326.785 152.285,327.500 152.613 C 328.215 152.942,328.800 153.388,328.800 153.605 C 328.800 153.822,329.056 154.000,329.369 154.000 C 329.682 154.000,330.473 154.450,331.127 155.000 C 331.781 155.550,332.515 156.000,332.758 156.000 C 333.001 156.000,333.200 156.175,333.200 156.390 C 333.200 156.604,333.738 157.058,334.397 157.398 C 335.664 158.054,342.800 165.064,342.800 165.653 C 342.800 165.844,343.115 166.347,343.500 166.771 C 344.943 168.361,345.413 168.991,345.897 169.982 C 346.170 170.542,346.923 171.900,347.570 173.000 C 348.217 174.100,348.759 175.273,348.773 175.606 C 348.788 175.939,349.160 176.884,349.600 177.704 C 350.040 178.525,350.400 179.707,350.400 180.331 C 350.400 180.955,350.779 182.672,351.242 184.146 C 352.313 187.560,352.186 201.136,351.051 204.564 C 350.693 205.644,350.400 207.136,350.400 207.880 C 350.400 208.623,350.040 209.938,349.600 210.800 C 349.160 211.662,348.800 212.842,348.800 213.421 C 348.800 214.000,348.440 214.931,348.000 215.491 C 347.560 216.050,347.200 216.851,347.200 217.270 C 347.200 217.689,346.878 218.520,346.484 219.116 C 345.404 220.751,344.845 221.697,344.306 222.800 C 344.037 223.350,343.588 223.944,343.308 224.120 C 343.029 224.296,342.800 224.672,342.800 224.957 C 342.800 225.489,342.088 226.411,339.500 229.231 C 338.675 230.130,338.000 230.945,338.000 231.043 C 338.000 231.140,337.157 231.980,336.128 232.910 C 335.098 233.839,333.862 235.005,333.382 235.500 C 332.901 235.995,332.304 236.400,332.054 236.400 C 331.804 236.400,331.600 236.562,331.600 236.760 C 331.600 236.959,330.934 237.544,330.119 238.060 C 329.304 238.577,328.179 239.313,327.619 239.696 C 327.059 240.078,326.150 240.611,325.600 240.880 C 325.050 241.148,324.171 241.690,323.646 242.084 C 323.121 242.478,322.376 242.800,321.989 242.800 C 321.602 242.800,321.191 243.047,321.075 243.349 C 320.959 243.652,320.194 244.025,319.374 244.178 C 318.555 244.332,317.628 244.715,317.314 245.029 C 317.000 245.343,316.348 245.600,315.866 245.600 C 315.383 245.600,314.361 245.933,313.594 246.339 C 312.827 246.746,311.399 247.204,310.420 247.357 C 309.441 247.510,308.412 247.824,308.134 248.055 C 307.856 248.285,306.245 248.646,304.553 248.856 C 302.861 249.066,301.100 249.444,300.638 249.697 C 298.521 250.857,272.064 250.659,269.000 249.461 C 268.120 249.117,266.500 248.821,265.400 248.804 C 264.300 248.787,262.680 248.425,261.800 248.000 C 260.920 247.575,259.457 247.221,258.549 247.214 C 257.625 247.206,256.690 246.950,256.426 246.631 C 256.166 246.318,255.199 245.941,254.277 245.793 C 253.355 245.644,252.237 245.294,251.794 245.014 C 251.351 244.734,250.361 244.371,249.594 244.208 C 248.827 244.045,247.930 243.681,247.600 243.400 C 247.270 243.119,246.427 242.767,245.728 242.619 C 245.028 242.470,244.256 242.109,244.013 241.816 C 243.770 241.523,242.938 241.165,242.165 241.020 C 241.391 240.875,240.658 240.496,240.536 240.178 C 240.414 239.860,239.998 239.600,239.611 239.600 C 239.224 239.600,238.450 239.240,237.891 238.800 C 237.331 238.360,236.690 238.000,236.465 238.000 C 236.241 238.000,235.810 237.753,235.509 237.452 C 235.208 237.150,234.385 236.606,233.680 236.242 C 232.976 235.877,232.400 235.404,232.400 235.190 C 232.400 234.975,232.208 234.800,231.973 234.800 C 231.609 234.800,230.554 234.096,228.078 232.200 C 225.157 229.962,221.600 226.287,221.600 225.505 C 221.600 224.701,222.633 223.588,237.400 208.493 C 242.460 203.320,246.838 198.843,247.129 198.544 C 247.763 197.891,250.400 197.813,250.400 198.446 C 250.400 198.873,253.334 201.805,255.277 203.320 C 259.112 206.310,260.976 207.600,261.461 207.600 C 261.771 207.600,262.129 207.870,262.255 208.200 C 262.382 208.530,262.802 208.800,263.189 208.800 C 263.576 208.800,264.350 209.160,264.909 209.600 C 265.469 210.040,266.189 210.400,266.509 210.400 C 266.830 210.400,267.550 210.760,268.109 211.200 C 268.669 211.640,269.437 212.000,269.816 212.000 C 270.195 212.000,271.067 212.338,271.753 212.750 C 272.439 213.163,273.900 213.616,275.000 213.757 C 276.100 213.897,277.720 214.272,278.600 214.589 C 281.245 215.541,291.421 215.417,294.000 214.400 C 295.116 213.960,296.541 213.600,297.166 213.600 C 297.791 213.600,298.520 213.337,298.787 213.015 C 299.054 212.694,299.635 212.316,300.077 212.175 C 302.066 211.544,306.000 208.089,306.000 206.974 C 306.000 206.644,306.257 206.276,306.570 206.156 C 306.884 206.036,307.257 205.248,307.399 204.406 C 307.541 203.563,307.909 202.542,308.216 202.137 C 308.845 201.306,309.053 194.000,308.447 194.000 C 308.254 194.000,307.891 193.190,307.642 192.200 C 307.392 191.210,307.007 190.400,306.786 190.400 C 306.564 190.400,306.162 189.914,305.891 189.319 C 305.326 188.076,303.972 186.628,303.040 186.271 C 302.688 186.136,302.400 185.861,302.400 185.661 C 302.400 185.461,301.873 185.079,301.229 184.812 C 300.585 184.545,299.960 184.073,299.841 183.763 C 299.722 183.454,299.333 183.200,298.976 183.200 C 298.618 183.200,297.869 182.840,297.309 182.400 C 296.750 181.960,296.001 181.599,295.646 181.597 C 295.291 181.596,294.460 181.237,293.800 180.800 C 293.140 180.363,292.208 180.004,291.729 180.003 C 291.249 180.001,290.592 179.735,290.268 179.411 C 289.944 179.087,288.896 178.703,287.940 178.558 C 286.983 178.413,285.930 178.064,285.600 177.782 C 285.270 177.501,284.131 177.143,283.068 176.985 C 282.006 176.828,281.050 176.474,280.944 176.198 C 280.838 175.922,279.870 175.580,278.793 175.437 C 277.716 175.294,276.600 174.943,276.313 174.656 C 276.027 174.370,274.907 174.014,273.825 173.865 C 272.744 173.717,271.575 173.351,271.229 173.052 C 270.883 172.753,269.903 172.402,269.050 172.271 C 268.198 172.141,267.208 171.779,266.850 171.468 C 266.493 171.156,265.543 170.784,264.740 170.640 C 263.937 170.496,263.060 170.114,262.791 169.789 C 262.522 169.465,261.898 169.200,261.405 169.200 C 260.912 169.200,260.050 168.840,259.491 168.400 C 258.931 167.960,258.108 167.600,257.661 167.600 C 257.213 167.600,256.727 167.405,256.580 167.167 C 256.432 166.929,255.567 166.383,254.656 165.953 C 253.745 165.524,252.640 164.950,252.200 164.678 C 249.692 163.128,248.073 161.981,247.079 161.050 C 246.463 160.472,245.790 160.000,245.583 160.000 C 245.376 160.000,244.982 159.640,244.707 159.200 C 244.432 158.760,244.072 158.400,243.907 158.400 C 243.557 158.400,241.875 156.680,239.954 154.357 C 239.209 153.456,238.314 152.422,237.964 152.060 C 237.614 151.697,237.201 151.130,237.045 150.800 C 236.889 150.470,236.333 149.480,235.808 148.600 C 234.048 145.649,232.400 142.278,232.400 141.630 C 232.400 141.277,232.040 140.316,231.600 139.496 C 231.141 138.639,230.800 137.239,230.800 136.210 C 230.800 135.223,230.490 133.648,230.111 132.708 C 229.111 130.229,229.113 118.201,230.113 115.650 C 230.491 114.687,230.800 113.015,230.800 111.934 C 230.800 110.758,231.121 109.338,231.600 108.400 C 232.040 107.538,232.401 106.510,232.403 106.116 C 232.404 105.722,232.763 104.860,233.200 104.200 C 233.637 103.540,233.996 102.698,233.997 102.329 C 233.999 101.959,234.261 101.396,234.580 101.077 C 234.899 100.758,235.283 100.010,235.432 99.416 C 235.581 98.822,235.950 98.241,236.251 98.125 C 236.553 98.009,236.800 97.699,236.800 97.436 C 236.800 96.832,240.796 91.600,241.257 91.600 C 241.446 91.600,241.600 91.392,241.600 91.137 C 241.600 90.278,248.884 83.623,251.118 82.442 C 251.699 82.135,252.417 81.640,252.715 81.342 C 253.013 81.044,253.495 80.800,253.786 80.800 C 254.077 80.800,254.409 80.553,254.525 80.251 C 254.641 79.950,255.231 79.579,255.836 79.427 C 256.442 79.275,257.380 78.802,257.922 78.375 C 258.464 77.949,259.222 77.600,259.605 77.600 C 259.988 77.600,260.517 77.342,260.779 77.026 C 261.041 76.710,261.765 76.339,262.389 76.203 C 263.012 76.066,264.208 75.604,265.046 75.177 C 265.884 74.750,267.049 74.400,267.636 74.400 C 268.222 74.400,268.909 74.150,269.163 73.845 C 269.417 73.539,270.653 73.161,271.912 73.003 C 273.170 72.846,274.649 72.489,275.200 72.211 C 275.750 71.932,277.651 71.581,279.423 71.431 C 281.196 71.281,283.356 70.906,284.223 70.597 C 286.609 69.747,305.849 69.759,307.889 70.612 M1.236 330.867 C 1.452 331.270,1.824 331.600,2.063 331.600 C 2.371 331.600,2.368 331.443,2.052 331.063 C 1.807 330.768,1.695 330.438,1.803 330.330 C 1.912 330.222,1.740 330.133,1.422 330.133 C 0.985 330.133,0.939 330.313,1.236 330.867 M398.197 330.330 C 398.305 330.438,398.193 330.768,397.948 331.063 C 397.632 331.443,397.629 331.600,397.937 331.600 C 398.176 331.600,398.548 331.270,398.764 330.867 C 399.061 330.313,399.015 330.133,398.578 330.133 C 398.260 330.133,398.088 330.222,398.197 330.330 M4.160 339.880 C 4.182 340.460,4.470 341.023,4.800 341.132 C 5.308 341.300,5.318 341.231,4.866 340.683 C 4.572 340.326,4.440 339.860,4.572 339.645 C 4.705 339.431,4.657 339.159,4.466 339.041 C 4.276 338.923,4.138 339.301,4.160 339.880 M395.376 339.518 C 395.537 339.802,395.451 340.297,395.185 340.618 C 394.831 341.045,394.825 341.200,395.164 341.200 C 395.872 341.200,396.170 340.005,395.594 339.473 C 395.197 339.105,395.148 339.115,395.376 339.518 M6.202 343.602 C 6.602 344.044,7.011 344.322,7.112 344.221 C 7.328 344.005,6.188 342.800,5.767 342.800 C 5.607 342.800,5.803 343.161,6.202 343.602 M393.260 343.442 C 392.962 343.778,392.799 344.132,392.895 344.229 C 392.992 344.326,393.398 344.044,393.798 343.602 C 394.197 343.161,394.361 342.807,394.162 342.815 C 393.963 342.824,393.557 343.105,393.260 343.442 M7.371 347.281 C 7.207 347.566,7.226 347.659,7.415 347.487 C 7.604 347.316,7.986 347.586,8.265 348.087 C 8.632 348.749,8.776 348.821,8.786 348.349 C 8.807 347.399,7.759 346.608,7.371 347.281 M391.680 347.280 C 391.416 347.544,391.206 348.039,391.214 348.380 C 391.224 348.795,391.395 348.699,391.735 348.087 C 392.014 347.586,392.396 347.316,392.585 347.487 C 392.774 347.659,392.799 347.575,392.641 347.300 C 392.288 346.687,392.274 346.686,391.680 347.280 M10.800 353.367 C 10.800 353.715,11.085 354.000,11.433 354.000 C 12.140 354.000,12.017 353.139,11.275 352.892 C 11.014 352.805,10.800 353.018,10.800 353.367 M388.267 353.067 C 387.806 353.527,387.975 354.000,388.600 354.000 C 388.930 354.000,389.200 353.730,389.200 353.400 C 389.200 352.775,388.727 352.606,388.267 353.067 M14.871 360.667 C 14.942 361.034,15.229 361.380,15.510 361.437 C 15.791 361.494,15.835 361.449,15.610 361.337 C 14.948 361.008,15.141 360.292,15.821 360.553 C 16.177 360.689,16.337 360.622,16.197 360.395 C 15.786 359.730,14.731 359.946,14.871 360.667 M383.803 360.395 C 383.663 360.622,383.823 360.689,384.179 360.553 C 384.859 360.292,385.052 361.008,384.390 361.337 C 384.165 361.449,384.210 361.494,384.490 361.437 C 385.233 361.287,385.379 360.000,384.653 360.000 C 384.320 360.000,383.937 360.178,383.803 360.395 M18.400 364.986 C 18.400 365.308,18.760 365.765,19.200 366.000 C 19.640 366.235,20.000 366.332,20.000 366.214 C 20.000 366.096,19.640 365.640,19.200 365.200 C 18.595 364.595,18.400 364.543,18.400 364.986 M380.651 365.453 C 379.905 366.477,379.905 366.479,380.751 366.026 C 381.218 365.776,381.600 365.308,381.600 364.986 C 381.600 364.212,381.531 364.246,380.651 365.453 M19.703 367.200 C 19.896 367.910,21.200 368.263,21.200 367.606 C 21.200 367.357,21.000 367.276,20.755 367.428 C 20.511 367.579,20.137 367.454,19.925 367.151 C 19.608 366.698,19.568 366.707,19.703 367.200 M380.000 367.176 C 380.000 367.465,379.740 367.586,379.400 367.455 C 379.070 367.329,378.800 367.399,378.800 367.613 C 378.800 367.826,379.059 368.000,379.376 368.000 C 380.029 368.000,380.604 367.271,380.240 366.907 C 380.108 366.775,380.000 366.896,380.000 367.176 M21.600 368.600 C 21.201 369.081,21.249 369.240,21.855 369.457 C 22.265 369.603,22.780 369.820,23.000 369.938 C 23.220 370.057,23.177 369.877,22.903 369.540 C 22.630 369.203,22.507 368.826,22.630 368.703 C 22.753 368.581,22.682 368.374,22.472 368.244 C 22.262 368.115,21.870 368.275,21.600 368.600 M377.417 369.182 C 376.757 369.911,376.764 369.935,377.569 369.724 C 378.546 369.469,378.969 368.952,378.460 368.637 C 378.266 368.517,377.796 368.762,377.417 369.182 M30.276 377.569 C 30.531 378.546,31.048 378.969,31.363 378.460 C 31.483 378.266,31.238 377.796,30.818 377.417 C 30.089 376.757,30.065 376.764,30.276 377.569 M369.396 377.207 C 369.258 377.430,368.990 377.517,368.800 377.400 C 368.193 377.025,367.987 377.892,368.569 378.374 C 369.139 378.848,369.285 378.737,369.726 377.500 C 369.998 376.736,369.797 376.558,369.396 377.207 M32.071 379.467 C 32.142 379.834,32.470 380.207,32.800 380.297 C 33.293 380.432,33.302 380.392,32.849 380.075 C 32.546 379.863,32.421 379.489,32.572 379.245 C 32.724 379.000,32.643 378.800,32.394 378.800 C 32.145 378.800,32.000 379.100,32.071 379.467 M367.428 379.245 C 367.579 379.489,367.454 379.863,367.151 380.075 C 366.698 380.392,366.707 380.432,367.200 380.297 C 367.910 380.104,368.263 378.800,367.606 378.800 C 367.357 378.800,367.276 379.000,367.428 379.245 M33.956 380.700 C 34.216 381.195,34.722 381.600,35.081 381.600 C 35.440 381.600,35.658 381.553,35.567 381.496 C 35.475 381.438,34.969 381.033,34.442 380.596 L 33.484 379.800 33.956 380.700 M365.256 380.813 C 364.556 381.396,364.474 381.600,364.942 381.600 C 365.288 381.600,365.765 381.240,366.000 380.800 C 366.526 379.818,366.449 379.819,365.256 380.813 M39.512 383.421 C 39.371 383.563,39.352 383.931,39.470 384.239 C 39.716 384.878,38.974 385.017,38.663 384.390 C 38.552 384.165,38.507 384.210,38.565 384.490 C 38.623 384.771,39.056 385.005,39.527 385.012 C 39.998 385.018,40.603 385.243,40.872 385.512 C 41.443 386.083,42.000 386.150,42.000 385.647 C 42.000 385.452,41.640 385.199,41.201 385.084 C 40.762 384.969,40.260 384.490,40.086 384.020 C 39.912 383.549,39.653 383.280,39.512 383.421 M360.000 384.429 C 360.000 385.342,361.254 385.395,361.437 384.490 C 361.494 384.210,361.449 384.165,361.337 384.390 C 361.014 385.040,360.289 384.866,360.545 384.200 C 360.671 383.870,360.601 383.600,360.387 383.600 C 360.174 383.600,360.000 383.973,360.000 384.429 M46.256 388.278 C 45.805 388.728,45.981 389.200,46.600 389.200 C 46.930 389.200,47.200 389.031,47.200 388.824 C 47.200 388.319,46.575 387.958,46.256 388.278 M353.067 388.267 C 352.606 388.727,352.775 389.200,353.400 389.200 C 353.730 389.200,354.000 388.930,354.000 388.600 C 354.000 387.975,353.527 387.806,353.067 388.267 M51.913 391.735 C 52.414 392.014,52.684 392.396,52.513 392.585 C 52.341 392.774,52.434 392.793,52.719 392.629 C 53.392 392.241,52.601 391.193,51.651 391.214 C 51.179 391.224,51.251 391.368,51.913 391.735 M347.230 391.764 C 346.869 392.199,346.880 392.398,347.281 392.629 C 347.566 392.793,347.659 392.774,347.487 392.585 C 347.316 392.396,347.586 392.014,348.087 391.735 C 348.749 391.368,348.821 391.224,348.349 391.214 C 347.991 391.206,347.487 391.454,347.230 391.764 M56.202 393.602 C 56.602 394.044,57.011 394.322,57.112 394.221 C 57.328 394.005,56.188 392.800,55.767 392.800 C 55.607 392.800,55.803 393.161,56.202 393.602 M343.260 393.442 C 342.962 393.778,342.799 394.132,342.895 394.229 C 342.992 394.326,343.398 394.044,343.798 393.602 C 344.197 393.161,344.361 392.807,344.162 392.815 C 343.963 392.824,343.557 393.105,343.260 393.442 M58.800 395.209 C 58.800 395.438,59.078 395.732,59.417 395.862 C 60.355 396.222,60.466 395.833,59.582 395.281 C 59.087 394.972,58.800 394.946,58.800 395.209 M340.223 395.433 C 339.574 395.907,339.554 396.000,340.100 396.000 C 340.459 396.000,340.871 395.808,341.016 395.573 C 341.440 394.887,341.061 394.820,340.223 395.433 M68.400 397.937 C 68.400 398.176,68.730 398.548,69.133 398.764 C 69.687 399.061,69.867 399.015,69.867 398.578 C 69.867 398.260,69.778 398.088,69.670 398.197 C 69.562 398.305,69.232 398.193,68.937 397.948 C 68.557 397.632,68.400 397.629,68.400 397.937 M330.996 398.007 C 330.858 398.230,330.607 398.328,330.439 398.224 C 330.271 398.120,330.133 398.288,330.133 398.596 C 330.133 399.016,330.318 399.058,330.867 398.764 C 331.270 398.548,331.600 398.198,331.600 397.986 C 331.600 397.484,331.313 397.493,330.996 398.007 " stroke="none" fill="#1c2b3b" fill-rule="evenodd"></path><path id="path3" d="M125.800 70.616 C 124.700 70.925,122.450 71.298,120.800 71.445 C 119.150 71.592,117.333 71.947,116.763 72.234 C 116.192 72.521,114.752 72.876,113.563 73.024 C 112.373 73.171,111.021 73.528,110.558 73.817 C 110.096 74.106,109.016 74.465,108.158 74.616 C 107.301 74.766,106.221 75.126,105.758 75.416 C 105.296 75.705,104.267 76.064,103.473 76.213 C 102.678 76.362,101.820 76.735,101.565 77.042 C 101.310 77.349,100.774 77.600,100.372 77.600 C 99.971 77.600,98.848 78.022,97.877 78.539 C 96.905 79.055,95.771 79.590,95.355 79.727 C 94.940 79.864,94.285 80.162,93.900 80.388 C 92.075 81.462,91.719 81.653,90.568 82.185 C 89.891 82.498,89.104 83.034,88.819 83.377 C 88.535 83.720,88.109 84.000,87.873 84.000 C 87.504 84.000,84.590 85.805,84.000 86.399 C 83.890 86.509,82.970 87.178,81.956 87.885 C 79.889 89.325,77.804 91.072,75.493 93.300 C 74.637 94.125,73.858 94.800,73.762 94.800 C 73.506 94.800,67.499 101.298,66.296 102.877 C 65.910 103.385,65.145 104.366,64.596 105.058 C 64.048 105.750,63.600 106.506,63.600 106.738 C 63.600 106.970,63.374 107.304,63.099 107.480 C 62.658 107.761,62.090 108.574,60.082 111.800 C 59.808 112.240,59.320 113.173,58.998 113.873 C 58.676 114.573,58.243 115.250,58.037 115.377 C 57.830 115.505,57.543 116.147,57.399 116.805 C 57.255 117.462,56.978 118.000,56.784 118.000 C 56.591 118.000,56.216 118.722,55.951 119.605 C 55.687 120.487,55.230 121.409,54.935 121.654 C 54.641 121.898,54.399 122.481,54.397 122.949 C 54.396 123.417,54.037 124.340,53.600 125.000 C 53.163 125.660,52.804 126.563,52.803 127.006 C 52.801 127.449,52.440 128.484,52.000 129.304 C 51.560 130.125,51.199 131.293,51.198 131.899 C 51.196 132.504,50.913 133.540,50.568 134.200 C 50.223 134.860,49.798 136.673,49.623 138.229 C 49.447 139.785,49.085 141.467,48.817 141.968 C 47.332 144.743,47.448 174.608,48.959 178.600 C 49.292 179.480,49.573 180.868,49.582 181.685 C 49.592 182.502,49.960 184.084,50.400 185.200 C 50.840 186.316,51.206 187.628,51.214 188.115 C 51.221 188.602,51.575 189.720,52.000 190.600 C 52.425 191.480,52.780 192.560,52.789 193.000 C 52.798 193.440,53.163 194.340,53.600 195.000 C 54.037 195.660,54.396 196.592,54.397 197.071 C 54.399 197.551,54.648 198.191,54.951 198.494 C 55.254 198.797,55.626 199.608,55.777 200.295 C 55.928 200.982,56.298 201.750,56.600 202.000 C 56.902 202.250,57.267 202.995,57.412 203.655 C 57.557 204.314,57.928 204.951,58.238 205.070 C 58.547 205.188,58.800 205.602,58.800 205.989 C 58.800 206.376,59.115 207.123,59.500 207.651 C 59.885 208.178,60.380 208.895,60.600 209.245 C 60.820 209.594,61.536 210.672,62.192 211.640 C 62.847 212.608,63.567 213.691,63.792 214.047 C 64.907 215.815,65.919 217.120,67.100 218.313 C 67.815 219.036,68.400 219.739,68.400 219.876 C 68.400 220.013,69.075 220.799,69.900 221.623 C 70.725 222.446,71.848 223.678,72.396 224.360 C 72.943 225.042,73.510 225.600,73.656 225.600 C 73.802 225.600,74.974 226.646,76.260 227.924 C 78.804 230.450,85.009 235.152,88.200 236.971 C 89.300 237.598,90.470 238.335,90.800 238.608 C 91.130 238.882,91.842 239.240,92.381 239.405 C 92.921 239.571,93.618 239.961,93.930 240.272 C 94.241 240.584,95.003 240.941,95.623 241.065 C 96.242 241.188,96.845 241.540,96.962 241.845 C 97.079 242.150,97.502 242.400,97.903 242.400 C 98.303 242.400,99.337 242.760,100.200 243.200 C 101.063 243.640,101.959 244.000,102.191 244.000 C 102.422 244.000,103.284 244.360,104.104 244.800 C 104.925 245.240,106.005 245.600,106.504 245.600 C 107.004 245.600,108.084 245.960,108.904 246.400 C 109.725 246.840,110.762 247.200,111.209 247.200 C 111.655 247.200,113.044 247.560,114.296 248.000 C 115.548 248.440,117.349 248.800,118.299 248.800 C 119.249 248.800,120.695 249.085,121.513 249.433 C 125.242 251.019,152.812 251.115,157.800 249.559 C 159.120 249.147,160.920 248.807,161.800 248.803 C 162.680 248.799,163.932 248.518,164.582 248.179 C 165.232 247.840,166.582 247.453,167.582 247.320 C 168.582 247.186,170.027 246.745,170.794 246.339 C 171.561 245.932,172.506 245.600,172.896 245.600 C 173.285 245.600,174.275 245.240,175.096 244.800 C 175.916 244.360,176.884 244.000,177.245 244.000 C 177.606 244.000,178.117 243.742,178.379 243.426 C 178.641 243.110,179.370 242.738,180.000 242.600 C 180.630 242.462,181.350 242.102,181.600 241.800 C 181.850 241.498,182.595 241.133,183.255 240.988 C 183.914 240.843,184.551 240.472,184.670 240.162 C 184.788 239.853,185.226 239.600,185.643 239.600 C 186.059 239.600,186.760 239.240,187.200 238.800 C 187.640 238.360,188.135 238.000,188.300 238.000 C 188.466 238.000,189.861 237.097,191.400 235.992 C 192.940 234.888,194.702 233.653,195.316 233.247 C 197.005 232.130,200.705 228.864,203.070 226.400 C 204.232 225.190,205.457 223.915,205.791 223.566 C 207.012 222.296,206.484 221.374,202.348 217.548 C 197.795 213.337,195.866 211.510,187.123 203.132 C 178.048 194.434,177.422 194.005,176.292 195.700 C 174.892 197.802,168.960 203.259,166.882 204.358 C 166.301 204.665,165.583 205.160,165.285 205.458 C 164.987 205.756,164.480 206.000,164.159 206.000 C 163.838 206.000,163.476 206.259,163.354 206.576 C 163.233 206.892,162.563 207.272,161.867 207.420 C 161.170 207.568,160.330 207.919,160.000 208.200 C 159.670 208.481,158.770 208.839,158.000 208.995 C 157.230 209.151,156.229 209.513,155.775 209.799 C 155.321 210.086,153.701 210.452,152.175 210.614 C 150.649 210.775,148.590 211.151,147.600 211.449 C 145.243 212.159,137.557 212.159,135.200 211.449 C 134.210 211.151,132.151 210.775,130.625 210.614 C 129.099 210.452,127.479 210.082,127.025 209.790 C 126.571 209.498,125.531 209.137,124.714 208.988 C 123.897 208.838,123.020 208.465,122.765 208.158 C 122.510 207.851,122.009 207.597,121.651 207.594 C 121.293 207.591,120.550 207.332,120.000 207.018 C 119.450 206.705,118.460 206.168,117.800 205.825 C 117.140 205.482,116.134 204.886,115.564 204.501 C 114.994 204.115,113.821 203.330,112.958 202.755 C 110.820 201.330,105.669 196.172,104.201 193.986 C 103.542 193.004,102.858 192.094,102.682 191.965 C 101.951 191.427,97.200 181.823,97.200 180.882 C 97.200 180.495,96.946 179.815,96.636 179.372 C 96.325 178.929,95.881 177.539,95.649 176.282 C 95.417 175.025,94.996 173.593,94.713 173.099 C 93.830 171.552,93.994 148.563,94.900 147.000 C 95.282 146.340,95.600 145.260,95.606 144.600 C 95.613 143.940,95.974 142.615,96.409 141.656 C 96.844 140.697,97.201 139.617,97.203 139.256 C 97.204 138.895,97.563 138.060,98.000 137.400 C 98.437 136.740,98.796 135.958,98.797 135.663 C 98.799 135.368,99.160 134.669,99.600 134.109 C 100.040 133.550,100.400 132.784,100.400 132.408 C 100.400 132.032,100.760 131.398,101.200 131.000 C 101.640 130.602,102.000 130.111,102.000 129.909 C 102.000 129.226,108.094 121.961,109.913 120.476 C 110.907 119.664,112.003 118.685,112.349 118.300 C 112.695 117.915,113.213 117.600,113.501 117.600 C 113.789 117.600,114.131 117.323,114.261 116.985 C 114.391 116.647,115.060 116.111,115.749 115.793 C 116.955 115.237,117.249 115.080,119.000 114.060 C 119.440 113.804,120.250 113.395,120.800 113.152 C 121.350 112.908,122.540 112.369,123.444 111.954 C 124.348 111.540,125.433 111.200,125.855 111.200 C 126.277 111.200,127.003 110.933,127.468 110.607 C 127.934 110.281,129.742 109.855,131.486 109.660 C 133.230 109.464,135.037 109.101,135.502 108.852 C 136.626 108.251,147.364 108.246,148.486 108.846 C 148.945 109.092,150.660 109.459,152.299 109.662 C 153.937 109.866,155.665 110.277,156.138 110.578 C 156.612 110.878,157.755 111.244,158.677 111.393 C 159.599 111.541,160.566 111.918,160.826 112.231 C 161.086 112.544,161.698 112.800,162.188 112.800 C 162.677 112.800,163.493 113.160,164.000 113.600 C 164.507 114.040,165.128 114.400,165.380 114.400 C 165.879 114.400,166.506 114.845,170.020 117.697 C 172.874 120.013,173.988 121.111,174.910 122.519 C 175.338 123.172,175.981 123.600,176.532 123.600 C 177.729 123.600,204.540 96.847,204.719 95.476 C 204.852 94.450,197.607 87.200,196.449 87.200 C 196.217 87.200,195.835 86.840,195.600 86.400 C 195.365 85.960,194.967 85.600,194.717 85.600 C 194.467 85.600,193.933 85.301,193.529 84.936 C 193.125 84.570,192.460 84.075,192.051 83.836 C 190.658 83.019,188.203 81.585,186.200 80.418 C 185.100 79.777,183.907 79.241,183.549 79.227 C 183.191 79.212,182.683 78.942,182.421 78.626 C 182.159 78.310,181.435 77.939,180.811 77.803 C 180.188 77.666,178.992 77.204,178.154 76.777 C 177.316 76.350,176.303 76.000,175.901 76.000 C 175.500 76.000,174.773 75.747,174.286 75.438 C 173.799 75.130,172.600 74.748,171.623 74.590 C 170.646 74.433,169.625 74.082,169.353 73.810 C 169.082 73.539,167.823 73.195,166.556 73.046 C 165.289 72.898,164.040 72.599,163.780 72.383 C 163.520 72.168,161.818 71.804,159.999 71.576 C 158.179 71.348,155.687 70.900,154.461 70.581 C 151.324 69.763,128.734 69.791,125.800 70.616 M286.000 70.273 C 285.450 70.363,284.550 70.602,284.000 70.804 C 283.450 71.006,281.317 71.350,279.260 71.570 C 277.203 71.789,275.313 72.139,275.060 72.347 C 274.807 72.555,273.700 72.851,272.600 73.006 C 271.500 73.160,270.236 73.514,269.791 73.793 C 269.346 74.071,268.176 74.431,267.191 74.593 C 266.206 74.755,265.130 75.115,264.800 75.393 C 264.470 75.671,263.543 76.016,262.740 76.160 C 261.937 76.304,261.070 76.675,260.813 76.985 C 260.555 77.295,259.819 77.664,259.177 77.805 C 258.535 77.946,257.905 78.230,257.777 78.437 C 257.650 78.643,256.973 79.079,256.273 79.405 C 255.573 79.731,254.460 80.353,253.800 80.787 C 253.140 81.221,252.095 81.861,251.479 82.209 C 250.862 82.557,250.023 83.148,249.614 83.521 C 249.205 83.895,248.123 84.830,247.210 85.600 C 243.789 88.484,240.014 92.571,238.107 95.455 C 236.202 98.337,235.601 99.382,234.095 102.430 C 233.163 104.317,232.400 106.212,232.400 106.641 C 232.400 107.071,232.119 107.823,231.775 108.314 C 231.431 108.805,230.990 110.690,230.793 112.503 C 230.597 114.316,230.249 116.429,230.018 117.197 C 229.458 119.068,229.477 130.435,230.043 131.874 C 230.286 132.493,230.636 134.297,230.821 135.881 C 231.006 137.466,231.416 139.176,231.734 139.681 C 232.051 140.187,232.425 141.257,232.566 142.060 C 232.706 142.863,233.086 143.740,233.411 144.009 C 233.735 144.278,234.000 144.808,234.000 145.188 C 234.000 145.567,234.360 146.293,234.800 146.800 C 235.240 147.307,235.600 147.867,235.600 148.043 C 235.600 149.610,242.302 157.268,246.591 160.600 C 247.157 161.040,247.899 161.651,248.239 161.958 C 249.078 162.713,251.179 164.099,252.400 164.701 C 252.950 164.972,253.715 165.375,254.100 165.597 C 254.485 165.819,255.115 166.181,255.500 166.403 C 256.219 166.817,256.883 167.127,260.000 168.508 C 260.990 168.946,262.466 169.641,263.279 170.052 C 264.093 170.464,265.038 170.800,265.381 170.800 C 265.723 170.800,266.675 171.160,267.496 171.600 C 268.316 172.040,269.464 172.400,270.045 172.400 C 270.626 172.400,271.313 172.654,271.571 172.965 C 271.829 173.276,272.922 173.652,274.000 173.800 C 275.078 173.948,276.155 174.304,276.393 174.591 C 276.631 174.878,277.675 175.239,278.713 175.392 C 279.751 175.546,280.870 175.901,281.200 176.182 C 281.530 176.464,282.588 176.813,283.551 176.960 C 284.514 177.106,285.679 177.490,286.140 177.813 C 286.601 178.136,287.346 178.400,287.795 178.400 C 288.244 178.400,289.284 178.760,290.104 179.200 C 290.925 179.640,291.844 180.000,292.146 180.000 C 292.828 180.000,299.182 183.220,300.521 184.245 C 301.063 184.660,301.915 185.270,302.412 185.600 C 304.548 187.016,307.600 190.800,307.600 192.032 C 307.600 192.357,307.882 193.025,308.227 193.518 C 309.098 194.761,308.815 201.041,307.763 203.800 C 305.854 208.806,301.277 212.896,296.603 213.773 C 295.736 213.936,294.508 214.337,293.873 214.666 C 292.409 215.423,278.486 215.303,277.550 214.526 C 277.237 214.265,275.995 213.927,274.790 213.774 C 273.586 213.621,272.330 213.264,272.000 212.979 C 271.670 212.695,270.860 212.334,270.200 212.177 C 269.540 212.020,268.550 211.647,268.000 211.348 C 267.450 211.050,266.550 210.620,266.000 210.393 C 265.450 210.167,264.280 209.539,263.400 208.998 C 262.520 208.457,261.305 207.792,260.700 207.520 C 260.095 207.247,259.600 206.902,259.600 206.752 C 259.600 206.602,259.015 206.105,258.300 205.649 C 257.585 205.192,256.652 204.589,256.227 204.309 C 255.802 204.029,254.149 202.495,252.553 200.900 C 250.802 199.150,249.320 198.000,248.815 198.000 C 247.679 198.000,221.605 224.382,221.602 225.536 C 221.600 226.195,224.581 229.157,227.799 231.693 C 229.119 232.734,230.485 233.859,230.834 234.193 C 231.182 234.527,231.683 234.800,231.946 234.800 C 232.210 234.800,232.526 235.063,232.650 235.385 C 232.773 235.706,233.234 236.084,233.674 236.224 C 234.115 236.363,235.254 237.004,236.207 237.646 C 237.159 238.289,238.570 239.079,239.342 239.401 C 240.114 239.724,240.850 240.157,240.977 240.363 C 241.105 240.570,241.735 240.854,242.377 240.995 C 243.019 241.136,243.759 241.510,244.021 241.826 C 244.283 242.142,244.794 242.400,245.155 242.400 C 245.516 242.400,246.460 242.747,247.252 243.172 C 248.044 243.596,249.346 244.066,250.146 244.216 C 250.946 244.366,251.600 244.634,251.600 244.811 C 251.600 244.989,252.509 245.329,253.620 245.567 C 254.731 245.805,256.162 246.270,256.800 246.600 C 257.438 246.930,258.554 247.201,259.280 247.202 C 260.006 247.204,261.140 247.487,261.800 247.832 C 262.460 248.177,264.260 248.609,265.800 248.793 C 267.340 248.976,269.743 249.428,271.139 249.796 C 274.306 250.632,298.761 250.567,300.238 249.719 C 300.700 249.454,302.461 249.066,304.153 248.856 C 305.845 248.646,307.466 248.278,307.755 248.037 C 308.044 247.797,309.163 247.483,310.240 247.339 C 311.318 247.195,312.827 246.745,313.594 246.339 C 314.361 245.932,315.374 245.600,315.845 245.600 C 316.316 245.600,316.910 245.349,317.165 245.042 C 317.420 244.735,318.234 244.370,318.974 244.231 C 319.714 244.092,320.530 243.725,320.787 243.415 C 321.045 243.105,321.795 242.733,322.455 242.588 C 323.114 242.443,323.747 242.083,323.860 241.787 C 323.974 241.491,324.604 241.131,325.260 240.987 C 325.917 240.843,326.551 240.472,326.670 240.162 C 326.788 239.853,327.101 239.600,327.365 239.600 C 327.802 239.600,329.047 238.792,331.521 236.903 C 334.419 234.690,341.824 226.770,342.589 225.066 C 342.802 224.590,343.207 224.056,343.489 223.880 C 343.770 223.704,344.000 223.327,344.000 223.041 C 344.000 222.756,344.360 222.107,344.800 221.600 C 345.240 221.093,345.600 220.463,345.600 220.200 C 345.600 219.937,345.960 219.307,346.400 218.800 C 346.840 218.293,347.201 217.590,347.203 217.239 C 347.204 216.887,347.563 216.060,348.000 215.400 C 348.437 214.740,348.796 213.655,348.797 212.989 C 348.799 212.323,349.088 211.366,349.441 210.863 C 349.793 210.360,350.242 208.655,350.438 207.074 C 350.635 205.493,351.021 203.660,351.298 203.000 C 352.134 201.001,351.981 186.309,351.097 183.886 C 350.714 182.833,350.400 181.391,350.400 180.680 C 350.400 179.970,350.040 178.716,349.600 177.896 C 349.160 177.075,348.800 176.116,348.800 175.765 C 348.800 175.413,348.440 174.669,348.000 174.109 C 347.560 173.550,347.200 172.751,347.200 172.334 C 347.200 171.916,346.930 171.471,346.600 171.345 C 346.270 171.218,346.000 170.877,346.000 170.588 C 346.000 170.298,345.550 169.527,345.000 168.873 C 344.450 168.219,344.000 167.575,344.000 167.442 C 344.000 167.309,343.729 166.885,343.398 166.500 C 339.656 162.151,338.298 160.724,336.356 159.100 C 335.106 158.055,333.974 157.200,333.841 157.200 C 333.709 157.200,333.253 156.885,332.829 156.500 C 331.406 155.209,330.836 154.799,329.815 154.334 C 329.257 154.080,328.800 153.743,328.800 153.586 C 328.800 153.429,327.045 152.454,324.900 151.418 C 322.755 150.383,320.334 149.190,319.521 148.768 C 318.707 148.345,317.694 148.000,317.270 148.000 C 316.845 148.000,316.278 147.735,316.009 147.411 C 315.740 147.086,314.863 146.706,314.060 146.566 C 313.257 146.425,312.237 146.084,311.794 145.808 C 311.351 145.531,310.361 145.174,309.594 145.013 C 308.827 144.853,307.821 144.482,307.358 144.190 C 306.896 143.897,305.816 143.532,304.958 143.378 C 304.101 143.225,303.130 142.871,302.800 142.593 C 302.470 142.315,301.394 141.955,300.409 141.793 C 299.424 141.631,298.254 141.272,297.809 140.994 C 297.364 140.717,296.289 140.365,295.420 140.212 C 294.552 140.059,293.477 139.679,293.031 139.367 C 292.586 139.055,291.854 138.800,291.405 138.800 C 290.956 138.800,289.916 138.440,289.096 138.000 C 288.275 137.560,287.287 137.199,286.901 137.197 C 286.516 137.196,285.660 136.837,285.000 136.400 C 284.340 135.963,283.513 135.604,283.161 135.603 C 282.810 135.601,282.107 135.240,281.600 134.800 C 281.093 134.360,280.472 134.000,280.220 134.000 C 275.958 134.000,270.396 121.718,272.916 117.871 C 273.235 117.386,273.629 116.376,273.794 115.629 C 274.188 113.835,279.349 108.607,281.107 108.220 C 281.788 108.071,282.550 107.702,282.800 107.400 C 283.051 107.098,284.278 106.724,285.528 106.569 C 286.778 106.415,288.498 106.043,289.350 105.744 C 291.446 105.009,299.184 105.015,300.952 105.754 C 301.681 106.059,303.199 106.435,304.324 106.590 C 305.449 106.744,307.045 107.215,307.870 107.635 C 308.694 108.056,309.576 108.400,309.828 108.400 C 312.186 108.400,324.800 117.184,324.800 118.827 C 324.800 119.032,325.322 119.200,325.960 119.200 C 327.252 119.200,327.511 118.968,334.000 111.997 C 336.310 109.515,338.875 106.805,339.700 105.974 C 340.525 105.143,341.200 104.269,341.200 104.031 C 341.200 103.794,341.383 103.600,341.606 103.600 C 341.830 103.600,342.505 103.052,343.106 102.381 C 343.708 101.711,345.873 99.420,347.917 97.289 C 352.935 92.059,353.116 91.658,351.252 89.897 C 348.972 87.743,343.974 84.000,343.379 84.000 C 343.082 84.000,342.696 83.766,342.520 83.479 C 342.140 82.860,340.227 81.678,337.200 80.191 C 335.990 79.597,334.730 78.950,334.400 78.753 C 334.070 78.556,333.530 78.284,333.200 78.149 C 332.870 78.014,331.880 77.576,331.000 77.175 C 330.120 76.775,328.860 76.322,328.200 76.170 C 327.540 76.017,326.730 75.671,326.400 75.399 C 326.070 75.128,325.022 74.788,324.072 74.644 C 323.121 74.500,321.951 74.135,321.472 73.834 C 320.992 73.533,319.702 73.160,318.605 73.005 C 317.508 72.850,316.158 72.495,315.605 72.217 C 315.052 71.938,313.340 71.601,311.800 71.466 C 310.260 71.331,308.280 70.954,307.400 70.628 C 305.876 70.063,288.985 69.783,286.000 70.273 M153.200 71.521 C 154.630 71.769,156.880 72.147,158.200 72.362 C 162.652 73.086,168.160 74.425,171.800 75.668 C 172.460 75.893,173.900 76.355,175.000 76.693 C 176.100 77.032,177.355 77.554,177.789 77.854 C 178.223 78.154,178.837 78.400,179.153 78.400 C 179.660 78.400,185.652 81.252,187.800 82.516 C 194.770 86.617,203.200 93.638,203.200 95.342 C 203.200 96.375,177.769 122.000,176.744 122.000 C 176.380 122.000,174.849 120.772,173.341 119.271 C 169.501 115.447,162.946 111.324,159.554 110.597 C 158.809 110.438,158.000 110.147,157.755 109.950 C 157.510 109.754,156.250 109.402,154.955 109.168 C 153.660 108.934,151.829 108.485,150.886 108.171 C 148.087 107.238,135.768 107.381,131.973 108.391 C 130.338 108.825,128.640 109.192,128.200 109.204 C 127.760 109.217,126.680 109.575,125.800 110.000 C 124.920 110.425,123.981 110.779,123.712 110.786 C 123.240 110.800,120.423 112.079,119.200 112.835 C 118.870 113.039,118.150 113.427,117.600 113.697 C 113.015 115.948,102.800 125.229,102.800 127.143 C 102.800 127.394,102.650 127.600,102.467 127.600 C 101.798 127.600,96.800 136.522,96.800 137.716 C 96.800 137.989,96.440 138.884,96.000 139.704 C 95.560 140.525,95.192 141.513,95.182 141.899 C 95.173 142.284,94.892 143.320,94.558 144.200 C 92.244 150.302,91.963 167.294,94.058 174.400 C 94.285 175.170,94.717 176.700,95.018 177.800 C 95.806 180.678,96.990 183.865,97.498 184.477 C 97.739 184.767,98.060 185.500,98.212 186.106 C 98.364 186.712,98.651 187.308,98.850 187.431 C 99.049 187.554,99.486 188.227,99.820 188.927 C 103.414 196.444,110.506 203.273,119.470 207.847 C 121.360 208.811,123.103 209.600,123.345 209.600 C 123.587 209.600,124.688 209.943,125.792 210.362 C 136.555 214.450,154.620 213.121,163.600 207.580 C 163.930 207.377,164.740 206.913,165.400 206.551 C 168.760 204.704,174.413 199.721,176.631 196.651 L 177.462 195.502 181.849 199.651 C 184.261 201.933,188.365 205.780,190.967 208.200 C 193.570 210.620,196.821 213.680,198.192 215.000 C 199.564 216.320,201.598 218.249,202.712 219.287 C 205.814 222.177,205.798 222.351,202.083 225.967 C 197.563 230.367,188.825 237.200,187.719 237.200 C 187.578 237.200,187.175 237.461,186.822 237.780 C 185.910 238.606,175.929 243.600,175.192 243.600 C 174.854 243.600,174.223 243.842,173.789 244.138 C 173.355 244.434,172.102 244.897,171.005 245.167 C 169.908 245.438,168.810 245.826,168.565 246.029 C 168.320 246.233,167.237 246.514,166.160 246.656 C 165.082 246.797,163.750 247.138,163.200 247.414 C 162.650 247.690,160.940 248.044,159.400 248.201 C 157.860 248.358,155.430 248.765,154.000 249.105 C 150.246 249.998,129.353 249.985,125.600 249.088 C 124.170 248.746,121.830 248.341,120.400 248.189 C 118.970 248.036,117.193 247.662,116.451 247.356 C 115.709 247.050,114.629 246.792,114.051 246.782 C 113.473 246.773,112.280 246.494,111.400 246.164 C 110.520 245.833,108.990 245.318,108.000 245.019 C 105.547 244.277,102.882 243.303,101.200 242.533 C 100.430 242.180,98.990 241.529,98.000 241.087 C 97.010 240.644,95.930 240.131,95.600 239.947 C 94.501 239.333,92.217 238.113,90.800 237.383 C 90.030 236.987,89.310 236.550,89.200 236.412 C 89.090 236.274,88.100 235.648,87.000 235.021 C 85.900 234.394,84.730 233.639,84.400 233.344 C 84.070 233.049,82.360 231.691,80.600 230.326 C 75.953 226.723,69.118 219.693,65.919 215.227 C 64.884 213.782,63.868 212.403,63.661 212.162 C 63.454 211.922,62.991 211.202,62.630 210.562 C 62.270 209.923,61.618 208.860,61.182 208.200 C 60.745 207.540,60.093 206.325,59.733 205.500 C 59.373 204.675,58.940 204.000,58.771 204.000 C 58.602 204.000,58.348 203.472,58.206 202.828 C 58.064 202.183,57.690 201.441,57.374 201.179 C 57.058 200.917,56.798 200.499,56.796 200.251 C 56.794 200.003,56.350 198.900,55.809 197.800 C 55.268 196.700,54.819 195.558,54.813 195.262 C 54.806 194.966,54.544 194.246,54.232 193.662 C 53.475 192.248,52.479 189.172,51.776 186.076 C 51.460 184.687,51.042 183.247,50.847 182.876 C 50.652 182.504,50.366 181.030,50.212 179.600 C 50.059 178.170,49.653 175.920,49.310 174.600 C 48.387 171.049,48.389 148.854,49.312 145.400 C 49.665 144.080,50.078 141.830,50.229 140.400 C 50.381 138.970,50.656 137.508,50.839 137.151 C 51.023 136.794,51.434 135.354,51.752 133.951 C 52.446 130.889,53.456 127.789,54.232 126.338 C 54.544 125.754,54.800 125.068,54.800 124.814 C 54.800 124.358,56.509 120.371,57.206 119.200 C 57.403 118.870,58.130 117.520,58.822 116.200 C 60.915 112.206,61.389 111.451,65.270 105.924 C 68.339 101.554,76.021 93.506,79.707 90.800 C 80.756 90.030,82.622 88.635,83.855 87.700 C 85.088 86.765,86.242 86.000,86.420 86.000 C 86.597 86.000,86.981 85.773,87.271 85.495 C 87.562 85.218,88.250 84.759,88.800 84.476 C 89.350 84.193,90.520 83.536,91.400 83.016 C 92.280 82.496,93.990 81.597,95.200 81.019 C 96.410 80.441,98.066 79.615,98.879 79.184 C 99.693 78.753,100.573 78.400,100.835 78.400 C 101.098 78.400,102.052 78.065,102.956 77.656 C 106.584 76.012,113.639 73.846,116.780 73.411 C 117.759 73.276,118.750 73.007,118.983 72.814 C 119.215 72.622,121.384 72.268,123.802 72.028 C 126.221 71.788,128.830 71.427,129.600 71.225 C 131.496 70.727,149.954 70.958,153.200 71.521 M304.200 71.383 C 306.400 71.704,309.370 72.140,310.800 72.351 C 312.230 72.561,314.120 72.916,315.000 73.140 C 315.880 73.364,317.410 73.751,318.400 74.001 C 321.833 74.868,324.206 75.608,325.460 76.203 C 326.154 76.531,326.944 76.800,327.217 76.800 C 327.782 76.800,329.806 77.714,335.091 80.355 C 340.707 83.162,341.332 83.541,346.709 87.394 C 352.121 91.273,352.139 91.337,348.815 94.907 C 346.779 97.094,345.856 98.062,334.656 109.763 C 324.964 119.889,326.275 118.983,324.324 116.900 C 321.786 114.191,317.635 110.800,316.855 110.800 C 316.636 110.800,316.219 110.572,315.929 110.294 C 315.277 109.671,311.276 107.600,310.724 107.600 C 310.502 107.600,309.754 107.331,309.060 107.003 C 307.807 106.409,304.985 105.546,301.656 104.739 C 296.725 103.544,286.405 104.678,281.600 106.943 C 270.669 112.096,267.932 124.291,275.977 132.000 C 278.074 134.009,284.055 137.600,285.304 137.600 C 285.583 137.600,286.484 137.960,287.304 138.400 C 288.125 138.840,289.115 139.200,289.504 139.200 C 289.894 139.200,290.839 139.532,291.606 139.938 C 292.373 140.343,293.630 140.794,294.400 140.939 C 295.170 141.084,296.340 141.455,297.000 141.763 C 297.660 142.071,299.820 142.828,301.800 143.446 C 303.780 144.064,305.850 144.800,306.400 145.082 C 306.950 145.364,307.670 145.602,308.000 145.611 C 308.330 145.620,309.320 145.975,310.200 146.400 C 311.080 146.825,312.116 147.179,312.501 147.186 C 312.887 147.194,313.875 147.560,314.696 148.000 C 315.516 148.440,316.416 148.800,316.696 148.800 C 316.975 148.800,317.875 149.160,318.696 149.600 C 319.516 150.040,320.470 150.400,320.814 150.400 C 321.158 150.400,321.632 150.592,321.866 150.826 C 322.100 151.060,323.441 151.830,324.846 152.537 C 331.442 155.858,336.817 160.226,341.951 166.438 C 343.968 168.879,345.988 172.026,346.548 173.600 C 346.744 174.150,347.131 174.870,347.408 175.200 C 347.684 175.530,348.043 176.430,348.204 177.200 C 348.365 177.970,348.724 179.050,349.002 179.600 C 351.036 183.627,351.080 203.680,349.065 208.508 C 348.768 209.218,348.394 210.520,348.233 211.400 C 348.072 212.280,347.708 213.363,347.423 213.806 C 347.138 214.249,346.780 215.182,346.627 215.878 C 346.474 216.575,346.090 217.359,345.774 217.621 C 345.458 217.883,345.200 218.408,345.200 218.788 C 345.200 219.167,344.835 219.898,344.389 220.413 C 343.943 220.927,343.474 221.764,343.346 222.274 C 343.218 222.783,342.947 223.200,342.744 223.200 C 342.541 223.200,342.260 223.515,342.119 223.900 C 341.654 225.176,338.171 229.357,334.802 232.686 C 331.245 236.200,326.015 239.757,320.400 242.480 C 317.707 243.787,314.018 245.200,313.301 245.200 C 312.903 245.200,312.217 245.453,311.775 245.763 C 311.333 246.072,310.081 246.459,308.992 246.622 C 307.904 246.785,306.470 247.144,305.807 247.420 C 305.143 247.696,302.980 248.123,301.000 248.368 C 299.020 248.614,296.680 248.987,295.800 249.198 C 293.662 249.710,276.567 249.708,274.797 249.196 C 274.029 248.973,271.780 248.610,269.800 248.387 C 267.820 248.165,265.390 247.729,264.400 247.419 C 263.410 247.109,261.790 246.731,260.800 246.580 C 259.810 246.429,258.550 246.081,258.000 245.806 C 257.450 245.532,256.289 245.178,255.420 245.020 C 254.552 244.863,253.477 244.479,253.031 244.167 C 252.586 243.855,251.877 243.600,251.455 243.600 C 251.033 243.600,249.858 243.220,248.844 242.757 C 247.830 242.293,246.280 241.591,245.400 241.197 C 238.482 238.103,233.554 235.081,227.942 230.493 C 222.545 226.082,222.393 225.895,223.298 224.778 C 224.711 223.033,247.798 199.535,248.447 199.181 C 248.949 198.908,249.849 199.570,252.447 202.123 C 255.536 205.158,259.174 208.000,259.971 208.000 C 260.153 208.000,260.510 208.250,260.763 208.556 C 261.172 209.048,264.970 211.006,270.444 213.545 C 271.458 214.015,272.682 214.400,273.164 214.400 C 273.646 214.400,274.543 214.660,275.158 214.978 C 278.031 216.464,293.418 216.532,296.276 215.071 C 296.894 214.755,297.973 214.373,298.672 214.222 C 299.372 214.072,300.159 213.690,300.421 213.374 C 300.683 213.058,301.111 212.800,301.371 212.800 C 302.189 212.800,304.319 211.007,305.928 208.965 C 312.907 200.103,309.767 186.950,299.587 182.406 C 299.044 182.163,297.700 181.443,296.600 180.805 C 295.500 180.168,294.327 179.636,293.994 179.623 C 293.661 179.610,292.761 179.264,291.994 178.853 C 291.227 178.443,289.973 177.969,289.206 177.801 C 288.439 177.633,287.449 177.269,287.006 176.992 C 286.563 176.716,285.533 176.373,284.717 176.230 C 283.901 176.087,282.731 175.708,282.117 175.388 C 281.503 175.067,280.640 174.798,280.200 174.789 C 279.760 174.780,278.680 174.425,277.800 174.000 C 276.920 173.575,275.873 173.221,275.474 173.214 C 275.075 173.206,273.905 172.867,272.874 172.461 C 271.843 172.054,270.415 171.514,269.700 171.261 C 265.442 169.752,265.542 169.791,261.600 168.059 C 258.886 166.866,254.702 164.851,253.800 164.303 C 251.257 162.756,247.305 160.097,246.609 159.465 C 243.483 156.623,239.839 152.823,239.355 151.900 C 239.039 151.295,238.604 150.800,238.390 150.800 C 238.175 150.800,238.000 150.554,238.000 150.254 C 238.000 149.954,237.664 149.279,237.253 148.754 C 235.844 146.954,233.646 142.224,232.433 138.382 C 230.416 131.993,230.435 116.000,232.468 109.600 C 233.500 106.348,234.865 102.738,235.278 102.164 C 235.451 101.924,236.152 100.678,236.837 99.394 C 237.522 98.110,238.289 96.832,238.541 96.554 C 238.794 96.276,239.450 95.377,240.000 94.558 C 241.617 92.150,248.028 85.888,250.613 84.193 C 251.926 83.332,253.106 82.478,253.235 82.295 C 253.494 81.930,254.819 81.190,258.306 79.465 C 259.568 78.841,261.266 77.986,262.079 77.565 C 262.893 77.144,263.766 76.800,264.019 76.800 C 264.272 76.800,265.046 76.531,265.740 76.203 C 267.197 75.512,270.522 74.524,273.400 73.926 C 274.500 73.697,276.259 73.256,277.309 72.944 C 278.358 72.633,281.058 72.199,283.309 71.980 C 285.559 71.762,288.300 71.428,289.400 71.238 C 292.634 70.682,299.892 70.752,304.200 71.383 " stroke="none" fill="#6e757e" fill-rule="evenodd"></path><path id="path4" d="M138.512 69.895 C 139.564 69.977,141.184 69.976,142.112 69.892 C 143.040 69.808,142.180 69.741,140.200 69.742 C 138.220 69.743,137.460 69.812,138.512 69.895 M229.351 123.600 C 229.351 126.130,229.416 127.165,229.496 125.900 C 229.575 124.635,229.575 122.565,229.496 121.300 C 229.416 120.035,229.351 121.070,229.351 123.600 M47.350 159.800 C 47.351 162.220,47.416 163.158,47.496 161.885 C 47.576 160.612,47.575 158.632,47.494 157.485 C 47.414 156.338,47.349 157.380,47.350 159.800 M235.188 210.700 L 232.600 213.400 235.300 210.812 C 237.808 208.407,238.183 208.000,237.888 208.000 C 237.827 208.000,236.612 209.215,235.188 210.700 M3.691 319.216 C 3.191 319.417,2.677 319.855,2.548 320.190 C 2.413 320.542,1.825 320.800,1.157 320.800 C -0.024 320.800,-0.698 323.699,0.397 324.067 C 0.615 324.140,0.827 325.370,0.868 326.800 C 0.952 329.722,1.126 330.493,1.630 330.181 C 2.058 329.917,2.385 331.184,2.556 333.764 C 2.638 335.004,2.929 335.905,3.343 336.208 C 3.704 336.472,4.000 337.127,4.000 337.664 C 4.000 338.201,4.225 338.882,4.500 339.179 C 4.903 339.613,4.895 339.658,4.460 339.410 C 3.592 338.917,4.642 340.644,5.631 341.337 C 6.223 341.752,6.307 341.968,5.928 342.103 C 5.547 342.240,5.652 342.516,6.301 343.094 C 6.933 343.656,7.221 344.393,7.267 345.565 C 7.303 346.483,7.511 347.345,7.728 347.479 C 7.972 347.630,7.994 347.509,7.785 347.162 C 7.497 346.683,7.547 346.681,8.123 347.149 C 8.500 347.455,8.800 348.258,8.800 348.960 C 8.800 349.727,9.114 350.491,9.600 350.907 C 10.040 351.284,10.403 352.089,10.406 352.696 C 10.410 353.481,10.513 353.640,10.761 353.249 C 11.269 352.448,12.080 353.117,11.773 354.084 C 11.583 354.684,11.650 354.816,12.025 354.584 C 12.387 354.361,12.463 354.460,12.285 354.923 C 12.147 355.283,12.273 355.815,12.564 356.107 C 12.856 356.399,13.217 357.025,13.368 357.498 C 13.538 358.034,13.860 358.275,14.220 358.137 C 14.635 357.978,14.800 358.211,14.800 358.957 C 14.800 359.598,15.022 360.000,15.376 360.000 C 15.693 360.000,16.063 360.178,16.197 360.395 C 16.337 360.622,16.177 360.689,15.821 360.553 C 15.479 360.422,15.200 360.514,15.200 360.757 C 15.200 361.144,15.688 361.348,16.429 361.271 C 16.555 361.258,16.645 361.642,16.629 362.124 C 16.609 362.726,16.867 363.038,17.457 363.122 C 18.110 363.215,18.261 363.444,18.094 364.085 C 17.959 364.602,18.032 364.828,18.284 364.672 C 18.722 364.401,20.076 365.668,19.969 366.250 C 19.798 367.184,20.051 367.666,20.600 367.455 C 21.004 367.300,21.200 367.474,21.200 367.989 C 21.200 368.921,21.837 369.387,22.234 368.745 C 22.427 368.433,22.349 368.384,22.000 368.600 C 21.651 368.816,21.573 368.767,21.766 368.455 C 21.925 368.198,22.226 368.092,22.434 368.221 C 22.643 368.350,22.717 368.610,22.600 368.800 C 22.483 368.990,22.562 369.253,22.776 369.385 C 22.990 369.517,23.053 369.919,22.915 370.277 C 22.718 370.790,22.850 370.880,23.533 370.702 C 24.343 370.490,24.632 370.931,24.447 372.100 C 24.421 372.265,24.535 372.379,24.700 372.353 C 25.584 372.213,26.000 372.484,26.000 373.200 C 26.000 373.733,26.267 374.000,26.800 374.000 C 27.492 374.000,27.753 374.363,27.675 375.217 C 27.664 375.336,28.030 375.462,28.487 375.497 C 28.945 375.531,29.517 375.775,29.760 376.038 C 30.085 376.393,30.070 376.444,29.700 376.235 C 29.387 376.058,29.200 376.202,29.200 376.619 C 29.200 377.027,29.418 377.202,29.762 377.070 C 30.072 376.951,30.657 377.233,31.062 377.696 C 31.468 378.159,31.547 378.389,31.238 378.207 C 30.859 377.984,30.769 378.027,30.962 378.338 C 31.119 378.592,31.591 378.800,32.011 378.800 C 32.526 378.800,32.700 378.996,32.545 379.400 C 32.418 379.730,32.469 380.014,32.657 380.031 C 34.427 380.189,35.757 381.022,35.333 381.708 C 35.170 381.972,35.394 382.043,35.937 381.900 C 36.601 381.727,36.800 381.853,36.800 382.447 C 36.800 382.903,37.210 383.376,37.800 383.600 C 38.350 383.809,38.800 384.165,38.800 384.390 C 38.800 384.616,38.999 384.800,39.243 384.800 C 39.486 384.800,39.584 384.536,39.460 384.213 C 39.336 383.890,39.407 383.519,39.617 383.389 C 39.951 383.183,40.187 384.013,40.047 384.900 C 40.021 385.065,40.135 385.179,40.300 385.153 C 41.371 384.984,42.062 385.261,41.863 385.780 C 41.725 386.140,41.966 386.462,42.502 386.632 C 42.975 386.783,43.611 387.153,43.914 387.456 C 44.217 387.759,44.630 387.905,44.832 387.780 C 45.035 387.655,45.200 387.764,45.200 388.023 C 45.200 388.296,45.535 388.406,46.000 388.284 C 46.963 388.032,47.527 388.748,46.751 389.239 C 46.360 389.487,46.519 389.590,47.304 389.594 C 47.911 389.597,48.716 389.960,49.093 390.400 C 49.509 390.886,50.273 391.200,51.040 391.200 C 51.742 391.200,52.545 391.500,52.851 391.877 C 53.319 392.453,53.317 392.503,52.838 392.215 C 52.491 392.006,52.370 392.028,52.521 392.272 C 52.655 392.489,53.517 392.697,54.435 392.733 C 55.548 392.777,56.336 393.065,56.799 393.599 C 57.181 394.040,57.714 394.400,57.984 394.400 C 58.253 394.400,58.931 394.760,59.491 395.200 C 60.069 395.654,61.114 396.000,61.910 396.000 C 62.748 396.000,63.505 396.264,63.792 396.657 C 64.095 397.071,64.996 397.362,66.236 397.444 C 68.951 397.624,70.012 397.930,69.898 398.499 C 69.830 398.837,70.707 399.015,72.799 399.088 C 74.448 399.146,75.858 399.374,75.932 399.596 C 76.148 400.245,320.673 400.149,320.935 399.500 C 321.096 399.100,321.143 399.100,321.168 399.500 C 321.206 400.101,323.870 400.189,324.068 399.596 C 324.142 399.374,325.552 399.146,327.201 399.088 C 329.229 399.018,330.170 398.832,330.108 398.516 C 329.990 397.917,330.937 397.625,333.607 397.438 C 334.974 397.342,335.916 397.056,336.217 396.644 C 336.495 396.264,337.263 396.000,338.090 396.000 C 338.886 396.000,339.931 395.654,340.509 395.200 C 341.069 394.760,341.747 394.400,342.016 394.400 C 342.286 394.400,342.819 394.040,343.201 393.599 C 343.664 393.065,344.452 392.777,345.565 392.733 C 346.483 392.697,347.345 392.489,347.479 392.272 C 347.630 392.028,347.509 392.006,347.162 392.215 C 346.683 392.503,346.681 392.453,347.149 391.877 C 347.455 391.500,348.258 391.200,348.960 391.200 C 349.727 391.200,350.491 390.886,350.907 390.400 C 351.284 389.960,352.089 389.597,352.696 389.594 C 353.481 389.590,353.640 389.487,353.249 389.239 C 352.473 388.747,353.107 387.917,354.034 388.211 C 354.479 388.352,354.800 388.265,354.800 388.003 C 354.800 387.756,354.965 387.655,355.168 387.780 C 355.370 387.905,355.783 387.759,356.086 387.456 C 356.389 387.153,357.047 386.776,357.548 386.617 C 358.109 386.438,358.375 386.112,358.241 385.764 C 358.049 385.262,358.691 384.993,359.700 385.153 C 359.865 385.179,360.000 384.840,360.000 384.400 C 360.000 383.960,360.174 383.600,360.387 383.600 C 360.601 383.600,360.671 383.870,360.545 384.200 C 360.418 384.530,360.514 384.800,360.757 384.800 C 361.001 384.800,361.200 384.616,361.200 384.390 C 361.200 384.165,361.650 383.809,362.200 383.600 C 362.790 383.376,363.200 382.903,363.200 382.447 C 363.200 381.853,363.399 381.727,364.063 381.900 C 364.606 382.043,364.830 381.972,364.667 381.708 C 364.243 381.022,365.573 380.189,367.343 380.031 C 367.531 380.014,367.582 379.730,367.455 379.400 C 367.300 378.996,367.474 378.800,367.989 378.800 C 368.921 378.800,369.387 378.163,368.745 377.766 C 368.433 377.573,368.384 377.651,368.600 378.000 C 368.816 378.349,368.767 378.427,368.455 378.234 C 368.198 378.075,368.092 377.774,368.221 377.566 C 368.350 377.357,368.610 377.283,368.800 377.400 C 368.990 377.517,369.253 377.438,369.385 377.224 C 369.517 377.010,369.890 376.936,370.213 377.060 C 370.584 377.203,370.800 377.041,370.800 376.619 C 370.800 376.202,370.613 376.058,370.300 376.235 C 369.930 376.444,369.915 376.393,370.240 376.038 C 370.483 375.775,371.055 375.531,371.513 375.497 C 371.970 375.462,372.336 375.336,372.325 375.217 C 372.247 374.363,372.508 374.000,373.200 374.000 C 373.733 374.000,374.000 373.733,374.000 373.200 C 374.000 372.484,374.416 372.213,375.300 372.353 C 375.465 372.379,375.579 372.265,375.553 372.100 C 375.368 370.931,375.657 370.490,376.467 370.702 C 377.138 370.877,377.280 370.787,377.094 370.302 C 376.953 369.932,377.199 369.373,377.696 368.938 C 378.159 368.532,378.389 368.453,378.207 368.762 C 377.984 369.141,378.027 369.231,378.338 369.038 C 378.592 368.881,378.800 368.409,378.800 367.989 C 378.800 367.474,378.996 367.300,379.400 367.455 C 379.730 367.582,380.014 367.531,380.031 367.343 C 380.189 365.573,381.022 364.243,381.708 364.667 C 381.972 364.830,382.043 364.606,381.900 364.063 C 381.727 363.399,381.853 363.200,382.447 363.200 C 382.903 363.200,383.376 362.790,383.600 362.200 C 383.809 361.650,384.165 361.200,384.390 361.200 C 384.616 361.200,384.800 361.001,384.800 360.757 C 384.800 360.514,384.521 360.422,384.179 360.553 C 383.823 360.689,383.663 360.622,383.803 360.395 C 383.937 360.178,384.307 360.000,384.624 360.000 C 384.978 360.000,385.200 359.598,385.200 358.957 C 385.200 358.211,385.365 357.978,385.780 358.137 C 386.140 358.275,386.462 358.034,386.632 357.498 C 386.783 357.025,387.153 356.389,387.456 356.086 C 387.759 355.783,387.905 355.370,387.780 355.168 C 387.655 354.965,387.756 354.800,388.003 354.800 C 388.265 354.800,388.352 354.479,388.211 354.034 C 387.917 353.107,388.747 352.473,389.239 353.249 C 389.487 353.640,389.590 353.481,389.594 352.696 C 389.597 352.089,389.960 351.284,390.400 350.907 C 390.886 350.491,391.200 349.727,391.200 348.960 C 391.200 348.258,391.500 347.455,391.877 347.149 C 392.453 346.681,392.503 346.683,392.215 347.162 C 392.006 347.509,392.028 347.630,392.272 347.479 C 392.489 347.345,392.697 346.483,392.733 345.565 C 392.777 344.452,393.065 343.664,393.599 343.201 C 394.040 342.819,394.400 342.286,394.400 342.016 C 394.400 341.747,394.760 341.069,395.200 340.509 C 395.654 339.931,396.000 338.886,396.000 338.090 C 396.000 337.252,396.264 336.495,396.657 336.208 C 397.071 335.905,397.362 335.004,397.444 333.764 C 397.615 331.184,397.942 329.917,398.370 330.181 C 398.874 330.493,399.048 329.722,399.132 326.800 C 399.173 325.370,399.385 324.140,399.603 324.067 C 400.550 323.749,400.033 321.224,398.966 320.956 C 398.398 320.813,397.506 320.270,396.985 319.748 L 396.036 318.800 200.318 318.825 C 83.333 318.841,4.234 318.998,3.691 319.216 M395.900 320.652 C 396.979 320.941,397.080 322.157,396.200 324.262 C 395.870 325.051,395.603 326.081,395.606 326.549 C 395.614 327.751,392.932 336.714,391.700 339.600 C 390.532 342.339,389.119 345.422,388.365 346.879 C 387.944 347.693,387.600 348.616,387.600 348.930 C 387.600 349.245,387.320 349.735,386.977 350.019 C 386.634 350.304,386.089 351.091,385.766 351.768 C 385.064 353.240,384.748 353.760,382.348 357.400 C 379.259 362.083,375.330 366.777,370.628 371.400 C 364.736 377.195,362.605 378.930,356.036 383.287 C 355.466 383.665,354.460 384.255,353.800 384.598 C 351.827 385.623,350.845 386.236,350.103 386.904 C 349.716 387.253,348.912 387.659,348.316 387.808 C 347.720 387.957,347.023 388.331,346.767 388.639 C 346.511 388.948,346.099 389.201,345.851 389.202 C 345.603 389.204,344.922 389.454,344.339 389.759 C 343.755 390.063,342.585 390.536,341.739 390.808 C 340.892 391.081,340.020 391.445,339.800 391.616 C 339.580 391.788,337.870 392.408,336.000 392.995 C 334.130 393.582,332.060 394.250,331.400 394.480 C 330.740 394.709,329.300 395.068,328.200 395.277 C 327.100 395.485,325.660 395.828,325.000 396.037 C 324.340 396.246,322.090 396.604,320.000 396.831 C 317.910 397.059,314.760 397.427,313.000 397.648 C 308.494 398.216,89.001 397.885,83.000 397.302 C 80.580 397.067,77.520 396.602,76.200 396.269 C 74.880 395.936,72.900 395.491,71.800 395.280 C 70.700 395.069,69.260 394.713,68.600 394.488 C 67.940 394.264,65.870 393.577,64.000 392.962 C 62.130 392.348,60.150 391.611,59.600 391.325 C 59.050 391.039,58.330 390.803,58.000 390.800 C 57.670 390.797,56.860 390.437,56.200 390.000 C 55.540 389.563,54.707 389.204,54.349 389.203 C 53.991 389.201,53.489 388.948,53.233 388.639 C 52.977 388.331,52.314 387.965,51.760 387.826 C 51.207 387.687,49.909 386.984,48.877 386.264 C 47.845 385.544,45.920 384.343,44.600 383.595 C 43.280 382.846,42.020 382.096,41.800 381.927 C 30.409 373.177,16.800 358.912,16.800 355.721 C 16.800 355.482,16.530 355.182,16.200 355.055 C 15.870 354.929,15.600 354.609,15.600 354.344 C 15.600 354.079,15.323 353.557,14.985 353.183 C 14.115 352.222,9.200 342.400,9.200 341.623 C 9.200 341.268,8.956 340.623,8.657 340.189 C 8.358 339.755,7.893 338.680,7.622 337.800 C 7.352 336.920,6.877 335.633,6.566 334.940 C 6.254 334.246,6.000 333.292,6.000 332.820 C 6.000 332.347,5.728 331.435,5.396 330.792 C 5.064 330.150,4.625 328.584,4.421 327.312 C 4.216 326.041,3.825 324.131,3.550 323.070 C 3.129 321.441,3.141 321.082,3.626 320.776 C 4.260 320.374,394.404 320.251,395.900 320.652 " stroke="none" fill="#136e65" fill-rule="evenodd"></path></g></svg>