<?xml version="1.0" standalone="no"?><!DOCTYPE svg PUBLIC "-//W3C//DTD SVG 1.1//EN" "http://www.w3.org/Graphics/SVG/1.1/DTD/svg11.dtd"><svg t="1707723634895" class="icon" viewBox="0 0 1026 1024" version="1.1" xmlns="http://www.w3.org/2000/svg" p-id="67987" xmlns:xlink="http://www.w3.org/1999/xlink" width="48.09375" height="48"><path d="M1023.715663 2.843626H527.213566v43.507916c0 7.677867 2.559289 10.237157 10.237157 10.237156 33.270759 7.677867 56.304361 25.592892 69.100807 53.745073 15.355735 30.71147 0 63.982229-35.830048 71.660096-15.355735 2.559289-28.152181 5.118578-43.507916 0-2.559289 2.559289 0 7.677867 0 10.237157v220.098867c0 7.677867 2.559289 10.237157 7.677868 12.796446 28.152181 17.915024 48.626494 40.948627 53.745072 74.219386 2.559289 20.474313-2.559289 35.830048-12.796446 51.185783-10.237157 20.474313-25.592892 38.389337-43.507915 56.304361-5.118578 2.559289-5.118578 7.677867-5.118579 12.796446v143.320193c0 5.118578 2.559289 7.677867 5.118579 12.796446 7.677867 7.677867 7.677867 17.915024-2.559289 25.592891-2.559289 2.559289-2.559289 5.118578-2.55929 7.677868v38.389337c0 5.118578 2.559289 7.677867 7.677868 7.677868 15.355735 0 23.033602 7.677867 25.592891 23.033602 2.559289 10.237157-2.559289 15.355735-12.796445 15.355735h-12.796446c-2.559289 0-7.677867-2.559289-10.237157 2.559289 0 5.118578-2.559289 10.237157 5.118579 12.796446 12.796446 10.237157 23.033602 20.474313 20.474313 38.389337-2.559289 12.796446-7.677867 17.915024-20.474313 20.474314-5.118578 0-2.559289 2.559289-2.55929 5.118578v46.067205h488.82423c7.677867 0 10.237157-2.559289 10.237156-10.237157C1023.715663 678.495964 1023.715663 340.669795 1023.715663 2.843626z m-179.150241 191.946687h20.474313c7.677867 0 17.915024-2.559289 23.033603 2.559289 5.118578 5.118578 2.559289 15.355735 2.559289 23.033603 5.118578 53.745072 23.033602 102.371566 53.745072 143.320192 5.118578 7.677867 5.118578 15.355735 5.118578 23.033603 0 5.118578 2.559289 15.355735 0 17.915024-5.118578 2.559289-10.237157-5.118578-15.355735-7.677868-53.745072-38.389337-81.897253-92.13441-92.134409-156.116638-2.559289-12.796446-2.559289-25.592892-2.559289-38.389338-2.559289-7.677867-2.559289-7.677867 5.118578-7.677867z m69.100807 363.41906c-2.559289 12.796446-5.118578 25.592892-10.237156 35.830049-2.559289 5.118578-2.559289 5.118578-7.677868 5.118578h-35.830048c-5.118578 0-7.677867-2.559289-5.118578-7.677868 2.559289-10.237157 5.118578-23.033602 7.677867-35.830048 0-5.118578 2.559289-7.677867 7.677868-7.677867h40.948626c2.559289 2.559289 5.118578 5.118578 2.559289 10.237156z m-186.828108-127.964458c12.796446-2.559289 15.355735-7.677867 15.355735-20.474313V107.774482c0-12.796446 0-12.796446 12.796445-12.796446h30.71147c7.677867 0 10.237157 2.559289 10.237157 10.237156v312.233278c0 7.677867 0 12.796446-2.559289 20.474313-5.118578 20.474313-17.915024 30.71147-35.830048 30.71147h-63.982229c-5.118578 0-7.677867-2.559289-7.677868-7.677868 0-25.592892 0-25.592892 25.592892-25.592891 5.118578-2.559289 10.237157-2.559289 15.355735-5.118579z m53.745072 168.913085h-30.71147c-7.677867 0-12.796446-2.559289-15.355735-7.677868-5.118578-10.237157-10.237157-23.033602-12.796446-33.270759 0-5.118578 0-7.677867 5.118579-5.118578h23.033602c7.677867 0 17.915024-2.559289 25.592892 0 5.118578 2.559289 2.559289 15.355735 5.118578 23.033602 2.559289 5.118578 2.559289 12.796446 5.118578 17.915025 2.559289 5.118578 0 7.677867-5.118578 5.118578z m-202.183843-191.946687v-33.270759c0-2.559289 0-5.118578 2.559289-5.118578 40.948627-46.067205 53.745072-102.371566 56.304361-163.794506 0-7.677867 2.559289-10.237157 10.237157-10.237157h35.830048c5.118578 0 7.677867 0 7.677868 7.677867-2.559289 79.337964-28.152181 145.879482-92.13441 194.505976-7.677867 2.559289-12.796446 5.118578-20.474313 10.237157z m2.559289 166.353795c7.677867-5.118578 12.796446-7.677867 17.915024-12.796445 2.559289 0 2.559289-2.559289 2.559289-2.55929 2.559289 0 5.118578 2.559289 5.118578 2.55929 23.033602 17.915024 35.830048 43.507916 48.626494 66.541518 2.559289 2.559289 0 5.118578-2.559289 5.118578-10.237157 5.118578-23.033602 10.237157-33.270759 15.355735-5.118578 2.559289-5.118578 0-7.677867-2.559289-10.237157-20.474313-23.033602-43.507916-35.830049-61.42294 0-5.118578 0-7.677867 5.118579-10.237157zM621.907265 896.035542c-7.677867 2.559289-10.237157 0-10.237156-7.677867v-92.13441-89.575121c0-7.677867-2.559289-10.237157-10.237157-10.237156h-20.474313c-5.118578 0-5.118578-2.559289-5.118579-5.118578v-25.592892c0-7.677867 2.559289-7.677867 7.677868-7.677868h58.863651c12.796446 0 17.915024 5.118578 17.915024 17.915025v140.760903c0 10.237157 2.559289 10.237157 10.237156 5.118579 7.677867-5.118578 17.915024-7.677867 25.592892-12.796446 2.559289-2.559289 5.118578-2.559289 5.118578 2.559289V844.849759c0 2.559289-2.559289 5.118578-5.118578 7.677867-20.474313 20.474313-46.067205 33.270759-74.219386 43.507916z m335.26688-12.796446c0 17.915024-10.237157 33.270759-30.71147 35.830049-23.033602 2.559289-48.626494 5.118578-71.660096 0-20.474313-5.118578-28.152181-15.355735-28.152181-38.389338v-89.57512c0-7.677867-2.559289-10.237157-10.237157-10.237157-20.474313 0-20.474313 0-23.033602 20.474313-2.559289 61.42294-40.948627 110.049434-102.371566 122.84588-12.796446 2.559289-12.796446 2.559289-12.796446-10.237157v-2.559289c-2.559289-10.237157 2.559289-15.355735 10.237156-20.474313 38.389337-23.033602 56.304361-58.863651 53.745073-102.371566 0-5.118578 0-7.677867-5.118579-5.118579h-5.118578c-25.592892 0-25.592892 0-25.592892-25.592891v-130.523747c0-7.677867 2.559289-10.237157 10.237157-10.237157h199.624554c7.677867 0 7.677867 2.559289 7.677868 7.677867v107.490145c0 28.152181-15.355735 43.507916-40.948627 48.626494-7.677867 0-7.677867 2.559289-7.677867 10.237157v74.219385c0 10.237157 2.559289 15.355735 10.237156 20.474313 10.237157 5.118578 17.915024 5.118578 28.152181 0 7.677867-2.559289 7.677867-10.237157 5.118579-17.915024 0-7.677867 2.559289-10.237157 7.677867-7.677867h5.118578c25.592892 0 25.592892 0 25.592892 23.033602z" fill="#00C98A" p-id="67988"></path><path d="M435.079157 934.424879c-7.677867 2.559289-15.355735 5.118578-20.474313-2.559289-2.559289-2.559289-2.559289 0-5.118579 0-5.118578 5.118578-5.118578 23.033602 0 28.152181 7.677867 7.677867 12.796446 0 20.474313-2.559289 15.355735-7.677867 23.033602-23.033602 38.389338-33.270759-7.677867 0-10.237157 2.559289-15.355735 5.118578-7.677867 2.559289-12.796446 5.118578-17.915024 5.118578z" fill="#333333" p-id="67989"></path><path d="M301.996121 775.748952c2.559289-5.118578 5.118578-12.796446 7.677867-17.915024 10.237157-28.152181 10.237157-56.304361 10.237157-87.015832v-23.033602c28.152181 35.830048 63.982229 35.830048 102.371566 23.033602 25.592892-7.677867 48.626494-23.033602 69.100807-38.389337 33.270759-25.592892 61.42294-53.745072 79.337964-92.13441 12.796446-25.592892 7.677867-46.067205-5.118578-69.100807-15.355735-23.033602-35.830048-38.389337-58.863651-48.626494-56.304361-25.592892-115.168012-30.71147-174.031663-7.677867-2.559289-23.033602 2.559289-46.067205 15.355735-63.982229 12.796446-20.474313 30.71147-35.830048 48.626494-51.185784 15.355735-12.796446 30.71147-23.033602 43.507916-38.389337 10.237157-12.796446 12.796446-28.152181 2.559289-43.507916-15.355735-25.592892-38.389337-40.948627-66.541518-46.067204-10.237157-2.559289-20.474313-2.559289-30.71147 2.559289-7.677867 2.559289-7.677867 0-7.677867-5.118579 0-23.033602 2.559289-46.067205 5.118578-69.100807 2.559289-12.796446-5.118578-20.474313-15.355735-28.152181-2.559289-2.559289-7.677867-5.118578-10.237156-5.118578-17.915024-7.677867-35.830048-12.796446-53.745073-15.355735-15.355735-2.559289-28.152181 0-38.389337 15.355735-2.559289 5.118578-7.677867 15.355735-10.237157 23.033603-7.677867 33.270759-10.237157 66.541518-7.677867 99.812277 0 20.474313-2.559289 35.830048-23.033603 43.507915-2.559289 0-5.118578 2.559289-7.677867 2.55929-38.389337 28.152181-76.778675 53.745072-130.523747 51.185783 20.474313 38.389337 46.067205 71.660096 89.57512 87.015831 28.152181 10.237157 56.304361 7.677867 79.337964-17.915024 5.118578-5.118578 10.237157-10.237157 15.355735-12.796446 2.559289-2.559289 5.118578-5.118578 10.237157-2.559289-12.796446 17.915024-25.592892 35.830048-40.948627 53.745072-51.185783 63.982229-107.490145 120.28659-184.268819 156.116639-5.118578 2.559289-5.118578 5.118578-5.118578 10.237157 0 28.152181 10.237157 53.745072 17.915024 79.337963 7.677867 28.152181 28.152181 33.270759 51.185783 17.915024 15.355735-10.237157 25.592892-23.033602 38.389337-35.830048 35.830048-35.830048 79.337964-61.42294 125.405169-81.897253 7.677867-2.559289 7.677867 0 7.677867 5.118579 2.559289 20.474313 0 38.389337 0 58.86365-2.559289 33.270759-10.237157 66.541518-12.796445 102.371566-2.559289 28.152181 2.559289 53.745072 20.474313 74.219386 15.355735 15.355735 33.270759 15.355735 43.507916-5.118578z m17.915024-202.183844V563.327952c0-20.474313 2.559289-40.948627 7.677867-58.863651 0-5.118578 2.559289-7.677867 7.677868-10.237157 30.71147-7.677867 58.863651-17.915024 92.134409-20.474313 12.796446-2.559289 25.592892-2.559289 38.389338 0 2.559289 0 7.677867 0 5.118578 7.677868-10.237157 40.948627-28.152181 76.778675-61.42294 99.812277-23.033602 17.915024-48.626494 17.915024-74.219385 7.677867-12.796446 0-17.915024-5.118578-15.355735-15.355735zM248.251048 187.112446c-2.559289 7.677867-5.118578 12.796446-10.237156 17.915024-5.118578 2.559289-7.677867 2.559289-7.677868-2.55929 0-28.152181-2.559289-58.863651 2.559289-87.015831 2.559289-7.677867 5.118578-12.796446 10.237157-20.474313 10.237157 30.71147 12.796446 61.42294 5.118578 92.13441zM394.13053 151.282397c2.559289 2.559289 5.118578 0 7.677868-2.559289 7.677867-2.559289 15.355735-10.237157 20.474313-17.915024 12.796446-12.796446 28.152181-15.355735 46.067205-10.237157 7.677867 2.559289 15.355735 5.118578 20.474313 10.237157 15.355735 10.237157 25.592892 23.033602 38.389337 35.830048 2.559289 2.559289 5.118578 5.118578 10.237157 5.118579 10.237157 0 23.033602 0 33.270759-5.118579 17.915024-7.677867 25.592892-15.355735 25.592892-38.389337 0-5.118578 2.559289-12.796446-2.559289-20.474313-10.237157-17.915024-20.474313-30.71147-38.389338-38.389338-35.830048-17.915024-71.660096-12.796446-107.490144 5.118579-25.592892 12.796446-46.067205 33.270759-56.304362 63.982229 2.559289 7.677867 0 10.237157 2.559289 12.796445zM540.010012 944.662036c0-7.677867-5.118578-12.796446-10.237156-17.915024-7.677867-5.118578-15.355735-10.237157-23.033603-12.796446-2.559289 0-5.118578 0-5.118578-5.118578 0-10.237157 5.118578-23.033602 15.355735-20.474313h25.592891c2.559289 0 7.677867 2.559289 7.677868-2.55929 2.559289-2.559289 0-7.677867-2.559289-10.237156-2.559289-5.118578-7.677867-5.118578-15.355735-5.118578s-17.915024 2.559289-25.592892 5.118578c-5.118578 0-5.118578 0-5.118578-5.118578 0-20.474313 0-40.948627 2.559289-61.42294 0-10.237157 5.118578-15.355735 15.355735-12.796446 2.559289 0 7.677867 2.559289 7.677867-2.559289s0-7.677867-5.118578-10.237157c-5.118578-2.559289-12.796446-2.559289-17.915024-2.559289-5.118578 0-15.355735 0-15.355735-7.677867 0-5.118578 7.677867-7.677867 12.796446-12.796446s12.796446-7.677867 15.355735-15.355735c2.559289-5.118578 0-10.237157-5.118579-10.237157-7.677867-2.559289-15.355735-2.559289-23.033602 0-12.796446 7.677867-20.474313 2.559289-28.152181-7.677867-2.559289-2.559289-5.118578-5.118578-7.677867-5.118579-5.118578-2.559289-10.237157-5.118578-15.355735 0 7.677867 10.237157 7.677867 10.237157 2.559289 20.474314-5.118578 7.677867-7.677867 12.796446-7.677867 23.033602 0 15.355735 5.118578 17.915024 17.915024 12.796446 5.118578-2.559289 10.237157-10.237157 15.355735-2.559289 2.559289 5.118578-5.118578 10.237157-10.237157 12.796446-5.118578 5.118578-12.796446 10.237157-17.915024 17.915024 5.118578-2.559289 7.677867-5.118578 10.237157-5.118579 2.559289 0 2.559289 2.559289 2.559289 5.118579 0 5.118578-5.118578 7.677867-7.677868 7.677867-2.559289 0-7.677867 0-10.237156 2.559289-10.237157 0-12.796446 2.559289-10.237157 15.355735 2.559289 7.677867 7.677867 7.677867 12.796446 5.118579 2.559289 0 2.559289 0 5.118578-2.55929 5.118578-2.559289 10.237157 0 10.237157 7.677868 0 10.237157-2.559289 17.915024 0 25.592891 5.118578 17.915024-2.559289 25.592892-17.915024 30.71147-7.677867 5.118578-15.355735 10.237157-25.592892 10.237157-7.677867 0-7.677867-2.559289-5.118578-10.237157l15.355735-38.389337c2.559289-10.237157 0-15.355735-7.677868-20.474313-5.118578-2.559289-10.237157-7.677867-15.355735-10.237157-10.237157-7.677867-10.237157-12.796446 2.559289-17.915024 7.677867-2.559289 15.355735-5.118578 25.592892-10.237157-12.796446-10.237157-25.592892-12.796446-38.389337-7.677867-15.355735 5.118578-25.592892 12.796446-40.948627 20.474313-20.474313 10.237157-38.389337 23.033602-63.982229 12.796446 7.677867 28.152181 20.474313 35.830048 46.067205 23.033602 7.677867-5.118578 12.796446-10.237157 20.474313-12.796445 7.677867-5.118578 15.355735-12.796446 25.592892-15.355735-2.559289 5.118578-5.118578 10.237157-2.559289 12.796445 2.559289 7.677867 0 15.355735-5.118579 20.474314-10.237157 12.796446-20.474313 25.592892-30.71147 35.830048-5.118578 7.677867-10.237157 15.355735-7.677867 28.152181 5.118578-5.118578 7.677867-7.677867 12.796446-10.237157 2.559289-2.559289 7.677867-5.118578 7.677867 2.559289 0 10.237157 2.559289 17.915024 7.677868 25.592892 5.118578 15.355735 12.796446 17.915024 25.592891 5.118578l7.677868-7.677868c5.118578-5.118578 7.677867-10.237157 12.796446-17.915024 2.559289-5.118578 5.118578-5.118578 10.237156 0 7.677867 7.677867 15.355735 7.677867 25.592892 2.55929 7.677867-2.559289 12.796446-7.677867 20.474313-10.237157 10.237157-5.118578 20.474313-10.237157 33.270759-12.796446 5.118578 0 7.677867 0 10.237157 7.677868 0 12.796446 5.118578 15.355735 17.915024 15.355735 5.118578 0 7.677867 0 10.237156 2.559289 5.118578 2.559289 5.118578 7.677867 5.118579 15.355735-2.559289 5.118578-5.118578 2.559289-10.237157 2.559289h-12.796446c-2.559289 0-2.559289 0-5.118578 2.559289 0 2.559289 0 2.559289 2.559289 2.559289l30.71147 15.355735c-2.559289 5.118578 5.118578 0 2.559289-15.355735z m-179.150241-23.033602c-2.559289 2.559289-5.118578 2.559289-7.677867 2.559289-5.118578-2.559289-12.796446-2.559289-12.796446-10.237157-2.559289-20.474313 25.592892-51.185783 46.067205-53.745072 0 23.033602-10.237157 43.507916-25.592892 61.42294z m97.252988-127.964458c2.559289-5.118578 7.677867-10.237157 15.355735-12.796446 5.118578 0 7.677867 2.559289 10.237157 7.677868 0 0 0 2.559289-2.559289 2.559289-7.677867-2.559289-12.796446 5.118578-17.915025 7.677867-2.559289 0-5.118578 2.559289-7.677867 0-2.559289 0 0-2.559289 2.559289-5.118578z m-7.677867 53.745072c0-7.677867 2.559289-12.796446 10.237156-12.796446 2.559289 0 5.118578 0 5.118579 2.55929s-10.237157 17.915024-12.796446 17.915024c-2.559289 0-2.559289-2.559289-2.559289-7.677868z m20.474313 17.915024c-2.559289 7.677867-10.237157 7.677867-12.796446 17.915024-5.118578-17.915024-5.118578-20.474313 12.796446-17.915024z m7.677867 17.915024c-10.237157 5.118578-12.796446 5.118578-23.033602 2.559289 7.677867-7.677867 20.474313-10.237157 25.592892-23.033602 7.677867 12.796446 7.677867 17.915024-2.55929 20.474313z m7.677868-43.507915v15.355735c-7.677867-5.118578-12.796446-10.237157-5.118578-17.915024 0 0 2.559289-5.118578 5.118578-2.55929v5.118579z m5.118578-28.152181v10.237157c0 5.118578-2.559289 7.677867-7.677867 5.118578-7.677867-5.118578-15.355735-2.559289-28.152181-5.118578 10.237157-10.237157 17.915024-15.355735 30.71147-15.355735 2.559289 0 5.118578 0 5.118578 5.118578z" fill="#323232" p-id="67990"></path><path d="M365.97835 778.308241c-7.677867 2.559289-12.796446 5.118578-17.915025 10.237157-5.118578 2.559289-12.796446 5.118578-15.355735 10.237156h7.677868l53.745072-15.355735c10.237157-2.559289 12.796446-5.118578 10.237157-15.355735-2.559289-7.677867-7.677867-12.796446-12.796446-15.355735-7.677867-2.559289-17.915024-5.118578-28.152181-2.559289 5.118578 5.118578 7.677867 7.677867 10.237157 12.796446 2.559289 7.677867 2.559289 12.796446-7.677867 15.355735z" fill="#333333" p-id="67991"></path><path d="M865.039735 658.02165H767.786747c-7.677867 0-10.237157 0-10.237156 7.677868v69.100807c0 7.677867 2.559289 7.677867 7.677867 7.677868h87.015831c12.796446 0 20.474313-5.118578 20.474314-20.474314v-58.86365c0-2.559289 0-5.118578-7.677868-5.118579z" fill="#00C98B" p-id="67992"></path><path d="M575.84006 555.650084c7.677867-15.355735 15.355735-33.270759 12.796446-51.185783-5.118578-33.270759-25.592892-56.304361-53.745072-74.219386-5.118578-2.559289-7.677867-7.677867-7.677868-12.796445V197.349602v-10.237156c15.355735 2.559289 28.152181 2.559289 43.507916 0 33.270759-7.677867 48.626494-40.948627 35.830048-71.660097-12.796446-30.71147-38.389337-48.626494-69.100807-53.745072-7.677867-2.559289-10.237157-2.559289-10.237157-10.237157V7.962204H1023.715663c-2.559289-10.237157-5.118578-7.677867-7.677867-7.677867H7.677867C2.559289 0.284337 0 2.843626 0 7.962204v1008.359929c0 7.677867 2.559289 7.677867 7.677867 7.677867h516.97641v-46.067205c0-2.559289-2.559289-5.118578 2.559289-5.118578 15.355735-2.559289 17.915024-5.118578 20.474314-20.474313 2.559289-17.915024-5.118578-30.71147-20.474314-38.389338-5.118578-2.559289-5.118578-7.677867-5.118578-12.796446s5.118578-2.559289 10.237157-2.559289h12.796446c10.237157 0 12.796446-5.118578 12.796445-15.355735-2.559289-15.355735-10.237157-23.033602-25.592891-23.033602-5.118578 0-7.677867-2.559289-7.677868-7.677868v-38.389337c0-2.559289 0-5.118578 2.559289-7.677867 7.677867-7.677867 10.237157-17.915024 2.55929-25.592892-2.559289-2.559289-5.118578-7.677867-5.118579-12.796446v-143.320193c0-5.118578 2.559289-10.237157 5.118579-12.796445 20.474313-17.915024 33.270759-35.830048 46.067204-56.304362zM394.13053 141.045241c10.237157-28.152181 28.152181-48.626494 56.304362-63.982229 35.830048-17.915024 71.660096-23.033602 107.490144-5.118579 17.915024 7.677867 30.71147 23.033602 38.389338 38.389338 2.559289 7.677867 2.559289 15.355735 2.559289 20.474313 0 20.474313-7.677867 30.71147-25.592892 38.389337-10.237157 5.118578-23.033602 5.118578-33.270759 5.118579-5.118578 0-7.677867-2.559289-10.237156-5.118579-12.796446-12.796446-23.033602-25.592892-38.389338-35.830048-7.677867-5.118578-12.796446-7.677867-20.474313-10.237156-17.915024-5.118578-33.270759-2.559289-46.067205 10.237156-5.118578 5.118578-12.796446 12.796446-20.474313 17.915024-2.559289 0-5.118578 2.559289-7.677868 2.559289-5.118578-5.118578-2.559289-7.677867-2.559289-12.796445zM238.013892 706.648144c2.559289-33.270759 10.237157-66.541518 12.796445-102.371566 2.559289-20.474313 2.559289-38.389337 0-58.86365 0-7.677867-2.559289-7.677867-7.677867-5.118579-46.067205 20.474313-87.015831 46.067205-125.405169 81.897253-12.796446 12.796446-25.592892 25.592892-38.389337 35.830048-23.033602 17.915024-43.507916 12.796446-51.185783-17.915024-7.677867-25.592892-17.915024-51.185783-15.355735-79.337963 0-5.118578 0-7.677867 5.118578-10.237157 76.778675-33.270759 133.083036-89.575121 184.268819-156.116639 12.796446-17.915024 25.592892-35.830048 40.948627-53.745072-5.118578-2.559289-7.677867 0-10.237157 2.559289-5.118578 2.559289-10.237157 7.677867-15.355735 12.796446-23.033602 25.592892-48.626494 28.152181-79.337963 17.915024-43.507916-15.355735-66.541518-46.067205-89.575121-87.015831 51.185783 2.559289 92.13441-23.033602 130.523747-51.185783 0 0 2.559289-2.559289 5.118578-2.55929 20.474313-7.677867 23.033602-23.033602 23.033603-43.507915-2.559289-33.270759 0-66.541518 7.677867-99.812277 2.559289-10.237157 7.677867-17.915024 12.796446-28.152181 7.677867-15.355735 20.474313-20.474313 38.389337-15.355735 17.915024 5.118578 35.830048 7.677867 53.745073 15.355735 5.118578 2.559289 7.677867 5.118578 10.237156 5.118578 10.237157 5.118578 15.355735 15.355735 15.355735 28.152181-2.559289 23.033602-5.118578 46.067205-5.118578 69.100807 0 7.677867 2.559289 7.677867 7.677867 5.118578 10.237157-5.118578 20.474313-5.118578 30.71147-2.559289 28.152181 5.118578 51.185783 20.474313 66.541518 46.067205 7.677867 15.355735 7.677867 28.152181-2.559289 43.507916-12.796446 15.355735-28.152181 28.152181-43.507915 38.389337-17.915024 15.355735-35.830048 30.71147-48.626494 51.185783s-17.915024 40.948627-15.355735 63.982229c58.863651-23.033602 117.727301-17.915024 174.031662 7.677868 23.033602 10.237157 43.507916 25.592892 58.863651 48.626494 15.355735 23.033602 17.915024 43.507916 5.118578 69.100807-17.915024 38.389337-46.067205 66.541518-79.337964 92.13441-20.474313 15.355735-43.507916 30.71147-69.100807 38.389337-38.389337 12.796446-74.219386 12.796446-102.371566-23.033602v23.033602c0 28.152181 0 58.863651-10.237157 87.015831-2.559289 5.118578-5.118578 12.796446-7.677867 17.915024-10.237157 20.474313-25.592892 20.474313-40.948627 5.118579-23.033602-15.355735-25.592892-43.507916-25.592891-69.100808z m133.083036 56.304362c-2.559289-5.118578-7.677867-7.677867-10.237157-12.796446 10.237157-2.559289 20.474313 0 28.152181 2.559289 7.677867 2.559289 12.796446 7.677867 12.796446 15.355735 2.559289 10.237157 0 12.796446-10.237157 15.355735l-53.745072 15.355735c-2.559289 0-5.118578 2.559289-7.677868 0 2.559289-5.118578 10.237157-7.677867 15.355735-10.237156 5.118578-2.559289 12.796446-7.677867 17.915024-10.237157 12.796446-2.559289 12.796446-7.677867 7.677868-15.355735z m56.304361 194.505976c-5.118578 2.559289-12.796446 10.237157-20.474313 2.559289-5.118578-7.677867-5.118578-23.033602 0-28.152181 2.559289-2.559289 2.559289-2.559289 5.118578 0 5.118578 7.677867 12.796446 5.118578 20.474314 2.559289 5.118578 0 10.237157-2.559289 15.355735-5.118578 5.118578-2.559289 10.237157-5.118578 15.355734-5.118578-12.796446 12.796446-20.474313 28.152181-35.830048 33.270759z m63.982229-10.237157c-2.559289 0-2.559289-2.559289-2.559289-2.559289s2.559289-2.559289 5.118578-2.559289h12.796446c2.559289 0 7.677867 2.559289 10.237157-2.559289 0-5.118578 0-10.237157-5.118579-15.355735-2.559289-2.559289-7.677867-2.559289-10.237156-2.559289-12.796446 0-15.355735-2.559289-17.915024-15.355735 0-7.677867-2.559289-7.677867-10.237157-7.677868-12.796446 2.559289-23.033602 7.677867-33.270759 12.796446-7.677867 5.118578-12.796446 7.677867-20.474313 10.237157-10.237157 5.118578-17.915024 5.118578-25.592892-2.559289-5.118578-5.118578-7.677867-2.559289-10.237156 0-5.118578 5.118578-7.677867 10.237157-12.796446 17.915024l-7.677868 7.677867c-12.796446 12.796446-17.915024 10.237157-25.592891-5.118578-2.559289-7.677867-7.677867-17.915024-7.677868-25.592892 0-7.677867-5.118578-5.118578-7.677867-2.559289-5.118578 2.559289-7.677867 7.677867-12.796446 10.237157-2.559289-12.796446 2.559289-20.474313 7.677868-28.152181 10.237157-12.796446 20.474313-25.592892 30.711469-35.830048 5.118578-5.118578 10.237157-12.796446 5.118579-20.474313-2.559289-5.118578 2.559289-7.677867 2.559289-12.796446-10.237157 5.118578-17.915024 10.237157-25.592892 15.355735-7.677867 5.118578-12.796446 10.237157-20.474313 12.796445-23.033602 12.796446-38.389337 7.677867-46.067205-23.033602 25.592892 10.237157 43.507916 0 63.982229-12.796446 12.796446-7.677867 25.592892-15.355735 40.948627-20.474313 12.796446-5.118578 25.592892-2.559289 38.389337 7.677867-7.677867 2.559289-17.915024 5.118578-25.592892 10.237157-12.796446 5.118578-12.796446 10.237157-2.559289 17.915024 5.118578 2.559289 10.237157 7.677867 15.355735 10.237157 7.677867 5.118578 10.237157 10.237157 7.677868 20.474313-5.118578 12.796446-7.677867 25.592892-15.355735 38.389337-2.559289 7.677867 0 7.677867 5.118578 10.237157 10.237157 0 17.915024-5.118578 25.592892-10.237157 12.796446-7.677867 23.033602-15.355735 17.915024-30.711469-2.559289-7.677867 0-17.915024 0-25.592892 0-7.677867-2.559289-10.237157-10.237157-7.677867-2.559289 0-2.559289 2.559289-5.118578 2.559289-5.118578 0-12.796446 2.559289-12.796446-5.118579-2.559289-12.796446 0-15.355735 10.237157-15.355735 2.559289 0 7.677867 0 10.237156-2.559289 5.118578 0 7.677867-5.118578 7.677868-7.677867 0-2.559289 0-2.559289-2.559289-5.118579-5.118578-2.559289-5.118578 2.559289-10.237157 5.118579 5.118578-10.237157 12.796446-12.796446 17.915024-17.915024 5.118578-5.118578 12.796446-7.677867 10.237157-12.796446-5.118578-5.118578-10.237157 0-15.355735 2.559289-12.796446 5.118578-17.915024 2.559289-17.915024-12.796446 0-7.677867 5.118578-15.355735 7.677867-23.033602 5.118578-10.237157 5.118578-12.796446-2.559289-20.474313 5.118578-5.118578 10.237157-2.559289 15.355735 0 2.559289 2.559289 5.118578 2.559289 7.677867 5.118578 7.677867 10.237157 15.355735 15.355735 28.152181 7.677867 7.677867-5.118578 15.355735-2.559289 23.033603 0 7.677867 0 7.677867 5.118578 5.118578 10.237157-2.559289 7.677867-7.677867 12.796446-15.355735 15.355735-5.118578 2.559289-12.796446 5.118578-12.796446 12.796446 2.559289 7.677867 10.237157 5.118578 15.355735 7.677867 5.118578 0 12.796446 0 17.915024 2.559289 2.559289 2.559289 5.118578 5.118578 5.118578 10.237157s-5.118578 2.559289-7.677867 2.559289c-10.237157-2.559289-12.796446 2.559289-15.355735 12.796446-2.559289 20.474313 0 40.948627-2.559289 61.42294 0 5.118578 0 5.118578 5.118578 5.118578 7.677867-2.559289 15.355735-5.118578 25.592892-5.118578 5.118578 0 10.237157 0 12.796446 5.118578 2.559289 2.559289 5.118578 7.677867 2.559289 10.237157-2.559289 5.118578-5.118578 2.559289-7.677868 2.559289h-25.592891c-10.237157-2.559289-15.355735 10.237157-15.355735 20.474313 0 5.118578 2.559289 2.559289 5.118578 5.118578 7.677867 2.559289 17.915024 7.677867 23.033602 12.796446 5.118578 5.118578 10.237157 10.237157 10.237157 17.915024 2.559289 15.355735-5.118578 20.474313-20.474313 15.355735 10.237157-5.118578 0-12.796446-10.237157-15.355735z" fill="#E9E9E9" p-id="67993"></path><path d="M934.140542 860.205494h-5.118578c-7.677867 0-10.237157 2.559289-7.677867 7.677867 0 7.677867 0 12.796446-5.118579 17.915024-10.237157 5.118578-17.915024 5.118578-28.15218 0-7.677867-5.118578-10.237157-10.237157-10.237157-20.474313v-74.219385c0-5.118578 0-7.677867 7.677867-10.237157 25.592892-2.559289 40.948627-20.474313 40.948627-48.626494v-107.490145c0-7.677867-2.559289-7.677867-7.677867-7.677867h-199.624555c-7.677867 0-10.237157 2.559289-10.237156 10.237157v130.523747c0 25.592892 0 25.592892 25.592891 25.592891h5.118578c5.118578 0 5.118578 2.559289 5.118579 5.118579 0 43.507916-15.355735 81.897253-53.745072 102.371566-10.237157 5.118578-12.796446 10.237157-10.237157 20.474313v2.559289c0 12.796446 0 12.796446 12.796446 10.237157 61.42294-12.796446 99.812277-58.863651 102.371566-122.84588 0-20.474313 0-20.474313 23.033602-20.474313 7.677867 0 10.237157 2.559289 10.237157 10.237157v89.57512c0 20.474313 7.677867 33.270759 28.152181 38.389338 23.033602 5.118578 48.626494 5.118578 71.660096 0 17.915024-2.559289 28.152181-17.915024 30.71147-35.830049-2.559289-23.033602-2.559289-23.033602-25.592892-23.033602z m-61.422939-135.642325c0 12.796446-5.118578 17.915024-20.474314 20.474313h-87.015831c-7.677867 0-7.677867-2.559289-7.677867-7.677868v-69.100807c0-7.677867 2.559289-7.677867 10.237156-7.677867h97.252988c7.677867 0 7.677867 2.559289 7.677868 7.677867v56.304362zM788.26106 94.978036h-30.711469c-12.796446 0-12.796446 0-12.796446 12.796446V409.770602c0 12.796446-5.118578 17.915024-15.355735 20.474313H716.600964c-25.592892 0-25.592892 0-25.592891 25.592892 0 5.118578 2.559289 7.677867 7.677867 7.677868h63.982229c20.474313 0 33.270759-10.237157 35.830048-30.71147 2.559289-7.677867 2.559289-12.796446 2.559289-20.474314v-150.99806-161.235217c-5.118578-2.559289-5.118578-5.118578-12.796446-5.118578z" fill="#E9E9E9" p-id="67994"></path><path d="M706.363807 847.409048v-33.270759c0-5.118578-2.559289-5.118578-5.118578-2.559289-7.677867 5.118578-17.915024 7.677867-25.592891 12.796446-10.237157 2.559289-10.237157 2.559289-10.237157-7.677868v-140.760903c0-12.796446-5.118578-17.915024-17.915024-17.915025H588.636506c-5.118578 0-7.677867 0-7.677867 7.677868v25.592892c0 5.118578 0 5.118578 5.118578 5.118578h20.474313c7.677867 0 10.237157 2.559289 10.237157 10.237156v181.709531c0 7.677867 2.559289 10.237157 10.237157 7.677867 28.152181-10.237157 53.745072-23.033602 76.778674-40.948626 0-2.559289 2.559289-5.118578 2.559289-7.677868zM949.496277 404.652024c5.118578-2.559289 0-10.237157 0-17.915024 0-7.677867 0-15.355735-5.118578-23.033603-30.71147-43.507916-48.626494-92.13441-53.745072-143.320192 0-7.677867 2.559289-17.915024-2.559289-23.033603-5.118578-5.118578-15.355735 0-23.033603-2.559289H844.565422c-5.118578 0-7.677867 2.559289-7.677868 7.677867 0 12.796446 2.559289 25.592892 2.55929 38.389338 10.237157 63.982229 40.948627 117.727301 92.134409 156.116638 5.118578 2.559289 10.237157 10.237157 17.915024 7.677868zM596.314374 396.974156c66.541518-48.626494 92.13441-115.168012 92.134409-194.505976 0-5.118578-2.559289-7.677867-7.677867-7.677867h-35.830048c-7.677867 0-10.237157 2.559289-10.237157 10.237157-2.559289 58.863651-15.355735 115.168012-56.304361 163.794506-2.559289 2.559289-2.559289 2.559289-2.55929 5.118578v33.270759l20.474314-10.237157zM616.788687 645.225205c2.559289 2.559289 2.559289 5.118578 7.677867 2.559289 10.237157-5.118578 23.033602-10.237157 33.270759-15.355735 2.559289-2.559289 2.559289-2.559289 2.55929-5.118578-12.796446-25.592892-28.152181-48.626494-48.626494-66.541518-2.559289 0-2.559289-2.559289-5.118579-2.55929l-2.559289 2.55929c-5.118578 5.118578-12.796446 7.677867-17.915024 12.796445-5.118578 2.559289-5.118578 5.118578-2.559289 10.237157 7.677867 17.915024 20.474313 38.389337 33.270759 61.42294zM905.988362 550.531506h-40.948627c-5.118578 0-7.677867 0-7.677867 7.677867 0 12.796446-2.559289 23.033602-7.677868 35.830049-2.559289 5.118578 0 7.677867 5.118579 7.677867h35.830048c5.118578 0 7.677867-2.559289 7.677867-5.118578 5.118578-12.796446 7.677867-23.033602 10.237157-35.830048 7.677867-7.677867 5.118578-10.237157-2.559289-10.237157zM775.464615 553.090795c-5.118578-2.559289-15.355735 0-25.592892 0h-23.033602c-5.118578 0-5.118578 2.559289-5.118579 5.118578 2.559289 12.796446 7.677867 23.033602 12.796446 33.270759 2.559289 7.677867 7.677867 10.237157 15.355735 7.677868h30.71147c5.118578 0 7.677867 0 5.118578-7.677868-2.559289-5.118578-2.559289-12.796446-5.118578-17.915024-2.559289-5.118578 2.559289-17.915024-5.118578-20.474313zM330.148301 591.480132c25.592892 10.237157 51.185783 7.677867 74.219386-7.677867 33.270759-25.592892 51.185783-61.42294 61.42294-99.812277 2.559289-5.118578-2.559289-5.118578-5.118579-7.677868-12.796446-2.559289-25.592892-2.559289-38.389337 0-30.71147 2.559289-61.42294 12.796446-92.13441 20.474314-5.118578 2.559289-7.677867 5.118578-7.677867 10.237156-2.559289 17.915024-5.118578 38.389337-7.677868 58.863651v10.237156c2.559289 7.677867 7.677867 12.796446 15.355735 15.355735zM232.895313 115.452349c-5.118578 28.152181 0 58.863651-2.559289 87.015831 0 5.118578 2.559289 5.118578 7.677868 2.55929 7.677867-5.118578 10.237157-10.237157 12.796445-17.915024 5.118578-30.71147 2.559289-61.42294-7.677867-92.13441-5.118578 7.677867-7.677867 12.796446-10.237157 20.474313zM340.385458 913.950566c0 7.677867 7.677867 7.677867 12.796446 10.237157 2.559289 2.559289 5.118578 2.559289 7.677867-2.559289 15.355735-17.915024 25.592892-38.389337 25.592892-63.982229-20.474313 2.559289-48.626494 33.270759-46.067205 56.304361zM486.26494 806.460422c-10.237157 2.559289-20.474313 5.118578-30.71147 15.355735 10.237157 2.559289 20.474313 0 28.152181 5.118578 7.677867 5.118578 7.677867 0 7.677867-5.118578v-10.237157c0-5.118578-2.559289-5.118578-5.118578-5.118578zM463.231337 801.341843c5.118578-2.559289 10.237157-10.237157 17.915025-7.677867 0 0 0-2.559289 2.559289-2.559289 0-5.118578-5.118578-7.677867-10.237157-7.677868-7.677867 0-12.796446 5.118578-15.355735 12.796446 0 2.559289-2.559289 5.118578 0 5.118578 0 2.559289 2.559289 0 5.118578 0zM455.55347 888.357675c10.237157 0 12.796446 0 23.033602-2.55929s10.237157-7.677867 2.55929-17.915024c-2.559289 10.237157-15.355735 12.796446-25.592892 20.474314zM465.790627 839.731181c0-2.559289-2.559289-2.559289-5.118579-2.559289-7.677867 0-10.237157 5.118578-10.237156 12.796445 0 2.559289 0 5.118578 5.118578 7.677868 0-2.559289 10.237157-15.355735 10.237157-17.915024zM470.909205 865.324072c-17.915024-2.559289-17.915024 0-12.796446 17.915024 2.559289-10.237157 10.237157-10.237157 12.796446-17.915024zM486.26494 834.612602c-2.559289 0-2.559289 2.559289-5.118578 2.55929-7.677867 7.677867-2.559289 12.796446 5.118578 17.915024v-15.355735-5.118579z" fill="#E9E9E9" p-id="67995"></path></svg>