<?xml version="1.0" standalone="no"?><!DOCTYPE svg PUBLIC "-//W3C//DTD SVG 1.1//EN" "http://www.w3.org/Graphics/SVG/1.1/DTD/svg11.dtd"><svg t="1707726471906" class="icon" viewBox="0 0 1024 1024" version="1.1" xmlns="http://www.w3.org/2000/svg" p-id="17232" xmlns:xlink="http://www.w3.org/1999/xlink" width="48" height="48"><path d="M666.737778 0H357.262222C254.293333 0 203.093333 0 147.342222 17.635556 87.04 39.253333 39.253333 87.04 17.635556 147.342222 0 203.093333 0 254.293333 0 357.262222v310.044445c0 102.968889 0 154.168889 17.635556 209.351111 22.186667 60.302222 69.404444 108.088889 129.706666 129.706666 55.182222 17.635556 106.951111 17.635556 209.351111 17.635556h310.044445c102.968889 0 154.168889 0 209.351111-17.635556 60.302222-22.186667 108.088889-69.404444 129.706667-129.706666 17.635556-55.182222 17.635556-106.951111 17.635555-209.351111V357.262222c0-102.968889 0-154.168889-17.635555-209.351111-22.186667-60.302222-69.404444-108.088889-129.706667-130.275555C820.906667 0 769.706667 0 666.737778 0z" fill="#F2C81C" p-id="17233"></path><path d="M570.595556 342.471111c3.982222-3.413333 14.222222-17.066667 16.497777-21.617778 0.568889-1.137778 3.413333-5.12 3.413334-5.12 1.137778-6.826667-2.844444-13.653333-3.413334-18.204444 0 0 2.275556-3.413333 0-6.826667s-10.24 1.706667-14.791111 5.12c-1.706667 1.137778-1.706667 3.413333-3.413333 5.12-12.515556 8.533333-15.36 9.671111-28.444445 3.413334-1.706667-2.844444-3.413333-4.551111 0-10.24s21.617778-14.791111 33.564445-19.911112c0-3.982222 1.137778-11.377778 0-14.791111 0-0.568889-4.551111-2.844444-5.12-3.413333-21.048889-24.462222-11.946667-30.151111-11.946667-30.151111s12.515556-6.826667 19.911111-3.413333c7.395556 3.413333 15.36 42.666667 25.031111 18.204444 0.568889-2.275556 3.982222-8.533333 3.413334-11.946667-0.568889-2.275556-6.257778-5.12-6.826667-6.826666-0.568889-1.137778 0-6.826667 0-6.826667l1.706667-3.413333 6.826666-3.413334s6.826667-0.568889 10.24 1.706667c2.275556 1.137778 9.671111 18.204444 10.24 21.617778 0.568889 5.12-1.706667 14.222222-3.413333 18.204444-1.137778 1.706667-5.688889 3.982222-6.826667 6.826667-1.706667 3.982222 0 6.257778-1.706666 10.24-1.137778 2.275556-6.257778 3.982222-6.826667 6.826667-3.413333 15.36 10.24 35.271111 11.946667 48.355555 5.688889 46.648889-2.275556 102.4-30.151111 120.035556-0.568889 0-4.551111 0.568889-4.551111 1.137777l-10.24-2.844444c-1.706667-2.844444-5.12-4.551111-6.826667-6.826667-2.275556-2.844444-2.844444-6.826667-5.12-10.24-1.706667-2.275556-7.395556-4.551111-8.533333-6.826666-7.964444-17.635556 9.102222-17.066667 18.204444-11.946667 2.275556 1.137778 5.688889 6.257778 8.533333 6.826667 3.413333 0.568889 4.551111-2.275556 6.826667-3.413334 14.222222-7.395556 5.688889-14.791111 6.826667-28.444444 0-2.844444 4.551111-9.671111 5.12-11.946667 2.275556-11.946667-0.568889-23.324444-3.413334-31.857778-0.568889 0.568889-4.551111 1.137778-5.12 1.706667-2.275556 2.275556-1.706667 7.395556-3.413333 10.24-2.844444 4.551111-7.964444 7.964444-11.946667 11.946667-5.12 4.551111-10.808889 13.653333-18.204444 14.791111-2.844444 0.568889-10.24-1.706667-10.24-1.706667s-5.688889 1.706667-8.533333-6.826666 10.808889-10.24 23.324444-19.911112l7.395556-3.413333z" fill="" p-id="17234"></path><path d="M752.64 212.195556c14.222222-2.275556 21.048889 6.826667 16.497778 18.204444-6.257778 17.066667-37.546667 14.791111-58.595556 18.204444-2.844444 0.568889-10.24 4.551111-13.084444 5.12-9.102222 1.137778-15.36-1.706667-23.324445 1.706667-3.982222 1.706667-6.826667 3.982222-10.24 6.826667-2.844444 2.275556-6.257778 3.982222-8.533333 6.826666-2.275556 2.844444-1.706667 6.826667-1.706667 6.826667s1.706667 15.928889 3.413334 21.617778c1.137778 4.551111 7.395556 12.515556 8.533333 18.204444 4.551111 28.444444-10.808889 113.208889-21.617778 123.448889-9.671111 9.102222-15.36 8.533333-19.911111 5.12-4.551111-3.413333-3.413333-2.844444-5.12-6.826666-1.706667-2.844444-2.275556-6.826667-1.706667-10.24 1.706667-3.413333 0-5.688889 1.706667-8.533334 2.275556-4.551111 9.102222-7.395556 11.946667-11.946666 0.568889-1.137778-0.568889-3.982222 0-5.12 1.137778-4.551111 6.826667-11.377778 8.533333-16.497778 6.257778-24.462222 10.24-44.942222 8.533333-71.68-1.706667-21.617778-20.48-37.546667-13.084444-60.302222 0.568889-2.275556 4.551111-10.808889 6.826667-13.084445 9.102222-11.946667 42.666667-1.706667 62.008889-6.826667 1.137778-0.568889 5.12-4.551111 6.826666-5.12 6.257778-2.275556 10.24 0 16.497778-1.706666 7.964444-2.275556 14.791111-7.964444 21.617778-11.377778 1.137778 0 1.706667-2.275556 3.982222-2.844444z" fill="" p-id="17235"></path><path d="M756.053333 262.826667s5.688889 0 8.533334 1.706666c10.24 5.688889 0.568889 18.204444-1.706667 25.031111-1.706667 5.12-5.12 13.653333-6.826667 18.204445-0.568889 2.844444 0.568889 5.12 0 8.533333-0.568889 1.706667-2.275556 6.257778-5.12 6.826667-2.844444 0.568889-5.688889-1.706667-6.826666-3.413333-5.688889-9.102222-4.551111-39.253333 0-48.355556 2.275556-3.982222 11.946667-8.533333 11.946666-8.533333z m-50.062222 9.671111s5.688889 1.137778 6.826667 3.413333c1.706667 3.413333 1.137778 6.257778 1.706666 10.24 2.844444 14.791111 2.275556 35.84-1.706666 50.062222-1.706667 5.688889-7.395556 13.084444-8.533334 18.204445-0.568889 1.706667 0.568889 5.12 0 6.826666-2.275556 6.257778-9.102222 16.497778-10.24 23.324445-2.844444 15.928889 3.982222 30.151111 21.617778 25.031111 2.844444-0.568889 4.551111-5.12 6.826667-6.826667-2.275556-14.791111-12.515556-32.995556 6.826667-23.324444 14.222222 6.826667 17.066667 22.755556 19.911111 41.528889-1.137778 2.275556-2.275556 4.551111-6.826667 5.12-3.982222 0.568889-5.12-0.568889-6.826667-1.706667-1.137778-1.137778-1.137778-1.137778-3.413333-5.12-2.275556-3.982222-4.551111-2.844444-5.12 0-1.137778 0.568889-1.706667 5.12-1.706667 5.12s-13.653333 13.084444-40.391111 3.413333c-9.671111-6.257778-13.653333-31.288889-8.533333-46.648888 1.137778-3.982222 6.826667-9.102222 8.533333-13.084445 3.413333-8.533333 3.413333-16.497778 6.826667-25.031111 1.137778-2.844444 6.257778-7.964444 6.826667-11.946667 2.844444-16.497778-6.826667-24.462222-8.533334-36.977777-1.137778-9.671111 0-14.791111 5.12-18.204445 2.275556-1.706667 2.275556-1.706667 6.826667-3.413333h3.982222z m43.804445 55.182222c0 0.568889 4.551111 1.137778 5.12 1.706667 6.257778 5.688889 5.688889 26.168889 8.533333 36.977777 5.12 19.342222 17.066667 40.391111 30.151111 51.768889 2.275556 1.706667 3.982222 5.688889 6.826667 6.826667 8.533333 2.844444 16.497778 1.137778 19.911111 10.24 6.826667 18.773333-20.48 18.204444-31.857778 11.377778-5.12-2.844444-19.342222-17.066667-21.617778-21.617778-4.551111-8.533333-5.12-17.066667-8.533333-26.737778-2.275556-5.688889-8.533333-13.084444-10.24-18.204444-2.844444-9.671111-4.551111-42.666667-1.706667-50.062222l3.413334-2.275556zM340.195556 223.573333c5.12-0.568889 5.688889 1.706667 8.533333 3.413334 18.773333 11.377778-17.066667 28.444444-25.031111 28.444444-3.413333 0-6.826667-1.706667-8.533334-3.413333-5.12-6.257778 0.568889-8.533333 4.551112-12.515556l2.275555-2.844444c1.137778-3.413333 13.653333-13.084444 18.204445-13.084445z" fill="" p-id="17236"></path><path d="M372.053333 201.386667c2.275556-1.137778 11.377778-3.413333 14.791111 3.413333 3.413333 6.257778-1.706667 47.217778-1.706666 73.386667 0 5.12-1.706667 13.653333 0 18.204444 0 1.137778 9.102222 9.671111 10.24 10.24 6.826667 1.706667 32.995556-1.706667 35.271111-5.12 2.275556-4.551111 0.568889-9.102222 1.706667-14.791111-14.791111 0-30.72-5.688889-31.857778-6.826667-1.137778-1.137778-3.413333-2.844444 0-6.826666s21.048889-5.688889 33.564444-5.12c-0.568889-9.671111 2.275556-21.048889-3.413333-21.617778-5.688889-0.568889-24.462222-3.413333-26.737778-5.12-2.844444-2.275556-3.982222-6.257778-3.413333-10.24 1.137778-4.551111 3.413333-4.551111 5.12-5.12 9.102222-2.844444 20.48 1.137778 25.031111 3.413333 20.48 9.102222 25.6 16.497778 23.324444 43.235556-2.275556 29.013333 4.551111 36.977778-16.497777 48.355555-6.826667 3.413333-7.395556 5.688889-19.911112 5.12-5.12-0.568889-19.342222-4.551111-26.737777-1.706666-0.568889 0-2.275556 5.12-5.688889 5.688889-1.706667 2.275556-0.568889 1.706667-1.137778 2.844444-0.568889 0.568889 0 3.413333 0 3.413333 5.688889 1.706667 9.671111 1.137778 14.791111 3.413334l19.911111 11.946666c5.688889 7.395556 6.257778 26.737778 1.706667 35.271111-2.844444 4.551111-10.24 7.395556-13.653333 11.946667-1.137778 1.706667-0.568889 5.12-1.706667 6.826667 2.275556 1.706667 1.137778 3.413333 3.413333 5.12 2.844444 2.275556 6.257778 0 10.24 1.706666 4.551111 1.706667 11.377778 5.688889 16.497778 8.533334v1.706666c4.551111 1.137778 9.102222-1.137778 13.653333 0 1.137778 0 6.257778 4.551111 8.533334 5.12 10.24 2.844444 16.497778-0.568889 19.911111 8.533334 2.844444 7.395556 1.137778 18.773333-5.12 21.617778-18.204444 7.964444-41.528889-10.808889-51.768889-16.497778-4.551111-2.844444-9.102222-2.275556-13.653333-5.12-7.395556-4.551111-14.791111-14.791111-31.857778-10.24-2.844444 0.568889-8.533333 8.533333-11.946667 10.24-3.982222 2.275556-6.826667 1.137778-11.946667 3.413333-10.808889 4.551111-27.306667 20.48-48.355555 13.084445-0.568889 0-2.844444-4.551111-3.413333-5.12-5.688889-7.395556-3.982222-7.964444-1.706667-16.497778 6.826667 0 15.928889-1.137778 19.911111-1.706667 16.497778-2.275556 32.995556-6.826667 38.684444-13.084444 5.688889-6.257778-3.413333-15.928889-11.377777-26.737778-1.706667-2.275556-1.137778-5.12-3.413334-6.826667-5.688889-4.551111-12.515556-5.688889-18.204444-10.24-1.137778-1.137778-1.137778-1.706667-2.275556-1.706666-6.826667-1.137778-3.982222-13.084444 9.102223-12.515556 7.964444 0.568889 46.648889 33.564444 48.355555 35.271111 1.706667 1.137778 5.688889 1.137778 8.533333 0 1.706667-0.568889 3.413333-3.413333 4.551112-4.551111 2.844444-2.844444 7.395556-6.826667 9.102222-10.808889 1.706667-4.551111 0-13.653333 0-13.653333-1.706667-1.137778-3.982222-7.395556-8.533334-8.533334-8.533333-2.275556-26.737778 2.844444-30.151111 0-3.413333-2.844444-0.568889-11.377778 1.706667-14.791111l11.946667-5.12c-0.568889-0.568889-0.568889-1.706667-2.275556-4.551111-1.706667-2.844444-1.137778-2.844444-2.844444-3.982222-11.377778-8.533333-31.288889 2.275556-44.942223-3.413333-16.497778-6.257778-13.084444-11.946667-13.084444-33.564445 0 0-0.568889-9.102222 0-10.24 0.568889-1.137778-1.706667-16.497778 3.413333-21.617778 5.12-5.12 11.377778-2.844444 16.497778 13.653334 9.671111 0 23.324444 1.137778 26.737778 1.706666 3.413333 0.568889 4.551111 5.688889 1.706667 8.533334s-8.533333 4.551111-16.497778 6.826666c-2.275556 0.568889-7.395556 1.706667-11.377778 1.706667-1.137778 11.377778 0 17.066667 3.413333 18.204445 3.413333 1.137778 30.72-1.137778 33.564445-11.946667 2.844444-10.24 0.568889-26.737778 0-36.977778-1.137778-10.808889-5.688889-49.493333-1.706667-56.888889-0.568889 0 1.137778-1.137778 3.982222-2.275555zM261.688889 219.022222c4.551111-1.137778 5.688889-2.275556 11.946667 2.844445s3.982222 32.426667 3.413333 43.235555c1.706667 1.137778 3.982222 4.551111 5.12 5.12 3.982222 1.137778 9.102222-1.137778 13.653333 0 3.413333 1.137778 6.257778 3.413333 8.533334 6.826667 1.137778 2.844444 1.706667 6.257778 0 8.533333-2.275556 2.275556-5.12 3.982222-8.533334 5.12-13.653333 2.844444-19.911111 0-23.324444 11.946667-2.275556 6.257778-2.844444 16.497778 0 21.617778 0.568889 1.137778 1.137778 2.275556 5.12 3.413333 3.982222 1.137778 10.808889-2.275556 11.946666-1.706667 1.137778 0.568889 3.413333 3.413333 3.413334 3.413334s0.568889 7.964444-1.706667 11.377777c-3.413333 5.12-13.084444 3.982222-14.791111 11.946667-1.137778 5.12 1.706667 13.084444 1.706667 14.791111 0.568889 5.688889-0.568889 16.497778 0 17.635556 0.568889 6.826667 0 2.275556 0 2.275555 2.844444 12.515556-0.568889 47.786667-5.12 53.475556 0 0-3.982222 5.12-4.551111 5.688889l-3.413334 2.275555c-6.257778 1.706667-16.497778 5.688889-26.737778 3.413334-8.533333-1.706667-22.186667-18.204444-16.497777-33.564445 0-0.568889 3.413333-3.413333 3.413333-3.413333s4.551111-0.568889 6.826667 0c4.551111 1.137778 10.808889 13.653333 13.084444 14.791111 2.275556 0.568889 4.551111 0.568889 6.826667 0 11.946667-3.982222 6.826667-47.217778 8.533333-63.715556-1.706667-0.568889-3.982222-4.551111-5.12-5.12-19.911111-6.826667-27.306667 23.893333-48.355555 5.12-3.982222-3.413333-0.568889-7.964444 1.706666-11.946666 3.982222-6.826667 10.24-4.551111 19.342222-6.826667 1.137778-0.568889 6.257778-4.551111 7.395556-5.12 4.551111-2.275556 9.102222 0.568889 13.653333-1.706667 2.844444-1.706667 10.808889-13.653333 11.377778-16.497777 2.275556-12.515556-2.275556-36.408889-11.377778-38.684445-6.826667-1.706667-9.671111 2.844444-13.653333 3.413334-6.257778 1.137778-17.066667 3.982222-23.324444 1.706666-0.568889 0-3.413333-3.413333-3.413334-3.413333s-0.568889-9.671111 1.706667-13.084445l3.413333-2.844444c1.137778-0.568889 4.551111-1.706667 6.826667-2.275556 8.533333-1.706667 18.204444 1.706667 26.737778 0 2.844444-0.568889 7.395556-3.982222 10.24-5.12-1.137778-9.102222-3.982222-38.115556 1.706666-43.235555-1.137778-0.568889-2.844444-0.568889 2.275556-1.706667z" fill="" p-id="17237"></path><path d="M167.253333 608.711111c6.826667-1.137778 74.524444 128 316.302223-108.657778 141.653333-138.24 397.653333-48.355556 398.791111 134.257778 0.568889 63.715556-9.102222 71.111111-8.533334 70.542222-54.613333-32.426667-118.897778-61.44-236.657777 23.324445-244.622222 163.271111-418.133333 92.728889-482.986667-32.995556-40.391111-78.506667 13.084444-86.471111 13.084444-86.471111z" fill="#E60000" p-id="17238"></path><path d="M641.706667 659.911111c-41.528889-24.462222-82.488889-12.515556-84.195556-12.515555 19.911111-63.146667 87.04-84.195556 87.04-84.195556-36.408889-15.928889-116.053333-1.137778-116.053333-1.137778 23.893333-57.457778 92.728889-70.542222 92.728889-70.542222-60.302222-21.048889-117.76-5.688889-121.742223-5.688889 171.235556-130.275556 373.76-23.324444 384.568889 132.551111 5.688889 77.368889-14.791111 106.951111-13.653333 106.382222-91.591111-46.648889-172.373333-31.288889-286.72 35.84-0.568889-78.506667 58.026667-100.693333 58.026667-100.693333-0.568889-3.413333 0 0 0 0z" fill="" p-id="17239"></path></svg>