<?xml version="1.0" standalone="no"?><!DOCTYPE svg PUBLIC "-//W3C//DTD SVG 1.1//EN" "http://www.w3.org/Graphics/SVG/1.1/DTD/svg11.dtd"><svg t="1707723132377" class="icon" viewBox="0 0 1024 1024" version="1.1" xmlns="http://www.w3.org/2000/svg" p-id="62423" xmlns:xlink="http://www.w3.org/1999/xlink" width="48" height="48"><path d="M199.111111 0h625.777778c109.795556 0 199.111111 89.315556 199.111111 199.111111v625.777778c0 109.795556-89.315556 199.111111-199.111111 199.111111H199.111111c-109.795556 0-199.111111-89.315556-199.111111-199.111111V199.111111C0 89.315556 89.315556 0 199.111111 0z" fill="#EAEAEA" p-id="62424"></path><path d="M212.195556 550.115556c3.982222-2.844444 10.24-2.844444 14.791111-0.568889 6.826667 2.844444 11.377778 7.964444 15.928889 13.653333 6.257778 6.826667 11.946667 14.222222 13.653333 23.324444 0.568889 4.551111-1.706667 9.102222-3.982222 12.515556 10.24-1.706667 22.186667-1.706667 31.857777 3.413333 7.964444 4.551111 8.533333 15.36 6.257778 22.755556-6.826667 19.342222-15.928889 38.115556-26.168889 56.32-2.844444 5.688889-6.826667 10.24-9.102222 15.928889 9.671111 6.826667 18.773333 14.222222 27.306667 21.617778 5.12 4.551111 10.808889 9.102222 13.653333 15.36 1.706667 5.688889-1.706667 11.377778-5.12 15.928888-4.551111 5.12-10.808889 9.671111-18.204444 9.102223-2.844444-0.568889-5.688889-2.844444-7.964445-5.12-5.12-4.551111-10.24-9.102222-13.653333-15.36 0.568889 4.551111-1.137778 9.102222-0.568889 13.653333v94.435556c0.568889 5.12-3.413333 8.533333-6.826667 11.946666-4.551111 3.982222-10.808889 7.395556-16.497777 4.551111-5.12-2.844444-9.671111-6.257778-12.515556-11.377777-0.568889-27.875556 0-56.32-0.568889-84.195556 0-8.533333-0.568889-16.497778 0.568889-25.031111-2.275556 4.551111-7.395556 7.395556-11.377778 10.24-5.688889 3.982222-12.515556 6.826667-19.911111 5.688889-3.982222-1.137778-7.395556-3.982222-9.671111-7.395556-3.413333-4.551111-2.844444-10.808889-2.275556-16.497778 2.844444-9.102222 10.808889-14.791111 16.497778-21.617777 14.791111-15.928889 28.444444-32.426667 40.96-50.631111 3.413333-4.551111 6.257778-10.24 9.102222-15.36 2.275556-4.551111 5.12-9.102222 6.257778-14.222223-17.635556-1.706667-35.84 0-53.475555-1.137777-5.688889-0.568889-10.808889-3.413333-13.084445-8.533334-6.257778-10.808889 3.413333-26.168889 15.928889-25.6 10.24 0 19.911111-0.568889 30.151111 0-6.257778-5.12-11.377778-11.377778-14.791111-18.773333-2.275556-5.688889-7.395556-11.377778-6.826667-17.635556-0.568889-5.12 5.12-8.533333 9.671112-11.377777z m404.48 12.515555c0.568889-7.964444 7.964444-15.928889 16.497777-14.791111 7.964444-0.568889 17.066667 3.982222 18.773334 12.515556 0.568889 6.826667 0 13.653333 0.568889 19.911111h25.6c3.413333 0 6.826667 1.137778 9.671111 2.275555 0.568889-5.12-0.568889-11.377778 2.844444-15.36 3.413333-3.413333 7.964444-6.826667 12.515556-6.257778h141.084444c3.413333 0 7.395556 0 10.808889 0.568889 5.688889 2.275556 9.102222 7.964444 10.24 13.653334 0 5.12 1.137778 10.808889-1.706667 14.791111-2.844444 4.551111-8.533333 6.826667-13.653333 6.826666h-48.355556c-3.413333 0-6.257778 0.568889-9.671111 0.568889 0.568889 9.102222-1.137778 17.635556-4.551111 26.168889 14.791111-0.568889 29.013333 0 43.804445 0 7.964444-0.568889 15.928889 3.982222 19.342222 11.377778 2.275556 3.982222 1.706667 8.533333 1.706667 12.515556v125.724444c0.568889 10.808889-10.808889 18.773333-21.048889 17.066667-4.551111-0.568889-9.102222-1.706667-11.946667-5.688889-2.844444-3.413333-3.413333-7.395556-3.413333-11.946667v-109.226667c0-3.413333-2.844444-5.688889-6.257778-5.12h-65.422222c-2.844444 0-7.395556 0.568889-7.395556 3.982223V773.688889c0 10.24-11.377778 18.773333-21.617778 15.928889-4.551111-1.137778-9.102222-3.413333-11.377777-7.964445-2.844444-5.12-1.706667-11.377778-2.275556-17.066666v-71.111111c0-6.826667 0.568889-14.222222-0.568889-21.048889-1.137778-8.533333 1.137778-16.497778 0.568889-25.031111-0.568889-7.395556 2.275556-16.497778 9.671111-20.48 11.946667-6.826667 25.6-3.413333 38.684445-4.551112 1.706667-8.533333 2.275556-17.635556 3.982222-26.737777h-51.768889c-1.706667 0-3.413333-0.568889-5.12-1.706667 0 2.275556 0.568889 5.12 0.568889 7.395556-1.706667 6.257778-7.395556 11.946667-13.653334 12.515555-10.24 0.568889-20.48-0.568889-31.288888 0.568889 0.568889 10.808889 0 21.048889 0 31.857778 11.946667 0.568889 23.324444 0 35.271111 0.568889 4.551111 0 7.964444 3.413333 10.24 7.395555 2.275556 4.551111 1.706667 9.671111 1.706666 14.791111 0 3.982222-1.706667 8.533333-4.551111 11.377778-2.844444 2.275556-6.826667 2.844444-10.24 2.844445h-31.857778c0 24.462222 0.568889 49.493333 0 73.955555 1.137778-2.275556 0.568889-4.551111 1.706667-6.826667 3.413333-9.671111 5.688889-19.911111 8.533333-29.582222 1.706667-5.688889 2.844444-11.377778 6.257778-15.928889 3.413333-3.982222 9.671111-4.551111 14.791111-3.413333 6.826667 1.137778 11.377778 6.826667 14.222223 13.084444 0.568889 7.964444 1.137778 15.928889-1.137778 23.324445-6.826667 31.288889-19.911111 62.008889-42.666667 85.333333-19.342222 20.48-45.511111 32.995556-72.817778 38.684445-7.964444 1.706667-17.066667 1.137778-22.755555-3.982223-6.257778-6.257778-5.12-17.635556 1.137778-23.324444 5.12-5.12 13.084444-7.395556 19.911111-9.671111 14.222222-5.12 28.444444-10.24 40.96-19.342222 5.12-3.982222 10.808889-7.964444 14.222222-13.653334-4.551111-1.137778-9.102222-1.706667-12.515556-5.12-3.413333-3.413333-3.982222-8.533333-3.982222-13.084444v-90.453333h-48.924444c-5.12 0-10.24-1.706667-13.653334-5.688889-5.688889-7.395556-4.551111-18.773333 1.137778-25.6 2.844444-3.413333 7.964444-4.551111 11.946667-5.688889v-69.404445c0-4.551111 2.275556-9.671111 6.257778-12.515555 8.533333-6.826667 22.755556-3.982222 27.875555 5.688889 1.137778 5.12 0.568889 10.808889 0.568889 15.928889 0 19.911111-0.568889 39.822222 0 60.302222 4.551111 1.137778 9.102222 1.137778 14.222222 0.568889-1.137778-27.306667-1.706667-55.751111-1.706666-84.195556z m-298.097778 3.413333h127.431111c7.395556 0 15.36 2.844444 19.911111 9.671112 2.844444 3.982222 3.982222 9.671111 3.982222 14.791111v146.204444c0 6.257778-2.275556 12.515556-7.964444 15.36-7.964444 3.982222-18.773333 3.413333-25.6-2.844444-2.275556-2.275556-4.551111-5.12-3.982222-8.533334v-126.862222c0-2.844444 0-6.257778-1.137778-9.102222-0.568889-2.275556-3.413333-1.706667-5.12-1.706667H345.315556c-2.844444 0-6.257778 0.568889-7.964445 2.844445-1.706667 1.137778-1.706667 3.413333-1.706667 5.12V733.866667c0 6.257778-1.706667 13.084444-7.395555 16.497777-7.964444 4.551111-19.911111 4.551111-26.168889-2.844444-3.413333-3.413333-3.982222-7.964444-3.982222-11.946667v-151.324444c-0.568889-10.24 10.808889-17.635556 20.48-18.204445z" fill="#FFFFFF" p-id="62425"></path><path d="M374.897778 625.777778c6.257778-0.568889 13.653333-1.137778 19.342222 2.275555 5.12 2.844444 9.102222 7.964444 9.102222 14.222223 0.568889 24.462222-1.137778 48.924444-3.982222 73.386666 6.257778-0.568889 13.084444-1.706667 18.204444 1.706667 5.12 3.413333 6.826667 10.24 6.826667 16.497778v72.248889c0 4.551111-1.137778 9.671111 1.706667 13.653333 2.275556 2.275556 6.257778 2.275556 9.671111 2.275555 3.982222 0 9.102222 0.568889 12.515555-2.275555 2.844444-1.706667 3.413333-5.688889 3.982223-8.533333 1.137778-7.964444 0-15.928889 0.568889-23.893334 0.568889-4.551111 2.275556-9.102222 5.688888-11.946666 6.826667-4.551111 15.928889-5.12 22.755556-1.706667 5.12 2.275556 7.395556 7.964444 7.395556 13.084444 0 13.653333-0.568889 27.306667-2.844445 40.391111-1.706667 7.964444-3.982222 17.066667-11.377778 22.186667-9.671111 6.826667-22.755556 9.102222-34.702222 9.102222-13.653333 0-27.875556 1.137778-40.391111-5.12-6.826667-3.413333-13.084444-9.671111-12.515556-17.635555 0.568889-16.497778 0-32.995556 0-49.493334 0-7.964444-0.568889-15.36 0.568889-23.324444-1.137778 5.688889-3.982222 10.24-6.826666 15.36-6.826667 14.791111-16.497778 28.444444-27.875556 40.391111-17.066667 18.204444-39.253333 31.288889-62.577778 40.96-5.688889 2.275556-11.946667 2.844444-18.204444 2.275556-8.533333-1.706667-14.791111-10.24-14.222222-18.773334 0-2.844444-0.568889-6.257778 1.137777-7.964444 3.413333-3.982222 7.964444-6.257778 12.515556-7.964445 16.497778-6.826667 31.857778-15.928889 44.942222-27.306666 10.808889-9.102222 19.911111-19.911111 25.6-32.426667 5.12-8.533333 8.533333-17.066667 10.808889-26.737778 5.12-21.048889 7.964444-43.235556 9.102222-64.853333 1.706667-7.395556 0-15.36 1.137778-22.755556 1.137778-5.688889 0-11.946667 0.568889-17.635555 3.982222-4.551111 7.395556-7.964444 11.377778-9.671111z m390.257778 52.906666c4.551111-3.413333 10.24-4.551111 15.928888-3.982222 7.395556 0 13.084444 7.395556 13.653334 14.222222 0.568889 11.377778 0 22.755556 0 33.564445 0 5.12-1.137778 10.24-1.137778 15.36 0 8.533333-2.275556 16.497778-3.413333 25.031111-1.137778 7.395556-3.982222 14.222222-5.688889 21.617778 5.12 4.551111 11.377778 7.395556 17.066666 10.808889 15.36 9.102222 30.72 17.635556 46.08 26.737777 5.12 2.844444 10.24 6.257778 13.084445 11.377778 2.844444 3.982222 2.275556 9.102222 1.706667 14.222222-2.275556 5.688889-7.395556 9.671111-13.084445 11.946667-6.257778 1.706667-12.515556-1.137778-18.204444-3.982222-19.342222-11.377778-38.684444-22.755556-58.595556-34.133333-2.275556-1.137778-5.12-2.844444-7.395555-1.706667-18.773333 14.791111-38.684444 29.013333-60.871112 38.115555-6.257778 2.844444-12.515556 4.551111-19.342222 3.982223-7.964444 0-16.497778-3.982222-19.911111-11.377778-1.706667-5.688889-1.137778-11.946667 2.844445-16.497778 3.982222-3.982222 9.671111-5.688889 14.791111-7.964444 14.791111-5.688889 29.582222-13.084444 42.666666-22.755556 11.946667-8.533333 21.617778-21.048889 25.6-35.271111 7.395556-23.893333 6.826667-49.493333 6.826667-74.524444 1.137778-5.688889 2.844444-11.377778 7.395556-14.791112z m-179.768889 17.066667c5.688889-1.137778 12.515556-0.568889 17.066666 3.982222 5.688889 5.12 5.12 13.084444 4.551111 19.911111-2.844444 14.222222-6.257778 27.875556-10.24 42.097778-1.706667 5.688889-3.413333 11.946667-5.688888 17.635556-2.844444 5.688889-7.964444 9.102222-13.084445 10.808889-6.826667 2.844444-15.36-1.137778-18.204444-7.395556-2.275556-4.551111-2.275556-9.102222-1.137778-13.653333 3.982222-21.048889 9.102222-41.528889 15.36-62.008889 1.137778-5.688889 5.688889-10.24 11.377778-11.377778z" fill="#FFFFFF" p-id="62426"></path><path d="M328.248889 108.088889c5.12-3.982222 11.377778-5.688889 17.635555-4.551111 5.12 0.568889 9.671111 3.982222 10.24 9.102222 1.137778 7.964444 0.568889 16.497778 0.568889 24.462222-1.137778 25.031111-3.413333 49.493333-3.982222 74.524445 0 7.964444-1.706667 16.497778 0 24.462222 1.706667 3.413333 5.12 6.257778 7.964445 9.102222 2.844444 2.275556 4.551111 5.688889 8.533333 5.688889 10.808889 0.568889 21.617778-0.568889 32.426667-2.275556 4.551111-1.137778 8.533333-1.706667 12.515555-3.413333 2.275556-1.137778 2.844444-3.982222 3.413333-6.257778 0.568889-5.12 0-10.808889 0.568889-15.928889-13.653333 0-26.737778-2.844444-39.822222-7.395555-2.844444-1.137778-6.826667-2.844444-6.826667-6.257778 0-5.12 5.12-7.395556 9.671112-8.533333 13.084444-3.413333 26.737778-3.982222 39.822222-3.982222-0.568889-7.395556 0.568889-14.791111 0.568889-22.186667 0-2.844444-1.137778-7.395556-5.12-7.395556-10.24-1.137778-20.48-2.275556-30.151111-4.551111-3.413333-1.137778-7.395556-1.706667-9.671112-4.551111-3.413333-4.551111-3.982222-12.515556 0.568889-17.066667 11.946667-5.688889 25.6-2.275556 36.977778 2.275556 11.377778 5.12 24.462222 10.808889 30.72 22.186667 6.257778 12.515556 5.12 26.737778 3.982222 40.391111-0.568889 10.808889-0.568889 22.186667-0.568889 33.564444 0 6.257778-1.137778 13.084444-4.551111 18.204445-3.982222 5.688889-9.671111 9.671111-15.36 13.084444-6.257778 3.413333-12.515556 8.533333-20.48 8.533333-11.946667 1.137778-23.893333-3.413333-35.84-3.413333-3.982222 0-7.395556-0.568889-11.377777 0.568889-2.844444 2.844444-4.551111 6.257778-7.395556 7.964444-2.844444 1.706667-2.844444 5.12-2.844444 7.964445 7.395556 2.275556 15.36 1.706667 22.186666 5.12 8.533333 4.551111 17.066667 9.671111 25.031111 14.791111 3.413333 1.706667 4.551111 5.12 5.688889 8.533333 3.413333 10.24 3.982222 21.048889 2.275556 31.288889-1.137778 5.12-2.275556 10.24-6.257778 13.653334-5.12 4.551111-11.946667 6.826667-15.928889 12.515555-1.137778 2.844444-1.706667 6.257778-1.706667 9.102222 1.137778 2.844444 2.275556 7.395556 6.257778 7.964445 3.982222 0.568889 7.964444 0 11.946667 1.137778 6.826667 2.275556 13.084444 6.826667 19.911111 9.671111 2.275556 0.568889 3.413333 2.844444 4.551111 4.551111 5.688889 0 10.808889-1.137778 16.497778-0.568889 5.688889 1.137778 9.102222 6.826667 15.36 7.964444 6.826667 1.706667 14.222222 0 20.48 3.982223 6.257778 5.12 7.395556 14.222222 6.826667 22.186666-1.137778 5.688889-2.844444 12.515556-8.533334 15.36-9.102222 3.982222-19.911111 3.413333-29.582222 0-13.084444-3.982222-24.462222-11.946667-35.84-18.773333-3.982222-2.275556-7.395556-5.12-11.946667-6.257778-4.551111-1.706667-9.671111-2.275556-14.222222-5.12-5.688889-3.413333-10.808889-8.533333-17.066667-11.377778-8.533333-4.551111-18.773333-5.12-27.306666-1.706666-6.257778 3.413333-9.671111 9.671111-15.36 13.084444-5.12 2.844444-11.377778 2.844444-16.497778 5.12-8.533333 3.413333-15.928889 9.102222-24.462222 13.084445-11.377778 5.688889-24.462222 9.671111-37.546667 7.395555-2.844444-0.568889-6.257778-0.568889-7.964444-2.844444-2.275556-3.413333-5.12-7.395556-7.395556-10.808889-3.413333-5.688889 0-11.946667 1.137778-17.635556 15.928889-0.568889 31.857778-2.275556 47.786667-6.257778 10.24-2.275556 21.048889-5.12 29.582222-11.377777 3.413333-2.275556 6.826667-5.12 6.826666-9.671111 0-6.826667-4.551111-12.515556-8.533333-18.204445-3.413333-4.551111-6.826667-8.533333-10.24-13.084444-2.275556-2.844444-2.275556-7.395556-5.688889-9.671111-7.395556-6.257778-17.066667-7.964444-24.462222-13.084445-2.275556-1.706667-5.12-2.844444-7.964444-4.551111-2.275556-3.413333-1.137778-7.964444 1.706666-10.24 3.982222-3.982222 10.24-5.12 15.36-3.982222 5.688889 1.706667 10.808889 5.688889 15.928889 8.533333 17.066667 11.946667 33.564444 25.6 50.062222 38.684445 3.982222 3.413333 9.671111 2.844444 14.222223 0.568888 2.844444-2.275556 5.12-5.688889 7.964444-8.533333 5.12-5.12 10.808889-10.808889 10.808889-18.204444 0-5.12 0.568889-10.808889-2.844445-14.791111-2.844444-3.982222-5.688889-9.102222-10.808888-9.671112-8.533333-0.568889-16.497778 0-25.031112 0.568889-4.551111 0.568889-9.102222 1.137778-13.653333 0-3.982222-0.568889-4.551111-5.12-3.982222-8.533333 0.568889-4.551111 1.706667-9.671111 4.551111-13.653333 5.12-2.844444 10.808889-4.551111 15.928889-7.395556-1.706667-3.413333-3.413333-7.395556-5.688889-10.24-2.844444-2.844444-6.826667-3.982222-10.24-5.12-17.635556-3.413333-35.271111 5.12-52.906667 0-7.395556-2.844444-16.497778-6.826667-19.342222-14.791111-2.275556-7.395556-1.137778-15.36-1.137778-23.324444 0.568889-7.964444-0.568889-15.928889 0-24.462223 0.568889-9.102222-1.137778-18.204444 2.844445-26.737777 2.275556-5.12 9.102222-7.964444 13.653333-3.982223 6.257778 5.12 9.102222 13.084444 11.377778 20.48 11.946667 0 24.462222 0.568889 36.408889 2.275556 3.982222 0.568889 6.257778 5.12 5.12 8.533333-1.137778 3.982222-5.12 5.688889-8.533334 7.395556-10.808889 3.982222-21.617778 6.257778-32.995555 7.395555 0 7.395556-1.706667 15.928889 1.706667 22.755556 2.275556 3.982222 7.395556 2.844444 10.808888 2.844444 11.377778-1.137778 23.324444-2.844444 32.995556-9.102222 3.982222-2.275556 6.257778-6.826667 6.826667-11.377778 1.706667-13.653333 0.568889-27.875556-0.568889-41.528889-1.706667-24.462222-5.688889-49.493333-5.12-73.955555 1.706667-2.844444 1.706667-7.395556 4.551111-10.24z m286.151111 11.946667c3.982222-2.275556 8.533333-5.688889 13.653333-5.12 3.982222 0.568889 9.102222 0.568889 11.377778 3.982222 3.413333 5.688889 6.257778 11.377778 8.533333 17.635555 1.706667 4.551111 3.982222 9.102222 3.982223 14.222223-0.568889 6.826667-1.706667 13.653333-3.982223 19.911111-1.706667 5.688889-8.533333 6.826667-10.24 11.946666-1.706667 4.551111 0 9.671111-2.275555 13.653334-2.844444 3.982222-9.102222 5.688889-9.671111 10.808889-1.706667 13.653333 3.982222 26.737778 8.533333 39.253333 3.413333 9.102222 7.395556 17.635556 8.533333 27.306667 2.275556 19.342222 2.844444 38.684444 1.706667 58.026666-1.706667 23.324444-5.12 46.648889-14.222222 68.266667-5.688889 14.222222-14.222222 27.875556-26.737778 37.546667-3.982222 3.413333-9.671111 4.551111-14.791111 2.844444-3.982222-1.137778-9.102222-1.706667-11.946667-5.12-3.413333-3.413333-7.395556-5.688889-9.102222-10.24-1.706667-3.982222-2.844444-7.964444-5.688889-11.377778-3.413333-2.844444-7.964444-4.551111-10.808889-8.533333-2.275556-4.551111-3.982222-9.102222-2.844444-14.222222 0.568889-3.413333 3.982222-5.688889 7.395555-6.826667 6.257778-1.137778 13.084444 0.568889 18.773334 3.413333 5.12 2.275556 7.395556 7.395556 12.515555 10.24 4.551111 1.706667 7.964444-2.275556 10.808889-4.551111 4.551111-2.844444 10.24-6.826667 10.808889-13.084444 0.568889-9.102222-3.413333-17.635556-1.706667-26.737778 1.706667-6.257778 6.826667-11.946667 7.395556-18.204444 1.706667-13.653333-1.137778-27.875556-5.12-40.96-2.275556 0.568889-5.12 1.137778-7.395556 2.844444-2.275556 2.844444-2.275556 6.826667-3.413333 10.24-1.137778 4.551111-4.551111 7.964444-7.964444 10.808889-5.12 4.551111-10.808889 9.102222-15.36 14.222222-5.12 5.688889-10.24 11.946667-18.204445 14.791111-6.257778 1.706667-12.515556-1.706667-18.773333-1.706666-4.551111 0-7.395556-4.551111-9.102222-7.964445-1.137778-2.844444-1.137778-6.826667 1.137777-9.102222 3.982222-4.551111 10.24-6.826667 15.36-10.24 9.671111-5.12 18.773333-11.377778 26.737778-18.204445 10.24-10.808889 18.773333-23.324444 26.737778-35.271111 2.275556-7.964444-1.706667-15.36-3.413333-22.755555-1.137778-3.413333 1.137778-6.257778 0.568889-9.671111-0.568889-2.275556-2.844444-4.551111-5.688889-3.982223-5.688889 1.137778-10.24 4.551111-15.36 7.395556-3.413333 1.706667-3.982222 6.826667-7.395556 8.533333-5.12 3.413333-10.24 7.395556-16.497778 8.533334-6.826667 1.706667-13.653333-1.137778-19.911111-3.982223-3.982222-1.137778-6.257778-5.688889-5.12-9.671111 1.137778-4.551111 4.551111-7.964444 7.964445-10.808889 12.515556-9.102222 27.306667-15.928889 41.528889-22.755555 0-6.826667 1.137778-13.653333 0-19.911111-1.706667-2.844444-5.688889-3.982222-7.964445-6.257778-4.551111-5.12-8.533333-10.808889-11.946667-16.497778-3.413333-6.257778-7.395556-13.084444-5.688888-20.48 0.568889-3.413333 3.982222-5.12 6.826666-6.257778 6.257778-2.844444 13.653333-5.12 21.048889-3.413333 2.844444 0.568889 5.12 2.844444 6.826667 5.12 5.688889 9.102222 9.102222 18.773333 15.36 27.875556 1.706667 2.275556 4.551111 5.688889 7.964444 4.551111 3.982222-1.706667 5.12-6.257778 6.826667-9.671111 2.275556-5.688889 5.12-11.377778 5.12-17.635556-2.275556-3.982222-7.395556-5.688889-9.102222-9.671111 0.568889-3.982222 0.568889-9.102222 3.413333-13.084444z" fill="#272727" p-id="62427"></path><path d="M287.288889 117.191111c3.413333-1.137778 7.964444-1.137778 10.808889 1.706667 4.551111 3.413333 11.377778 6.826667 11.377778 13.084444-0.568889 7.395556-7.395556 12.515556-13.084445 16.497778-7.964444 5.12-16.497778 9.102222-25.6 11.946667-5.688889 1.706667-11.377778 0-15.928889-3.982223-2.275556-2.275556-3.982222-6.257778-2.275555-9.671111 2.275556-3.982222 6.826667-6.257778 9.671111-9.671111 6.257778-9.102222 15.36-15.36 25.031111-19.911111z m538.168889 2.844445c3.982222-1.137778 8.533333-1.137778 12.515555-0.568889 6.257778 1.137778 11.946667 5.12 13.653334 11.377777 1.706667 8.533333-1.137778 17.635556-7.964445 23.324445-5.688889 5.12-13.084444 7.395556-20.48 9.102222-17.066667 3.982222-35.271111 3.982222-52.906666 6.826667-7.395556 1.137778-13.084444 5.12-19.911112 6.826666-10.808889 1.706667-21.617778-1.706667-31.857777 1.706667-8.533333 2.844444-14.222222 9.671111-21.617778 13.653333-4.551111 2.844444-8.533333 7.395556-7.964445 13.084445 0.568889 9.102222 2.275556 18.773333 3.982223 27.875555 1.706667 10.808889 10.808889 18.773333 12.515555 29.582223 1.706667 11.377778 1.137778 23.324444 0.568889 34.702222-1.706667 21.048889-4.551111 42.666667-8.533333 63.715555-3.982222 21.617778-8.533333 43.804444-17.066667 64.284445-2.844444 8.533333-10.24 14.222222-18.204444 18.204444-8.533333 3.982222-18.773333-1.137778-22.186667-9.671111-2.275556-5.12-3.982222-10.808889-2.275556-16.497778 1.137778-3.982222 0-8.533333 2.844445-11.946666 3.982222-5.12 9.671111-7.964444 13.653333-12.515556 2.844444-2.844444 0.568889-7.395556 2.275556-10.808889 2.844444-6.826667 7.964444-12.515556 10.24-19.911111 9.671111-34.133333 15.36-69.973333 11.946666-105.244444-2.844444-22.186667-18.773333-40.391111-20.48-63.146667-1.137778-12.515556 3.982222-24.462222 10.808889-34.702222 4.551111-6.257778 12.515556-7.964444 19.342223-9.102222 19.911111-1.706667 39.253333 2.275556 59.164444 0 2.844444-0.568889 6.257778-0.568889 9.102222-1.706667 3.982222-2.275556 6.257778-6.257778 10.808889-7.395556 6.826667-1.706667 14.222222 0 21.048889-1.706666 10.808889-2.844444 19.342222-9.671111 29.013333-14.791111 3.413333 0 5.688889-2.844444 7.964445-4.551111zM184.32 127.431111c3.982222-1.137778 7.964444 2.275556 10.808889 4.551111 4.551111 3.413333 5.12 9.102222 6.257778 13.653334 1.706667 14.791111 0.568889 29.582222 0 44.373333-0.568889 3.982222 2.844444 6.257778 5.12 9.102222 1.706667 2.275556 5.12 1.706667 7.964444 1.706667 5.688889-0.568889 11.946667-1.706667 17.066667 1.706666 6.257778 3.413333 10.808889 10.808889 7.964444 17.635556-6.257778 8.533333-17.635556 8.533333-27.306666 10.24-5.688889 0.568889-12.515556 2.844444-15.36 8.533333-4.551111 9.102222-5.688889 19.342222-4.551112 29.013334 0.568889 3.982222 1.706667 8.533333 6.257778 10.24 6.257778 2.844444 13.084444-0.568889 19.342222-1.706667 1.706667 2.275556 5.12 3.982222 4.551112 7.395556 0 5.12 0 10.808889-2.844445 14.791111-5.688889 5.688889-15.928889 5.12-19.342222 13.084444-2.844444 7.395556 0 14.791111 1.137778 22.186667 1.137778 9.102222-0.568889 18.773333 0 27.875555 2.275556 11.946667 1.706667 24.462222 1.137777 36.408889-0.568889 8.533333-1.706667 17.066667-3.413333 25.6-1.137778 5.12-2.275556 10.24-5.12 14.222222-3.982222 5.12-8.533333 10.24-14.791111 11.946667-11.946667 3.413333-25.6 7.395556-38.115556 1.706667-14.222222-7.964444-23.324444-25.031111-19.911111-41.528889 0.568889-4.551111 4.551111-9.102222 9.102223-8.533333 2.844444 0 5.688889 0 7.964444 1.706666 6.257778 5.12 9.671111 13.084444 15.36 18.773334 5.12 2.844444 12.515556 1.137778 15.36-4.551112 3.413333-6.257778 4.551111-13.653333 5.12-20.48 1.706667-19.911111 0.568889-40.391111 0.568889-60.302222 0.568889-2.844444-2.844444-5.12-3.982222-6.826666-3.413333-3.982222-9.102222-3.982222-13.653334-3.413334-13.084444 1.706667-21.617778 13.653333-34.133333 16.497778-9.102222 1.706667-17.635556-2.844444-23.324444-9.102222-2.844444-2.844444-1.706667-6.826667 0-10.24 2.275556-4.551111 4.551111-9.671111 9.671111-11.377778 6.826667-2.275556 14.222222-1.137778 21.048889-3.413333 3.413333-1.706667 6.257778-4.551111 9.671111-6.826667 6.257778-2.844444 13.653333 0.568889 19.342222-2.844444 3.413333-2.844444 6.257778-6.826667 8.533333-10.808889 2.844444-4.551111 6.826667-9.102222 7.395556-15.36 1.137778-11.946667-0.568889-23.893333-4.551111-35.271111-2.275556-5.688889-5.12-12.515556-11.377778-15.36-3.982222-0.568889-8.533333-0.568889-12.515556 1.137777-3.413333 1.706667-6.826667 3.413333-10.24 3.982223-9.102222 1.706667-17.635556 3.982222-26.737777 2.275555-3.413333 0-5.688889-2.844444-7.395556-5.688889-0.568889-6.257778-0.568889-12.515556 2.275556-18.204444 3.982222-4.551111 10.24-6.257778 15.928888-7.964445 10.808889-1.706667 21.617778 1.706667 32.426667 0.568889 6.257778 0 11.377778-4.551111 17.066667-7.395555-1.706667-15.36-3.413333-30.72-2.275556-46.08 0.568889-5.688889 1.706667-12.515556 6.826667-16.497778 2.844444 0.568889 6.257778-0.568889 9.671111-1.137778z" fill="#272727" p-id="62428"></path><path d="M831.715556 190.008889c3.413333-0.568889 7.395556 0 10.24 1.137778 5.12 1.706667 8.533333 6.257778 8.533333 11.946666-0.568889 8.533333-5.688889 15.36-8.533333 22.755556-3.413333 8.533333-6.257778 17.066667-9.671112 25.6-1.706667 3.982222 0 7.964444-0.568888 11.377778-0.568889 3.413333-1.706667 6.257778-3.982223 9.102222-2.844444 2.844444-6.826667 1.706667-9.671111 0-3.982222-2.844444-5.12-7.964444-6.257778-11.946667-2.275556-9.671111-2.275556-19.911111-1.706666-30.151111 0.568889-7.964444 1.137778-15.928889 3.413333-23.324444 2.275556-9.102222 10.808889-13.084444 18.204445-16.497778z m-91.022223 30.151111c1.137778-12.515556 17.635556-21.617778 28.444445-14.222222 5.12 3.413333 3.413333 10.24 4.551111 15.928889 2.844444 15.36 2.844444 31.288889 1.706667 47.217777-0.568889 7.964444-1.706667 15.928889-3.982223 23.324445-2.844444 7.964444-7.964444 14.791111-10.808889 22.755555-1.137778 4.551111 0.568889 9.671111-1.706666 13.653334-4.551111 10.24-10.808889 19.342222-13.084445 30.151111-1.706667 8.533333-1.137778 17.635556 2.275556 25.6 2.844444 6.257778 9.102222 10.24 15.928889 10.808889 4.551111 0 9.102222 0 13.084444-2.275556 3.413333-2.275556 5.12-6.257778 7.964445-9.102222-1.706667-8.533333-4.551111-16.497778-6.257778-25.031111-0.568889-3.413333-1.137778-6.826667 0.568889-9.671111 1.706667-1.137778 3.982222-1.137778 6.257778-0.568889 10.24 2.844444 19.911111 9.102222 25.031111 18.773333 7.395556 13.084444 9.671111 28.444444 11.377777 42.666667-2.844444 8.533333-17.066667 9.671111-21.048888 1.706667-1.706667-2.844444-2.844444-7.964444-7.395556-7.395556-1.706667 2.844444-2.844444 5.688889-3.982222 9.102222-0.568889 2.844444-3.413333 3.982222-5.688889 5.12-14.791111 7.964444-32.426667 6.826667-47.786667 1.706667-6.826667-2.275556-10.24-9.102222-13.084444-15.36-5.12-14.791111-6.257778-31.857778-2.844445-47.217778 1.137778-5.688889 5.12-10.24 8.533334-14.791111 9.671111-12.515556 7.964444-30.151111 14.791111-43.804444 2.844444-4.551111 6.257778-8.533333 7.964444-13.653334 2.844444-11.946667-1.137778-23.893333-6.257778-34.702222-3.982222-9.671111-6.257778-20.48-4.551111-30.72z m79.644445 60.871111c2.844444-1.706667 6.826667 0.568889 9.671111 1.706667 3.413333 3.982222 4.551111 9.671111 5.688889 14.791111 2.844444 14.791111 2.844444 29.582222 7.964444 43.804444 7.964444 24.462222 21.617778 47.217778 40.96 64.853334 2.844444 2.844444 4.551111 6.257778 7.964445 7.964444 7.395556 3.413333 16.497778 2.275556 23.324444 6.826667 5.12 3.982222 7.395556 11.377778 6.257778 17.635555-1.137778 6.257778-7.395556 9.671111-13.653333 10.808889-10.808889 1.706667-21.617778 0.568889-31.288889-4.551111-6.826667-4.551111-12.515556-10.24-18.773334-15.928889-4.551111-5.12-9.671111-9.671111-13.084444-15.36-6.257778-11.377778-6.826667-24.462222-11.377778-36.408889-3.982222-10.24-12.515556-18.204444-14.791111-29.013333-1.706667-7.964444-2.275556-16.497778-2.844444-24.462222-0.568889-11.946667-1.137778-24.462222 0-36.408889 0.568889-1.706667 0.568889-5.12 3.982222-6.257778z" fill="#272727" p-id="62429"></path><path d="M467.057778 503.466667c133.688889-1.137778 267.377778 2.844444 401.066666 11.377777 7.964444 0.568889 15.928889 0.568889 23.324445 3.413334 13.653333 5.688889 23.324444 19.342222 25.6 33.564444 5.688889 47.217778 9.102222 95.004444 9.671111 142.791111-0.568889 26.168889 0 52.337778-1.706667 77.937778-1.706667 29.582222-3.982222 59.164444-7.964444 88.746667-2.275556 17.635556-17.066667 34.702222-35.271111 36.408889-73.955556 5.12-147.911111 8.533333-221.866667 10.808889-15.928889 1.137778-31.288889 0.568889-47.217778 1.137777-30.72 1.137778-62.008889 0.568889-92.728889 1.137778-67.697778 0-134.826667-1.706667-202.524444-3.982222-10.24-1.137778-20.48-0.568889-30.72-1.706667-10.24 0-20.48-1.137778-30.72-1.137778-32.995556-1.706667-66.56-3.982222-99.555556-6.257777-15.36-1.137778-28.444444-12.515556-33.564444-26.168889-1.706667-4.551111-2.844444-9.671111-3.413333-14.791111-11.946667-100.693333-11.946667-202.524444 0-303.217778 1.706667-15.928889 11.946667-30.72 27.306666-35.84 5.688889-2.275556 11.946667-2.275556 18.204445-2.275556 100.693333-6.826667 201.386667-11.377778 302.08-11.946666z m-254.862222 46.648889c-4.551111 2.844444-10.24 6.826667-9.671112 12.515555-0.568889 6.826667 4.551111 11.946667 6.826667 17.635556 3.413333 7.395556 7.964444 14.222222 14.791111 18.773333-10.24-0.568889-19.911111 0-30.151111 0-12.515556-0.568889-22.755556 14.791111-15.928889 25.6 2.275556 5.12 7.395556 7.964444 13.084445 8.533333 17.635556 1.137778 35.84-0.568889 53.475555 1.137778-0.568889 5.12-3.982222 9.671111-6.257778 14.222222-2.844444 5.12-5.688889 10.24-9.102222 15.36-11.946667 18.204444-26.168889 34.702222-40.96 50.631111-6.257778 6.826667-13.653333 12.515556-16.497778 21.617778-0.568889 5.12-1.137778 11.377778 2.275556 16.497778 2.275556 3.413333 5.688889 6.257778 9.671111 7.395556 6.826667 1.137778 14.222222-1.706667 19.911111-5.688889 3.982222-2.844444 9.102222-5.688889 11.377778-10.24-0.568889 7.964444 0 16.497778-0.568889 25.031111 0.568889 27.875556 0 56.32 0.568889 84.195555 2.844444 5.12 7.395556 9.102222 12.515556 11.377778 5.688889 2.844444 11.946667-0.568889 16.497777-4.551111 3.413333-3.413333 7.395556-6.826667 6.826667-11.946667v-94.435555c0-4.551111 1.137778-9.102222 0.568889-13.653334 3.413333 6.257778 8.533333 10.808889 13.653333 15.36 2.275556 2.275556 4.551111 3.982222 7.964445 5.12 7.395556 0.568889 13.653333-3.982222 18.204444-9.102222 3.413333-4.551111 6.826667-10.24 5.12-15.928889-2.844444-6.257778-8.533333-10.808889-13.653333-15.36-8.533333-7.964444-18.204444-14.791111-27.306667-21.617777 2.844444-5.688889 6.257778-10.808889 9.102222-15.928889 10.24-18.204444 19.342222-36.408889 26.168889-56.32 1.706667-7.964444 1.706667-18.773333-6.257778-22.755556-9.671111-5.12-21.048889-5.12-31.857777-3.413333 2.275556-3.982222 4.551111-7.964444 3.982222-12.515556-1.137778-9.102222-7.395556-16.497778-13.653333-23.324444-4.551111-6.826667-9.671111-12.515556-16.497778-15.36-4.551111-2.275556-10.24-2.275556-14.222222 1.137778z m404.48 12.515555c-0.568889 28.444444 0.568889 56.888889-0.568889 85.333333-4.551111 0-9.102222 0-14.222223-0.568888-0.568889-19.911111 0-39.822222 0-60.302223 0-5.12 0.568889-10.808889-0.568888-15.928889-5.12-9.671111-19.342222-12.515556-27.875556-5.688888-3.982222 2.844444-6.257778 7.395556-6.257778 12.515555v69.404445c-3.982222 1.137778-9.102222 2.275556-11.946666 5.688888-6.257778 6.826667-6.826667 18.204444-1.137778 25.6 2.844444 3.982222 8.533333 5.688889 13.653333 5.688889h48.924445v90.453334c0 4.551111 0.568889 9.671111 3.982222 13.084444 3.413333 3.413333 7.964444 3.982222 12.515555 5.12-3.413333 5.688889-9.102222 9.671111-14.222222 13.653333-12.515556 8.533333-26.737778 14.222222-40.96 19.342223-6.826667 2.275556-14.791111 3.982222-19.911111 9.671111-6.257778 6.257778-6.826667 17.066667-1.137778 23.324444 6.257778 5.12 15.36 6.257778 22.755556 3.982222 27.306667-5.688889 53.475556-18.773333 72.817778-38.684444 22.755556-23.324444 35.84-54.044444 42.666666-85.333333 2.275556-7.395556 2.275556-15.36 1.137778-23.324445-2.275556-6.257778-7.395556-11.946667-14.222222-13.084444-5.12-1.137778-11.377778-0.568889-14.791111 3.413333-3.413333 4.551111-4.551111 10.808889-6.257778 15.928889-2.844444 9.671111-4.551111 19.911111-8.533333 29.582222-0.568889 2.275556-0.568889 4.551111-1.706667 6.826667 0.568889-24.462222 0.568889-49.493333 0-73.955556h31.857778c3.413333 0 7.395556-0.568889 10.24-2.844444 2.844444-2.844444 5.12-6.826667 4.551111-11.377778 0-5.12 0.568889-10.24-1.706667-14.791111-1.706667-3.982222-5.688889-7.395556-10.24-7.395556-11.946667 0-23.324444 0-35.271111-0.568888v-31.857778c10.24-1.137778 20.48 0 31.288889-0.568889 6.826667-0.568889 12.515556-5.688889 13.653333-12.515556 0.568889-2.275556 0-5.12-0.568889-7.395555 1.706667 0.568889 2.844444 1.706667 5.12 1.706666h51.768889c-1.706667 9.102222-1.706667 17.635556-3.982222 26.737778-13.084444 1.137778-26.737778-2.275556-38.684444 4.551111-7.395556 3.982222-9.671111 12.515556-9.671112 20.48 0.568889 8.533333-1.706667 16.497778-0.568888 25.031111 1.137778 6.826667 0.568889 14.222222 0.568888 21.048889v71.111111c0.568889 5.688889-0.568889 11.946667 2.275556 17.066667 2.275556 4.551111 6.826667 6.826667 11.377778 7.964445 10.24 2.844444 21.617778-5.12 21.617778-15.928889v-111.502223c0-3.982222 4.551111-3.982222 7.395555-3.982222h65.422222c2.844444-0.568889 6.257778 1.706667 6.257778 5.12V773.688889c0 3.982222 0.568889 8.533333 3.413333 11.946667 2.844444 3.413333 7.964444 5.12 11.946667 5.688888 10.24 1.137778 21.048889-6.826667 21.048889-17.066666V648.533333c0-3.982222 0-8.533333-1.706667-12.515555-2.844444-7.395556-11.377778-11.946667-19.342222-11.377778-14.791111 0-29.013333-0.568889-43.804444 0 3.413333-7.964444 5.12-17.066667 4.551111-26.168889 2.844444-0.568889 6.257778-0.568889 9.671111-0.568889h48.355555c5.12 0 10.808889-2.275556 13.653334-6.826666 2.844444-4.551111 2.275556-10.24 1.706666-14.791112-1.137778-5.688889-4.551111-11.377778-10.24-13.653333-3.413333-0.568889-7.395556-0.568889-10.808888-0.568889h-141.084445c-5.12 0-9.671111 2.844444-12.515555 6.257778-3.982222 3.982222-2.844444 10.24-2.844445 15.36-2.844444-1.137778-6.257778-2.275556-9.671111-2.275556h-25.6c0-6.826667 0-13.653333-0.568889-19.911111-1.706667-8.533333-10.808889-13.084444-18.773333-12.515555-6.257778-2.275556-13.653333 5.688889-14.222222 13.653333z m-298.097778 3.413333c-9.671111 0.568889-21.048889 7.964444-20.48 18.773334v151.324444c0 4.551111 0.568889 9.102222 3.982222 11.946667 6.826667 7.395556 18.204444 7.395556 26.168889 2.844444 5.688889-3.413333 7.964444-10.24 7.395555-16.497777v-122.88c0-2.275556 0-3.982222 1.137778-6.257778 1.706667-2.275556 5.12-2.844444 7.964445-2.844445h80.782222c1.706667 0 4.551111 0 5.12 1.706667 1.137778 2.844444 1.137778 6.257778 1.137778 9.102222v126.862222c0 3.413333 1.706667 6.257778 3.982222 8.533334 6.826667 6.257778 17.635556 6.826667 25.6 2.844444 5.688889-2.844444 7.964444-9.671111 7.964444-15.36v-146.204444c0-5.12-1.137778-10.24-3.982222-14.791111-4.551111-6.257778-12.515556-9.671111-19.911111-9.671111-42.097778 0.568889-84.195556 0.568889-126.862222 0.568888z m56.32 59.733334c-3.982222 1.706667-6.826667 5.12-8.533334 9.102222-1.137778 5.688889 0 11.946667-0.568888 17.635556-1.137778 7.395556 0 15.36-1.137778 22.755555-1.137778 21.617778-3.413333 43.804444-9.102222 64.853333-2.275556 9.102222-6.257778 18.204444-10.808889 26.737778-6.257778 12.515556-15.36 23.893333-25.6 32.426667-13.653333 11.377778-29.013333 20.48-44.942223 27.306667-4.551111 2.275556-9.102222 3.982222-12.515555 7.964444-2.275556 2.275556-1.137778 5.688889-1.137778 7.964444-0.568889 8.533333 6.257778 16.497778 14.222222 18.773334 6.257778 0.568889 12.515556 0.568889 18.204445-2.275556 23.324444-9.671111 44.942222-22.755556 62.577778-40.96 11.377778-11.377778 21.048889-25.6 27.875555-40.391111 2.275556-5.12 5.12-10.24 6.826667-15.36-0.568889 7.964444-0.568889 15.36-0.568889 23.324445 0 16.497778 0.568889 32.995556 0 49.493333 0 7.964444 5.688889 14.222222 12.515555 17.635555 12.515556 6.257778 26.737778 5.12 40.391112 5.12 11.946667 0 24.462222-1.706667 34.702222-9.102222 7.395556-5.12 9.671111-14.222222 11.377778-22.186666 2.275556-13.084444 2.844444-26.737778 2.844444-40.391112 0-5.12-2.275556-10.808889-7.395556-13.084444-7.395556-3.413333-16.497778-2.844444-22.755555 1.706667-3.982222 2.844444-5.688889 7.395556-5.688889 11.946666-0.568889 7.964444 0 15.928889-0.568889 23.893334-0.568889 2.844444-1.137778 6.826667-3.982222 8.533333-3.982222 2.275556-8.533333 1.706667-12.515556 2.275556-3.413333 0-6.826667 0.568889-9.671111-2.275556-3.413333-3.982222-1.706667-9.102222-1.706666-13.653333 0.568889-23.893333 0-47.786667 0-72.248889 0-6.257778-1.706667-13.084444-6.826667-16.497778-5.688889-3.413333-12.515556-2.844444-18.204445-1.706667 2.275556-24.462222 4.551111-48.924444 3.982223-73.386666 0-6.257778-3.982222-11.377778-9.102223-14.222223-8.533333-2.844444-15.928889-2.275556-22.186666-1.706666z m390.257778 52.906666c-4.551111 3.413333-6.257778 9.102222-6.257778 14.791112 0 25.031111 0 50.062222-6.826667 74.524444-3.982222 14.222222-13.653333 26.737778-25.6 35.271111-13.084444 9.671111-27.306667 17.066667-42.666667 22.755556-5.12 2.275556-10.808889 3.413333-14.791111 7.964444-3.982222 4.551111-4.551111 11.377778-2.844444 16.497778 3.413333 7.395556 11.946667 11.377778 19.911111 11.377778 6.826667 0.568889 13.084444-1.706667 19.342222-3.982223 22.186667-9.102222 42.097778-23.324444 60.871111-38.115555 2.275556-1.706667 5.12 0.568889 7.395556 1.706667 19.342222 11.377778 38.684444 22.755556 58.595555 34.133333 5.12 2.844444 11.946667 5.688889 18.204445 3.982222 5.688889-1.706667 10.808889-6.257778 13.084444-11.946667 0.568889-4.551111 1.137778-9.671111-1.706666-14.222222-2.844444-5.12-7.964444-7.964444-13.084445-11.377778-15.36-9.102222-31.288889-17.635556-46.08-26.737777-5.688889-3.413333-11.946667-6.257778-17.066666-10.808889 1.706667-7.395556 3.982222-14.222222 5.688888-21.617778 1.137778-7.964444 3.413333-16.497778 3.413334-25.031111 0-5.12 1.137778-10.24 1.137778-15.36v-33.564445c-1.137778-6.826667-6.257778-13.653333-13.653334-14.222222-6.257778-0.568889-12.515556 0.568889-17.066666 3.982222z m-179.768889 17.066667c-5.688889 1.137778-10.24 5.688889-11.946667 11.377778-6.257778 20.48-10.808889 40.96-15.36 62.008889-0.568889 4.551111-0.568889 9.671111 1.137778 13.653333 2.844444 6.826667 11.377778 10.24 18.204444 7.395556 5.688889-2.275556 10.808889-5.688889 13.084445-10.808889 2.844444-5.688889 3.982222-11.377778 5.688889-17.635556 3.982222-13.653333 7.395556-27.875556 10.24-42.097778 0.568889-6.826667 1.137778-15.36-4.551112-19.911111-3.982222-4.551111-10.808889-5.12-16.497777-3.982222z" fill="#F2495A" p-id="62430"></path></svg>