<?xml version="1.0" standalone="no"?><!DOCTYPE svg PUBLIC "-//W3C//DTD SVG 1.1//EN" "http://www.w3.org/Graphics/SVG/1.1/DTD/svg11.dtd"><svg t="1707712590290" class="icon" viewBox="0 0 1024 1024" version="1.1" xmlns="http://www.w3.org/2000/svg" p-id="33390" width="48" height="48" xmlns:xlink="http://www.w3.org/1999/xlink"><path d="M157.515279 0h708.969342A157.414887 157.414887 0 0 1 1023.9999 156.410965v711.17797A157.414887 157.414887 0 0 1 866.484621 1023.9999H157.515279A157.414887 157.414887 0 0 1 0 867.588935V156.410965A157.414887 157.414887 0 0 1 157.515279 0z" fill="#F75314" p-id="33391"></path><path d="M791.692471 132.517634l64.552151 144.363907s-227.287821-30.719997-405.483882 30.82039-67.664307 129.003909-67.664307 129.003909a1477.270443 1477.270443 0 0 0 279.491737 0c135.228222-15.058822 267.344288 36.843918 288.928599 86.03607s70.274503 168.859591-89.148226 276.37958S441.725447 943.686182 223.472919 925.013243l-58.428229-141.251751S410.503489 817.493253 570.428179 752.941103s98.384304-113.64391 98.384304-113.643911-12.247842-49.192152-322.559968-3.112156S48.288623 439.617212 48.288623 439.617212s3.112157-153.700377 251.984289-236.624291 491.92152-70.274503 491.92152-70.274503z" fill="#C93A14" p-id="33392"></path><path d="M791.692471 95.071363l64.552151 144.363908s-227.287821-30.719997-405.483882 30.719997-67.664307 129.104301-67.664307 129.104301a1477.270443 1477.270443 0 0 0 279.592129 0c135.12783-15.460391 267.243895 36.843918 288.828207 85.935678s70.274503 168.859591-89.148226 276.37958S441.725447 905.938735 223.472919 887.566972l-58.428229-141.251751s245.458799 33.731761 405.383489-30.820389S668.812483 602.352882 668.812483 602.352882s-12.247842-49.09176-322.559968-3.112156S48.288623 402.070549 48.288623 402.070549s3.112157-153.499593 251.984289-236.423506 491.41956-70.575679 491.419559-70.57568z" fill="#FFFFFF" p-id="33393"></path></svg>