<?xml version="1.0" standalone="no"?><!DOCTYPE svg PUBLIC "-//W3C//DTD SVG 1.1//EN" "http://www.w3.org/Graphics/SVG/1.1/DTD/svg11.dtd"><svg t="1707718087489" class="icon" viewBox="0 0 1024 1024" version="1.1" xmlns="http://www.w3.org/2000/svg" p-id="34488" xmlns:xlink="http://www.w3.org/1999/xlink" width="48" height="48"><path d="M992.873801 448.783208 895.740395 351.162692 895.740395 213.155437C895.740395 163.765339 855.896165 123.727659 806.757531 123.727659L669.548826 123.727659 572.413983 26.221091C537.621684-8.740844 481.362986-8.740844 446.576427 26.221091L349.553529 123.727659 212.232878 123.727659C163.094244 123.727659 123.2503 163.765341 123.2503 213.155437L123.2503 351.162692 26.117036 448.783208C-8.671059 483.743701-8.671059 540.283692 26.117036 575.249954L123.2503 672.757965 123.2503 810.76522C123.2503 860.149547 163.094244 900.193287 212.232878 900.193287L349.553529 900.193287 446.688372 997.812217C481.480672 1032.659827 537.73937 1032.659827 572.525929 997.812217L669.66077 900.193287 806.987164 900.193287C856.125797 900.193287 895.970027 860.149547 895.970027 810.76522L895.970027 672.757965 993.103434 575.131678C1027.548413 540.283694 1027.548413 483.743701 992.873801 448.78321L992.873801 448.78321 992.873801 448.783208Z" fill="#FFA600" p-id="34489"></path><path d="M668.057645 407.128615C688.83945 407.128615 705.832305 424.08816 705.832305 444.973872 705.832305 465.859587 688.95283 482.937407 668.057645 482.937407 647.274405 482.937407 630.394929 465.859587 630.394929 444.973872 630.394929 424.088159 647.274405 407.128615 668.057645 407.128615L668.057645 407.128615 668.057645 407.128615Z" fill="#272636" p-id="34490"></path><path d="M350.012795 407.128615C370.796035 407.128615 387.788891 424.08816 387.788891 444.973872 387.788891 465.859587 370.913721 482.937407 350.012795 482.937407 329.230992 482.937407 312.238135 465.859587 312.238135 444.973872 312.355822 424.088159 329.230992 407.128615 350.012795 407.128615L350.012795 407.128615 350.012795 407.128615Z" fill="#272636" p-id="34491"></path><path d="M657.378265 818.725734 362.072845 818.725734C297.426794 818.725734 245.068989 766.107582 245.068989 701.256577 245.068989 637.560922 295.474912 585.753389 358.282463 583.785979 367.235286 508.09546 431.304384 449.475553 508.917533 449.475553 586.648371 449.475553 650.717468 508.09546 659.676033 583.785979 723.054794 585.172109 774.14531 637.216191 774.14531 701.256577 774.262998 766.220089 721.905193 818.725734 657.378265 818.725734L657.378265 818.725734 657.378265 818.725734Z" fill="#FFFFFF" p-id="34492"></path><path d="M601.000445 583.673472 417.181942 583.673472C399.959452 583.673472 384.918478 606.864115 409.720299 625.446341L470.458279 671.141052C470.458279 671.141052 487.103814 683.372465 509.035221 683.141683 530.966626 683.25419 547.72985 671.141052 547.72985 671.141052L608.581212 625.446341C633.265345 606.98239 618.222935 583.673472 601.000445 583.673472L601.000445 583.673472 601.000445 583.673472Z" fill="#272636" p-id="34493"></path></svg>