<svg id="svg" version="1.1" xmlns="http://www.w3.org/2000/svg" xmlns:xlink="http://www.w3.org/1999/xlink" width="48" height="48" viewBox="0 0 400 400"><g id="svgg"><path id="path0" d="M108.276 59.624 C 105.962 60.191,105.276 60.683,104.397 62.405 C 103.955 63.273,103.099 64.240,102.496 64.554 C 101.893 64.867,100.964 65.591,100.430 66.162 C 99.897 66.733,99.304 67.200,99.113 67.200 C 98.806 67.200,97.479 68.036,92.319 71.480 C 90.380 72.774,84.426 75.798,82.682 76.373 C 79.506 77.421,79.305 79.912,81.650 89.200 C 83.325 95.839,85.403 98.010,89.540 97.443 C 92.273 97.068,100.070 94.776,101.200 94.015 C 101.750 93.645,103.280 92.727,104.600 91.975 L 107.000 90.608 134.194 90.740 C 150.102 90.818,161.679 91.028,162.090 91.248 C 163.801 92.164,164.010 93.490,163.600 100.866 C 163.388 104.680,163.212 116.047,163.208 126.126 C 163.199 147.715,163.254 147.422,159.770 144.510 C 157.822 142.882,157.206 141.398,157.202 138.326 C 157.195 132.080,152.692 128.138,146.818 129.236 C 142.222 130.095,134.304 130.000,133.281 129.074 C 132.240 128.131,131.859 126.010,132.381 124.069 C 133.117 121.337,133.333 121.266,142.218 120.856 C 151.486 120.429,153.077 120.046,154.099 118.000 C 156.187 113.820,153.922 108.296,148.315 103.892 C 146.098 102.151,146.086 102.149,143.029 103.224 C 141.272 103.841,139.422 104.083,135.643 104.191 C 129.842 104.357,129.560 104.255,127.661 101.295 C 125.868 98.500,125.169 98.262,118.217 98.080 C 110.825 97.886,110.147 98.081,106.600 101.408 C 105.060 102.853,103.172 104.305,102.405 104.636 C 101.638 104.967,100.648 105.571,100.205 105.978 C 99.232 106.871,94.208 109.242,91.273 110.193 C 87.961 111.266,87.738 115.104,90.708 119.876 C 91.309 120.840,92.164 122.203,92.610 122.905 C 94.746 126.272,99.791 127.067,104.271 124.743 C 109.032 122.273,111.106 123.077,110.706 127.240 C 110.441 129.991,109.651 130.682,106.200 131.180 C 100.740 131.968,94.602 131.727,92.569 130.645 C 86.642 127.489,80.012 138.544,84.115 144.743 C 86.038 147.649,86.769 147.808,95.686 147.263 C 99.929 147.003,104.804 146.792,106.520 146.795 L 109.641 146.800 110.257 148.276 C 111.317 150.811,110.593 166.150,109.356 167.387 C 106.825 169.918,104.406 167.348,104.391 162.113 C 104.367 153.561,98.412 149.845,91.550 154.101 C 85.623 157.777,84.438 159.690,85.823 163.347 C 86.513 165.169,86.600 166.463,86.600 174.866 C 86.600 183.880,86.640 184.386,87.447 185.478 C 87.913 186.109,88.670 187.339,89.130 188.212 C 92.734 195.063,99.620 196.613,102.406 191.200 C 102.802 190.430,103.750 189.082,104.513 188.205 L 105.900 186.610 113.250 186.338 C 117.500 186.181,122.787 185.709,125.785 185.218 C 133.636 183.935,134.188 184.567,135.245 196.046 C 135.703 201.028,136.344 205.211,137.149 208.477 C 137.816 211.185,138.549 214.581,138.777 216.025 C 139.005 217.468,139.561 219.718,140.012 221.025 C 140.464 222.331,141.277 225.200,141.819 227.400 C 142.361 229.600,143.157 232.300,143.588 233.400 C 144.019 234.500,144.650 236.634,144.990 238.142 C 145.330 239.650,146.166 242.156,146.848 243.709 C 148.243 246.887,148.748 250.634,147.911 251.600 C 147.076 252.565,144.315 254.619,142.592 255.556 C 141.716 256.033,140.251 257.003,139.335 257.711 C 138.419 258.420,136.746 259.630,135.618 260.400 C 124.286 268.134,107.431 286.385,100.276 298.670 C 99.658 299.732,98.540 301.590,97.792 302.800 C 97.045 304.010,96.224 305.450,95.969 306.000 C 95.714 306.550,94.916 308.260,94.195 309.800 C 91.094 316.432,89.788 320.700,87.175 332.746 C 85.079 342.408,85.339 361.991,87.663 369.509 C 88.121 370.989,88.925 373.893,89.451 375.962 C 89.976 378.032,90.574 379.927,90.779 380.174 C 90.984 380.422,91.696 382.037,92.361 383.764 C 93.026 385.491,93.822 387.195,94.130 387.552 C 94.438 387.908,94.995 389.017,95.367 390.015 C 95.739 391.013,96.620 392.557,97.324 393.447 C 98.028 394.338,99.144 396.166,99.802 397.511 L 101.000 399.957 200.400 399.972 L 299.800 399.986 300.775 397.734 C 301.312 396.495,302.137 395.014,302.609 394.441 C 304.632 391.985,310.005 380.485,311.009 376.462 C 311.357 375.066,312.001 373.011,312.441 371.895 C 315.533 364.052,315.399 336.939,312.218 326.673 C 311.660 324.873,310.862 322.050,310.445 320.400 C 309.562 316.914,307.376 311.218,306.145 309.200 C 305.675 308.430,305.162 307.350,305.004 306.800 C 304.752 305.922,303.051 302.968,299.053 296.465 C 298.423 295.439,297.388 294.009,296.753 293.286 C 296.119 292.563,295.600 291.809,295.600 291.610 C 295.600 291.411,294.925 290.444,294.100 289.461 C 293.275 288.478,291.880 286.749,291.000 285.619 C 284.307 277.026,272.841 265.680,266.546 261.422 C 263.669 259.477,262.206 258.441,260.400 257.073 C 259.410 256.324,257.880 255.336,257.000 254.878 C 252.181 252.373,251.202 249.126,253.751 244.096 C 254.333 242.948,255.077 240.736,255.404 239.181 C 255.731 237.625,256.443 235.414,256.986 234.266 C 257.529 233.118,258.256 230.837,258.601 229.197 C 258.946 227.556,259.655 224.861,260.178 223.207 C 261.833 217.966,263.947 208.376,264.590 203.200 C 265.292 197.538,266.191 190.829,266.840 186.400 C 267.475 182.069,267.076 168.787,266.233 166.207 C 264.350 160.442,264.334 154.923,266.196 153.200 C 267.947 151.579,268.489 150.066,268.841 145.815 C 269.024 143.607,269.346 140.010,269.556 137.821 C 270.123 131.929,269.392 131.000,264.423 131.295 C 262.034 131.436,261.756 130.803,261.400 124.400 C 260.947 116.258,261.594 114.408,264.900 114.391 C 272.660 114.351,274.703 105.784,269.272 96.053 C 267.318 92.552,266.627 92.000,264.197 92.000 C 262.001 92.000,261.599 91.008,261.608 85.611 C 261.618 79.859,262.179 75.852,263.208 74.188 C 265.017 71.260,261.890 66.592,255.890 63.263 C 251.372 60.757,246.312 62.359,240.099 68.263 C 236.320 71.855,236.247 72.107,237.848 76.031 C 239.068 79.019,239.764 89.798,238.848 91.510 C 237.079 94.815,232.852 92.877,233.470 89.043 C 235.127 78.779,230.497 73.542,223.000 77.198 C 215.129 81.036,213.363 82.983,214.640 86.417 C 216.141 90.455,215.549 103.819,213.710 107.374 C 213.375 108.022,212.698 109.734,212.207 111.177 C 211.716 112.619,210.838 114.500,210.257 115.356 C 209.033 117.157,208.908 118.954,209.902 120.450 C 216.950 131.053,221.337 133.279,225.676 128.453 C 227.170 126.792,230.400 119.965,230.400 118.469 C 230.400 116.197,235.866 115.240,238.317 117.084 L 239.400 117.899 239.258 126.249 C 239.075 137.023,238.818 137.549,233.424 138.157 C 232.117 138.304,229.511 138.870,227.634 139.414 C 224.800 140.236,223.711 140.363,221.211 140.163 C 217.168 139.839,216.211 140.258,214.968 142.898 C 214.424 144.054,213.609 145.581,213.158 146.292 C 211.474 148.940,210.658 157.672,211.755 161.316 C 212.569 164.021,216.043 167.850,218.786 169.064 C 221.922 170.453,222.209 171.678,220.154 174.891 C 219.629 175.712,219.200 176.501,219.200 176.645 C 219.200 176.789,218.474 178.331,217.588 180.072 C 216.701 181.812,215.593 184.263,215.126 185.518 C 214.659 186.773,214.046 188.160,213.764 188.600 C 213.481 189.040,212.942 190.660,212.565 192.200 C 212.188 193.740,211.481 195.810,210.994 196.800 C 210.507 197.790,209.795 200.022,209.413 201.761 C 209.031 203.499,208.304 206.022,207.798 207.368 C 207.291 208.713,206.754 210.711,206.604 211.807 C 206.454 212.903,205.992 215.060,205.577 216.600 C 204.365 221.100,203.688 224.712,203.215 229.200 C 202.082 239.963,198.860 236.998,197.014 223.495 C 196.660 220.907,196.031 217.667,195.615 216.295 C 195.199 214.923,194.569 212.180,194.215 210.200 C 193.861 208.220,193.127 205.340,192.585 203.800 C 192.043 202.260,191.159 199.560,190.622 197.800 C 188.920 192.231,187.316 187.871,186.139 185.616 L 185.000 183.433 185.134 139.816 C 185.233 107.441,185.388 96.032,185.734 95.547 C 185.990 95.187,187.250 93.603,188.534 92.025 C 193.352 86.105,192.876 83.873,185.098 75.950 C 176.691 67.385,177.050 67.521,171.019 70.624 L 167.567 72.400 149.807 72.400 C 140.039 72.400,131.955 72.251,131.842 72.069 C 131.730 71.886,131.924 70.560,132.273 69.121 C 133.424 64.382,131.941 61.602,127.482 60.136 C 125.080 59.346,110.948 58.970,108.276 59.624 M308.874 61.227 C 307.925 61.414,306.665 61.825,306.074 62.139 C 299.206 65.798,299.141 65.851,298.629 68.240 C 298.405 69.281,298.590 69.752,299.781 71.178 C 300.917 72.537,301.200 73.214,301.200 74.576 C 301.200 77.462,300.919 77.556,291.986 77.653 C 282.015 77.761,281.540 77.978,278.665 83.732 C 273.834 93.401,277.652 97.127,291.885 96.635 C 301.159 96.314,302.308 96.951,301.695 102.075 C 301.358 104.892,301.060 104.976,290.591 105.200 C 285.462 105.310,281.181 105.490,281.080 105.600 C 272.676 114.689,274.241 123.345,284.444 124.206 C 286.070 124.343,293.178 124.280,300.240 124.066 C 315.494 123.603,315.605 123.616,316.343 125.930 C 317.077 128.230,316.655 131.029,315.476 131.685 C 314.648 132.145,300.580 132.667,286.354 132.765 L 281.309 132.800 279.101 134.900 C 271.963 141.691,270.935 149.294,276.697 152.681 L 278.600 153.800 295.600 153.888 C 304.950 153.936,313.185 153.981,313.900 153.988 C 316.763 154.015,316.956 154.692,316.648 163.635 C 316.339 172.614,316.095 173.678,314.039 174.975 C 310.167 177.420,308.381 176.586,307.875 172.099 C 307.699 170.543,307.174 169.282,305.850 167.235 C 300.619 159.148,291.700 157.423,283.410 162.895 C 278.250 166.301,277.823 168.031,281.215 171.800 C 283.147 173.947,284.891 177.178,286.032 180.724 C 288.136 187.265,294.333 189.903,299.820 186.594 C 300.689 186.070,302.048 185.283,302.839 184.844 C 303.630 184.405,304.579 183.586,304.948 183.023 C 307.838 178.613,313.105 185.337,313.935 194.495 C 314.959 205.797,327.315 210.759,335.086 202.988 C 339.233 198.841,338.970 200.562,339.200 176.012 L 339.400 154.623 340.400 154.095 C 341.409 153.562,342.575 153.613,346.751 154.375 C 349.137 154.811,351.018 154.286,352.684 152.721 C 358.291 147.453,352.178 130.077,345.212 131.482 C 341.091 132.313,339.513 131.254,339.288 127.508 C 339.061 123.726,339.750 123.276,346.828 122.580 C 349.870 122.280,353.446 119.828,353.831 117.776 C 354.601 113.671,350.809 106.867,345.844 103.448 C 343.326 101.714,343.323 101.713,340.687 103.089 C 338.011 104.485,328.672 104.975,326.467 103.835 C 324.832 102.989,324.171 100.763,324.896 98.543 C 325.710 96.051,326.720 95.766,335.878 95.443 C 345.283 95.111,346.281 94.921,348.587 93.032 C 352.002 90.234,351.123 84.454,346.497 79.287 C 345.894 78.613,344.911 77.492,344.313 76.795 C 343.272 75.582,343.127 75.537,340.913 75.738 C 324.075 77.266,323.313 76.968,325.782 69.815 C 327.032 66.193,326.956 65.829,324.455 63.490 C 321.743 60.953,315.139 59.994,308.874 61.227 M56.364 69.961 C 49.115 72.288,44.967 77.071,47.712 79.938 C 48.482 80.742,49.390 81.953,49.730 82.629 C 50.069 83.305,50.609 84.076,50.929 84.341 C 51.250 84.607,51.921 85.944,52.421 87.312 C 52.921 88.681,53.467 89.982,53.635 90.205 C 53.803 90.428,54.326 91.640,54.797 92.900 C 56.969 98.704,63.830 100.388,69.587 96.530 C 76.553 91.861,78.578 84.888,75.042 77.746 C 71.387 70.365,64.304 67.412,56.364 69.961 M56.020 109.608 C 48.423 112.286,44.603 116.800,47.580 119.581 C 49.993 121.835,52.938 127.150,55.059 133.076 C 57.966 141.200,70.534 139.197,75.373 129.840 C 81.391 118.201,68.846 105.085,56.020 109.608 M72.800 145.159 C 67.379 150.813,64.199 151.882,58.257 150.047 C 56.749 149.581,55.059 149.200,54.501 149.200 L 53.486 149.200 53.838 151.700 C 54.932 159.461,53.892 166.676,50.794 172.811 C 44.927 184.434,46.162 196.167,54.073 203.961 C 60.910 210.698,70.087 209.302,75.436 200.711 L 77.000 198.200 77.000 193.600 C 77.000 189.452,76.893 188.764,75.914 186.600 C 71.630 177.134,71.602 164.134,75.839 152.600 C 76.788 150.017,78.018 144.897,78.146 143.000 C 78.286 140.918,75.968 141.854,72.800 145.159 M138.190 147.580 C 139.044 149.233,138.982 149.658,137.379 153.126 C 136.435 155.169,135.756 157.475,135.356 160.000 C 134.465 165.619,134.471 165.600,133.600 165.600 C 131.781 165.600,131.396 149.323,133.170 147.433 C 134.639 145.867,137.345 145.946,138.190 147.580 M153.329 213.300 C 153.630 213.795,154.213 215.370,154.623 216.800 C 155.033 218.230,155.871 220.200,156.484 221.178 C 157.208 222.331,157.608 223.527,157.624 224.578 C 157.670 227.708,158.257 230.006,159.293 231.114 C 161.374 233.338,164.833 241.053,164.548 242.835 C 164.069 245.831,161.267 246.416,160.154 243.752 C 159.819 242.949,159.174 241.792,158.722 241.180 C 158.155 240.413,157.806 239.105,157.596 236.955 C 157.350 234.449,157.118 233.701,156.408 233.126 C 155.352 232.271,154.400 229.338,154.400 226.942 C 154.400 225.807,153.991 224.418,153.212 222.906 C 152.203 220.948,152.018 220.117,151.984 217.400 C 151.926 212.787,151.957 212.400,152.391 212.400 C 152.606 212.400,153.028 212.805,153.329 213.300 M173.926 272.359 C 174.957 272.777,176.894 273.507,178.232 273.983 C 183.370 275.808,188.870 282.769,187.948 286.277 C 186.941 290.102,182.172 290.413,181.391 286.704 C 180.134 280.734,176.114 277.066,167.600 274.121 C 165.026 273.230,164.373 272.541,165.628 272.039 C 167.335 271.357,171.885 271.532,173.926 272.359 M234.642 272.108 C 235.253 272.720,234.055 273.245,230.602 273.879 L 227.075 274.526 224.501 277.163 C 222.133 279.590,220.352 282.367,218.807 286.046 C 216.527 291.474,210.654 288.718,212.620 283.142 C 213.721 280.021,221.216 273.600,223.759 273.600 C 224.088 273.600,225.222 273.136,226.279 272.569 C 228.205 271.536,233.763 271.230,234.642 272.108 M194.026 296.414 C 195.499 297.202,194.632 299.600,192.875 299.600 C 192.329 299.600,191.467 297.323,191.742 296.607 C 192.013 295.902,192.925 295.825,194.026 296.414 M179.000 328.974 C 189.817 329.010,191.198 329.383,189.387 331.776 C 187.965 333.656,190.092 339.585,192.552 340.599 C 201.964 344.479,210.729 341.535,211.988 334.070 C 212.678 329.979,212.791 329.926,220.463 330.078 C 223.838 330.145,228.760 330.055,231.400 329.878 C 239.437 329.338,239.677 329.879,236.199 340.689 C 234.960 344.543,233.495 348.680,232.945 349.883 C 231.887 352.195,230.400 356.577,230.400 357.381 C 230.400 357.809,228.965 360.735,225.400 367.573 C 224.740 368.839,223.788 370.398,223.285 371.038 C 222.781 371.677,221.276 373.870,219.940 375.910 C 218.603 377.951,217.125 379.817,216.655 380.057 C 216.185 380.297,215.080 381.212,214.200 382.089 C 205.726 390.543,195.161 391.101,188.458 383.449 C 188.096 383.035,187.170 382.004,186.400 381.157 C 185.630 380.309,184.497 379.028,183.883 378.308 C 182.591 376.794,178.800 370.932,178.800 370.448 C 178.800 370.267,178.223 369.328,177.517 368.360 C 175.577 365.698,172.866 360.172,172.159 357.436 C 171.812 356.096,171.350 354.783,171.131 354.519 C 170.912 354.254,170.240 352.717,169.638 351.102 C 169.036 349.488,167.791 347.059,166.872 345.705 C 165.952 344.352,165.200 343.091,165.200 342.904 C 165.200 342.717,164.393 341.222,163.407 339.582 C 160.449 334.664,160.859 329.733,164.290 328.975 C 164.900 328.840,165.580 328.660,165.800 328.575 C 166.020 328.490,167.010 328.538,168.000 328.682 C 168.990 328.825,173.940 328.957,179.000 328.974 M210.629 377.029 C 210.283 377.374,210.000 377.909,210.000 378.216 C 210.000 378.523,209.505 379.043,208.900 379.371 L 207.800 379.968 209.290 379.984 C 210.534 379.997,210.878 379.810,211.374 378.851 C 211.701 378.219,212.335 377.606,212.784 377.488 C 213.233 377.371,213.600 377.078,213.600 376.837 C 213.600 376.171,211.341 376.316,210.629 377.029 " stroke="none" fill="#f7e5e4" fill-rule="evenodd"></path><path id="path1" d="M50.655 0.600 C 50.489 1.033,49.810 1.200,48.211 1.200 C 45.877 1.200,43.748 2.060,42.338 3.575 C 41.915 4.029,41.160 4.400,40.660 4.400 C 39.267 4.400,36.488 5.893,36.201 6.796 C 36.058 7.248,35.596 7.600,35.147 7.600 C 33.925 7.600,32.802 8.343,32.391 9.424 C 32.140 10.085,31.709 10.400,31.059 10.400 C 30.530 10.400,29.874 10.670,29.600 11.000 C 29.326 11.330,28.915 11.600,28.687 11.600 C 28.459 11.600,27.172 12.751,25.827 14.157 C 24.481 15.563,22.734 16.984,21.944 17.314 C 21.007 17.706,20.421 18.262,20.257 18.917 C 20.097 19.552,19.568 20.072,18.816 20.334 C 18.008 20.616,17.542 21.108,17.357 21.874 C 17.202 22.519,15.915 24.124,14.343 25.632 C 12.834 27.080,11.600 28.453,11.600 28.683 C 11.600 28.914,11.330 29.326,11.000 29.600 C 10.670 29.874,10.400 30.526,10.400 31.049 C 10.400 31.572,10.212 32.000,9.982 32.000 C 9.186 32.000,7.600 33.968,7.600 34.955 C 7.600 35.597,7.316 36.036,6.796 36.201 C 5.894 36.488,4.400 39.267,4.400 40.659 C 4.400 41.159,3.976 41.980,3.458 42.484 C 2.194 43.714,1.200 46.415,1.200 48.621 C 1.200 49.856,1.011 50.498,0.600 50.655 C -0.314 51.006,-0.314 349.105,0.600 349.455 C 1.017 349.615,1.200 350.266,1.200 351.592 C 1.200 353.708,2.335 356.655,3.585 357.787 C 4.033 358.192,4.400 358.924,4.400 359.413 C 4.400 360.863,5.531 363.137,6.602 363.838 C 7.204 364.233,7.600 364.870,7.600 365.446 C 7.600 366.513,8.881 368.000,9.800 368.000 C 10.130 368.000,10.400 368.322,10.400 368.715 C 10.400 369.974,11.957 372.579,13.097 373.228 C 13.703 373.574,14.430 374.328,14.711 374.905 C 14.991 375.481,15.572 376.064,16.002 376.201 C 16.481 376.353,16.945 377.054,17.205 378.020 C 17.515 379.169,17.889 379.657,18.598 379.835 C 19.131 379.969,19.917 380.671,20.344 381.395 C 20.836 382.229,21.649 382.886,22.561 383.187 C 23.352 383.448,24.000 383.879,24.000 384.145 C 24.000 384.410,24.541 384.947,25.202 385.338 C 25.863 385.728,26.660 386.542,26.972 387.146 C 27.284 387.750,28.007 388.457,28.578 388.717 C 29.149 388.977,29.786 389.637,29.994 390.184 C 30.376 391.188,32.289 392.230,34.600 392.692 C 35.260 392.824,36.037 393.265,36.327 393.672 C 36.947 394.543,39.305 395.600,40.629 395.600 C 41.141 395.600,42.064 396.114,42.680 396.741 C 44.024 398.111,45.433 398.658,48.500 399.001 C 49.765 399.142,50.800 399.425,50.800 399.629 C 50.800 399.853,60.692 400.000,75.800 400.000 C 94.095 400.000,100.800 399.879,100.800 399.549 C 100.800 398.928,98.488 394.905,97.152 393.200 C 96.548 392.430,95.744 390.990,95.365 390.000 C 94.986 389.010,94.427 387.908,94.123 387.552 C 93.819 387.195,93.026 385.491,92.361 383.764 C 91.696 382.037,90.984 380.422,90.779 380.174 C 90.574 379.927,89.976 378.032,89.451 375.962 C 88.925 373.893,88.121 370.989,87.663 369.509 C 85.339 361.991,85.079 342.408,87.175 332.746 C 89.788 320.700,91.094 316.432,94.195 309.800 C 94.916 308.260,95.714 306.550,95.969 306.000 C 96.224 305.450,97.045 304.010,97.792 302.800 C 98.540 301.590,99.658 299.732,100.276 298.670 C 107.431 286.385,124.286 268.134,135.618 260.400 C 136.746 259.630,138.419 258.420,139.335 257.711 C 140.251 257.003,141.716 256.033,142.592 255.556 C 144.315 254.619,147.076 252.565,147.911 251.600 C 148.748 250.634,148.243 246.887,146.848 243.709 C 146.166 242.156,145.330 239.650,144.990 238.142 C 144.650 236.634,144.019 234.500,143.588 233.400 C 143.157 232.300,142.361 229.600,141.819 227.400 C 141.277 225.200,140.464 222.331,140.012 221.025 C 139.561 219.718,139.005 217.468,138.777 216.025 C 138.549 214.581,137.816 211.185,137.149 208.477 C 136.344 205.211,135.703 201.028,135.245 196.046 C 134.188 184.567,133.636 183.935,125.785 185.218 C 122.787 185.709,117.500 186.181,113.250 186.338 L 105.900 186.610 104.513 188.205 C 103.750 189.082,102.802 190.430,102.406 191.200 C 99.620 196.613,92.734 195.063,89.130 188.212 C 88.670 187.339,87.913 186.109,87.447 185.478 C 86.640 184.386,86.600 183.880,86.600 174.866 C 86.600 166.463,86.513 165.169,85.823 163.347 C 84.438 159.690,85.623 157.777,91.550 154.101 C 98.412 149.845,104.367 153.561,104.391 162.113 C 104.406 167.348,106.825 169.918,109.356 167.387 C 110.593 166.150,111.317 150.811,110.257 148.276 L 109.641 146.800 106.520 146.795 C 104.804 146.792,99.929 147.003,95.686 147.263 C 86.769 147.808,86.038 147.649,84.115 144.743 C 80.012 138.544,86.642 127.489,92.569 130.645 C 94.602 131.727,100.740 131.968,106.200 131.180 C 109.651 130.682,110.441 129.991,110.706 127.240 C 111.106 123.077,109.032 122.273,104.271 124.743 C 99.791 127.067,94.746 126.272,92.610 122.905 C 92.164 122.203,91.309 120.840,90.708 119.876 C 87.738 115.104,87.961 111.266,91.273 110.193 C 94.208 109.242,99.232 106.871,100.205 105.978 C 100.648 105.571,101.638 104.967,102.405 104.636 C 103.172 104.305,105.060 102.853,106.600 101.408 C 110.147 98.081,110.825 97.886,118.217 98.080 C 125.169 98.262,125.868 98.500,127.661 101.295 C 129.560 104.255,129.842 104.357,135.643 104.191 C 139.422 104.083,141.272 103.841,143.029 103.224 C 146.086 102.149,146.098 102.151,148.315 103.892 C 153.922 108.296,156.187 113.820,154.099 118.000 C 153.077 120.046,151.486 120.429,142.218 120.856 C 133.333 121.266,133.117 121.337,132.381 124.069 C 131.859 126.010,132.240 128.131,133.281 129.074 C 134.304 130.000,142.222 130.095,146.818 129.236 C 152.692 128.138,157.195 132.080,157.202 138.326 C 157.206 141.398,157.822 142.882,159.770 144.510 C 163.254 147.422,163.199 147.715,163.208 126.126 C 163.212 116.047,163.388 104.680,163.600 100.866 C 164.010 93.490,163.801 92.164,162.090 91.248 C 161.679 91.028,150.102 90.818,134.194 90.740 L 107.000 90.608 104.600 91.975 C 103.280 92.727,101.750 93.645,101.200 94.015 C 100.070 94.776,92.273 97.068,89.540 97.443 C 85.403 98.010,83.325 95.839,81.650 89.200 C 79.305 79.912,79.506 77.421,82.682 76.373 C 84.426 75.798,90.380 72.774,92.319 71.480 C 97.479 68.036,98.806 67.200,99.113 67.200 C 99.304 67.200,99.897 66.733,100.430 66.162 C 100.964 65.591,101.893 64.867,102.496 64.554 C 103.099 64.240,103.965 63.254,104.420 62.362 C 105.803 59.649,106.829 59.400,116.600 59.400 C 130.621 59.400,134.108 61.563,132.273 69.121 C 131.924 70.560,131.730 71.886,131.842 72.069 C 131.955 72.251,140.039 72.400,149.807 72.400 L 167.567 72.400 171.019 70.624 C 177.050 67.521,176.691 67.385,185.098 75.950 C 192.876 83.873,193.352 86.105,188.534 92.025 C 187.250 93.603,185.990 95.187,185.734 95.547 C 185.388 96.032,185.233 107.441,185.134 139.816 L 185.000 183.433 186.139 185.616 C 187.316 187.871,188.920 192.231,190.622 197.800 C 191.159 199.560,192.043 202.260,192.585 203.800 C 193.127 205.340,193.861 208.220,194.215 210.200 C 194.569 212.180,195.199 214.923,195.615 216.295 C 196.031 217.667,196.660 220.907,197.014 223.495 C 198.860 236.998,202.082 239.963,203.215 229.200 C 203.688 224.712,204.365 221.100,205.577 216.600 C 205.992 215.060,206.454 212.903,206.604 211.807 C 206.754 210.711,207.291 208.713,207.798 207.368 C 208.304 206.022,209.031 203.499,209.413 201.761 C 209.795 200.022,210.507 197.790,210.994 196.800 C 211.481 195.810,212.188 193.740,212.565 192.200 C 212.942 190.660,213.481 189.040,213.764 188.600 C 214.046 188.160,214.659 186.773,215.126 185.518 C 215.593 184.263,216.701 181.812,217.588 180.072 C 218.474 178.331,219.200 176.789,219.200 176.645 C 219.200 176.501,219.629 175.712,220.154 174.891 C 222.209 171.678,221.922 170.453,218.786 169.064 C 216.043 167.850,212.569 164.021,211.755 161.316 C 210.658 157.672,211.474 148.940,213.158 146.292 C 213.609 145.581,214.424 144.054,214.968 142.898 C 216.211 140.258,217.168 139.839,221.211 140.163 C 223.711 140.363,224.800 140.236,227.634 139.414 C 229.511 138.870,232.117 138.304,233.424 138.157 C 238.818 137.549,239.075 137.023,239.258 126.249 L 239.400 117.899 238.317 117.084 C 235.866 115.240,230.400 116.197,230.400 118.469 C 230.400 119.965,227.170 126.792,225.676 128.453 C 222.154 132.370,219.387 131.904,214.669 126.600 C 212.345 123.987,211.700 123.154,209.902 120.450 C 208.908 118.954,209.033 117.157,210.257 115.356 C 210.838 114.500,211.716 112.619,212.207 111.177 C 212.698 109.734,213.375 108.022,213.710 107.374 C 215.549 103.819,216.141 90.455,214.640 86.417 C 213.363 82.983,215.129 81.036,223.000 77.198 C 230.497 73.542,235.127 78.779,233.470 89.043 C 232.852 92.877,237.079 94.815,238.848 91.510 C 239.764 89.798,239.068 79.019,237.848 76.031 C 236.247 72.107,236.320 71.855,240.099 68.263 C 246.312 62.359,251.372 60.757,255.890 63.263 C 261.890 66.592,265.017 71.260,263.208 74.188 C 262.179 75.852,261.618 79.859,261.608 85.611 C 261.599 91.008,262.001 92.000,264.197 92.000 C 266.627 92.000,267.318 92.552,269.272 96.053 C 274.703 105.784,272.660 114.351,264.900 114.391 C 261.594 114.408,260.947 116.258,261.400 124.400 C 261.756 130.803,262.034 131.436,264.423 131.295 C 269.392 131.000,270.123 131.929,269.556 137.821 C 269.346 140.010,269.024 143.607,268.841 145.815 C 268.489 150.066,267.947 151.579,266.196 153.200 C 264.334 154.923,264.350 160.442,266.233 166.207 C 267.076 168.787,267.475 182.069,266.840 186.400 C 266.191 190.829,265.292 197.538,264.590 203.200 C 263.947 208.376,261.833 217.966,260.178 223.207 C 259.655 224.861,258.946 227.556,258.601 229.197 C 258.256 230.837,257.529 233.118,256.986 234.266 C 256.443 235.414,255.731 237.625,255.404 239.181 C 255.077 240.736,254.333 242.948,253.751 244.096 C 251.202 249.126,252.181 252.373,257.000 254.878 C 257.880 255.336,259.410 256.324,260.400 257.073 C 262.206 258.441,263.669 259.477,266.546 261.422 C 272.841 265.680,284.307 277.026,291.000 285.619 C 291.880 286.749,293.275 288.478,294.100 289.461 C 294.925 290.444,295.600 291.411,295.600 291.610 C 295.600 291.809,296.119 292.563,296.753 293.286 C 297.388 294.009,298.423 295.439,299.053 296.465 C 303.051 302.968,304.752 305.922,305.004 306.800 C 305.162 307.350,305.675 308.430,306.145 309.200 C 307.376 311.218,309.562 316.914,310.445 320.400 C 310.862 322.050,311.660 324.873,312.218 326.673 C 315.399 336.939,315.533 364.052,312.441 371.895 C 312.001 373.011,311.357 375.066,311.009 376.462 C 310.039 380.349,304.562 392.166,302.786 394.200 C 301.993 395.110,300.000 398.962,300.000 399.587 C 300.000 399.867,308.376 400.000,326.000 400.000 C 348.844 400.000,352.000 399.927,352.000 399.400 C 352.000 399.032,352.374 398.800,352.967 398.800 C 354.410 398.800,357.330 397.407,357.903 396.444 C 358.260 395.847,358.808 395.600,359.780 395.600 C 360.535 395.600,361.264 395.420,361.400 395.200 C 361.536 394.980,361.986 394.800,362.401 394.800 C 362.815 394.800,363.422 394.419,363.748 393.953 C 364.074 393.488,365.479 392.715,366.870 392.237 C 368.767 391.584,369.531 391.095,369.922 390.283 C 370.209 389.688,370.620 389.200,370.836 389.200 C 371.051 389.200,372.486 387.929,374.025 386.375 C 375.563 384.821,377.444 383.290,378.204 382.973 C 379.097 382.599,379.676 382.037,379.840 381.383 C 380.000 380.747,380.576 380.170,381.393 379.829 C 382.259 379.467,382.785 378.915,382.971 378.174 C 383.124 377.562,384.447 375.899,385.909 374.480 C 388.634 371.834,389.600 370.451,389.600 369.194 C 389.600 368.801,390.212 368.118,390.960 367.677 C 391.851 367.151,392.412 366.458,392.585 365.666 C 392.731 365.002,393.289 364.171,393.825 363.820 C 394.361 363.469,394.800 362.836,394.800 362.414 C 394.800 361.992,394.980 361.536,395.200 361.400 C 395.420 361.264,395.600 360.538,395.600 359.786 C 395.600 358.787,395.857 358.250,396.551 357.795 C 397.662 357.067,398.631 354.664,399.008 351.700 C 399.155 350.546,399.438 349.500,399.637 349.377 C 400.131 349.072,400.123 50.800,399.629 50.800 C 399.425 50.800,399.139 49.765,398.993 48.500 C 398.620 45.257,397.971 43.605,396.700 42.664 C 395.980 42.131,395.600 41.482,395.600 40.787 C 395.600 39.711,394.778 38.726,393.500 38.273 C 392.992 38.093,392.800 37.588,392.800 36.431 C 392.800 34.279,392.127 32.950,390.748 32.379 C 390.117 32.117,389.600 31.599,389.600 31.227 C 389.600 29.977,388.065 27.358,387.066 26.903 C 386.521 26.655,385.750 25.900,385.352 25.226 C 384.953 24.552,384.410 24.000,384.145 24.000 C 383.879 24.000,383.448 23.352,383.187 22.561 C 382.886 21.649,382.229 20.836,381.395 20.344 C 380.671 19.917,379.969 19.131,379.835 18.599 C 379.660 17.902,379.147 17.496,378.004 17.154 C 377.109 16.886,376.314 16.360,376.184 15.949 C 376.057 15.549,375.481 14.991,374.905 14.711 C 374.328 14.430,373.574 13.702,373.228 13.093 C 372.548 11.894,370.092 10.400,368.801 10.400 C 368.356 10.400,368.000 10.134,368.000 9.800 C 368.000 8.881,366.513 7.600,365.446 7.600 C 364.870 7.600,364.233 7.204,363.838 6.602 C 363.137 5.531,360.863 4.400,359.413 4.400 C 358.924 4.400,358.192 4.033,357.787 3.585 C 356.647 2.326,353.703 1.200,351.549 1.200 C 350.083 1.200,349.600 1.051,349.600 0.600 C 349.600 -0.314,51.006 -0.314,50.655 0.600 M320.449 61.248 C 322.028 61.586,323.004 62.133,324.455 63.490 C 326.956 65.829,327.032 66.193,325.782 69.815 C 323.313 76.968,324.075 77.266,340.913 75.738 C 343.127 75.537,343.272 75.582,344.313 76.795 C 344.911 77.492,345.894 78.613,346.497 79.287 C 351.123 84.454,352.002 90.234,348.587 93.032 C 346.281 94.921,345.283 95.111,335.878 95.443 C 326.720 95.766,325.710 96.051,324.896 98.543 C 324.171 100.763,324.832 102.989,326.467 103.835 C 328.672 104.975,338.011 104.485,340.687 103.089 C 343.323 101.713,343.326 101.714,345.844 103.448 C 350.809 106.867,354.601 113.671,353.831 117.776 C 353.446 119.828,349.870 122.280,346.828 122.580 C 339.750 123.276,339.061 123.726,339.288 127.508 C 339.513 131.254,341.091 132.313,345.212 131.482 C 352.178 130.077,358.291 147.453,352.684 152.721 C 351.018 154.286,349.137 154.811,346.751 154.375 C 342.575 153.613,341.409 153.562,340.400 154.095 L 339.400 154.623 339.200 176.012 C 338.970 200.562,339.233 198.841,335.086 202.988 C 327.315 210.759,314.959 205.797,313.935 194.495 C 313.105 185.337,307.838 178.613,304.948 183.023 C 304.579 183.586,303.630 184.405,302.839 184.844 C 302.048 185.283,300.689 186.070,299.820 186.594 C 294.333 189.903,288.136 187.265,286.032 180.724 C 284.891 177.178,283.147 173.947,281.215 171.800 C 277.823 168.031,278.250 166.301,283.410 162.895 C 291.700 157.423,300.619 159.148,305.850 167.235 C 307.174 169.282,307.699 170.543,307.875 172.099 C 308.381 176.586,310.167 177.420,314.039 174.975 C 316.095 173.678,316.339 172.614,316.648 163.635 C 316.956 154.692,316.763 154.015,313.900 153.988 C 313.185 153.981,304.950 153.936,295.600 153.888 L 278.600 153.800 276.697 152.681 C 270.935 149.294,271.963 141.691,279.101 134.900 L 281.309 132.800 286.354 132.765 C 300.580 132.667,314.648 132.145,315.476 131.685 C 316.655 131.029,317.077 128.230,316.343 125.930 C 315.605 123.616,315.494 123.603,300.240 124.066 C 293.178 124.280,286.070 124.343,284.444 124.206 C 274.241 123.345,272.676 114.689,281.080 105.600 C 281.181 105.490,285.462 105.310,290.591 105.200 C 301.060 104.976,301.358 104.892,301.695 102.075 C 302.308 96.951,301.159 96.314,291.885 96.635 C 277.652 97.127,273.834 93.401,278.665 83.732 C 281.540 77.978,282.015 77.761,291.986 77.653 C 300.919 77.556,301.200 77.462,301.200 74.576 C 301.200 73.214,300.917 72.537,299.781 71.178 C 298.590 69.752,298.405 69.281,298.629 68.240 C 299.141 65.851,299.206 65.798,306.074 62.139 C 308.472 60.862,316.368 60.373,320.449 61.248 M65.875 69.834 C 76.346 73.028,80.420 87.500,72.740 94.223 C 65.553 100.516,57.422 99.916,54.797 92.900 C 54.326 91.640,53.803 90.428,53.635 90.205 C 53.467 89.982,52.921 88.681,52.421 87.312 C 51.921 85.944,51.250 84.607,50.929 84.341 C 50.609 84.076,50.069 83.305,49.730 82.629 C 49.390 81.953,48.482 80.742,47.712 79.938 C 45.718 77.855,46.243 76.397,50.099 73.321 C 55.226 69.230,60.253 68.119,65.875 69.834 M65.470 109.356 C 79.257 114.045,81.054 130.098,68.528 136.682 C 62.920 139.631,56.820 137.998,55.059 133.076 C 52.938 127.150,49.993 121.835,47.580 119.581 C 42.410 114.752,56.932 106.452,65.470 109.356 M78.146 143.000 C 78.018 144.897,76.788 150.017,75.839 152.600 C 71.602 164.134,71.630 177.134,75.914 186.600 C 76.893 188.764,77.000 189.452,77.000 193.600 L 77.000 198.200 75.436 200.711 C 70.087 209.302,60.910 210.698,54.073 203.961 C 46.162 196.167,44.927 184.434,50.794 172.811 C 53.892 166.676,54.932 159.461,53.838 151.700 L 53.486 149.200 54.501 149.200 C 55.059 149.200,56.749 149.581,58.257 150.047 C 64.199 151.882,67.379 150.813,72.800 145.159 C 75.968 141.854,78.286 140.918,78.146 143.000 M133.170 147.433 C 131.396 149.323,131.781 165.600,133.600 165.600 C 134.471 165.600,134.465 165.619,135.356 160.000 C 135.756 157.475,136.435 155.169,137.379 153.126 C 138.982 149.658,139.044 149.233,138.190 147.580 C 137.345 145.946,134.639 145.867,133.170 147.433 M151.972 213.300 C 151.802 218.715,152.052 220.655,153.212 222.906 C 153.991 224.418,154.400 225.807,154.400 226.942 C 154.400 229.338,155.352 232.271,156.408 233.126 C 157.118 233.701,157.350 234.449,157.596 236.955 C 157.806 239.105,158.155 240.413,158.722 241.180 C 159.174 241.792,159.819 242.949,160.154 243.752 C 161.267 246.416,164.069 245.831,164.548 242.835 C 164.833 241.053,161.374 233.338,159.293 231.114 C 158.257 230.006,157.670 227.708,157.624 224.578 C 157.608 223.527,157.208 222.331,156.484 221.178 C 155.871 220.200,155.033 218.230,154.623 216.800 C 153.816 213.989,153.010 212.400,152.391 212.400 C 152.176 212.400,151.987 212.805,151.972 213.300 M165.628 272.039 C 164.373 272.541,165.026 273.230,167.600 274.121 C 176.114 277.066,180.134 280.734,181.391 286.704 C 182.172 290.413,186.941 290.102,187.948 286.277 C 188.870 282.769,183.370 275.808,178.232 273.983 C 176.894 273.507,174.957 272.777,173.926 272.359 C 171.885 271.532,167.335 271.357,165.628 272.039 M226.279 272.569 C 225.222 273.136,224.088 273.600,223.759 273.600 C 221.216 273.600,213.721 280.021,212.620 283.142 C 210.654 288.718,216.527 291.474,218.807 286.046 C 220.352 282.367,222.133 279.590,224.501 277.163 L 227.075 274.526 230.602 273.879 C 236.056 272.877,236.354 271.890,231.268 271.671 C 228.587 271.555,227.957 271.669,226.279 272.569 M191.742 296.607 C 191.467 297.323,192.329 299.600,192.875 299.600 C 193.828 299.600,194.800 298.691,194.800 297.800 C 194.800 296.281,192.249 295.286,191.742 296.607 M165.800 328.575 C 165.580 328.660,164.900 328.840,164.290 328.975 C 160.859 329.733,160.449 334.664,163.407 339.582 C 164.393 341.222,165.200 342.717,165.200 342.904 C 165.200 343.091,165.952 344.352,166.872 345.705 C 167.791 347.059,169.036 349.488,169.638 351.102 C 170.240 352.717,170.912 354.254,171.131 354.519 C 171.350 354.783,171.812 356.096,172.159 357.436 C 172.866 360.172,175.577 365.698,177.517 368.360 C 178.223 369.328,178.800 370.267,178.800 370.448 C 178.800 370.932,182.591 376.794,183.883 378.308 C 184.497 379.028,185.630 380.309,186.400 381.157 C 187.170 382.004,188.096 383.035,188.458 383.449 C 195.161 391.101,205.726 390.543,214.200 382.089 C 215.080 381.212,216.185 380.297,216.655 380.057 C 217.125 379.817,218.603 377.951,219.940 375.910 C 221.276 373.870,222.781 371.677,223.285 371.038 C 223.788 370.398,224.740 368.839,225.400 367.573 C 228.965 360.735,230.400 357.809,230.400 357.381 C 230.400 356.577,231.887 352.195,232.945 349.883 C 233.495 348.680,234.960 344.543,236.199 340.689 C 239.677 329.879,239.437 329.338,231.400 329.878 C 228.760 330.055,223.838 330.145,220.463 330.078 C 212.791 329.926,212.678 329.979,211.988 334.070 C 210.729 341.535,201.964 344.479,192.552 340.599 C 190.092 339.585,187.965 333.656,189.387 331.776 C 191.198 329.383,189.817 329.010,179.000 328.974 C 173.940 328.957,168.990 328.825,168.000 328.682 C 167.010 328.538,166.020 328.490,165.800 328.575 M213.600 376.837 C 213.600 377.078,213.233 377.371,212.784 377.488 C 212.335 377.606,211.701 378.219,211.374 378.851 C 210.878 379.810,210.534 379.997,209.290 379.984 L 207.800 379.968 208.900 379.371 C 209.505 379.043,210.000 378.523,210.000 378.216 C 210.000 377.287,211.186 376.400,212.429 376.400 C 213.073 376.400,213.600 376.597,213.600 376.837 " stroke="none" fill="#fa0e37" fill-rule="evenodd"></path></g></svg>