<?xml version="1.0" standalone="no"?><!DOCTYPE svg PUBLIC "-//W3C//DTD SVG 1.1//EN" "http://www.w3.org/Graphics/SVG/1.1/DTD/svg11.dtd"><svg t="1707717541192" class="icon" viewBox="0 0 1027 1024" version="1.1" xmlns="http://www.w3.org/2000/svg" p-id="13132" xmlns:xlink="http://www.w3.org/1999/xlink" width="48.140625" height="48"><path d="M793.163 1017.226H231.278c-124.837 0-226.139-101.3-226.139-226.139V229.432C5.14 104.596 106.441 3.294 231.278 3.294h561.655c124.837 0 226.139 101.302 226.139 226.138v561.655c0 124.839-101.07 226.139-225.91 226.139z" fill="#FF8155" opacity=".42" p-id="13133"></path><path d="M1017.455 812.778c0.693-7.152 1.156-14.305 1.156-21.69V614.098L410.11 5.37l7.848-2.075H230.817c-8.077 0-16.153 0.462-24.23 1.384l615.189 606.19-400.588 406.358H621.25l297.44-301.827 98.764 97.379z" fill="#E8E8E8" p-id="13134"></path><path d="M1018.61 614.1V229.431c0-124.836-101.301-226.138-226.14-226.138H417.96l-7.847 2.077 608.499 608.728z" fill="#FF8155" p-id="13135"></path><path d="M1018.61 614.1V229.431c0-124.836-101.301-226.138-226.14-226.138H417.96l-7.847 2.077 608.499 608.728z" fill="#00C562" p-id="13136"></path><path d="M206.588 4.678c-113.532 12-201.91 108.223-201.91 224.754v561.655c0 124.839 101.3 226.139 226.139 226.139h190.37l400.36-406.358L206.586 4.68z" fill="#3776FF" p-id="13137"></path><path d="M1017.455 812.778l-98.761-97.379-297.44 301.827H792.47c117.455 0 214.14-89.763 224.987-204.448z" fill="#FF8155" p-id="13138"></path><path d="M1017.455 812.778l-98.761-97.379-297.44 301.827H792.47c117.455 0 214.14-89.763 224.987-204.448z" fill="#C1C1C1" p-id="13139"></path><path d="M617.79 571.18c29.536-32.076 54.228-68.766 73.38-109.379l130.837-278.286c5.54-11.769-9.46-26.075-20.998-20.306L527.566 303.967a436.183 436.183 0 0 0-106.84 77.302c40.614 35.535 80.073 70.841 101.764 91.61 21.459 21.23 57.919 58.84 95.3 98.3z" fill="#F94A13" p-id="13140"></path><path d="M522.258 473.108c-21.69-20.766-61.15-56.073-101.763-91.61-35.766 35.307-65.3 77.074-87.225 123.686L202.435 783.472c-5.538 11.768 9.461 26.075 21 20.308l273.44-140.762c45.922-23.766 86.535-54.688 120.686-91.839-37.15-39.46-73.61-77.07-95.301-98.07z" fill="#FFFFFF" p-id="13141"></path></svg>