<?xml version="1.0" standalone="no"?><!DOCTYPE svg PUBLIC "-//W3C//DTD SVG 1.1//EN" "http://www.w3.org/Graphics/SVG/1.1/DTD/svg11.dtd"><svg t="1707716097602" class="icon" viewBox="0 0 1107 1024" version="1.1" xmlns="http://www.w3.org/2000/svg" p-id="9310" xmlns:xlink="http://www.w3.org/1999/xlink" width="51.890625" height="48"><path d="M196.2714032 159.47133787c6.76612003-53.1623717 48.05326064-90.16890575 92.65441922-99.8347915 23.75046215-5.24719513 46.8105039-2.3474294 69.4562934 5.66144738 134.35581209 47.77709247 261.25508371 110.74343402 382.63099207 185.44692254 76.4985816 47.08667206 150.51164972 97.6254462 216.51584105 159.0728628 9.3897176 8.83738127 18.64135111 17.81284661 26.23597565 28.16915279 29.41190953 40.04438386 32.58784341 80.64110406 5.3852792 122.20441286-26.37405971 40.32055203-62.27592112 72.07989097-101.21563232 100.24904373-15.32733314 11.04672658-29.41190953 23.88854624-44.87732676 34.65910467-62.69017337 43.49648592-128.55628063 81.60769264-194.83664012 119.44273119-94.17334414 53.57662394-192.21304257 98.3158666-294.11909532 134.35581209-73.3226477 25.95980747-149.68314522-21.67920092-159.07286281-98.03969845 108.81025686-34.3829365 214.5826639-75.94624527 315.93638031-128.83244879 41.2871406-21.54111683 82.7123653-42.66798143 122.75674917-66.41844358 42.80606551-25.54555523 84.64554245-52.74811943 122.480581-85.19787878 49.29601739-42.1156451 43.08223369-89.61656942 2.3474294-128.83244879-15.46541722-14.91308089-33.69251609-27.06448014-51.22919453-39.63013163-59.79040765-42.66798143-124.41375815-77.05091792-189.589445-110.74343401-49.98643779-25.8217234-101.90605275-47.63900839-153.54949954-69.87054564-34.52102059-14.91308089-70.00862973-27.75490053-105.91049112-39.63013162-20.85069643-6.76612003-42.66798143-11.32289475-61.99975295-22.23153726z" fill="#2DA7F9" p-id="9311"></path><path d="M196.2714032 159.47133787c19.33177153 10.90864251 41.14905653 15.46541722 61.99975295 22.23153726 35.9018614 11.737147 71.25138647 24.57896666 105.91049112 39.63013162 51.64344678 22.36962133 103.56306173 44.18690634 153.54949954 69.87054564 65.03760276 33.554432 129.66095328 68.07545259 189.589445 110.74343401 17.53667845 12.56565149 35.76377732 24.71705073 51.22919453 39.63013163 40.73480429 39.21587937 46.94858799 86.7168037-2.3474294 128.83244879-37.97312263 32.44975935-79.67451549 59.65232355-122.480581 85.19787878-40.04438386 23.88854624-81.46960857 44.87732675-122.75674917 66.41844358-101.35371642 52.88620353-207.12612347 94.4495123-315.93638031 128.83244879l-1.24275674-0.82850449c-0.41425225-4.69485881-0.55233633-9.3897176-1.38084083-14.08457639-14.7749968-83.54086979-24.1647144-167.77216-26.78831197-252.41770246-3.1759339-99.69670741-1.24275675-199.39341485 11.59906292-298.53778594 5.3852792-41.14905653 10.77055842-82.16002898 18.08901478-122.89483326 0.13808409-0.8285045 0.55233633-1.79509307 0.96658858-2.62359756z m92.65441922 369.51300426c0 11.59906291-0.96658859 23.19812583 0.13808409 34.79718873 2.76168163 29.13574137-0.8285045 58.96190314 9.38971759 87.26914002 5.10911105 14.22266047 10.35630617 17.9509307 24.85513482 14.63691273 13.67032415-3.1759339 27.06448014-7.7327086 39.90629978-13.53224007 30.79275037-13.80840823 61.17124846-28.30723687 91.41166249-43.22031776 47.91517657-23.47429398 95.41610087-47.36284023 139.18875496-78.01750652 26.92639605-18.91751926 26.37405971-30.10232993 0-49.15793329-31.2070026-22.50770542-64.20909827-41.83947694-98.17778251-59.92849172-50.12452187-26.92639605-100.80138009-52.05769902-154.51608811-70.56096606-35.07335691-12.01331517-43.49648592-6.35186779-47.91517655 31.34508669-5.79953147 48.60559698-4.97102697 97.4873621-4.28060656 146.36912725z" fill="#8BDC18" p-id="9312"></path><path d="M195.02864646 162.09493543c-7.31845635 40.73480429-12.70373557 81.8838608-18.08901479 122.89483326-12.84181965 99.28245518-14.7749968 198.84107852-11.59906292 298.53778594 2.62359757 84.64554245 12.01331517 168.87683265 26.78831199 252.41770246 0.8285045 4.55677472 0.96658859 9.3897176 1.38084081 14.08457639-16.15583763 6.2137837-32.86401158 9.80396985-50.12452188 10.49439025-38.9397112 1.65700898-68.07545259-14.91308089-86.99297185-48.60559697-19.46985561-34.65910465-27.75490053-72.90839547-33.41634791-111.57193849-14.22266047-98.59203476-10.49439025-197.87448993-8.5612131-297.01886104 1.10467265-57.30489415 7.87079269-113.9193679 26.92639604-168.32449633 13.67032415-38.9397112 36.45419773-69.04204115 78.846011-79.26026325 25.54555523-5.93761554 50.40069004-1.65700898 74.84157261 6.35186778z" fill="#FE9303" p-id="9313"></path></svg>