<svg xmlns="http://www.w3.org/2000/svg" version="1.1" viewBox="0.00 0.00 48.00 48.00" width="48.00" height="48.00">
<g stroke-width="2.00" fill="none" stroke-linecap="butt">
<path stroke="#750806" d="&#10;  M 48.00 30.85&#10;  Q 47.67 32.32 47.30 33.23&#10;  Q 46.90 34.18 46.94 33.15&#10;  Q 46.99 31.78 46.13 31.06&#10;  C 43.31 28.69 40.47 31.71 39.03 34.23&#10;  C 37.67 36.60 34.91 37.60 32.23 37.43&#10;  Q 23.94 36.90 15.07 37.27&#10;  C 10.99 37.43 9.29 34.67 7.03 31.97&#10;  Q 4.79 29.29 2.15 30.62&#10;  A 1.64 1.62 -0.8 0 0 1.41 31.37&#10;  Q 1.03 32.19 0.98 33.12&#10;  Q 0.92 34.14 0.58 33.18&#10;  Q 0.18 32.02 0.00 30.73"/>
<path stroke="#f3827f" d="&#10;  M 37.59 9.67&#10;  Q 36.35 9.89 35.10 9.65&#10;  A 1.00 1.00 0.0 0 1 34.33 8.97&#10;  Q 34.26 8.75 34.10 8.59&#10;  Q 33.63 8.11 33.09 8.51&#10;  L 31.17 9.93&#10;  Q 30.25 10.62 31.10 11.39&#10;  L 32.42 12.58&#10;  Q 33.21 13.30 34.04 12.63&#10;  Q 36.52 10.62 39.02 12.66&#10;  Q 39.61 13.14 40.25 12.71&#10;  L 42.36 11.26&#10;  A 0.62 0.61 -44.5 0 0 42.37 10.25&#10;  L 40.04 8.61&#10;  Q 39.39 8.15 38.86 8.74&#10;  L 38.47 9.18&#10;  Q 38.11 9.58 37.59 9.67"/>
<path stroke="#f3827f" d="&#10;  M 12.85 17.39&#10;  Q 11.09 21.18 6.42 24.01&#10;  A 1.01 1.01 0.0 0 0 5.98 25.21&#10;  L 6.07 25.49&#10;  A 0.62 0.61 -22.1 0 0 6.92 25.84&#10;  Q 11.47 23.62 13.96 19.52&#10;  A 0.35 0.35 0.0 0 1 14.56 19.52&#10;  Q 17.00 23.66 21.70 25.82&#10;  A 0.49 0.49 0.0 0 0 22.34 25.61&#10;  L 22.48 25.36&#10;  Q 22.85 24.68 22.20 24.25&#10;  C 19.63 22.52 16.79 20.36 15.63 17.39&#10;  Q 15.29 16.52 16.22 16.52&#10;  L 22.20 16.49&#10;  Q 22.89 16.49 22.88 15.80&#10;  L 22.87 15.35&#10;  Q 22.85 14.59 22.10 14.60&#10;  L 15.70 14.63&#10;  A 0.45 0.44 88.0 0 1 15.25 14.20&#10;  L 15.09 10.91&#10;  Q 15.07 10.40 15.58 10.40&#10;  L 21.35 10.35&#10;  A 0.68 0.68 0.0 0 0 22.02 9.66&#10;  L 22.01 9.22&#10;  Q 21.99 8.45 21.22 8.45&#10;  L 6.74 8.51&#10;  A 0.49 0.49 0.0 0 0 6.25 9.01&#10;  L 6.26 9.45&#10;  Q 6.28 10.38 7.20 10.38&#10;  L 12.71 10.41&#10;  A 0.55 0.54 90.0 0 1 13.25 10.96&#10;  L 13.23 14.03&#10;  Q 13.23 14.54 12.72 14.54&#10;  L 6.47 14.58&#10;  Q 5.77 14.58 5.64 15.27&#10;  L 5.56 15.71&#10;  A 0.68 0.67 5.4 0 0 6.22 16.50&#10;  L 12.29 16.51&#10;  Q 13.26 16.51 12.85 17.39"/>
<path stroke="#f3827f" d="&#10;  M 27.71 16.50&#10;  Q 27.57 17.12 26.99 17.40&#10;  L 25.19 18.26&#10;  A 0.72 0.71 -19.6 0 0 24.81 19.05&#10;  L 24.96 19.69&#10;  Q 25.10 20.33 25.70 20.07&#10;  L 26.97 19.54&#10;  A 0.64 0.64 0.0 0 1 27.83 20.30&#10;  Q 27.10 22.87 24.90 24.46&#10;  A 0.43 0.42 61.6 0 0 24.76 24.96&#10;  L 24.87 25.25&#10;  Q 25.23 26.17 26.09 25.69&#10;  Q 29.48 23.76 29.53 19.96&#10;  Q 29.58 15.71 29.48 11.67&#10;  C 29.43 9.37 27.24 8.28 25.15 8.45&#10;  Q 24.59 8.50 24.47 9.05&#10;  Q 24.35 9.66 24.80 10.14&#10;  A 0.95 0.92 63.8 0 0 25.59 10.42&#10;  Q 26.14 10.36 26.63 10.48&#10;  A 1.33 1.33 0.0 0 1 26.99 12.90&#10;  C 26.12 13.43 24.74 13.75 24.70 14.99&#10;  A 0.65 0.65 0.0 0 0 25.54 15.64&#10;  L 27.10 15.15&#10;  Q 28.10 14.83 27.86 15.85&#10;  L 27.71 16.50"/>
<path stroke="#f3827f" d="&#10;  M 32.90 26.07&#10;  C 35.09 26.29 38.03 26.50 40.18 26.07&#10;  Q 42.34 25.64 42.43 23.17&#10;  Q 42.57 18.99 42.44 15.09&#10;  Q 42.41 14.49 41.81 14.49&#10;  L 31.51 14.50&#10;  Q 30.87 14.50 30.82 15.14&#10;  Q 30.41 19.77 30.75 23.90&#10;  A 2.39 2.38 0.3 0 0 32.90 26.07"/>
<path stroke="#f3827f" d="&#10;  M 35.5135 17.1017&#10;  A 0.72 0.72 0.0 0 0 34.7520 16.4257&#10;  L 33.1748 16.5194&#10;  A 0.72 0.72 0.0 0 0 32.4988 17.2809&#10;  L 32.5865 18.7583&#10;  A 0.72 0.72 0.0 0 0 33.3480 19.4343&#10;  L 34.9252 19.3406&#10;  A 0.72 0.72 0.0 0 0 35.6012 18.5791&#10;  L 35.5135 17.1017"/>
<path stroke="#f3827f" d="&#10;  M 40.4942 17.3463&#10;  A 0.94 0.94 0.0 0 0 39.5775 16.3837&#10;  L 38.4978 16.3573&#10;  A 0.94 0.94 0.0 0 0 37.5351 17.2740&#10;  L 37.5058 18.4737&#10;  A 0.94 0.94 0.0 0 0 38.4225 19.4363&#10;  L 39.5022 19.4627&#10;  A 0.94 0.94 0.0 0 0 40.4649 18.5460&#10;  L 40.4942 17.3463"/>
<path stroke="#f3827f" d="&#10;  M 35.6248 22.3235&#10;  A 0.88 0.88 0.0 0 0 34.7525 21.4359&#10;  L 33.4126 21.4242&#10;  A 0.88 0.88 0.0 0 0 32.5249 22.2965&#10;  L 32.5152 23.4165&#10;  A 0.88 0.88 0.0 0 0 33.3875 24.3041&#10;  L 34.7274 24.3158&#10;  A 0.88 0.88 0.0 0 0 35.6151 23.4435&#10;  L 35.6248 22.3235"/>
<path stroke="#f3827f" d="&#10;  M 40.5074 22.1759&#10;  A 0.72 0.72 0.0 0 0 39.7949 21.4484&#10;  L 38.2150 21.4318&#10;  A 0.72 0.72 0.0 0 0 37.4875 22.1442&#10;  L 37.4726 23.5641&#10;  A 0.72 0.72 0.0 0 0 38.1851 24.2916&#10;  L 39.7650 24.3082&#10;  A 0.72 0.72 0.0 0 0 40.4925 23.5958&#10;  L 40.5074 22.1759"/>
<path stroke="#7f7f80" d="&#10;  M 42.66 48.00&#10;  Q 43.94 45.81 43.41 43.59&#10;  C 41.91 37.38 33.40 37.09 31.55 43.25&#10;  Q 30.86 45.56 32.18 48.00"/>
<path stroke="#7f7f80" d="&#10;  M 15.89 48.00&#10;  Q 18.01 42.47 13.95 39.87&#10;  C 8.20 36.18 2.63 42.16 5.19 48.00"/>
<path stroke="#7f7f80" d="&#10;  M 25.38 44.86&#10;  L 22.64 44.86&#10;  A 0.22 0.22 0.0 0 0 22.42 45.08&#10;  L 22.42 45.18&#10;  A 1.80 1.50 -89.9 0 0 23.92 46.98&#10;  L 24.10 46.98&#10;  A 1.80 1.50 -89.9 0 0 25.60 45.18&#10;  L 25.60 45.08&#10;  A 0.22 0.22 0.0 0 0 25.38 44.86"/>
<path stroke="#7f7f80" d="&#10;  M 12.35 48.00&#10;  Q 13.50 43.34 11.51 39.77&#10;  A 1.13 1.13 0.0 0 0 9.49 39.87&#10;  Q 7.84 43.72 8.78 48.00"/>
<path stroke="#7f7f80" d="&#10;  M 39.24 48.00&#10;  C 39.73 45.62 39.96 41.24 38.00 39.45&#10;  A 0.94 0.93 34.9 0 0 36.54 39.71&#10;  Q 34.60 43.43 35.66 48.00"/>
</g>
<path fill="#e70f0a" d="&#10;  M 0.00 0.00&#10;  L 48.00 0.00&#10;  L 48.00 30.85&#10;  Q 47.67 32.32 47.30 33.23&#10;  Q 46.90 34.18 46.94 33.15&#10;  Q 46.99 31.78 46.13 31.06&#10;  C 43.31 28.69 40.47 31.71 39.03 34.23&#10;  C 37.67 36.60 34.91 37.60 32.23 37.43&#10;  Q 23.94 36.90 15.07 37.27&#10;  C 10.99 37.43 9.29 34.67 7.03 31.97&#10;  Q 4.79 29.29 2.15 30.62&#10;  A 1.64 1.62 -0.8 0 0 1.41 31.37&#10;  Q 1.03 32.19 0.98 33.12&#10;  Q 0.92 34.14 0.58 33.18&#10;  Q 0.18 32.02 0.00 30.73&#10;  L 0.00 0.00&#10;  Z&#10;  M 37.59 9.67&#10;  Q 36.35 9.89 35.10 9.65&#10;  A 1.00 1.00 0.0 0 1 34.33 8.97&#10;  Q 34.26 8.75 34.10 8.59&#10;  Q 33.63 8.11 33.09 8.51&#10;  L 31.17 9.93&#10;  Q 30.25 10.62 31.10 11.39&#10;  L 32.42 12.58&#10;  Q 33.21 13.30 34.04 12.63&#10;  Q 36.52 10.62 39.02 12.66&#10;  Q 39.61 13.14 40.25 12.71&#10;  L 42.36 11.26&#10;  A 0.62 0.61 -44.5 0 0 42.37 10.25&#10;  L 40.04 8.61&#10;  Q 39.39 8.15 38.86 8.74&#10;  L 38.47 9.18&#10;  Q 38.11 9.58 37.59 9.67&#10;  Z&#10;  M 12.85 17.39&#10;  Q 11.09 21.18 6.42 24.01&#10;  A 1.01 1.01 0.0 0 0 5.98 25.21&#10;  L 6.07 25.49&#10;  A 0.62 0.61 -22.1 0 0 6.92 25.84&#10;  Q 11.47 23.62 13.96 19.52&#10;  A 0.35 0.35 0.0 0 1 14.56 19.52&#10;  Q 17.00 23.66 21.70 25.82&#10;  A 0.49 0.49 0.0 0 0 22.34 25.61&#10;  L 22.48 25.36&#10;  Q 22.85 24.68 22.20 24.25&#10;  C 19.63 22.52 16.79 20.36 15.63 17.39&#10;  Q 15.29 16.52 16.22 16.52&#10;  L 22.20 16.49&#10;  Q 22.89 16.49 22.88 15.80&#10;  L 22.87 15.35&#10;  Q 22.85 14.59 22.10 14.60&#10;  L 15.70 14.63&#10;  A 0.45 0.44 88.0 0 1 15.25 14.20&#10;  L 15.09 10.91&#10;  Q 15.07 10.40 15.58 10.40&#10;  L 21.35 10.35&#10;  A 0.68 0.68 0.0 0 0 22.02 9.66&#10;  L 22.01 9.22&#10;  Q 21.99 8.45 21.22 8.45&#10;  L 6.74 8.51&#10;  A 0.49 0.49 0.0 0 0 6.25 9.01&#10;  L 6.26 9.45&#10;  Q 6.28 10.38 7.20 10.38&#10;  L 12.71 10.41&#10;  A 0.55 0.54 90.0 0 1 13.25 10.96&#10;  L 13.23 14.03&#10;  Q 13.23 14.54 12.72 14.54&#10;  L 6.47 14.58&#10;  Q 5.77 14.58 5.64 15.27&#10;  L 5.56 15.71&#10;  A 0.68 0.67 5.4 0 0 6.22 16.50&#10;  L 12.29 16.51&#10;  Q 13.26 16.51 12.85 17.39&#10;  Z&#10;  M 27.71 16.50&#10;  Q 27.57 17.12 26.99 17.40&#10;  L 25.19 18.26&#10;  A 0.72 0.71 -19.6 0 0 24.81 19.05&#10;  L 24.96 19.69&#10;  Q 25.10 20.33 25.70 20.07&#10;  L 26.97 19.54&#10;  A 0.64 0.64 0.0 0 1 27.83 20.30&#10;  Q 27.10 22.87 24.90 24.46&#10;  A 0.43 0.42 61.6 0 0 24.76 24.96&#10;  L 24.87 25.25&#10;  Q 25.23 26.17 26.09 25.69&#10;  Q 29.48 23.76 29.53 19.96&#10;  Q 29.58 15.71 29.48 11.67&#10;  C 29.43 9.37 27.24 8.28 25.15 8.45&#10;  Q 24.59 8.50 24.47 9.05&#10;  Q 24.35 9.66 24.80 10.14&#10;  A 0.95 0.92 63.8 0 0 25.59 10.42&#10;  Q 26.14 10.36 26.63 10.48&#10;  A 1.33 1.33 0.0 0 1 26.99 12.90&#10;  C 26.12 13.43 24.74 13.75 24.70 14.99&#10;  A 0.65 0.65 0.0 0 0 25.54 15.64&#10;  L 27.10 15.15&#10;  Q 28.10 14.83 27.86 15.85&#10;  L 27.71 16.50&#10;  Z&#10;  M 32.90 26.07&#10;  C 35.09 26.29 38.03 26.50 40.18 26.07&#10;  Q 42.34 25.64 42.43 23.17&#10;  Q 42.57 18.99 42.44 15.09&#10;  Q 42.41 14.49 41.81 14.49&#10;  L 31.51 14.50&#10;  Q 30.87 14.50 30.82 15.14&#10;  Q 30.41 19.77 30.75 23.90&#10;  A 2.39 2.38 0.3 0 0 32.90 26.07&#10;  Z"/>
<path fill="#fef4f3" d="&#10;  M 38.47 9.18&#10;  L 38.86 8.74&#10;  Q 39.39 8.15 40.04 8.61&#10;  L 42.37 10.25&#10;  A 0.62 0.61 -44.5 0 1 42.36 11.26&#10;  L 40.25 12.71&#10;  Q 39.61 13.14 39.02 12.66&#10;  Q 36.52 10.62 34.04 12.63&#10;  Q 33.21 13.30 32.42 12.58&#10;  L 31.10 11.39&#10;  Q 30.25 10.62 31.17 9.93&#10;  L 33.09 8.51&#10;  Q 33.63 8.11 34.10 8.59&#10;  Q 34.26 8.75 34.33 8.97&#10;  A 1.00 1.00 0.0 0 0 35.10 9.65&#10;  Q 36.35 9.89 37.59 9.67&#10;  Q 38.11 9.58 38.47 9.18&#10;  Z"/>
<path fill="#fef4f3" d="&#10;  M 12.29 16.51&#10;  L 6.22 16.50&#10;  A 0.68 0.67 5.4 0 1 5.56 15.71&#10;  L 5.64 15.27&#10;  Q 5.77 14.58 6.47 14.58&#10;  L 12.72 14.54&#10;  Q 13.23 14.54 13.23 14.03&#10;  L 13.25 10.96&#10;  A 0.55 0.54 -90.0 0 0 12.71 10.41&#10;  L 7.20 10.38&#10;  Q 6.28 10.38 6.26 9.45&#10;  L 6.25 9.01&#10;  A 0.49 0.49 0.0 0 1 6.74 8.51&#10;  L 21.22 8.45&#10;  Q 21.99 8.45 22.01 9.22&#10;  L 22.02 9.66&#10;  A 0.68 0.68 0.0 0 1 21.35 10.35&#10;  L 15.58 10.40&#10;  Q 15.07 10.40 15.09 10.91&#10;  L 15.25 14.20&#10;  A 0.45 0.44 88.0 0 0 15.70 14.63&#10;  L 22.10 14.60&#10;  Q 22.85 14.59 22.87 15.35&#10;  L 22.88 15.80&#10;  Q 22.89 16.49 22.20 16.49&#10;  L 16.22 16.52&#10;  Q 15.29 16.52 15.63 17.39&#10;  C 16.79 20.36 19.63 22.52 22.20 24.25&#10;  Q 22.85 24.68 22.48 25.36&#10;  L 22.34 25.61&#10;  A 0.49 0.49 0.0 0 1 21.70 25.82&#10;  Q 17.00 23.66 14.56 19.52&#10;  A 0.35 0.35 0.0 0 0 13.96 19.52&#10;  Q 11.47 23.62 6.92 25.84&#10;  A 0.62 0.61 -22.1 0 1 6.07 25.49&#10;  L 5.98 25.21&#10;  A 1.01 1.01 0.0 0 1 6.42 24.01&#10;  Q 11.09 21.18 12.85 17.39&#10;  Q 13.26 16.51 12.29 16.51&#10;  Z"/>
<path fill="#fef4f3" d="&#10;  M 27.10 15.15&#10;  L 25.54 15.64&#10;  A 0.65 0.65 0.0 0 1 24.70 14.99&#10;  C 24.74 13.75 26.12 13.43 26.99 12.90&#10;  A 1.33 1.33 0.0 0 0 26.63 10.48&#10;  Q 26.14 10.36 25.59 10.42&#10;  A 0.95 0.92 63.8 0 1 24.80 10.14&#10;  Q 24.35 9.66 24.47 9.05&#10;  Q 24.59 8.50 25.15 8.45&#10;  C 27.24 8.28 29.43 9.37 29.48 11.67&#10;  Q 29.58 15.71 29.53 19.96&#10;  Q 29.48 23.76 26.09 25.69&#10;  Q 25.23 26.17 24.87 25.25&#10;  L 24.76 24.96&#10;  A 0.43 0.42 61.6 0 1 24.90 24.46&#10;  Q 27.10 22.87 27.83 20.30&#10;  A 0.64 0.64 0.0 0 0 26.97 19.54&#10;  L 25.70 20.07&#10;  Q 25.10 20.33 24.96 19.69&#10;  L 24.81 19.05&#10;  A 0.72 0.71 -19.6 0 1 25.19 18.26&#10;  L 26.99 17.40&#10;  Q 27.57 17.12 27.71 16.50&#10;  L 27.86 15.85&#10;  Q 28.10 14.83 27.10 15.15&#10;  Z"/>
<path fill="#fef4f3" d="&#10;  M 32.90 26.07&#10;  A 2.39 2.38 0.3 0 1 30.75 23.90&#10;  Q 30.41 19.77 30.82 15.14&#10;  Q 30.87 14.50 31.51 14.50&#10;  L 41.81 14.49&#10;  Q 42.41 14.49 42.44 15.09&#10;  Q 42.57 18.99 42.43 23.17&#10;  Q 42.34 25.64 40.18 26.07&#10;  C 38.03 26.50 35.09 26.29 32.90 26.07&#10;  Z&#10;  M 35.5135 17.1017&#10;  A 0.72 0.72 0.0 0 0 34.7520 16.4257&#10;  L 33.1748 16.5194&#10;  A 0.72 0.72 0.0 0 0 32.4988 17.2809&#10;  L 32.5865 18.7583&#10;  A 0.72 0.72 0.0 0 0 33.3480 19.4343&#10;  L 34.9252 19.3406&#10;  A 0.72 0.72 0.0 0 0 35.6012 18.5791&#10;  L 35.5135 17.1017&#10;  Z&#10;  M 40.4942 17.3463&#10;  A 0.94 0.94 0.0 0 0 39.5775 16.3837&#10;  L 38.4978 16.3573&#10;  A 0.94 0.94 0.0 0 0 37.5351 17.2740&#10;  L 37.5058 18.4737&#10;  A 0.94 0.94 0.0 0 0 38.4225 19.4363&#10;  L 39.5022 19.4627&#10;  A 0.94 0.94 0.0 0 0 40.4649 18.5460&#10;  L 40.4942 17.3463&#10;  Z&#10;  M 35.6248 22.3235&#10;  A 0.88 0.88 0.0 0 0 34.7525 21.4359&#10;  L 33.4126 21.4242&#10;  A 0.88 0.88 0.0 0 0 32.5249 22.2965&#10;  L 32.5152 23.4165&#10;  A 0.88 0.88 0.0 0 0 33.3875 24.3041&#10;  L 34.7274 24.3158&#10;  A 0.88 0.88 0.0 0 0 35.6151 23.4435&#10;  L 35.6248 22.3235&#10;  Z&#10;  M 40.5074 22.1759&#10;  A 0.72 0.72 0.0 0 0 39.7949 21.4484&#10;  L 38.2150 21.4318&#10;  A 0.72 0.72 0.0 0 0 37.4875 22.1442&#10;  L 37.4726 23.5641&#10;  A 0.72 0.72 0.0 0 0 38.1851 24.2916&#10;  L 39.7650 24.3082&#10;  A 0.72 0.72 0.0 0 0 40.4925 23.5958&#10;  L 40.5074 22.1759&#10;  Z"/>
<rect fill="#e70f0a" x="-1.51" y="-1.46" transform="translate(34.05,17.93) rotate(-3.4)" width="3.02" height="2.92" rx="0.72"/>
<rect fill="#e70f0a" x="-1.48" y="-1.54" transform="translate(39.00,17.91) rotate(1.4)" width="2.96" height="3.08" rx="0.94"/>
<rect fill="#e70f0a" x="-1.55" y="-1.44" transform="translate(34.07,22.87) rotate(0.5)" width="3.10" height="2.88" rx="0.88"/>
<rect fill="#e70f0a" x="-1.51" y="-1.43" transform="translate(38.99,22.87) rotate(0.6)" width="3.02" height="2.86" rx="0.72"/>
<path fill="#020101" d="&#10;  M 48.00 30.85&#10;  L 48.00 48.00&#10;  L 42.66 48.00&#10;  Q 43.94 45.81 43.41 43.59&#10;  C 41.91 37.38 33.40 37.09 31.55 43.25&#10;  Q 30.86 45.56 32.18 48.00&#10;  L 15.89 48.00&#10;  Q 18.01 42.47 13.95 39.87&#10;  C 8.20 36.18 2.63 42.16 5.19 48.00&#10;  L 0.00 48.00&#10;  L 0.00 30.73&#10;  Q 0.18 32.02 0.58 33.18&#10;  Q 0.92 34.14 0.98 33.12&#10;  Q 1.03 32.19 1.41 31.37&#10;  A 1.64 1.62 -0.8 0 1 2.15 30.62&#10;  Q 4.79 29.29 7.03 31.97&#10;  C 9.29 34.67 10.99 37.43 15.07 37.27&#10;  Q 23.94 36.90 32.23 37.43&#10;  C 34.91 37.60 37.67 36.60 39.03 34.23&#10;  C 40.47 31.71 43.31 28.69 46.13 31.06&#10;  Q 46.99 31.78 46.94 33.15&#10;  Q 46.90 34.18 47.30 33.23&#10;  Q 47.67 32.32 48.00 30.85&#10;  Z&#10;  M 25.38 44.86&#10;  L 22.64 44.86&#10;  A 0.22 0.22 0.0 0 0 22.42 45.08&#10;  L 22.42 45.18&#10;  A 1.80 1.50 -89.9 0 0 23.92 46.98&#10;  L 24.10 46.98&#10;  A 1.80 1.50 -89.9 0 0 25.60 45.18&#10;  L 25.60 45.08&#10;  A 0.22 0.22 0.0 0 0 25.38 44.86&#10;  Z"/>
<path fill="#fcfdfe" d="&#10;  M 15.89 48.00&#10;  L 12.35 48.00&#10;  Q 13.50 43.34 11.51 39.77&#10;  A 1.13 1.13 0.0 0 0 9.49 39.87&#10;  Q 7.84 43.72 8.78 48.00&#10;  L 5.19 48.00&#10;  C 2.63 42.16 8.20 36.18 13.95 39.87&#10;  Q 18.01 42.47 15.89 48.00&#10;  Z"/>
<path fill="#fcfdfe" d="&#10;  M 42.66 48.00&#10;  L 39.24 48.00&#10;  C 39.73 45.62 39.96 41.24 38.00 39.45&#10;  A 0.94 0.93 34.9 0 0 36.54 39.71&#10;  Q 34.60 43.43 35.66 48.00&#10;  L 32.18 48.00&#10;  Q 30.86 45.56 31.55 43.25&#10;  C 33.40 37.09 41.91 37.38 43.41 43.59&#10;  Q 43.94 45.81 42.66 48.00&#10;  Z"/>
<path fill="#020101" d="&#10;  M 12.35 48.00&#10;  L 8.78 48.00&#10;  Q 7.84 43.72 9.49 39.87&#10;  A 1.13 1.13 0.0 0 1 11.51 39.77&#10;  Q 13.50 43.34 12.35 48.00&#10;  Z"/>
<path fill="#020101" d="&#10;  M 39.24 48.00&#10;  L 35.66 48.00&#10;  Q 34.60 43.43 36.54 39.71&#10;  A 0.94 0.93 34.9 0 1 38.00 39.45&#10;  C 39.96 41.24 39.73 45.62 39.24 48.00&#10;  Z"/>
<path fill="#fcfdfe" d="&#10;  M 25.38 44.86&#10;  A 0.22 0.22 0.0 0 1 25.60 45.08&#10;  L 25.60 45.18&#10;  A 1.80 1.50 -89.9 0 1 24.10 46.98&#10;  L 23.92 46.98&#10;  A 1.80 1.50 -89.9 0 1 22.42 45.18&#10;  L 22.42 45.08&#10;  A 0.22 0.22 0.0 0 1 22.64 44.86&#10;  L 25.38 44.86&#10;  Z"/>
</svg>