<svg id="svg" version="1.1" xmlns="http://www.w3.org/2000/svg" xmlns:xlink="http://www.w3.org/1999/xlink" width="47" height="47" viewBox="0 0 400 400"><g id="svgg"><path id="path0" d="M120.400 59.877 C 119.850 59.969,118.860 60.212,118.200 60.416 C 117.540 60.621,115.567 60.985,113.817 61.227 C 112.066 61.468,110.176 61.895,109.617 62.174 C 109.057 62.454,107.790 62.883,106.800 63.127 C 105.810 63.372,104.287 63.938,103.415 64.386 C 102.544 64.834,101.520 65.200,101.139 65.200 C 100.759 65.200,100.327 65.395,100.180 65.633 C 100.032 65.871,99.167 66.416,98.256 66.843 C 95.425 68.171,91.484 70.530,90.329 71.586 C 89.961 71.924,88.985 72.650,88.161 73.200 C 87.337 73.750,84.705 76.180,82.311 78.600 C 77.654 83.310,77.408 83.584,76.232 85.396 C 75.810 86.047,75.310 86.764,75.122 86.990 C 74.813 87.359,74.334 88.109,71.799 92.194 C 70.540 94.223,68.801 97.658,68.787 98.141 C 68.781 98.393,68.332 99.500,67.791 100.600 C 67.250 101.700,66.806 102.925,66.804 103.322 C 66.802 103.719,66.460 104.799,66.044 105.722 C 65.628 106.645,65.164 108.390,65.011 109.600 C 64.859 110.810,64.439 112.790,64.078 114.000 C 63.310 116.573,62.822 271.738,63.563 277.606 C 64.308 283.505,65.295 288.632,66.041 290.474 C 66.459 291.505,66.806 292.675,66.813 293.074 C 66.819 293.473,67.268 294.700,67.809 295.800 C 68.350 296.900,68.794 298.093,68.796 298.451 C 68.798 298.809,69.069 299.325,69.398 299.598 C 69.727 299.872,70.205 300.791,70.460 301.641 C 70.714 302.491,71.255 303.488,71.661 303.856 C 72.068 304.223,72.403 304.721,72.407 304.962 C 72.450 307.509,84.011 320.386,89.600 324.111 C 90.150 324.478,91.500 325.410,92.600 326.183 C 93.700 326.955,94.797 327.591,95.038 327.594 C 95.279 327.597,95.787 327.944,96.167 328.364 C 96.548 328.784,97.326 329.245,97.898 329.389 C 98.469 329.532,99.380 329.998,99.922 330.425 C 100.464 330.851,101.199 331.202,101.554 331.204 C 101.909 331.206,103.100 331.650,104.200 332.191 C 105.300 332.732,106.508 333.181,106.885 333.187 C 107.262 333.194,108.432 333.538,109.485 333.952 C 110.538 334.365,112.390 334.830,113.600 334.984 C 114.810 335.139,116.790 335.553,118.000 335.903 C 119.903 336.454,124.274 336.561,150.397 336.695 L 180.593 336.851 182.597 338.228 C 183.699 338.986,185.049 339.920,185.597 340.303 C 186.648 341.038,193.236 345.920,194.600 346.976 C 195.040 347.316,196.750 348.581,198.400 349.786 C 200.050 350.991,201.760 352.260,202.200 352.605 C 202.640 352.951,204.350 354.211,206.000 355.405 C 207.650 356.600,209.360 357.859,209.800 358.204 C 211.031 359.170,217.174 363.726,218.140 364.391 C 219.778 365.518,228.609 371.974,230.577 373.484 C 231.664 374.318,233.085 375.328,233.735 375.729 C 234.384 376.130,235.149 376.670,235.434 376.929 C 235.719 377.188,236.600 377.850,237.393 378.400 C 238.879 379.432,241.199 381.116,242.600 382.180 C 244.713 383.785,246.497 385.089,247.824 386.000 C 248.625 386.550,249.579 387.270,249.943 387.600 C 250.308 387.930,251.661 388.920,252.950 389.800 C 254.239 390.680,255.791 391.760,256.400 392.200 C 262.686 396.744,265.608 398.271,266.178 397.310 C 266.458 396.839,266.667 386.972,266.800 368.000 C 266.990 340.893,267.039 339.342,267.749 338.295 C 268.670 336.938,268.832 336.905,276.000 336.623 C 279.190 336.497,282.610 336.150,283.600 335.851 C 284.590 335.552,286.587 335.181,288.038 335.028 C 289.488 334.875,291.187 334.484,291.812 334.160 C 292.438 333.835,293.771 333.391,294.775 333.173 C 296.703 332.753,298.059 332.175,302.600 329.836 C 304.140 329.043,306.141 328.037,307.047 327.601 C 307.953 327.166,308.920 326.537,309.196 326.205 C 309.472 325.872,309.861 325.600,310.060 325.600 C 310.525 325.600,315.270 321.943,317.554 319.826 C 319.160 318.336,319.866 317.602,322.800 314.368 C 323.350 313.762,324.250 312.607,324.800 311.802 C 325.350 310.997,326.205 309.876,326.700 309.311 C 327.195 308.746,327.600 308.142,327.600 307.970 C 327.600 307.798,327.849 307.408,328.154 307.103 C 328.458 306.799,329.086 305.808,329.548 304.902 C 330.010 303.996,330.557 303.150,330.764 303.023 C 330.970 302.895,331.254 302.265,331.395 301.623 C 331.536 300.981,331.898 300.250,332.200 300.000 C 332.502 299.750,332.870 298.972,333.017 298.272 C 333.165 297.573,333.612 296.460,334.010 295.800 C 334.407 295.140,334.862 293.880,335.020 293.000 C 335.178 292.120,335.570 290.881,335.891 290.247 C 336.212 289.613,336.637 287.903,336.835 286.447 C 337.033 284.991,337.511 282.540,337.897 281.000 C 338.976 276.704,338.986 118.849,337.908 114.800 C 337.527 113.370,337.025 110.962,336.792 109.450 C 336.559 107.937,336.127 106.227,335.832 105.650 C 335.538 105.072,335.166 103.997,335.007 103.259 C 334.470 100.767,329.909 91.218,328.369 89.362 C 328.073 89.006,327.644 88.398,327.416 88.010 C 324.167 82.503,313.983 72.365,309.600 70.273 C 309.270 70.116,308.190 69.460,307.200 68.816 C 304.461 67.035,296.522 63.200,295.573 63.200 C 295.311 63.200,293.725 62.766,292.048 62.236 C 290.372 61.705,287.830 61.079,286.400 60.845 C 284.970 60.610,282.990 60.242,282.000 60.026 C 280.259 59.648,122.634 59.502,120.400 59.877 M218.942 105.001 C 222.116 106.328,222.000 104.978,222.000 140.529 C 222.000 165.251,222.107 171.991,222.503 172.320 C 223.086 172.803,227.529 171.911,228.941 171.028 C 229.413 170.732,230.520 170.363,231.400 170.209 C 232.280 170.054,233.755 169.584,234.678 169.164 C 235.601 168.744,236.641 168.400,236.990 168.400 C 237.339 168.400,238.693 167.950,240.000 167.400 C 241.307 166.850,242.786 166.399,243.288 166.398 C 243.790 166.396,244.740 166.106,245.400 165.752 C 246.060 165.399,247.500 164.875,248.600 164.587 C 250.683 164.044,253.198 163.216,256.600 161.955 C 257.700 161.547,259.230 161.095,260.000 160.949 C 260.770 160.804,262.030 160.376,262.800 160.000 C 263.570 159.624,264.830 159.196,265.600 159.051 C 266.370 158.905,267.900 158.453,269.000 158.045 C 272.402 156.784,274.917 155.956,277.000 155.413 C 278.100 155.125,279.540 154.601,280.200 154.248 C 284.254 152.076,287.800 153.928,289.226 158.962 C 289.606 160.303,290.108 161.940,290.342 162.600 C 290.877 164.107,291.840 167.091,292.795 170.200 C 293.201 171.520,293.810 173.320,294.149 174.200 C 294.488 175.080,294.773 176.122,294.782 176.516 C 294.792 176.910,295.136 177.900,295.546 178.716 C 295.956 179.532,296.414 180.873,296.563 181.694 C 296.712 182.516,297.183 183.956,297.608 184.894 C 299.126 188.237,298.066 192.800,295.772 192.800 C 295.561 192.800,294.761 193.136,293.994 193.546 C 293.227 193.957,291.696 194.486,290.592 194.722 C 289.487 194.959,288.047 195.432,287.392 195.774 C 286.736 196.115,285.889 196.396,285.508 196.398 C 285.127 196.399,283.687 196.826,282.308 197.347 C 278.507 198.783,276.009 199.612,273.791 200.175 C 272.686 200.456,271.209 200.981,270.511 201.343 C 269.812 201.704,268.874 202.000,268.428 202.000 C 267.981 202.000,266.487 202.426,265.108 202.947 C 261.378 204.356,258.845 205.187,256.506 205.770 C 255.354 206.057,254.172 206.491,253.879 206.735 C 253.585 206.978,252.369 207.387,251.177 207.642 C 249.984 207.898,248.646 208.337,248.204 208.617 C 247.762 208.897,246.368 209.335,245.107 209.590 C 243.846 209.845,242.715 210.214,242.594 210.409 C 242.473 210.605,241.314 210.973,240.017 211.229 C 238.545 211.518,237.169 212.101,236.357 212.780 L 235.055 213.867 236.427 215.811 C 237.182 216.880,238.070 218.062,238.400 218.437 C 238.730 218.812,239.450 219.780,240.000 220.587 C 240.550 221.395,241.405 222.564,241.900 223.185 C 242.395 223.807,242.800 224.424,242.800 224.556 C 242.800 224.688,243.700 225.913,244.800 227.278 C 245.900 228.643,246.800 229.904,246.800 230.080 C 246.800 230.256,247.115 230.736,247.500 231.147 C 247.885 231.557,249.100 233.176,250.200 234.744 C 251.300 236.312,253.415 239.217,254.900 241.199 C 256.385 243.182,257.600 244.885,257.600 244.984 C 257.600 245.224,261.064 249.978,263.978 253.735 C 264.633 254.579,265.278 255.614,265.411 256.035 C 265.545 256.456,265.804 256.800,265.987 256.800 C 266.171 256.800,266.689 257.385,267.138 258.100 C 267.588 258.815,268.503 260.120,269.171 261.000 C 269.839 261.880,270.506 262.870,270.653 263.200 C 270.799 263.530,271.278 264.199,271.717 264.687 C 274.509 267.791,273.046 270.349,265.245 276.000 C 262.967 277.650,260.611 279.360,260.008 279.800 C 259.405 280.240,258.392 280.954,257.756 281.387 C 257.120 281.821,255.666 282.901,254.525 283.787 C 253.384 284.674,251.801 285.850,251.007 286.400 C 250.214 286.950,248.717 288.049,247.682 288.842 C 243.152 292.313,240.666 292.251,237.961 288.601 C 234.987 284.588,233.355 282.355,232.400 280.993 C 231.850 280.209,230.950 278.952,230.400 278.200 C 229.850 277.448,228.950 276.188,228.400 275.400 C 227.390 273.953,225.708 271.671,224.567 270.200 C 224.226 269.760,223.076 268.140,222.012 266.600 C 220.948 265.060,219.804 263.499,219.469 263.130 C 219.134 262.762,218.640 262.042,218.371 261.530 C 218.102 261.019,217.451 260.060,216.926 259.400 C 215.045 257.035,214.586 256.428,213.600 254.997 C 213.050 254.198,212.195 253.036,211.700 252.415 C 211.205 251.793,210.800 251.094,210.800 250.862 C 210.800 250.630,210.575 250.296,210.300 250.120 C 210.025 249.944,209.080 248.724,208.200 247.410 C 207.320 246.095,206.330 244.719,206.000 244.350 C 205.670 243.982,204.950 243.012,204.400 242.195 C 203.850 241.378,202.853 240.081,202.185 239.314 L 200.970 237.919 199.503 239.859 C 198.696 240.927,197.755 242.160,197.410 242.600 C 196.864 243.299,195.428 245.318,191.923 250.316 C 190.916 251.752,189.179 254.137,188.220 255.400 C 186.730 257.362,185.324 259.276,184.400 260.600 C 183.850 261.388,182.883 262.701,182.252 263.516 C 181.621 264.332,180.654 265.706,180.104 266.569 C 179.554 267.431,178.943 268.331,178.747 268.569 C 178.280 269.134,176.443 271.624,175.269 273.284 C 174.756 274.008,173.096 276.310,171.579 278.400 C 170.062 280.490,168.411 282.792,167.910 283.516 C 167.410 284.241,166.550 285.447,166.000 286.197 C 165.450 286.947,164.469 288.291,163.821 289.184 C 162.697 290.730,160.662 291.771,159.470 291.409 C 159.212 291.331,158.530 291.165,157.957 291.040 C 157.383 290.915,155.902 290.045,154.666 289.107 C 153.430 288.168,151.777 286.950,150.991 286.400 C 150.206 285.850,148.500 284.590,147.200 283.600 C 145.900 282.610,144.190 281.350,143.400 280.800 C 142.610 280.250,140.900 278.990,139.600 278.000 C 138.300 277.010,136.584 275.750,135.785 275.200 C 129.069 270.572,127.738 267.929,130.397 264.492 C 131.221 263.427,135.806 257.115,137.669 254.484 C 139.375 252.072,140.776 250.206,141.335 249.600 C 141.640 249.270,142.120 248.550,142.403 248.000 C 142.686 247.450,143.566 246.189,144.358 245.198 C 145.151 244.207,145.980 243.108,146.200 242.754 C 146.934 241.575,148.156 239.812,149.079 238.600 C 150.296 237.002,150.811 236.301,153.192 233.000 C 154.303 231.460,156.154 228.907,157.306 227.326 C 158.458 225.746,159.670 224.061,160.000 223.582 C 161.624 221.225,164.783 216.924,165.327 216.330 C 167.584 213.864,166.506 212.166,162.186 211.380 C 161.314 211.222,159.970 210.782,159.200 210.404 C 158.430 210.025,157.170 209.596,156.400 209.451 C 155.630 209.305,154.100 208.853,153.000 208.445 C 149.459 207.133,147.049 206.347,144.878 205.798 C 143.712 205.503,142.529 205.073,142.251 204.842 C 141.973 204.612,140.768 204.220,139.573 203.972 C 138.378 203.723,137.038 203.293,136.596 203.014 C 136.154 202.735,134.816 202.298,133.623 202.042 C 132.431 201.787,131.262 201.418,131.027 201.224 C 130.792 201.030,129.497 200.586,128.149 200.238 C 126.801 199.889,125.181 199.334,124.549 199.004 C 123.917 198.675,123.040 198.400,122.600 198.394 C 122.160 198.387,121.033 198.034,120.094 197.608 C 119.156 197.183,117.716 196.712,116.894 196.563 C 116.073 196.414,114.770 195.981,114.000 195.600 C 113.230 195.219,111.932 194.787,111.115 194.639 C 104.676 193.471,102.163 189.912,104.364 185.078 C 104.784 184.155,105.260 182.680,105.422 181.800 C 105.585 180.920,106.051 179.573,106.459 178.806 C 106.866 178.039,107.201 176.959,107.202 176.406 C 107.204 175.853,107.475 174.883,107.804 174.251 C 108.134 173.619,108.689 171.999,109.038 170.651 C 109.386 169.303,109.830 168.008,110.024 167.773 C 110.218 167.538,110.580 166.368,110.828 165.173 C 111.077 163.978,111.507 162.638,111.786 162.196 C 112.065 161.754,112.498 160.435,112.749 159.264 C 113.866 154.057,117.481 152.117,121.916 154.346 C 122.732 154.756,124.120 155.219,125.000 155.376 C 125.880 155.532,126.962 155.892,127.404 156.176 C 127.846 156.460,129.194 156.904,130.399 157.162 C 131.604 157.421,132.952 157.868,133.395 158.156 C 133.838 158.444,134.920 158.813,135.800 158.976 C 136.680 159.139,138.120 159.594,139.000 159.986 C 139.880 160.378,141.320 160.825,142.200 160.979 C 143.080 161.133,144.162 161.492,144.604 161.776 C 145.046 162.060,146.384 162.502,147.577 162.758 C 148.769 163.013,149.973 163.412,150.251 163.642 C 150.529 163.873,151.712 164.303,152.878 164.598 C 155.049 165.147,157.459 165.933,161.000 167.245 C 162.100 167.653,163.630 168.105,164.400 168.251 C 165.170 168.396,166.430 168.825,167.200 169.204 C 167.970 169.582,169.314 170.022,170.186 170.180 C 171.059 170.339,172.229 170.703,172.786 170.989 C 174.619 171.929,178.865 172.844,179.387 172.411 C 179.751 172.109,179.934 164.227,180.136 140.188 C 180.432 105.110,180.351 106.146,182.875 105.044 C 184.882 104.167,216.855 104.129,218.942 105.001 " stroke="none" fill="#fafbfc" fill-rule="evenodd"></path><path id="path1" d="M67.533 0.358 C 67.460 0.555,66.050 0.821,64.400 0.950 C 60.603 1.246,60.402 1.280,60.591 1.586 C 61.036 2.305,59.909 2.761,57.491 2.839 C 54.960 2.921,54.800 2.982,54.800 3.863 C 54.800 4.756,54.670 4.800,52.000 4.800 C 49.529 4.800,49.200 4.888,49.200 5.550 C 49.200 6.256,47.534 6.986,46.092 6.912 C 45.813 6.898,45.633 7.182,45.692 7.543 C 45.771 8.021,45.443 8.234,44.492 8.326 C 43.773 8.395,43.277 8.601,43.390 8.784 C 43.503 8.967,43.317 9.223,42.977 9.354 C 42.577 9.507,42.458 9.429,42.641 9.134 C 42.815 8.852,42.746 8.786,42.462 8.962 C 42.208 9.119,42.000 9.507,42.000 9.824 C 42.000 10.141,41.865 10.379,41.700 10.353 C 40.621 10.182,40.000 10.492,40.000 11.200 C 40.000 11.857,39.731 12.001,38.500 12.006 C 37.035 12.012,35.897 12.433,35.966 12.945 C 36.077 13.778,35.916 14.000,35.200 14.000 C 34.683 14.000,34.400 14.267,34.400 14.755 C 34.400 15.452,33.615 15.788,31.318 16.073 C 31.052 16.106,30.905 16.247,30.991 16.386 C 31.288 16.866,30.525 17.640,29.692 17.703 C 29.232 17.738,28.864 17.864,28.875 17.983 C 28.983 19.171,28.698 19.600,27.800 19.600 C 27.087 19.600,26.800 19.816,26.800 20.353 C 26.800 20.770,26.443 21.200,26.000 21.316 C 25.521 21.441,25.200 21.862,25.200 22.363 C 25.200 22.989,24.948 23.200,24.200 23.200 C 23.400 23.200,23.200 23.400,23.200 24.200 C 23.200 24.948,22.989 25.200,22.363 25.200 C 21.862 25.200,21.441 25.521,21.316 26.000 C 21.200 26.443,20.770 26.800,20.353 26.800 C 19.816 26.800,19.600 27.087,19.600 27.800 C 19.600 28.575,19.394 28.800,18.685 28.800 C 18.034 28.800,17.751 29.049,17.705 29.664 C 17.641 30.520,16.873 31.292,16.386 30.991 C 16.247 30.905,16.106 31.052,16.073 31.318 C 15.788 33.615,15.452 34.400,14.755 34.400 C 14.281 34.400,14.000 34.682,14.000 35.157 C 14.000 35.630,13.626 36.007,13.000 36.164 C 12.225 36.359,12.000 36.673,12.000 37.559 C 12.000 38.188,11.685 38.949,11.300 39.251 C 10.666 39.749,10.651 39.734,11.149 39.100 C 11.483 38.674,11.529 38.400,11.268 38.400 C 10.826 38.400,9.904 41.121,10.189 41.582 C 10.277 41.724,9.981 42.069,9.532 42.349 C 8.913 42.736,8.790 42.740,9.020 42.368 C 9.217 42.049,9.158 41.979,8.851 42.168 C 8.591 42.329,8.405 42.672,8.437 42.930 C 8.630 44.495,8.321 45.445,7.500 45.805 C 6.846 46.092,6.567 46.598,6.478 47.659 C 6.391 48.707,6.137 49.175,5.578 49.322 C 4.908 49.497,4.800 49.886,4.800 52.135 C 4.800 54.536,4.728 54.755,3.900 54.872 C 3.082 54.988,2.989 55.247,2.882 57.700 C 2.778 60.072,2.668 60.400,1.982 60.400 C 1.552 60.400,1.189 60.445,1.176 60.500 C 1.162 60.555,1.053 61.770,0.933 63.200 C 0.813 64.630,0.554 65.860,0.357 65.933 C -0.133 66.116,-0.117 333.891,0.373 334.067 C 0.578 334.140,0.803 335.370,0.873 336.800 C 0.987 339.130,1.092 339.413,1.882 339.526 C 2.677 339.639,2.776 339.915,2.882 342.326 C 2.989 344.753,3.083 345.012,3.900 345.128 C 4.734 345.246,4.800 345.458,4.800 348.028 C 4.800 350.533,4.877 350.800,5.600 350.800 C 6.191 350.800,6.416 351.087,6.461 351.900 C 6.494 352.505,6.539 353.270,6.561 353.600 C 6.582 353.930,7.005 354.258,7.500 354.328 C 8.328 354.445,8.733 355.888,8.447 357.700 C 8.404 357.975,9.004 358.150,9.670 358.057 C 10.009 358.010,10.590 360.392,10.437 361.200 C 10.375 361.530,10.452 361.674,10.610 361.519 C 10.994 361.141,12.000 362.187,12.000 362.964 C 12.000 363.305,12.450 363.698,13.000 363.836 C 13.765 364.028,14.000 364.346,14.000 365.194 C 14.000 365.804,14.315 366.540,14.700 366.832 C 15.296 367.282,15.325 367.278,14.900 366.801 C 14.625 366.492,14.400 366.062,14.400 365.844 C 14.400 365.146,15.574 366.972,15.587 367.691 C 15.594 368.071,16.050 368.676,16.600 369.037 C 17.150 369.397,17.600 370.031,17.600 370.446 C 17.600 370.984,17.887 371.200,18.600 371.200 C 19.348 371.200,19.600 371.411,19.600 372.037 C 19.600 372.525,19.919 372.958,20.363 373.074 C 20.783 373.184,21.216 373.617,21.326 374.037 C 21.442 374.481,21.875 374.800,22.363 374.800 C 22.989 374.800,23.200 375.052,23.200 375.800 C 23.200 376.600,23.400 376.800,24.200 376.800 C 24.948 376.800,25.200 377.011,25.200 377.637 C 25.200 378.125,25.519 378.558,25.963 378.674 C 26.383 378.784,26.816 379.217,26.926 379.637 C 27.042 380.081,27.475 380.400,27.963 380.400 C 28.589 380.400,28.800 380.652,28.800 381.400 C 28.800 382.113,29.016 382.400,29.554 382.400 C 29.969 382.400,30.603 382.850,30.963 383.400 C 31.324 383.950,31.929 384.406,32.309 384.413 C 33.028 384.426,34.854 385.600,34.156 385.600 C 33.938 385.600,33.508 385.375,33.199 385.100 C 32.722 384.675,32.718 384.704,33.168 385.300 C 33.460 385.685,34.196 386.000,34.806 386.000 C 35.654 386.000,35.972 386.235,36.164 387.000 C 36.302 387.550,36.695 388.000,37.036 388.000 C 37.813 388.000,38.859 389.006,38.481 389.390 C 38.326 389.548,38.470 389.625,38.800 389.563 C 39.608 389.410,41.990 389.991,41.943 390.330 C 41.850 390.996,42.025 391.596,42.300 391.553 C 44.112 391.267,45.555 391.672,45.672 392.500 C 45.742 392.995,46.070 393.418,46.400 393.439 C 46.730 393.461,47.495 393.506,48.100 393.539 C 48.913 393.584,49.200 393.809,49.200 394.400 C 49.200 395.123,49.467 395.200,51.972 395.200 C 54.542 395.200,54.754 395.266,54.872 396.100 C 54.988 396.917,55.247 397.011,57.674 397.118 C 60.085 397.224,60.361 397.323,60.474 398.118 C 60.587 398.908,60.870 399.013,63.200 399.127 C 64.630 399.197,65.860 399.422,65.933 399.627 C 66.174 400.302,264.800 400.114,264.800 399.439 C 264.800 399.131,264.260 398.690,263.600 398.460 C 262.940 398.230,262.400 397.866,262.400 397.652 C 262.400 397.437,261.792 397.061,261.048 396.816 C 260.305 396.571,259.377 396.017,258.986 395.585 C 258.596 395.153,258.040 394.800,257.752 394.800 C 257.464 394.800,257.035 394.440,256.800 394.000 C 256.565 393.560,256.133 393.200,255.841 393.200 C 255.549 393.200,254.610 392.657,253.755 391.994 C 252.900 391.330,251.840 390.519,251.400 390.190 C 250.960 389.862,250.034 389.145,249.342 388.596 C 248.650 388.048,247.917 387.600,247.712 387.600 C 247.507 387.600,246.917 387.150,246.400 386.600 C 245.883 386.050,245.231 385.600,244.950 385.600 C 244.669 385.600,244.281 385.317,244.088 384.971 C 243.894 384.624,243.381 384.129,242.948 383.871 C 242.515 383.612,241.559 383.040,240.822 382.600 C 240.085 382.160,239.117 381.395,238.669 380.900 C 238.222 380.405,237.625 380.000,237.342 380.000 C 237.059 380.000,236.635 379.640,236.400 379.200 C 236.165 378.760,235.733 378.400,235.441 378.400 C 235.149 378.400,234.210 377.857,233.355 377.194 C 232.500 376.530,231.388 375.675,230.884 375.294 C 230.381 374.912,229.499 374.195,228.926 373.700 C 228.352 373.205,227.754 372.800,227.597 372.800 C 227.439 372.800,226.610 372.257,225.755 371.594 C 223.617 369.936,222.853 369.358,221.000 368.000 C 217.988 365.793,217.484 365.399,216.525 364.500 C 215.996 364.005,215.417 363.600,215.237 363.600 C 215.057 363.600,214.210 363.066,213.355 362.414 C 212.500 361.761,211.440 360.959,211.000 360.631 C 210.560 360.302,209.634 359.576,208.942 359.017 C 208.250 358.458,207.554 358.000,207.395 358.000 C 207.236 358.000,206.506 357.505,205.773 356.900 C 205.039 356.295,203.966 355.440,203.387 355.000 C 202.808 354.560,201.944 353.878,201.467 353.484 C 200.702 352.853,199.271 351.880,197.225 350.600 C 196.873 350.380,196.195 349.840,195.718 349.400 C 194.630 348.396,193.304 347.371,191.950 346.486 C 189.504 344.887,188.581 344.190,188.280 343.710 C 188.104 343.429,187.701 343.200,187.384 343.200 C 187.066 343.200,186.582 342.840,186.307 342.400 C 186.032 341.960,185.613 341.600,185.376 341.600 C 185.138 341.600,184.339 341.060,183.600 340.400 C 182.861 339.740,182.078 339.200,181.859 339.200 C 181.641 339.200,181.115 338.885,180.690 338.500 C 179.971 337.849,177.663 337.786,147.840 337.600 C 118.699 337.418,115.670 337.339,114.740 336.729 C 114.177 336.360,112.413 335.877,110.820 335.656 C 109.227 335.436,107.626 334.995,107.262 334.678 C 106.898 334.361,105.880 333.973,105.000 333.817 C 104.120 333.661,102.839 333.188,102.153 332.766 C 101.467 332.345,100.647 332.000,100.330 332.000 C 100.014 332.000,99.145 331.550,98.400 331.000 C 97.655 330.450,96.747 330.000,96.384 330.000 C 96.021 330.000,95.398 329.640,95.000 329.200 C 94.602 328.760,94.043 328.400,93.759 328.400 C 93.474 328.400,92.756 327.950,92.162 327.400 C 91.569 326.850,90.910 326.400,90.699 326.400 C 90.339 326.400,89.324 325.667,86.696 323.507 C 85.263 322.330,77.670 314.737,76.493 313.304 C 74.367 310.716,73.693 309.749,73.428 308.900 C 73.273 308.405,72.969 308.000,72.753 308.000 C 72.536 308.000,72.084 307.415,71.749 306.700 C 71.413 305.985,70.622 304.500,69.992 303.400 C 69.362 302.300,68.641 300.950,68.390 300.400 C 68.139 299.850,67.603 298.760,67.200 297.978 C 66.796 297.195,66.338 295.845,66.182 294.978 C 66.026 294.110,65.639 293.102,65.322 292.738 C 65.005 292.374,64.564 290.773,64.344 289.180 C 64.123 287.587,63.640 285.823,63.271 285.259 C 62.173 283.583,62.243 112.918,63.343 110.706 C 63.752 109.884,64.213 108.135,64.368 106.820 C 64.523 105.505,64.932 104.107,65.276 103.715 C 65.620 103.322,66.023 102.160,66.171 101.133 C 66.318 100.106,66.704 99.046,67.028 98.777 C 67.352 98.508,67.818 97.488,68.064 96.510 C 68.311 95.532,68.741 94.644,69.020 94.537 C 69.299 94.430,69.642 93.887,69.782 93.331 C 69.921 92.775,70.363 91.843,70.764 91.260 C 71.165 90.677,72.049 89.300,72.728 88.200 C 74.173 85.859,75.060 84.649,76.300 83.325 C 76.795 82.796,77.200 82.224,77.200 82.054 C 77.200 81.884,77.650 81.353,78.200 80.875 C 78.750 80.397,79.200 79.836,79.200 79.630 C 79.200 79.423,79.560 79.140,80.000 79.000 C 80.440 78.860,80.804 78.533,80.809 78.273 C 80.813 78.013,81.464 77.260,82.254 76.600 C 83.043 75.940,83.985 75.101,84.345 74.736 C 85.682 73.381,90.230 69.900,91.100 69.566 C 91.595 69.375,92.000 69.053,92.000 68.849 C 92.000 68.645,92.495 68.270,93.100 68.016 C 93.705 67.762,95.100 67.028,96.200 66.385 C 97.300 65.743,98.650 65.017,99.200 64.773 C 99.750 64.528,101.037 63.895,102.059 63.364 C 103.081 62.834,104.320 62.400,104.812 62.400 C 105.303 62.400,106.267 62.061,106.953 61.646 C 107.639 61.231,109.280 60.763,110.600 60.605 C 111.919 60.447,113.539 60.021,114.200 59.659 C 116.035 58.651,286.090 58.643,287.628 59.650 C 288.173 60.008,289.786 60.432,291.210 60.593 C 292.635 60.754,294.109 61.158,294.486 61.492 C 294.863 61.825,296.000 62.253,297.014 62.442 C 298.027 62.631,299.318 63.149,299.882 63.593 C 300.446 64.037,301.334 64.400,301.854 64.400 C 302.374 64.400,303.134 64.734,303.542 65.142 C 303.950 65.550,304.727 65.995,305.268 66.131 C 305.810 66.267,306.673 66.743,307.187 67.189 C 307.702 67.635,308.355 68.000,308.639 68.000 C 308.922 68.000,309.390 68.318,309.677 68.706 C 309.965 69.095,310.688 69.627,311.284 69.890 C 312.363 70.366,313.172 70.985,314.956 72.700 C 315.470 73.195,316.022 73.600,316.182 73.600 C 316.341 73.600,318.357 75.535,320.660 77.900 C 326.498 83.893,326.399 83.785,326.407 84.214 C 326.411 84.426,326.861 85.024,327.407 85.542 C 327.953 86.060,328.400 86.810,328.400 87.209 C 328.400 87.607,328.620 88.007,328.888 88.096 C 329.399 88.266,330.616 90.238,331.950 93.056 C 332.381 93.967,332.915 94.824,333.136 94.961 C 333.357 95.097,333.665 95.785,333.820 96.489 C 333.974 97.193,334.421 98.226,334.813 98.784 C 335.205 99.343,335.647 100.520,335.796 101.400 C 335.946 102.280,336.324 103.286,336.637 103.635 C 336.949 103.984,337.368 105.514,337.567 107.035 C 337.765 108.556,338.259 110.430,338.664 111.200 C 339.811 113.382,339.814 282.498,338.666 285.000 C 338.263 285.880,337.764 287.761,337.557 289.179 C 337.350 290.598,336.930 292.038,336.624 292.379 C 336.318 292.721,335.946 293.720,335.796 294.600 C 335.647 295.480,335.218 296.650,334.843 297.200 C 334.468 297.750,333.944 298.944,333.678 299.853 C 333.413 300.761,332.927 301.728,332.598 302.002 C 332.269 302.275,332.000 302.802,332.000 303.174 C 332.000 303.545,331.678 304.198,331.285 304.625 C 330.892 305.051,330.330 305.985,330.037 306.700 C 329.743 307.415,329.340 308.000,329.142 308.000 C 328.943 308.000,328.618 308.427,328.420 308.948 C 328.064 309.883,325.045 313.809,323.430 315.436 C 322.973 315.896,322.060 316.927,321.400 317.727 C 320.740 318.528,319.975 319.187,319.700 319.191 C 319.425 319.196,319.200 319.464,319.200 319.786 C 319.200 320.108,318.839 320.565,318.398 320.801 C 317.958 321.037,316.930 321.898,316.115 322.715 C 314.612 324.222,314.402 324.380,312.018 325.800 C 311.279 326.240,310.373 326.870,310.004 327.200 C 309.177 327.940,307.449 328.976,305.607 329.837 C 304.840 330.196,303.781 330.829,303.253 331.244 C 302.724 331.660,301.891 332.000,301.400 332.000 C 300.909 332.000,300.058 332.354,299.508 332.787 C 298.958 333.219,297.718 333.693,296.754 333.840 C 295.789 333.986,294.678 334.386,294.285 334.728 C 293.893 335.070,292.495 335.477,291.180 335.632 C 289.865 335.787,288.116 336.241,287.294 336.641 C 286.051 337.247,284.557 337.391,278.400 337.499 C 269.757 337.651,269.402 337.704,268.959 338.896 C 268.774 339.393,268.505 352.580,268.362 368.200 C 268.218 383.820,267.969 397.365,267.808 398.300 L 267.516 400.000 300.725 400.000 C 319.846 400.000,333.990 399.848,334.067 399.643 C 334.140 399.446,335.370 399.187,336.800 399.067 C 338.230 398.947,339.445 398.838,339.500 398.824 C 339.555 398.811,339.600 398.448,339.600 398.018 C 339.600 397.332,339.928 397.222,342.300 397.118 C 344.753 397.011,345.012 396.918,345.128 396.100 C 345.245 395.272,345.464 395.200,347.865 395.200 C 350.114 395.200,350.503 395.092,350.678 394.422 C 350.825 393.863,351.293 393.609,352.341 393.522 C 353.402 393.433,353.908 393.154,354.195 392.500 C 354.555 391.679,355.505 391.370,357.070 391.563 C 357.328 391.595,357.671 391.409,357.832 391.149 C 358.021 390.842,357.951 390.783,357.632 390.980 C 357.260 391.210,357.264 391.087,357.651 390.468 C 357.931 390.019,358.276 389.723,358.418 389.811 C 358.879 390.096,361.600 389.174,361.600 388.732 C 361.600 388.471,361.326 388.517,360.900 388.851 C 360.266 389.349,360.251 389.334,360.749 388.700 C 361.051 388.315,361.812 388.000,362.441 388.000 C 363.327 388.000,363.641 387.775,363.836 387.000 C 363.993 386.374,364.370 386.000,364.843 386.000 C 365.318 386.000,365.600 385.719,365.600 385.245 C 365.600 384.548,366.385 384.212,368.682 383.927 C 368.948 383.894,369.095 383.753,369.009 383.614 C 368.708 383.127,369.480 382.359,370.336 382.295 C 370.951 382.249,371.200 381.966,371.200 381.315 C 371.200 380.606,371.425 380.400,372.200 380.400 C 372.913 380.400,373.200 380.184,373.200 379.647 C 373.200 379.230,373.557 378.800,374.000 378.684 C 374.479 378.559,374.800 378.138,374.800 377.637 C 374.800 377.011,375.052 376.800,375.800 376.800 C 376.600 376.800,376.800 376.600,376.800 375.800 C 376.800 375.052,377.011 374.800,377.637 374.800 C 378.138 374.800,378.559 374.479,378.684 374.000 C 378.800 373.557,379.230 373.200,379.647 373.200 C 380.184 373.200,380.400 372.913,380.400 372.200 C 380.400 371.302,380.829 371.017,382.017 371.125 C 382.136 371.136,382.262 370.768,382.297 370.308 C 382.360 369.475,383.134 368.712,383.614 369.009 C 383.753 369.095,383.894 368.948,383.927 368.682 C 384.212 366.385,384.548 365.600,385.245 365.600 C 385.733 365.600,386.000 365.317,386.000 364.800 C 386.000 364.084,386.222 363.923,387.055 364.034 C 387.567 364.103,387.988 362.965,387.994 361.500 C 387.999 360.269,388.143 360.000,388.800 360.000 C 389.508 360.000,389.818 359.379,389.647 358.300 C 389.621 358.135,389.859 358.000,390.176 358.000 C 390.493 358.000,390.881 357.792,391.038 357.538 C 391.214 357.254,391.148 357.185,390.866 357.359 C 390.571 357.542,390.493 357.423,390.646 357.023 C 390.777 356.683,391.033 356.497,391.216 356.610 C 391.399 356.723,391.605 356.227,391.674 355.508 C 391.766 354.557,391.979 354.229,392.457 354.308 C 392.818 354.367,393.102 354.187,393.088 353.908 C 393.014 352.466,393.744 350.800,394.450 350.800 C 395.112 350.800,395.200 350.471,395.200 348.000 C 395.200 345.330,395.244 345.200,396.137 345.200 C 397.018 345.200,397.079 345.040,397.161 342.509 C 397.239 340.091,397.695 338.964,398.414 339.409 C 398.720 339.598,398.754 339.397,399.050 335.600 C 399.179 333.950,399.445 332.540,399.642 332.467 C 400.131 332.285,400.118 67.709,399.629 67.533 C 399.426 67.460,399.219 66.230,399.170 64.800 C 399.122 63.370,398.944 62.020,398.775 61.800 C 398.606 61.580,398.453 61.220,398.434 61.000 C 398.415 60.780,398.235 60.600,398.033 60.600 C 397.367 60.600,397.249 60.207,397.158 57.682 C 397.077 55.432,396.975 55.159,396.134 54.948 C 395.278 54.733,394.771 51.918,395.153 49.500 C 395.179 49.335,395.065 49.221,394.900 49.247 C 393.984 49.392,393.677 49.044,393.446 47.600 C 393.306 46.720,393.002 46.000,392.772 46.000 C 392.541 46.000,392.481 46.208,392.638 46.462 C 392.816 46.750,392.748 46.815,392.455 46.634 C 392.198 46.475,392.091 46.177,392.217 45.972 C 392.344 45.768,392.257 45.600,392.024 45.600 C 391.791 45.600,391.600 45.163,391.600 44.628 C 391.600 43.924,391.351 43.620,390.700 43.528 C 390.127 43.446,389.785 43.109,389.759 42.600 C 389.634 40.136,389.584 40.000,388.800 40.000 C 388.143 40.000,387.999 39.731,387.994 38.500 C 387.988 37.035,387.567 35.897,387.055 35.966 C 386.222 36.077,386.000 35.916,386.000 35.200 C 386.000 34.667,385.733 34.400,385.200 34.400 C 384.610 34.400,384.400 34.133,384.400 33.382 C 384.400 32.800,383.929 31.900,383.300 31.282 C 382.695 30.687,382.200 29.930,382.199 29.600 C 382.199 29.270,381.974 28.978,381.699 28.950 C 381.425 28.923,381.020 28.877,380.800 28.850 C 380.580 28.823,380.400 28.350,380.400 27.800 C 380.400 27.250,380.265 26.821,380.100 26.847 C 379.216 26.987,378.800 26.716,378.800 26.000 C 378.800 25.413,378.533 25.200,377.800 25.200 C 377.000 25.200,376.800 25.000,376.800 24.200 C 376.800 23.400,376.600 23.200,375.800 23.200 C 375.000 23.200,374.800 23.000,374.800 22.200 C 374.800 21.467,374.587 21.200,374.000 21.200 C 373.284 21.200,373.013 20.784,373.153 19.900 C 373.179 19.735,372.750 19.600,372.200 19.600 C 371.650 19.600,371.178 19.420,371.150 19.200 C 371.123 18.980,371.078 18.575,371.050 18.301 C 371.023 18.026,370.730 17.801,370.400 17.801 C 370.070 17.800,369.313 17.305,368.718 16.700 C 368.100 16.071,367.200 15.600,366.618 15.600 C 365.867 15.600,365.600 15.390,365.600 14.800 C 365.600 14.267,365.333 14.000,364.800 14.000 C 364.084 14.000,363.923 13.778,364.034 12.945 C 364.103 12.433,362.965 12.012,361.500 12.006 C 360.269 12.001,360.000 11.857,360.000 11.200 C 360.000 10.416,359.864 10.366,357.400 10.241 C 356.891 10.215,356.554 9.873,356.472 9.300 C 356.380 8.649,356.076 8.400,355.372 8.400 C 354.837 8.400,354.400 8.209,354.400 7.976 C 354.400 7.743,354.232 7.656,354.028 7.783 C 353.823 7.909,353.525 7.802,353.366 7.545 C 353.185 7.252,353.250 7.184,353.538 7.362 C 353.792 7.519,354.000 7.459,354.000 7.228 C 354.000 6.998,353.280 6.694,352.400 6.554 C 350.956 6.323,350.608 6.016,350.753 5.100 C 350.779 4.935,350.665 4.821,350.500 4.847 C 348.082 5.229,345.267 4.722,345.052 3.866 C 344.841 3.025,344.568 2.923,342.318 2.842 C 339.716 2.748,339.400 2.642,339.400 1.867 C 339.400 1.610,339.220 1.397,339.000 1.394 C 338.780 1.391,338.420 1.282,338.200 1.153 C 337.980 1.023,336.630 0.878,335.200 0.829 C 333.770 0.781,332.540 0.574,332.467 0.371 C 332.291 -0.118,67.715 -0.131,67.533 0.358 M182.711 106.274 C 182.067 106.443,182.015 108.635,181.911 139.766 C 181.819 167.291,181.705 173.192,181.251 173.739 C 180.496 174.648,178.096 174.578,176.490 173.599 C 175.770 173.159,174.690 172.798,174.090 172.796 C 173.491 172.794,172.100 172.350,171.000 171.809 C 169.900 171.268,168.460 170.819,167.800 170.811 C 167.140 170.803,166.045 170.459,165.367 170.045 C 164.688 169.631,163.338 169.163,162.367 169.004 C 161.395 168.845,160.039 168.374,159.353 167.958 C 158.667 167.541,157.659 167.200,157.112 167.200 C 155.849 167.200,153.600 166.425,153.600 165.990 C 153.600 165.807,152.608 165.534,151.394 165.382 C 150.181 165.230,148.758 164.767,148.231 164.353 C 147.705 163.939,146.851 163.600,146.334 163.600 C 145.014 163.600,142.706 162.895,142.399 162.398 C 142.257 162.169,141.094 161.811,139.815 161.602 C 138.536 161.394,137.198 160.961,136.843 160.639 C 136.487 160.317,135.253 159.928,134.100 159.776 C 132.947 159.623,131.645 159.186,131.206 158.805 C 130.766 158.424,129.481 158.003,128.349 157.868 C 127.217 157.734,126.000 157.364,125.645 157.046 C 125.290 156.728,124.280 156.349,123.400 156.204 C 121.339 155.863,119.600 155.199,119.600 154.751 C 119.600 153.004,115.606 155.129,114.999 157.200 C 114.837 157.750,114.481 158.470,114.207 158.800 C 113.932 159.130,113.593 160.287,113.452 161.371 C 113.311 162.455,112.921 163.645,112.586 164.015 C 112.251 164.386,111.807 165.729,111.600 167.000 C 111.393 168.271,110.965 169.601,110.648 169.955 C 110.330 170.310,109.949 171.500,109.800 172.600 C 109.650 173.700,109.184 175.088,108.764 175.684 C 108.344 176.280,108.000 177.181,108.000 177.686 C 108.000 178.975,107.294 181.295,106.810 181.594 C 106.588 181.731,106.297 182.734,106.163 183.822 C 106.029 184.910,105.577 186.288,105.159 186.884 C 103.809 188.811,105.201 191.994,107.399 192.004 C 107.839 192.006,109.100 192.450,110.200 192.991 C 111.300 193.532,112.761 193.981,113.446 193.987 C 114.131 193.994,115.121 194.335,115.646 194.744 C 116.171 195.153,117.500 195.619,118.600 195.779 C 119.700 195.939,121.161 196.414,121.847 196.835 C 122.533 197.256,123.556 197.600,124.121 197.600 C 125.320 197.600,127.283 198.287,127.614 198.822 C 127.740 199.026,128.734 199.303,129.822 199.437 C 130.910 199.571,132.288 200.023,132.884 200.441 C 133.480 200.858,134.381 201.200,134.886 201.200 C 136.245 201.200,138.502 201.917,138.834 202.454 C 138.993 202.712,140.147 203.062,141.398 203.232 C 142.648 203.402,143.970 203.804,144.336 204.127 C 144.701 204.449,145.810 204.842,146.800 204.999 C 147.790 205.156,149.140 205.602,149.800 205.991 C 150.460 206.379,151.887 206.811,152.971 206.950 C 154.055 207.090,155.247 207.481,155.621 207.819 C 155.995 208.157,156.998 208.531,157.850 208.650 C 159.732 208.913,161.600 209.586,161.600 210.002 C 161.600 210.170,162.581 210.430,163.779 210.580 C 167.204 211.008,169.596 213.327,168.011 214.683 C 167.565 215.065,167.200 215.598,167.200 215.866 C 167.200 216.135,166.869 216.590,166.465 216.877 C 166.061 217.165,165.476 217.862,165.165 218.426 C 163.932 220.664,162.702 222.400,162.351 222.400 C 162.147 222.400,161.807 222.855,161.596 223.410 C 161.385 223.966,160.939 224.525,160.606 224.653 C 160.273 224.781,160.000 225.112,160.000 225.388 C 160.000 225.860,158.438 228.121,157.009 229.716 C 156.657 230.109,156.167 230.874,155.920 231.416 C 155.673 231.957,155.311 232.400,155.115 232.400 C 154.919 232.400,154.569 232.944,154.337 233.608 C 154.105 234.273,153.575 234.999,153.158 235.223 C 152.741 235.446,152.400 235.882,152.400 236.191 C 152.400 236.501,152.085 236.991,151.700 237.281 C 151.315 237.570,150.730 238.278,150.400 238.855 C 149.151 241.037,147.577 243.200,147.238 243.200 C 147.045 243.200,146.774 243.650,146.636 244.200 C 146.498 244.750,146.212 245.200,146.001 245.200 C 145.789 245.200,145.249 245.920,144.800 246.800 C 144.351 247.680,143.852 248.401,143.692 248.403 C 143.531 248.404,143.040 248.983,142.600 249.688 C 142.160 250.394,141.530 251.355,141.200 251.822 C 140.870 252.290,140.103 253.421,139.495 254.336 C 138.887 255.251,138.232 256.000,138.038 256.000 C 137.845 256.000,137.574 256.450,137.436 257.000 C 137.298 257.550,137.013 258.000,136.803 258.000 C 136.592 258.000,136.136 258.550,135.789 259.221 C 135.442 259.893,134.890 260.748,134.564 261.121 C 133.156 262.733,132.000 264.343,132.000 264.696 C 132.000 264.905,131.640 265.402,131.200 265.800 C 129.706 267.152,131.060 271.600,132.966 271.600 C 133.240 271.600,136.598 274.141,137.450 274.993 C 137.784 275.327,138.295 275.600,138.586 275.600 C 138.877 275.600,139.212 275.855,139.332 276.166 C 139.451 276.477,139.985 276.972,140.519 277.266 C 142.495 278.355,144.800 280.021,144.800 280.362 C 144.800 280.555,145.250 280.826,145.800 280.964 C 146.350 281.102,146.800 281.374,146.800 281.568 C 146.800 281.762,147.433 282.294,148.207 282.751 C 149.719 283.643,150.344 284.112,151.825 285.469 C 152.347 285.947,153.140 286.454,153.587 286.596 C 154.034 286.738,154.400 287.018,154.400 287.219 C 154.400 287.420,155.103 287.943,155.963 288.381 C 156.823 288.820,157.603 289.408,157.697 289.689 C 157.935 290.405,161.576 290.296,162.005 289.561 C 162.725 288.329,164.249 286.246,165.100 285.331 C 165.595 284.799,166.000 284.192,166.000 283.982 C 166.000 283.772,166.350 283.250,166.779 282.821 C 167.207 282.393,167.842 281.493,168.189 280.821 C 168.536 280.150,168.974 279.600,169.162 279.600 C 169.349 279.600,169.727 279.060,170.000 278.400 C 170.273 277.740,170.645 277.200,170.827 277.200 C 171.008 277.200,171.391 276.775,171.678 276.256 C 172.770 274.280,174.424 272.000,174.766 272.000 C 174.962 272.000,175.310 271.460,175.540 270.800 C 175.770 270.140,176.114 269.600,176.305 269.600 C 176.496 269.600,176.952 268.970,177.319 268.200 C 177.687 267.430,178.148 266.800,178.345 266.800 C 178.542 266.800,178.927 266.260,179.200 265.600 C 179.473 264.940,179.837 264.400,180.009 264.400 C 180.181 264.400,180.689 263.815,181.138 263.100 C 181.588 262.385,182.502 261.080,183.169 260.200 C 183.837 259.320,184.562 258.195,184.782 257.700 C 185.001 257.205,185.356 256.800,185.571 256.800 C 185.786 256.800,186.261 256.170,186.627 255.400 C 186.992 254.630,187.422 254.000,187.581 254.000 C 187.741 254.000,188.073 253.557,188.320 253.016 C 188.567 252.474,189.050 251.709,189.394 251.316 C 191.367 249.060,192.000 248.253,192.000 247.997 C 192.000 247.734,193.679 245.425,194.895 244.015 C 195.173 243.693,195.580 243.132,195.800 242.768 C 197.248 240.372,199.758 237.218,200.630 236.698 C 201.117 236.408,204.000 238.715,204.000 239.394 C 204.000 239.559,204.540 240.309,205.200 241.061 C 205.860 241.813,206.400 242.672,206.400 242.971 C 206.400 243.270,206.673 243.619,207.006 243.747 C 207.339 243.875,207.785 244.434,207.996 244.990 C 208.207 245.545,208.543 246.000,208.742 246.000 C 208.940 246.000,209.327 246.540,209.600 247.200 C 209.873 247.860,210.227 248.400,210.386 248.400 C 210.544 248.400,211.013 249.030,211.428 249.800 C 211.843 250.570,212.303 251.200,212.451 251.200 C 212.600 251.200,213.089 251.785,213.538 252.500 C 213.988 253.215,214.902 254.520,215.569 255.400 C 216.237 256.280,216.962 257.405,217.182 257.900 C 217.401 258.395,217.769 258.800,218.000 258.800 C 218.231 258.800,218.600 259.205,218.820 259.700 C 219.221 260.601,220.587 262.629,221.901 264.276 C 222.285 264.757,223.050 265.805,223.600 266.603 C 224.150 267.402,225.005 268.564,225.500 269.185 C 225.995 269.807,226.400 270.506,226.400 270.738 C 226.400 270.970,226.654 271.304,226.965 271.480 C 227.577 271.827,230.400 275.783,230.400 276.294 C 230.400 276.467,230.760 276.832,231.200 277.107 C 231.640 277.382,232.000 277.804,232.000 278.046 C 232.000 278.287,232.405 278.993,232.900 279.615 C 233.395 280.236,234.250 281.401,234.800 282.203 C 235.350 283.005,236.160 284.093,236.600 284.621 C 237.040 285.149,237.850 286.225,238.400 287.012 C 240.333 289.778,240.612 290.026,242.044 290.255 C 243.163 290.435,243.658 290.308,244.244 289.694 C 244.660 289.258,245.585 288.604,246.300 288.241 C 247.015 287.877,247.600 287.408,247.600 287.197 C 247.600 286.987,248.050 286.702,248.600 286.564 C 249.150 286.426,249.600 286.155,249.600 285.962 C 249.600 285.640,251.684 284.111,253.750 282.917 C 254.210 282.651,254.770 282.182,254.995 281.875 C 255.219 281.568,255.807 281.188,256.302 281.031 C 256.796 280.874,257.200 280.580,257.200 280.378 C 257.200 280.043,259.249 278.531,261.350 277.317 C 261.810 277.051,262.370 276.582,262.595 276.275 C 262.819 275.968,263.407 275.588,263.902 275.431 C 264.396 275.274,264.800 274.983,264.800 274.783 C 264.800 274.584,265.350 274.136,266.021 273.789 C 266.693 273.442,267.582 272.852,267.997 272.479 C 268.412 272.105,269.388 271.260,270.167 270.600 C 272.476 268.644,272.187 266.710,269.062 263.200 C 268.768 262.870,268.190 262.015,267.777 261.300 C 267.365 260.585,266.898 260.000,266.741 260.000 C 266.583 260.000,266.338 259.634,266.196 259.187 C 266.054 258.740,265.547 257.954,265.069 257.440 C 263.709 255.979,262.411 254.233,262.405 253.858 C 262.402 253.670,261.942 252.950,261.383 252.258 C 260.824 251.566,260.098 250.640,259.769 250.200 C 259.441 249.760,258.639 248.700,257.986 247.845 C 257.334 246.990,256.800 246.143,256.800 245.963 C 256.800 245.783,256.395 245.204,255.900 244.675 C 254.777 243.476,253.761 242.151,252.774 240.600 C 252.355 239.940,251.784 239.043,251.506 238.606 C 251.228 238.169,250.685 237.574,250.300 237.283 C 249.915 236.993,249.600 236.526,249.600 236.247 C 249.600 235.968,249.150 235.317,248.600 234.800 C 248.050 234.283,247.600 233.693,247.600 233.488 C 247.600 233.283,247.152 232.550,246.604 231.858 C 244.248 228.885,242.520 226.421,242.041 225.355 C 241.832 224.890,241.377 224.400,241.031 224.267 C 240.684 224.134,240.400 223.818,240.400 223.565 C 240.400 223.312,239.860 222.491,239.200 221.739 C 238.540 220.987,238.000 220.198,238.000 219.986 C 238.000 219.774,237.725 219.285,237.390 218.900 C 235.318 216.523,234.800 215.831,234.586 215.155 C 234.454 214.740,234.178 214.400,233.973 214.400 C 231.881 214.400,235.271 210.947,237.677 210.628 C 238.843 210.473,240.086 210.084,240.440 209.763 C 240.795 209.443,242.191 208.986,243.542 208.747 C 244.894 208.509,246.000 208.162,246.000 207.976 C 246.000 207.578,248.590 206.805,249.937 206.802 C 250.452 206.801,251.305 206.461,251.831 206.047 C 252.358 205.633,253.781 205.170,254.994 205.018 C 256.208 204.866,257.200 204.593,257.200 204.410 C 257.200 203.969,259.454 203.201,260.760 203.197 C 261.332 203.196,262.337 202.841,262.994 202.408 C 263.650 201.975,264.988 201.501,265.966 201.354 C 266.945 201.207,268.297 200.774,268.973 200.390 C 269.648 200.007,271.005 199.574,271.990 199.427 C 272.974 199.281,274.067 198.901,274.419 198.583 C 274.771 198.265,275.945 197.887,277.029 197.744 C 278.113 197.600,279.454 197.167,280.008 196.780 C 280.562 196.393,281.912 195.947,283.008 195.789 C 284.104 195.631,285.290 195.249,285.645 194.939 C 285.999 194.629,287.329 194.207,288.600 194.000 C 289.871 193.793,291.201 193.364,291.555 193.046 C 291.910 192.728,292.917 192.335,293.793 192.172 C 296.968 191.582,298.335 189.105,296.842 186.647 C 296.426 185.961,295.955 184.605,295.796 183.633 C 295.637 182.662,295.169 181.312,294.755 180.633 C 294.341 179.955,293.997 178.860,293.989 178.200 C 293.981 177.540,293.532 176.100,292.991 175.000 C 292.450 173.900,292.006 172.481,292.004 171.847 C 292.002 171.213,291.661 170.133,291.247 169.447 C 290.833 168.761,290.367 167.300,290.212 166.200 C 290.056 165.100,289.674 163.915,289.363 163.567 C 289.052 163.219,288.601 161.869,288.360 160.567 C 288.120 159.265,287.784 158.110,287.615 158.000 C 287.446 157.890,286.920 157.035,286.446 156.100 C 285.446 154.127,283.660 153.775,281.684 155.159 C 281.088 155.577,279.710 156.029,278.622 156.163 C 277.534 156.297,276.540 156.574,276.414 156.778 C 276.078 157.320,274.115 158.000,272.874 158.003 C 272.283 158.004,271.268 158.356,270.619 158.784 C 269.969 159.212,268.484 159.682,267.319 159.827 C 266.153 159.973,265.200 160.223,265.200 160.382 C 265.200 160.845,263.262 161.600,262.075 161.600 C 261.477 161.600,260.322 161.957,259.509 162.393 C 258.695 162.829,257.258 163.303,256.315 163.446 C 255.372 163.589,254.315 163.953,253.967 164.254 C 253.619 164.556,252.269 164.998,250.967 165.236 C 249.665 165.475,248.292 165.946,247.916 166.282 C 247.540 166.619,246.370 166.989,245.316 167.105 C 244.262 167.221,242.992 167.634,242.492 168.022 C 241.993 168.410,240.643 168.853,239.492 169.007 C 238.342 169.160,237.110 169.542,236.755 169.855 C 236.401 170.168,235.092 170.590,233.846 170.792 C 232.601 170.995,231.314 171.429,230.986 171.757 C 230.659 172.084,229.538 172.474,228.495 172.623 C 227.453 172.772,226.039 173.233,225.353 173.647 C 224.667 174.061,223.462 174.400,222.675 174.400 C 219.845 174.400,220.000 176.382,220.000 140.085 C 220.000 118.421,219.862 107.289,219.586 106.774 C 219.192 106.037,185.360 105.578,182.711 106.274 " stroke="none" fill="#048bfb" fill-rule="evenodd"></path><path id="path2" d="M115.800 59.169 C 115.140 59.330,114.240 59.654,113.800 59.890 C 113.360 60.126,111.920 60.448,110.600 60.606 C 109.280 60.763,107.639 61.231,106.953 61.646 C 106.267 62.061,105.303 62.400,104.812 62.400 C 104.320 62.400,103.081 62.834,102.059 63.364 C 101.037 63.895,99.750 64.528,99.200 64.773 C 98.650 65.017,97.300 65.743,96.200 66.385 C 95.100 67.028,93.705 67.762,93.100 68.016 C 92.495 68.270,92.000 68.645,92.000 68.849 C 92.000 69.053,91.595 69.375,91.100 69.566 C 90.230 69.900,85.682 73.381,84.345 74.736 C 83.985 75.101,83.043 75.940,82.254 76.600 C 81.464 77.260,80.813 78.013,80.809 78.273 C 80.804 78.533,80.440 78.860,80.000 79.000 C 79.560 79.140,79.200 79.423,79.200 79.630 C 79.200 79.836,78.750 80.397,78.200 80.875 C 77.650 81.353,77.200 81.884,77.200 82.054 C 77.200 82.224,76.795 82.796,76.300 83.325 C 75.060 84.649,74.173 85.859,72.728 88.200 C 72.049 89.300,71.165 90.677,70.764 91.260 C 70.363 91.843,69.921 92.775,69.782 93.331 C 69.642 93.887,69.299 94.430,69.020 94.537 C 68.741 94.644,68.311 95.532,68.064 96.510 C 67.818 97.488,67.352 98.508,67.028 98.777 C 66.704 99.046,66.318 100.106,66.171 101.133 C 66.023 102.160,65.620 103.322,65.276 103.715 C 64.932 104.107,64.523 105.505,64.368 106.820 C 64.213 108.135,63.752 109.884,63.343 110.706 C 62.243 112.918,62.173 283.583,63.271 285.259 C 63.640 285.823,64.123 287.587,64.344 289.180 C 64.564 290.773,65.005 292.374,65.322 292.738 C 65.639 293.102,66.026 294.110,66.182 294.978 C 66.338 295.845,66.796 297.195,67.200 297.978 C 67.603 298.760,68.139 299.850,68.390 300.400 C 68.641 300.950,69.362 302.300,69.992 303.400 C 70.622 304.500,71.413 305.985,71.749 306.700 C 72.084 307.415,72.536 308.000,72.753 308.000 C 72.969 308.000,73.273 308.405,73.428 308.900 C 73.693 309.749,74.367 310.716,76.493 313.304 C 77.670 314.737,85.263 322.330,86.696 323.507 C 89.324 325.667,90.339 326.400,90.699 326.400 C 90.910 326.400,91.569 326.850,92.162 327.400 C 92.756 327.950,93.474 328.400,93.759 328.400 C 94.043 328.400,94.602 328.760,95.000 329.200 C 95.398 329.640,96.021 330.000,96.384 330.000 C 96.747 330.000,97.655 330.450,98.400 331.000 C 99.145 331.550,100.014 332.000,100.330 332.000 C 100.647 332.000,101.467 332.345,102.153 332.766 C 102.839 333.188,104.120 333.661,105.000 333.817 C 105.880 333.973,106.898 334.361,107.262 334.678 C 107.626 334.995,109.227 335.436,110.820 335.656 C 112.413 335.877,114.177 336.360,114.740 336.729 C 115.670 337.339,118.699 337.418,147.840 337.600 C 177.663 337.786,179.971 337.849,180.690 338.500 C 181.115 338.885,181.641 339.200,181.859 339.200 C 182.078 339.200,182.861 339.740,183.600 340.400 C 184.339 341.060,185.138 341.600,185.376 341.600 C 185.613 341.600,186.032 341.960,186.307 342.400 C 186.582 342.840,187.066 343.200,187.384 343.200 C 187.701 343.200,188.104 343.429,188.280 343.710 C 188.581 344.190,189.504 344.887,191.950 346.486 C 193.304 347.371,194.630 348.396,195.718 349.400 C 196.195 349.840,196.873 350.380,197.225 350.600 C 199.271 351.880,200.702 352.853,201.467 353.484 C 201.944 353.878,202.808 354.560,203.387 355.000 C 203.966 355.440,205.039 356.295,205.773 356.900 C 206.506 357.505,207.236 358.000,207.395 358.000 C 207.554 358.000,208.250 358.458,208.942 359.017 C 209.634 359.576,210.560 360.302,211.000 360.631 C 211.440 360.959,212.500 361.761,213.355 362.414 C 214.210 363.066,215.057 363.600,215.237 363.600 C 215.417 363.600,215.996 364.005,216.525 364.500 C 217.484 365.399,217.988 365.793,221.000 368.000 C 222.853 369.358,223.617 369.936,225.755 371.594 C 226.610 372.257,227.439 372.800,227.597 372.800 C 227.754 372.800,228.352 373.205,228.926 373.700 C 229.499 374.195,230.381 374.912,230.884 375.294 C 231.388 375.675,232.500 376.530,233.355 377.194 C 234.210 377.857,235.149 378.400,235.441 378.400 C 235.733 378.400,236.165 378.760,236.400 379.200 C 236.635 379.640,237.059 380.000,237.342 380.000 C 237.625 380.000,238.222 380.405,238.669 380.900 C 239.117 381.395,240.085 382.160,240.822 382.600 C 241.559 383.040,242.515 383.612,242.948 383.871 C 243.381 384.129,243.894 384.624,244.088 384.971 C 244.281 385.317,244.669 385.600,244.950 385.600 C 245.231 385.600,245.883 386.050,246.400 386.600 C 246.917 387.150,247.507 387.600,247.712 387.600 C 247.917 387.600,248.650 388.048,249.342 388.596 C 250.034 389.145,250.960 389.862,251.400 390.190 C 251.840 390.519,252.900 391.330,253.755 391.994 C 254.610 392.657,255.549 393.200,255.841 393.200 C 256.133 393.200,256.565 393.560,256.800 394.000 C 257.035 394.440,257.464 394.800,257.752 394.800 C 258.040 394.800,258.596 395.153,258.986 395.585 C 259.377 396.017,260.305 396.571,261.048 396.816 C 261.792 397.061,262.400 397.437,262.400 397.652 C 262.400 397.866,262.940 398.230,263.600 398.460 C 264.260 398.690,264.800 399.131,264.800 399.439 C 264.800 399.810,265.260 400.000,266.158 400.000 C 268.096 400.000,268.065 400.444,268.362 368.200 C 268.505 352.580,268.774 339.393,268.959 338.896 C 269.402 337.704,269.757 337.651,278.400 337.499 C 284.557 337.391,286.051 337.247,287.294 336.641 C 288.116 336.241,289.865 335.787,291.180 335.632 C 292.495 335.477,293.893 335.070,294.285 334.728 C 294.678 334.386,295.789 333.986,296.754 333.840 C 297.718 333.693,298.958 333.219,299.508 332.787 C 300.058 332.354,300.909 332.000,301.400 332.000 C 301.891 332.000,302.724 331.660,303.253 331.244 C 303.781 330.829,304.840 330.196,305.607 329.837 C 307.449 328.976,309.177 327.940,310.004 327.200 C 310.373 326.870,311.279 326.240,312.018 325.800 C 314.402 324.380,314.612 324.222,316.115 322.715 C 316.930 321.898,317.958 321.037,318.398 320.801 C 318.839 320.565,319.200 320.108,319.200 319.786 C 319.200 319.464,319.425 319.196,319.700 319.191 C 319.975 319.187,320.740 318.528,321.400 317.727 C 322.060 316.927,322.973 315.896,323.430 315.436 C 325.045 313.809,328.064 309.883,328.420 308.948 C 328.618 308.427,328.943 308.000,329.142 308.000 C 329.340 308.000,329.743 307.415,330.037 306.700 C 330.330 305.985,330.892 305.051,331.285 304.625 C 331.678 304.198,332.000 303.545,332.000 303.174 C 332.000 302.802,332.269 302.275,332.598 302.002 C 332.927 301.728,333.413 300.761,333.678 299.853 C 333.944 298.944,334.468 297.750,334.843 297.200 C 335.218 296.650,335.647 295.480,335.796 294.600 C 335.946 293.720,336.318 292.721,336.624 292.379 C 336.930 292.038,337.350 290.598,337.557 289.179 C 337.764 287.761,338.263 285.880,338.666 285.000 C 339.814 282.498,339.811 113.382,338.664 111.200 C 338.259 110.430,337.765 108.556,337.567 107.035 C 337.368 105.514,336.949 103.984,336.637 103.635 C 336.324 103.286,335.946 102.280,335.796 101.400 C 335.647 100.520,335.205 99.343,334.813 98.784 C 334.421 98.226,333.974 97.193,333.820 96.489 C 333.665 95.785,333.357 95.097,333.136 94.961 C 332.915 94.824,332.381 93.967,331.950 93.056 C 330.616 90.238,329.399 88.266,328.888 88.096 C 328.620 88.007,328.400 87.607,328.400 87.209 C 328.400 86.810,327.953 86.060,327.407 85.542 C 326.861 85.024,326.411 84.426,326.407 84.214 C 326.399 83.785,326.498 83.893,320.660 77.900 C 318.357 75.535,316.341 73.600,316.182 73.600 C 316.022 73.600,315.470 73.195,314.956 72.700 C 313.172 70.985,312.363 70.366,311.284 69.890 C 310.688 69.627,309.965 69.095,309.677 68.706 C 309.390 68.318,308.922 68.000,308.639 68.000 C 308.355 68.000,307.702 67.635,307.187 67.189 C 306.673 66.743,305.810 66.267,305.268 66.131 C 304.727 65.995,303.950 65.550,303.542 65.142 C 303.134 64.734,302.374 64.400,301.854 64.400 C 301.334 64.400,300.446 64.037,299.882 63.593 C 299.318 63.149,298.027 62.631,297.014 62.442 C 296.000 62.253,294.863 61.825,294.486 61.492 C 294.109 61.158,292.635 60.754,291.210 60.593 C 289.786 60.432,288.174 60.008,287.628 59.650 C 286.568 58.956,118.610 58.486,115.800 59.169 M282.000 60.026 C 282.990 60.242,284.970 60.610,286.400 60.845 C 287.830 61.079,290.372 61.705,292.048 62.236 C 293.725 62.766,295.311 63.200,295.573 63.200 C 296.522 63.200,304.461 67.035,307.200 68.816 C 308.190 69.460,309.270 70.116,309.600 70.273 C 313.983 72.365,324.167 82.503,327.416 88.010 C 327.644 88.398,328.073 89.006,328.369 89.362 C 329.909 91.218,334.470 100.767,335.007 103.259 C 335.166 103.997,335.538 105.072,335.832 105.650 C 336.127 106.227,336.559 107.937,336.792 109.450 C 337.025 110.962,337.527 113.370,337.908 114.800 C 338.986 118.849,338.976 276.704,337.897 281.000 C 337.511 282.540,337.033 284.991,336.835 286.447 C 336.637 287.903,336.212 289.613,335.891 290.247 C 335.570 290.881,335.178 292.120,335.020 293.000 C 334.862 293.880,334.407 295.140,334.010 295.800 C 333.612 296.460,333.165 297.573,333.017 298.272 C 332.870 298.972,332.502 299.750,332.200 300.000 C 331.898 300.250,331.536 300.981,331.395 301.623 C 331.254 302.265,330.970 302.895,330.764 303.023 C 330.557 303.150,330.010 303.996,329.548 304.902 C 329.086 305.808,328.458 306.799,328.154 307.103 C 327.849 307.408,327.600 307.798,327.600 307.970 C 327.600 308.142,327.195 308.746,326.700 309.311 C 326.205 309.876,325.350 310.997,324.800 311.802 C 324.250 312.607,323.350 313.762,322.800 314.368 C 319.866 317.602,319.160 318.336,317.554 319.826 C 315.270 321.943,310.525 325.600,310.060 325.600 C 309.861 325.600,309.472 325.872,309.196 326.205 C 308.920 326.537,307.953 327.166,307.047 327.601 C 306.141 328.037,304.140 329.043,302.600 329.836 C 298.059 332.175,296.703 332.753,294.775 333.173 C 293.771 333.391,292.438 333.835,291.812 334.160 C 291.187 334.484,289.488 334.875,288.038 335.028 C 286.587 335.181,284.590 335.552,283.600 335.851 C 282.610 336.150,279.190 336.497,276.000 336.623 C 268.832 336.905,268.670 336.938,267.749 338.295 C 267.039 339.342,266.990 340.893,266.800 368.000 C 266.667 386.972,266.458 396.839,266.178 397.310 C 265.608 398.271,262.686 396.744,256.400 392.200 C 255.791 391.760,254.239 390.680,252.950 389.800 C 251.661 388.920,250.308 387.930,249.943 387.600 C 249.579 387.270,248.625 386.550,247.824 386.000 C 246.497 385.089,244.713 383.785,242.600 382.180 C 241.199 381.116,238.879 379.432,237.393 378.400 C 236.600 377.850,235.719 377.188,235.434 376.929 C 235.149 376.670,234.384 376.130,233.735 375.729 C 233.085 375.328,231.664 374.318,230.577 373.484 C 228.609 371.974,219.778 365.518,218.140 364.391 C 217.174 363.726,211.031 359.170,209.800 358.204 C 209.360 357.859,207.650 356.600,206.000 355.405 C 204.350 354.211,202.640 352.951,202.200 352.605 C 201.760 352.260,200.050 350.991,198.400 349.786 C 196.750 348.581,195.040 347.316,194.600 346.976 C 193.236 345.920,186.648 341.038,185.597 340.303 C 185.049 339.920,183.699 338.986,182.597 338.228 L 180.593 336.851 150.397 336.695 C 124.274 336.561,119.903 336.454,118.000 335.903 C 116.790 335.553,114.810 335.139,113.600 334.984 C 112.390 334.830,110.538 334.365,109.485 333.952 C 108.432 333.538,107.262 333.194,106.885 333.187 C 106.508 333.181,105.300 332.732,104.200 332.191 C 103.100 331.650,101.909 331.206,101.554 331.204 C 101.199 331.202,100.464 330.851,99.922 330.425 C 99.380 329.998,98.469 329.532,97.898 329.389 C 97.326 329.245,96.548 328.784,96.167 328.364 C 95.787 327.944,95.279 327.597,95.038 327.594 C 94.797 327.591,93.700 326.955,92.600 326.183 C 91.500 325.410,90.150 324.478,89.600 324.111 C 84.011 320.386,72.450 307.509,72.407 304.962 C 72.403 304.721,72.068 304.223,71.661 303.856 C 71.255 303.488,70.714 302.491,70.460 301.641 C 70.205 300.791,69.727 299.872,69.398 299.598 C 69.069 299.325,68.798 298.809,68.796 298.451 C 68.794 298.093,68.350 296.900,67.809 295.800 C 67.268 294.700,66.819 293.473,66.813 293.074 C 66.806 292.675,66.459 291.505,66.041 290.474 C 65.295 288.632,64.308 283.505,63.563 277.606 C 62.822 271.738,63.310 116.573,64.078 114.000 C 64.439 112.790,64.859 110.810,65.011 109.600 C 65.164 108.390,65.628 106.645,66.044 105.722 C 66.460 104.799,66.802 103.719,66.804 103.322 C 66.806 102.925,67.250 101.700,67.791 100.600 C 68.332 99.500,68.781 98.393,68.787 98.141 C 68.801 97.658,70.540 94.223,71.799 92.194 C 74.334 88.109,74.813 87.359,75.122 86.990 C 75.310 86.764,75.810 86.047,76.232 85.396 C 77.408 83.584,77.654 83.310,82.311 78.600 C 84.705 76.180,87.337 73.750,88.161 73.200 C 88.985 72.650,89.961 71.924,90.329 71.586 C 91.484 70.530,95.425 68.171,98.256 66.843 C 99.167 66.416,100.032 65.871,100.180 65.633 C 100.327 65.395,100.759 65.200,101.139 65.200 C 101.520 65.200,102.544 64.834,103.415 64.386 C 104.287 63.938,105.810 63.372,106.800 63.127 C 107.790 62.883,109.057 62.454,109.617 62.174 C 110.176 61.895,112.066 61.468,113.817 61.227 C 115.567 60.985,117.540 60.621,118.200 60.416 C 118.860 60.212,119.850 59.969,120.400 59.877 C 122.634 59.502,280.259 59.648,282.000 60.026 M182.875 105.044 C 180.351 106.146,180.432 105.110,180.136 140.188 C 179.934 164.227,179.751 172.109,179.387 172.411 C 178.865 172.844,174.619 171.929,172.786 170.989 C 172.229 170.703,171.059 170.339,170.186 170.180 C 169.314 170.022,167.970 169.582,167.200 169.204 C 166.430 168.825,165.170 168.396,164.400 168.251 C 163.630 168.105,162.100 167.653,161.000 167.245 C 157.459 165.933,155.049 165.147,152.878 164.598 C 151.712 164.303,150.529 163.873,150.251 163.642 C 149.973 163.412,148.769 163.013,147.577 162.758 C 146.384 162.502,145.046 162.060,144.604 161.776 C 144.162 161.492,143.080 161.133,142.200 160.979 C 141.320 160.825,139.880 160.378,139.000 159.986 C 138.120 159.594,136.680 159.139,135.800 158.976 C 134.920 158.813,133.838 158.444,133.395 158.156 C 132.952 157.868,131.604 157.421,130.399 157.162 C 129.194 156.904,127.846 156.460,127.404 156.176 C 126.962 155.892,125.880 155.532,125.000 155.376 C 124.120 155.219,122.732 154.756,121.916 154.346 C 117.481 152.117,113.866 154.057,112.749 159.264 C 112.498 160.435,112.065 161.754,111.786 162.196 C 111.507 162.638,111.077 163.978,110.828 165.173 C 110.580 166.368,110.218 167.538,110.024 167.773 C 109.830 168.008,109.386 169.303,109.038 170.651 C 108.689 171.999,108.134 173.619,107.804 174.251 C 107.475 174.883,107.204 175.853,107.202 176.406 C 107.201 176.959,106.866 178.039,106.459 178.806 C 106.051 179.573,105.585 180.920,105.422 181.800 C 105.260 182.680,104.784 184.155,104.364 185.078 C 102.163 189.912,104.676 193.471,111.115 194.639 C 111.932 194.787,113.230 195.219,114.000 195.600 C 114.770 195.981,116.073 196.414,116.894 196.563 C 117.716 196.712,119.156 197.183,120.094 197.608 C 121.033 198.034,122.160 198.387,122.600 198.394 C 123.040 198.400,123.917 198.675,124.549 199.004 C 125.181 199.334,126.801 199.889,128.149 200.238 C 129.497 200.586,130.792 201.030,131.027 201.224 C 131.262 201.418,132.431 201.787,133.623 202.042 C 134.816 202.298,136.154 202.735,136.596 203.014 C 137.038 203.293,138.378 203.723,139.573 203.972 C 140.768 204.220,141.973 204.612,142.251 204.842 C 142.529 205.073,143.712 205.503,144.878 205.798 C 147.049 206.347,149.459 207.133,153.000 208.445 C 154.100 208.853,155.630 209.305,156.400 209.451 C 157.170 209.596,158.430 210.025,159.200 210.404 C 159.970 210.782,161.314 211.222,162.186 211.380 C 166.506 212.166,167.584 213.864,165.327 216.330 C 164.783 216.924,161.624 221.225,160.000 223.582 C 159.670 224.061,158.458 225.746,157.306 227.326 C 156.154 228.907,154.303 231.460,153.192 233.000 C 150.811 236.301,150.296 237.002,149.079 238.600 C 148.156 239.812,146.934 241.575,146.200 242.754 C 145.980 243.108,145.151 244.207,144.358 245.198 C 143.566 246.189,142.686 247.450,142.403 248.000 C 142.120 248.550,141.640 249.270,141.335 249.600 C 140.776 250.206,139.375 252.072,137.669 254.484 C 135.806 257.115,131.221 263.427,130.397 264.492 C 127.738 267.929,129.069 270.572,135.785 275.200 C 136.584 275.750,138.300 277.010,139.600 278.000 C 140.900 278.990,142.610 280.250,143.400 280.800 C 144.190 281.350,145.900 282.610,147.200 283.600 C 148.500 284.590,150.206 285.850,150.991 286.400 C 151.777 286.950,153.430 288.168,154.666 289.107 C 155.902 290.045,157.383 290.915,157.957 291.040 C 158.530 291.165,159.212 291.331,159.470 291.409 C 160.662 291.771,162.697 290.730,163.821 289.184 C 164.469 288.291,165.450 286.947,166.000 286.197 C 166.550 285.447,167.410 284.241,167.910 283.516 C 168.411 282.792,170.062 280.490,171.579 278.400 C 173.096 276.310,174.756 274.008,175.269 273.284 C 176.443 271.624,178.280 269.134,178.747 268.569 C 178.943 268.331,179.554 267.431,180.104 266.569 C 180.654 265.706,181.621 264.332,182.252 263.516 C 182.883 262.701,183.850 261.388,184.400 260.600 C 185.324 259.276,186.730 257.362,188.220 255.400 C 189.179 254.137,190.916 251.752,191.923 250.316 C 195.428 245.318,196.864 243.299,197.410 242.600 C 197.755 242.160,198.696 240.927,199.503 239.859 L 200.970 237.919 202.185 239.314 C 202.853 240.081,203.850 241.378,204.400 242.195 C 204.950 243.012,205.670 243.982,206.000 244.350 C 206.330 244.719,207.320 246.095,208.200 247.410 C 209.080 248.724,210.025 249.944,210.300 250.120 C 210.575 250.296,210.800 250.630,210.800 250.862 C 210.800 251.094,211.205 251.793,211.700 252.415 C 212.195 253.036,213.050 254.198,213.600 254.997 C 214.586 256.428,215.045 257.035,216.926 259.400 C 217.451 260.060,218.102 261.019,218.371 261.530 C 218.640 262.042,219.134 262.762,219.469 263.130 C 219.804 263.499,220.948 265.060,222.012 266.600 C 223.076 268.140,224.226 269.760,224.567 270.200 C 225.708 271.671,227.390 273.953,228.400 275.400 C 228.950 276.188,229.850 277.448,230.400 278.200 C 230.950 278.952,231.850 280.209,232.400 280.993 C 233.355 282.355,234.987 284.588,237.961 288.601 C 240.666 292.251,243.152 292.313,247.682 288.842 C 248.717 288.049,250.214 286.950,251.007 286.400 C 251.801 285.850,253.384 284.674,254.525 283.787 C 255.666 282.901,257.120 281.821,257.756 281.387 C 258.392 280.954,259.405 280.240,260.008 279.800 C 260.611 279.360,262.967 277.650,265.245 276.000 C 273.046 270.349,274.509 267.791,271.717 264.687 C 271.278 264.199,270.799 263.530,270.653 263.200 C 270.506 262.870,269.839 261.880,269.171 261.000 C 268.503 260.120,267.588 258.815,267.138 258.100 C 266.689 257.385,266.171 256.800,265.987 256.800 C 265.804 256.800,265.545 256.456,265.411 256.035 C 265.278 255.614,264.633 254.579,263.978 253.735 C 261.064 249.978,257.600 245.224,257.600 244.984 C 257.600 244.885,256.385 243.182,254.900 241.199 C 253.415 239.217,251.300 236.312,250.200 234.744 C 249.100 233.176,247.885 231.557,247.500 231.147 C 247.115 230.736,246.800 230.256,246.800 230.080 C 246.800 229.904,245.900 228.643,244.800 227.278 C 243.700 225.913,242.800 224.688,242.800 224.556 C 242.800 224.424,242.395 223.807,241.900 223.185 C 241.405 222.564,240.550 221.395,240.000 220.587 C 239.450 219.780,238.730 218.812,238.400 218.437 C 238.070 218.062,237.182 216.880,236.427 215.811 L 235.055 213.867 236.357 212.780 C 237.169 212.101,238.545 211.518,240.017 211.229 C 241.314 210.973,242.473 210.605,242.594 210.409 C 242.715 210.214,243.846 209.845,245.107 209.590 C 246.368 209.335,247.762 208.897,248.204 208.617 C 248.646 208.337,249.984 207.898,251.177 207.642 C 252.369 207.387,253.585 206.978,253.879 206.735 C 254.172 206.491,255.354 206.057,256.506 205.770 C 258.845 205.187,261.378 204.356,265.108 202.947 C 266.487 202.426,267.981 202.000,268.428 202.000 C 268.874 202.000,269.812 201.704,270.511 201.343 C 271.209 200.981,272.686 200.456,273.791 200.175 C 276.009 199.612,278.507 198.783,282.308 197.347 C 283.687 196.826,285.127 196.399,285.508 196.398 C 285.889 196.396,286.736 196.115,287.392 195.774 C 288.047 195.432,289.487 194.959,290.592 194.722 C 291.696 194.486,293.227 193.957,293.994 193.546 C 294.761 193.136,295.561 192.800,295.772 192.800 C 298.066 192.800,299.126 188.237,297.608 184.894 C 297.183 183.956,296.712 182.516,296.563 181.694 C 296.414 180.873,295.956 179.532,295.546 178.716 C 295.136 177.900,294.792 176.910,294.782 176.516 C 294.773 176.122,294.488 175.080,294.149 174.200 C 293.810 173.320,293.201 171.520,292.795 170.200 C 291.840 167.091,290.877 164.107,290.342 162.600 C 290.108 161.940,289.606 160.303,289.226 158.962 C 287.800 153.928,284.254 152.076,280.200 154.248 C 279.540 154.601,278.100 155.125,277.000 155.413 C 274.917 155.956,272.402 156.784,269.000 158.045 C 267.900 158.453,266.370 158.905,265.600 159.051 C 264.830 159.196,263.570 159.624,262.800 160.000 C 262.030 160.376,260.770 160.804,260.000 160.949 C 259.230 161.095,257.700 161.547,256.600 161.955 C 253.198 163.216,250.683 164.044,248.600 164.587 C 247.500 164.875,246.060 165.399,245.400 165.752 C 244.740 166.106,243.790 166.396,243.288 166.398 C 242.786 166.399,241.307 166.850,240.000 167.400 C 238.693 167.950,237.339 168.400,236.990 168.400 C 236.641 168.400,235.601 168.744,234.678 169.164 C 233.755 169.584,232.280 170.054,231.400 170.209 C 230.520 170.363,229.413 170.732,228.941 171.028 C 227.529 171.911,223.086 172.803,222.503 172.320 C 222.107 171.991,222.000 165.251,222.000 140.529 C 222.000 104.978,222.116 106.328,218.942 105.001 C 216.855 104.129,184.882 104.167,182.875 105.044 M219.586 106.774 C 219.862 107.289,220.000 118.421,220.000 140.085 C 220.000 176.382,219.845 174.400,222.675 174.400 C 223.462 174.400,224.667 174.061,225.353 173.647 C 226.039 173.233,227.453 172.772,228.495 172.623 C 229.538 172.474,230.659 172.084,230.986 171.757 C 231.314 171.429,232.601 170.995,233.846 170.792 C 235.092 170.590,236.401 170.168,236.755 169.855 C 237.110 169.542,238.342 169.160,239.492 169.007 C 240.643 168.853,241.993 168.410,242.492 168.022 C 242.992 167.634,244.262 167.221,245.316 167.105 C 246.370 166.989,247.540 166.619,247.916 166.282 C 248.292 165.946,249.665 165.475,250.967 165.236 C 252.269 164.998,253.619 164.556,253.967 164.254 C 254.315 163.953,255.372 163.589,256.315 163.446 C 257.258 163.303,258.695 162.829,259.509 162.393 C 260.322 161.957,261.477 161.600,262.075 161.600 C 263.262 161.600,265.200 160.845,265.200 160.382 C 265.200 160.223,266.153 159.973,267.319 159.827 C 268.484 159.682,269.969 159.212,270.619 158.784 C 271.268 158.356,272.283 158.004,272.874 158.003 C 274.115 158.000,276.078 157.320,276.414 156.778 C 276.540 156.574,277.534 156.297,278.622 156.163 C 279.710 156.029,281.088 155.577,281.684 155.159 C 283.660 153.775,285.446 154.127,286.446 156.100 C 286.920 157.035,287.446 157.890,287.615 158.000 C 287.784 158.110,288.120 159.265,288.360 160.567 C 288.601 161.869,289.052 163.219,289.363 163.567 C 289.674 163.915,290.056 165.100,290.212 166.200 C 290.367 167.300,290.833 168.761,291.247 169.447 C 291.661 170.133,292.002 171.213,292.004 171.847 C 292.006 172.481,292.450 173.900,292.991 175.000 C 293.532 176.100,293.981 177.540,293.989 178.200 C 293.997 178.860,294.341 179.955,294.755 180.633 C 295.169 181.312,295.637 182.662,295.796 183.633 C 295.955 184.605,296.426 185.961,296.842 186.647 C 298.335 189.105,296.968 191.582,293.793 192.172 C 292.917 192.335,291.910 192.728,291.555 193.046 C 291.201 193.364,289.871 193.793,288.600 194.000 C 287.329 194.207,285.999 194.629,285.645 194.939 C 285.290 195.249,284.104 195.631,283.008 195.789 C 281.912 195.947,280.562 196.393,280.008 196.780 C 279.454 197.167,278.113 197.600,277.029 197.744 C 275.945 197.887,274.771 198.265,274.419 198.583 C 274.067 198.901,272.974 199.281,271.990 199.427 C 271.005 199.574,269.648 200.007,268.973 200.390 C 268.297 200.774,266.945 201.207,265.966 201.354 C 264.988 201.501,263.650 201.975,262.994 202.408 C 262.337 202.841,261.332 203.196,260.760 203.197 C 259.454 203.201,257.200 203.969,257.200 204.410 C 257.200 204.593,256.208 204.866,254.994 205.018 C 253.781 205.170,252.358 205.633,251.831 206.047 C 251.305 206.461,250.452 206.801,249.937 206.802 C 248.590 206.805,246.000 207.578,246.000 207.976 C 246.000 208.162,244.894 208.509,243.542 208.747 C 242.191 208.986,240.795 209.443,240.440 209.763 C 240.086 210.084,238.843 210.473,237.677 210.628 C 235.271 210.947,231.881 214.400,233.973 214.400 C 234.178 214.400,234.454 214.740,234.586 215.155 C 234.800 215.831,235.318 216.523,237.390 218.900 C 237.725 219.285,238.000 219.774,238.000 219.986 C 238.000 220.198,238.540 220.987,239.200 221.739 C 239.860 222.491,240.400 223.312,240.400 223.565 C 240.400 223.818,240.684 224.134,241.031 224.267 C 241.377 224.400,241.832 224.890,242.041 225.355 C 242.520 226.421,244.248 228.885,246.604 231.858 C 247.152 232.550,247.600 233.283,247.600 233.488 C 247.600 233.693,248.050 234.283,248.600 234.800 C 249.150 235.317,249.600 235.968,249.600 236.247 C 249.600 236.526,249.915 236.993,250.300 237.283 C 250.685 237.574,251.228 238.169,251.506 238.606 C 251.784 239.043,252.355 239.940,252.774 240.600 C 253.761 242.151,254.777 243.476,255.900 244.675 C 256.395 245.204,256.800 245.783,256.800 245.963 C 256.800 246.143,257.334 246.990,257.986 247.845 C 258.639 248.700,259.441 249.760,259.769 250.200 C 260.098 250.640,260.824 251.566,261.383 252.258 C 261.942 252.950,262.402 253.670,262.405 253.858 C 262.411 254.233,263.709 255.979,265.069 257.440 C 265.547 257.954,266.054 258.740,266.196 259.187 C 266.338 259.634,266.583 260.000,266.741 260.000 C 266.898 260.000,267.365 260.585,267.777 261.300 C 268.190 262.015,268.768 262.870,269.062 263.200 C 272.187 266.710,272.476 268.644,270.167 270.600 C 269.388 271.260,268.412 272.105,267.997 272.479 C 267.582 272.852,266.693 273.442,266.021 273.789 C 265.350 274.136,264.800 274.584,264.800 274.783 C 264.800 274.983,264.396 275.274,263.902 275.431 C 263.407 275.588,262.819 275.968,262.595 276.275 C 262.370 276.582,261.810 277.051,261.350 277.317 C 259.249 278.531,257.200 280.043,257.200 280.378 C 257.200 280.580,256.796 280.874,256.302 281.031 C 255.807 281.188,255.219 281.568,254.995 281.875 C 254.770 282.182,254.210 282.651,253.750 282.917 C 251.684 284.111,249.600 285.640,249.600 285.962 C 249.600 286.155,249.150 286.426,248.600 286.564 C 248.050 286.702,247.600 286.987,247.600 287.197 C 247.600 287.408,247.015 287.877,246.300 288.241 C 245.585 288.604,244.660 289.258,244.244 289.694 C 243.658 290.308,243.163 290.435,242.044 290.255 C 240.612 290.026,240.333 289.778,238.400 287.012 C 237.850 286.225,237.040 285.149,236.600 284.621 C 236.160 284.093,235.350 283.005,234.800 282.203 C 234.250 281.401,233.395 280.236,232.900 279.615 C 232.405 278.993,232.000 278.287,232.000 278.046 C 232.000 277.804,231.640 277.382,231.200 277.107 C 230.760 276.832,230.400 276.467,230.400 276.294 C 230.400 275.783,227.577 271.827,226.965 271.480 C 226.654 271.304,226.400 270.970,226.400 270.738 C 226.400 270.506,225.995 269.807,225.500 269.185 C 225.005 268.564,224.150 267.402,223.600 266.603 C 223.050 265.805,222.285 264.757,221.901 264.276 C 220.587 262.629,219.221 260.601,218.820 259.700 C 218.600 259.205,218.231 258.800,218.000 258.800 C 217.769 258.800,217.401 258.395,217.182 257.900 C 216.962 257.405,216.237 256.280,215.569 255.400 C 214.902 254.520,213.988 253.215,213.538 252.500 C 213.089 251.785,212.600 251.200,212.451 251.200 C 212.303 251.200,211.843 250.570,211.428 249.800 C 211.013 249.030,210.544 248.400,210.386 248.400 C 210.227 248.400,209.873 247.860,209.600 247.200 C 209.327 246.540,208.940 246.000,208.742 246.000 C 208.543 246.000,208.207 245.545,207.996 244.990 C 207.785 244.434,207.339 243.875,207.006 243.747 C 206.673 243.619,206.400 243.270,206.400 242.971 C 206.400 242.672,205.860 241.813,205.200 241.061 C 204.540 240.309,204.000 239.559,204.000 239.394 C 204.000 238.715,201.117 236.408,200.630 236.698 C 199.758 237.218,197.248 240.372,195.800 242.768 C 195.580 243.132,195.173 243.693,194.895 244.015 C 193.679 245.425,192.000 247.734,192.000 247.997 C 192.000 248.253,191.367 249.060,189.394 251.316 C 189.050 251.709,188.567 252.474,188.320 253.016 C 188.073 253.557,187.741 254.000,187.581 254.000 C 187.422 254.000,186.992 254.630,186.627 255.400 C 186.261 256.170,185.786 256.800,185.571 256.800 C 185.356 256.800,185.001 257.205,184.782 257.700 C 184.562 258.195,183.837 259.320,183.169 260.200 C 182.502 261.080,181.588 262.385,181.138 263.100 C 180.689 263.815,180.181 264.400,180.009 264.400 C 179.837 264.400,179.473 264.940,179.200 265.600 C 178.927 266.260,178.542 266.800,178.345 266.800 C 178.148 266.800,177.687 267.430,177.319 268.200 C 176.952 268.970,176.496 269.600,176.305 269.600 C 176.114 269.600,175.770 270.140,175.540 270.800 C 175.310 271.460,174.962 272.000,174.766 272.000 C 174.424 272.000,172.770 274.280,171.678 276.256 C 171.391 276.775,171.008 277.200,170.827 277.200 C 170.645 277.200,170.273 277.740,170.000 278.400 C 169.727 279.060,169.349 279.600,169.162 279.600 C 168.974 279.600,168.536 280.150,168.189 280.821 C 167.842 281.493,167.207 282.393,166.779 282.821 C 166.350 283.250,166.000 283.772,166.000 283.982 C 166.000 284.192,165.595 284.799,165.100 285.331 C 164.249 286.246,162.725 288.329,162.005 289.561 C 161.576 290.296,157.935 290.405,157.697 289.689 C 157.603 289.408,156.823 288.820,155.963 288.381 C 155.103 287.943,154.400 287.420,154.400 287.219 C 154.400 287.018,154.034 286.738,153.587 286.596 C 153.140 286.454,152.347 285.947,151.825 285.469 C 150.344 284.112,149.719 283.643,148.207 282.751 C 147.433 282.294,146.800 281.762,146.800 281.568 C 146.800 281.374,146.350 281.102,145.800 280.964 C 145.250 280.826,144.800 280.555,144.800 280.362 C 144.800 280.021,142.495 278.355,140.519 277.266 C 139.985 276.972,139.451 276.477,139.332 276.166 C 139.212 275.855,138.877 275.600,138.586 275.600 C 138.295 275.600,137.784 275.327,137.450 274.993 C 136.598 274.141,133.240 271.600,132.966 271.600 C 131.060 271.600,129.706 267.152,131.200 265.800 C 131.640 265.402,132.000 264.905,132.000 264.696 C 132.000 264.343,133.156 262.733,134.564 261.121 C 134.890 260.748,135.442 259.893,135.789 259.221 C 136.136 258.550,136.592 258.000,136.803 258.000 C 137.013 258.000,137.298 257.550,137.436 257.000 C 137.574 256.450,137.845 256.000,138.038 256.000 C 138.232 256.000,138.887 255.251,139.495 254.336 C 140.103 253.421,140.870 252.290,141.200 251.822 C 141.530 251.355,142.160 250.394,142.600 249.688 C 143.040 248.983,143.531 248.404,143.692 248.403 C 143.852 248.401,144.351 247.680,144.800 246.800 C 145.249 245.920,145.789 245.200,146.001 245.200 C 146.212 245.200,146.498 244.750,146.636 244.200 C 146.774 243.650,147.045 243.200,147.238 243.200 C 147.577 243.200,149.151 241.037,150.400 238.855 C 150.730 238.278,151.315 237.570,151.700 237.281 C 152.085 236.991,152.400 236.501,152.400 236.191 C 152.400 235.882,152.741 235.446,153.158 235.223 C 153.575 234.999,154.105 234.273,154.337 233.608 C 154.569 232.944,154.919 232.400,155.115 232.400 C 155.311 232.400,155.673 231.957,155.920 231.416 C 156.167 230.874,156.657 230.109,157.009 229.716 C 158.438 228.121,160.000 225.860,160.000 225.388 C 160.000 225.112,160.273 224.781,160.606 224.653 C 160.939 224.525,161.385 223.966,161.596 223.410 C 161.807 222.855,162.147 222.400,162.351 222.400 C 162.702 222.400,163.932 220.664,165.165 218.426 C 165.476 217.862,166.061 217.165,166.465 216.877 C 166.869 216.590,167.200 216.135,167.200 215.866 C 167.200 215.598,167.565 215.065,168.011 214.683 C 169.596 213.327,167.204 211.008,163.779 210.580 C 162.581 210.430,161.600 210.170,161.600 210.002 C 161.600 209.586,159.732 208.913,157.850 208.650 C 156.998 208.531,155.995 208.157,155.621 207.819 C 155.247 207.481,154.055 207.090,152.971 206.950 C 151.887 206.811,150.460 206.379,149.800 205.991 C 149.140 205.602,147.790 205.156,146.800 204.999 C 145.810 204.842,144.701 204.449,144.336 204.127 C 143.970 203.804,142.648 203.402,141.398 203.232 C 140.147 203.062,138.993 202.712,138.834 202.454 C 138.502 201.917,136.245 201.200,134.886 201.200 C 134.381 201.200,133.480 200.858,132.884 200.441 C 132.288 200.023,130.910 199.571,129.822 199.437 C 128.734 199.303,127.740 199.026,127.614 198.822 C 127.283 198.287,125.320 197.600,124.121 197.600 C 123.556 197.600,122.533 197.256,121.847 196.835 C 121.161 196.414,119.700 195.939,118.600 195.779 C 117.500 195.619,116.171 195.153,115.646 194.744 C 115.121 194.335,114.131 193.994,113.446 193.987 C 112.761 193.981,111.300 193.532,110.200 192.991 C 109.100 192.450,107.839 192.006,107.399 192.004 C 105.201 191.994,103.809 188.811,105.159 186.884 C 105.577 186.288,106.029 184.910,106.163 183.822 C 106.297 182.734,106.588 181.731,106.810 181.594 C 107.294 181.295,108.000 178.975,108.000 177.686 C 108.000 177.181,108.344 176.280,108.764 175.684 C 109.184 175.088,109.650 173.700,109.800 172.600 C 109.949 171.500,110.330 170.310,110.648 169.955 C 110.965 169.601,111.393 168.271,111.600 167.000 C 111.807 165.729,112.251 164.386,112.586 164.015 C 112.921 163.645,113.311 162.455,113.452 161.371 C 113.593 160.287,113.932 159.130,114.207 158.800 C 114.481 158.470,114.837 157.750,114.999 157.200 C 115.606 155.129,119.600 153.004,119.600 154.751 C 119.600 155.199,121.339 155.863,123.400 156.204 C 124.280 156.349,125.290 156.728,125.645 157.046 C 126.000 157.364,127.217 157.734,128.349 157.868 C 129.481 158.003,130.766 158.424,131.206 158.805 C 131.645 159.186,132.947 159.623,134.100 159.776 C 135.253 159.928,136.487 160.317,136.843 160.639 C 137.198 160.961,138.536 161.394,139.815 161.602 C 141.094 161.811,142.257 162.169,142.399 162.398 C 142.706 162.895,145.014 163.600,146.334 163.600 C 146.851 163.600,147.705 163.939,148.231 164.353 C 148.758 164.767,150.181 165.230,151.394 165.382 C 152.608 165.534,153.600 165.807,153.600 165.990 C 153.600 166.425,155.849 167.200,157.112 167.200 C 157.659 167.200,158.667 167.541,159.353 167.958 C 160.039 168.374,161.395 168.845,162.367 169.004 C 163.338 169.163,164.688 169.631,165.367 170.045 C 166.045 170.459,167.140 170.803,167.800 170.811 C 168.460 170.819,169.900 171.268,171.000 171.809 C 172.100 172.350,173.491 172.794,174.090 172.796 C 174.690 172.798,175.770 173.159,176.490 173.599 C 178.096 174.578,180.496 174.648,181.251 173.739 C 181.705 173.192,181.819 167.291,181.911 139.766 C 182.015 108.635,182.067 106.443,182.711 106.274 C 185.360 105.578,219.192 106.037,219.586 106.774 " stroke="none" fill="#53affc" fill-rule="evenodd"></path></g></svg>