<svg id="svg" version="1.1" xmlns="http://www.w3.org/2000/svg" xmlns:xlink="http://www.w3.org/1999/xlink" width="47" height="47" viewBox="0 0 400 400"><g id="svgg"><path id="path0" d="M130.757 50.375 C 129.523 50.544,128.337 50.792,128.121 50.925 C 127.905 51.059,126.040 51.373,123.977 51.624 C 121.914 51.875,119.410 52.397,118.413 52.783 C 117.416 53.170,115.828 53.605,114.885 53.750 C 113.942 53.895,112.505 54.371,111.691 54.807 C 110.878 55.243,109.916 55.600,109.554 55.600 C 107.675 55.600,95.472 61.813,89.963 65.575 C 79.019 73.050,70.767 81.658,63.675 93.000 C 63.125 93.880,62.381 95.050,62.023 95.600 C 59.724 99.125,55.116 109.928,53.919 114.600 C 53.693 115.480,53.177 117.280,52.772 118.600 C 52.367 119.920,51.853 122.440,51.630 124.200 C 51.407 125.960,51.056 127.971,50.850 128.668 C 50.171 130.959,49.836 139.520,50.398 140.197 C 50.829 140.717,53.237 140.800,67.862 140.800 C 86.320 140.800,86.532 140.827,84.347 142.935 C 82.921 144.310,78.283 149.597,77.600 150.627 C 77.270 151.124,75.864 153.031,74.476 154.865 C 70.728 159.816,69.001 162.330,68.354 163.774 C 68.151 164.228,67.459 165.410,66.817 166.400 C 66.176 167.390,64.548 170.450,63.200 173.200 C 61.851 175.950,60.562 178.541,60.335 178.958 C 60.107 179.375,59.597 180.635,59.202 181.758 C 58.807 182.881,57.998 185.060,57.404 186.600 C 56.283 189.509,55.141 193.282,54.134 197.400 C 53.811 198.720,53.213 201.060,52.804 202.600 C 52.396 204.140,51.946 206.750,51.804 208.400 C 51.663 210.050,51.257 212.660,50.903 214.200 C 49.950 218.335,49.933 238.389,50.878 243.200 C 51.246 245.070,51.653 247.680,51.784 249.000 C 52.054 251.727,53.256 257.087,54.654 261.800 C 55.176 263.560,55.603 265.237,55.602 265.526 C 55.601 265.815,55.940 266.895,56.354 267.926 C 56.769 268.957,57.683 271.330,58.385 273.200 C 59.940 277.343,60.696 279.046,63.266 284.200 C 66.562 290.807,67.788 292.842,73.600 301.353 C 74.665 302.912,77.428 306.491,78.225 307.345 C 78.459 307.595,79.807 309.150,81.221 310.800 C 84.259 314.346,90.164 320.150,93.800 323.163 C 97.533 326.257,99.164 327.555,100.156 328.222 C 100.792 328.650,101.806 329.360,102.410 329.800 C 105.285 331.897,107.922 333.600,108.292 333.600 C 108.518 333.600,108.942 333.889,109.235 334.242 C 109.527 334.595,110.135 335.057,110.584 335.270 C 111.033 335.482,112.300 336.176,113.400 336.811 C 117.219 339.017,124.556 342.476,125.867 342.688 C 127.365 342.932,128.209 341.852,127.154 341.042 C 126.838 340.799,125.682 339.340,124.586 337.800 C 122.809 335.304,121.828 333.837,119.637 330.400 C 119.029 329.445,116.055 323.493,113.840 318.794 C 113.268 317.581,112.800 316.316,112.800 315.983 C 112.800 315.650,112.551 315.023,112.247 314.589 C 111.943 314.155,111.419 312.810,111.081 311.600 C 110.744 310.390,110.202 308.590,109.878 307.600 C 108.931 304.709,107.644 298.339,106.571 291.233 C 105.693 285.417,105.677 273.688,106.541 268.800 C 106.871 266.930,107.269 264.140,107.424 262.600 C 107.579 261.060,108.042 258.742,108.453 257.448 C 108.864 256.154,109.208 254.714,109.218 254.248 C 109.227 253.782,109.509 252.680,109.844 251.800 C 110.179 250.920,110.728 249.210,111.063 248.000 C 111.399 246.790,111.821 245.620,112.000 245.400 C 112.180 245.180,112.684 244.010,113.121 242.800 C 114.851 238.014,115.282 236.977,115.784 236.400 C 116.071 236.070,116.438 235.350,116.600 234.800 C 116.762 234.250,117.125 233.530,117.407 233.200 C 117.690 232.870,118.209 231.970,118.561 231.200 C 118.914 230.430,119.741 228.990,120.400 228.000 C 121.059 227.010,121.870 225.660,122.202 225.000 C 122.535 224.340,123.211 223.262,123.704 222.605 C 125.993 219.552,129.574 215.149,131.839 212.600 C 133.949 210.225,205.276 138.815,221.000 123.335 C 227.674 116.764,228.003 116.331,227.574 114.684 C 227.057 112.703,225.632 108.777,224.774 106.974 C 224.348 106.079,224.000 105.158,224.000 104.926 C 224.000 104.532,221.058 98.659,219.359 95.661 C 218.730 94.552,216.076 90.485,213.200 86.225 C 210.565 82.321,200.868 72.473,196.400 69.163 C 191.995 65.898,188.021 63.180,187.264 62.913 C 186.899 62.784,186.330 62.452,186.000 62.175 C 185.035 61.365,176.659 57.204,175.989 57.202 C 175.653 57.201,174.978 56.920,174.489 56.577 C 174.000 56.235,172.745 55.712,171.700 55.414 C 170.655 55.117,168.990 54.597,168.000 54.258 C 158.027 50.849,140.574 49.030,130.757 50.375 M251.321 134.439 C 227.164 158.638,207.342 178.602,207.272 178.804 C 207.096 179.306,208.207 179.505,213.876 179.987 C 216.557 180.215,219.167 180.557,219.676 180.747 C 220.184 180.937,221.680 181.217,223.000 181.368 C 224.320 181.519,226.300 181.894,227.400 182.201 C 228.500 182.508,230.570 183.022,232.000 183.345 C 233.430 183.667,236.130 184.496,238.000 185.186 C 239.870 185.876,242.210 186.690,243.200 186.994 C 246.073 187.878,257.188 193.652,259.400 195.410 C 259.840 195.759,261.347 196.800,262.749 197.723 C 264.150 198.645,265.716 199.680,266.229 200.023 C 267.454 200.842,274.558 207.007,276.375 208.829 C 281.252 213.720,285.071 218.504,289.836 225.695 C 292.627 229.907,290.369 229.600,318.520 229.600 C 345.603 229.600,345.300 229.626,345.986 227.268 C 346.221 226.461,346.762 224.630,347.187 223.200 C 350.797 211.068,350.796 193.240,347.185 182.200 C 346.753 180.880,346.400 179.523,346.400 179.185 C 346.400 178.846,346.036 177.856,345.592 176.985 C 345.147 176.113,344.620 174.860,344.420 174.200 C 343.731 171.926,341.947 167.950,340.775 166.077 C 340.129 165.045,339.341 163.646,339.023 162.968 C 338.706 162.291,338.166 161.504,337.823 161.219 C 337.480 160.935,337.200 160.480,337.200 160.208 C 337.200 158.379,323.541 143.473,319.200 140.565 C 318.430 140.049,316.450 138.694,314.800 137.554 C 311.698 135.410,305.276 131.951,303.010 131.203 C 302.299 130.969,301.301 130.333,300.792 129.791 L 299.866 128.806 300.363 122.024 C 300.942 114.133,300.431 104.335,299.213 100.000 C 298.812 98.570,298.363 96.705,298.215 95.857 C 297.887 93.967,296.438 90.900,295.748 90.636 C 295.459 90.525,276.372 109.344,251.321 134.439 M200.200 209.580 C 198.220 209.736,195.970 210.062,195.200 210.304 C 194.430 210.546,192.810 210.863,191.600 211.007 C 189.346 211.276,184.408 212.707,181.200 214.021 C 180.210 214.427,178.950 214.879,178.400 215.027 C 177.850 215.174,177.130 215.522,176.800 215.800 C 176.470 216.078,175.750 216.442,175.200 216.609 C 173.520 217.119,166.608 221.288,163.971 223.383 C 163.406 223.832,162.340 224.650,161.603 225.200 C 156.240 229.205,146.723 240.650,144.203 246.126 C 143.880 246.827,143.448 247.670,143.243 248.000 C 140.996 251.617,137.492 262.166,136.799 267.400 C 136.566 269.160,136.205 271.320,135.997 272.200 C 135.499 274.307,135.510 285.757,136.012 287.800 C 136.228 288.680,136.590 290.840,136.816 292.600 C 137.607 298.772,141.523 309.037,145.856 316.302 C 150.782 324.560,160.782 334.702,168.202 338.967 C 168.861 339.345,170.120 340.083,171.000 340.605 C 176.328 343.770,186.521 347.646,191.000 348.211 C 192.100 348.349,193.990 348.764,195.200 349.131 C 198.013 349.986,296.381 350.178,297.229 349.331 C 297.845 348.715,296.209 339.209,295.142 337.206 C 294.734 336.439,294.400 335.629,294.399 335.406 C 294.398 334.986,292.158 330.586,291.560 329.829 C 284.886 321.387,277.669 315.988,271.440 314.779 C 268.090 314.128,267.586 312.798,269.368 309.300 C 270.941 306.212,271.903 303.889,272.202 302.458 C 272.356 301.720,272.804 300.370,273.198 299.458 C 273.591 298.546,274.038 296.743,274.191 295.452 C 274.344 294.160,274.734 292.360,275.057 291.452 C 275.829 289.279,276.243 275.743,275.664 271.600 C 274.209 261.200,270.528 250.562,265.842 243.221 C 265.203 242.219,264.219 240.680,263.656 239.800 C 259.866 233.875,249.126 223.502,243.400 220.236 C 242.740 219.860,241.300 219.022,240.200 218.375 C 239.100 217.728,237.750 217.013,237.200 216.786 C 236.650 216.559,235.480 216.035,234.600 215.623 C 230.047 213.489,223.603 211.392,220.400 211.001 C 219.190 210.854,217.210 210.495,216.000 210.205 C 213.221 209.537,204.908 209.208,200.200 209.580 M313.600 253.117 C 306.636 255.631,302.880 259.943,301.420 267.100 C 300.648 270.886,301.323 276.326,302.827 278.438 C 303.252 279.035,303.603 279.676,303.606 279.862 C 303.618 280.525,307.504 284.438,309.236 285.532 C 313.135 287.992,321.890 289.534,323.721 288.084 C 323.984 287.875,324.920 287.479,325.800 287.204 C 337.034 283.692,340.937 267.986,332.929 258.518 C 331.117 256.375,328.163 254.135,326.400 253.567 C 325.850 253.390,324.680 252.973,323.800 252.640 C 321.224 251.666,317.083 251.860,313.600 253.117 " stroke="none" fill="#fcfbfb" fill-rule="evenodd"></path><path id="path1" d="M75.200 0.400 C 75.200 0.642,73.483 0.800,70.850 0.800 C 65.397 0.800,64.000 1.055,64.000 2.050 C 64.000 2.710,63.673 2.800,61.268 2.800 C 58.762 2.800,58.491 2.883,58.000 3.800 C 57.527 4.684,57.205 4.800,55.229 4.800 C 53.426 4.800,52.896 4.955,52.493 5.600 C 52.178 6.104,51.560 6.400,50.823 6.400 C 49.163 6.400,47.600 7.074,47.600 7.790 C 47.600 8.193,47.216 8.400,46.470 8.400 C 45.781 8.400,44.972 8.791,44.400 9.400 C 43.883 9.950,43.042 10.400,42.530 10.400 C 41.876 10.400,41.600 10.630,41.600 11.177 C 41.600 11.805,41.274 11.978,39.900 12.077 C 38.487 12.179,38.178 12.352,38.072 13.100 C 37.980 13.751,37.676 14.000,36.972 14.000 C 36.267 14.000,36.000 14.219,36.000 14.800 C 36.000 15.243,35.733 15.600,35.403 15.600 C 35.075 15.600,34.343 16.005,33.777 16.500 C 33.211 16.995,32.355 17.497,31.874 17.616 C 31.367 17.742,30.946 18.203,30.872 18.716 C 30.780 19.350,30.470 19.600,29.772 19.600 C 29.078 19.600,28.800 19.821,28.800 20.372 C 28.800 20.868,28.478 21.190,27.900 21.272 C 27.322 21.354,26.954 21.722,26.872 22.300 C 26.790 22.878,26.468 23.200,25.972 23.200 C 25.415 23.200,25.200 23.479,25.200 24.200 C 25.200 25.000,25.000 25.200,24.200 25.200 C 23.479 25.200,23.200 25.415,23.200 25.972 C 23.200 26.468,22.878 26.790,22.300 26.872 C 21.722 26.954,21.354 27.322,21.272 27.900 C 21.190 28.478,20.868 28.800,20.372 28.800 C 19.821 28.800,19.600 29.078,19.600 29.772 C 19.600 30.470,19.350 30.780,18.716 30.872 C 18.203 30.946,17.742 31.367,17.616 31.874 C 17.497 32.355,16.995 33.211,16.500 33.777 C 16.005 34.343,15.600 35.075,15.600 35.403 C 15.600 35.733,15.243 36.000,14.800 36.000 C 14.219 36.000,14.000 36.267,14.000 36.972 C 14.000 37.676,13.751 37.980,13.100 38.072 C 12.352 38.178,12.179 38.487,12.077 39.900 C 11.978 41.274,11.805 41.600,11.177 41.600 C 10.650 41.600,10.400 41.875,10.400 42.454 C 10.400 42.924,9.950 43.725,9.400 44.235 C 8.755 44.833,8.400 45.594,8.400 46.381 C 8.400 47.207,8.203 47.600,7.790 47.600 C 7.014 47.600,6.400 49.202,6.400 51.226 C 6.400 52.533,6.264 52.800,5.600 52.800 C 4.876 52.800,4.800 53.067,4.800 55.600 C 4.800 58.320,4.771 58.400,3.800 58.400 C 2.829 58.400,2.800 58.480,2.800 61.200 C 2.800 63.442,2.679 64.000,2.190 64.000 C 1.180 64.000,0.800 65.812,0.800 70.626 C 0.800 73.409,0.643 75.200,0.400 75.200 C 0.134 75.200,0.000 117.067,0.000 200.000 C 0.000 282.933,0.134 324.800,0.400 324.800 C 0.644 324.800,0.802 326.637,0.805 329.500 C 0.812 334.975,1.008 336.000,2.047 336.000 C 2.712 336.000,2.800 336.324,2.800 338.758 C 2.800 341.175,2.923 341.632,3.793 342.458 C 4.576 343.201,4.788 343.802,4.793 345.300 C 4.798 346.660,5.027 347.427,5.600 348.000 C 6.040 348.440,6.400 349.148,6.400 349.574 C 6.400 350.881,7.147 352.400,7.790 352.400 C 8.154 352.400,8.402 352.763,8.405 353.300 C 8.415 354.835,8.868 356.000,9.457 356.000 C 9.766 356.000,10.128 356.540,10.260 357.200 C 10.421 358.005,10.739 358.400,11.227 358.400 C 11.796 358.400,11.981 358.769,12.077 360.100 C 12.179 361.513,12.352 361.822,13.100 361.928 C 13.751 362.020,14.000 362.324,14.000 363.028 C 14.000 363.733,14.219 364.000,14.800 364.000 C 15.339 364.000,15.600 364.267,15.600 364.818 C 15.600 365.268,16.036 366.072,16.568 366.604 C 17.100 367.137,17.597 367.894,17.672 368.286 C 17.747 368.679,18.211 369.058,18.704 369.128 C 19.351 369.220,19.600 369.526,19.600 370.228 C 19.600 370.922,19.821 371.200,20.372 371.200 C 20.868 371.200,21.190 371.522,21.272 372.100 C 21.354 372.678,21.722 373.046,22.300 373.128 C 22.878 373.210,23.200 373.532,23.200 374.028 C 23.200 374.585,23.479 374.800,24.200 374.800 C 25.000 374.800,25.200 375.000,25.200 375.800 C 25.200 376.521,25.415 376.800,25.972 376.800 C 26.468 376.800,26.790 377.122,26.872 377.700 C 26.954 378.278,27.322 378.646,27.900 378.728 C 28.478 378.810,28.800 379.132,28.800 379.628 C 28.800 380.179,29.078 380.400,29.772 380.400 C 30.474 380.400,30.780 380.649,30.872 381.296 C 30.942 381.789,31.321 382.253,31.714 382.328 C 32.106 382.403,32.863 382.900,33.396 383.432 C 33.928 383.964,34.732 384.400,35.182 384.400 C 35.733 384.400,36.000 384.661,36.000 385.200 C 36.000 385.781,36.267 386.000,36.972 386.000 C 37.676 386.000,37.980 386.249,38.072 386.900 C 38.178 387.648,38.487 387.821,39.900 387.923 C 41.274 388.022,41.600 388.195,41.600 388.823 C 41.600 389.323,41.874 389.600,42.369 389.600 C 42.792 389.600,43.673 390.050,44.327 390.600 C 44.981 391.150,45.985 391.600,46.558 391.600 C 47.225 391.600,47.600 391.819,47.600 392.210 C 47.600 392.986,49.202 393.600,51.226 393.600 C 52.533 393.600,52.800 393.736,52.800 394.400 C 52.800 395.124,53.067 395.200,55.600 395.200 C 58.320 395.200,58.400 395.229,58.400 396.200 C 58.400 397.171,58.480 397.200,61.200 397.200 C 63.671 397.200,64.000 397.288,64.000 397.950 C 64.000 398.945,65.397 399.200,70.850 399.200 C 73.483 399.200,75.200 399.358,75.200 399.600 C 75.200 399.866,117.267 400.000,200.600 400.000 C 283.933 400.000,326.000 399.866,326.000 399.600 C 326.000 399.360,327.637 399.198,330.100 399.195 C 334.969 399.188,336.000 398.971,336.000 397.953 C 336.000 397.289,336.323 397.200,338.732 397.200 C 341.238 397.200,341.509 397.117,342.000 396.200 C 342.477 395.309,342.789 395.200,344.868 395.200 C 346.611 395.200,347.389 395.011,347.947 394.453 C 348.357 394.043,349.508 393.585,350.505 393.435 C 351.830 393.236,352.371 392.954,352.521 392.382 C 352.656 391.865,353.069 391.600,353.742 391.600 C 354.301 391.600,355.244 391.150,355.838 390.600 C 356.431 390.050,357.251 389.600,357.658 389.600 C 358.126 389.600,358.400 389.313,358.400 388.823 C 358.400 388.195,358.726 388.022,360.100 387.923 C 361.513 387.821,361.822 387.648,361.928 386.900 C 362.020 386.249,362.324 386.000,363.028 386.000 C 363.733 386.000,364.000 385.781,364.000 385.200 C 364.000 384.757,364.267 384.400,364.597 384.400 C 364.925 384.400,365.657 383.995,366.223 383.500 C 366.789 383.005,367.645 382.503,368.126 382.384 C 368.633 382.258,369.054 381.797,369.128 381.284 C 369.220 380.650,369.530 380.400,370.228 380.400 C 370.922 380.400,371.200 380.179,371.200 379.628 C 371.200 379.132,371.522 378.810,372.100 378.728 C 372.678 378.646,373.046 378.278,373.128 377.700 C 373.210 377.122,373.532 376.800,374.028 376.800 C 374.585 376.800,374.800 376.521,374.800 375.800 C 374.800 375.000,375.000 374.800,375.800 374.800 C 376.521 374.800,376.800 374.585,376.800 374.028 C 376.800 373.532,377.122 373.210,377.700 373.128 C 378.278 373.046,378.646 372.678,378.728 372.100 C 378.810 371.522,379.132 371.200,379.628 371.200 C 380.179 371.200,380.400 370.922,380.400 370.228 C 380.400 369.530,380.650 369.220,381.284 369.128 C 381.797 369.054,382.258 368.633,382.384 368.126 C 382.503 367.645,383.005 366.789,383.500 366.223 C 383.995 365.657,384.400 364.925,384.400 364.597 C 384.400 364.267,384.757 364.000,385.200 364.000 C 385.781 364.000,386.000 363.733,386.000 363.028 C 386.000 362.324,386.249 362.020,386.900 361.928 C 387.648 361.822,387.821 361.513,387.923 360.100 C 388.022 358.726,388.195 358.400,388.823 358.400 C 389.370 358.400,389.600 358.124,389.600 357.470 C 389.600 356.958,390.050 356.117,390.600 355.600 C 391.150 355.083,391.600 354.250,391.600 353.748 C 391.600 353.247,392.050 352.386,392.600 351.836 C 393.373 351.063,393.600 350.424,393.600 349.018 C 393.600 347.467,393.717 347.200,394.400 347.200 C 395.123 347.200,395.200 346.933,395.200 344.428 C 395.200 341.858,395.266 341.646,396.100 341.528 C 396.916 341.412,397.011 341.152,397.117 338.742 C 397.213 336.576,397.368 336.049,397.957 335.895 C 398.911 335.646,399.200 334.031,399.200 328.950 C 399.200 326.450,399.359 324.800,399.600 324.800 C 399.866 324.800,400.000 282.933,400.000 200.000 C 400.000 117.067,399.866 75.200,399.600 75.200 C 399.358 75.200,399.200 73.483,399.200 70.850 C 399.200 65.397,398.945 64.000,397.950 64.000 C 397.290 64.000,397.200 63.673,397.200 61.268 C 397.200 58.762,397.117 58.491,396.200 58.000 C 395.316 57.527,395.200 57.205,395.200 55.229 C 395.200 53.426,395.045 52.896,394.400 52.493 C 393.856 52.153,393.600 51.560,393.600 50.639 C 393.600 49.716,393.283 48.984,392.607 48.342 C 392.061 47.824,391.611 47.001,391.607 46.514 C 391.603 46.027,391.241 45.436,390.803 45.201 C 390.303 44.934,389.911 44.183,389.752 43.187 C 389.561 41.993,389.312 41.600,388.749 41.600 C 388.188 41.600,388.000 41.307,388.000 40.433 C 388.000 38.745,387.619 38.000,386.757 38.000 C 386.216 38.000,386.000 37.714,386.000 37.000 C 386.000 36.267,385.787 36.000,385.200 36.000 C 384.757 36.000,384.400 35.733,384.400 35.403 C 384.400 35.075,383.995 34.343,383.500 33.777 C 383.005 33.211,382.503 32.355,382.384 31.874 C 382.258 31.367,381.797 30.946,381.284 30.872 C 380.650 30.780,380.400 30.470,380.400 29.772 C 380.400 29.078,380.179 28.800,379.628 28.800 C 379.132 28.800,378.810 28.478,378.728 27.900 C 378.646 27.322,378.278 26.954,377.700 26.872 C 377.122 26.790,376.800 26.468,376.800 25.972 C 376.800 25.415,376.521 25.200,375.800 25.200 C 375.000 25.200,374.800 25.000,374.800 24.200 C 374.800 23.479,374.585 23.200,374.028 23.200 C 373.532 23.200,373.210 22.878,373.128 22.300 C 373.046 21.722,372.678 21.354,372.100 21.272 C 371.522 21.190,371.200 20.868,371.200 20.372 C 371.200 19.821,370.922 19.600,370.228 19.600 C 369.530 19.600,369.220 19.350,369.128 18.716 C 369.054 18.203,368.633 17.742,368.126 17.616 C 367.645 17.497,366.789 16.995,366.223 16.500 C 365.657 16.005,364.925 15.600,364.597 15.600 C 364.267 15.600,364.000 15.243,364.000 14.800 C 364.000 14.213,363.733 14.000,363.000 14.000 C 362.286 14.000,362.000 13.784,362.000 13.243 C 362.000 12.381,361.255 12.000,359.567 12.000 C 358.693 12.000,358.400 11.812,358.400 11.251 C 358.400 10.688,358.007 10.439,356.813 10.248 C 355.817 10.089,355.066 9.697,354.799 9.197 C 354.564 8.759,353.973 8.397,353.486 8.393 C 352.999 8.389,352.176 7.939,351.658 7.393 C 350.933 6.629,350.310 6.400,348.958 6.400 C 347.467 6.400,347.200 6.279,347.200 5.600 C 347.200 4.891,346.933 4.800,344.868 4.800 C 342.789 4.800,342.477 4.691,342.000 3.800 C 341.511 2.886,341.234 2.800,338.779 2.800 C 336.503 2.800,336.064 2.687,335.900 2.061 C 335.645 1.087,334.063 0.800,328.950 0.800 C 326.450 0.800,324.800 0.641,324.800 0.400 C 324.800 0.134,282.933 0.000,200.000 0.000 C 117.067 0.000,75.200 0.134,75.200 0.400 M155.400 51.150 C 160.336 52.067,164.838 53.178,168.000 54.258 C 168.990 54.597,170.655 55.117,171.700 55.414 C 172.745 55.712,174.000 56.235,174.489 56.577 C 174.978 56.920,175.653 57.201,175.989 57.202 C 176.659 57.204,185.035 61.365,186.000 62.175 C 186.330 62.452,186.899 62.784,187.264 62.913 C 188.021 63.180,191.995 65.898,196.400 69.163 C 200.868 72.473,210.565 82.321,213.200 86.225 C 216.076 90.485,218.730 94.552,219.359 95.661 C 221.058 98.659,224.000 104.532,224.000 104.926 C 224.000 105.158,224.348 106.079,224.774 106.974 C 225.632 108.777,227.057 112.703,227.574 114.684 C 228.003 116.331,227.674 116.764,221.000 123.335 C 205.276 138.815,133.949 210.225,131.839 212.600 C 129.574 215.149,125.993 219.552,123.704 222.605 C 123.211 223.262,122.535 224.340,122.202 225.000 C 121.870 225.660,121.059 227.010,120.400 228.000 C 119.741 228.990,118.914 230.430,118.561 231.200 C 118.209 231.970,117.690 232.870,117.407 233.200 C 117.125 233.530,116.762 234.250,116.600 234.800 C 116.438 235.350,116.071 236.070,115.784 236.400 C 115.282 236.977,114.851 238.014,113.121 242.800 C 112.684 244.010,112.180 245.180,112.000 245.400 C 111.821 245.620,111.399 246.790,111.063 248.000 C 110.728 249.210,110.179 250.920,109.844 251.800 C 109.509 252.680,109.227 253.782,109.218 254.248 C 109.208 254.714,108.864 256.154,108.453 257.448 C 108.042 258.742,107.579 261.060,107.424 262.600 C 107.269 264.140,106.871 266.930,106.541 268.800 C 105.677 273.688,105.693 285.417,106.571 291.233 C 107.644 298.339,108.931 304.709,109.878 307.600 C 110.202 308.590,110.744 310.390,111.081 311.600 C 111.419 312.810,111.943 314.155,112.247 314.589 C 112.551 315.023,112.800 315.650,112.800 315.983 C 112.800 316.316,113.268 317.581,113.840 318.794 C 116.055 323.493,119.029 329.445,119.637 330.400 C 121.828 333.837,122.809 335.304,124.586 337.800 C 125.682 339.340,126.838 340.799,127.154 341.042 C 128.209 341.852,127.365 342.932,125.867 342.688 C 124.556 342.476,117.219 339.017,113.400 336.811 C 112.300 336.176,111.033 335.482,110.584 335.270 C 110.135 335.057,109.527 334.595,109.235 334.242 C 108.942 333.889,108.518 333.600,108.292 333.600 C 107.922 333.600,105.285 331.897,102.410 329.800 C 101.806 329.360,100.792 328.650,100.156 328.222 C 99.164 327.555,97.533 326.257,93.800 323.163 C 90.164 320.150,84.259 314.346,81.221 310.800 C 79.807 309.150,78.459 307.595,78.225 307.345 C 77.428 306.491,74.665 302.912,73.600 301.353 C 67.788 292.842,66.562 290.807,63.266 284.200 C 60.696 279.046,59.940 277.343,58.385 273.200 C 57.683 271.330,56.769 268.957,56.354 267.926 C 55.940 266.895,55.601 265.815,55.602 265.526 C 55.603 265.237,55.176 263.560,54.654 261.800 C 53.256 257.087,52.054 251.727,51.784 249.000 C 51.653 247.680,51.246 245.070,50.878 243.200 C 49.933 238.389,49.950 218.335,50.903 214.200 C 51.257 212.660,51.663 210.050,51.804 208.400 C 51.946 206.750,52.396 204.140,52.804 202.600 C 53.213 201.060,53.811 198.720,54.134 197.400 C 55.141 193.282,56.283 189.509,57.404 186.600 C 57.998 185.060,58.807 182.881,59.202 181.758 C 59.597 180.635,60.107 179.375,60.335 178.958 C 60.562 178.541,61.851 175.950,63.200 173.200 C 64.548 170.450,66.176 167.390,66.817 166.400 C 67.459 165.410,68.151 164.228,68.354 163.774 C 69.001 162.330,70.728 159.816,74.476 154.865 C 75.864 153.031,77.270 151.124,77.600 150.627 C 78.283 149.597,82.921 144.310,84.347 142.935 C 86.532 140.827,86.320 140.800,67.862 140.800 C 53.237 140.800,50.829 140.717,50.398 140.197 C 49.836 139.520,50.171 130.959,50.850 128.668 C 51.056 127.971,51.407 125.960,51.630 124.200 C 51.853 122.440,52.367 119.920,52.772 118.600 C 53.177 117.280,53.693 115.480,53.919 114.600 C 55.116 109.928,59.724 99.125,62.023 95.600 C 62.381 95.050,63.125 93.880,63.675 93.000 C 70.767 81.658,79.019 73.050,89.963 65.575 C 95.472 61.813,107.675 55.600,109.554 55.600 C 109.916 55.600,110.878 55.243,111.691 54.807 C 112.505 54.371,113.942 53.895,114.885 53.750 C 115.828 53.605,117.416 53.170,118.413 52.783 C 119.410 52.397,121.914 51.875,123.977 51.624 C 126.040 51.373,127.905 51.059,128.121 50.925 C 130.086 49.711,148.468 49.862,155.400 51.150 M297.101 92.572 C 297.567 93.530,298.068 95.008,298.215 95.857 C 298.363 96.705,298.812 98.570,299.213 100.000 C 300.431 104.335,300.942 114.133,300.363 122.024 L 299.866 128.806 300.792 129.791 C 301.301 130.333,302.299 130.969,303.010 131.203 C 305.276 131.951,311.698 135.410,314.800 137.554 C 316.450 138.694,318.430 140.049,319.200 140.565 C 323.541 143.473,337.200 158.379,337.200 160.208 C 337.200 160.480,337.480 160.935,337.823 161.219 C 338.166 161.504,338.706 162.291,339.023 162.968 C 339.341 163.646,340.129 165.045,340.775 166.077 C 341.947 167.950,343.731 171.926,344.420 174.200 C 344.620 174.860,345.147 176.113,345.592 176.985 C 346.036 177.856,346.400 178.846,346.400 179.185 C 346.400 179.523,346.753 180.880,347.185 182.200 C 350.796 193.240,350.797 211.068,347.187 223.200 C 346.762 224.630,346.221 226.461,345.986 227.268 C 345.300 229.626,345.603 229.600,318.520 229.600 C 290.369 229.600,292.627 229.907,289.836 225.695 C 285.071 218.504,281.252 213.720,276.375 208.829 C 274.558 207.007,267.454 200.842,266.229 200.023 C 265.716 199.680,264.150 198.645,262.749 197.723 C 261.347 196.800,259.840 195.759,259.400 195.410 C 257.188 193.652,246.073 187.878,243.200 186.994 C 242.210 186.690,239.870 185.876,238.000 185.186 C 236.130 184.496,233.430 183.667,232.000 183.345 C 230.570 183.022,228.500 182.508,227.400 182.201 C 226.300 181.894,224.320 181.519,223.000 181.368 C 221.680 181.217,220.184 180.937,219.676 180.747 C 219.167 180.557,216.557 180.215,213.876 179.987 C 208.207 179.505,207.096 179.306,207.272 178.804 C 207.605 177.853,295.300 90.464,295.748 90.636 C 296.027 90.743,296.636 91.614,297.101 92.572 M216.000 210.205 C 217.210 210.495,219.190 210.854,220.400 211.001 C 223.603 211.392,230.047 213.489,234.600 215.623 C 235.480 216.035,236.650 216.559,237.200 216.786 C 237.750 217.013,239.100 217.728,240.200 218.375 C 241.300 219.022,242.740 219.860,243.400 220.236 C 249.126 223.502,259.866 233.875,263.656 239.800 C 264.219 240.680,265.203 242.219,265.842 243.221 C 270.528 250.562,274.209 261.200,275.664 271.600 C 276.243 275.743,275.829 289.279,275.057 291.452 C 274.734 292.360,274.344 294.160,274.191 295.452 C 274.038 296.743,273.591 298.546,273.198 299.458 C 272.804 300.370,272.356 301.720,272.202 302.458 C 271.903 303.889,270.941 306.212,269.368 309.300 C 267.586 312.798,268.090 314.128,271.440 314.779 C 277.669 315.988,284.886 321.387,291.560 329.829 C 292.158 330.586,294.398 334.986,294.399 335.406 C 294.400 335.629,294.734 336.439,295.142 337.206 C 296.209 339.209,297.845 348.715,297.229 349.331 C 296.381 350.178,198.013 349.986,195.200 349.131 C 193.990 348.764,192.100 348.349,191.000 348.211 C 186.521 347.646,176.328 343.770,171.000 340.605 C 170.120 340.083,168.861 339.345,168.202 338.967 C 160.782 334.702,150.782 324.560,145.856 316.302 C 141.523 309.037,137.607 298.772,136.816 292.600 C 136.590 290.840,136.228 288.680,136.012 287.800 C 135.510 285.757,135.499 274.307,135.997 272.200 C 136.205 271.320,136.566 269.160,136.799 267.400 C 137.492 262.166,140.996 251.617,143.243 248.000 C 143.448 247.670,143.880 246.827,144.203 246.126 C 146.723 240.650,156.240 229.205,161.603 225.200 C 162.340 224.650,163.406 223.832,163.971 223.383 C 166.608 221.288,173.520 217.119,175.200 216.609 C 175.750 216.442,176.470 216.078,176.800 215.800 C 177.130 215.522,177.850 215.174,178.400 215.027 C 178.950 214.879,180.210 214.427,181.200 214.021 C 184.408 212.707,189.346 211.276,191.600 211.007 C 192.810 210.863,194.430 210.546,195.200 210.304 C 198.713 209.199,211.557 209.138,216.000 210.205 M323.800 252.640 C 324.680 252.973,325.850 253.390,326.400 253.567 C 328.163 254.135,331.117 256.375,332.929 258.518 C 340.937 267.986,337.034 283.692,325.800 287.204 C 324.920 287.479,323.984 287.875,323.721 288.084 C 321.890 289.534,313.135 287.992,309.236 285.532 C 307.504 284.438,303.618 280.525,303.606 279.862 C 303.603 279.676,303.252 279.035,302.827 278.438 C 300.448 275.097,300.599 266.704,303.126 261.805 C 306.810 254.664,317.095 250.105,323.800 252.640 " stroke="none" fill="#fc7519" fill-rule="evenodd"></path></g></svg>