<svg version="1.1" xmlns="http://www.w3.org/2000/svg" width="48" height="48" viewBox="0 0 175 175"><path d="M0 0 C0.90965012 -0.0049649 1.81930023 -0.00992981 2.7565155 -0.01504517 C5.76069909 -0.02962774 8.76482982 -0.03646336 11.76904297 -0.04199219 C13.86546835 -0.04774817 15.96189372 -0.05350584 18.05831909 -0.05926514 C22.45473474 -0.06976494 26.85113217 -0.07561385 31.24755859 -0.07910156 C36.8592993 -0.08457495 42.47079601 -0.10858269 48.0824604 -0.13707352 C52.41497481 -0.1557738 56.74743141 -0.16090949 61.07998276 -0.16243744 C63.14747319 -0.16544934 65.21496296 -0.173428 67.28241348 -0.18662262 C82.18415259 -0.27491502 95.89762851 -0.33059344 107.51123047 10.28613281 C115.78320334 18.96705715 118.18930392 29.96834484 118.17675781 41.58374023 C118.18347504 42.49061584 118.19019226 43.39749146 118.19711304 44.33184814 C118.21600623 47.31015608 118.22001313 50.28823754 118.22216797 53.26660156 C118.22860291 55.35394887 118.23533178 57.44129529 118.24234009 59.52864075 C118.25429191 63.89875375 118.25802317 68.26878783 118.25683594 72.63891602 C118.2566331 78.20900062 118.28390849 83.77857301 118.31838036 89.34853649 C118.34073954 93.65969618 118.34467069 97.97073447 118.34361649 102.28194618 C118.34595991 104.33383253 118.35471155 106.38572288 118.37028122 108.4375515 C118.55822314 135.76777 118.55822314 135.76777 109.64794922 146.38378906 C100.90072101 155.20859801 91.76996385 159.22919696 79.35749817 159.31887817 C78.50443588 159.31999603 77.6513736 159.32111389 76.77246094 159.32226562 C75.86281082 159.32723053 74.95316071 159.33219543 74.01594543 159.33731079 C71.01176185 159.35189336 68.00763111 159.35872899 65.00341797 159.36425781 C62.90699259 159.37001379 60.81056722 159.37577147 58.71414185 159.38153076 C54.31772619 159.39203057 49.92132877 159.39787948 45.52490234 159.40136719 C39.91316163 159.40684057 34.30166493 159.43084831 28.69000053 159.45933914 C24.35748612 159.47803943 20.02502953 159.48317511 15.69247818 159.48470306 C13.62498775 159.48771497 11.55749798 159.49569362 9.49004745 159.50888824 C-6.82672896 159.60556471 -19.34860945 159.00025761 -31.93017578 147.50097656 C-39.6716254 139.29387584 -41.26071973 128.87042246 -41.27490234 118.04736328 C-41.27986725 117.13771317 -41.28483215 116.22806305 -41.28994751 115.29084778 C-41.30453008 112.28666419 -41.31136571 109.28253346 -41.31689453 106.27832031 C-41.32265051 104.18189493 -41.32840819 102.08546956 -41.33416748 99.98904419 C-41.34466729 95.59262854 -41.3505162 91.19623111 -41.35400391 86.79980469 C-41.35947729 81.18806398 -41.38348503 75.57656728 -41.41197586 69.96490288 C-41.43067614 65.63238847 -41.43581183 61.29993187 -41.43733978 56.96738052 C-41.44035169 54.89989009 -41.44833034 52.83240032 -41.46152496 50.7649498 C-41.55466288 35.04539963 -41.28010884 22.01796849 -30.03955078 9.93066406 C-25.16069317 5.25615651 -20.70692418 2.61692061 -14.11376953 1.16113281 C-13.43259064 0.98970764 -12.75141174 0.81828247 -12.04959106 0.6416626 C-8.02232617 -0.0175126 -4.074537 0.0053393 0 0 Z " fill="#F7CCCC" transform="translate(49.11376953125,7.8388671875)" /><path d="M0 0 C5.00677802 0.2861016 7.47022642 2.7108928 11 6 C12.8888985 9.77779699 11.47426985 14.51185033 11.05859375 18.6171875 C11.00199636 21.88474342 11.23219873 23.32477222 13 26 C17.17817928 24.64905288 17.17817928 24.64905288 21.22265625 22.953125 C28.25697148 20.53909839 38.30811316 20.85946942 45.1875 23.5625 C49.44802938 25.82335563 51.56043565 28.90782754 54 33 C53.01 33.495 53.01 33.495 52 34 C50.33333333 33.33333333 48.66666667 32.66666667 47 32 C41.79618326 31.34857607 37.36805893 31.37815503 32.5625 33.5625 C27.58847098 38.29389345 25.35095879 43.42022034 24.6875 50.1875 C25.29388788 57.58543219 28.33596392 63.18556933 34 68 C39.55398844 72.57387284 45.02932194 72.58752858 52 72 C55.47096857 70.72746144 55.47096857 70.72746144 58 69 C58.66 68.67 59.32 68.34 60 68 C64.25348081 75.13487104 65.88955315 80.58630981 65 89 C62.48460817 97.54412984 57.49107168 103.41437396 49.96484375 108.01953125 C44.12072548 110.93578112 37.36172237 110.6770956 31 110 C26.97762028 108.51807063 23.47185994 106.58598812 20.5390625 103.42578125 C18.62773093 101.65513144 16.99629152 101.19896162 14.5 100.5 C11.17825324 99.56991091 9.18479777 98.72592415 7 96 C6.3125 93.3125 6.3125 93.3125 6 91 C8.97 90.505 8.97 90.505 12 90 C11.98839844 89.38253906 11.97679687 88.76507813 11.96484375 88.12890625 C11.91755302 83.69033359 12.03484337 79.61435347 12.875 75.25 C13.25329038 72.48405865 13.30242273 71.45130776 11.73046875 69.10546875 C9.90882227 67.22104566 9.90882227 67.22104566 7 65 C8.16344336 62.67311328 9.34383117 60.39168332 10.625 58.125 C12.09144223 54.79217675 12.25684186 52.59578599 12 49 C9.03 49 6.06 49 3 49 C3 48.01 3 47.02 3 46 C2.113125 45.855625 1.22625 45.71125 0.3125 45.5625 C-3 45 -3 45 -5.4375 44.1875 C-8.7729043 43.94344603 -10.47722013 45.34432496 -13.24609375 47.0546875 C-16.0626897 48.57276371 -17.87507392 48.58592364 -21 48 C-23.71641769 46.68379761 -25.92782799 45.20346666 -28 43 C-29 39.75 -29 39.75 -29 37 C-28 36 -28 36 -25.25 35.6875 C-21.32316275 36.06508051 -19.82653264 37.33973399 -17 40 C-18.70357811 36.59284379 -20.56773831 34.41202893 -23.5 32.0625 C-27.73586808 28.56096846 -29.77711769 25.31797603 -30.3125 19.75 C-30 17 -30 17 -28 15 C-25.6875 14.875 -25.6875 14.875 -23 16 C-21.51378864 17.91333369 -20.33144957 19.88929713 -19.13671875 21.99609375 C-17.98726891 24.12786234 -17.98726891 24.12786234 -16.1875 26.375 C-15 28 -15 28 -15 30 C-14.484375 30.2475 -13.96875 30.495 -13.4375 30.75 C-11 32 -11 32 -7.875 34.125 C-3.43248945 36.7382415 0.99487788 36.36254406 6 36 C5.71843008 29.3831069 3.17139404 25.08079748 -1 20 C-5.64578865 15.80745902 -11.25215494 14.56504395 -17.171875 12.9296875 C-20 12 -20 12 -22 10 C-22.3125 7.5 -22.3125 7.5 -22 5 C-18.48184056 2.65456037 -17.14160746 2.60531711 -13 3 C-10.21875 4.20703125 -10.21875 4.20703125 -7.5 5.8125 C-6.55511719 6.35777344 -5.61023438 6.90304688 -4.63671875 7.46484375 C-3.76660156 7.97144531 -2.89648438 8.47804688 -2 9 C-0.01488453 10.0362075 1.98628005 11.02035246 4 12 C3.55527344 11.54109375 3.11054687 11.0821875 2.65234375 10.609375 C2.08644531 9.99578125 1.52054688 9.3821875 0.9375 8.75 C0.36902344 8.14671875 -0.19945313 7.5434375 -0.78515625 6.921875 C-2 5 -2 5 -1.74609375 2.828125 C-1 1 -1 1 0 0 Z " fill="#FE9393" transform="translate(66,32)" /><path d="M0 0 C5.0524559 5.72611669 6.4860007 10.89146877 6.31640625 18.41015625 C5.46955006 25.34183101 1.87874296 31.12125704 -3 36 C-10.98654015 41.88230202 -18.08463118 43.05531996 -28 42 C-32.02237972 40.51807063 -35.52814006 38.58598812 -38.4609375 35.42578125 C-40.37226907 33.65513144 -42.00370848 33.19896162 -44.5 32.5 C-47.82174676 31.56991091 -49.81520223 30.72592415 -52 28 C-52.6875 25.3125 -52.6875 25.3125 -53 23 C-51.02 22.67 -49.04 22.34 -47 22 C-47.02320312 21.38253906 -47.04640625 20.76507813 -47.0703125 20.12890625 C-47.09738281 18.85853516 -47.09738281 18.85853516 -47.125 17.5625 C-47.14820312 16.73878906 -47.17140625 15.91507813 -47.1953125 15.06640625 C-46.93168214 10.92740964 -45.9821207 7.02093721 -45 3 C-41.43842366 2.77322793 -37.87584575 2.57184521 -34.3125 2.375 C-33.30509766 2.31054688 -32.29769531 2.24609375 -31.25976562 2.1796875 C-30.28330078 2.128125 -29.30683594 2.0765625 -28.30078125 2.0234375 C-27.40528564 1.97106934 -26.50979004 1.91870117 -25.5871582 1.86474609 C-22.68009244 2.01672443 -20.6520035 2.84193076 -18 4 C-11.72703709 4.70308318 -6.40724842 4.55740028 -1 1 C-0.67 0.67 -0.34 0.34 0 0 Z " fill="#FE9292" transform="translate(125,100)" /><path d="M0 0 C4.54025783 3.12773317 9.14838071 6.52212476 12.30078125 11.09765625 C14.06086596 13.23977485 15.11522195 13.56546165 17.8125 13.9375 C16.91093387 23.9946256 14.73609345 32.17857933 6.8125 38.9375 C1.57859408 41.54138997 -3.45842606 41.47829754 -9.1875 40.9375 C-15.5619585 38.65231676 -20.44107857 34.83095552 -23.5 28.8125 C-26.31500353 22.70738685 -27.20602053 17.38089104 -25 10.875 C-23.13732903 6.35011532 -20.59244786 2.44638592 -16.36328125 -0.20703125 C-11.22510756 -2.22724676 -5.14802198 -1.71600733 0 0 Z " fill="#FEFDFD" transform="translate(116.1875,64.0625)" /><path d="M0 0 C0.89805862 -0.00014603 1.79611725 -0.00029205 2.72138977 -0.0004425 C5.68106527 0.00025252 8.64067733 0.00802574 11.6003418 0.01586914 C13.65585801 0.01773478 15.71137466 0.01915799 17.76689148 0.02015686 C23.17063632 0.02397057 28.57435418 0.03379109 33.97808838 0.04486084 C39.49474726 0.05509959 45.01141052 0.05965976 50.52807617 0.06469727 C61.34774947 0.07541437 72.16740276 0.09247705 82.98706055 0.11352539 C82.98706055 0.44352539 82.98706055 0.77352539 82.98706055 1.11352539 C81.9805394 1.12161224 80.97401825 1.1296991 79.93699646 1.13803101 C70.39078544 1.21595607 60.84470887 1.30380667 51.29867458 1.40105247 C46.39250378 1.45072154 41.4863515 1.49705085 36.58007812 1.53540039 C31.83372316 1.57262862 27.08753542 1.61908303 22.34132576 1.6715889 C20.54233841 1.6899357 18.74331549 1.70511396 16.94427299 1.71686935 C-7.63821494 1.37246982 -7.63821494 1.37246982 -28.82543945 12.30102539 C-40.45767902 25.14038416 -39.32755088 43.2498167 -39.27856445 59.55493164 C-39.27991764 61.1776485 -39.28186354 62.80036495 -39.28436279 64.42308044 C-39.28728258 67.79543992 -39.28311875 71.16769222 -39.27368164 74.54003906 C-39.26227979 78.81817679 -39.26887147 83.09606363 -39.28082657 87.37419224 C-39.28812324 90.71605756 -39.28572198 94.05786535 -39.28057098 97.39973259 C-39.27925643 98.97546355 -39.28080315 100.5512001 -39.28553009 102.12692451 C-39.62859006 126.29859804 -39.62859006 126.29859804 -28.82543945 146.98852539 C-15.91264196 159.04899302 2.15406275 157.27343854 18.6628418 157.28149414 C20.24260994 157.28471956 21.82237781 157.28808452 23.40214539 157.2915802 C26.69404796 157.29752302 29.98592448 157.29942509 33.27783203 157.29882812 C37.44944584 157.29872666 41.62088889 157.31238532 45.79246235 157.32960033 C49.05029535 157.34083919 52.30808857 157.34274375 55.56593895 157.3422184 C57.10177385 157.34338046 58.63761041 157.34769932 60.17342567 157.35555077 C84.76896135 157.88790431 84.76896135 157.88790431 105.61206055 146.86352539 C106.75291351 145.62797712 107.88402059 144.38294567 108.98706055 143.11352539 C109.31706055 144.10352539 109.64706055 145.09352539 109.98706055 146.11352539 C99.53577314 155.77757297 90.6646878 159.43026399 76.41918945 159.38818359 C75.50895523 159.39329453 74.59872101 159.39840546 73.66090393 159.40367126 C70.67840842 159.41747046 67.69614651 159.41661779 64.71362305 159.41430664 C62.62291377 159.41819891 60.53220529 159.42253466 58.4414978 159.42729187 C54.06896394 159.43473333 49.69651086 159.43447789 45.32397461 159.42919922 C39.74371467 159.42340772 34.16378698 159.44033818 28.58358192 159.46354389 C24.26821995 159.47833491 19.95293701 159.47914563 15.63755417 159.47603416 C13.58123492 159.47654469 11.52491093 159.48173146 9.46861649 159.49184608 C-6.79532728 159.56203601 -19.29179364 158.9124221 -31.8293457 147.45336914 C-39.57079533 139.24626841 -41.15988965 128.82281504 -41.17407227 117.99975586 C-41.17903717 117.09010574 -41.18400208 116.18045563 -41.18911743 115.24324036 C-41.2037 112.23905677 -41.21053563 109.23492604 -41.21606445 106.23071289 C-41.22182043 104.13428751 -41.22757811 102.03786214 -41.2333374 99.94143677 C-41.24383721 95.54502112 -41.24968612 91.14862369 -41.25317383 86.75219727 C-41.25864721 81.14045656 -41.28265495 75.52895985 -41.31114578 69.91729546 C-41.32984607 65.58478104 -41.33498176 61.25232445 -41.3365097 56.9197731 C-41.33952161 54.85228267 -41.34750026 52.7847929 -41.36069489 50.71734238 C-41.4538328 34.99779221 -41.17927876 21.97036107 -29.9387207 9.88305664 C-25.0598631 5.20854909 -20.6060941 2.56931319 -14.01293945 1.11352539 C-13.32968094 0.94111832 -12.64642242 0.76871124 -11.94245911 0.59107971 C-7.94674583 -0.06027968 -4.04171624 -0.01725185 0 0 Z " fill="#CCA7A7" transform="translate(49.012939453125,7.886474609375)" /><path d="M0 0 C3.65555407 1.53023194 4.63974452 3.75115831 6.55078125 7.12109375 C7.70023109 9.25286234 7.70023109 9.25286234 9.5 11.5 C10.6875 13.125 10.6875 13.125 10.6875 15.125 C11.24695312 15.40214844 11.80640625 15.67929687 12.3828125 15.96484375 C13.9485305 16.75301027 15.50567696 17.55839077 17.0546875 18.37890625 C21.59076926 20.7458648 25.49740923 22.71525599 30.6875 23.125 C30.0275 25.435 29.3675 27.745 28.6875 30.125 C23.10912162 30.25472973 23.10912162 30.25472973 20.25 29.375 C16.88972507 29.0471683 15.23039899 30.45689717 12.44140625 32.1796875 C9.6248103 33.69776371 7.81242608 33.71092364 4.6875 33.125 C1.97108231 31.80879761 -0.24032799 30.32846666 -2.3125 28.125 C-3.3125 24.875 -3.3125 24.875 -3.3125 22.125 C-2.3125 21.125 -2.3125 21.125 0.4375 20.8125 C4.36433725 21.19008051 5.86096736 22.46473399 8.6875 25.125 C6.98392189 21.71784379 5.11976169 19.53702893 2.1875 17.1875 C-2.04836808 13.68596846 -4.08961769 10.44297603 -4.625 4.875 C-4.23169024 1.41387412 -3.59331614 0.1942333 0 0 Z " fill="#C26565" transform="translate(40.3125,46.875)" /><path d="M0 0 C5.00677802 0.2861016 7.47022642 2.7108928 11 6 C12.8888985 9.77779699 11.47426985 14.51185033 11.05859375 18.6171875 C11.00085473 21.9506535 11.31624915 23.23659211 13 26 C12.9375 28 12.9375 28 12 30 C9.4375 32.25 9.4375 32.25 7 34 C6.69707031 33.33613281 6.39414063 32.67226562 6.08203125 31.98828125 C3.63196584 26.82429722 1.43621282 22.75371854 -3 19 C-3.57363281 18.505 -4.14726563 18.01 -4.73828125 17.5 C-7.58844397 15.60973664 -10.33594488 14.8544262 -13.625 13.9375 C-19.78627145 12.21372855 -19.78627145 12.21372855 -22 10 C-22.3125 7.5 -22.3125 7.5 -22 5 C-18.48184056 2.65456037 -17.14160746 2.60531711 -13 3 C-10.21875 4.20703125 -10.21875 4.20703125 -7.5 5.8125 C-6.55511719 6.35777344 -5.61023438 6.90304688 -4.63671875 7.46484375 C-3.76660156 7.97144531 -2.89648438 8.47804688 -2 9 C-0.01488453 10.0362075 1.98628005 11.02035246 4 12 C3.55527344 11.54109375 3.11054687 11.0821875 2.65234375 10.609375 C2.08644531 9.99578125 1.52054688 9.3821875 0.9375 8.75 C0.36902344 8.14671875 -0.19945313 7.5434375 -0.78515625 6.921875 C-2 5 -2 5 -1.74609375 2.828125 C-1 1 -1 1 0 0 Z " fill="#C36666" transform="translate(66,32)" /><path d="M0 0 C1 1 1 1 1.01953125 2.890625 C0.56479572 8.07289407 0.03635664 11.37762866 -4 15 C-8.61058246 17.98852253 -12.39686257 19.56031374 -18 19 C-18.84860132 13.48409144 -16.81478208 10.3792037 -13.7109375 6.05859375 C-9.7593563 1.30406569 -6.2001651 -0.72094943 0 0 Z " fill="#FEFCFC" transform="translate(78,80)" /><path d="M0 0 C2.88848615 1.13553342 5.33808822 1.42913703 8.42578125 1.65234375 C9.40160156 1.72710937 10.37742188 1.801875 11.3828125 1.87890625 C12.11886719 1.92789063 12.85492188 1.976875 13.61328125 2.02734375 C8.86112812 6.77949688 2.17907178 6.44598361 -4.13671875 6.46484375 C-5.46654785 6.47064453 -5.46654785 6.47064453 -6.82324219 6.4765625 C-13.60277421 6.35696767 -18.83025093 5.12158319 -24.38671875 1.02734375 C-24.38671875 0.69734375 -24.38671875 0.36734375 -24.38671875 0.02734375 C-4.21672505 -1.71843623 -4.21672505 -1.71843623 0 0 Z " fill="#FE6E6E" transform="translate(104.38671875,102.97265625)" /><path d="M0 0 C0.33 0 0.66 0 1 0 C1.09796875 0.96679688 1.1959375 1.93359375 1.296875 2.9296875 C2.65762412 14.77758931 4.48705098 23.61682484 13.5546875 32.0859375 C20.24776867 37.32493075 27.43091025 38.98016372 35.75 39.5625 C36.92046875 39.64628906 38.0909375 39.73007813 39.296875 39.81640625 C40.63492188 39.90728516 40.63492188 39.90728516 42 40 C42 40.33 42 40.66 42 41 C31.66515722 42.65917205 23.51123483 41.61487764 14.6875 35.75 C6.06049343 29.20113131 0.87610173 21.70398119 -0.8125 10.8125 C-1.00267516 6.94560499 -0.70956442 3.78434357 0 0 Z " fill="#DAADAD" transform="translate(9,125)" /><path d="M0 0 C3 0.25 3 0.25 5 2.25 C5.25 5.25 5.25 5.25 5 8.25 C3 10.25 3 10.25 0 10.5 C-3 10.25 -3 10.25 -5 8.25 C-5.25 5.25 -5.25 5.25 -5 2.25 C-3 0.25 -3 0.25 0 0 Z " fill="#FE6D6D" transform="translate(132,66.75)" /><path d="M0 0 C0.495 1.485 0.495 1.485 1 3 C-6.99017893 10.3883213 -14.63652787 16.29212645 -26.01953125 15.89453125 C-28.69203704 15.65781379 -31.34260665 15.36756469 -34 15 C-34 14.67 -34 14.34 -34 14 C-32.96101563 13.90203125 -31.92203125 13.8040625 -30.8515625 13.703125 C-17.82823843 12.36138484 -8.9098654 10.25381157 0 0 Z " fill="#DBAFAF" transform="translate(158,151)" /><path d="M0 0 C2.64 0 5.28 0 8 0 C11 5.75 11 5.75 11 8 C4.56074766 7.39252336 4.56074766 7.39252336 2.125 5.6875 C0.86920188 3.80380283 0.38295049 2.22111286 0 0 Z " fill="#FE6F6F" transform="translate(72,124)" /><path d="M0 0 C1.99954746 -0.04254356 4.00041636 -0.04080783 6 0 C7 1 7 1 7.1875 3.4375 C7 6 7 6 5 8 C2.375 7.625 2.375 7.625 0 7 C-1.125 2.25 -1.125 2.25 0 0 Z " fill="#0F0F0F" transform="translate(111,83)" /><path d="M0 0 C2.13590791 1.36917173 3.79141992 2.64207324 5.4375 4.5625 C1.80843183 3.9358983 -1.39457402 2.92167524 -4.8125 1.5625 C-9.81025044 -0.30911346 -14.24958244 -1.08911196 -19.5625 -1.4375 C-13.68841958 -5.189604 -6.02952334 -2.43296556 0 0 Z " fill="#E1CECE" transform="translate(147.5625,11.4375)" /><path d="M0 0 C0.66 0.33 1.32 0.66 2 1 C-1.49359465 4.59634744 -5.11098131 7.83451967 -9 11 C-9 8 -9 8 -7.03125 5.95703125 C-6.1959375 5.24933594 -5.360625 4.54164062 -4.5 3.8125 C-3.6646875 3.09707031 -2.829375 2.38164062 -1.96875 1.64453125 C-1.3190625 1.10183594 -0.669375 0.55914062 0 0 Z " fill="#E6B9B9" transform="translate(26,12)" /><path d="M0 0 C3.26008643 3.16952847 6.22237877 6.39937989 9 10 C6 10 6 10 4.39453125 8.57421875 C3.61142578 7.64029297 3.61142578 7.64029297 2.8125 6.6875 C2.01779297 5.76517578 2.01779297 5.76517578 1.20703125 4.82421875 C0 3 0 3 0 0 Z " fill="#E2B6B6" transform="translate(14,148)" /><path d="M0 0 C0.33 0.99 0.66 1.98 1 3 C-1.97 5.475 -1.97 5.475 -5 8 C-5 5 -5 5 -2.5 2.3125 C-1.675 1.549375 -0.85 0.78625 0 0 Z " fill="#E3B7B7" transform="translate(158,151)" /><path d="M0 0 C1.98 1.65 3.96 3.3 6 5 C5.34 5.66 4.68 6.32 4 7 C2.35 5.02 0.7 3.04 -1 1 C-0.67 0.67 -0.34 0.34 0 0 Z " fill="#EAD6D6" transform="translate(153,16)" /></svg>