<svg id="svg" version="1.1" xmlns="http://www.w3.org/2000/svg" xmlns:xlink="http://www.w3.org/1999/xlink" width="48" height="48" viewBox="0 0 400 400"><g id="svgg"><path id="path0" d="M188.200 59.224 C 181.007 59.675,179.661 59.936,176.600 61.479 C 175.906 61.829,172.364 62.402,168.200 62.839 C 159.854 63.715,160.000 63.677,160.000 64.943 C 160.000 66.046,160.288 65.967,152.300 67.046 C 147.440 67.702,147.200 67.778,147.200 68.657 C 147.200 69.785,145.438 70.800,143.479 70.800 C 141.853 70.800,138.589 72.452,137.513 73.819 C 136.975 74.503,136.346 74.800,135.433 74.800 C 134.632 74.800,133.843 75.110,133.400 75.600 C 132.993 76.049,132.168 76.400,131.518 76.400 C 130.572 76.400,130.252 76.657,129.774 77.800 C 129.357 78.799,128.937 79.200,128.308 79.200 C 126.426 79.200,124.050 80.442,123.922 81.494 C 123.797 82.520,120.401 83.979,118.100 83.994 C 117.379 83.999,117.200 84.226,117.200 85.138 C 117.200 86.523,116.208 87.488,114.601 87.667 C 113.670 87.770,113.247 88.129,112.712 89.269 C 112.333 90.078,111.612 90.869,111.111 91.027 C 109.784 91.447,107.824 93.033,107.206 94.189 C 106.911 94.741,105.889 95.570,104.935 96.032 C 103.478 96.737,103.200 97.058,103.200 98.036 C 103.200 99.038,103.046 99.201,102.100 99.207 C 100.722 99.216,99.200 100.763,99.200 102.156 C 99.200 103.042,99.024 103.200,98.036 103.200 C 97.053 103.200,96.737 103.478,96.009 104.982 C 95.535 105.961,94.806 106.871,94.390 107.003 C 93.497 107.287,91.428 109.810,91.023 111.111 C 90.866 111.613,90.079 112.332,89.269 112.712 C 88.129 113.247,87.770 113.670,87.667 114.601 C 87.488 116.208,86.523 117.200,85.138 117.200 C 84.226 117.200,83.999 117.379,83.994 118.100 C 83.979 120.401,82.520 123.797,81.494 123.922 C 80.442 124.050,79.200 126.426,79.200 128.308 C 79.200 128.937,78.799 129.357,77.800 129.774 C 76.657 130.252,76.400 130.572,76.400 131.518 C 76.400 132.168,76.049 132.993,75.600 133.400 C 75.110 133.843,74.800 134.632,74.800 135.433 C 74.800 136.346,74.503 136.975,73.819 137.513 C 72.452 138.589,70.800 141.853,70.800 143.479 C 70.800 145.438,69.785 147.200,68.657 147.200 C 67.778 147.200,67.702 147.440,67.046 152.300 C 65.946 160.445,66.078 160.000,64.755 160.000 C 63.926 160.000,63.597 160.198,63.588 160.700 C 63.526 164.431,61.963 175.778,61.430 176.366 C 61.084 176.750,60.800 177.418,60.800 177.851 C 60.800 178.285,60.637 178.811,60.439 179.020 C 58.541 181.016,58.541 218.984,60.439 220.980 C 60.637 221.189,60.800 221.627,60.800 221.954 C 60.800 222.280,61.139 223.279,61.554 224.174 C 62.077 225.301,62.514 227.943,62.978 232.777 C 63.725 240.558,63.683 240.400,64.992 240.400 C 66.087 240.400,66.059 240.300,67.051 247.700 C 67.702 252.554,67.779 252.800,68.653 252.800 C 69.811 252.800,70.347 253.792,70.839 256.851 C 71.234 259.300,72.441 261.641,73.959 262.896 C 74.421 263.279,74.800 264.061,74.800 264.633 C 74.800 265.205,75.160 266.131,75.600 266.691 C 76.040 267.250,76.400 268.116,76.400 268.614 C 76.400 269.226,76.855 269.789,77.800 270.347 C 78.663 270.856,79.200 271.482,79.200 271.978 C 79.200 273.737,80.432 275.949,81.482 276.077 C 82.521 276.203,83.979 279.583,83.994 281.900 C 83.999 282.621,84.226 282.800,85.138 282.800 C 86.493 282.800,87.598 283.888,87.606 285.231 C 87.614 286.523,87.986 287.010,89.293 287.440 C 90.011 287.676,90.698 288.417,91.293 289.597 C 91.792 290.585,92.948 291.935,93.861 292.597 C 94.775 293.259,95.639 294.227,95.781 294.748 C 96.146 296.088,96.976 296.800,98.171 296.800 C 99.034 296.800,99.200 296.983,99.200 297.930 C 99.200 299.346,100.683 300.800,102.126 300.800 C 103.013 300.800,103.200 300.979,103.200 301.829 C 103.200 303.060,103.949 303.884,105.588 304.456 C 106.255 304.688,106.800 305.027,106.800 305.208 C 106.800 305.992,109.110 308.182,110.658 308.867 C 111.930 309.429,112.452 309.944,112.790 310.970 C 113.258 312.388,113.842 312.800,115.384 312.800 C 116.530 312.800,117.090 313.455,117.265 315.000 C 117.383 316.053,117.596 316.234,119.000 316.480 C 123.585 317.282,123.795 317.365,123.920 318.440 C 124.054 319.582,126.071 320.800,127.827 320.800 C 128.546 320.800,129.059 321.194,129.653 322.200 C 130.211 323.145,130.774 323.600,131.386 323.600 C 131.884 323.600,132.750 323.960,133.309 324.400 C 133.869 324.840,134.755 325.200,135.280 325.200 C 135.825 325.200,136.886 325.816,137.757 326.637 C 139.530 328.309,141.022 328.989,143.800 329.390 C 146.418 329.768,147.200 330.224,147.200 331.370 C 147.200 332.441,147.256 332.456,154.698 333.387 C 159.803 334.026,160.000 334.100,160.000 335.380 C 160.000 336.466,160.564 336.606,167.200 337.163 C 172.499 337.608,175.289 338.014,175.800 338.414 C 179.705 341.466,215.422 342.367,221.600 339.569 C 222.150 339.320,223.140 338.876,223.800 338.583 C 225.264 337.933,227.163 337.630,232.725 337.160 C 240.032 336.543,240.400 336.456,240.400 335.348 C 240.400 334.122,241.264 333.792,245.400 333.442 C 250.545 333.006,252.800 332.377,252.800 331.377 C 252.800 330.330,253.914 329.750,256.944 329.221 C 259.454 328.782,261.232 327.869,262.777 326.225 C 263.347 325.618,264.178 325.200,264.816 325.200 C 265.408 325.200,266.327 324.858,266.859 324.439 C 267.391 324.021,268.257 323.616,268.783 323.539 C 269.344 323.458,270.012 322.904,270.400 322.200 C 270.804 321.466,271.437 320.955,272.030 320.885 C 274.098 320.640,276.000 319.520,276.000 318.547 C 276.000 317.854,276.282 317.555,277.100 317.380 C 277.705 317.251,278.613 316.977,279.119 316.772 C 279.624 316.568,280.659 316.400,281.419 316.400 C 282.666 316.400,282.800 316.291,282.800 315.276 C 282.800 313.690,283.576 312.864,285.200 312.722 C 286.405 312.617,286.703 312.372,287.339 310.966 C 287.851 309.835,288.465 309.187,289.339 308.858 C 290.847 308.291,291.958 307.376,292.882 305.942 C 293.257 305.359,294.247 304.549,295.082 304.142 C 296.313 303.540,296.624 303.154,296.725 302.100 C 296.834 300.977,297.001 300.800,297.956 300.800 C 299.335 300.800,300.800 299.306,300.800 297.900 C 300.800 297.009,300.996 296.832,302.099 296.725 C 303.135 296.625,303.561 296.295,304.199 295.094 C 304.640 294.266,305.450 293.282,306.000 292.907 C 307.387 291.961,308.301 290.820,308.858 289.339 C 309.187 288.465,309.835 287.851,310.966 287.339 C 312.372 286.703,312.617 286.405,312.722 285.200 C 312.864 283.576,313.690 282.800,315.276 282.800 C 316.291 282.800,316.400 282.666,316.400 281.419 C 316.400 280.659,316.568 279.624,316.772 279.119 C 316.977 278.613,317.251 277.705,317.380 277.100 C 317.555 276.282,317.854 276.000,318.547 276.000 C 319.520 276.000,320.640 274.098,320.885 272.030 C 320.955 271.438,321.467 270.803,322.200 270.398 C 322.924 269.999,323.479 269.315,323.600 268.675 C 323.710 268.092,324.115 267.249,324.500 266.803 C 324.885 266.356,325.200 265.484,325.200 264.865 C 325.200 264.174,325.596 263.368,326.225 262.777 C 327.869 261.232,328.782 259.454,329.221 256.944 C 329.750 253.914,330.330 252.800,331.377 252.800 C 332.377 252.800,333.006 250.545,333.442 245.400 C 333.792 241.264,334.122 240.400,335.348 240.400 C 336.453 240.400,336.540 240.038,337.158 232.800 C 337.613 227.461,338.016 224.707,338.416 224.200 C 342.232 219.363,342.232 180.637,338.416 175.800 C 338.014 175.290,337.610 172.512,337.163 167.200 C 336.606 160.564,336.466 160.000,335.380 160.000 C 334.096 160.000,334.009 159.771,333.374 154.685 C 332.442 147.213,332.438 147.200,331.370 147.200 C 330.221 147.200,329.764 146.411,329.401 143.800 C 329.058 141.337,327.902 138.947,326.364 137.523 C 325.643 136.855,325.200 136.042,325.200 135.386 C 325.200 134.803,324.840 133.869,324.400 133.309 C 323.960 132.750,323.600 131.884,323.600 131.386 C 323.600 130.774,323.145 130.211,322.200 129.653 C 321.194 129.059,320.800 128.546,320.800 127.827 C 320.800 126.071,319.582 124.054,318.440 123.920 C 317.365 123.795,317.282 123.585,316.480 119.000 C 316.234 117.596,316.053 117.383,315.000 117.265 C 313.455 117.090,312.800 116.530,312.800 115.384 C 312.800 113.842,312.388 113.258,310.970 112.790 C 309.941 112.451,309.429 111.930,308.860 110.642 C 308.438 109.689,307.292 108.274,306.254 107.423 C 305.234 106.587,304.400 105.683,304.400 105.413 C 304.400 104.495,302.910 103.200,301.853 103.200 C 300.964 103.200,300.800 103.024,300.800 102.070 C 300.800 100.654,299.317 99.200,297.874 99.200 C 296.955 99.200,296.800 99.032,296.800 98.036 C 296.800 97.052,296.522 96.737,295.000 96.000 C 294.010 95.521,293.200 94.979,293.200 94.795 C 293.200 94.027,291.081 92.032,289.451 91.266 C 288.189 90.673,287.619 90.129,287.417 89.325 C 287.086 88.007,286.571 87.614,285.162 87.606 C 283.858 87.598,282.800 86.462,282.800 85.069 C 282.800 84.229,282.607 83.999,281.900 83.994 C 279.583 83.979,276.203 82.521,276.077 81.482 C 275.949 80.432,273.737 79.200,271.978 79.200 C 271.482 79.200,270.856 78.663,270.347 77.800 C 269.789 76.855,269.226 76.400,268.614 76.400 C 268.116 76.400,267.250 76.040,266.691 75.600 C 266.131 75.160,265.197 74.800,264.614 74.800 C 263.953 74.800,263.150 74.358,262.477 73.623 C 261.219 72.250,258.281 70.821,256.687 70.809 C 254.706 70.793,252.800 69.753,252.800 68.688 C 252.800 67.769,252.615 67.710,247.700 67.051 C 240.264 66.054,240.400 66.093,240.400 64.956 C 240.400 63.686,240.624 63.742,232.000 62.850 C 227.664 62.401,224.103 61.833,223.400 61.479 C 220.311 59.921,219.720 59.809,211.600 59.227 C 205.897 58.819,194.688 58.817,188.200 59.224 M209.200 143.586 C 210.630 144.046,212.250 144.667,212.800 144.966 C 213.350 145.266,215.150 145.638,216.800 145.794 C 221.222 146.210,223.600 147.059,223.600 148.219 C 223.600 149.236,223.841 149.349,227.323 149.968 C 230.246 150.488,230.400 150.591,230.400 152.024 C 230.400 153.046,230.547 153.200,231.524 153.200 C 232.141 153.200,232.996 153.464,233.424 153.787 C 233.851 154.110,234.655 154.380,235.210 154.387 C 236.000 154.397,236.393 154.767,237.010 156.084 C 237.536 157.205,238.321 158.053,239.361 158.621 C 240.278 159.123,241.185 160.037,241.561 160.838 C 241.990 161.753,242.758 162.459,243.900 162.990 C 245.237 163.611,245.602 163.995,245.609 164.790 C 245.614 165.345,245.970 166.250,246.400 166.800 C 246.830 167.350,247.186 168.205,247.191 168.700 C 247.198 169.388,247.433 169.600,248.186 169.600 C 249.310 169.600,249.781 170.315,250.161 172.600 C 250.769 176.254,250.811 176.347,251.912 176.476 C 253.134 176.619,253.587 178.016,254.612 184.800 C 254.762 185.790,255.229 187.341,255.652 188.246 C 258.251 193.820,258.230 206.507,255.613 212.200 C 254.877 213.801,254.591 215.026,254.168 218.400 C 254.043 219.390,253.784 220.560,253.591 221.000 C 253.399 221.440,253.185 222.160,253.117 222.600 C 253.035 223.129,252.631 223.442,251.923 223.524 C 250.810 223.653,250.770 223.739,250.161 227.400 C 249.781 229.685,249.310 230.400,248.186 230.400 C 247.416 230.400,247.200 230.607,247.200 231.346 C 247.200 231.866,246.840 232.750,246.400 233.309 C 245.960 233.869,245.600 234.773,245.600 235.320 C 245.600 236.106,245.265 236.447,243.991 236.957 C 242.963 237.368,242.213 237.997,241.914 238.700 C 241.220 240.329,240.374 241.200,238.879 241.825 C 237.917 242.227,237.365 242.834,236.910 243.992 C 236.413 245.258,236.071 245.600,235.302 245.600 C 234.765 245.600,233.869 245.960,233.309 246.400 C 232.750 246.840,231.866 247.200,231.346 247.200 C 230.607 247.200,230.400 247.416,230.400 248.186 C 230.400 249.310,229.685 249.781,227.400 250.161 C 223.739 250.770,223.653 250.810,223.524 251.923 C 223.442 252.631,223.129 253.035,222.600 253.117 C 222.160 253.185,221.440 253.402,221.000 253.598 C 220.560 253.794,219.480 254.041,218.600 254.147 C 214.671 254.618,212.969 254.929,212.563 255.249 C 210.728 256.695,206.905 257.353,200.200 257.376 C 193.273 257.400,192.105 257.214,187.800 255.398 C 187.140 255.120,185.250 254.681,183.600 254.424 C 181.950 254.166,180.047 253.786,179.372 253.578 C 178.696 253.370,177.841 253.200,177.472 253.200 C 176.997 253.200,176.800 252.859,176.800 252.036 C 176.800 250.902,176.725 250.860,173.900 250.389 C 170.297 249.789,169.600 249.432,169.600 248.186 C 169.600 247.433,169.388 247.198,168.700 247.191 C 168.205 247.186,167.350 246.830,166.800 246.400 C 166.250 245.970,165.350 245.607,164.800 245.594 C 164.028 245.576,163.618 245.187,163.000 243.886 C 162.470 242.768,161.741 241.984,160.838 241.561 C 160.037 241.185,159.123 240.278,158.621 239.361 C 158.053 238.321,157.205 237.536,156.084 237.010 C 154.767 236.393,154.397 236.000,154.387 235.210 C 154.380 234.655,154.110 233.851,153.787 233.424 C 153.464 232.996,153.200 232.141,153.200 231.524 C 153.200 230.545,153.047 230.400,152.014 230.400 C 150.581 230.400,150.192 229.757,149.833 226.797 C 149.510 224.126,149.284 223.721,148.015 223.540 C 146.869 223.377,146.604 222.565,145.860 216.948 C 145.594 214.939,145.175 213.049,144.927 212.748 C 141.782 208.918,141.832 190.871,144.997 187.200 C 145.282 186.870,145.635 185.250,145.781 183.600 C 145.928 181.950,146.202 180.150,146.391 179.600 C 146.580 179.050,146.840 178.117,146.968 177.526 C 147.142 176.729,147.482 176.420,148.291 176.326 C 149.311 176.208,149.410 176.018,149.862 173.307 C 150.452 169.771,150.551 169.600,152.024 169.600 C 153.037 169.600,153.202 169.448,153.213 168.500 C 153.220 167.895,153.490 167.051,153.813 166.624 C 154.136 166.196,154.400 165.421,154.400 164.901 C 154.400 164.171,154.792 163.782,156.115 163.197 C 157.411 162.623,158.001 162.048,158.535 160.839 C 159.059 159.650,159.659 159.056,160.876 158.520 C 162.132 157.967,162.682 157.405,163.242 156.100 C 163.804 154.791,164.187 154.400,164.909 154.400 C 165.425 154.400,166.196 154.136,166.624 153.813 C 167.051 153.490,167.895 153.220,168.500 153.213 C 169.455 153.202,169.600 153.040,169.600 151.990 C 169.600 150.582,170.264 150.224,173.665 149.800 C 176.346 149.465,176.680 149.278,176.860 148.015 C 177.021 146.881,177.924 146.575,183.000 145.934 C 184.760 145.712,187.100 145.115,188.200 144.609 C 189.300 144.102,191.190 143.490,192.400 143.248 C 193.610 143.006,194.960 142.724,195.400 142.622 C 197.506 142.133,206.673 142.773,209.200 143.586 " stroke="none" fill="#e6e9f4" fill-rule="evenodd"></path><path id="path1" d="M68.400 0.600 C 68.400 1.000,68.000 1.200,67.200 1.200 C 66.540 1.200,65.999 1.335,65.997 1.500 C 65.991 2.110,63.780 2.800,61.820 2.804 C 58.549 2.812,56.849 3.216,56.584 4.051 C 56.440 4.503,55.974 4.800,55.406 4.800 C 54.050 4.800,53.200 5.202,53.200 5.843 C 53.200 6.216,52.724 6.400,51.762 6.400 C 50.360 6.400,48.000 7.458,48.000 8.086 C 48.000 8.259,47.654 8.400,47.231 8.400 C 46.808 8.400,45.927 8.850,45.273 9.400 C 44.619 9.950,43.719 10.400,43.273 10.400 C 42.827 10.400,41.927 10.850,41.273 11.400 C 40.619 11.950,39.879 12.400,39.629 12.400 C 39.060 12.400,36.400 15.025,36.400 15.587 C 36.400 15.814,35.875 16.000,35.233 16.000 C 33.228 16.000,32.800 16.356,32.800 18.021 L 32.800 19.556 30.900 19.678 C 29.279 19.782,28.981 19.932,28.872 20.700 C 28.802 21.195,28.499 21.600,28.199 21.600 C 27.899 21.600,27.546 21.941,27.413 22.358 C 27.266 22.822,26.650 23.214,25.827 23.369 C 24.239 23.667,23.694 24.230,23.355 25.926 C 23.210 26.650,22.788 27.277,22.352 27.415 C 21.939 27.546,21.600 27.899,21.600 28.199 C 21.600 28.499,21.195 28.802,20.700 28.872 C 19.934 28.981,19.782 29.279,19.679 30.878 L 19.558 32.756 17.879 32.878 C 16.212 32.999,16.199 33.012,16.077 34.700 C 16.009 35.635,15.778 36.400,15.564 36.400 C 14.972 36.400,12.527 38.970,12.230 39.904 C 12.087 40.356,11.716 40.823,11.407 40.942 C 11.097 41.061,10.718 41.842,10.564 42.679 C 10.410 43.516,9.861 44.709,9.342 45.331 C 8.824 45.953,8.400 46.708,8.400 47.010 C 8.400 47.312,7.950 48.044,7.400 48.638 C 6.696 49.397,6.400 50.169,6.400 51.244 C 6.400 52.362,6.186 52.887,5.600 53.200 C 5.160 53.435,4.800 54.015,4.800 54.488 C 4.800 54.961,4.410 55.763,3.934 56.270 C 3.229 57.021,3.037 57.805,2.898 60.496 C 2.735 63.664,2.143 66.000,1.502 66.000 C 1.336 66.000,1.200 66.360,1.200 66.800 C 1.200 67.244,0.933 67.600,0.600 67.600 C 0.068 67.600,0.000 82.578,0.000 200.000 C 0.000 317.422,0.068 332.400,0.600 332.400 C 0.930 332.400,1.200 332.666,1.200 332.990 C 1.200 333.315,1.559 334.170,1.999 334.890 C 2.557 335.807,2.800 336.921,2.808 338.600 C 2.822 341.663,3.374 344.042,4.173 344.489 C 4.518 344.682,4.800 345.189,4.800 345.616 C 4.800 346.044,5.160 346.618,5.600 346.893 C 6.161 347.243,6.400 347.826,6.400 348.840 C 6.400 349.725,6.789 350.861,7.400 351.762 C 7.950 352.572,8.400 353.376,8.400 353.548 C 8.400 353.720,8.850 354.283,9.400 354.800 C 9.996 355.360,10.400 356.183,10.400 356.839 C 10.400 357.444,10.855 358.479,11.410 359.139 C 11.966 359.800,12.612 360.888,12.845 361.557 C 13.138 362.397,13.692 362.926,14.634 363.267 C 15.859 363.710,16.000 363.916,16.000 365.266 C 16.000 366.918,16.752 367.600,18.574 367.600 C 19.496 367.600,19.600 367.755,19.600 369.125 C 19.600 370.751,21.201 372.800,22.471 372.800 C 22.892 372.800,23.181 373.321,23.352 374.387 C 23.625 376.095,24.449 376.800,26.174 376.800 C 26.738 376.800,27.200 377.014,27.200 377.275 C 27.200 378.752,29.009 380.365,30.795 380.482 C 32.576 380.598,32.603 380.621,32.800 382.200 C 32.990 383.724,33.076 383.810,34.600 384.000 C 35.934 384.167,36.295 384.415,36.769 385.493 C 37.179 386.425,37.816 386.969,39.044 387.438 C 39.981 387.796,40.843 388.335,40.958 388.635 C 41.073 388.935,41.974 389.383,42.959 389.631 C 43.944 389.880,45.060 390.424,45.437 390.841 C 45.815 391.259,46.288 391.600,46.489 391.600 C 46.689 391.600,47.443 392.050,48.164 392.600 C 49.069 393.290,49.983 393.600,51.111 393.600 C 52.395 393.600,52.801 393.772,53.000 394.400 C 53.163 394.915,53.605 395.200,54.240 395.200 C 54.782 395.200,55.324 395.457,55.445 395.772 C 55.783 396.654,57.837 397.197,60.960 397.229 C 63.054 397.251,64.115 397.462,65.000 398.034 C 65.660 398.460,66.515 398.918,66.900 399.051 C 67.285 399.184,67.600 399.452,67.600 399.647 C 67.600 399.850,123.654 400.000,200.000 400.000 C 288.000 400.000,332.400 399.866,332.400 399.600 C 332.400 399.380,332.657 399.200,332.971 399.200 C 333.286 399.200,333.788 398.975,334.087 398.700 C 335.369 397.521,336.546 397.200,339.576 397.200 C 342.443 397.200,342.864 397.099,343.764 396.200 C 344.314 395.650,345.210 395.200,345.755 395.200 C 346.395 395.200,346.836 394.916,347.000 394.400 C 347.202 393.762,347.605 393.600,348.985 393.600 C 350.309 393.600,350.938 393.366,351.658 392.607 C 352.176 392.061,352.880 391.611,353.222 391.607 C 353.565 391.603,354.455 391.150,355.200 390.600 C 355.945 390.050,356.972 389.600,357.480 389.600 C 357.989 389.600,358.797 389.150,359.275 388.600 C 359.753 388.050,360.353 387.600,360.607 387.600 C 360.862 387.600,361.774 386.795,362.635 385.811 C 363.943 384.315,364.438 384.020,365.653 384.011 C 367.175 383.999,367.582 383.431,367.595 381.300 C 367.599 380.501,367.802 380.400,369.400 380.400 C 370.851 380.400,371.200 380.264,371.200 379.696 C 371.200 379.309,371.560 378.768,372.000 378.493 C 372.440 378.218,372.800 377.759,372.800 377.473 C 372.800 377.188,373.565 376.784,374.500 376.577 C 376.081 376.226,376.226 376.081,376.577 374.500 C 376.784 373.565,377.188 372.800,377.473 372.800 C 377.759 372.800,378.218 372.440,378.493 372.000 C 378.768 371.560,379.309 371.200,379.696 371.200 C 380.264 371.200,380.400 370.851,380.400 369.400 C 380.400 367.734,380.477 367.600,381.426 367.600 C 383.148 367.600,383.999 366.904,384.011 365.486 C 384.020 364.470,384.397 363.872,385.811 362.635 C 386.795 361.774,387.600 360.843,387.600 360.566 C 387.600 360.288,388.050 359.527,388.600 358.873 C 389.150 358.219,389.600 357.430,389.600 357.120 C 389.600 356.809,390.050 355.945,390.600 355.200 C 391.150 354.455,391.600 353.511,391.600 353.103 C 391.600 352.695,392.050 351.945,392.600 351.435 C 393.382 350.710,393.600 350.115,393.600 348.701 C 393.600 347.230,393.749 346.854,394.400 346.684 C 395.013 346.524,395.200 346.138,395.200 345.037 C 395.200 344.042,395.380 343.600,395.786 343.600 C 396.746 343.600,397.200 342.219,397.200 339.294 C 397.200 337.145,397.421 336.101,398.198 334.568 C 398.747 333.486,399.197 332.375,399.198 332.100 C 399.199 331.825,399.380 331.600,399.600 331.600 C 399.866 331.600,400.000 287.667,400.000 200.600 C 400.000 126.331,399.849 69.600,399.651 69.600 C 399.459 69.600,399.187 68.882,399.047 68.005 C 398.907 67.128,398.434 65.773,397.996 64.993 C 397.441 64.005,397.198 62.822,397.195 61.088 C 397.188 57.923,396.903 56.886,395.957 56.586 C 395.403 56.410,395.200 55.968,395.200 54.936 C 395.200 53.862,395.009 53.475,394.400 53.316 C 393.759 53.148,393.600 52.770,393.600 51.412 C 393.600 50.158,393.340 49.436,392.600 48.638 C 392.050 48.044,391.600 47.191,391.600 46.742 C 391.600 46.272,391.273 45.840,390.829 45.723 C 390.289 45.582,389.973 45.022,389.778 43.861 C 389.624 42.947,389.071 41.691,388.549 41.069 C 388.027 40.447,387.600 39.755,387.600 39.530 C 387.600 39.305,386.804 38.369,385.832 37.451 C 384.520 36.211,384.030 35.422,383.932 34.390 C 383.809 33.097,383.688 32.986,382.200 32.800 C 380.637 32.605,380.597 32.560,380.476 30.881 C 380.378 29.516,380.163 29.090,379.431 28.812 C 378.924 28.619,378.400 28.177,378.267 27.831 C 378.134 27.484,377.749 27.200,377.413 27.200 C 377.042 27.200,376.800 26.840,376.800 26.289 C 376.800 24.873,375.712 23.657,374.189 23.371 C 373.378 23.219,372.800 22.875,372.800 22.543 C 372.800 22.231,372.516 21.866,372.169 21.733 C 371.823 21.600,371.377 21.065,371.179 20.545 C 370.886 19.775,370.532 19.600,369.261 19.600 C 367.759 19.600,367.693 19.543,367.453 18.044 C 367.190 16.394,366.672 16.000,364.767 16.000 C 364.099 16.000,363.600 15.786,363.600 15.499 C 363.600 14.957,361.487 12.807,360.936 12.789 C 360.751 12.783,359.893 12.243,359.029 11.589 C 358.033 10.836,356.980 10.400,356.156 10.400 C 355.206 10.400,354.785 10.184,354.600 9.601 C 354.461 9.161,353.869 8.682,353.285 8.535 C 352.702 8.389,351.770 7.849,351.216 7.335 C 350.488 6.659,349.736 6.400,348.504 6.400 C 347.314 6.400,346.800 6.232,346.800 5.843 C 346.800 5.205,345.951 4.800,344.614 4.800 C 344.055 4.800,343.617 4.510,343.500 4.061 C 343.285 3.237,341.495 2.813,338.200 2.803 C 336.914 2.799,335.732 2.512,334.890 1.999 C 334.170 1.559,332.955 1.200,332.190 1.200 C 331.221 1.200,330.800 1.018,330.800 0.600 C 330.800 0.068,315.956 0.000,199.600 0.000 C 83.244 0.000,68.400 0.068,68.400 0.600 M226.600 57.559 C 232.253 58.431,232.400 58.477,233.239 59.654 C 233.837 60.495,234.393 60.804,235.327 60.815 C 237.510 60.841,246.570 62.711,246.722 63.167 C 246.802 63.405,247.392 63.600,248.033 63.600 C 249.043 63.600,249.200 63.750,249.200 64.715 L 249.200 65.830 253.331 66.264 C 258.084 66.763,259.200 67.210,259.200 68.614 C 259.200 69.442,259.392 69.600,260.394 69.600 C 261.682 69.600,265.026 70.309,265.997 70.789 C 266.325 70.951,266.756 71.650,266.955 72.342 C 267.251 73.373,267.521 73.600,268.454 73.600 C 270.343 73.600,273.516 75.036,275.112 76.613 C 275.940 77.430,277.423 78.396,278.408 78.759 C 280.047 79.362,280.211 79.545,280.324 80.909 C 280.432 82.206,280.580 82.400,281.464 82.400 C 282.022 82.400,283.046 82.660,283.740 82.977 C 284.433 83.294,285.450 83.609,286.000 83.677 C 286.792 83.774,287.025 84.057,287.121 85.036 C 287.231 86.168,287.414 86.312,289.291 86.745 C 291.685 87.298,292.400 87.794,292.400 88.905 C 292.400 89.871,293.475 90.770,294.651 90.787 C 295.666 90.802,296.347 91.542,296.756 93.074 C 296.970 93.872,297.372 94.258,298.138 94.400 C 299.486 94.650,300.794 96.567,300.797 98.300 C 300.800 99.537,300.873 99.600,302.311 99.600 C 304.338 99.600,305.600 100.530,305.600 102.023 C 305.600 102.981,305.769 103.200,306.511 103.200 C 307.926 103.200,309.011 104.192,309.545 105.973 C 309.934 107.273,310.220 107.600,310.967 107.600 C 312.187 107.600,312.768 108.348,313.362 110.687 C 313.758 112.242,314.031 112.626,314.824 112.738 C 316.601 112.990,316.722 113.237,317.457 118.100 C 317.658 119.426,317.815 119.600,318.813 119.600 C 320.148 119.600,321.103 120.443,321.449 121.928 C 321.586 122.518,322.463 123.810,323.397 124.800 C 325.221 126.733,325.968 128.348,326.355 131.200 C 326.564 132.735,326.747 133.020,327.600 133.138 C 329.433 133.392,329.695 133.959,330.260 138.900 C 330.448 140.548,330.598 140.800,331.390 140.800 C 332.860 140.800,333.291 141.773,333.832 146.314 C 334.114 148.671,334.356 150.645,334.372 150.700 C 334.387 150.755,334.850 150.800,335.400 150.800 C 336.207 150.800,336.400 150.998,336.400 151.829 C 336.400 152.394,336.663 153.120,336.984 153.441 C 337.306 153.763,337.668 154.695,337.789 155.513 C 337.910 156.331,338.186 157.762,338.401 158.693 C 338.617 159.624,338.911 161.655,339.055 163.207 C 339.285 165.678,339.454 166.126,340.415 166.810 C 341.543 167.614,341.622 167.863,342.381 173.000 C 343.929 183.489,343.927 216.594,342.377 227.000 C 342.148 228.540,341.864 230.435,341.746 231.212 C 341.593 232.228,341.206 232.812,340.366 233.293 C 339.365 233.868,339.199 234.206,339.193 235.681 C 339.189 236.627,338.919 238.660,338.593 240.200 C 338.267 241.740,338.000 243.367,338.000 243.815 C 338.000 244.264,337.640 245.337,337.200 246.200 C 336.760 247.063,336.400 248.091,336.400 248.485 C 336.400 248.980,336.094 249.200,335.408 249.200 C 334.279 249.200,334.171 249.509,333.797 253.800 C 333.422 258.115,332.974 259.200,331.569 259.200 C 330.489 259.200,330.400 259.312,330.400 260.672 C 330.400 261.481,330.226 262.696,330.014 263.372 C 329.802 264.047,329.538 265.056,329.428 265.613 C 329.285 266.337,328.852 266.737,327.915 267.013 C 326.745 267.357,326.572 267.598,326.339 269.200 C 325.939 271.946,325.314 273.234,323.426 275.200 C 322.476 276.190,321.572 277.539,321.417 278.198 C 321.012 279.923,320.478 280.400,318.951 280.400 C 317.753 280.400,317.600 280.521,317.600 281.472 C 317.600 282.061,317.426 283.096,317.214 283.772 C 317.002 284.447,316.731 285.484,316.613 286.075 C 316.441 286.934,316.142 287.175,315.122 287.275 C 313.966 287.388,313.803 287.577,313.362 289.313 C 312.800 291.527,312.188 292.400,311.200 292.400 C 310.288 292.400,309.664 293.178,309.362 294.692 C 309.122 295.891,308.181 296.638,306.600 296.883 C 306.074 296.964,305.758 297.369,305.677 298.062 C 305.511 299.497,304.376 300.426,302.477 300.680 C 300.981 300.881,300.881 300.981,300.680 302.477 C 300.426 304.376,299.497 305.511,298.062 305.677 C 297.369 305.758,296.964 306.074,296.883 306.600 C 296.638 308.181,295.891 309.122,294.692 309.362 C 293.178 309.664,292.400 310.288,292.400 311.200 C 292.400 312.188,291.527 312.800,289.313 313.362 C 287.577 313.803,287.388 313.966,287.275 315.122 C 287.175 316.142,286.934 316.441,286.075 316.613 C 285.484 316.731,284.447 317.002,283.772 317.214 C 283.096 317.426,282.061 317.600,281.472 317.600 C 280.521 317.600,280.400 317.753,280.400 318.951 C 280.400 320.478,279.923 321.012,278.198 321.417 C 277.539 321.572,276.190 322.476,275.200 323.426 C 273.234 325.314,271.946 325.939,269.200 326.339 C 267.598 326.572,267.357 326.745,267.013 327.915 C 266.737 328.852,266.337 329.285,265.613 329.428 C 265.056 329.538,264.047 329.802,263.372 330.014 C 262.696 330.226,261.481 330.400,260.672 330.400 C 259.312 330.400,259.200 330.489,259.200 331.569 C 259.200 332.974,258.115 333.422,253.800 333.797 C 249.509 334.171,249.200 334.279,249.200 335.408 C 249.200 336.094,248.980 336.400,248.485 336.400 C 248.091 336.400,247.063 336.760,246.200 337.200 C 245.337 337.640,244.264 338.000,243.815 338.000 C 243.367 338.000,241.740 338.267,240.200 338.593 C 238.660 338.919,236.645 339.189,235.723 339.193 C 234.298 339.199,233.942 339.375,233.358 340.364 C 232.861 341.204,232.270 341.588,231.235 341.741 C 230.446 341.857,228.720 342.134,227.400 342.356 C 218.133 343.912,183.482 343.928,173.000 342.381 C 167.863 341.622,167.614 341.543,166.810 340.415 C 166.126 339.454,165.678 339.285,163.207 339.055 C 161.655 338.911,159.624 338.617,158.693 338.401 C 157.762 338.186,156.331 337.910,155.513 337.789 C 154.695 337.668,153.763 337.306,153.441 336.984 C 153.120 336.663,152.394 336.400,151.829 336.400 C 150.998 336.400,150.800 336.207,150.800 335.400 C 150.800 334.850,150.755 334.387,150.700 334.372 C 150.645 334.356,148.671 334.114,146.314 333.832 C 141.773 333.291,140.800 332.860,140.800 331.390 C 140.800 330.598,140.548 330.448,138.900 330.260 C 133.959 329.695,133.392 329.433,133.138 327.600 C 133.017 326.724,132.750 326.569,130.985 326.354 C 128.483 326.049,126.668 325.154,124.600 323.206 C 123.720 322.377,122.518 321.587,121.928 321.449 C 120.443 321.102,119.600 320.148,119.600 318.813 C 119.600 317.815,119.426 317.658,118.100 317.457 C 113.237 316.722,112.990 316.601,112.738 314.824 C 112.626 314.031,112.242 313.758,110.687 313.362 C 108.348 312.768,107.600 312.187,107.600 310.967 C 107.600 310.220,107.273 309.934,105.973 309.545 C 104.192 309.011,103.200 307.926,103.200 306.511 C 103.200 305.769,102.981 305.600,102.023 305.600 C 100.530 305.600,99.600 304.338,99.600 302.311 C 99.600 300.873,99.537 300.800,98.300 300.797 C 96.567 300.794,94.650 299.486,94.400 298.138 C 94.258 297.372,93.872 296.970,93.074 296.756 C 91.542 296.347,90.802 295.666,90.787 294.651 C 90.770 293.475,89.871 292.400,88.905 292.400 C 87.794 292.400,87.298 291.685,86.745 289.291 C 86.312 287.414,86.168 287.231,85.036 287.121 C 84.057 287.025,83.774 286.792,83.677 286.000 C 83.609 285.450,83.294 284.433,82.977 283.740 C 82.660 283.046,82.400 282.022,82.400 281.464 C 82.400 280.580,82.206 280.432,80.909 280.324 C 79.559 280.212,79.359 280.040,78.793 278.500 C 78.448 277.565,77.432 276.035,76.535 275.100 C 74.888 273.386,73.600 270.438,73.600 268.387 C 73.600 267.529,73.350 267.244,72.342 266.955 C 71.650 266.756,70.951 266.325,70.789 265.997 C 70.309 265.026,69.600 261.682,69.600 260.394 C 69.600 259.392,69.442 259.200,68.614 259.200 C 67.210 259.200,66.763 258.084,66.264 253.331 L 65.830 249.200 64.715 249.200 C 63.750 249.200,63.600 249.043,63.600 248.033 C 63.600 247.392,63.415 246.805,63.188 246.729 C 62.722 246.574,61.344 240.273,60.949 236.487 C 60.728 234.363,60.518 233.854,59.598 233.198 C 58.484 232.405,58.408 232.160,57.565 226.600 C 56.296 218.229,56.833 173.044,58.234 170.334 C 58.545 169.732,58.800 168.781,58.800 168.220 C 58.800 167.659,58.935 167.197,59.100 167.194 C 60.062 167.174,60.549 166.149,61.024 163.147 C 62.166 155.928,62.538 154.176,63.059 153.569 C 63.356 153.221,63.600 152.456,63.600 151.869 C 63.600 150.966,63.773 150.800,64.715 150.800 L 65.830 150.800 66.264 146.669 C 66.759 141.961,67.215 140.800,68.572 140.800 C 69.359 140.800,69.551 140.550,69.727 139.300 C 70.554 133.436,70.573 133.391,72.396 133.138 C 73.243 133.021,73.431 132.729,73.649 131.200 C 74.032 128.513,75.016 126.485,76.758 124.794 C 77.617 123.961,78.442 122.720,78.592 122.036 C 78.955 120.383,79.803 119.600,81.229 119.600 C 82.243 119.600,82.400 119.451,82.400 118.489 C 82.400 117.878,82.656 117.012,82.969 116.566 C 83.282 116.119,83.597 115.134,83.669 114.377 C 83.784 113.167,83.949 112.985,85.030 112.880 C 86.150 112.771,86.306 112.575,86.781 110.680 C 87.400 108.212,87.822 107.600,88.905 107.600 C 89.879 107.600,90.770 106.522,90.787 105.323 C 90.802 104.293,92.193 103.200,93.489 103.200 C 94.226 103.200,94.400 102.980,94.400 102.046 C 94.400 100.627,95.659 99.707,97.844 99.527 C 99.338 99.405,99.405 99.338,99.527 97.844 C 99.707 95.659,100.627 94.400,102.046 94.400 C 102.980 94.400,103.200 94.226,103.200 93.489 C 103.200 92.193,104.293 90.802,105.323 90.787 C 106.522 90.770,107.600 89.879,107.600 88.905 C 107.600 87.822,108.212 87.400,110.680 86.781 C 112.575 86.306,112.771 86.150,112.880 85.030 C 112.985 83.949,113.167 83.784,114.377 83.669 C 115.134 83.597,116.119 83.282,116.566 82.969 C 117.012 82.656,117.878 82.400,118.489 82.400 C 119.451 82.400,119.600 82.243,119.600 81.229 C 119.600 79.803,120.383 78.955,122.036 78.592 C 122.720 78.442,123.942 77.636,124.752 76.801 C 126.408 75.095,128.538 74.058,131.200 73.661 C 132.725 73.434,133.021 73.240,133.138 72.396 C 133.338 70.957,133.841 70.508,135.515 70.271 C 140.907 69.509,140.800 69.544,140.800 68.562 C 140.800 67.216,141.972 66.758,146.669 66.264 L 150.800 65.830 150.800 64.715 C 150.800 63.760,150.961 63.600,151.920 63.600 C 152.536 63.600,153.259 63.381,153.526 63.114 C 154.016 62.624,162.874 60.827,164.888 60.809 C 165.626 60.803,166.261 60.414,166.863 59.600 C 167.477 58.770,168.091 58.400,168.856 58.400 C 169.465 58.400,170.376 58.220,170.881 58.000 C 173.384 56.910,219.997 56.542,226.600 57.559 M185.524 147.093 C 183.742 147.234,183.641 147.307,183.524 148.521 L 183.400 149.800 178.921 150.361 C 174.582 150.904,174.438 150.953,174.321 151.946 C 174.185 153.098,170.264 155.600,168.595 155.600 C 167.865 155.600,167.565 155.949,167.138 157.300 C 166.668 158.785,166.428 159.025,165.241 159.200 C 163.819 159.409,163.399 159.881,163.018 161.694 C 162.853 162.477,162.477 162.853,161.694 163.018 C 159.881 163.399,159.409 163.819,159.200 165.241 C 159.025 166.428,158.785 166.668,157.300 167.138 C 155.949 167.565,155.600 167.865,155.600 168.595 C 155.600 170.295,153.098 174.185,151.915 174.324 C 150.924 174.440,150.841 174.613,150.577 177.124 C 149.916 183.399,149.920 183.388,148.553 183.521 C 146.943 183.678,146.806 184.970,146.806 200.000 C 146.806 214.748,146.968 216.400,148.415 216.400 C 149.779 216.400,149.851 216.592,150.435 221.781 L 150.910 226.000 152.011 226.000 C 152.921 226.000,153.256 226.307,153.943 227.769 C 154.400 228.741,154.960 229.652,155.187 229.792 C 155.414 229.932,155.600 230.582,155.600 231.236 C 155.600 232.016,155.841 232.502,156.300 232.650 C 159.014 233.522,159.200 233.676,159.200 235.050 C 159.200 236.317,159.315 236.434,161.014 236.888 C 162.444 237.271,162.876 237.588,163.051 238.387 C 163.564 240.718,163.629 240.800,164.959 240.800 C 166.298 240.800,167.002 241.588,167.283 243.400 C 167.369 243.955,167.773 244.241,168.603 244.335 C 169.262 244.410,170.051 244.680,170.357 244.935 C 170.663 245.191,171.653 245.773,172.557 246.229 C 173.776 246.844,174.233 247.334,174.327 248.129 C 174.396 248.718,174.581 249.200,174.737 249.200 C 175.373 249.200,181.862 250.022,182.675 250.205 C 183.317 250.350,183.583 250.748,183.675 251.701 L 183.800 253.000 191.900 253.279 C 196.355 253.433,203.645 253.433,208.100 253.279 L 216.200 253.000 216.338 252.000 C 216.558 250.409,217.055 250.107,219.911 249.829 C 225.927 249.242,226.000 249.220,226.000 248.003 C 226.000 247.127,226.271 246.790,227.300 246.383 C 228.015 246.100,228.908 245.607,229.284 245.287 C 229.660 244.967,230.548 244.587,231.258 244.442 C 232.228 244.243,232.622 243.901,232.846 243.063 C 233.280 241.441,233.952 240.800,235.216 240.800 C 236.172 240.800,236.414 240.559,236.892 239.125 C 237.369 237.692,237.692 237.369,239.125 236.892 C 240.559 236.414,240.800 236.172,240.800 235.216 C 240.800 233.949,241.441 233.280,243.074 232.843 C 243.742 232.665,244.247 232.229,244.315 231.771 C 244.632 229.652,246.996 226.007,248.055 226.003 C 249.211 226.000,249.247 225.876,249.829 219.911 C 250.107 217.055,250.409 216.558,252.000 216.338 L 253.000 216.200 253.295 208.246 C 253.458 203.872,253.458 196.582,253.295 192.046 L 253.000 183.800 251.801 183.664 C 250.273 183.490,250.133 183.235,249.828 180.042 C 249.321 174.745,249.234 174.459,248.098 174.324 C 247.339 174.233,246.834 173.756,246.229 172.557 C 245.773 171.653,245.191 170.663,244.935 170.357 C 244.680 170.051,244.410 169.262,244.335 168.603 C 244.241 167.773,243.955 167.369,243.400 167.283 C 241.578 167.000,240.800 166.299,240.800 164.940 C 240.800 163.821,240.629 163.577,239.700 163.370 C 239.095 163.236,238.322 163.052,237.983 162.962 C 237.643 162.872,237.149 161.989,236.884 160.999 C 236.434 159.316,236.316 159.200,235.050 159.200 C 233.676 159.200,233.522 159.014,232.650 156.300 C 232.506 155.851,232.019 155.600,231.293 155.600 C 230.670 155.600,229.948 155.388,229.689 155.129 C 229.429 154.869,228.448 154.271,227.509 153.800 C 226.267 153.177,225.767 152.665,225.679 151.930 C 225.563 150.961,225.390 150.898,221.540 150.432 C 216.558 149.828,216.400 149.766,216.400 148.415 C 216.400 147.350,216.317 147.308,213.700 147.061 C 210.936 146.800,188.904 146.825,185.524 147.093 M206.163 159.003 C 211.537 159.708,212.638 160.058,212.993 161.177 C 213.188 161.793,213.593 162.000,214.603 162.000 C 215.346 162.000,216.064 162.180,216.200 162.400 C 216.336 162.620,217.117 162.800,217.935 162.800 C 219.805 162.800,221.200 163.746,221.200 165.015 C 221.200 165.745,221.472 166.047,222.300 166.237 C 225.492 166.967,226.601 167.524,226.723 168.457 C 226.802 169.060,227.307 169.617,228.123 170.000 C 228.825 170.330,229.670 171.175,230.000 171.877 C 230.398 172.724,230.933 173.195,231.589 173.277 C 232.438 173.383,232.696 173.796,233.414 176.200 C 234.125 178.580,234.397 179.020,235.225 179.134 C 236.592 179.322,236.871 179.695,237.280 181.880 C 237.477 182.936,237.765 184.482,237.919 185.315 C 238.113 186.363,238.505 186.982,239.189 187.321 C 242.153 188.793,242.151 211.033,239.186 212.734 C 238.392 213.190,238.007 213.786,237.859 214.788 C 237.086 220.047,236.608 221.200,235.201 221.200 C 234.313 221.200,234.035 221.424,233.834 222.300 C 232.914 226.304,232.659 226.800,231.513 226.800 C 230.733 226.800,230.400 227.003,230.400 227.478 C 230.400 228.394,228.426 230.400,227.525 230.400 C 226.999 230.400,226.800 230.705,226.800 231.513 C 226.800 232.659,226.304 232.914,222.300 233.834 C 221.424 234.035,221.200 234.313,221.200 235.201 C 221.200 236.608,220.047 237.086,214.788 237.859 C 213.786 238.007,213.190 238.392,212.734 239.186 C 211.033 242.151,188.793 242.153,187.321 239.189 C 186.982 238.505,186.363 238.113,185.315 237.919 C 179.178 236.782,179.358 236.861,179.134 235.225 C 179.020 234.397,178.580 234.125,176.200 233.414 C 173.796 232.696,173.383 232.438,173.277 231.589 C 173.195 230.933,172.724 230.398,171.877 230.000 C 171.175 229.670,170.330 228.825,170.000 228.123 C 169.617 227.307,169.060 226.802,168.457 226.723 C 167.524 226.601,166.967 225.492,166.237 222.300 C 166.047 221.472,165.745 221.200,165.015 221.200 C 163.746 221.200,162.800 219.805,162.800 217.935 C 162.800 217.117,162.620 216.336,162.400 216.200 C 162.180 216.064,162.000 215.362,162.000 214.641 C 162.000 213.643,161.769 213.223,161.039 212.890 C 157.841 211.433,157.784 188.738,160.974 187.285 C 161.895 186.865,162.029 186.476,162.625 182.500 C 162.982 180.116,163.593 179.200,164.825 179.200 C 165.902 179.200,166.400 178.594,166.400 177.281 C 166.400 175.601,167.710 173.200,168.627 173.200 C 169.209 173.200,169.644 172.892,169.813 172.361 C 170.153 171.286,171.286 170.153,172.361 169.813 C 172.892 169.644,173.200 169.209,173.200 168.627 C 173.200 167.710,175.601 166.400,177.281 166.400 C 178.594 166.400,179.200 165.902,179.200 164.825 C 179.200 163.593,180.116 162.982,182.500 162.625 C 186.480 162.028,186.865 161.895,187.287 160.969 C 188.207 158.949,197.983 157.931,206.163 159.003 " stroke="none" fill="#3c83d3" fill-rule="evenodd"></path><path id="path2" d="M177.200 57.234 C 174.230 57.435,171.387 57.780,170.881 58.000 C 170.376 58.220,169.465 58.400,168.856 58.400 C 168.091 58.400,167.477 58.770,166.863 59.600 C 166.261 60.414,165.626 60.803,164.888 60.809 C 162.874 60.827,154.016 62.624,153.526 63.114 C 153.259 63.381,152.536 63.600,151.920 63.600 C 150.961 63.600,150.800 63.760,150.800 64.715 L 150.800 65.830 146.669 66.264 C 141.972 66.758,140.800 67.216,140.800 68.562 C 140.800 69.544,140.907 69.509,135.515 70.271 C 133.841 70.508,133.338 70.957,133.138 72.396 C 133.021 73.240,132.725 73.434,131.200 73.661 C 128.538 74.058,126.408 75.095,124.752 76.801 C 123.942 77.636,122.720 78.442,122.036 78.592 C 120.383 78.955,119.600 79.803,119.600 81.229 C 119.600 82.243,119.451 82.400,118.489 82.400 C 117.878 82.400,117.012 82.656,116.566 82.969 C 116.119 83.282,115.134 83.597,114.377 83.669 C 113.167 83.784,112.985 83.949,112.880 85.030 C 112.771 86.150,112.575 86.306,110.680 86.781 C 108.212 87.400,107.600 87.822,107.600 88.905 C 107.600 89.879,106.522 90.770,105.323 90.787 C 104.293 90.802,103.200 92.193,103.200 93.489 C 103.200 94.226,102.980 94.400,102.046 94.400 C 100.627 94.400,99.707 95.659,99.527 97.844 C 99.405 99.338,99.338 99.405,97.844 99.527 C 95.659 99.707,94.400 100.627,94.400 102.046 C 94.400 102.980,94.226 103.200,93.489 103.200 C 92.193 103.200,90.802 104.293,90.787 105.323 C 90.770 106.522,89.879 107.600,88.905 107.600 C 87.822 107.600,87.400 108.212,86.781 110.680 C 86.306 112.575,86.150 112.771,85.030 112.880 C 83.949 112.985,83.784 113.167,83.669 114.377 C 83.597 115.134,83.282 116.119,82.969 116.566 C 82.656 117.012,82.400 117.878,82.400 118.489 C 82.400 119.451,82.243 119.600,81.229 119.600 C 79.803 119.600,78.955 120.383,78.592 122.036 C 78.442 122.720,77.617 123.961,76.758 124.794 C 75.016 126.485,74.032 128.513,73.649 131.200 C 73.431 132.729,73.243 133.021,72.396 133.138 C 70.573 133.391,70.554 133.436,69.727 139.300 C 69.551 140.550,69.359 140.800,68.572 140.800 C 67.215 140.800,66.759 141.961,66.264 146.669 L 65.830 150.800 64.715 150.800 C 63.773 150.800,63.600 150.966,63.600 151.869 C 63.600 152.456,63.356 153.221,63.059 153.569 C 62.538 154.176,62.166 155.928,61.024 163.147 C 60.549 166.149,60.062 167.174,59.100 167.194 C 58.935 167.197,58.800 167.659,58.800 168.220 C 58.800 168.781,58.545 169.732,58.234 170.334 C 56.833 173.044,56.296 218.229,57.565 226.600 C 58.408 232.160,58.484 232.405,59.598 233.198 C 60.518 233.854,60.728 234.363,60.949 236.487 C 61.344 240.273,62.722 246.574,63.188 246.729 C 63.415 246.805,63.600 247.392,63.600 248.033 C 63.600 249.043,63.750 249.200,64.715 249.200 L 65.830 249.200 66.264 253.331 C 66.763 258.084,67.210 259.200,68.614 259.200 C 69.442 259.200,69.600 259.392,69.600 260.394 C 69.600 261.682,70.309 265.026,70.789 265.997 C 70.951 266.325,71.650 266.756,72.342 266.955 C 73.350 267.244,73.600 267.529,73.600 268.387 C 73.600 270.438,74.888 273.386,76.535 275.100 C 77.432 276.035,78.448 277.565,78.793 278.500 C 79.359 280.040,79.559 280.212,80.909 280.324 C 82.206 280.432,82.400 280.580,82.400 281.464 C 82.400 282.022,82.660 283.046,82.977 283.740 C 83.294 284.433,83.609 285.450,83.677 286.000 C 83.774 286.792,84.057 287.025,85.036 287.121 C 86.168 287.231,86.312 287.414,86.745 289.291 C 87.298 291.685,87.794 292.400,88.905 292.400 C 89.871 292.400,90.770 293.475,90.787 294.651 C 90.802 295.666,91.542 296.347,93.074 296.756 C 93.872 296.970,94.258 297.372,94.400 298.138 C 94.650 299.486,96.567 300.794,98.300 300.797 C 99.537 300.800,99.600 300.873,99.600 302.311 C 99.600 304.338,100.530 305.600,102.023 305.600 C 102.981 305.600,103.200 305.769,103.200 306.511 C 103.200 307.926,104.192 309.011,105.973 309.545 C 107.273 309.934,107.600 310.220,107.600 310.967 C 107.600 312.187,108.348 312.768,110.687 313.362 C 112.242 313.758,112.626 314.031,112.738 314.824 C 112.990 316.601,113.237 316.722,118.100 317.457 C 119.426 317.658,119.600 317.815,119.600 318.813 C 119.600 320.148,120.443 321.102,121.928 321.449 C 122.518 321.587,123.720 322.377,124.600 323.206 C 126.668 325.154,128.483 326.049,130.985 326.354 C 132.750 326.569,133.017 326.724,133.138 327.600 C 133.392 329.433,133.959 329.695,138.900 330.260 C 140.548 330.448,140.800 330.598,140.800 331.390 C 140.800 332.860,141.773 333.291,146.314 333.832 C 148.671 334.114,150.645 334.356,150.700 334.372 C 150.755 334.387,150.800 334.850,150.800 335.400 C 150.800 336.207,150.998 336.400,151.829 336.400 C 152.394 336.400,153.120 336.663,153.441 336.984 C 153.763 337.306,154.695 337.668,155.513 337.789 C 156.331 337.910,157.762 338.186,158.693 338.401 C 159.624 338.617,161.655 338.911,163.207 339.055 C 165.678 339.285,166.126 339.454,166.810 340.415 C 167.614 341.543,167.863 341.622,173.000 342.381 C 183.482 343.928,218.133 343.912,227.400 342.356 C 228.720 342.134,230.446 341.857,231.235 341.741 C 232.270 341.588,232.861 341.204,233.358 340.364 C 233.942 339.375,234.298 339.199,235.723 339.193 C 236.645 339.189,238.660 338.919,240.200 338.593 C 241.740 338.267,243.367 338.000,243.815 338.000 C 244.264 338.000,245.337 337.640,246.200 337.200 C 247.063 336.760,248.091 336.400,248.485 336.400 C 248.980 336.400,249.200 336.094,249.200 335.408 C 249.200 334.279,249.509 334.171,253.800 333.797 C 258.115 333.422,259.200 332.974,259.200 331.569 C 259.200 330.489,259.312 330.400,260.672 330.400 C 261.481 330.400,262.696 330.226,263.372 330.014 C 264.047 329.802,265.056 329.538,265.613 329.428 C 266.337 329.285,266.737 328.852,267.013 327.915 C 267.357 326.745,267.598 326.572,269.200 326.339 C 271.946 325.939,273.234 325.314,275.200 323.426 C 276.190 322.476,277.539 321.572,278.198 321.417 C 279.923 321.012,280.400 320.478,280.400 318.951 C 280.400 317.753,280.521 317.600,281.472 317.600 C 282.061 317.600,283.096 317.426,283.772 317.214 C 284.447 317.002,285.484 316.731,286.075 316.613 C 286.934 316.441,287.175 316.142,287.275 315.122 C 287.388 313.966,287.577 313.803,289.313 313.362 C 291.527 312.800,292.400 312.188,292.400 311.200 C 292.400 310.288,293.178 309.664,294.692 309.362 C 295.891 309.122,296.638 308.181,296.883 306.600 C 296.964 306.074,297.369 305.758,298.062 305.677 C 299.497 305.511,300.426 304.376,300.680 302.477 C 300.881 300.981,300.981 300.881,302.477 300.680 C 304.376 300.426,305.511 299.497,305.677 298.062 C 305.758 297.369,306.074 296.964,306.600 296.883 C 308.181 296.638,309.122 295.891,309.362 294.692 C 309.664 293.178,310.288 292.400,311.200 292.400 C 312.188 292.400,312.800 291.527,313.362 289.313 C 313.803 287.577,313.966 287.388,315.122 287.275 C 316.142 287.175,316.441 286.934,316.613 286.075 C 316.731 285.484,317.002 284.447,317.214 283.772 C 317.426 283.096,317.600 282.061,317.600 281.472 C 317.600 280.521,317.753 280.400,318.951 280.400 C 320.478 280.400,321.012 279.923,321.417 278.198 C 321.572 277.539,322.476 276.190,323.426 275.200 C 325.314 273.234,325.939 271.946,326.339 269.200 C 326.572 267.598,326.745 267.357,327.915 267.013 C 328.852 266.737,329.285 266.337,329.428 265.613 C 329.538 265.056,329.802 264.047,330.014 263.372 C 330.226 262.696,330.400 261.481,330.400 260.672 C 330.400 259.312,330.489 259.200,331.569 259.200 C 332.974 259.200,333.422 258.115,333.797 253.800 C 334.171 249.509,334.279 249.200,335.408 249.200 C 336.094 249.200,336.400 248.980,336.400 248.485 C 336.400 248.091,336.760 247.063,337.200 246.200 C 337.640 245.337,338.000 244.264,338.000 243.815 C 338.000 243.367,338.267 241.740,338.593 240.200 C 338.919 238.660,339.189 236.627,339.193 235.681 C 339.199 234.206,339.365 233.868,340.366 233.293 C 341.206 232.812,341.593 232.228,341.746 231.212 C 341.864 230.435,342.148 228.540,342.377 227.000 C 343.927 216.594,343.929 183.489,342.381 173.000 C 341.622 167.863,341.543 167.614,340.415 166.810 C 339.454 166.126,339.285 165.678,339.055 163.207 C 338.911 161.655,338.617 159.624,338.401 158.693 C 338.186 157.762,337.910 156.331,337.789 155.513 C 337.668 154.695,337.306 153.763,336.984 153.441 C 336.663 153.120,336.400 152.394,336.400 151.829 C 336.400 150.998,336.207 150.800,335.400 150.800 C 334.850 150.800,334.387 150.755,334.372 150.700 C 334.356 150.645,334.114 148.671,333.832 146.314 C 333.291 141.773,332.860 140.800,331.390 140.800 C 330.598 140.800,330.448 140.548,330.260 138.900 C 329.695 133.959,329.433 133.392,327.600 133.138 C 326.747 133.020,326.564 132.735,326.355 131.200 C 325.968 128.348,325.221 126.733,323.397 124.800 C 322.463 123.810,321.586 122.518,321.449 121.928 C 321.103 120.443,320.148 119.600,318.813 119.600 C 317.815 119.600,317.658 119.426,317.457 118.100 C 316.722 113.237,316.601 112.990,314.824 112.738 C 314.031 112.626,313.758 112.242,313.362 110.687 C 312.768 108.348,312.187 107.600,310.967 107.600 C 310.220 107.600,309.934 107.273,309.545 105.973 C 309.011 104.192,307.926 103.200,306.511 103.200 C 305.769 103.200,305.600 102.981,305.600 102.023 C 305.600 100.530,304.338 99.600,302.311 99.600 C 300.873 99.600,300.800 99.537,300.797 98.300 C 300.794 96.567,299.486 94.650,298.138 94.400 C 297.372 94.258,296.970 93.872,296.756 93.074 C 296.347 91.542,295.666 90.802,294.651 90.787 C 293.475 90.770,292.400 89.871,292.400 88.905 C 292.400 87.794,291.685 87.298,289.291 86.745 C 287.414 86.312,287.231 86.168,287.121 85.036 C 287.025 84.057,286.792 83.774,286.000 83.677 C 285.450 83.609,284.433 83.294,283.740 82.977 C 283.046 82.660,282.022 82.400,281.464 82.400 C 280.580 82.400,280.432 82.206,280.324 80.909 C 280.211 79.545,280.047 79.362,278.408 78.759 C 277.423 78.396,275.940 77.430,275.112 76.613 C 273.516 75.036,270.343 73.600,268.454 73.600 C 267.521 73.600,267.251 73.373,266.955 72.342 C 266.756 71.650,266.325 70.951,265.997 70.789 C 265.026 70.309,261.682 69.600,260.394 69.600 C 259.392 69.600,259.200 69.442,259.200 68.614 C 259.200 67.210,258.084 66.763,253.331 66.264 L 249.200 65.830 249.200 64.715 C 249.200 63.750,249.043 63.600,248.033 63.600 C 247.392 63.600,246.802 63.405,246.722 63.167 C 246.570 62.711,237.510 60.841,235.327 60.815 C 234.393 60.804,233.837 60.495,233.239 59.654 C 232.400 58.477,232.253 58.431,226.600 57.559 C 223.270 57.046,183.803 56.786,177.200 57.234 M211.600 59.227 C 219.720 59.809,220.311 59.921,223.400 61.479 C 224.103 61.833,227.664 62.401,232.000 62.850 C 240.624 63.742,240.400 63.686,240.400 64.956 C 240.400 66.093,240.264 66.054,247.700 67.051 C 252.615 67.710,252.800 67.769,252.800 68.688 C 252.800 69.753,254.706 70.793,256.687 70.809 C 258.281 70.821,261.219 72.250,262.477 73.623 C 263.150 74.358,263.953 74.800,264.614 74.800 C 265.197 74.800,266.131 75.160,266.691 75.600 C 267.250 76.040,268.116 76.400,268.614 76.400 C 269.226 76.400,269.789 76.855,270.347 77.800 C 270.856 78.663,271.482 79.200,271.978 79.200 C 273.737 79.200,275.949 80.432,276.077 81.482 C 276.203 82.521,279.583 83.979,281.900 83.994 C 282.607 83.999,282.800 84.229,282.800 85.069 C 282.800 86.462,283.858 87.598,285.162 87.606 C 286.571 87.614,287.086 88.007,287.417 89.325 C 287.619 90.129,288.189 90.673,289.451 91.266 C 291.081 92.032,293.200 94.027,293.200 94.795 C 293.200 94.979,294.010 95.521,295.000 96.000 C 296.522 96.737,296.800 97.052,296.800 98.036 C 296.800 99.032,296.955 99.200,297.874 99.200 C 299.317 99.200,300.800 100.654,300.800 102.070 C 300.800 103.024,300.964 103.200,301.853 103.200 C 302.910 103.200,304.400 104.495,304.400 105.413 C 304.400 105.683,305.234 106.587,306.254 107.423 C 307.292 108.274,308.438 109.689,308.860 110.642 C 309.429 111.930,309.941 112.451,310.970 112.790 C 312.388 113.258,312.800 113.842,312.800 115.384 C 312.800 116.530,313.455 117.090,315.000 117.265 C 316.053 117.383,316.234 117.596,316.480 119.000 C 317.282 123.585,317.365 123.795,318.440 123.920 C 319.582 124.054,320.800 126.071,320.800 127.827 C 320.800 128.546,321.194 129.059,322.200 129.653 C 323.145 130.211,323.600 130.774,323.600 131.386 C 323.600 131.884,323.960 132.750,324.400 133.309 C 324.840 133.869,325.200 134.803,325.200 135.386 C 325.200 136.042,325.643 136.855,326.364 137.523 C 327.902 138.947,329.058 141.337,329.401 143.800 C 329.764 146.411,330.221 147.200,331.370 147.200 C 332.438 147.200,332.442 147.213,333.374 154.685 C 334.009 159.771,334.096 160.000,335.380 160.000 C 336.466 160.000,336.606 160.564,337.163 167.200 C 337.610 172.512,338.014 175.290,338.416 175.800 C 342.232 180.637,342.232 219.363,338.416 224.200 C 338.016 224.707,337.613 227.461,337.158 232.800 C 336.540 240.038,336.453 240.400,335.348 240.400 C 334.122 240.400,333.792 241.264,333.442 245.400 C 333.006 250.545,332.377 252.800,331.377 252.800 C 330.330 252.800,329.750 253.914,329.221 256.944 C 328.782 259.454,327.869 261.232,326.225 262.777 C 325.596 263.368,325.200 264.174,325.200 264.865 C 325.200 265.484,324.885 266.356,324.500 266.803 C 324.115 267.249,323.710 268.092,323.600 268.675 C 323.479 269.315,322.924 269.999,322.200 270.398 C 321.467 270.803,320.955 271.438,320.885 272.030 C 320.640 274.098,319.520 276.000,318.547 276.000 C 317.854 276.000,317.555 276.282,317.380 277.100 C 317.251 277.705,316.977 278.613,316.772 279.119 C 316.568 279.624,316.400 280.659,316.400 281.419 C 316.400 282.666,316.291 282.800,315.276 282.800 C 313.690 282.800,312.864 283.576,312.722 285.200 C 312.617 286.405,312.372 286.703,310.966 287.339 C 309.835 287.851,309.187 288.465,308.858 289.339 C 308.301 290.820,307.387 291.961,306.000 292.907 C 305.450 293.282,304.640 294.266,304.199 295.094 C 303.561 296.295,303.135 296.625,302.099 296.725 C 300.996 296.832,300.800 297.009,300.800 297.900 C 300.800 299.306,299.335 300.800,297.956 300.800 C 297.001 300.800,296.834 300.977,296.725 302.100 C 296.624 303.154,296.313 303.540,295.082 304.142 C 294.247 304.549,293.257 305.359,292.882 305.942 C 291.958 307.376,290.847 308.291,289.339 308.858 C 288.465 309.187,287.851 309.835,287.339 310.966 C 286.703 312.372,286.405 312.617,285.200 312.722 C 283.576 312.864,282.800 313.690,282.800 315.276 C 282.800 316.291,282.666 316.400,281.419 316.400 C 280.659 316.400,279.624 316.568,279.119 316.772 C 278.613 316.977,277.705 317.251,277.100 317.380 C 276.282 317.555,276.000 317.854,276.000 318.547 C 276.000 319.520,274.098 320.640,272.030 320.885 C 271.437 320.955,270.804 321.466,270.400 322.200 C 270.012 322.904,269.344 323.458,268.783 323.539 C 268.257 323.616,267.391 324.021,266.859 324.439 C 266.327 324.858,265.408 325.200,264.816 325.200 C 264.178 325.200,263.347 325.618,262.777 326.225 C 261.232 327.869,259.454 328.782,256.944 329.221 C 253.914 329.750,252.800 330.330,252.800 331.377 C 252.800 332.377,250.545 333.006,245.400 333.442 C 241.264 333.792,240.400 334.122,240.400 335.348 C 240.400 336.456,240.032 336.543,232.725 337.160 C 227.163 337.630,225.264 337.933,223.800 338.583 C 223.140 338.876,222.150 339.320,221.600 339.569 C 215.422 342.367,179.705 341.466,175.800 338.414 C 175.289 338.014,172.499 337.608,167.200 337.163 C 160.564 336.606,160.000 336.466,160.000 335.380 C 160.000 334.100,159.803 334.026,154.698 333.387 C 147.256 332.456,147.200 332.441,147.200 331.370 C 147.200 330.224,146.418 329.768,143.800 329.390 C 141.022 328.989,139.530 328.309,137.757 326.637 C 136.886 325.816,135.825 325.200,135.280 325.200 C 134.755 325.200,133.869 324.840,133.309 324.400 C 132.750 323.960,131.884 323.600,131.386 323.600 C 130.774 323.600,130.211 323.145,129.653 322.200 C 129.059 321.194,128.546 320.800,127.827 320.800 C 126.071 320.800,124.054 319.582,123.920 318.440 C 123.795 317.365,123.585 317.282,119.000 316.480 C 117.596 316.234,117.383 316.053,117.265 315.000 C 117.090 313.455,116.530 312.800,115.384 312.800 C 113.842 312.800,113.258 312.388,112.790 310.970 C 112.452 309.944,111.930 309.429,110.658 308.867 C 109.110 308.182,106.800 305.992,106.800 305.208 C 106.800 305.027,106.255 304.688,105.588 304.456 C 103.949 303.884,103.200 303.060,103.200 301.829 C 103.200 300.979,103.013 300.800,102.126 300.800 C 100.683 300.800,99.200 299.346,99.200 297.930 C 99.200 296.983,99.034 296.800,98.171 296.800 C 96.976 296.800,96.146 296.088,95.781 294.748 C 95.639 294.227,94.775 293.259,93.861 292.597 C 92.948 291.935,91.792 290.585,91.293 289.597 C 90.698 288.417,90.011 287.676,89.293 287.440 C 87.986 287.010,87.614 286.523,87.606 285.231 C 87.598 283.888,86.493 282.800,85.138 282.800 C 84.226 282.800,83.999 282.621,83.994 281.900 C 83.979 279.583,82.521 276.203,81.482 276.077 C 80.432 275.949,79.200 273.737,79.200 271.978 C 79.200 271.482,78.663 270.856,77.800 270.347 C 76.855 269.789,76.400 269.226,76.400 268.614 C 76.400 268.116,76.040 267.250,75.600 266.691 C 75.160 266.131,74.800 265.205,74.800 264.633 C 74.800 264.061,74.421 263.279,73.959 262.896 C 72.441 261.641,71.234 259.300,70.839 256.851 C 70.347 253.792,69.811 252.800,68.653 252.800 C 67.779 252.800,67.702 252.554,67.051 247.700 C 66.059 240.300,66.087 240.400,64.992 240.400 C 63.683 240.400,63.725 240.558,62.978 232.777 C 62.514 227.943,62.077 225.301,61.554 224.174 C 61.139 223.279,60.800 222.280,60.800 221.954 C 60.800 221.627,60.637 221.189,60.439 220.980 C 58.541 218.984,58.541 181.016,60.439 179.020 C 60.637 178.811,60.800 178.285,60.800 177.851 C 60.800 177.418,61.084 176.750,61.430 176.366 C 61.963 175.778,63.526 164.431,63.588 160.700 C 63.597 160.198,63.926 160.000,64.755 160.000 C 66.078 160.000,65.946 160.445,67.046 152.300 C 67.702 147.440,67.778 147.200,68.657 147.200 C 69.785 147.200,70.800 145.438,70.800 143.479 C 70.800 141.853,72.452 138.589,73.819 137.513 C 74.503 136.975,74.800 136.346,74.800 135.433 C 74.800 134.632,75.110 133.843,75.600 133.400 C 76.049 132.993,76.400 132.168,76.400 131.518 C 76.400 130.572,76.657 130.252,77.800 129.774 C 78.799 129.357,79.200 128.937,79.200 128.308 C 79.200 126.426,80.442 124.050,81.494 123.922 C 82.520 123.797,83.979 120.401,83.994 118.100 C 83.999 117.379,84.226 117.200,85.138 117.200 C 86.523 117.200,87.488 116.208,87.667 114.601 C 87.770 113.670,88.129 113.247,89.269 112.712 C 90.079 112.332,90.866 111.613,91.023 111.111 C 91.428 109.810,93.497 107.287,94.390 107.003 C 94.806 106.871,95.535 105.961,96.009 104.982 C 96.737 103.478,97.053 103.200,98.036 103.200 C 99.024 103.200,99.200 103.042,99.200 102.156 C 99.200 100.763,100.722 99.216,102.100 99.207 C 103.046 99.201,103.200 99.038,103.200 98.036 C 103.200 97.058,103.478 96.737,104.935 96.032 C 105.889 95.570,106.911 94.741,107.206 94.189 C 107.824 93.033,109.784 91.447,111.111 91.027 C 111.612 90.869,112.333 90.078,112.712 89.269 C 113.247 88.129,113.670 87.770,114.601 87.667 C 116.208 87.488,117.200 86.523,117.200 85.138 C 117.200 84.226,117.379 83.999,118.100 83.994 C 120.401 83.979,123.797 82.520,123.922 81.494 C 124.050 80.442,126.426 79.200,128.308 79.200 C 128.937 79.200,129.357 78.799,129.774 77.800 C 130.252 76.657,130.572 76.400,131.518 76.400 C 132.168 76.400,132.993 76.049,133.400 75.600 C 133.843 75.110,134.632 74.800,135.433 74.800 C 136.346 74.800,136.975 74.503,137.513 73.819 C 138.589 72.452,141.853 70.800,143.479 70.800 C 145.438 70.800,147.200 69.785,147.200 68.657 C 147.200 67.778,147.440 67.702,152.300 67.046 C 160.288 65.967,160.000 66.046,160.000 64.943 C 160.000 63.677,159.854 63.715,168.200 62.839 C 172.364 62.402,175.906 61.829,176.600 61.479 C 178.748 60.396,179.768 60.063,181.800 59.779 C 187.927 58.923,203.361 58.638,211.600 59.227 M195.400 142.622 C 194.960 142.724,193.610 143.006,192.400 143.248 C 191.190 143.490,189.300 144.102,188.200 144.609 C 187.100 145.115,184.760 145.712,183.000 145.934 C 177.924 146.575,177.021 146.881,176.860 148.015 C 176.680 149.278,176.346 149.465,173.665 149.800 C 170.264 150.224,169.600 150.582,169.600 151.990 C 169.600 153.040,169.455 153.202,168.500 153.213 C 167.895 153.220,167.051 153.490,166.624 153.813 C 166.196 154.136,165.425 154.400,164.909 154.400 C 164.187 154.400,163.804 154.791,163.242 156.100 C 162.682 157.405,162.132 157.967,160.876 158.520 C 159.659 159.056,159.059 159.650,158.535 160.839 C 158.001 162.048,157.411 162.623,156.115 163.197 C 154.792 163.782,154.400 164.171,154.400 164.901 C 154.400 165.421,154.136 166.196,153.813 166.624 C 153.490 167.051,153.220 167.895,153.213 168.500 C 153.202 169.448,153.037 169.600,152.024 169.600 C 150.551 169.600,150.452 169.771,149.862 173.307 C 149.410 176.018,149.311 176.208,148.291 176.326 C 147.482 176.420,147.142 176.729,146.968 177.526 C 146.840 178.117,146.580 179.050,146.391 179.600 C 146.202 180.150,145.928 181.950,145.781 183.600 C 145.635 185.250,145.282 186.870,144.997 187.200 C 141.832 190.871,141.782 208.918,144.927 212.748 C 145.175 213.049,145.594 214.939,145.860 216.948 C 146.604 222.565,146.869 223.377,148.015 223.540 C 149.284 223.721,149.510 224.126,149.833 226.797 C 150.192 229.757,150.581 230.400,152.014 230.400 C 153.047 230.400,153.200 230.545,153.200 231.524 C 153.200 232.141,153.464 232.996,153.787 233.424 C 154.110 233.851,154.380 234.655,154.387 235.210 C 154.397 236.000,154.767 236.393,156.084 237.010 C 157.205 237.536,158.053 238.321,158.621 239.361 C 159.123 240.278,160.037 241.185,160.838 241.561 C 161.741 241.984,162.470 242.768,163.000 243.886 C 163.618 245.187,164.028 245.576,164.800 245.594 C 165.350 245.607,166.250 245.970,166.800 246.400 C 167.350 246.830,168.205 247.186,168.700 247.191 C 169.388 247.198,169.600 247.433,169.600 248.186 C 169.600 249.432,170.297 249.789,173.900 250.389 C 176.725 250.860,176.800 250.902,176.800 252.036 C 176.800 252.859,176.997 253.200,177.472 253.200 C 177.841 253.200,178.696 253.370,179.372 253.578 C 180.047 253.786,181.950 254.166,183.600 254.424 C 185.250 254.681,187.140 255.120,187.800 255.398 C 192.105 257.214,193.273 257.400,200.200 257.376 C 206.905 257.353,210.728 256.695,212.563 255.249 C 212.969 254.929,214.671 254.618,218.600 254.147 C 219.480 254.041,220.560 253.794,221.000 253.598 C 221.440 253.402,222.160 253.185,222.600 253.117 C 223.129 253.035,223.442 252.631,223.524 251.923 C 223.653 250.810,223.739 250.770,227.400 250.161 C 229.685 249.781,230.400 249.310,230.400 248.186 C 230.400 247.416,230.607 247.200,231.346 247.200 C 231.866 247.200,232.750 246.840,233.309 246.400 C 233.869 245.960,234.765 245.600,235.302 245.600 C 236.071 245.600,236.413 245.258,236.910 243.992 C 237.365 242.834,237.917 242.227,238.879 241.825 C 240.374 241.200,241.220 240.329,241.914 238.700 C 242.213 237.997,242.963 237.368,243.991 236.957 C 245.265 236.447,245.600 236.106,245.600 235.320 C 245.600 234.773,245.960 233.869,246.400 233.309 C 246.840 232.750,247.200 231.866,247.200 231.346 C 247.200 230.607,247.416 230.400,248.186 230.400 C 249.310 230.400,249.781 229.685,250.161 227.400 C 250.770 223.739,250.810 223.653,251.923 223.524 C 252.631 223.442,253.035 223.129,253.117 222.600 C 253.185 222.160,253.399 221.440,253.591 221.000 C 253.784 220.560,254.043 219.390,254.168 218.400 C 254.591 215.026,254.877 213.801,255.613 212.200 C 258.230 206.507,258.251 193.820,255.652 188.246 C 255.229 187.341,254.762 185.790,254.612 184.800 C 253.587 178.016,253.134 176.619,251.912 176.476 C 250.811 176.347,250.769 176.254,250.161 172.600 C 249.781 170.315,249.310 169.600,248.186 169.600 C 247.433 169.600,247.198 169.388,247.191 168.700 C 247.186 168.205,246.830 167.350,246.400 166.800 C 245.970 166.250,245.614 165.345,245.609 164.790 C 245.602 163.995,245.237 163.611,243.900 162.990 C 242.758 162.459,241.990 161.753,241.561 160.838 C 241.185 160.037,240.278 159.123,239.361 158.621 C 238.321 158.053,237.536 157.205,237.010 156.084 C 236.393 154.767,236.000 154.397,235.210 154.387 C 234.655 154.380,233.851 154.110,233.424 153.787 C 232.996 153.464,232.141 153.200,231.524 153.200 C 230.547 153.200,230.400 153.046,230.400 152.024 C 230.400 150.591,230.246 150.488,227.323 149.968 C 223.841 149.349,223.600 149.236,223.600 148.219 C 223.600 147.059,221.222 146.210,216.800 145.794 C 215.150 145.638,213.350 145.266,212.800 144.966 C 209.476 143.157,199.111 141.760,195.400 142.622 M213.700 147.061 C 216.317 147.308,216.400 147.350,216.400 148.415 C 216.400 149.766,216.558 149.828,221.540 150.432 C 225.390 150.898,225.563 150.961,225.679 151.930 C 225.767 152.665,226.267 153.177,227.509 153.800 C 228.448 154.271,229.429 154.869,229.689 155.129 C 229.948 155.388,230.670 155.600,231.293 155.600 C 232.019 155.600,232.506 155.851,232.650 156.300 C 233.522 159.014,233.676 159.200,235.050 159.200 C 236.316 159.200,236.434 159.316,236.884 160.999 C 237.149 161.989,237.643 162.872,237.983 162.962 C 238.322 163.052,239.095 163.236,239.700 163.370 C 240.629 163.577,240.800 163.821,240.800 164.940 C 240.800 166.299,241.578 167.000,243.400 167.283 C 243.955 167.369,244.241 167.773,244.335 168.603 C 244.410 169.262,244.680 170.051,244.935 170.357 C 245.191 170.663,245.773 171.653,246.229 172.557 C 246.834 173.756,247.339 174.233,248.098 174.324 C 249.234 174.459,249.321 174.745,249.828 180.042 C 250.133 183.235,250.273 183.490,251.801 183.664 L 253.000 183.800 253.295 192.046 C 253.458 196.582,253.458 203.872,253.295 208.246 L 253.000 216.200 252.000 216.338 C 250.409 216.558,250.107 217.055,249.829 219.911 C 249.247 225.876,249.211 226.000,248.055 226.003 C 246.996 226.007,244.632 229.652,244.315 231.771 C 244.247 232.229,243.742 232.665,243.074 232.843 C 241.441 233.280,240.800 233.949,240.800 235.216 C 240.800 236.172,240.559 236.414,239.125 236.892 C 237.692 237.369,237.369 237.692,236.892 239.125 C 236.414 240.559,236.172 240.800,235.216 240.800 C 233.952 240.800,233.280 241.441,232.846 243.063 C 232.622 243.901,232.228 244.243,231.258 244.442 C 230.548 244.587,229.660 244.967,229.284 245.287 C 228.908 245.607,228.015 246.100,227.300 246.383 C 226.271 246.790,226.000 247.127,226.000 248.003 C 226.000 249.220,225.927 249.242,219.911 249.829 C 217.055 250.107,216.558 250.409,216.338 252.000 L 216.200 253.000 208.100 253.279 C 203.645 253.433,196.355 253.433,191.900 253.279 L 183.800 253.000 183.675 251.701 C 183.583 250.748,183.317 250.350,182.675 250.205 C 181.862 250.022,175.373 249.200,174.737 249.200 C 174.581 249.200,174.396 248.718,174.327 248.129 C 174.233 247.334,173.776 246.844,172.557 246.229 C 171.653 245.773,170.663 245.191,170.357 244.935 C 170.051 244.680,169.262 244.410,168.603 244.335 C 167.773 244.241,167.369 243.955,167.283 243.400 C 167.002 241.588,166.298 240.800,164.959 240.800 C 163.629 240.800,163.564 240.718,163.051 238.387 C 162.876 237.588,162.444 237.271,161.014 236.888 C 159.315 236.434,159.200 236.317,159.200 235.050 C 159.200 233.676,159.014 233.522,156.300 232.650 C 155.841 232.502,155.600 232.016,155.600 231.236 C 155.600 230.582,155.414 229.932,155.187 229.792 C 154.960 229.652,154.400 228.741,153.943 227.769 C 153.256 226.307,152.921 226.000,152.011 226.000 L 150.910 226.000 150.435 221.781 C 149.851 216.592,149.779 216.400,148.415 216.400 C 146.968 216.400,146.806 214.748,146.806 200.000 C 146.806 184.970,146.943 183.678,148.553 183.521 C 149.920 183.388,149.916 183.399,150.577 177.124 C 150.841 174.613,150.924 174.440,151.915 174.324 C 153.098 174.185,155.600 170.295,155.600 168.595 C 155.600 167.865,155.949 167.565,157.300 167.138 C 158.785 166.668,159.025 166.428,159.200 165.241 C 159.409 163.819,159.881 163.399,161.694 163.018 C 162.477 162.853,162.853 162.477,163.018 161.694 C 163.399 159.881,163.819 159.409,165.241 159.200 C 166.428 159.025,166.668 158.785,167.138 157.300 C 167.565 155.949,167.865 155.600,168.595 155.600 C 170.264 155.600,174.185 153.098,174.321 151.946 C 174.438 150.953,174.582 150.904,178.921 150.361 L 183.400 149.800 183.524 148.521 C 183.641 147.307,183.742 147.234,185.524 147.093 C 188.904 146.825,210.936 146.800,213.700 147.061 M194.600 158.852 C 189.265 159.519,187.747 159.959,187.287 160.969 C 186.865 161.895,186.480 162.028,182.500 162.625 C 180.116 162.982,179.200 163.593,179.200 164.825 C 179.200 165.902,178.594 166.400,177.281 166.400 C 175.601 166.400,173.200 167.710,173.200 168.627 C 173.200 169.209,172.892 169.644,172.361 169.813 C 171.286 170.153,170.153 171.286,169.813 172.361 C 169.644 172.892,169.209 173.200,168.627 173.200 C 167.710 173.200,166.400 175.601,166.400 177.281 C 166.400 178.594,165.902 179.200,164.825 179.200 C 163.593 179.200,162.982 180.116,162.625 182.500 C 162.029 186.476,161.895 186.865,160.974 187.285 C 157.784 188.738,157.841 211.433,161.039 212.890 C 161.769 213.223,162.000 213.643,162.000 214.641 C 162.000 215.362,162.180 216.064,162.400 216.200 C 162.620 216.336,162.800 217.117,162.800 217.935 C 162.800 219.805,163.746 221.200,165.015 221.200 C 165.745 221.200,166.047 221.472,166.237 222.300 C 166.967 225.492,167.524 226.601,168.457 226.723 C 169.060 226.802,169.617 227.307,170.000 228.123 C 170.330 228.825,171.175 229.670,171.877 230.000 C 172.724 230.398,173.195 230.933,173.277 231.589 C 173.383 232.438,173.796 232.696,176.200 233.414 C 178.580 234.125,179.020 234.397,179.134 235.225 C 179.322 236.592,179.695 236.871,181.880 237.280 C 182.936 237.477,184.482 237.765,185.315 237.919 C 186.363 238.113,186.982 238.505,187.321 239.189 C 188.793 242.153,211.033 242.151,212.734 239.186 C 213.190 238.392,213.786 238.007,214.788 237.859 C 220.047 237.086,221.200 236.608,221.200 235.201 C 221.200 234.313,221.424 234.035,222.300 233.834 C 226.304 232.914,226.800 232.659,226.800 231.513 C 226.800 230.705,226.999 230.400,227.525 230.400 C 228.426 230.400,230.400 228.394,230.400 227.478 C 230.400 227.003,230.733 226.800,231.513 226.800 C 232.659 226.800,232.914 226.304,233.834 222.300 C 234.035 221.424,234.313 221.200,235.201 221.200 C 236.608 221.200,237.086 220.047,237.859 214.788 C 238.007 213.786,238.392 213.190,239.186 212.734 C 242.151 211.033,242.153 188.793,239.189 187.321 C 238.505 186.982,238.113 186.363,237.919 185.315 C 236.782 179.178,236.861 179.358,235.225 179.134 C 234.397 179.020,234.125 178.580,233.414 176.200 C 232.696 173.796,232.438 173.383,231.589 173.277 C 230.933 173.195,230.398 172.724,230.000 171.877 C 229.670 171.175,228.825 170.330,228.123 170.000 C 227.307 169.617,226.802 169.060,226.723 168.457 C 226.601 167.524,225.492 166.967,222.300 166.237 C 221.472 166.047,221.200 165.745,221.200 165.015 C 221.200 163.746,219.805 162.800,217.935 162.800 C 217.117 162.800,216.336 162.620,216.200 162.400 C 216.064 162.180,215.346 162.000,214.603 162.000 C 213.593 162.000,213.188 161.793,212.993 161.177 C 212.366 159.204,202.129 157.910,194.600 158.852 " stroke="none" fill="#639cdc" fill-rule="evenodd"></path></g></svg>