<?xml version="1.0" standalone="no"?><!DOCTYPE svg PUBLIC "-//W3C//DTD SVG 1.1//EN" "http://www.w3.org/Graphics/SVG/1.1/DTD/svg11.dtd"><svg t="1709715903487" class="icon" viewBox="0 0 1024 1024" version="1.1" xmlns="http://www.w3.org/2000/svg" p-id="6847" xmlns:xlink="http://www.w3.org/1999/xlink" width="48" height="48"><path d="M149.964132 0.000412A149.964132 149.964132 0 0 0 0 149.964544v723.865329a149.964132 149.964132 0 0 0 149.964132 149.964132h723.865329a150.087729 150.087729 0 0 0 150.376122-149.964132V149.964544A150.087729 150.087729 0 0 0 873.829461 0.000412z" fill="#09D116" p-id="6848"></path><path d="M812.731437 823.278777l-72.056941-40.292561a331.48665 331.48665 0 0 1-78.689971 13.142461 239.654219 239.654219 0 0 1-158.53351-56.895732 178.556195 178.556195 0 0 1 0-275.332498 239.20103 239.20103 0 0 1 158.451113-57.101728c120.795284 0 222.886251 89.236898 222.886251 194.870974a202.987164 202.987164 0 0 1-91.832432 154.496015l19.734291 67.113069z m-78.937164-308.99203a26.820508 26.820508 0 0 0 0 53.558619 30.281219 30.281219 0 0 0 32.95915-26.77931 30.281219 30.281219 0 0 0-32.95915-26.779309z m-144.19628 0a28.386068 28.386068 0 0 0-26.36732 26.820508 28.839256 28.839256 0 0 0 26.36732 26.77931 30.404816 30.404816 0 0 0 32.54716-26.77931 30.034025 30.034025 0 0 0-32.423564-26.820508z m-367.618119 181.275324l26.36732-80.749917a219.219546 219.219546 0 0 1-105.05729-181.275324 212.792511 212.792511 0 0 1 77.16561-161.994222 282.501113 282.501113 0 0 1 185.271621-66.247891 299.145484 299.145484 0 0 1 172.458752 53.558618 224.410612 224.410612 0 0 1 92.450415 135.132515 177.814614 177.814614 0 0 0-25.131351-1.647958 218.354368 218.354368 0 0 0-223.298241 212.174528 209.167005 209.167005 0 0 0 7.827798 56.030555 159.769479 159.769479 0 0 1-24.266174 1.235968 366.340951 366.340951 0 0 1-77.412803-10.217337l-14.502026-2.966323-91.791233 46.966788z m282.089125-376.146298a37.697028 37.697028 0 0 0-39.509781 33.824328 37.079044 37.079044 0 0 0 39.509781 33.371139 31.39359 31.39359 0 0 0 32.959149-33.371139 31.311192 31.311192 0 0 0-32.959149-33.824328z m-183.747261 0a37.079044 37.079044 0 0 0-39.55098 33.824328 37.079044 37.079044 0 0 0 39.55098 33.371139 31.39359 31.39359 0 0 0 32.95915-33.371139 31.311192 31.311192 0 0 0-32.835553-33.824328z" fill="#F5F5F5" p-id="6849"></path></svg>