<svg id="svg" version="1.1" xmlns="http://www.w3.org/2000/svg" xmlns:xlink="http://www.w3.org/1999/xlink" width="47" height="47" viewBox="0 0 400 400"><g id="svgg"><path id="path0" d="M186.200 75.988 C 180.514 76.566,170.134 78.818,165.800 80.413 C 164.700 80.817,163.170 81.327,162.400 81.545 C 158.963 82.517,148.503 87.396,144.916 89.700 C 143.132 90.847,140.355 92.687,138.000 94.284 C 132.256 98.180,122.180 108.256,118.284 114.000 C 115.646 117.890,114.358 119.895,112.502 123.000 C 112.007 123.827,110.215 127.508,108.607 131.000 C 108.100 132.100,107.110 134.530,106.405 136.400 C 104.861 140.500,104.987 140.358,102.336 141.030 C 91.562 143.763,85.645 146.040,79.200 149.934 C 78.430 150.399,77.170 151.132,76.400 151.563 C 69.419 155.473,58.182 166.415,53.154 174.200 C 52.585 175.080,51.540 176.700,50.830 177.800 C 49.380 180.049,44.400 190.141,44.400 190.832 C 44.400 191.078,44.131 191.846,43.802 192.540 C 43.012 194.205,41.697 198.632,40.813 202.600 C 40.421 204.360,39.898 206.520,39.650 207.400 C 39.401 208.280,38.912 212.420,38.562 216.600 C 35.300 255.536,51.779 286.059,85.123 302.837 C 88.135 304.353,90.753 305.595,90.940 305.597 C 91.126 305.599,91.846 305.867,92.540 306.193 C 95.388 307.532,103.834 310.221,107.723 311.027 C 109.220 311.337,111.380 311.851,112.523 312.169 C 113.665 312.486,115.590 312.859,116.800 312.996 C 118.010 313.134,120.350 313.505,122.000 313.822 C 128.413 315.054,136.773 315.193,204.200 315.187 C 280.005 315.181,278.349 315.230,291.400 312.637 C 295.505 311.822,305.950 308.921,306.600 308.415 C 306.820 308.244,307.720 307.874,308.600 307.594 C 311.962 306.520,322.518 301.137,326.200 298.617 C 351.886 281.041,364.250 254.075,361.457 221.719 C 361.093 217.494,360.612 213.557,360.388 212.969 C 360.165 212.382,359.647 210.438,359.238 208.651 C 358.476 205.325,358.350 204.928,356.310 199.400 C 351.643 186.759,341.781 172.845,331.600 164.539 C 327.890 161.513,321.869 157.200,321.354 157.200 C 321.194 157.200,320.779 156.950,320.431 156.645 C 319.269 155.623,308.777 150.504,306.400 149.799 C 304.820 149.330,304.389 148.812,302.912 145.609 C 301.154 141.798,297.341 134.052,296.704 133.000 C 292.039 125.294,291.506 124.500,286.882 118.379 C 279.949 109.201,267.063 97.442,258.400 92.387 C 257.630 91.938,256.280 91.136,255.400 90.604 C 254.520 90.073,253.350 89.414,252.800 89.139 C 252.250 88.864,251.350 88.351,250.800 87.999 C 249.832 87.379,242.066 83.866,238.400 82.389 C 235.765 81.327,232.971 80.437,229.772 79.640 C 228.216 79.253,226.725 78.801,226.457 78.635 C 226.189 78.470,224.492 78.087,222.685 77.785 C 220.878 77.483,218.140 76.945,216.600 76.590 C 213.376 75.847,191.787 75.419,186.200 75.988 M212.800 104.819 C 222.860 106.727,227.769 108.304,235.781 112.199 C 249.681 118.958,263.042 131.404,270.564 144.600 C 270.941 145.260,271.778 146.700,272.425 147.800 C 273.072 148.900,273.765 150.160,273.965 150.600 C 274.165 151.040,274.995 152.840,275.809 154.600 C 278.518 160.454,280.026 165.209,282.409 175.400 C 285.388 188.145,284.581 208.317,280.553 221.800 C 280.027 223.560,279.596 225.180,279.596 225.400 C 279.595 225.620,279.346 226.278,279.041 226.861 C 278.737 227.445,278.265 228.615,277.993 229.461 C 277.287 231.656,273.096 240.232,271.572 242.600 C 266.468 250.530,264.603 252.954,259.618 258.137 C 255.059 262.876,245.223 270.746,241.600 272.553 C 241.270 272.718,240.100 273.371,239.000 274.004 C 235.690 275.909,229.701 278.756,226.800 279.804 C 219.254 282.529,213.175 284.139,206.400 285.209 C 203.650 285.643,200.230 286.184,198.800 286.412 C 191.102 287.638,134.740 287.206,126.800 285.859 C 124.930 285.542,122.140 285.088,120.600 284.851 C 114.659 283.934,105.979 281.298,100.600 278.777 C 99.720 278.365,98.550 277.841,98.000 277.614 C 97.450 277.387,96.100 276.672,95.000 276.025 C 93.900 275.378,92.460 274.540,91.800 274.164 C 83.267 269.297,73.061 257.071,70.409 248.539 C 70.146 247.692,69.696 246.460,69.408 245.800 C 69.120 245.140,68.760 243.970,68.609 243.200 C 68.457 242.430,67.955 240.270,67.493 238.400 C 64.299 225.477,68.014 203.313,75.202 192.400 C 78.851 186.859,79.171 186.462,83.418 182.217 C 87.126 178.511,91.096 175.585,95.123 173.590 C 99.075 171.633,101.931 170.400,102.513 170.400 C 102.822 170.400,104.138 170.031,105.437 169.580 C 118.798 164.946,140.404 169.752,150.230 179.544 C 168.056 197.306,155.774 225.655,132.344 220.829 C 128.813 220.102,125.162 218.730,123.843 217.636 C 122.875 216.832,121.400 218.148,119.504 221.506 C 118.567 223.167,117.350 225.298,116.800 226.241 C 116.250 227.185,114.657 229.966,113.260 232.420 C 111.862 234.875,110.287 237.520,109.760 238.298 C 107.913 241.018,108.359 241.749,113.400 244.262 C 128.072 251.577,146.510 251.666,160.000 244.488 C 163.818 242.456,164.134 242.253,167.402 239.740 C 187.666 224.155,193.281 193.424,179.817 171.800 C 179.269 170.920,178.520 169.660,178.153 169.000 C 174.110 161.731,163.259 152.272,153.600 147.598 C 151.730 146.693,149.864 145.769,149.454 145.544 C 148.293 144.909,143.307 143.259,140.056 142.435 C 136.664 141.576,135.117 140.407,135.900 139.294 C 136.168 138.912,136.636 138.060,136.939 137.400 C 142.029 126.315,156.452 114.068,170.800 108.648 C 183.003 104.038,200.344 102.457,212.800 104.819 M316.600 189.307 C 324.846 197.918,329.436 206.155,332.252 217.400 C 334.532 226.506,333.512 242.425,330.143 250.306 C 328.185 254.885,327.344 256.702,326.768 257.600 C 326.414 258.150,325.606 259.410,324.971 260.400 C 320.260 267.745,312.813 274.278,304.400 278.446 C 298.927 281.157,297.133 281.855,291.600 283.428 C 287.661 284.548,286.026 284.886,279.200 285.992 C 270.374 287.423,270.380 287.446,277.665 280.232 C 287.505 270.489,295.636 259.165,300.953 247.800 C 301.570 246.480,302.308 244.950,302.593 244.400 C 308.143 233.664,312.342 213.764,312.677 196.600 C 312.903 185.053,312.768 185.305,316.600 189.307 " stroke="none" fill="#f9fafc" fill-rule="evenodd"></path><path id="path1" d="M67.600 0.400 C 67.600 0.621,66.550 0.800,65.250 0.800 C 61.788 0.800,60.400 1.158,60.400 2.050 C 60.400 2.712,60.071 2.800,57.600 2.800 C 54.880 2.800,54.800 2.829,54.800 3.800 C 54.800 4.771,54.720 4.800,52.000 4.800 C 49.523 4.800,49.200 4.887,49.200 5.555 C 49.200 6.142,48.802 6.369,47.400 6.579 C 45.978 6.792,45.600 7.012,45.600 7.625 C 45.600 8.216,45.321 8.400,44.421 8.400 C 43.717 8.400,42.806 8.803,42.162 9.400 C 41.569 9.950,40.839 10.400,40.542 10.400 C 40.244 10.400,40.000 10.750,40.000 11.178 C 40.000 11.823,39.674 11.977,38.100 12.078 C 36.479 12.182,36.181 12.332,36.072 13.100 C 35.990 13.678,35.668 14.000,35.172 14.000 C 34.682 14.000,34.400 14.276,34.400 14.755 C 34.400 15.342,34.002 15.569,32.600 15.779 C 31.178 15.992,30.800 16.212,30.800 16.825 C 30.800 17.385,30.523 17.600,29.800 17.600 C 29.000 17.600,28.800 17.800,28.800 18.600 C 28.800 19.400,28.600 19.600,27.800 19.600 C 27.067 19.600,26.800 19.813,26.800 20.400 C 26.800 20.933,26.533 21.200,26.000 21.200 C 25.413 21.200,25.200 21.467,25.200 22.200 C 25.200 23.000,25.000 23.200,24.200 23.200 C 23.400 23.200,23.200 23.400,23.200 24.200 C 23.200 25.000,23.000 25.200,22.200 25.200 C 21.467 25.200,21.200 25.413,21.200 26.000 C 21.200 26.533,20.933 26.800,20.400 26.800 C 19.813 26.800,19.600 27.067,19.600 27.800 C 19.600 28.600,19.400 28.800,18.600 28.800 C 17.800 28.800,17.600 29.000,17.600 29.800 C 17.600 30.523,17.385 30.800,16.825 30.800 C 16.212 30.800,15.992 31.178,15.779 32.600 C 15.569 34.002,15.342 34.400,14.755 34.400 C 14.276 34.400,14.000 34.682,14.000 35.172 C 14.000 35.668,13.678 35.990,13.100 36.072 C 12.456 36.164,12.164 36.512,12.073 37.300 C 12.002 37.922,11.701 38.400,11.381 38.400 C 11.070 38.400,10.705 38.895,10.570 39.500 C 10.084 41.684,9.962 41.917,9.187 42.119 C 8.566 42.282,8.400 42.671,8.400 43.963 C 8.400 45.302,8.262 45.600,7.643 45.600 C 6.781 45.600,6.400 46.345,6.400 48.033 C 6.400 48.933,6.217 49.200,5.600 49.200 C 4.876 49.200,4.800 49.467,4.800 52.000 C 4.800 54.720,4.771 54.800,3.800 54.800 C 2.829 54.800,2.800 54.880,2.800 57.600 C 2.800 60.081,2.714 60.400,2.043 60.400 C 1.072 60.400,0.800 61.151,0.800 63.833 C 0.800 65.025,0.620 66.000,0.400 66.000 C 0.134 66.000,0.000 110.933,0.000 200.000 C 0.000 284.790,0.140 334.000,0.382 334.000 C 0.592 334.000,0.817 335.215,0.882 336.700 C 0.989 339.153,1.082 339.412,1.900 339.528 C 2.734 339.646,2.800 339.858,2.800 342.428 C 2.800 345.118,2.830 345.200,3.800 345.200 C 4.771 345.200,4.800 345.280,4.800 348.000 C 4.800 350.506,4.882 350.800,5.577 350.800 C 6.205 350.800,6.378 351.126,6.477 352.500 C 6.579 353.913,6.752 354.222,7.500 354.328 C 8.279 354.438,8.400 354.695,8.400 356.228 C 8.400 357.203,8.567 358.000,8.771 358.000 C 9.525 358.000,10.400 359.290,10.400 360.402 C 10.400 361.182,10.646 361.624,11.175 361.792 C 11.601 361.927,12.006 362.434,12.075 362.919 C 12.154 363.479,12.528 363.847,13.100 363.928 C 13.795 364.027,14.000 364.318,14.000 365.205 C 14.000 365.871,14.313 366.575,14.743 366.877 C 15.151 367.165,15.607 367.786,15.756 368.257 C 15.905 368.728,16.381 369.206,16.813 369.319 C 17.280 369.441,17.600 369.866,17.600 370.363 C 17.600 370.989,17.852 371.200,18.600 371.200 C 19.400 371.200,19.600 371.400,19.600 372.200 C 19.600 372.933,19.813 373.200,20.400 373.200 C 20.933 373.200,21.200 373.467,21.200 374.000 C 21.200 374.587,21.467 374.800,22.200 374.800 C 23.000 374.800,23.200 375.000,23.200 375.800 C 23.200 376.600,23.400 376.800,24.200 376.800 C 25.000 376.800,25.200 377.000,25.200 377.800 C 25.200 378.533,25.413 378.800,26.000 378.800 C 26.533 378.800,26.800 379.067,26.800 379.600 C 26.800 380.187,27.067 380.400,27.800 380.400 C 28.600 380.400,28.800 380.600,28.800 381.400 C 28.800 382.148,29.011 382.400,29.637 382.400 C 30.134 382.400,30.559 382.720,30.681 383.187 C 30.794 383.619,31.272 384.095,31.743 384.244 C 32.214 384.393,32.835 384.849,33.123 385.257 C 33.425 385.687,34.129 386.000,34.795 386.000 C 35.682 386.000,35.973 386.205,36.072 386.900 C 36.153 387.472,36.521 387.846,37.081 387.925 C 37.566 387.994,38.073 388.399,38.208 388.825 C 38.376 389.354,38.818 389.600,39.598 389.600 C 40.710 389.600,42.000 390.475,42.000 391.229 C 42.000 391.433,42.797 391.600,43.772 391.600 C 45.305 391.600,45.562 391.721,45.672 392.500 C 45.778 393.248,46.087 393.421,47.500 393.523 C 48.874 393.622,49.200 393.795,49.200 394.423 C 49.200 395.118,49.494 395.200,52.000 395.200 C 54.720 395.200,54.800 395.229,54.800 396.200 C 54.800 397.170,54.882 397.200,57.572 397.200 C 60.142 397.200,60.354 397.266,60.472 398.100 C 60.588 398.918,60.847 399.011,63.300 399.118 C 64.785 399.183,66.000 399.408,66.000 399.618 C 66.000 399.860,115.210 400.000,200.000 400.000 C 289.067 400.000,334.000 399.866,334.000 399.600 C 334.000 399.380,334.975 399.200,336.167 399.200 C 338.849 399.200,339.600 398.928,339.600 397.957 C 339.600 397.286,339.919 397.200,342.400 397.200 C 345.120 397.200,345.200 397.171,345.200 396.200 C 345.200 395.229,345.280 395.200,348.000 395.200 C 350.533 395.200,350.800 395.124,350.800 394.400 C 350.800 393.783,351.067 393.600,351.967 393.600 C 353.655 393.600,354.400 393.219,354.400 392.357 C 354.400 391.738,354.698 391.600,356.037 391.600 C 357.341 391.600,357.718 391.436,357.885 390.796 C 358.004 390.342,358.554 389.890,359.148 389.758 C 361.277 389.287,361.600 389.135,361.600 388.600 C 361.600 388.299,362.095 387.996,362.700 387.927 C 363.488 387.836,363.836 387.544,363.928 386.900 C 364.010 386.322,364.332 386.000,364.828 386.000 C 365.318 386.000,365.600 385.724,365.600 385.245 C 365.600 384.658,365.998 384.431,367.400 384.221 C 368.822 384.008,369.200 383.788,369.200 383.175 C 369.200 382.615,369.477 382.400,370.200 382.400 C 371.000 382.400,371.200 382.200,371.200 381.400 C 371.200 380.600,371.400 380.400,372.200 380.400 C 372.933 380.400,373.200 380.187,373.200 379.600 C 373.200 379.067,373.467 378.800,374.000 378.800 C 374.587 378.800,374.800 378.533,374.800 377.800 C 374.800 377.000,375.000 376.800,375.800 376.800 C 376.600 376.800,376.800 376.600,376.800 375.800 C 376.800 375.000,377.000 374.800,377.800 374.800 C 378.533 374.800,378.800 374.587,378.800 374.000 C 378.800 373.467,379.067 373.200,379.600 373.200 C 380.187 373.200,380.400 372.933,380.400 372.200 C 380.400 371.400,380.600 371.200,381.400 371.200 C 382.200 371.200,382.400 371.000,382.400 370.200 C 382.400 369.477,382.615 369.200,383.175 369.200 C 383.788 369.200,384.008 368.822,384.221 367.400 C 384.431 365.998,384.658 365.600,385.245 365.600 C 385.724 365.600,386.000 365.318,386.000 364.828 C 386.000 364.332,386.322 364.010,386.900 363.928 C 387.668 363.819,387.818 363.521,387.922 361.900 C 388.023 360.326,388.177 360.000,388.822 360.000 C 389.250 360.000,389.600 359.756,389.600 359.458 C 389.600 359.161,390.050 358.431,390.600 357.838 C 391.197 357.194,391.600 356.283,391.600 355.579 C 391.600 354.679,391.784 354.400,392.375 354.400 C 392.988 354.400,393.208 354.022,393.421 352.600 C 393.631 351.198,393.858 350.800,394.445 350.800 C 395.113 350.800,395.200 350.477,395.200 348.000 C 395.200 345.280,395.229 345.200,396.200 345.200 C 397.171 345.200,397.200 345.120,397.200 342.400 C 397.200 339.929,397.288 339.600,397.950 339.600 C 398.842 339.600,399.200 338.212,399.200 334.750 C 399.200 333.450,399.379 332.400,399.600 332.400 C 399.866 332.400,400.000 288.000,400.000 200.000 C 400.000 112.000,399.866 67.600,399.600 67.600 C 399.375 67.600,399.200 66.475,399.200 65.026 C 399.200 62.104,398.695 60.400,397.828 60.400 C 397.376 60.400,397.209 59.763,397.118 57.700 C 397.011 55.247,396.918 54.988,396.100 54.872 C 395.266 54.754,395.200 54.542,395.200 51.972 C 395.200 49.530,395.111 49.200,394.451 49.200 C 393.889 49.200,393.640 48.808,393.451 47.627 C 393.277 46.540,392.952 45.975,392.400 45.800 C 391.889 45.638,391.600 45.195,391.600 44.573 C 391.600 43.886,391.378 43.600,390.845 43.600 C 390.258 43.600,390.031 43.202,389.821 41.800 C 389.611 40.399,389.384 40.000,388.797 40.000 C 388.182 40.000,388.021 39.651,387.922 38.100 C 387.818 36.479,387.668 36.181,386.900 36.072 C 386.322 35.990,386.000 35.668,386.000 35.172 C 386.000 34.667,385.724 34.400,385.200 34.400 C 384.610 34.400,384.400 34.133,384.400 33.382 C 384.400 32.822,383.964 31.928,383.432 31.396 C 382.900 30.863,382.403 30.106,382.328 29.714 C 382.253 29.321,381.789 28.942,381.296 28.872 C 380.649 28.780,380.400 28.474,380.400 27.772 C 380.400 27.067,380.181 26.800,379.600 26.800 C 379.067 26.800,378.800 26.533,378.800 26.000 C 378.800 25.413,378.533 25.200,377.800 25.200 C 377.000 25.200,376.800 25.000,376.800 24.200 C 376.800 23.400,376.600 23.200,375.800 23.200 C 375.000 23.200,374.800 23.000,374.800 22.200 C 374.800 21.467,374.587 21.200,374.000 21.200 C 373.467 21.200,373.200 20.933,373.200 20.400 C 373.200 19.819,372.933 19.600,372.228 19.600 C 371.526 19.600,371.220 19.351,371.128 18.704 C 371.058 18.211,370.679 17.747,370.286 17.672 C 369.894 17.597,369.137 17.100,368.604 16.568 C 368.072 16.036,367.178 15.600,366.618 15.600 C 365.867 15.600,365.600 15.390,365.600 14.800 C 365.600 14.276,365.333 14.000,364.828 14.000 C 364.332 14.000,364.010 13.678,363.928 13.100 C 363.819 12.332,363.521 12.182,361.900 12.078 C 360.349 11.979,360.000 11.818,360.000 11.203 C 360.000 10.616,359.601 10.389,358.200 10.179 C 356.798 9.969,356.400 9.742,356.400 9.155 C 356.400 8.622,356.114 8.400,355.427 8.400 C 354.805 8.400,354.362 8.111,354.200 7.600 C 354.025 7.048,353.460 6.723,352.373 6.549 C 351.192 6.360,350.800 6.111,350.800 5.549 C 350.800 4.889,350.470 4.800,348.028 4.800 C 345.458 4.800,345.246 4.734,345.128 3.900 C 345.012 3.082,344.753 2.989,342.300 2.882 C 340.237 2.791,339.600 2.624,339.600 2.172 C 339.600 1.305,337.896 0.800,334.974 0.800 C 333.525 0.800,332.400 0.625,332.400 0.400 C 332.400 0.134,288.000 0.000,200.000 0.000 C 112.000 0.000,67.600 0.134,67.600 0.400 M216.600 76.590 C 218.140 76.945,220.878 77.483,222.685 77.785 C 224.492 78.087,226.189 78.470,226.457 78.635 C 226.725 78.801,228.216 79.253,229.772 79.640 C 232.971 80.437,235.765 81.327,238.400 82.389 C 242.066 83.866,249.832 87.379,250.800 87.999 C 251.350 88.351,252.250 88.864,252.800 89.139 C 253.350 89.414,254.520 90.073,255.400 90.604 C 256.280 91.136,257.630 91.938,258.400 92.387 C 267.063 97.442,279.949 109.201,286.882 118.379 C 291.506 124.500,292.039 125.294,296.704 133.000 C 297.341 134.052,301.154 141.798,302.912 145.609 C 304.389 148.812,304.820 149.330,306.400 149.799 C 308.777 150.504,319.269 155.623,320.431 156.645 C 320.779 156.950,321.194 157.200,321.354 157.200 C 321.672 157.200,326.036 160.191,328.600 162.165 C 340.974 171.694,351.110 185.315,356.310 199.400 C 358.350 204.928,358.476 205.325,359.238 208.651 C 359.647 210.438,360.165 212.382,360.388 212.969 C 360.612 213.557,361.093 217.494,361.457 221.719 C 364.250 254.075,351.886 281.041,326.200 298.617 C 322.518 301.137,311.962 306.520,308.600 307.594 C 307.720 307.874,306.820 308.244,306.600 308.415 C 305.950 308.921,295.505 311.822,291.400 312.637 C 278.349 315.230,280.005 315.181,204.200 315.187 C 136.773 315.193,128.413 315.054,122.000 313.822 C 120.350 313.505,118.010 313.134,116.800 312.996 C 115.590 312.859,113.665 312.486,112.523 312.169 C 111.380 311.851,109.220 311.337,107.723 311.027 C 103.834 310.221,95.388 307.532,92.540 306.193 C 91.846 305.867,91.126 305.599,90.940 305.597 C 90.753 305.595,88.135 304.353,85.123 302.837 C 51.779 286.059,35.300 255.536,38.562 216.600 C 38.912 212.420,39.401 208.280,39.650 207.400 C 39.898 206.520,40.421 204.360,40.813 202.600 C 41.697 198.632,43.012 194.205,43.802 192.540 C 44.131 191.846,44.400 191.078,44.400 190.832 C 44.400 190.141,49.380 180.049,50.830 177.800 C 51.540 176.700,52.585 175.080,53.154 174.200 C 58.182 166.415,69.419 155.473,76.400 151.563 C 77.170 151.132,78.430 150.399,79.200 149.934 C 85.645 146.040,91.562 143.763,102.336 141.030 C 104.987 140.358,104.861 140.500,106.405 136.400 C 107.110 134.530,108.100 132.100,108.607 131.000 C 110.215 127.508,112.007 123.827,112.502 123.000 C 114.358 119.895,115.646 117.890,118.284 114.000 C 122.180 108.256,132.256 98.180,138.000 94.284 C 140.355 92.687,143.132 90.847,144.916 89.700 C 148.503 87.396,158.963 82.517,162.400 81.545 C 163.170 81.327,164.700 80.817,165.800 80.413 C 170.134 78.818,180.514 76.566,186.200 75.988 C 191.787 75.419,213.376 75.847,216.600 76.590 M192.800 103.847 C 173.248 104.961,152.617 115.378,142.190 129.400 C 140.105 132.204,137.508 136.161,136.939 137.400 C 136.636 138.060,136.168 138.912,135.900 139.294 C 135.117 140.407,136.664 141.576,140.056 142.435 C 143.307 143.259,148.293 144.909,149.454 145.544 C 149.864 145.769,151.730 146.693,153.600 147.598 C 163.259 152.272,174.110 161.731,178.153 169.000 C 178.520 169.660,179.269 170.920,179.817 171.800 C 193.281 193.424,187.666 224.155,167.402 239.740 C 164.134 242.253,163.818 242.456,160.000 244.488 C 146.510 251.666,128.072 251.577,113.400 244.262 C 108.359 241.749,107.913 241.018,109.760 238.298 C 110.287 237.520,111.862 234.875,113.260 232.420 C 114.657 229.966,116.250 227.185,116.800 226.241 C 117.350 225.298,118.567 223.167,119.504 221.506 C 121.400 218.148,122.875 216.832,123.843 217.636 C 125.162 218.730,128.813 220.102,132.344 220.829 C 155.774 225.655,168.056 197.306,150.230 179.544 C 140.404 169.752,118.798 164.946,105.437 169.580 C 104.138 170.031,102.822 170.400,102.513 170.400 C 101.931 170.400,99.075 171.633,95.123 173.590 C 91.096 175.585,87.126 178.511,83.418 182.217 C 79.171 186.462,78.851 186.859,75.202 192.400 C 68.014 203.313,64.299 225.477,67.493 238.400 C 67.955 240.270,68.457 242.430,68.609 243.200 C 68.760 243.970,69.120 245.140,69.408 245.800 C 69.696 246.460,70.146 247.692,70.409 248.539 C 73.061 257.071,83.267 269.297,91.800 274.164 C 92.460 274.540,93.900 275.378,95.000 276.025 C 96.100 276.672,97.450 277.387,98.000 277.614 C 98.550 277.841,99.720 278.365,100.600 278.777 C 105.979 281.298,114.659 283.934,120.600 284.851 C 122.140 285.088,124.930 285.542,126.800 285.859 C 134.740 287.206,191.102 287.638,198.800 286.412 C 200.230 286.184,203.650 285.643,206.400 285.209 C 213.175 284.139,219.254 282.529,226.800 279.804 C 229.701 278.756,235.690 275.909,239.000 274.004 C 240.100 273.371,241.270 272.718,241.600 272.553 C 245.223 270.746,255.059 262.876,259.618 258.137 C 264.603 252.954,266.468 250.530,271.572 242.600 C 273.096 240.232,277.287 231.656,277.993 229.461 C 278.265 228.615,278.737 227.445,279.041 226.861 C 279.346 226.278,279.595 225.620,279.596 225.400 C 279.596 225.180,280.027 223.560,280.553 221.800 C 284.581 208.317,285.388 188.145,282.409 175.400 C 280.026 165.209,278.518 160.454,275.809 154.600 C 274.995 152.840,274.165 151.040,273.965 150.600 C 273.765 150.160,273.072 148.900,272.425 147.800 C 271.778 146.700,270.941 145.260,270.564 144.600 C 255.258 117.749,225.206 101.999,192.800 103.847 M313.012 187.300 C 312.923 187.575,312.772 191.760,312.677 196.600 C 312.342 213.764,308.143 233.664,302.593 244.400 C 302.308 244.950,301.570 246.480,300.953 247.800 C 295.636 259.165,287.505 270.489,277.665 280.232 C 270.380 287.446,270.374 287.423,279.200 285.992 C 289.007 284.403,295.865 282.566,300.800 280.205 C 306.011 277.712,306.842 277.253,311.000 274.570 C 315.935 271.385,321.630 265.609,324.971 260.400 C 325.606 259.410,326.414 258.150,326.768 257.600 C 327.344 256.702,328.185 254.885,330.143 250.306 C 337.327 233.500,332.873 207.620,320.338 193.337 C 315.419 187.734,313.410 186.077,313.012 187.300 " stroke="none" fill="#2c84fc" fill-rule="evenodd"></path></g></svg>