<svg id="svg" version="1.1" xmlns="http://www.w3.org/2000/svg" xmlns:xlink="http://www.w3.org/1999/xlink" width="48" height="46" viewBox="0 0 400 400"><g id="svgg"><path id="path0" d="M186.600 50.276 C 184.181 50.379,181.126 50.651,169.200 51.824 C 167.990 51.943,165.830 52.287,164.400 52.590 C 161.771 53.145,159.062 53.650,153.600 54.602 C 151.950 54.890,149.494 55.412,148.142 55.762 C 146.791 56.113,145.261 56.401,144.742 56.402 C 144.224 56.404,143.260 56.689,142.600 57.037 C 141.940 57.385,140.590 57.821,139.600 58.006 C 138.610 58.191,136.270 58.814,134.400 59.391 C 132.530 59.968,130.100 60.669,129.000 60.949 C 127.900 61.228,126.640 61.644,126.200 61.872 C 125.760 62.100,124.410 62.601,123.200 62.983 C 112.988 66.215,95.985 73.840,85.228 80.012 C 82.172 81.765,79.546 83.200,79.393 83.200 C 79.240 83.200,78.381 83.785,77.483 84.500 C 76.586 85.215,74.992 86.340,73.941 87.000 C 66.771 91.503,60.400 96.075,60.400 96.716 C 60.400 97.528,78.317 115.604,79.588 116.074 C 80.491 116.408,82.374 115.849,83.000 115.060 C 83.220 114.783,84.422 113.976,85.671 113.266 C 86.920 112.556,88.000 111.842,88.071 111.681 C 88.142 111.519,89.550 110.594,91.200 109.626 C 92.850 108.657,95.127 107.267,96.260 106.538 C 97.392 105.808,98.742 105.048,99.260 104.850 C 99.777 104.651,101.752 103.590,103.648 102.492 C 105.545 101.394,107.720 100.291,108.481 100.039 C 109.242 99.788,111.111 98.932,112.633 98.137 C 114.155 97.343,116.480 96.281,117.800 95.778 C 119.994 94.942,122.207 94.017,125.400 92.603 C 126.060 92.311,127.950 91.671,129.600 91.182 C 131.250 90.692,132.870 90.071,133.200 89.801 C 133.530 89.531,134.430 89.194,135.200 89.053 C 135.970 88.912,137.140 88.546,137.800 88.239 C 138.460 87.932,141.027 87.200,143.505 86.614 C 145.983 86.027,148.503 85.290,149.105 84.976 C 149.707 84.662,150.791 84.404,151.513 84.402 C 152.235 84.401,153.422 84.151,154.152 83.846 C 154.881 83.541,156.450 83.170,157.639 83.020 C 158.828 82.871,161.600 82.417,163.800 82.012 C 176.745 79.630,194.521 78.112,204.000 78.580 C 216.901 79.216,229.041 80.569,236.400 82.193 C 237.830 82.508,240.153 82.885,241.563 83.030 C 242.972 83.175,244.721 83.542,245.450 83.847 C 246.178 84.151,247.332 84.400,248.013 84.400 C 248.694 84.400,250.095 84.752,251.126 85.183 C 252.157 85.614,254.800 86.415,257.000 86.964 C 261.355 88.050,264.117 88.930,266.600 90.025 C 267.480 90.412,269.460 91.108,271.000 91.570 C 273.809 92.414,274.300 92.610,278.440 94.550 C 279.672 95.128,280.890 95.600,281.147 95.600 C 281.404 95.600,283.456 96.525,285.707 97.655 C 287.958 98.785,290.340 99.910,291.000 100.155 C 292.002 100.527,297.627 103.528,302.927 106.519 C 305.833 108.159,313.319 112.998,315.200 114.453 C 317.593 116.304,319.585 116.937,320.480 116.133 C 323.876 113.080,338.839 97.708,339.044 97.061 C 339.344 96.117,338.609 95.440,334.000 92.412 C 331.030 90.461,330.430 90.056,324.200 85.803 C 322.440 84.602,319.830 82.973,318.400 82.184 C 316.970 81.395,315.080 80.322,314.200 79.799 C 307.974 76.102,296.732 70.666,289.600 67.904 C 277.869 63.363,276.094 62.700,274.800 62.383 C 274.030 62.193,271.420 61.391,269.000 60.599 C 266.580 59.808,263.790 58.898,262.800 58.578 C 261.810 58.258,260.460 57.993,259.800 57.989 C 259.140 57.985,257.878 57.655,256.996 57.254 C 256.114 56.853,254.674 56.402,253.796 56.252 C 252.918 56.102,251.120 55.727,249.800 55.418 C 246.725 54.700,239.530 53.330,237.200 53.020 C 236.210 52.889,234.230 52.528,232.800 52.219 C 230.189 51.654,223.302 50.984,214.000 50.389 C 209.266 50.086,192.660 50.018,186.600 50.276 M337.499 116.490 C 336.671 117.732,333.317 121.543,329.647 125.414 C 327.971 127.181,325.340 130.039,323.800 131.765 C 322.260 133.491,320.215 135.735,319.255 136.752 C 317.367 138.753,315.600 142.140,315.600 143.760 C 315.600 144.317,315.339 145.543,315.021 146.486 C 314.703 147.429,314.244 149.446,314.002 150.968 C 313.761 152.491,313.465 153.894,313.346 154.087 C 313.227 154.280,312.887 155.824,312.591 157.519 C 312.085 160.419,311.429 162.747,310.204 166.000 C 309.914 166.770,309.288 169.110,308.814 171.200 C 308.340 173.290,307.602 175.855,307.176 176.900 C 306.749 177.945,306.049 179.655,305.620 180.700 C 305.191 181.745,304.549 183.680,304.193 185.000 C 303.591 187.235,302.699 189.435,298.197 199.800 C 297.241 202.000,296.089 204.745,295.636 205.899 C 295.183 207.054,293.697 210.114,292.335 212.699 C 290.972 215.285,289.526 218.030,289.123 218.800 C 288.719 219.570,288.229 220.470,288.034 220.800 C 287.839 221.130,287.257 222.295,286.740 223.388 C 286.223 224.482,285.232 226.211,284.537 227.231 C 283.843 228.251,282.877 229.876,282.392 230.843 C 281.907 231.809,281.200 232.960,280.821 233.400 C 280.443 233.840,279.281 235.640,278.239 237.400 C 277.197 239.160,275.399 241.950,274.244 243.600 C 273.088 245.250,271.207 247.950,270.063 249.600 C 259.440 264.918,236.332 289.528,222.400 300.362 C 220.970 301.474,218.540 303.383,217.000 304.604 C 215.460 305.825,213.210 307.537,212.000 308.408 C 210.790 309.279,208.180 311.164,206.200 312.596 C 200.974 316.378,199.695 316.945,198.339 316.080 C 192.220 312.177,179.223 302.308,172.674 296.594 C 170.653 294.830,168.376 292.850,167.614 292.194 C 162.942 288.169,151.688 276.829,146.798 271.219 C 145.369 269.579,143.823 267.843,143.361 267.362 C 142.611 266.578,132.337 253.699,130.469 251.200 C 126.859 246.369,117.858 232.529,117.080 230.611 C 116.904 230.178,116.634 229.728,116.480 229.611 C 115.913 229.183,114.511 226.930,113.238 224.400 C 112.518 222.970,110.821 219.703,109.465 217.140 C 104.895 208.500,100.000 198.074,100.000 196.978 C 100.000 196.710,99.197 194.785,98.216 192.700 C 97.235 190.614,96.085 187.652,95.659 186.117 C 95.234 184.583,94.597 182.767,94.243 182.083 C 93.889 181.399,93.599 180.606,93.598 180.320 C 93.596 180.034,93.321 179.275,92.987 178.633 C 92.652 177.991,91.856 175.561,91.219 173.233 C 90.581 170.905,89.873 168.460,89.646 167.800 C 88.031 163.113,87.192 159.818,86.188 154.212 C 85.873 152.459,85.343 150.340,85.008 149.504 C 84.674 148.668,84.400 147.340,84.400 146.552 C 84.400 145.765,84.153 144.554,83.850 143.860 C 83.548 143.167,83.099 141.864,82.853 140.964 C 82.373 139.207,81.478 138.140,70.600 126.352 C 61.651 116.654,60.895 115.901,60.314 116.099 C 59.331 116.435,60.548 136.952,61.819 141.462 C 62.139 142.595,62.403 144.665,62.406 146.062 C 62.409 147.458,62.663 149.680,62.971 151.000 C 63.278 152.320,63.731 154.840,63.977 156.600 C 64.436 159.876,65.206 163.699,66.193 167.600 C 67.253 171.791,68.093 175.413,68.651 178.200 C 68.959 179.740,69.545 182.080,69.954 183.400 C 70.363 184.720,71.368 188.050,72.187 190.800 C 73.007 193.550,74.303 197.510,75.067 199.600 C 75.832 201.690,76.993 204.930,77.649 206.800 C 78.304 208.670,78.996 210.560,79.185 211.000 C 80.198 213.351,83.495 220.637,84.887 223.600 C 85.766 225.470,86.718 227.540,87.003 228.200 C 88.223 231.019,88.412 231.430,88.754 232.000 C 88.952 232.330,89.306 233.050,89.540 233.600 C 89.774 234.150,90.648 235.779,91.483 237.220 C 92.317 238.661,93.720 241.144,94.600 242.739 C 95.480 244.333,97.048 247.084,98.084 248.853 C 99.120 250.622,100.087 252.459,100.233 252.935 C 100.378 253.411,101.076 254.520,101.782 255.400 C 102.489 256.280,103.554 257.810,104.150 258.800 C 104.745 259.790,106.494 262.400,108.037 264.600 C 109.580 266.800,111.652 269.770,112.642 271.200 C 116.402 276.632,117.705 278.324,121.694 282.947 C 123.952 285.564,126.340 288.387,127.000 289.219 C 131.839 295.319,132.606 296.135,145.063 308.426 C 149.648 312.950,155.740 318.537,158.600 320.841 C 161.460 323.145,164.231 325.384,164.757 325.815 C 165.283 326.247,166.273 327.059,166.957 327.621 C 170.150 330.242,175.629 334.403,177.800 335.855 C 179.120 336.738,181.579 338.436,183.265 339.630 C 184.951 340.823,187.520 342.520,188.976 343.400 C 190.431 344.280,193.102 345.952,194.911 347.115 C 199.046 349.773,199.671 349.933,201.749 348.858 C 204.424 347.476,219.123 337.781,224.581 333.800 C 226.401 332.472,239.971 321.600,243.605 318.557 C 248.076 314.814,267.386 295.848,268.811 293.800 C 269.423 292.920,270.346 291.760,270.862 291.222 C 271.378 290.684,272.700 289.125,273.800 287.758 C 275.900 285.148,281.608 278.343,281.985 278.000 C 282.331 277.685,285.229 273.678,287.410 270.499 C 290.409 266.129,291.025 265.244,293.189 262.200 C 296.073 258.143,300.000 252.127,300.000 251.766 C 300.000 251.595,301.059 249.643,302.354 247.428 C 305.815 241.507,307.038 239.317,308.624 236.200 C 309.408 234.660,310.207 233.130,310.400 232.800 C 310.593 232.470,311.233 231.120,311.823 229.800 C 312.412 228.480,313.752 225.600,314.801 223.400 C 315.849 221.200,317.181 218.320,317.760 217.000 C 318.339 215.680,319.170 213.934,319.606 213.121 C 320.043 212.307,320.400 211.434,320.400 211.181 C 320.400 210.928,320.658 210.154,320.973 209.460 C 321.288 208.767,322.117 206.580,322.816 204.600 C 324.897 198.703,325.211 197.856,325.776 196.600 C 326.073 195.940,326.440 194.770,326.592 194.000 C 326.943 192.220,329.025 185.239,330.011 182.533 C 330.425 181.397,331.048 178.787,331.394 176.733 C 331.741 174.680,332.212 172.528,332.440 171.950 C 332.668 171.373,333.005 169.933,333.188 168.750 C 333.371 167.568,334.064 164.440,334.728 161.800 C 335.393 159.160,336.050 155.560,336.188 153.800 C 336.327 152.040,336.687 149.340,336.989 147.800 C 337.290 146.260,337.632 143.686,337.747 142.080 C 337.862 140.474,338.223 137.954,338.549 136.480 C 339.057 134.180,340.252 116.488,339.918 116.201 C 339.169 115.556,338.030 115.692,337.499 116.490 M194.000 116.672 C 183.307 117.007,173.917 118.063,166.800 119.732 C 164.226 120.336,162.643 120.693,157.600 121.809 C 150.093 123.469,130.892 130.542,125.600 133.596 C 125.270 133.786,123.155 134.888,120.900 136.045 C 118.645 137.202,116.800 138.283,116.800 138.447 C 116.800 138.612,116.421 138.866,115.959 139.013 C 115.496 139.160,114.469 139.720,113.677 140.258 C 112.884 140.796,111.384 141.626,110.342 142.104 C 108.408 142.992,107.756 144.014,108.392 145.165 C 109.248 146.714,127.091 164.000,127.835 164.000 C 128.630 164.000,133.682 161.515,136.487 159.745 C 137.304 159.229,138.834 158.462,139.887 158.041 C 140.939 157.620,143.420 156.567,145.400 155.702 C 150.310 153.555,160.186 150.255,164.800 149.220 C 166.890 148.751,169.620 148.108,170.868 147.791 C 172.115 147.474,174.185 147.103,175.468 146.966 C 176.750 146.829,178.682 146.467,179.761 146.162 C 184.837 144.725,209.247 144.538,217.400 145.873 C 219.380 146.197,222.440 146.631,224.200 146.837 C 225.960 147.043,227.799 147.382,228.287 147.591 C 228.775 147.800,231.295 148.434,233.887 149.001 C 236.479 149.567,239.230 150.286,240.000 150.598 C 240.770 150.910,242.030 151.346,242.800 151.566 C 249.520 153.487,258.953 157.544,267.517 162.198 C 269.341 163.189,271.231 164.000,271.717 164.000 C 272.553 163.999,290.178 147.040,291.153 145.297 C 291.606 144.489,290.661 142.400,289.844 142.400 C 289.549 142.400,288.879 142.070,288.354 141.667 C 287.829 141.264,286.590 140.505,285.600 139.980 C 284.610 139.455,283.503 138.783,283.140 138.487 C 282.777 138.190,280.257 136.815,277.540 135.430 C 274.823 134.046,271.883 132.528,271.006 132.056 C 270.129 131.585,269.167 131.200,268.868 131.200 C 268.568 131.200,267.846 130.941,267.262 130.625 C 265.302 129.564,259.423 127.152,257.000 126.416 C 255.680 126.015,254.060 125.487,253.400 125.243 C 250.347 124.113,244.775 122.445,242.600 122.011 C 241.280 121.747,239.480 121.299,238.600 121.015 C 237.720 120.731,235.943 120.370,234.652 120.214 C 233.360 120.058,231.646 119.699,230.843 119.415 C 230.041 119.132,228.397 118.773,227.192 118.618 C 225.986 118.463,224.370 118.183,223.600 117.996 C 220.654 117.280,201.695 116.432,194.000 116.672 M191.600 182.634 C 188.534 182.837,178.689 184.339,175.800 185.044 C 172.878 185.757,161.157 189.574,160.600 189.994 C 160.380 190.160,159.524 190.514,158.697 190.780 C 156.971 191.336,156.178 192.446,156.754 193.500 C 157.559 194.972,198.839 235.805,199.653 235.935 C 200.413 236.055,227.685 209.442,240.072 196.493 C 244.266 192.109,243.669 191.350,233.400 188.013 C 224.808 185.221,223.320 184.819,219.333 184.210 C 217.170 183.880,214.320 183.427,213.000 183.203 C 210.502 182.780,195.434 182.379,191.600 182.634 " stroke="none" fill="#fafbfb" fill-rule="evenodd"></path><path id="path1" d="M57.200 0.400 C 57.200 0.637,55.738 0.800,53.614 0.800 C 50.438 0.800,49.979 0.891,49.600 1.600 C 49.252 2.250,48.762 2.400,46.986 2.400 C 45.067 2.400,44.800 2.498,44.800 3.200 C 44.800 3.911,44.533 4.000,42.400 4.000 C 40.267 4.000,40.000 4.089,40.000 4.800 C 40.000 5.464,39.733 5.600,38.433 5.600 C 36.478 5.600,35.600 5.923,35.600 6.643 C 35.600 6.965,35.193 7.200,34.633 7.200 C 33.252 7.200,32.400 7.598,32.400 8.243 C 32.400 8.616,31.925 8.800,30.963 8.800 C 29.862 8.800,29.476 8.987,29.316 9.600 C 29.200 10.043,28.770 10.400,28.353 10.400 C 27.867 10.400,27.600 10.683,27.600 11.200 C 27.600 11.848,27.333 12.000,26.200 12.000 C 25.430 12.000,24.800 12.184,24.800 12.410 C 24.800 12.635,24.350 12.991,23.800 13.200 C 23.250 13.409,22.800 13.855,22.800 14.190 C 22.800 14.533,22.450 14.800,22.000 14.800 C 21.467 14.800,21.200 15.067,21.200 15.600 C 21.200 16.065,20.933 16.400,20.563 16.400 C 20.212 16.400,19.831 16.760,19.716 17.200 C 19.600 17.643,19.170 18.000,18.753 18.000 C 18.267 18.000,18.000 18.283,18.000 18.800 C 18.000 19.265,17.733 19.600,17.363 19.600 C 17.012 19.600,16.631 19.960,16.516 20.400 C 16.401 20.840,16.041 21.200,15.716 21.200 C 15.391 21.200,15.031 21.560,14.916 22.000 C 14.801 22.440,14.453 22.800,14.143 22.800 C 13.834 22.800,13.409 23.250,13.200 23.800 C 12.991 24.350,12.635 24.800,12.410 24.800 C 12.184 24.800,12.000 25.430,12.000 26.200 C 12.000 27.333,11.848 27.600,11.200 27.600 C 10.667 27.600,10.400 27.867,10.400 28.400 C 10.400 28.933,10.133 29.200,9.600 29.200 C 8.948 29.200,8.800 29.467,8.800 30.637 C 8.800 31.738,8.613 32.124,8.000 32.284 C 7.406 32.439,7.200 32.830,7.200 33.800 C 7.200 34.770,6.994 35.161,6.400 35.316 C 5.720 35.494,5.600 35.862,5.600 37.763 C 5.600 39.733,5.505 40.000,4.800 40.000 C 4.152 40.000,4.000 40.267,4.000 41.400 C 4.000 42.267,3.695 43.105,3.200 43.600 C 2.579 44.221,2.400 44.933,2.400 46.786 C 2.400 48.762,2.263 49.245,1.600 49.600 C 0.891 49.979,0.800 50.438,0.800 53.614 C 0.800 55.738,0.637 57.200,0.400 57.200 C 0.134 57.200,0.000 105.067,0.000 200.000 C 0.000 294.933,0.134 342.800,0.400 342.800 C 0.639 342.800,0.800 344.346,0.800 346.637 C 0.800 350.138,0.870 350.493,1.600 350.684 C 2.286 350.863,2.400 351.230,2.400 353.247 C 2.400 355.067,2.581 355.781,3.200 356.400 C 3.695 356.895,4.000 357.733,4.000 358.600 C 4.000 359.733,4.152 360.000,4.800 360.000 C 5.505 360.000,5.600 360.267,5.600 362.237 C 5.600 364.138,5.720 364.506,6.400 364.684 C 7.006 364.843,7.200 365.230,7.200 366.284 C 7.200 367.338,7.394 367.725,8.000 367.884 C 8.574 368.034,8.800 368.430,8.800 369.284 C 8.800 370.138,9.026 370.534,9.600 370.684 C 10.060 370.804,10.400 371.230,10.400 371.684 C 10.400 372.138,10.740 372.564,11.200 372.684 C 11.769 372.833,12.000 373.230,12.000 374.059 C 12.000 374.727,12.257 375.324,12.600 375.455 C 12.930 375.582,13.200 375.953,13.200 376.280 C 13.200 376.607,13.560 376.969,14.000 377.084 C 14.440 377.199,14.800 377.559,14.800 377.884 C 14.800 378.209,15.160 378.569,15.600 378.684 C 16.043 378.800,16.400 379.230,16.400 379.647 C 16.400 380.133,16.683 380.400,17.200 380.400 C 17.733 380.400,18.000 380.667,18.000 381.200 C 18.000 381.733,18.267 382.000,18.800 382.000 C 19.333 382.000,19.600 382.267,19.600 382.800 C 19.600 383.333,19.867 383.600,20.400 383.600 C 20.933 383.600,21.200 383.867,21.200 384.400 C 21.200 384.933,21.467 385.200,22.000 385.200 C 22.533 385.200,22.800 385.467,22.800 386.000 C 22.800 386.537,23.067 386.800,23.613 386.800 C 24.059 386.800,24.527 387.065,24.651 387.389 C 24.776 387.713,25.490 388.093,26.239 388.234 C 27.060 388.388,27.600 388.724,27.600 389.082 C 27.600 389.408,27.948 389.766,28.372 389.877 C 28.797 389.988,29.235 390.314,29.345 390.602 C 29.456 390.889,30.110 391.249,30.800 391.400 C 31.490 391.551,32.151 391.928,32.270 392.238 C 32.394 392.562,33.039 392.800,33.796 392.800 C 34.770 392.800,35.160 393.005,35.316 393.600 C 35.494 394.280,35.862 394.400,37.763 394.400 C 39.733 394.400,40.000 394.495,40.000 395.200 C 40.000 395.867,40.267 396.000,41.600 396.000 C 42.933 396.000,43.200 396.133,43.200 396.800 C 43.200 397.530,43.467 397.600,46.237 397.600 C 48.938 397.600,49.298 397.689,49.484 398.400 C 49.675 399.128,50.030 399.200,53.447 399.200 C 55.682 399.200,57.200 399.362,57.200 399.600 C 57.200 399.866,105.067 400.000,200.000 400.000 C 294.933 400.000,342.800 399.866,342.800 399.600 C 342.800 399.361,344.346 399.200,346.637 399.200 C 350.138 399.200,350.493 399.130,350.684 398.400 C 350.869 397.693,351.230 397.600,353.800 397.600 C 356.370 397.600,356.731 397.507,356.916 396.800 C 357.076 396.187,357.462 396.000,358.563 396.000 C 359.733 396.000,360.000 395.852,360.000 395.200 C 360.000 394.489,360.267 394.400,362.400 394.400 C 364.533 394.400,364.800 394.311,364.800 393.600 C 364.800 392.951,365.067 392.800,366.213 392.800 C 367.099 392.800,367.711 392.577,367.855 392.200 C 367.982 391.870,368.426 391.600,368.843 391.600 C 369.259 391.600,369.960 391.240,370.400 390.800 C 370.840 390.360,371.487 390.000,371.837 390.000 C 372.188 390.000,372.566 389.650,372.678 389.223 C 372.798 388.765,373.370 388.338,374.068 388.185 C 374.720 388.042,375.351 387.672,375.470 387.362 C 375.588 387.053,376.026 386.800,376.443 386.800 C 376.933 386.800,377.200 386.518,377.200 386.000 C 377.200 385.467,377.467 385.200,378.000 385.200 C 378.533 385.200,378.800 384.933,378.800 384.400 C 378.800 383.867,379.067 383.600,379.600 383.600 C 380.133 383.600,380.400 383.333,380.400 382.800 C 380.400 382.267,380.667 382.000,381.200 382.000 C 381.733 382.000,382.000 381.733,382.000 381.200 C 382.000 380.667,382.267 380.400,382.800 380.400 C 383.333 380.400,383.600 380.133,383.600 379.600 C 383.600 379.067,383.867 378.800,384.400 378.800 C 384.933 378.800,385.200 378.533,385.200 378.000 C 385.200 377.467,385.467 377.200,386.000 377.200 C 386.518 377.200,386.800 376.933,386.800 376.443 C 386.800 376.026,387.053 375.588,387.362 375.470 C 387.672 375.351,388.042 374.720,388.185 374.068 C 388.338 373.370,388.765 372.798,389.223 372.678 C 389.650 372.566,390.000 372.188,390.000 371.837 C 390.000 371.487,390.360 370.840,390.800 370.400 C 391.240 369.960,391.600 369.169,391.600 368.643 C 391.600 368.116,391.870 367.582,392.200 367.455 C 392.535 367.327,392.800 366.732,392.800 366.109 C 392.800 365.426,393.110 364.799,393.600 364.493 C 394.226 364.102,394.400 363.560,394.400 361.997 C 394.400 360.267,394.507 360.000,395.200 360.000 C 395.867 360.000,396.000 359.733,396.000 358.400 C 396.000 357.299,396.174 356.800,396.557 356.800 C 397.338 356.800,397.600 355.898,397.600 353.214 C 397.600 351.230,397.716 350.863,398.400 350.684 C 399.130 350.493,399.200 350.138,399.200 346.637 C 399.200 344.346,399.361 342.800,399.600 342.800 C 399.866 342.800,400.000 294.933,400.000 200.000 C 400.000 105.067,399.866 57.200,399.600 57.200 C 399.362 57.200,399.200 55.682,399.200 53.447 C 399.200 50.030,399.128 49.675,398.400 49.484 C 397.702 49.302,397.600 48.938,397.600 46.641 C 397.600 44.440,397.468 43.925,396.800 43.507 C 396.230 43.151,396.000 42.574,396.000 41.504 C 396.000 40.267,395.858 40.000,395.200 40.000 C 394.495 40.000,394.400 39.733,394.400 37.763 C 394.400 35.862,394.280 35.494,393.600 35.316 C 393.005 35.160,392.800 34.770,392.800 33.796 C 392.800 33.000,392.564 32.395,392.200 32.255 C 391.870 32.129,391.600 31.659,391.600 31.213 C 391.600 30.766,391.271 30.071,390.869 29.669 C 390.468 29.268,390.023 28.638,389.882 28.269 C 389.741 27.901,389.369 27.600,389.057 27.600 C 388.728 27.600,388.382 27.028,388.234 26.239 C 388.093 25.490,387.713 24.776,387.389 24.651 C 387.065 24.527,386.800 24.059,386.800 23.613 C 386.800 23.067,386.537 22.800,386.000 22.800 C 385.467 22.800,385.200 22.533,385.200 22.000 C 385.200 21.467,384.933 21.200,384.400 21.200 C 383.867 21.200,383.600 20.933,383.600 20.400 C 383.600 19.867,383.333 19.600,382.800 19.600 C 382.267 19.600,382.000 19.333,382.000 18.800 C 382.000 18.267,381.733 18.000,381.200 18.000 C 380.667 18.000,380.400 17.733,380.400 17.200 C 380.400 16.667,380.133 16.400,379.600 16.400 C 379.067 16.400,378.800 16.133,378.800 15.600 C 378.800 15.083,378.533 14.800,378.047 14.800 C 377.630 14.800,377.200 14.443,377.084 14.000 C 376.969 13.560,376.607 13.200,376.280 13.200 C 375.953 13.200,375.582 12.930,375.455 12.600 C 375.324 12.257,374.727 12.000,374.059 12.000 C 373.230 12.000,372.833 11.769,372.684 11.200 C 372.564 10.740,372.138 10.400,371.684 10.400 C 371.230 10.400,370.804 10.060,370.684 9.600 C 370.536 9.034,370.138 8.800,369.326 8.800 C 368.673 8.800,367.883 8.455,367.493 8.000 C 367.116 7.560,366.399 7.200,365.900 7.200 C 365.401 7.200,364.768 6.840,364.493 6.400 C 364.102 5.774,363.560 5.600,361.997 5.600 C 360.267 5.600,360.000 5.493,360.000 4.800 C 360.000 4.099,359.733 4.000,357.847 4.000 C 356.030 4.000,355.661 3.875,355.484 3.200 C 355.307 2.523,354.938 2.400,353.084 2.400 C 351.230 2.400,350.861 2.277,350.684 1.600 C 350.493 0.870,350.138 0.800,346.637 0.800 C 344.346 0.800,342.800 0.639,342.800 0.400 C 342.800 0.134,294.933 0.000,200.000 0.000 C 105.067 0.000,57.200 0.134,57.200 0.400 M214.000 50.389 C 223.302 50.984,230.189 51.654,232.800 52.219 C 234.230 52.528,236.210 52.889,237.200 53.020 C 239.530 53.330,246.725 54.700,249.800 55.418 C 251.120 55.727,252.918 56.102,253.796 56.252 C 254.674 56.402,256.114 56.853,256.996 57.254 C 257.878 57.655,259.140 57.985,259.800 57.989 C 260.460 57.993,261.810 58.258,262.800 58.578 C 263.790 58.898,266.580 59.808,269.000 60.599 C 271.420 61.391,274.030 62.193,274.800 62.383 C 276.094 62.700,277.869 63.363,289.600 67.904 C 296.732 70.666,307.974 76.102,314.200 79.799 C 315.080 80.322,316.970 81.395,318.400 82.184 C 319.830 82.973,322.440 84.602,324.200 85.803 C 330.430 90.056,331.030 90.461,334.000 92.412 C 338.609 95.440,339.344 96.117,339.044 97.061 C 338.839 97.708,323.876 113.080,320.480 116.133 C 319.585 116.937,317.593 116.304,315.200 114.453 C 313.319 112.998,305.833 108.159,302.927 106.519 C 297.627 103.528,292.002 100.527,291.000 100.155 C 290.340 99.910,287.958 98.785,285.707 97.655 C 283.456 96.525,281.404 95.600,281.147 95.600 C 280.890 95.600,279.672 95.128,278.440 94.550 C 274.300 92.610,273.809 92.414,271.000 91.570 C 269.460 91.108,267.480 90.412,266.600 90.025 C 264.117 88.930,261.355 88.050,257.000 86.964 C 254.800 86.415,252.157 85.614,251.126 85.183 C 250.095 84.752,248.694 84.400,248.013 84.400 C 247.332 84.400,246.178 84.151,245.450 83.847 C 244.721 83.542,242.972 83.175,241.563 83.030 C 240.153 82.885,237.830 82.508,236.400 82.193 C 229.041 80.569,216.901 79.216,204.000 78.580 C 194.521 78.112,176.745 79.630,163.800 82.012 C 161.600 82.417,158.828 82.871,157.639 83.020 C 156.450 83.170,154.881 83.541,154.152 83.846 C 153.422 84.151,152.235 84.401,151.513 84.402 C 150.791 84.404,149.707 84.662,149.105 84.976 C 148.503 85.290,145.983 86.027,143.505 86.614 C 141.027 87.200,138.460 87.932,137.800 88.239 C 137.140 88.546,135.970 88.912,135.200 89.053 C 134.430 89.194,133.530 89.531,133.200 89.801 C 132.870 90.071,131.250 90.692,129.600 91.182 C 127.950 91.671,126.060 92.311,125.400 92.603 C 122.207 94.017,119.994 94.942,117.800 95.778 C 116.480 96.281,114.155 97.343,112.633 98.137 C 111.111 98.932,109.242 99.788,108.481 100.039 C 107.720 100.291,105.545 101.394,103.648 102.492 C 101.752 103.590,99.777 104.651,99.260 104.850 C 98.742 105.048,97.392 105.808,96.260 106.538 C 95.127 107.267,92.850 108.657,91.200 109.626 C 89.550 110.594,88.142 111.519,88.071 111.681 C 88.000 111.842,86.920 112.556,85.671 113.266 C 84.422 113.976,83.220 114.783,83.000 115.060 C 82.374 115.849,80.491 116.408,79.588 116.074 C 78.317 115.604,60.400 97.528,60.400 96.716 C 60.400 96.075,66.771 91.503,73.941 87.000 C 74.992 86.340,76.586 85.215,77.483 84.500 C 78.381 83.785,79.240 83.200,79.393 83.200 C 79.546 83.200,82.172 81.765,85.228 80.012 C 93.020 75.542,102.863 70.805,111.270 67.482 C 118.891 64.470,120.913 63.707,123.200 62.983 C 124.410 62.601,125.760 62.100,126.200 61.872 C 126.640 61.644,127.900 61.228,129.000 60.949 C 130.100 60.669,132.530 59.968,134.400 59.391 C 136.270 58.814,138.610 58.191,139.600 58.006 C 140.590 57.821,141.940 57.385,142.600 57.037 C 143.260 56.689,144.224 56.404,144.742 56.402 C 145.261 56.401,146.791 56.113,148.142 55.762 C 149.494 55.412,151.950 54.890,153.600 54.602 C 159.062 53.650,161.771 53.145,164.400 52.590 C 165.830 52.287,167.990 51.943,169.200 51.824 C 181.126 50.651,184.181 50.379,186.600 50.276 C 192.660 50.018,209.266 50.086,214.000 50.389 M339.918 116.201 C 340.252 116.488,339.057 134.180,338.549 136.480 C 338.223 137.954,337.862 140.474,337.747 142.080 C 337.632 143.686,337.290 146.260,336.989 147.800 C 336.687 149.340,336.327 152.040,336.188 153.800 C 336.050 155.560,335.393 159.160,334.728 161.800 C 334.064 164.440,333.371 167.568,333.188 168.750 C 333.005 169.933,332.668 171.373,332.440 171.950 C 332.212 172.528,331.741 174.680,331.394 176.733 C 331.048 178.787,330.425 181.397,330.011 182.533 C 329.025 185.239,326.943 192.220,326.592 194.000 C 326.440 194.770,326.073 195.940,325.776 196.600 C 325.211 197.856,324.897 198.703,322.816 204.600 C 322.117 206.580,321.288 208.767,320.973 209.460 C 320.658 210.154,320.400 210.928,320.400 211.181 C 320.400 211.434,320.043 212.307,319.606 213.121 C 319.170 213.934,318.339 215.680,317.760 217.000 C 317.181 218.320,315.849 221.200,314.801 223.400 C 313.752 225.600,312.412 228.480,311.823 229.800 C 311.233 231.120,310.593 232.470,310.400 232.800 C 310.207 233.130,309.408 234.660,308.624 236.200 C 307.038 239.317,305.815 241.507,302.354 247.428 C 301.059 249.643,300.000 251.595,300.000 251.766 C 300.000 252.127,296.073 258.143,293.189 262.200 C 291.025 265.244,290.409 266.129,287.410 270.499 C 285.229 273.678,282.331 277.685,281.985 278.000 C 281.608 278.343,275.900 285.148,273.800 287.758 C 272.700 289.125,271.378 290.684,270.862 291.222 C 270.346 291.760,269.423 292.920,268.811 293.800 C 267.386 295.848,248.076 314.814,243.605 318.557 C 239.971 321.600,226.401 332.472,224.581 333.800 C 219.123 337.781,204.424 347.476,201.749 348.858 C 199.671 349.933,199.046 349.773,194.911 347.115 C 193.102 345.952,190.431 344.280,188.976 343.400 C 187.520 342.520,184.951 340.823,183.265 339.630 C 181.579 338.436,179.120 336.738,177.800 335.855 C 175.629 334.403,170.150 330.242,166.957 327.621 C 166.273 327.059,165.283 326.247,164.757 325.815 C 164.231 325.384,161.460 323.145,158.600 320.841 C 155.740 318.537,149.648 312.950,145.063 308.426 C 132.606 296.135,131.839 295.319,127.000 289.219 C 126.340 288.387,123.952 285.564,121.694 282.947 C 117.705 278.324,116.402 276.632,112.642 271.200 C 111.652 269.770,109.580 266.800,108.037 264.600 C 106.494 262.400,104.745 259.790,104.150 258.800 C 103.554 257.810,102.489 256.280,101.782 255.400 C 101.076 254.520,100.378 253.411,100.233 252.935 C 100.087 252.459,99.120 250.622,98.084 248.853 C 97.048 247.084,95.480 244.333,94.600 242.739 C 93.720 241.144,92.317 238.661,91.483 237.220 C 90.648 235.779,89.774 234.150,89.540 233.600 C 89.306 233.050,88.952 232.330,88.754 232.000 C 88.412 231.430,88.223 231.019,87.003 228.200 C 86.718 227.540,85.766 225.470,84.887 223.600 C 83.495 220.637,80.198 213.351,79.185 211.000 C 78.996 210.560,78.304 208.670,77.649 206.800 C 76.993 204.930,75.832 201.690,75.067 199.600 C 74.303 197.510,73.007 193.550,72.187 190.800 C 71.368 188.050,70.363 184.720,69.954 183.400 C 69.545 182.080,68.959 179.740,68.651 178.200 C 68.093 175.413,67.253 171.791,66.193 167.600 C 65.206 163.699,64.436 159.876,63.977 156.600 C 63.731 154.840,63.278 152.320,62.971 151.000 C 62.663 149.680,62.409 147.458,62.406 146.062 C 62.403 144.665,62.139 142.595,61.819 141.462 C 60.548 136.952,59.331 116.435,60.314 116.099 C 60.895 115.901,61.651 116.654,70.600 126.352 C 81.478 138.140,82.373 139.207,82.853 140.964 C 83.099 141.864,83.548 143.167,83.850 143.860 C 84.153 144.554,84.400 145.765,84.400 146.552 C 84.400 147.340,84.674 148.668,85.008 149.504 C 85.343 150.340,85.873 152.459,86.188 154.212 C 87.192 159.818,88.031 163.113,89.646 167.800 C 89.873 168.460,90.581 170.905,91.219 173.233 C 91.856 175.561,92.652 177.991,92.987 178.633 C 93.321 179.275,93.596 180.034,93.598 180.320 C 93.599 180.606,93.889 181.399,94.243 182.083 C 94.597 182.767,95.234 184.583,95.659 186.117 C 96.085 187.652,97.235 190.614,98.216 192.700 C 99.197 194.785,100.000 196.710,100.000 196.978 C 100.000 198.074,104.895 208.500,109.465 217.140 C 110.821 219.703,112.518 222.970,113.238 224.400 C 114.511 226.930,115.913 229.183,116.480 229.611 C 116.634 229.728,116.904 230.178,117.080 230.611 C 117.858 232.529,126.859 246.369,130.469 251.200 C 132.337 253.699,142.611 266.578,143.361 267.362 C 143.823 267.843,145.369 269.579,146.798 271.219 C 151.688 276.829,162.942 288.169,167.614 292.194 C 168.376 292.850,170.653 294.830,172.674 296.594 C 179.223 302.308,192.220 312.177,198.339 316.080 C 199.695 316.945,200.974 316.378,206.200 312.596 C 208.180 311.164,210.790 309.279,212.000 308.408 C 213.210 307.537,215.460 305.825,217.000 304.604 C 218.540 303.383,220.970 301.474,222.400 300.362 C 236.332 289.528,259.440 264.918,270.063 249.600 C 271.207 247.950,273.088 245.250,274.244 243.600 C 275.399 241.950,277.197 239.160,278.239 237.400 C 279.281 235.640,280.443 233.840,280.821 233.400 C 281.200 232.960,281.907 231.809,282.392 230.843 C 282.877 229.876,283.843 228.251,284.537 227.231 C 285.232 226.211,286.223 224.482,286.740 223.388 C 287.257 222.295,287.839 221.130,288.034 220.800 C 288.229 220.470,288.719 219.570,289.123 218.800 C 289.526 218.030,290.972 215.285,292.335 212.699 C 293.697 210.114,295.183 207.054,295.636 205.899 C 296.089 204.745,297.241 202.000,298.197 199.800 C 302.699 189.435,303.591 187.235,304.193 185.000 C 304.549 183.680,305.191 181.745,305.620 180.700 C 306.049 179.655,306.749 177.945,307.176 176.900 C 307.602 175.855,308.340 173.290,308.814 171.200 C 309.288 169.110,309.914 166.770,310.204 166.000 C 311.429 162.747,312.085 160.419,312.591 157.519 C 312.887 155.824,313.227 154.280,313.346 154.087 C 313.465 153.894,313.761 152.491,314.002 150.968 C 314.244 149.446,314.703 147.429,315.021 146.486 C 315.339 145.543,315.600 144.317,315.600 143.760 C 315.600 142.140,317.367 138.753,319.255 136.752 C 320.215 135.735,322.260 133.491,323.800 131.765 C 325.340 130.039,327.971 127.181,329.647 125.414 C 333.317 121.543,336.671 117.732,337.499 116.490 C 338.030 115.692,339.169 115.556,339.918 116.201 M215.600 117.241 C 219.230 117.469,222.830 117.809,223.600 117.996 C 224.370 118.183,225.986 118.463,227.192 118.618 C 228.397 118.773,230.041 119.132,230.843 119.415 C 231.646 119.699,233.360 120.058,234.652 120.214 C 235.943 120.370,237.720 120.731,238.600 121.015 C 239.480 121.299,241.280 121.747,242.600 122.011 C 244.775 122.445,250.347 124.113,253.400 125.243 C 254.060 125.487,255.680 126.015,257.000 126.416 C 259.423 127.152,265.302 129.564,267.262 130.625 C 267.846 130.941,268.568 131.200,268.868 131.200 C 269.167 131.200,270.129 131.585,271.006 132.056 C 271.883 132.528,274.823 134.046,277.540 135.430 C 280.257 136.815,282.777 138.190,283.140 138.487 C 283.503 138.783,284.610 139.455,285.600 139.980 C 286.590 140.505,287.829 141.264,288.354 141.667 C 288.879 142.070,289.549 142.400,289.844 142.400 C 290.661 142.400,291.606 144.489,291.153 145.297 C 290.178 147.040,272.553 163.999,271.717 164.000 C 271.231 164.000,269.341 163.189,267.517 162.198 C 264.202 160.397,261.645 159.128,256.000 156.484 C 253.180 155.164,245.912 152.456,242.800 151.566 C 242.030 151.346,240.770 150.910,240.000 150.598 C 239.230 150.286,236.479 149.567,233.887 149.001 C 231.295 148.434,228.775 147.800,228.287 147.591 C 227.799 147.382,225.960 147.043,224.200 146.837 C 222.440 146.631,219.380 146.197,217.400 145.873 C 209.247 144.538,184.837 144.725,179.761 146.162 C 178.682 146.467,176.750 146.829,175.468 146.966 C 174.185 147.103,172.115 147.474,170.868 147.791 C 169.620 148.108,166.890 148.751,164.800 149.220 C 160.186 150.255,150.310 153.555,145.400 155.702 C 143.420 156.567,140.939 157.620,139.887 158.041 C 138.834 158.462,137.304 159.229,136.487 159.745 C 133.682 161.515,128.630 164.000,127.835 164.000 C 127.091 164.000,109.248 146.714,108.392 145.165 C 107.756 144.014,108.408 142.992,110.342 142.104 C 111.384 141.626,112.884 140.796,113.677 140.258 C 114.469 139.720,115.496 139.160,115.959 139.013 C 116.421 138.866,116.800 138.612,116.800 138.447 C 116.800 138.283,118.645 137.202,120.900 136.045 C 123.155 134.888,125.270 133.786,125.600 133.596 C 130.892 130.542,150.093 123.469,157.600 121.809 C 162.643 120.693,164.226 120.336,166.800 119.732 C 179.246 116.813,195.538 115.981,215.600 117.241 M213.000 183.203 C 214.320 183.427,217.170 183.880,219.333 184.210 C 223.320 184.819,224.808 185.221,233.400 188.013 C 243.669 191.350,244.266 192.109,240.072 196.493 C 227.685 209.442,200.413 236.055,199.653 235.935 C 198.839 235.805,157.559 194.972,156.754 193.500 C 156.178 192.446,156.971 191.336,158.697 190.780 C 159.524 190.514,160.380 190.160,160.600 189.994 C 161.157 189.574,172.878 185.757,175.800 185.044 C 185.463 182.687,204.417 181.749,213.000 183.203 " stroke="none" fill="#2cd3ad" fill-rule="evenodd"></path></g></svg>