<?xml version="1.0" standalone="no"?><!DOCTYPE svg PUBLIC "-//W3C//DTD SVG 1.1//EN" "http://www.w3.org/Graphics/SVG/1.1/DTD/svg11.dtd"><svg t="1707725613673" class="icon" viewBox="0 0 1024 1024" version="1.1" xmlns="http://www.w3.org/2000/svg" p-id="91487" xmlns:xlink="http://www.w3.org/1999/xlink" width="48" height="48"><path d="M128 0h768q128 0 128 128v768q0 128-128 128H128Q0 1024 0 896V128Q0 0 128 0z" fill="#E1017E" p-id="91488"></path><path d="M400.64 381.013h215.467v86.827a25.173 25.173 0 0 1-26.667 24.747h-188.8z m178.773 92.8c5.334 0 7.894-2.346 7.894-7.466v-66.56h-158.08v74.026H578.56M512.427 508.8H636.8v91.947a37.76 37.76 0 0 1-39.467 33.92h-83.2z m80 108.587c4.906 0 12.16-5.12 12.16-10.027v-81.28h-61.654v91.307h50.347M373.12 508.8h124.587v91.947a37.973 37.973 0 0 1-41.387 33.92h-83.2z m80 108.587c4.907 0 12.16-5.12 12.16-10.027v-81.28h-62.507v91.307h50.347M236.587 382.72h28.16v249.387h-28.16V382.293m-83.414 52.267l-21.333 19.627v125.226a28.373 28.373 0 0 1-28.8 25.387H42.667V393.6h88.96v21.333a213.333 213.333 0 0 0 35.626-33.066h41.387l-22.827 23.466v236.8h-32.64V434.56zM92.16 590.293c1.92 0 11.947-1.92 11.947-9.173V411.733H69.973v178.56h21.334" fill="#FFFFFF" p-id="91489"></path><path d="M180.053 426.667H320V407.04H180.053z m0 68.906H320v-19.626H180.053z m0 68.907H320v-19.627H180.053z m0 70.4H320v-19.627H180.053zM805.12 382.507h43.947c43.946 40.106 132.266 117.76 132.266 117.76h-40.106c-28.16-23.894-62.934-52.48-106.667-94.934a9.813 9.813 0 0 0-5.76-2.773 13.867 13.867 0 0 0-6.827 3.84c-44.586 42.667-64 59.307-106.666 94.293h-41.174c72.32-64 113.067-102.4 130.987-117.973M690.56 544.64h275.413v-22.4H690.56z" fill="#FFFFFF" p-id="91490"></path><path d="M952.533 487.253h-252.8l36.054-22.4H926.08l26.453 22.4m-205.866 53.334l-37.12 93.013h214.826s29.44-5.333 23.254-27.093a412.373 412.373 0 0 0-14.507-40.32h-32a300.587 300.587 0 0 1 12.373 38.826 11.307 11.307 0 0 1-11.306 10.88H752.853l26.027-74.88h-32.427" fill="#FFFFFF" p-id="91491"></path></svg>