<?xml version="1.0" standalone="no"?><!DOCTYPE svg PUBLIC "-//W3C//DTD SVG 1.1//EN" "http://www.w3.org/Graphics/SVG/1.1/DTD/svg11.dtd"><svg t="1707712845416" class="icon" viewBox="0 0 1024 1024" version="1.1" xmlns="http://www.w3.org/2000/svg" p-id="38129" xmlns:xlink="http://www.w3.org/1999/xlink" width="48" height="48"><path d="M600.32 758.016l-68.1472-140.6976 57.1392-120.832 65.9456 136.192 136.2944-285.696c2.1504-6.6048 0-15.36-6.656-17.6128-2.1504 0-4.352-2.1504-6.5536-2.1504h-149.504l-206.592 430.7968c-13.1584 30.72-48.3328 43.9296-79.104 32.9728a64.6144 64.6144 0 0 1-32.9728-30.7712v-2.2016L94.7712 303.0016c-13.2096-26.368 0-59.3408 26.368-72.4992 8.8064-2.2016 17.6128-4.4032 24.1664-4.4032h259.3792c32.9728 0 61.5424 17.5616 76.9536 46.1312l10.9568 22.016-57.1392 120.832-35.1744-72.4992a29.7984 29.7984 0 0 0-24.1664-15.36H244.224a14.1824 14.1824 0 0 0-13.1584 13.1584c0 2.2016 0 4.4032 2.2016 6.6048l136.2432 285.696 142.848-296.704 30.8224-61.5424c13.1584-30.72 41.728-48.3328 74.752-48.3328h261.5296c30.72 0 54.9376 24.1664 54.9376 54.9376 0 8.8064-2.2016 15.36-4.4032 24.1664l-217.6 455.0144c-13.1584 30.72-48.3328 46.1312-79.104 32.9216a58.1632 58.1632 0 0 1-32.9728-35.1232z" fill="#FF1522" p-id="38130"></path></svg>