<svg id="svg" version="1.1" xmlns="http://www.w3.org/2000/svg" xmlns:xlink="http://www.w3.org/1999/xlink" width="46" height="46" viewBox="0 0 400 400"><g id="svgg"><path id="path0" d="M64.019 86.959 C 61.298 87.444,58.025 89.992,57.365 92.136 C 57.219 92.611,56.267 93.981,55.250 95.181 C 52.315 98.640,50.000 101.706,50.000 102.132 C 50.000 102.348,49.155 103.802,48.123 105.362 C 44.676 110.572,44.400 111.040,44.400 111.660 C 44.400 111.999,44.040 112.602,43.600 113.000 C 43.160 113.398,42.800 114.013,42.800 114.365 C 42.800 114.718,42.350 115.852,41.800 116.885 C 41.250 117.918,40.800 119.377,40.800 120.128 C 40.800 120.897,40.443 121.946,39.981 122.533 C 38.213 124.781,38.221 130.830,39.996 133.085 C 40.438 133.648,40.800 134.579,40.799 135.154 C 40.798 136.454,46.627 142.181,48.308 142.530 C 51.335 143.160,53.399 150.672,51.331 153.532 C 50.906 154.119,50.049 156.183,49.426 158.118 C 48.397 161.316,48.049 161.887,45.593 164.407 C 44.107 165.932,42.767 167.678,42.615 168.289 C 42.462 168.900,42.060 169.709,41.720 170.086 C 41.026 170.856,40.253 173.980,40.307 175.800 C 40.445 180.504,41.087 185.516,41.664 186.400 C 42.023 186.950,42.443 187.822,42.597 188.338 C 43.256 190.540,46.114 193.954,48.000 194.791 C 48.550 195.035,49.450 195.494,50.000 195.811 C 50.657 196.190,52.183 196.390,54.452 196.394 C 57.996 196.400,58.292 196.486,64.226 199.244 C 66.248 200.184,66.646 200.183,69.498 199.235 C 70.764 198.815,73.240 198.358,75.000 198.220 C 77.241 198.045,78.525 197.734,79.284 197.185 C 79.880 196.753,80.526 196.400,80.720 196.400 C 80.914 196.400,82.217 195.208,83.616 193.752 C 85.014 192.296,87.048 190.492,88.136 189.744 C 89.224 188.995,90.674 187.828,91.357 187.149 C 92.041 186.470,93.050 185.620,93.600 185.259 C 97.794 182.507,99.501 175.956,97.264 171.200 C 96.678 169.954,96.415 168.599,96.409 166.797 C 96.404 165.366,96.227 163.656,96.015 162.997 C 94.815 159.264,94.021 157.543,92.782 155.993 C 92.022 155.042,91.040 153.529,90.600 152.632 C 90.160 151.734,89.236 150.640,88.546 150.200 C 86.343 148.795,84.647 142.089,86.174 140.821 C 86.490 140.559,86.861 139.833,86.998 139.207 C 87.247 138.077,90.416 135.200,91.412 135.200 C 91.676 135.200,92.321 134.867,92.846 134.461 C 93.371 134.055,94.289 133.603,94.886 133.457 C 97.480 132.824,99.144 129.454,98.555 126.028 C 98.382 125.023,98.231 122.930,98.220 121.377 C 98.189 117.053,95.037 113.522,90.556 112.793 C 89.297 112.588,87.398 112.131,86.335 111.778 C 84.259 111.089,82.375 111.266,81.579 112.226 C 81.317 112.542,80.529 112.800,79.829 112.800 C 76.221 112.800,74.912 116.970,77.736 119.466 C 80.634 122.027,80.890 124.144,78.620 126.800 C 78.338 127.130,77.991 127.892,77.848 128.493 C 77.705 129.095,76.781 130.496,75.794 131.607 C 74.807 132.718,74.000 133.882,74.000 134.194 C 74.000 134.506,72.847 135.406,71.438 136.194 C 70.029 136.982,68.657 137.890,68.389 138.213 C 67.709 139.033,65.605 138.944,63.544 138.009 C 62.585 137.574,61.473 137.214,61.073 137.209 C 60.117 137.197,56.239 133.450,54.986 131.329 C 53.805 129.326,53.767 128.626,54.743 126.794 C 55.152 126.027,55.614 124.534,55.771 123.475 C 56.047 121.616,56.964 119.639,58.476 117.646 C 58.874 117.121,59.200 116.381,59.200 116.001 C 59.200 115.423,60.186 113.903,61.941 111.775 C 62.619 110.953,63.200 109.645,63.207 108.926 C 63.211 108.527,63.661 107.776,64.207 107.258 C 64.753 106.740,65.200 106.155,65.200 105.958 C 65.200 105.761,65.714 105.600,66.342 105.600 C 67.005 105.600,67.935 105.181,68.562 104.600 C 69.424 103.801,70.059 103.599,71.721 103.597 C 73.123 103.596,74.191 103.336,75.000 102.800 C 75.757 102.299,76.877 102.004,78.034 102.003 C 80.707 101.999,83.457 99.824,83.816 97.433 C 84.665 91.771,79.936 87.166,73.063 86.963 C 71.118 86.905,68.868 86.777,68.063 86.678 C 67.258 86.579,65.438 86.706,64.019 86.959 M283.600 87.161 C 282.390 87.333,280.860 87.748,280.200 88.082 C 279.530 88.421,277.275 88.806,275.093 88.953 C 272.718 89.114,270.399 89.527,269.178 90.009 C 268.074 90.444,266.862 90.805,266.485 90.812 C 266.108 90.818,265.260 91.326,264.600 91.941 C 260.315 95.929,260.141 100.009,264.129 102.963 C 265.800 104.201,274.774 104.166,276.896 102.914 C 277.669 102.458,278.908 101.956,279.651 101.798 C 280.393 101.640,281.336 101.216,281.746 100.855 C 282.593 100.112,311.151 100.084,315.316 100.823 C 316.462 101.026,319.110 101.398,321.200 101.650 C 323.290 101.902,325.270 102.331,325.600 102.605 C 325.930 102.879,326.830 103.420,327.600 103.808 C 328.370 104.195,329.090 104.626,329.200 104.765 C 329.310 104.904,329.850 105.309,330.400 105.663 C 330.950 106.018,331.850 107.183,332.400 108.254 C 332.950 109.324,333.779 110.677,334.241 111.261 C 334.894 112.084,335.130 113.086,335.295 115.727 C 335.432 117.918,335.738 119.461,336.154 120.055 C 337.016 121.286,337.061 128.200,336.220 130.213 C 335.901 130.977,335.455 132.606,335.228 133.834 C 334.480 137.877,330.516 140.756,326.443 140.214 C 323.992 139.888,315.255 140.944,313.685 141.756 C 311.991 142.632,307.255 142.617,305.287 141.729 C 303.010 140.702,290.501 140.467,288.000 141.405 C 283.665 143.031,276.338 143.694,271.826 142.868 C 269.251 142.397,265.200 140.377,265.200 139.563 C 265.200 139.397,264.762 138.740,264.226 138.104 C 263.690 137.467,263.121 136.418,262.962 135.773 C 262.803 135.128,262.331 133.941,261.914 133.136 C 261.209 131.773,261.165 130.795,261.278 119.122 C 261.411 105.462,261.541 106.400,259.096 103.439 C 256.184 99.912,249.060 103.237,248.145 108.550 C 248.026 109.237,247.675 110.481,247.363 111.312 C 246.548 113.488,246.402 126.929,247.175 128.600 C 247.556 129.423,247.804 132.215,247.965 137.495 L 248.200 145.191 250.879 147.843 C 252.410 149.359,253.662 150.973,253.803 151.612 C 254.087 152.908,257.290 155.595,258.566 155.609 C 259.025 155.614,260.169 155.966,261.108 156.393 C 263.662 157.552,268.163 157.845,270.400 156.997 C 273.919 155.664,276.800 155.731,276.800 157.146 C 276.800 158.924,273.311 163.200,271.861 163.200 C 271.566 163.200,270.998 163.560,270.600 164.000 C 270.202 164.440,269.499 164.803,269.038 164.806 C 268.577 164.809,267.819 165.034,267.354 165.306 C 265.322 166.493,263.286 167.699,261.800 168.594 C 259.273 170.118,258.464 170.400,256.628 170.400 C 255.595 170.400,254.527 170.687,253.954 171.117 C 253.429 171.512,252.031 172.326,250.846 172.926 L 248.693 174.017 240.811 173.909 L 232.930 173.801 231.240 174.972 C 227.134 177.817,226.362 181.161,228.936 184.947 C 231.229 188.321,237.057 189.688,240.880 187.748 C 241.474 187.447,243.004 187.199,244.280 187.198 C 246.830 187.195,249.600 186.570,249.600 185.997 C 249.600 185.795,250.349 185.429,251.264 185.183 C 252.179 184.936,253.352 184.457,253.871 184.117 C 254.471 183.724,256.159 183.424,258.507 183.293 C 261.268 183.138,262.441 182.899,263.154 182.343 C 263.679 181.934,264.340 181.600,264.623 181.600 C 264.907 181.600,265.673 181.150,266.327 180.600 C 266.981 180.050,267.780 179.600,268.104 179.600 C 268.427 179.600,269.136 179.251,269.678 178.825 C 270.220 178.398,271.189 177.920,271.832 177.763 C 273.088 177.454,274.099 176.753,277.090 174.115 C 278.140 173.189,279.462 172.327,280.026 172.200 C 280.590 172.073,281.900 171.121,282.936 170.084 C 292.560 160.458,293.574 159.212,294.566 155.800 C 295.159 153.760,297.499 153.347,300.120 154.819 C 302.054 155.906,305.499 155.777,306.836 154.568 C 308.024 153.492,312.002 153.594,314.185 154.756 C 316.178 155.818,316.450 155.812,320.092 154.623 C 322.847 153.723,323.657 153.649,330.243 153.697 C 336.801 153.745,337.534 153.679,339.000 152.908 C 339.880 152.445,341.050 151.859,341.600 151.606 C 345.741 149.702,348.684 147.043,350.018 144.001 C 350.259 143.451,350.758 142.667,351.128 142.259 C 352.274 140.994,352.132 118.921,350.968 117.334 C 350.360 116.506,349.990 115.011,349.596 111.800 C 349.067 107.480,348.162 104.187,347.214 103.133 C 346.950 102.840,346.074 101.259,345.267 99.620 C 344.064 97.177,343.440 96.403,341.800 95.325 C 340.700 94.601,339.528 93.752,339.196 93.436 C 338.185 92.476,335.185 91.534,331.505 91.021 C 329.362 90.722,327.721 90.271,327.262 89.856 C 325.457 88.223,318.325 87.574,309.161 88.207 C 306.092 88.420,304.928 88.338,303.361 87.801 C 301.139 87.040,287.537 86.599,283.600 87.161 M150.260 97.450 C 149.633 97.790,147.743 98.167,146.060 98.289 C 144.193 98.424,142.381 98.822,141.411 99.309 C 140.036 99.999,139.296 100.078,135.897 99.890 C 133.738 99.771,129.593 99.909,126.686 100.197 C 123.464 100.516,121.137 100.580,120.726 100.360 C 118.779 99.319,113.858 99.945,112.400 101.419 C 111.630 102.197,110.595 103.219,110.100 103.689 C 109.605 104.159,109.200 104.848,109.200 105.218 C 109.200 105.589,108.840 106.350,108.400 106.909 C 107.960 107.469,107.600 108.186,107.600 108.504 C 107.600 108.821,107.181 109.873,106.670 110.840 C 104.422 115.092,104.312 130.615,106.512 133.123 C 106.838 133.496,107.238 134.250,107.400 134.800 C 107.562 135.350,107.978 136.123,108.325 136.517 C 108.671 136.911,109.174 137.811,109.443 138.517 C 111.388 143.630,111.288 142.611,111.307 157.600 C 111.335 179.375,111.122 185.777,110.340 186.664 C 109.983 187.069,109.490 188.354,109.245 189.520 C 109.000 190.686,108.529 192.164,108.197 192.805 C 107.811 193.553,107.506 195.732,107.346 198.885 C 107.156 202.655,106.923 204.091,106.349 205.047 C 105.937 205.733,105.594 206.903,105.587 207.647 C 105.581 208.391,105.132 209.900,104.591 211.000 C 104.050 212.100,103.606 213.275,103.604 213.611 C 103.602 213.947,103.345 214.586,103.033 215.031 C 102.721 215.477,102.346 216.552,102.198 217.420 C 101.764 219.981,101.600 220.346,100.768 220.610 C 100.333 220.748,99.733 221.432,99.434 222.131 C 98.928 223.311,98.891 223.120,98.905 219.400 C 98.950 207.165,95.532 200.000,89.649 200.000 L 87.279 200.000 85.194 202.406 L 83.110 204.813 83.261 208.908 C 83.386 212.277,83.571 213.259,84.306 214.449 C 84.798 215.244,85.200 216.291,85.200 216.776 C 85.200 220.132,91.088 226.000,94.455 226.000 C 96.800 226.000,96.953 226.624,95.391 229.800 C 94.274 232.071,94.101 234.855,94.982 236.400 C 95.295 236.950,95.819 237.974,96.146 238.676 C 96.502 239.442,97.381 240.280,98.343 240.771 C 99.224 241.221,100.059 241.771,100.196 241.994 C 100.533 242.539,104.682 242.515,105.020 241.967 C 105.168 241.729,106.033 241.205,106.944 240.804 C 109.861 239.517,112.491 236.212,113.002 233.189 C 113.160 232.254,113.625 230.748,114.036 229.844 C 114.446 228.940,114.787 227.750,114.793 227.200 C 114.798 226.650,115.187 225.570,115.657 224.800 C 116.197 223.913,116.640 222.249,116.862 220.261 C 117.055 218.535,117.428 216.735,117.689 216.261 C 117.951 215.787,118.385 213.780,118.653 211.800 C 120.790 196.013,121.873 192.300,124.020 193.411 C 124.647 193.735,125.501 194.000,125.918 194.000 C 127.965 194.000,129.552 197.746,128.680 200.514 C 127.810 203.275,127.769 209.244,128.604 211.610 C 128.936 212.551,129.320 214.284,129.459 215.462 C 129.613 216.774,130.037 217.982,130.555 218.583 C 131.020 219.122,131.843 220.114,132.385 220.786 C 132.927 221.459,133.917 222.176,134.585 222.380 C 135.253 222.584,136.585 223.038,137.544 223.389 C 142.084 225.049,146.858 218.048,143.400 214.800 C 142.850 214.283,142.399 213.577,142.398 213.230 C 142.396 212.884,142.126 212.084,141.798 211.454 C 140.968 209.863,140.969 203.125,141.799 201.858 C 142.129 201.355,142.516 199.551,142.660 197.849 C 142.959 194.305,143.702 193.017,145.699 192.578 C 146.408 192.423,147.392 192.031,147.885 191.707 C 149.567 190.605,153.227 190.005,162.200 189.360 C 164.868 189.168,165.752 189.268,167.515 189.965 C 173.058 192.154,180.738 190.456,181.437 186.886 C 182.687 180.502,178.778 176.426,171.361 176.381 C 163.476 176.332,160.496 175.850,158.975 174.375 L 157.577 173.021 157.688 168.260 L 157.800 163.500 160.600 162.517 C 164.854 161.025,174.715 160.702,177.257 161.971 C 179.251 162.967,184.465 167.374,184.865 168.401 C 185.216 169.301,185.276 174.369,185.244 200.400 C 185.221 219.397,185.301 222.500,185.870 224.531 C 186.406 226.443,186.442 227.215,186.071 228.822 C 185.635 230.709,185.679 231.255,186.406 233.000 C 186.589 233.440,186.826 235.163,186.933 236.829 C 187.087 239.223,187.345 240.178,188.164 241.385 C 188.734 242.225,189.200 243.054,189.200 243.227 C 189.200 244.150,193.070 246.175,194.805 246.161 C 197.614 246.137,202.000 243.193,202.000 241.330 C 202.000 241.021,202.360 240.062,202.800 239.200 C 203.913 237.019,203.945 230.119,202.856 227.315 C 202.329 225.957,202.042 223.828,201.868 220.000 C 201.686 215.988,201.415 214.059,200.812 212.496 C 200.365 211.338,200.000 209.716,200.000 208.890 C 200.000 208.064,199.655 206.745,199.234 205.960 C 198.813 205.174,198.340 203.647,198.182 202.566 C 198.024 201.484,197.630 199.926,197.305 199.102 C 196.647 197.432,196.783 193.014,197.610 189.200 C 198.171 186.613,197.911 181.316,197.157 179.951 C 196.669 179.068,196.611 177.015,196.830 168.400 C 196.856 167.410,196.815 165.250,196.739 163.600 C 196.635 161.316,196.759 160.361,197.258 159.600 C 197.922 158.589,198.621 144.798,198.452 136.057 C 198.400 133.328,198.536 132.474,199.194 131.410 C 199.648 130.675,200.000 129.411,200.000 128.515 C 200.000 127.432,200.255 126.693,200.800 126.200 C 205.488 121.958,203.691 110.482,197.819 107.154 C 196.950 106.661,194.823 104.867,193.093 103.167 L 189.947 100.075 186.263 99.938 C 183.175 99.822,182.393 99.654,181.435 98.900 C 180.527 98.185,179.779 98.000,177.796 98.000 C 176.424 98.000,174.535 97.730,173.600 97.400 C 171.429 96.634,166.769 96.636,164.236 97.404 C 161.720 98.168,158.371 98.166,156.538 97.400 C 154.702 96.633,151.724 96.656,150.260 97.450 M154.027 110.391 C 157.736 111.377,162.758 111.437,166.005 110.535 C 168.873 109.737,171.403 110.299,175.847 112.721 C 179.348 114.628,185.190 120.766,185.209 122.556 C 185.214 123.020,185.574 124.185,186.009 125.144 C 187.049 127.435,187.048 131.504,186.006 136.439 C 185.555 138.579,185.210 141.764,185.206 143.829 L 185.200 147.458 183.500 148.573 C 181.813 149.679,181.775 149.684,178.600 149.230 C 176.840 148.979,174.300 148.642,172.956 148.482 C 168.948 148.005,168.557 147.129,169.952 141.758 C 170.622 139.179,171.377 137.713,173.225 135.400 C 173.576 134.960,174.093 133.790,174.373 132.800 C 174.653 131.810,175.074 130.765,175.309 130.478 C 177.171 128.195,175.523 120.410,172.649 117.916 C 168.679 114.472,162.279 119.822,161.215 127.476 C 160.979 129.174,160.496 131.004,160.142 131.544 C 159.625 132.334,159.562 133.001,159.824 134.963 C 161.066 144.296,157.974 149.245,150.597 149.729 C 148.501 149.867,146.399 150.186,145.927 150.439 C 145.400 150.721,144.063 150.818,142.469 150.690 C 140.817 150.558,139.322 150.675,138.369 151.011 C 135.962 151.860,128.465 151.576,127.072 150.583 C 121.351 146.507,120.538 145.357,120.226 140.888 C 120.092 138.970,119.682 135.780,119.316 133.800 C 118.381 128.750,118.438 126.132,119.521 124.400 C 120.003 123.630,120.398 122.659,120.399 122.241 C 120.401 120.809,123.100 117.295,124.569 116.810 C 125.321 116.562,126.143 116.110,126.396 115.805 C 126.648 115.501,127.421 115.127,128.112 114.975 C 128.803 114.824,129.826 114.379,130.384 113.986 C 131.116 113.473,132.426 113.222,135.069 113.089 C 137.887 112.947,139.057 112.707,140.116 112.052 C 140.874 111.583,141.896 111.200,142.387 111.200 C 142.878 111.200,143.846 110.940,144.540 110.623 C 147.150 109.429,150.135 109.356,154.027 110.391 M291.000 114.792 C 289.460 114.969,287.571 115.314,286.803 115.557 C 284.844 116.178,281.957 116.108,280.262 115.400 C 276.716 113.919,273.228 115.971,271.755 120.404 L 270.910 122.947 271.700 124.774 C 273.096 128.003,276.783 129.649,280.271 128.598 C 281.332 128.279,283.280 127.911,284.600 127.781 C 285.920 127.650,287.927 127.367,289.061 127.152 C 290.640 126.851,291.950 126.916,294.661 127.426 C 298.659 128.180,303.276 127.995,305.192 127.004 C 306.732 126.208,311.268 126.208,312.809 127.005 C 318.377 129.884,324.281 125.391,322.539 119.600 C 321.229 115.249,317.253 113.995,309.147 115.377 C 308.023 115.569,306.765 115.526,305.947 115.267 C 304.141 114.696,294.492 114.389,291.000 114.792 M134.667 123.531 C 132.426 125.826,132.225 133.926,134.341 136.616 C 134.814 137.217,135.200 138.179,135.200 138.754 C 135.200 139.844,136.754 141.732,139.911 144.474 C 143.014 147.170,144.636 146.900,146.772 143.329 L 148.114 141.084 147.860 136.928 C 147.711 134.486,147.357 132.291,147.003 131.606 C 146.671 130.964,146.400 130.026,146.399 129.520 C 146.399 129.014,146.052 127.970,145.627 127.200 C 145.203 126.430,144.679 125.424,144.462 124.965 C 142.866 121.574,137.365 120.769,134.667 123.531 M78.104 154.782 C 79.562 156.273,81.045 158.466,81.402 159.659 C 81.557 160.176,81.950 161.023,82.277 161.540 C 84.209 164.598,84.788 168.494,83.796 171.764 C 83.468 172.844,83.200 174.802,83.200 176.115 C 83.200 179.022,80.260 182.417,77.072 183.190 C 76.153 183.413,74.890 183.766,74.267 183.975 C 73.542 184.218,72.762 184.214,72.100 183.962 C 71.330 183.669,70.572 183.746,69.142 184.260 C 67.261 184.936,67.180 184.932,65.466 184.076 C 64.377 183.532,62.968 183.200,61.750 183.200 C 56.336 183.200,51.008 175.377,54.566 172.654 C 56.150 171.443,57.600 169.039,57.600 167.626 C 57.600 166.129,58.275 164.922,59.941 163.438 C 62.943 160.765,64.414 159.145,64.925 157.948 C 66.777 153.615,75.025 151.633,78.104 154.782 M308.400 157.545 C 303.548 158.606,301.100 162.719,303.009 166.600 C 304.395 169.417,303.951 170.214,299.648 172.638 C 297.467 173.867,297.092 174.143,295.215 175.901 C 294.233 176.821,292.928 177.781,292.315 178.035 C 291.702 178.289,291.200 178.633,291.200 178.800 C 291.200 178.967,290.660 179.327,290.000 179.600 C 289.340 179.873,288.800 180.264,288.800 180.469 C 288.800 180.673,288.152 181.112,287.359 181.443 C 286.567 181.774,285.712 182.217,285.459 182.428 C 284.473 183.251,282.139 184.654,280.929 185.151 C 280.230 185.438,279.567 185.910,279.456 186.199 C 279.345 186.488,278.704 186.845,278.032 186.993 C 277.359 187.141,276.706 187.429,276.579 187.633 C 276.453 187.838,275.112 188.813,273.600 189.800 C 272.088 190.787,270.751 191.756,270.629 191.953 C 270.507 192.150,269.962 192.423,269.418 192.560 C 268.310 192.838,265.188 194.851,264.409 195.789 C 264.130 196.125,263.676 196.400,263.400 196.400 C 263.124 196.400,262.675 196.669,262.402 196.998 C 262.128 197.327,261.161 197.812,260.253 198.075 C 259.344 198.339,258.179 198.821,257.665 199.146 C 257.151 199.471,255.981 199.876,255.065 200.046 C 252.953 200.437,247.935 202.171,246.724 202.928 C 246.216 203.245,244.842 203.609,243.671 203.737 C 242.500 203.865,240.970 204.144,240.271 204.357 C 239.572 204.571,237.740 204.960,236.200 205.223 C 233.065 205.759,230.519 207.156,229.354 208.981 C 228.939 209.630,228.368 210.530,228.085 210.981 C 227.413 212.049,227.816 215.527,228.726 216.512 C 229.097 216.913,230.120 217.950,231.000 218.816 L 232.600 220.390 237.446 220.395 C 241.691 220.399,242.418 220.301,243.309 219.600 C 243.869 219.160,244.499 218.800,244.709 218.800 C 244.920 218.800,245.552 218.438,246.114 217.996 C 247.157 217.176,252.438 215.399,255.498 214.838 C 256.432 214.667,257.526 214.229,257.930 213.864 C 258.333 213.499,258.899 213.200,259.187 213.200 C 259.475 213.200,261.241 212.435,263.111 211.500 C 267.748 209.182,268.400 208.805,268.400 208.446 C 268.400 208.043,272.165 205.600,272.785 205.600 C 273.633 205.600,276.962 203.449,278.656 201.806 C 279.567 200.923,281.298 199.607,282.504 198.882 C 283.709 198.157,285.574 196.755,286.648 195.767 C 287.721 194.779,288.885 193.707,289.234 193.385 C 289.582 193.063,290.032 192.797,290.234 192.793 C 291.112 192.775,295.157 189.598,298.168 186.561 C 298.626 186.099,299.419 185.501,299.930 185.231 C 300.442 184.960,301.162 184.480,301.530 184.162 C 304.113 181.936,309.929 177.205,311.234 176.270 C 312.101 175.649,313.476 174.344,314.290 173.370 C 315.379 172.067,316.059 171.600,316.865 171.600 C 317.468 171.600,318.990 171.332,320.248 171.004 C 324.468 169.905,328.676 170.920,329.809 173.310 C 330.146 174.019,330.684 175.050,331.005 175.600 C 331.326 176.150,331.593 177.050,331.598 177.600 C 331.608 178.628,333.786 182.803,334.308 182.796 C 334.469 182.793,335.484 182.523,336.564 182.196 C 337.691 181.854,340.093 181.600,342.203 181.600 L 345.878 181.600 348.172 184.100 C 349.434 185.475,350.707 186.871,351.001 187.203 C 351.295 187.535,351.665 188.345,351.822 189.003 C 351.979 189.661,352.398 190.534,352.754 190.943 C 353.740 192.076,353.697 202.181,352.700 203.589 C 352.315 204.133,352.000 204.964,352.000 205.435 C 352.000 205.906,351.651 206.736,351.225 207.278 C 350.798 207.820,350.328 208.748,350.179 209.341 C 350.030 209.934,349.609 210.639,349.244 210.909 C 348.653 211.346,346.725 213.577,343.001 218.136 C 341.726 219.697,338.076 222.400,337.244 222.400 C 336.970 222.400,335.752 223.210,334.536 224.200 C 333.321 225.190,331.989 226.000,331.576 226.000 C 331.163 226.000,330.144 226.345,329.312 226.766 C 328.481 227.188,326.647 227.659,325.237 227.813 C 323.828 227.967,322.079 228.342,321.350 228.647 C 317.910 230.084,313.704 229.194,308.800 225.992 C 304.963 223.486,303.207 223.329,301.278 225.319 C 299.551 227.101,299.419 230.657,301.000 232.800 C 301.550 233.545,302.000 234.317,302.000 234.515 C 302.000 234.712,302.360 235.331,302.800 235.891 C 303.240 236.450,303.603 237.199,303.606 237.554 C 303.609 237.909,304.247 239.100,305.024 240.200 C 305.800 241.300,306.742 242.669,307.118 243.242 C 308.459 245.288,310.192 246.399,312.058 246.409 C 313.016 246.414,314.585 246.774,315.544 247.209 C 317.734 248.203,319.325 248.198,321.544 247.191 C 322.503 246.756,323.636 246.400,324.062 246.400 C 324.488 246.400,325.682 245.950,326.715 245.400 C 327.748 244.850,329.191 244.400,329.922 244.400 C 331.095 244.400,334.730 243.035,336.400 241.968 C 336.730 241.757,337.557 241.327,338.238 241.012 C 339.371 240.490,343.560 237.847,346.000 236.116 C 346.550 235.725,347.828 234.835,348.840 234.138 C 351.538 232.278,353.376 230.448,354.735 228.270 C 355.397 227.208,356.720 225.844,357.674 225.239 C 360.156 223.665,364.800 217.812,364.800 216.259 C 364.800 215.875,365.075 215.028,365.412 214.378 C 365.748 213.727,366.197 211.711,366.410 209.898 C 366.623 208.084,367.097 205.679,367.463 204.553 C 368.084 202.645,368.085 202.394,367.465 200.845 C 366.645 198.796,366.623 197.587,367.387 196.576 C 368.141 195.580,368.166 193.436,367.431 192.826 C 367.118 192.566,366.749 191.599,366.609 190.677 C 366.262 188.376,364.820 184.370,363.990 183.400 C 363.613 182.960,363.180 182.074,363.028 181.432 C 362.875 180.789,362.402 179.820,361.975 179.278 C 361.549 178.736,361.200 177.903,361.200 177.427 C 361.200 176.382,351.701 167.391,349.700 166.541 C 348.985 166.238,348.400 165.829,348.400 165.634 C 348.400 165.438,347.905 165.080,347.300 164.837 C 345.781 164.228,342.783 162.509,341.992 161.793 C 341.632 161.467,341.140 161.200,340.899 161.200 C 340.658 161.200,339.953 160.773,339.331 160.252 C 338.156 159.267,333.597 158.686,328.600 158.885 C 324.387 159.052,323.354 158.964,321.995 158.319 C 320.405 157.565,310.807 157.018,308.400 157.545 M141.201 163.802 C 141.476 164.132,142.263 164.548,142.950 164.726 C 144.164 165.039,144.207 165.129,144.456 167.824 C 144.597 169.351,144.844 171.438,145.005 172.463 C 145.286 174.245,145.232 174.396,143.749 175.956 L 142.200 177.587 135.800 177.853 C 130.706 178.065,129.116 178.270,128.006 178.860 C 127.239 179.267,126.228 179.600,125.760 179.600 C 125.291 179.600,124.458 179.954,123.908 180.387 C 122.235 181.703,121.738 179.607,123.200 177.400 C 123.766 176.545,123.995 175.522,123.997 173.841 C 124.003 168.978,127.738 165.415,133.325 164.943 C 135.560 164.754,136.561 164.485,137.052 163.942 C 137.880 163.028,140.486 162.940,141.201 163.802 M323.000 186.340 C 321.900 186.925,320.460 187.916,319.800 188.542 C 319.140 189.168,317.390 190.493,315.911 191.486 C 314.432 192.479,313.015 193.541,312.762 193.846 C 312.509 194.151,312.083 194.400,311.816 194.400 C 311.549 194.400,310.571 195.210,309.643 196.200 C 308.715 197.190,307.811 198.000,307.633 198.000 C 307.349 198.000,306.181 198.840,303.400 201.047 C 302.690 201.611,298.562 204.346,296.844 205.392 C 296.490 205.608,295.030 206.534,293.600 207.450 C 292.170 208.366,290.595 209.237,290.100 209.385 C 289.605 209.533,289.200 209.817,289.200 210.017 C 289.200 210.216,288.615 210.679,287.900 211.046 C 287.185 211.412,286.510 211.837,286.400 211.991 C 286.290 212.145,285.210 212.927,284.000 213.730 C 282.790 214.533,281.530 215.439,281.200 215.744 C 280.870 216.049,280.166 216.433,279.635 216.597 C 279.104 216.761,277.946 217.591,277.061 218.442 C 275.572 219.872,271.056 222.400,269.988 222.400 C 269.734 222.400,269.069 222.760,268.509 223.200 C 267.950 223.640,267.043 224.000,266.493 224.000 C 265.944 224.000,264.933 224.338,264.247 224.751 C 263.561 225.165,262.280 225.617,261.400 225.758 C 260.520 225.898,258.900 226.443,257.800 226.969 C 253.342 229.102,252.080 229.516,249.400 229.725 C 235.717 230.790,230.534 241.410,240.997 246.944 C 243.599 248.320,247.981 248.441,250.296 247.200 C 251.116 246.760,252.064 246.400,252.401 246.400 C 252.738 246.400,253.677 245.950,254.486 245.400 C 255.295 244.850,256.119 244.400,256.317 244.400 C 256.514 244.400,256.995 244.048,257.384 243.618 C 257.799 243.159,258.859 242.736,259.946 242.595 C 260.966 242.462,262.610 242.016,263.600 241.604 C 264.590 241.191,265.926 240.740,266.568 240.602 C 267.211 240.464,268.180 240.002,268.722 239.575 C 269.264 239.149,269.999 238.799,270.354 238.797 C 270.709 238.796,271.540 238.437,272.200 238.000 C 272.860 237.563,273.701 237.204,274.069 237.203 C 274.437 237.201,275.247 236.775,275.869 236.255 C 276.491 235.735,277.360 235.195,277.800 235.056 C 278.240 234.916,279.320 234.139,280.200 233.330 C 281.080 232.520,283.060 231.208,284.600 230.415 C 288.458 228.428,289.576 227.678,291.220 225.975 C 293.421 223.695,296.180 222.400,298.835 222.400 C 301.150 222.400,301.550 222.162,302.700 220.105 C 302.975 219.613,303.201 218.983,303.202 218.705 C 303.209 217.175,304.128 215.131,304.950 214.819 C 306.588 214.196,308.554 212.638,312.172 209.097 C 314.136 207.173,315.879 205.600,316.045 205.600 C 317.434 205.600,330.914 192.793,331.349 191.060 C 332.320 187.194,327.024 184.200,323.000 186.340 M46.178 203.984 C 44.989 204.465,42.850 207.034,42.578 208.307 C 42.171 210.214,40.742 212.832,38.816 215.200 C 36.341 218.244,35.283 220.949,35.060 224.800 C 34.923 227.166,34.610 228.682,34.032 229.785 C 33.574 230.656,33.200 231.752,33.200 232.221 C 33.200 232.690,32.929 233.956,32.599 235.036 C 32.037 236.871,32.055 237.221,32.874 240.355 L 33.750 243.711 35.887 244.655 C 40.753 246.808,46.400 242.758,46.400 237.115 C 46.400 236.556,46.661 235.882,46.980 235.617 C 47.298 235.352,47.774 234.475,48.036 233.668 C 48.298 232.861,48.759 232.055,49.060 231.878 C 49.361 231.701,49.881 230.981,50.215 230.278 C 50.548 229.575,51.084 228.550,51.405 228.000 C 51.852 227.233,51.990 225.437,51.994 220.287 C 51.999 215.236,52.149 213.219,52.600 212.138 C 54.470 207.662,50.269 202.327,46.178 203.984 M65.337 208.489 L 63.274 209.800 62.337 213.600 C 60.383 221.524,61.297 237.855,63.855 240.729 C 64.184 241.098,64.851 242.028,65.339 242.795 C 68.095 247.133,73.401 244.174,74.354 237.767 C 74.600 236.112,75.061 234.256,75.378 233.643 C 76.545 231.385,76.023 216.049,74.649 212.250 C 73.039 207.800,68.992 206.166,65.337 208.489 M167.200 210.044 C 165.960 210.614,164.092 210.963,161.200 211.164 C 158.554 211.349,156.526 211.706,155.720 212.129 C 155.016 212.498,154.016 212.800,153.498 212.800 C 151.695 212.800,148.296 217.309,148.329 219.658 C 148.387 223.924,155.171 227.161,159.320 224.903 C 160.386 224.323,161.784 224.197,167.670 224.147 C 175.622 224.079,176.181 223.890,178.554 220.466 C 180.460 217.716,178.964 212.456,175.854 210.975 C 175.164 210.647,174.150 210.116,173.600 209.795 C 172.179 208.966,169.304 209.078,167.200 210.044 M290.400 284.454 C 283.696 286.565,281.850 293.985,286.876 298.622 C 288.027 299.684,288.971 300.340,292.040 302.210 C 297.890 305.774,299.394 308.893,296.578 311.622 C 294.930 313.218,290.421 313.637,288.917 312.333 C 287.729 311.303,284.446 309.524,284.112 309.731 C 282.943 310.453,284.119 314.024,285.938 315.279 C 288.824 317.269,295.777 317.474,298.238 315.641 C 303.298 311.875,303.443 305.051,298.547 301.103 C 296.859 299.741,294.207 298.000,293.822 298.000 C 291.842 298.000,288.239 293.065,288.644 290.908 C 289.139 288.268,295.542 287.424,298.498 289.609 C 300.016 290.731,300.971 290.507,301.109 288.997 C 301.290 287.002,300.024 285.477,297.562 284.726 C 293.961 283.627,293.129 283.595,290.400 284.454 M98.414 285.174 C 97.789 286.342,97.851 315.691,98.480 316.320 C 99.033 316.873,100.751 316.946,101.535 316.449 C 101.962 316.178,102.062 313.862,102.032 304.955 C 101.992 293.184,102.149 291.999,103.563 293.405 C 104.002 293.842,104.595 294.403,104.881 294.651 C 105.443 295.139,105.412 295.103,110.337 301.000 C 112.174 303.200,114.700 306.080,115.950 307.400 C 117.200 308.720,119.433 311.266,120.912 313.057 C 123.726 316.466,124.176 316.800,125.953 316.800 C 128.015 316.800,128.000 316.914,128.000 300.894 C 128.000 284.923,127.939 284.400,126.066 284.400 C 124.026 284.400,124.000 284.545,123.994 296.380 C 123.986 310.664,124.209 310.417,118.016 303.000 C 116.179 300.800,114.299 298.623,113.838 298.162 C 113.377 297.701,112.100 296.284,111.000 295.013 C 109.900 293.741,108.819 292.498,108.598 292.251 C 108.377 292.003,107.059 290.450,105.669 288.800 C 102.022 284.472,99.472 283.198,98.414 285.174 M164.500 284.888 L 163.600 285.322 163.600 300.671 L 163.600 316.020 164.626 316.410 C 166.794 317.234,181.104 316.896,182.000 316.000 C 184.315 313.685,182.432 312.800,175.191 312.800 C 168.104 312.800,168.400 313.014,168.400 307.894 C 168.400 302.149,168.097 302.400,175.023 302.400 C 181.428 302.400,182.110 302.085,181.443 299.429 L 181.185 298.400 175.241 298.400 C 168.001 298.400,168.333 298.659,168.486 293.142 L 168.600 289.000 174.795 288.800 L 180.991 288.600 181.528 287.479 C 181.989 286.513,181.975 286.221,181.423 285.379 L 180.782 284.400 173.091 284.427 C 168.438 284.443,165.044 284.626,164.500 284.888 M209.680 284.880 C 208.933 285.627,209.109 287.066,210.200 289.115 C 210.750 290.148,211.201 291.265,211.201 291.597 C 211.202 291.929,211.541 292.755,211.955 293.433 C 212.369 294.112,212.839 295.267,213.000 296.000 C 213.161 296.733,213.631 297.888,214.045 298.567 C 214.459 299.245,214.798 300.105,214.799 300.479 C 214.799 300.852,215.250 302.004,215.800 303.038 C 216.350 304.073,216.801 305.207,216.803 305.560 C 216.804 305.912,217.163 306.740,217.600 307.400 C 218.037 308.060,218.398 308.870,218.401 309.200 C 218.404 309.530,218.850 310.700,219.391 311.800 C 219.932 312.900,220.381 314.100,220.387 314.467 C 220.440 317.257,224.000 315.959,224.000 313.151 C 224.000 312.718,224.450 311.518,225.000 310.485 C 225.550 309.452,226.001 308.335,226.001 308.003 C 226.002 307.671,226.341 306.845,226.755 306.167 C 227.169 305.488,227.638 304.318,227.798 303.567 C 227.958 302.815,228.322 301.930,228.607 301.600 C 228.892 301.270,229.339 300.190,229.600 299.200 C 229.861 298.210,230.317 297.127,230.614 296.794 C 230.911 296.461,231.328 295.412,231.541 294.463 C 232.199 291.538,234.136 291.920,235.074 295.159 C 235.352 296.120,235.944 297.659,236.390 298.579 C 236.835 299.500,237.200 300.490,237.200 300.779 C 237.200 301.069,237.545 301.867,237.966 302.553 C 238.388 303.239,238.857 304.469,239.008 305.286 C 239.160 306.103,239.523 306.970,239.816 307.213 C 240.109 307.456,240.470 308.208,240.618 308.883 C 240.766 309.558,241.316 311.030,241.840 312.155 C 242.364 313.280,242.794 314.594,242.796 315.076 C 242.801 316.238,243.327 316.507,244.526 315.961 C 245.524 315.506,246.400 314.089,246.400 312.928 C 246.400 312.580,246.741 311.733,247.157 311.047 C 247.573 310.361,248.047 309.170,248.209 308.400 C 248.371 307.630,248.841 306.571,249.252 306.046 C 249.663 305.521,250.006 304.711,250.013 304.246 C 250.019 303.781,250.468 302.500,251.009 301.400 C 251.550 300.300,251.996 299.130,251.999 298.800 C 252.002 298.470,252.363 297.660,252.800 297.000 C 253.237 296.340,253.598 295.530,253.601 295.200 C 253.604 294.870,254.050 293.700,254.591 292.600 C 255.132 291.500,255.581 290.355,255.587 290.054 C 255.594 289.754,255.984 288.826,256.453 287.992 C 257.602 285.947,257.254 284.400,255.646 284.400 C 254.007 284.400,252.492 285.771,251.973 287.721 C 251.728 288.645,251.183 289.961,250.763 290.647 C 250.344 291.333,249.999 292.233,249.999 292.647 C 249.998 293.061,249.659 293.955,249.245 294.633 C 248.831 295.312,248.363 296.482,248.203 297.233 C 248.044 297.985,247.597 299.140,247.209 299.800 C 246.822 300.460,246.390 301.613,246.250 302.362 C 245.684 305.387,243.490 305.858,242.815 303.100 C 242.586 302.165,242.039 300.734,241.599 299.921 C 241.160 299.107,240.800 298.154,240.800 297.802 C 240.800 297.451,240.350 296.318,239.800 295.285 C 239.250 294.252,238.800 293.156,238.800 292.850 C 238.800 292.545,238.459 291.733,238.043 291.047 C 237.627 290.361,237.160 289.202,237.005 288.470 C 236.055 283.982,229.600 283.178,229.600 287.548 C 229.600 287.993,229.150 289.204,228.600 290.238 C 228.050 291.273,227.600 292.386,227.600 292.712 C 227.600 293.039,227.262 293.867,226.849 294.553 C 226.435 295.239,225.981 296.457,225.838 297.260 C 225.695 298.063,225.312 298.941,224.986 299.212 C 224.660 299.482,224.277 300.428,224.135 301.314 C 223.500 305.287,220.832 306.063,220.253 302.444 C 220.118 301.597,219.740 300.682,219.414 300.412 C 219.088 300.141,218.705 299.263,218.562 298.460 C 218.419 297.657,217.965 296.439,217.551 295.753 C 217.138 295.067,216.800 294.239,216.800 293.912 C 216.800 293.586,216.380 292.527,215.868 291.560 C 215.355 290.592,214.817 289.207,214.674 288.482 C 214.078 285.476,211.177 283.383,209.680 284.880 " stroke="none" fill="#fbf5f5" fill-rule="evenodd"></path><path id="path1" d="M67.600 0.400 C 67.600 0.621,66.550 0.800,65.250 0.800 C 61.788 0.800,60.400 1.158,60.400 2.050 C 60.400 2.712,60.071 2.800,57.600 2.800 C 54.880 2.800,54.800 2.829,54.800 3.800 C 54.800 4.771,54.720 4.800,52.000 4.800 C 49.523 4.800,49.200 4.887,49.200 5.555 C 49.200 6.142,48.802 6.369,47.400 6.579 C 45.978 6.792,45.600 7.012,45.600 7.625 C 45.600 8.216,45.321 8.400,44.421 8.400 C 43.717 8.400,42.806 8.803,42.162 9.400 C 41.569 9.950,40.839 10.400,40.542 10.400 C 40.244 10.400,40.000 10.750,40.000 11.178 C 40.000 11.823,39.674 11.977,38.100 12.078 C 36.479 12.182,36.181 12.332,36.072 13.100 C 35.990 13.678,35.668 14.000,35.172 14.000 C 34.682 14.000,34.400 14.276,34.400 14.755 C 34.400 15.342,34.002 15.569,32.600 15.779 C 31.178 15.992,30.800 16.212,30.800 16.825 C 30.800 17.385,30.523 17.600,29.800 17.600 C 29.000 17.600,28.800 17.800,28.800 18.600 C 28.800 19.400,28.600 19.600,27.800 19.600 C 27.067 19.600,26.800 19.813,26.800 20.400 C 26.800 20.933,26.533 21.200,26.000 21.200 C 25.413 21.200,25.200 21.467,25.200 22.200 C 25.200 23.000,25.000 23.200,24.200 23.200 C 23.400 23.200,23.200 23.400,23.200 24.200 C 23.200 25.000,23.000 25.200,22.200 25.200 C 21.467 25.200,21.200 25.413,21.200 26.000 C 21.200 26.533,20.933 26.800,20.400 26.800 C 19.813 26.800,19.600 27.067,19.600 27.800 C 19.600 28.600,19.400 28.800,18.600 28.800 C 17.800 28.800,17.600 29.000,17.600 29.800 C 17.600 30.523,17.385 30.800,16.825 30.800 C 16.212 30.800,15.992 31.178,15.779 32.600 C 15.569 34.002,15.342 34.400,14.755 34.400 C 14.276 34.400,14.000 34.682,14.000 35.172 C 14.000 35.668,13.678 35.990,13.100 36.072 C 12.456 36.164,12.164 36.512,12.073 37.300 C 12.002 37.922,11.701 38.400,11.381 38.400 C 11.070 38.400,10.705 38.895,10.570 39.500 C 10.084 41.684,9.962 41.917,9.187 42.119 C 8.566 42.282,8.400 42.671,8.400 43.963 C 8.400 45.302,8.262 45.600,7.643 45.600 C 6.781 45.600,6.400 46.345,6.400 48.033 C 6.400 48.933,6.217 49.200,5.600 49.200 C 4.876 49.200,4.800 49.467,4.800 52.000 C 4.800 54.720,4.771 54.800,3.800 54.800 C 2.829 54.800,2.800 54.880,2.800 57.600 C 2.800 60.081,2.714 60.400,2.043 60.400 C 1.072 60.400,0.800 61.151,0.800 63.833 C 0.800 65.025,0.620 66.000,0.400 66.000 C 0.134 66.000,0.000 110.933,0.000 200.000 C 0.000 284.790,0.140 334.000,0.382 334.000 C 0.592 334.000,0.817 335.215,0.882 336.700 C 0.989 339.153,1.082 339.412,1.900 339.528 C 2.734 339.646,2.800 339.858,2.800 342.428 C 2.800 345.118,2.830 345.200,3.800 345.200 C 4.771 345.200,4.800 345.280,4.800 348.000 C 4.800 350.506,4.882 350.800,5.577 350.800 C 6.205 350.800,6.378 351.126,6.477 352.500 C 6.579 353.913,6.752 354.222,7.500 354.328 C 8.279 354.438,8.400 354.695,8.400 356.228 C 8.400 357.203,8.567 358.000,8.771 358.000 C 9.525 358.000,10.400 359.290,10.400 360.402 C 10.400 361.182,10.646 361.624,11.175 361.792 C 11.601 361.927,12.006 362.434,12.075 362.919 C 12.154 363.479,12.528 363.847,13.100 363.928 C 13.795 364.027,14.000 364.318,14.000 365.205 C 14.000 365.871,14.313 366.575,14.743 366.877 C 15.151 367.165,15.607 367.786,15.756 368.257 C 15.905 368.728,16.381 369.206,16.813 369.319 C 17.280 369.441,17.600 369.866,17.600 370.363 C 17.600 370.989,17.852 371.200,18.600 371.200 C 19.400 371.200,19.600 371.400,19.600 372.200 C 19.600 372.933,19.813 373.200,20.400 373.200 C 20.933 373.200,21.200 373.467,21.200 374.000 C 21.200 374.587,21.467 374.800,22.200 374.800 C 23.000 374.800,23.200 375.000,23.200 375.800 C 23.200 376.600,23.400 376.800,24.200 376.800 C 25.000 376.800,25.200 377.000,25.200 377.800 C 25.200 378.533,25.413 378.800,26.000 378.800 C 26.533 378.800,26.800 379.067,26.800 379.600 C 26.800 380.187,27.067 380.400,27.800 380.400 C 28.600 380.400,28.800 380.600,28.800 381.400 C 28.800 382.148,29.011 382.400,29.637 382.400 C 30.134 382.400,30.559 382.720,30.681 383.187 C 30.794 383.619,31.272 384.095,31.743 384.244 C 32.214 384.393,32.835 384.849,33.123 385.257 C 33.425 385.687,34.129 386.000,34.795 386.000 C 35.682 386.000,35.973 386.205,36.072 386.900 C 36.153 387.472,36.521 387.846,37.081 387.925 C 37.566 387.994,38.073 388.399,38.208 388.825 C 38.376 389.354,38.818 389.600,39.598 389.600 C 40.710 389.600,42.000 390.475,42.000 391.229 C 42.000 391.433,42.797 391.600,43.772 391.600 C 45.305 391.600,45.562 391.721,45.672 392.500 C 45.778 393.248,46.087 393.421,47.500 393.523 C 48.874 393.622,49.200 393.795,49.200 394.423 C 49.200 395.118,49.494 395.200,52.000 395.200 C 54.720 395.200,54.800 395.229,54.800 396.200 C 54.800 397.170,54.882 397.200,57.572 397.200 C 60.142 397.200,60.354 397.266,60.472 398.100 C 60.588 398.918,60.847 399.011,63.300 399.118 C 64.785 399.183,66.000 399.408,66.000 399.618 C 66.000 399.860,115.210 400.000,200.000 400.000 C 289.067 400.000,334.000 399.866,334.000 399.600 C 334.000 399.380,334.975 399.200,336.167 399.200 C 338.849 399.200,339.600 398.928,339.600 397.957 C 339.600 397.286,339.919 397.200,342.400 397.200 C 345.120 397.200,345.200 397.171,345.200 396.200 C 345.200 395.229,345.280 395.200,348.000 395.200 C 350.533 395.200,350.800 395.124,350.800 394.400 C 350.800 393.783,351.067 393.600,351.967 393.600 C 353.655 393.600,354.400 393.219,354.400 392.357 C 354.400 391.738,354.698 391.600,356.037 391.600 C 357.341 391.600,357.718 391.436,357.885 390.796 C 358.004 390.342,358.554 389.890,359.148 389.758 C 361.277 389.287,361.600 389.135,361.600 388.600 C 361.600 388.299,362.095 387.996,362.700 387.927 C 363.488 387.836,363.836 387.544,363.928 386.900 C 364.010 386.322,364.332 386.000,364.828 386.000 C 365.318 386.000,365.600 385.724,365.600 385.245 C 365.600 384.658,365.998 384.431,367.400 384.221 C 368.822 384.008,369.200 383.788,369.200 383.175 C 369.200 382.615,369.477 382.400,370.200 382.400 C 371.000 382.400,371.200 382.200,371.200 381.400 C 371.200 380.600,371.400 380.400,372.200 380.400 C 372.933 380.400,373.200 380.187,373.200 379.600 C 373.200 379.067,373.467 378.800,374.000 378.800 C 374.587 378.800,374.800 378.533,374.800 377.800 C 374.800 377.000,375.000 376.800,375.800 376.800 C 376.600 376.800,376.800 376.600,376.800 375.800 C 376.800 375.000,377.000 374.800,377.800 374.800 C 378.533 374.800,378.800 374.587,378.800 374.000 C 378.800 373.467,379.067 373.200,379.600 373.200 C 380.187 373.200,380.400 372.933,380.400 372.200 C 380.400 371.400,380.600 371.200,381.400 371.200 C 382.200 371.200,382.400 371.000,382.400 370.200 C 382.400 369.477,382.615 369.200,383.175 369.200 C 383.788 369.200,384.008 368.822,384.221 367.400 C 384.431 365.998,384.658 365.600,385.245 365.600 C 385.724 365.600,386.000 365.318,386.000 364.828 C 386.000 364.332,386.322 364.010,386.900 363.928 C 387.668 363.819,387.818 363.521,387.922 361.900 C 388.023 360.326,388.177 360.000,388.822 360.000 C 389.250 360.000,389.600 359.756,389.600 359.458 C 389.600 359.161,390.050 358.431,390.600 357.838 C 391.197 357.194,391.600 356.283,391.600 355.579 C 391.600 354.679,391.784 354.400,392.375 354.400 C 392.988 354.400,393.208 354.022,393.421 352.600 C 393.631 351.198,393.858 350.800,394.445 350.800 C 395.113 350.800,395.200 350.477,395.200 348.000 C 395.200 345.280,395.229 345.200,396.200 345.200 C 397.171 345.200,397.200 345.120,397.200 342.400 C 397.200 339.929,397.288 339.600,397.950 339.600 C 398.842 339.600,399.200 338.212,399.200 334.750 C 399.200 333.450,399.379 332.400,399.600 332.400 C 399.866 332.400,400.000 288.000,400.000 200.000 C 400.000 112.000,399.866 67.600,399.600 67.600 C 399.375 67.600,399.200 66.475,399.200 65.026 C 399.200 62.104,398.695 60.400,397.828 60.400 C 397.376 60.400,397.209 59.763,397.118 57.700 C 397.011 55.247,396.918 54.988,396.100 54.872 C 395.266 54.754,395.200 54.542,395.200 51.972 C 395.200 49.530,395.111 49.200,394.451 49.200 C 393.889 49.200,393.640 48.808,393.451 47.627 C 393.277 46.540,392.952 45.975,392.400 45.800 C 391.889 45.638,391.600 45.195,391.600 44.573 C 391.600 43.886,391.378 43.600,390.845 43.600 C 390.258 43.600,390.031 43.202,389.821 41.800 C 389.611 40.399,389.384 40.000,388.797 40.000 C 388.182 40.000,388.021 39.651,387.922 38.100 C 387.818 36.479,387.668 36.181,386.900 36.072 C 386.322 35.990,386.000 35.668,386.000 35.172 C 386.000 34.667,385.724 34.400,385.200 34.400 C 384.610 34.400,384.400 34.133,384.400 33.382 C 384.400 32.822,383.964 31.928,383.432 31.396 C 382.900 30.863,382.403 30.106,382.328 29.714 C 382.253 29.321,381.789 28.942,381.296 28.872 C 380.649 28.780,380.400 28.474,380.400 27.772 C 380.400 27.067,380.181 26.800,379.600 26.800 C 379.067 26.800,378.800 26.533,378.800 26.000 C 378.800 25.413,378.533 25.200,377.800 25.200 C 377.000 25.200,376.800 25.000,376.800 24.200 C 376.800 23.400,376.600 23.200,375.800 23.200 C 375.000 23.200,374.800 23.000,374.800 22.200 C 374.800 21.467,374.587 21.200,374.000 21.200 C 373.467 21.200,373.200 20.933,373.200 20.400 C 373.200 19.819,372.933 19.600,372.228 19.600 C 371.526 19.600,371.220 19.351,371.128 18.704 C 371.058 18.211,370.679 17.747,370.286 17.672 C 369.894 17.597,369.137 17.100,368.604 16.568 C 368.072 16.036,367.178 15.600,366.618 15.600 C 365.867 15.600,365.600 15.390,365.600 14.800 C 365.600 14.276,365.333 14.000,364.828 14.000 C 364.332 14.000,364.010 13.678,363.928 13.100 C 363.819 12.332,363.521 12.182,361.900 12.078 C 360.349 11.979,360.000 11.818,360.000 11.203 C 360.000 10.616,359.601 10.389,358.200 10.179 C 356.798 9.969,356.400 9.742,356.400 9.155 C 356.400 8.622,356.114 8.400,355.427 8.400 C 354.805 8.400,354.362 8.111,354.200 7.600 C 354.025 7.048,353.460 6.723,352.373 6.549 C 351.192 6.360,350.800 6.111,350.800 5.549 C 350.800 4.889,350.470 4.800,348.028 4.800 C 345.458 4.800,345.246 4.734,345.128 3.900 C 345.012 3.082,344.753 2.989,342.300 2.882 C 340.237 2.791,339.600 2.624,339.600 2.172 C 339.600 1.305,337.896 0.800,334.974 0.800 C 333.525 0.800,332.400 0.625,332.400 0.400 C 332.400 0.134,288.000 0.000,200.000 0.000 C 112.000 0.000,67.600 0.134,67.600 0.400 M73.063 86.963 C 79.936 87.166,84.665 91.771,83.816 97.433 C 83.457 99.824,80.707 101.999,78.034 102.003 C 76.877 102.004,75.757 102.299,75.000 102.800 C 74.191 103.336,73.123 103.596,71.721 103.597 C 70.059 103.599,69.424 103.801,68.562 104.600 C 67.935 105.181,67.005 105.600,66.342 105.600 C 65.714 105.600,65.200 105.761,65.200 105.958 C 65.200 106.155,64.753 106.740,64.207 107.258 C 63.661 107.776,63.211 108.527,63.207 108.926 C 63.200 109.645,62.619 110.953,61.941 111.775 C 60.186 113.903,59.200 115.423,59.200 116.001 C 59.200 116.381,58.874 117.121,58.476 117.646 C 56.964 119.639,56.047 121.616,55.771 123.475 C 55.614 124.534,55.152 126.027,54.743 126.794 C 53.767 128.626,53.805 129.326,54.986 131.329 C 56.239 133.450,60.117 137.197,61.073 137.209 C 61.473 137.214,62.585 137.574,63.544 138.009 C 65.605 138.944,67.709 139.033,68.389 138.213 C 68.657 137.890,70.029 136.982,71.438 136.194 C 72.847 135.406,74.000 134.506,74.000 134.194 C 74.000 133.882,74.807 132.718,75.794 131.607 C 76.781 130.496,77.705 129.095,77.848 128.493 C 77.991 127.892,78.338 127.130,78.620 126.800 C 80.890 124.144,80.634 122.027,77.736 119.466 C 74.912 116.970,76.221 112.800,79.829 112.800 C 80.529 112.800,81.317 112.542,81.579 112.226 C 82.375 111.266,84.259 111.089,86.335 111.778 C 87.398 112.131,89.297 112.588,90.556 112.793 C 93.215 113.226,94.757 114.259,97.096 117.177 C 98.061 118.380,98.203 118.910,98.220 121.377 C 98.231 122.930,98.382 125.023,98.555 126.028 C 99.144 129.454,97.480 132.824,94.886 133.457 C 94.289 133.603,93.371 134.055,92.846 134.461 C 92.321 134.867,91.676 135.200,91.412 135.200 C 90.416 135.200,87.247 138.077,86.998 139.207 C 86.861 139.833,86.490 140.559,86.174 140.821 C 84.647 142.089,86.343 148.795,88.546 150.200 C 89.236 150.640,90.160 151.734,90.600 152.632 C 91.040 153.529,92.022 155.042,92.782 155.993 C 94.021 157.543,94.815 159.264,96.015 162.997 C 96.227 163.656,96.404 165.366,96.409 166.797 C 96.415 168.599,96.678 169.954,97.264 171.200 C 99.501 175.956,97.794 182.507,93.600 185.259 C 93.050 185.620,92.041 186.470,91.357 187.149 C 90.674 187.828,89.224 188.995,88.136 189.744 C 87.048 190.492,85.014 192.296,83.616 193.752 C 82.217 195.208,80.914 196.400,80.720 196.400 C 80.526 196.400,79.880 196.753,79.284 197.185 C 78.525 197.734,77.241 198.045,75.000 198.220 C 73.240 198.358,70.764 198.815,69.498 199.235 C 66.646 200.183,66.248 200.184,64.226 199.244 C 58.292 196.486,57.996 196.400,54.452 196.394 C 52.183 196.390,50.657 196.190,50.000 195.811 C 49.450 195.494,48.550 195.035,48.000 194.791 C 46.114 193.954,43.256 190.540,42.597 188.338 C 42.443 187.822,42.023 186.950,41.664 186.400 C 41.087 185.516,40.445 180.504,40.307 175.800 C 40.253 173.980,41.026 170.856,41.720 170.086 C 42.060 169.709,42.462 168.900,42.615 168.289 C 42.767 167.678,44.107 165.932,45.593 164.407 C 48.049 161.887,48.397 161.316,49.426 158.118 C 50.049 156.183,50.906 154.119,51.331 153.532 C 53.399 150.672,51.335 143.160,48.308 142.530 C 46.627 142.181,40.798 136.454,40.799 135.154 C 40.800 134.579,40.438 133.648,39.996 133.085 C 38.221 130.830,38.213 124.781,39.981 122.533 C 40.443 121.946,40.800 120.897,40.800 120.128 C 40.800 119.377,41.250 117.918,41.800 116.885 C 42.350 115.852,42.800 114.718,42.800 114.365 C 42.800 114.013,43.160 113.398,43.600 113.000 C 44.040 112.602,44.400 111.999,44.400 111.660 C 44.400 111.040,44.676 110.572,48.123 105.362 C 49.155 103.802,50.000 102.348,50.000 102.132 C 50.000 101.706,52.315 98.640,55.250 95.181 C 56.267 93.981,57.219 92.611,57.365 92.136 C 58.376 88.850,63.687 86.140,68.063 86.678 C 68.868 86.777,71.118 86.905,73.063 86.963 M303.361 87.801 C 304.928 88.338,306.092 88.420,309.161 88.207 C 318.325 87.574,325.457 88.223,327.262 89.856 C 327.721 90.271,329.362 90.722,331.505 91.021 C 335.185 91.534,338.185 92.476,339.196 93.436 C 339.528 93.752,340.700 94.601,341.800 95.325 C 343.440 96.403,344.064 97.177,345.267 99.620 C 346.074 101.259,346.950 102.840,347.214 103.133 C 348.162 104.187,349.067 107.480,349.596 111.800 C 349.990 115.011,350.360 116.506,350.968 117.334 C 352.132 118.921,352.274 140.994,351.128 142.259 C 350.758 142.667,350.259 143.451,350.018 144.001 C 348.684 147.043,345.741 149.702,341.600 151.606 C 341.050 151.859,339.880 152.445,339.000 152.908 C 337.534 153.679,336.801 153.745,330.243 153.697 C 323.657 153.649,322.847 153.723,320.092 154.623 C 316.450 155.812,316.178 155.818,314.185 154.756 C 312.002 153.594,308.024 153.492,306.836 154.568 C 305.499 155.777,302.054 155.906,300.120 154.819 C 297.499 153.347,295.159 153.760,294.566 155.800 C 293.574 159.212,292.560 160.458,282.936 170.084 C 281.900 171.121,280.590 172.073,280.026 172.200 C 279.462 172.327,278.140 173.189,277.090 174.115 C 274.099 176.753,273.088 177.454,271.832 177.763 C 271.189 177.920,270.220 178.398,269.678 178.825 C 269.136 179.251,268.427 179.600,268.104 179.600 C 267.780 179.600,266.981 180.050,266.327 180.600 C 265.673 181.150,264.907 181.600,264.623 181.600 C 264.340 181.600,263.679 181.934,263.154 182.343 C 262.441 182.899,261.268 183.138,258.507 183.293 C 256.159 183.424,254.471 183.724,253.871 184.117 C 253.352 184.457,252.179 184.936,251.264 185.183 C 250.349 185.429,249.600 185.795,249.600 185.997 C 249.600 186.570,246.830 187.195,244.280 187.198 C 243.004 187.199,241.474 187.447,240.880 187.748 C 231.448 192.534,222.676 180.907,231.240 174.972 L 232.930 173.801 240.811 173.909 L 248.693 174.017 250.846 172.926 C 252.031 172.326,253.429 171.512,253.954 171.117 C 254.527 170.687,255.595 170.400,256.628 170.400 C 258.464 170.400,259.273 170.118,261.800 168.594 C 263.286 167.699,265.322 166.493,267.354 165.306 C 267.819 165.034,268.577 164.809,269.038 164.806 C 269.499 164.803,270.202 164.440,270.600 164.000 C 270.998 163.560,271.566 163.200,271.861 163.200 C 273.311 163.200,276.800 158.924,276.800 157.146 C 276.800 155.731,273.919 155.664,270.400 156.997 C 268.163 157.845,263.662 157.552,261.108 156.393 C 260.169 155.966,259.025 155.614,258.566 155.609 C 257.290 155.595,254.087 152.908,253.803 151.612 C 253.662 150.973,252.410 149.359,250.879 147.843 L 248.200 145.191 247.965 137.495 C 247.804 132.215,247.556 129.423,247.175 128.600 C 246.402 126.929,246.548 113.488,247.363 111.312 C 247.675 110.481,248.026 109.237,248.145 108.550 C 249.060 103.237,256.184 99.912,259.096 103.439 C 261.541 106.400,261.411 105.462,261.278 119.122 C 261.165 130.795,261.209 131.773,261.914 133.136 C 262.331 133.941,262.803 135.128,262.962 135.773 C 263.121 136.418,263.690 137.467,264.226 138.104 C 264.762 138.740,265.200 139.397,265.200 139.563 C 265.200 140.377,269.251 142.397,271.826 142.868 C 276.338 143.694,283.665 143.031,288.000 141.405 C 290.501 140.467,303.010 140.702,305.287 141.729 C 307.255 142.617,311.991 142.632,313.685 141.756 C 315.255 140.944,323.992 139.888,326.443 140.214 C 330.516 140.756,334.480 137.877,335.228 133.834 C 335.455 132.606,335.901 130.977,336.220 130.213 C 337.061 128.200,337.016 121.286,336.154 120.055 C 335.738 119.461,335.432 117.918,335.295 115.727 C 335.130 113.086,334.894 112.084,334.241 111.261 C 333.779 110.677,332.950 109.324,332.400 108.254 C 331.850 107.183,330.950 106.018,330.400 105.663 C 329.850 105.309,329.310 104.904,329.200 104.765 C 329.090 104.626,328.370 104.195,327.600 103.808 C 326.830 103.420,325.930 102.879,325.600 102.605 C 325.270 102.331,323.290 101.902,321.200 101.650 C 319.110 101.398,316.462 101.026,315.316 100.823 C 311.151 100.084,282.593 100.112,281.746 100.855 C 281.336 101.216,280.393 101.640,279.651 101.798 C 278.908 101.956,277.669 102.458,276.896 102.914 C 274.774 104.166,265.800 104.201,264.129 102.963 C 260.141 100.009,260.315 95.929,264.600 91.941 C 265.260 91.326,266.108 90.818,266.485 90.812 C 266.862 90.805,268.074 90.444,269.178 90.009 C 270.399 89.527,272.718 89.114,275.093 88.953 C 277.275 88.806,279.530 88.421,280.200 88.082 C 283.027 86.651,299.421 86.452,303.361 87.801 M156.538 97.400 C 158.371 98.166,161.720 98.168,164.236 97.404 C 166.769 96.636,171.429 96.634,173.600 97.400 C 174.535 97.730,176.424 98.000,177.796 98.000 C 179.779 98.000,180.527 98.185,181.435 98.900 C 182.393 99.654,183.175 99.822,186.263 99.938 L 189.947 100.075 193.093 103.167 C 194.823 104.867,196.950 106.661,197.819 107.154 C 203.691 110.482,205.488 121.958,200.800 126.200 C 200.255 126.693,200.000 127.432,200.000 128.515 C 200.000 129.411,199.648 130.675,199.194 131.410 C 198.536 132.474,198.400 133.328,198.452 136.057 C 198.621 144.798,197.922 158.589,197.258 159.600 C 196.759 160.361,196.635 161.316,196.739 163.600 C 196.815 165.250,196.856 167.410,196.830 168.400 C 196.611 177.015,196.669 179.068,197.157 179.951 C 197.911 181.316,198.171 186.613,197.610 189.200 C 196.783 193.014,196.647 197.432,197.305 199.102 C 197.630 199.926,198.024 201.484,198.182 202.566 C 198.340 203.647,198.813 205.174,199.234 205.960 C 199.655 206.745,200.000 208.064,200.000 208.890 C 200.000 209.716,200.365 211.338,200.812 212.496 C 201.415 214.059,201.686 215.988,201.868 220.000 C 202.042 223.828,202.329 225.957,202.856 227.315 C 203.945 230.119,203.913 237.019,202.800 239.200 C 202.360 240.062,202.000 241.021,202.000 241.330 C 202.000 243.193,197.614 246.137,194.805 246.161 C 193.070 246.175,189.200 244.150,189.200 243.227 C 189.200 243.054,188.734 242.225,188.164 241.385 C 187.345 240.178,187.087 239.223,186.933 236.829 C 186.826 235.163,186.589 233.440,186.406 233.000 C 185.679 231.255,185.635 230.709,186.071 228.822 C 186.442 227.215,186.406 226.443,185.870 224.531 C 185.301 222.500,185.221 219.397,185.244 200.400 C 185.276 174.369,185.216 169.301,184.865 168.401 C 184.465 167.374,179.251 162.967,177.257 161.971 C 174.715 160.702,164.854 161.025,160.600 162.517 L 157.800 163.500 157.688 168.260 L 157.577 173.021 158.975 174.375 C 160.496 175.850,163.476 176.332,171.361 176.381 C 178.778 176.426,182.687 180.502,181.437 186.886 C 180.738 190.456,173.058 192.154,167.515 189.965 C 165.752 189.268,164.868 189.168,162.200 189.360 C 153.227 190.005,149.567 190.605,147.885 191.707 C 147.392 192.031,146.408 192.423,145.699 192.578 C 143.702 193.017,142.959 194.305,142.660 197.849 C 142.516 199.551,142.129 201.355,141.799 201.858 C 140.969 203.125,140.968 209.863,141.798 211.454 C 142.126 212.084,142.396 212.884,142.398 213.230 C 142.399 213.577,142.850 214.283,143.400 214.800 C 146.858 218.048,142.084 225.049,137.544 223.389 C 136.585 223.038,135.253 222.584,134.585 222.380 C 133.917 222.176,132.927 221.459,132.385 220.786 C 131.843 220.114,131.020 219.122,130.555 218.583 C 130.037 217.982,129.613 216.774,129.459 215.462 C 129.320 214.284,128.936 212.551,128.604 211.610 C 127.769 209.244,127.810 203.275,128.680 200.514 C 129.552 197.746,127.965 194.000,125.918 194.000 C 125.501 194.000,124.647 193.735,124.020 193.411 C 121.873 192.300,120.790 196.013,118.653 211.800 C 118.385 213.780,117.951 215.787,117.689 216.261 C 117.428 216.735,117.055 218.535,116.862 220.261 C 116.640 222.249,116.197 223.913,115.657 224.800 C 115.187 225.570,114.798 226.650,114.793 227.200 C 114.787 227.750,114.446 228.940,114.036 229.844 C 113.625 230.748,113.160 232.254,113.002 233.189 C 112.491 236.212,109.861 239.517,106.944 240.804 C 106.033 241.205,105.168 241.729,105.020 241.967 C 104.682 242.515,100.533 242.539,100.196 241.994 C 100.059 241.771,99.224 241.221,98.343 240.771 C 97.381 240.280,96.502 239.442,96.146 238.676 C 95.819 237.974,95.295 236.950,94.982 236.400 C 94.101 234.855,94.274 232.071,95.391 229.800 C 96.953 226.624,96.800 226.000,94.455 226.000 C 91.088 226.000,85.200 220.132,85.200 216.776 C 85.200 216.291,84.798 215.244,84.306 214.449 C 83.571 213.259,83.386 212.277,83.261 208.908 L 83.110 204.813 85.194 202.406 L 87.279 200.000 89.649 200.000 C 95.532 200.000,98.950 207.165,98.905 219.400 C 98.891 223.120,98.928 223.311,99.434 222.131 C 99.733 221.432,100.333 220.748,100.768 220.610 C 101.600 220.346,101.764 219.981,102.198 217.420 C 102.346 216.552,102.721 215.477,103.033 215.031 C 103.345 214.586,103.602 213.947,103.604 213.611 C 103.606 213.275,104.050 212.100,104.591 211.000 C 105.132 209.900,105.581 208.391,105.587 207.647 C 105.594 206.903,105.937 205.733,106.349 205.047 C 106.923 204.091,107.156 202.655,107.346 198.885 C 107.506 195.732,107.811 193.553,108.197 192.805 C 108.529 192.164,109.000 190.686,109.245 189.520 C 109.490 188.354,109.983 187.069,110.340 186.664 C 111.122 185.777,111.335 179.375,111.307 157.600 C 111.288 142.611,111.388 143.630,109.443 138.517 C 109.174 137.811,108.671 136.911,108.325 136.517 C 107.978 136.123,107.562 135.350,107.400 134.800 C 107.238 134.250,106.838 133.496,106.512 133.123 C 104.312 130.615,104.422 115.092,106.670 110.840 C 107.181 109.873,107.600 108.821,107.600 108.504 C 107.600 108.186,107.960 107.469,108.400 106.909 C 108.840 106.350,109.200 105.589,109.200 105.218 C 109.200 104.848,109.605 104.159,110.100 103.689 C 110.595 103.219,111.630 102.197,112.400 101.419 C 113.858 99.945,118.779 99.319,120.726 100.360 C 121.137 100.580,123.464 100.516,126.686 100.197 C 129.593 99.909,133.738 99.771,135.897 99.890 C 139.296 100.078,140.036 99.999,141.411 99.309 C 142.381 98.822,144.193 98.424,146.060 98.289 C 147.743 98.167,149.633 97.790,150.260 97.450 C 151.724 96.656,154.702 96.633,156.538 97.400 M146.800 109.878 C 146.250 109.970,145.233 110.306,144.540 110.623 C 143.846 110.940,142.878 111.200,142.387 111.200 C 141.896 111.200,140.874 111.583,140.116 112.052 C 139.057 112.707,137.887 112.947,135.069 113.089 C 132.426 113.222,131.116 113.473,130.384 113.986 C 129.826 114.379,128.803 114.824,128.112 114.975 C 127.421 115.127,126.648 115.501,126.396 115.805 C 126.143 116.110,125.321 116.562,124.569 116.810 C 123.100 117.295,120.401 120.809,120.399 122.241 C 120.398 122.659,120.003 123.630,119.521 124.400 C 118.438 126.132,118.381 128.750,119.316 133.800 C 119.682 135.780,120.092 138.970,120.226 140.888 C 120.538 145.357,121.351 146.507,127.072 150.583 C 128.465 151.576,135.962 151.860,138.369 151.011 C 139.322 150.675,140.817 150.558,142.469 150.690 C 144.063 150.818,145.400 150.721,145.927 150.439 C 146.399 150.186,148.501 149.867,150.597 149.729 C 157.974 149.245,161.066 144.296,159.824 134.963 C 159.562 133.001,159.625 132.334,160.142 131.544 C 160.496 131.004,160.979 129.174,161.215 127.476 C 162.279 119.822,168.679 114.472,172.649 117.916 C 175.523 120.410,177.171 128.195,175.309 130.478 C 175.074 130.765,174.653 131.810,174.373 132.800 C 174.093 133.790,173.576 134.960,173.225 135.400 C 171.377 137.713,170.622 139.179,169.952 141.758 C 168.557 147.129,168.948 148.005,172.956 148.482 C 174.300 148.642,176.840 148.979,178.600 149.230 C 181.775 149.684,181.813 149.679,183.500 148.573 L 185.200 147.458 185.206 143.829 C 185.210 141.764,185.555 138.579,186.006 136.439 C 187.048 131.504,187.049 127.435,186.009 125.144 C 185.574 124.185,185.214 123.020,185.209 122.556 C 185.190 120.766,179.348 114.628,175.847 112.721 C 171.403 110.299,168.873 109.737,166.005 110.535 C 162.758 111.437,157.736 111.377,154.027 110.391 C 151.220 109.644,149.083 109.492,146.800 109.878 M305.947 115.267 C 306.765 115.526,308.023 115.569,309.147 115.377 C 317.253 113.995,321.229 115.249,322.539 119.600 C 324.281 125.391,318.377 129.884,312.809 127.005 C 311.268 126.208,306.732 126.208,305.192 127.004 C 303.276 127.995,298.659 128.180,294.661 127.426 C 291.950 126.916,290.640 126.851,289.061 127.152 C 287.927 127.367,285.920 127.650,284.600 127.781 C 283.280 127.911,281.332 128.279,280.271 128.598 C 276.783 129.649,273.096 128.003,271.700 124.774 L 270.910 122.947 271.755 120.404 C 273.228 115.971,276.716 113.919,280.262 115.400 C 281.957 116.108,284.844 116.178,286.803 115.557 C 290.330 114.440,302.737 114.252,305.947 115.267 M142.804 123.065 C 143.500 123.650,144.246 124.505,144.462 124.965 C 144.679 125.424,145.203 126.430,145.627 127.200 C 146.052 127.970,146.399 129.014,146.399 129.520 C 146.400 130.026,146.671 130.964,147.003 131.606 C 147.357 132.291,147.711 134.486,147.860 136.928 L 148.114 141.084 146.772 143.329 C 144.636 146.900,143.014 147.170,139.911 144.474 C 136.754 141.732,135.200 139.844,135.200 138.754 C 135.200 138.179,134.814 137.217,134.341 136.616 C 133.407 135.428,132.550 129.103,132.961 126.431 C 133.576 122.440,139.609 120.377,142.804 123.065 M70.275 153.769 C 67.672 154.362,65.849 155.786,64.925 157.948 C 64.414 159.145,62.943 160.765,59.941 163.438 C 58.275 164.922,57.600 166.129,57.600 167.626 C 57.600 169.039,56.150 171.443,54.566 172.654 C 51.008 175.377,56.336 183.200,61.750 183.200 C 62.968 183.200,64.377 183.532,65.466 184.076 C 67.180 184.932,67.261 184.936,69.142 184.260 C 70.572 183.746,71.330 183.669,72.100 183.962 C 72.762 184.214,73.542 184.218,74.267 183.975 C 74.890 183.766,76.153 183.413,77.072 183.190 C 80.260 182.417,83.200 179.022,83.200 176.115 C 83.200 174.802,83.468 172.844,83.796 171.764 C 84.788 168.494,84.209 164.598,82.277 161.540 C 81.950 161.023,81.557 160.176,81.402 159.659 C 79.917 154.697,75.789 152.512,70.275 153.769 M321.995 158.319 C 323.354 158.964,324.387 159.052,328.600 158.885 C 333.597 158.686,338.156 159.267,339.331 160.252 C 339.953 160.773,340.658 161.200,340.899 161.200 C 341.140 161.200,341.632 161.467,341.992 161.793 C 342.783 162.509,345.781 164.228,347.300 164.837 C 347.905 165.080,348.400 165.438,348.400 165.634 C 348.400 165.829,348.985 166.238,349.700 166.541 C 351.701 167.391,361.200 176.382,361.200 177.427 C 361.200 177.903,361.549 178.736,361.975 179.278 C 362.402 179.820,362.875 180.789,363.028 181.432 C 363.180 182.074,363.613 182.960,363.990 183.400 C 364.820 184.370,366.262 188.376,366.609 190.677 C 366.749 191.599,367.118 192.566,367.431 192.826 C 368.166 193.436,368.141 195.580,367.387 196.576 C 366.623 197.587,366.645 198.796,367.465 200.845 C 368.085 202.394,368.084 202.645,367.463 204.553 C 367.097 205.679,366.623 208.084,366.410 209.898 C 366.197 211.711,365.748 213.727,365.412 214.378 C 365.075 215.028,364.800 215.875,364.800 216.259 C 364.800 217.812,360.156 223.665,357.674 225.239 C 356.720 225.844,355.397 227.208,354.735 228.270 C 353.376 230.448,351.538 232.278,348.840 234.138 C 347.828 234.835,346.550 235.725,346.000 236.116 C 343.560 237.847,339.371 240.490,338.238 241.012 C 337.557 241.327,336.730 241.757,336.400 241.968 C 334.730 243.035,331.095 244.400,329.922 244.400 C 329.191 244.400,327.748 244.850,326.715 245.400 C 325.682 245.950,324.488 246.400,324.062 246.400 C 323.636 246.400,322.503 246.756,321.544 247.191 C 319.325 248.198,317.734 248.203,315.544 247.209 C 314.585 246.774,313.016 246.414,312.058 246.409 C 310.192 246.399,308.459 245.288,307.118 243.242 C 306.742 242.669,305.800 241.300,305.024 240.200 C 304.247 239.100,303.609 237.909,303.606 237.554 C 303.603 237.199,303.240 236.450,302.800 235.891 C 302.360 235.331,302.000 234.712,302.000 234.515 C 302.000 234.317,301.550 233.545,301.000 232.800 C 299.419 230.657,299.551 227.101,301.278 225.319 C 303.207 223.329,304.963 223.486,308.800 225.992 C 313.704 229.194,317.910 230.084,321.350 228.647 C 322.079 228.342,323.828 227.967,325.237 227.813 C 326.647 227.659,328.481 227.188,329.312 226.766 C 330.144 226.345,331.163 226.000,331.576 226.000 C 331.989 226.000,333.321 225.190,334.536 224.200 C 335.752 223.210,336.970 222.400,337.244 222.400 C 338.076 222.400,341.726 219.697,343.001 218.136 C 346.725 213.577,348.653 211.346,349.244 210.909 C 349.609 210.639,350.030 209.934,350.179 209.341 C 350.328 208.748,350.798 207.820,351.225 207.278 C 351.651 206.736,352.000 205.906,352.000 205.435 C 352.000 204.964,352.315 204.133,352.700 203.589 C 353.697 202.181,353.740 192.076,352.754 190.943 C 352.398 190.534,351.979 189.661,351.822 189.003 C 351.665 188.345,351.295 187.535,351.001 187.203 C 350.707 186.871,349.434 185.475,348.172 184.100 L 345.878 181.600 342.203 181.600 C 340.093 181.600,337.691 181.854,336.564 182.196 C 335.484 182.523,334.469 182.793,334.308 182.796 C 333.786 182.803,331.608 178.628,331.598 177.600 C 331.593 177.050,331.326 176.150,331.005 175.600 C 330.684 175.050,330.146 174.019,329.809 173.310 C 328.676 170.920,324.468 169.905,320.248 171.004 C 318.990 171.332,317.468 171.600,316.865 171.600 C 316.059 171.600,315.379 172.067,314.290 173.370 C 313.476 174.344,312.101 175.649,311.234 176.270 C 309.929 177.205,304.113 181.936,301.530 184.162 C 301.162 184.480,300.442 184.960,299.930 185.231 C 299.419 185.501,298.626 186.099,298.168 186.561 C 295.157 189.598,291.112 192.775,290.234 192.793 C 290.032 192.797,289.582 193.063,289.234 193.385 C 288.885 193.707,287.721 194.779,286.648 195.767 C 285.574 196.755,283.709 198.157,282.504 198.882 C 281.298 199.607,279.567 200.923,278.656 201.806 C 276.962 203.449,273.633 205.600,272.785 205.600 C 272.165 205.600,268.400 208.043,268.400 208.446 C 268.400 208.805,267.748 209.182,263.111 211.500 C 261.241 212.435,259.475 213.200,259.187 213.200 C 258.899 213.200,258.333 213.499,257.930 213.864 C 257.526 214.229,256.432 214.667,255.498 214.838 C 252.438 215.399,247.157 217.176,246.114 217.996 C 245.552 218.438,244.920 218.800,244.709 218.800 C 244.499 218.800,243.869 219.160,243.309 219.600 C 242.418 220.301,241.691 220.399,237.446 220.395 L 232.600 220.390 231.000 218.816 C 230.120 217.950,229.097 216.913,228.726 216.512 C 227.816 215.527,227.413 212.049,228.085 210.981 C 228.368 210.530,228.939 209.630,229.354 208.981 C 230.519 207.156,233.065 205.759,236.200 205.223 C 237.740 204.960,239.572 204.571,240.271 204.357 C 240.970 204.144,242.500 203.865,243.671 203.737 C 244.842 203.609,246.216 203.245,246.724 202.928 C 247.935 202.171,252.953 200.437,255.065 200.046 C 255.981 199.876,257.151 199.471,257.665 199.146 C 258.179 198.821,259.344 198.339,260.253 198.075 C 261.161 197.812,262.128 197.327,262.402 196.998 C 262.675 196.669,263.124 196.400,263.400 196.400 C 263.676 196.400,264.130 196.125,264.409 195.789 C 265.188 194.851,268.310 192.838,269.418 192.560 C 269.962 192.423,270.507 192.150,270.629 191.953 C 270.751 191.756,272.088 190.787,273.600 189.800 C 275.112 188.813,276.453 187.838,276.579 187.633 C 276.706 187.429,277.359 187.141,278.032 186.993 C 278.704 186.845,279.345 186.488,279.456 186.199 C 279.567 185.910,280.230 185.438,280.929 185.151 C 282.139 184.654,284.473 183.251,285.459 182.428 C 285.712 182.217,286.567 181.774,287.359 181.443 C 288.152 181.112,288.800 180.673,288.800 180.469 C 288.800 180.264,289.340 179.873,290.000 179.600 C 290.660 179.327,291.200 178.967,291.200 178.800 C 291.200 178.633,291.702 178.289,292.315 178.035 C 292.928 177.781,294.233 176.821,295.215 175.901 C 297.092 174.143,297.467 173.867,299.648 172.638 C 303.951 170.214,304.395 169.417,303.009 166.600 C 301.100 162.719,303.548 158.606,308.400 157.545 C 310.807 157.018,320.405 157.565,321.995 158.319 M137.052 163.942 C 136.561 164.485,135.560 164.754,133.325 164.943 C 127.738 165.415,124.003 168.978,123.997 173.841 C 123.995 175.522,123.766 176.545,123.200 177.400 C 121.738 179.607,122.235 181.703,123.908 180.387 C 124.458 179.954,125.291 179.600,125.760 179.600 C 126.228 179.600,127.239 179.267,128.006 178.860 C 129.116 178.270,130.706 178.065,135.800 177.853 L 142.200 177.587 143.749 175.956 C 145.232 174.396,145.286 174.245,145.005 172.463 C 144.844 171.438,144.597 169.351,144.456 167.824 C 144.207 165.129,144.164 165.039,142.950 164.726 C 142.263 164.548,141.476 164.132,141.201 163.802 C 140.486 162.940,137.880 163.028,137.052 163.942 M328.869 186.518 C 330.936 188.092,331.729 189.545,331.349 191.060 C 330.914 192.793,317.434 205.600,316.045 205.600 C 315.879 205.600,314.136 207.173,312.172 209.097 C 308.554 212.638,306.588 214.196,304.950 214.819 C 304.128 215.131,303.209 217.175,303.202 218.705 C 303.201 218.983,302.975 219.613,302.700 220.105 C 301.550 222.162,301.150 222.400,298.835 222.400 C 296.180 222.400,293.421 223.695,291.220 225.975 C 289.576 227.678,288.458 228.428,284.600 230.415 C 283.060 231.208,281.080 232.520,280.200 233.330 C 279.320 234.139,278.240 234.916,277.800 235.056 C 277.360 235.195,276.491 235.735,275.869 236.255 C 275.247 236.775,274.437 237.201,274.069 237.203 C 273.701 237.204,272.860 237.563,272.200 238.000 C 271.540 238.437,270.709 238.796,270.354 238.797 C 269.999 238.799,269.264 239.149,268.722 239.575 C 268.180 240.002,267.211 240.464,266.568 240.602 C 265.926 240.740,264.590 241.191,263.600 241.604 C 262.610 242.016,260.966 242.462,259.946 242.595 C 258.859 242.736,257.799 243.159,257.384 243.618 C 256.995 244.048,256.514 244.400,256.317 244.400 C 256.119 244.400,255.295 244.850,254.486 245.400 C 253.677 245.950,252.738 246.400,252.401 246.400 C 252.064 246.400,251.116 246.760,250.296 247.200 C 242.842 251.195,232.117 242.609,236.481 236.142 C 239.123 232.227,243.187 230.209,249.400 229.725 C 252.080 229.516,253.342 229.102,257.800 226.969 C 258.900 226.443,260.520 225.898,261.400 225.758 C 262.280 225.617,263.561 225.165,264.247 224.751 C 264.933 224.338,265.944 224.000,266.493 224.000 C 267.043 224.000,267.950 223.640,268.509 223.200 C 269.069 222.760,269.734 222.400,269.988 222.400 C 271.056 222.400,275.572 219.872,277.061 218.442 C 277.946 217.591,279.104 216.761,279.635 216.597 C 280.166 216.433,280.870 216.049,281.200 215.744 C 281.530 215.439,282.790 214.533,284.000 213.730 C 285.210 212.927,286.290 212.145,286.400 211.991 C 286.510 211.837,287.185 211.412,287.900 211.046 C 288.615 210.679,289.200 210.216,289.200 210.017 C 289.200 209.817,289.605 209.533,290.100 209.385 C 290.595 209.237,292.170 208.366,293.600 207.450 C 295.030 206.534,296.490 205.608,296.844 205.392 C 298.562 204.346,302.690 201.611,303.400 201.047 C 306.181 198.840,307.349 198.000,307.633 198.000 C 307.811 198.000,308.715 197.190,309.643 196.200 C 310.571 195.210,311.549 194.400,311.816 194.400 C 312.083 194.400,312.509 194.151,312.762 193.846 C 313.015 193.541,314.432 192.479,315.911 191.486 C 317.390 190.493,319.140 189.168,319.800 188.542 C 323.219 185.298,326.349 184.599,328.869 186.518 M50.172 204.450 C 52.852 206.557,53.747 209.393,52.600 212.138 C 52.149 213.219,51.999 215.236,51.994 220.287 C 51.990 225.437,51.852 227.233,51.405 228.000 C 51.084 228.550,50.548 229.575,50.215 230.278 C 49.881 230.981,49.361 231.701,49.060 231.878 C 48.759 232.055,48.298 232.861,48.036 233.668 C 47.774 234.475,47.298 235.352,46.980 235.617 C 46.661 235.882,46.400 236.556,46.400 237.115 C 46.400 242.758,40.753 246.808,35.887 244.655 L 33.750 243.711 32.874 240.355 C 32.055 237.221,32.037 236.871,32.599 235.036 C 32.929 233.956,33.200 232.690,33.200 232.221 C 33.200 231.752,33.574 230.656,34.032 229.785 C 34.610 228.682,34.923 227.166,35.060 224.800 C 35.283 220.949,36.341 218.244,38.816 215.200 C 40.742 212.832,42.171 210.214,42.578 208.307 C 43.331 204.783,47.746 202.541,50.172 204.450 M72.200 208.783 C 74.716 210.545,75.429 213.044,75.799 221.398 C 76.179 229.955,76.100 232.247,75.378 233.643 C 75.061 234.256,74.600 236.112,74.354 237.767 C 73.401 244.174,68.095 247.133,65.339 242.795 C 64.851 242.028,64.184 241.098,63.855 240.729 C 61.297 237.855,60.383 221.524,62.337 213.600 L 63.274 209.800 65.337 208.489 C 67.812 206.916,69.646 206.995,72.200 208.783 M173.600 209.795 C 174.150 210.116,175.164 210.647,175.854 210.975 C 178.964 212.456,180.460 217.716,178.554 220.466 C 176.181 223.890,175.622 224.079,167.670 224.147 C 161.784 224.197,160.386 224.323,159.320 224.903 C 155.171 227.161,148.387 223.924,148.329 219.658 C 148.296 217.309,151.695 212.800,153.498 212.800 C 154.016 212.800,155.016 212.498,155.720 212.129 C 156.526 211.706,158.554 211.349,161.200 211.164 C 164.092 210.963,165.960 210.614,167.200 210.044 C 169.304 209.078,172.179 208.966,173.600 209.795 M297.562 284.726 C 300.024 285.477,301.290 287.002,301.109 288.997 C 300.971 290.507,300.016 290.731,298.498 289.609 C 295.542 287.424,289.139 288.268,288.644 290.908 C 288.239 293.065,291.842 298.000,293.822 298.000 C 294.207 298.000,296.859 299.741,298.547 301.103 C 303.443 305.051,303.298 311.875,298.238 315.641 C 295.777 317.474,288.824 317.269,285.938 315.279 C 284.119 314.024,282.943 310.453,284.112 309.731 C 284.446 309.524,287.729 311.303,288.917 312.333 C 290.421 313.637,294.930 313.218,296.578 311.622 C 299.394 308.893,297.890 305.774,292.040 302.210 C 288.971 300.340,288.027 299.684,286.876 298.622 C 281.850 293.985,283.696 286.565,290.400 284.454 C 293.129 283.595,293.961 283.627,297.562 284.726 M102.070 285.102 C 102.659 285.486,104.278 287.150,105.669 288.800 C 107.059 290.450,108.377 292.003,108.598 292.251 C 108.819 292.498,109.900 293.741,111.000 295.013 C 112.100 296.284,113.377 297.701,113.838 298.162 C 114.299 298.623,116.179 300.800,118.016 303.000 C 124.209 310.417,123.986 310.664,123.994 296.380 C 124.000 284.545,124.026 284.400,126.066 284.400 C 127.939 284.400,128.000 284.923,128.000 300.894 C 128.000 316.914,128.015 316.800,125.953 316.800 C 124.176 316.800,123.726 316.466,120.912 313.057 C 119.433 311.266,117.200 308.720,115.950 307.400 C 114.700 306.080,112.174 303.200,110.337 301.000 C 105.412 295.103,105.443 295.139,104.881 294.651 C 104.595 294.403,104.002 293.842,103.563 293.405 C 102.149 291.999,101.992 293.184,102.032 304.955 C 102.073 316.952,102.102 316.781,99.980 316.794 C 97.996 316.806,98.000 316.840,98.000 300.894 C 98.000 283.435,98.218 282.590,102.070 285.102 M181.423 285.379 C 181.975 286.221,181.989 286.513,181.528 287.479 L 180.991 288.600 174.795 288.800 L 168.600 289.000 168.486 293.142 C 168.333 298.659,168.001 298.400,175.241 298.400 L 181.185 298.400 181.443 299.429 C 182.110 302.085,181.428 302.400,175.023 302.400 C 168.097 302.400,168.400 302.149,168.400 307.894 C 168.400 313.014,168.104 312.800,175.191 312.800 C 182.432 312.800,184.315 313.685,182.000 316.000 C 181.104 316.896,166.794 317.234,164.626 316.410 L 163.600 316.020 163.600 300.671 L 163.600 285.322 164.500 284.888 C 165.044 284.626,168.438 284.443,173.091 284.427 L 180.782 284.400 181.423 285.379 M213.359 285.782 C 213.938 286.541,214.530 287.756,214.674 288.482 C 214.817 289.207,215.355 290.592,215.868 291.560 C 216.380 292.527,216.800 293.586,216.800 293.912 C 216.800 294.239,217.138 295.067,217.551 295.753 C 217.965 296.439,218.419 297.657,218.562 298.460 C 218.705 299.263,219.088 300.141,219.414 300.412 C 219.740 300.682,220.118 301.597,220.253 302.444 C 220.832 306.063,223.500 305.287,224.135 301.314 C 224.277 300.428,224.660 299.482,224.986 299.212 C 225.312 298.941,225.695 298.063,225.838 297.260 C 225.981 296.457,226.435 295.239,226.849 294.553 C 227.262 293.867,227.600 293.039,227.600 292.712 C 227.600 292.386,228.050 291.273,228.600 290.238 C 229.150 289.204,229.600 287.993,229.600 287.548 C 229.600 283.178,236.055 283.982,237.005 288.470 C 237.160 289.202,237.627 290.361,238.043 291.047 C 238.459 291.733,238.800 292.545,238.800 292.850 C 238.800 293.156,239.250 294.252,239.800 295.285 C 240.350 296.318,240.800 297.451,240.800 297.802 C 240.800 298.154,241.160 299.107,241.599 299.921 C 242.039 300.734,242.586 302.165,242.815 303.100 C 243.490 305.858,245.684 305.387,246.250 302.362 C 246.390 301.613,246.822 300.460,247.209 299.800 C 247.597 299.140,248.044 297.985,248.203 297.233 C 248.363 296.482,248.831 295.312,249.245 294.633 C 249.659 293.955,249.998 293.061,249.999 292.647 C 249.999 292.233,250.344 291.333,250.763 290.647 C 251.183 289.961,251.728 288.645,251.973 287.721 C 252.492 285.771,254.007 284.400,255.646 284.400 C 257.254 284.400,257.602 285.947,256.453 287.992 C 255.984 288.826,255.594 289.754,255.587 290.054 C 255.581 290.355,255.132 291.500,254.591 292.600 C 254.050 293.700,253.604 294.870,253.601 295.200 C 253.598 295.530,253.237 296.340,252.800 297.000 C 252.363 297.660,252.002 298.470,251.999 298.800 C 251.996 299.130,251.550 300.300,251.009 301.400 C 250.468 302.500,250.019 303.781,250.013 304.246 C 250.006 304.711,249.663 305.521,249.252 306.046 C 248.841 306.571,248.371 307.630,248.209 308.400 C 248.047 309.170,247.573 310.361,247.157 311.047 C 246.741 311.733,246.400 312.580,246.400 312.928 C 246.400 314.089,245.524 315.506,244.526 315.961 C 243.327 316.507,242.801 316.238,242.796 315.076 C 242.794 314.594,242.364 313.280,241.840 312.155 C 241.316 311.030,240.766 309.558,240.618 308.883 C 240.470 308.208,240.109 307.456,239.816 307.213 C 239.523 306.970,239.160 306.103,239.008 305.286 C 238.857 304.469,238.388 303.239,237.966 302.553 C 237.545 301.867,237.200 301.069,237.200 300.779 C 237.200 300.490,236.835 299.500,236.390 298.579 C 235.944 297.659,235.352 296.120,235.074 295.159 C 234.136 291.920,232.199 291.538,231.541 294.463 C 231.328 295.412,230.911 296.461,230.614 296.794 C 230.317 297.127,229.861 298.210,229.600 299.200 C 229.339 300.190,228.892 301.270,228.607 301.600 C 228.322 301.930,227.958 302.815,227.798 303.567 C 227.638 304.318,227.169 305.488,226.755 306.167 C 226.341 306.845,226.002 307.671,226.001 308.003 C 226.001 308.335,225.550 309.452,225.000 310.485 C 224.450 311.518,224.000 312.718,224.000 313.151 C 224.000 315.959,220.440 317.257,220.387 314.467 C 220.381 314.100,219.932 312.900,219.391 311.800 C 218.850 310.700,218.404 309.530,218.401 309.200 C 218.398 308.870,218.037 308.060,217.600 307.400 C 217.163 306.740,216.804 305.912,216.803 305.560 C 216.801 305.207,216.350 304.073,215.800 303.038 C 215.250 302.004,214.799 300.852,214.799 300.479 C 214.798 300.105,214.459 299.245,214.045 298.567 C 213.631 297.888,213.161 296.733,213.000 296.000 C 212.839 295.267,212.369 294.112,211.955 293.433 C 211.541 292.755,211.202 291.929,211.201 291.597 C 211.201 291.265,210.750 290.148,210.200 289.115 C 208.028 285.035,210.666 282.251,213.359 285.782 " stroke="none" fill="#e40404" fill-rule="evenodd"></path></g></svg>