<svg xmlns="http://www.w3.org/2000/svg" version="1.1" viewBox="0.00 0.00 48.00 48.00" width="48.00" height="48.00">
<g stroke-width="2.00" fill="none" stroke-linecap="butt">
<path stroke="#f49e94" d="&#10;  M 14.01 12.00&#10;  L 39.74 11.99&#10;  Q 40.46 11.99 40.46 11.26&#10;  L 40.47 8.02&#10;  A 0.71 0.70 90.0 0 0 39.77 7.31&#10;  L 9.28 7.31&#10;  A 0.49 0.49 0.0 0 0 8.79 7.83&#10;  Q 9.51 24.50 7.54 39.77&#10;  Q 7.50 40.11 7.84 40.14&#10;  L 12.28 40.48&#10;  Q 12.57 40.50 12.59 40.21&#10;  Q 13.43 27.00 13.38 12.63&#10;  Q 13.38 12.00 14.01 12.00"/>
<path stroke="#f49e94" d="&#10;  M 28.2429 15.0605&#10;  A 0.36 0.36 0.0 0 0 27.8835 14.6998&#10;  L 16.6035 14.6802&#10;  A 0.36 0.36 0.0 0 0 16.2429 15.0395&#10;  L 16.2371 18.3195&#10;  A 0.36 0.36 0.0 0 0 16.5965 18.6802&#10;  L 27.8765 18.6998&#10;  A 0.36 0.36 0.0 0 0 28.2371 18.3405&#10;  L 28.2429 15.0605"/>
<path stroke="#f49e94" d="&#10;  M 35.36 28.76&#10;  Q 34.89 27.26 34.68 25.78&#10;  Q 34.62 25.37 34.21 25.42&#10;  L 30.91 25.82&#10;  A 0.45 0.44 -9.2 0 0 30.52 26.36&#10;  L 31.49 30.77&#10;  A 0.90 0.89 78.6 0 0 32.52 31.46&#10;  L 34.85 31.03&#10;  Q 35.54 30.90 35.53 31.60&#10;  L 35.52 35.24&#10;  Q 35.52 35.99 34.76 36.00&#10;  L 32.38 36.00&#10;  A 0.63 0.63 0.0 0 0 31.76 36.63&#10;  L 31.77 39.38&#10;  Q 31.77 40.24 32.63 40.24&#10;  L 39.01 40.24&#10;  Q 39.76 40.24 39.76 39.49&#10;  L 39.76 23.26&#10;  Q 39.76 22.82 40.03 22.46&#10;  Q 41.86 20.08 40.08 17.13&#10;  Q 39.57 16.29 39.75 15.34&#10;  Q 39.87 14.68 39.20 14.68&#10;  L 36.03 14.68&#10;  A 0.53 0.52 89.5 0 0 35.51 15.22&#10;  L 35.56 16.98&#10;  Q 35.58 17.53 35.02 17.53&#10;  L 30.98 17.52&#10;  A 0.26 0.26 0.0 0 0 30.72 17.78&#10;  L 30.66 21.70&#10;  Q 30.65 21.99 30.95 22.00&#10;  L 34.99 22.00&#10;  A 0.51 0.50 88.8 0 1 35.49 22.49&#10;  L 35.67 28.70&#10;  Q 35.71 29.90 35.36 28.76"/>
<path stroke="#f49e94" d="&#10;  M 27.53 34.86&#10;  Q 27.30 32.89 27.80 31.39&#10;  C 28.70 28.68 28.22 24.76 28.24 22.01&#10;  Q 28.25 21.31 27.55 21.31&#10;  L 16.97 21.30&#10;  A 0.73 0.73 0.0 0 0 16.24 22.03&#10;  L 16.23 29.96&#10;  A 1.39 1.38 23.9 0 0 16.60 30.90&#10;  L 16.93 31.26&#10;  A 1.32 1.29 23.5 0 1 17.26 32.07&#10;  L 17.40 35.30&#10;  Q 17.42 35.79 16.95 35.93&#10;  L 16.20 36.13&#10;  Q 15.75 36.26 15.75 36.73&#10;  L 15.76 39.92&#10;  Q 15.77 40.33 16.17 40.29&#10;  L 28.70 39.22&#10;  Q 29.31 39.17 29.32 38.55&#10;  L 29.34 35.85&#10;  Q 29.35 35.22 28.72 35.18&#10;  Q 28.43 35.16 28.15 35.25&#10;  Q 27.60 35.43 27.53 34.86"/>
<path stroke="#f49e94" d="&#10;  M 24.7037 25.2686&#10;  A 0.37 0.37 0.0 0 0 24.3350 24.8973&#10;  L 20.1350 24.8827&#10;  A 0.37 0.37 0.0 0 0 19.7638 25.2514&#10;  L 19.7563 27.3914&#10;  A 0.37 0.37 0.0 0 0 20.1250 27.7627&#10;  L 24.3250 27.7773&#10;  A 0.37 0.37 0.0 0 0 24.6962 27.4086&#10;  L 24.7037 25.2686"/>
<path stroke="#f49e94" d="&#10;  M 23.7256 31.3933&#10;  A 0.42 0.42 0.0 0 0 23.2912 30.9882&#10;  L 21.3924 31.0545&#10;  A 0.42 0.42 0.0 0 0 20.9873 31.4889&#10;  L 21.1144 35.1267&#10;  A 0.42 0.42 0.0 0 0 21.5488 35.5318&#10;  L 23.4476 35.4655&#10;  A 0.42 0.42 0.0 0 0 23.8527 35.0311&#10;  L 23.7256 31.3933"/>
</g>
<path fill="#ffffff" d="&#10;  M 9.13 0.00&#10;  L 38.98 0.00&#10;  Q 46.48 1.60 48.00 9.14&#10;  L 48.00 38.97&#10;  Q 46.41 46.37 39.11 48.00&#10;  L 8.78 48.00&#10;  Q 1.55 46.28 0.00 39.12&#10;  L 0.00 8.78&#10;  Q 1.75 1.43 9.13 0.00&#10;  Z&#10;  M 14.01 12.00&#10;  L 39.74 11.99&#10;  Q 40.46 11.99 40.46 11.26&#10;  L 40.47 8.02&#10;  A 0.71 0.70 90.0 0 0 39.77 7.31&#10;  L 9.28 7.31&#10;  A 0.49 0.49 0.0 0 0 8.79 7.83&#10;  Q 9.51 24.50 7.54 39.77&#10;  Q 7.50 40.11 7.84 40.14&#10;  L 12.28 40.48&#10;  Q 12.57 40.50 12.59 40.21&#10;  Q 13.43 27.00 13.38 12.63&#10;  Q 13.38 12.00 14.01 12.00&#10;  Z&#10;  M 28.2429 15.0605&#10;  A 0.36 0.36 0.0 0 0 27.8835 14.6998&#10;  L 16.6035 14.6802&#10;  A 0.36 0.36 0.0 0 0 16.2429 15.0395&#10;  L 16.2371 18.3195&#10;  A 0.36 0.36 0.0 0 0 16.5965 18.6802&#10;  L 27.8765 18.6998&#10;  A 0.36 0.36 0.0 0 0 28.2371 18.3405&#10;  L 28.2429 15.0605&#10;  Z&#10;  M 35.36 28.76&#10;  Q 34.89 27.26 34.68 25.78&#10;  Q 34.62 25.37 34.21 25.42&#10;  L 30.91 25.82&#10;  A 0.45 0.44 -9.2 0 0 30.52 26.36&#10;  L 31.49 30.77&#10;  A 0.90 0.89 78.6 0 0 32.52 31.46&#10;  L 34.85 31.03&#10;  Q 35.54 30.90 35.53 31.60&#10;  L 35.52 35.24&#10;  Q 35.52 35.99 34.76 36.00&#10;  L 32.38 36.00&#10;  A 0.63 0.63 0.0 0 0 31.76 36.63&#10;  L 31.77 39.38&#10;  Q 31.77 40.24 32.63 40.24&#10;  L 39.01 40.24&#10;  Q 39.76 40.24 39.76 39.49&#10;  L 39.76 23.26&#10;  Q 39.76 22.82 40.03 22.46&#10;  Q 41.86 20.08 40.08 17.13&#10;  Q 39.57 16.29 39.75 15.34&#10;  Q 39.87 14.68 39.20 14.68&#10;  L 36.03 14.68&#10;  A 0.53 0.52 89.5 0 0 35.51 15.22&#10;  L 35.56 16.98&#10;  Q 35.58 17.53 35.02 17.53&#10;  L 30.98 17.52&#10;  A 0.26 0.26 0.0 0 0 30.72 17.78&#10;  L 30.66 21.70&#10;  Q 30.65 21.99 30.95 22.00&#10;  L 34.99 22.00&#10;  A 0.51 0.50 88.8 0 1 35.49 22.49&#10;  L 35.67 28.70&#10;  Q 35.71 29.90 35.36 28.76&#10;  Z&#10;  M 27.53 34.86&#10;  Q 27.30 32.89 27.80 31.39&#10;  C 28.70 28.68 28.22 24.76 28.24 22.01&#10;  Q 28.25 21.31 27.55 21.31&#10;  L 16.97 21.30&#10;  A 0.73 0.73 0.0 0 0 16.24 22.03&#10;  L 16.23 29.96&#10;  A 1.39 1.38 23.9 0 0 16.60 30.90&#10;  L 16.93 31.26&#10;  A 1.32 1.29 23.5 0 1 17.26 32.07&#10;  L 17.40 35.30&#10;  Q 17.42 35.79 16.95 35.93&#10;  L 16.20 36.13&#10;  Q 15.75 36.26 15.75 36.73&#10;  L 15.76 39.92&#10;  Q 15.77 40.33 16.17 40.29&#10;  L 28.70 39.22&#10;  Q 29.31 39.17 29.32 38.55&#10;  L 29.34 35.85&#10;  Q 29.35 35.22 28.72 35.18&#10;  Q 28.43 35.16 28.15 35.25&#10;  Q 27.60 35.43 27.53 34.86&#10;  Z"/>
<path fill="#e83c29" d="&#10;  M 13.38 12.63&#10;  Q 13.43 27.00 12.59 40.21&#10;  Q 12.57 40.50 12.28 40.48&#10;  L 7.84 40.14&#10;  Q 7.50 40.11 7.54 39.77&#10;  Q 9.51 24.50 8.79 7.83&#10;  A 0.49 0.49 0.0 0 1 9.28 7.31&#10;  L 39.77 7.31&#10;  A 0.71 0.70 -90.0 0 1 40.47 8.02&#10;  L 40.46 11.26&#10;  Q 40.46 11.99 39.74 11.99&#10;  L 14.01 12.00&#10;  Q 13.38 12.00 13.38 12.63&#10;  Z"/>
<rect fill="#e83c29" x="-6.00" y="-2.00" transform="translate(22.24,16.69) rotate(0.1)" width="12.00" height="4.00" rx="0.36"/>
<path fill="#e83c29" d="&#10;  M 35.67 28.70&#10;  L 35.49 22.49&#10;  A 0.51 0.50 88.8 0 0 34.99 22.00&#10;  L 30.95 22.00&#10;  Q 30.65 21.99 30.66 21.70&#10;  L 30.72 17.78&#10;  A 0.26 0.26 0.0 0 1 30.98 17.52&#10;  L 35.02 17.53&#10;  Q 35.58 17.53 35.56 16.98&#10;  L 35.51 15.22&#10;  A 0.53 0.52 89.5 0 1 36.03 14.68&#10;  L 39.20 14.68&#10;  Q 39.87 14.68 39.75 15.34&#10;  Q 39.57 16.29 40.08 17.13&#10;  Q 41.86 20.08 40.03 22.46&#10;  Q 39.76 22.82 39.76 23.26&#10;  L 39.76 39.49&#10;  Q 39.76 40.24 39.01 40.24&#10;  L 32.63 40.24&#10;  Q 31.77 40.24 31.77 39.38&#10;  L 31.76 36.63&#10;  A 0.63 0.63 0.0 0 1 32.38 36.00&#10;  L 34.76 36.00&#10;  Q 35.52 35.99 35.52 35.24&#10;  L 35.53 31.60&#10;  Q 35.54 30.90 34.85 31.03&#10;  L 32.52 31.46&#10;  A 0.90 0.89 78.6 0 1 31.49 30.77&#10;  L 30.52 26.36&#10;  A 0.45 0.44 -9.2 0 1 30.91 25.82&#10;  L 34.21 25.42&#10;  Q 34.62 25.37 34.68 25.78&#10;  Q 34.89 27.26 35.36 28.76&#10;  Q 35.71 29.90 35.67 28.70&#10;  Z"/>
<path fill="#e83c29" d="&#10;  M 28.15 35.25&#10;  Q 28.43 35.16 28.72 35.18&#10;  Q 29.35 35.22 29.34 35.85&#10;  L 29.32 38.55&#10;  Q 29.31 39.17 28.70 39.22&#10;  L 16.17 40.29&#10;  Q 15.77 40.33 15.76 39.92&#10;  L 15.75 36.73&#10;  Q 15.75 36.26 16.20 36.13&#10;  L 16.95 35.93&#10;  Q 17.42 35.79 17.40 35.30&#10;  L 17.26 32.07&#10;  A 1.32 1.29 23.5 0 0 16.93 31.26&#10;  L 16.60 30.90&#10;  A 1.39 1.38 23.9 0 1 16.23 29.96&#10;  L 16.24 22.03&#10;  A 0.73 0.73 0.0 0 1 16.97 21.30&#10;  L 27.55 21.31&#10;  Q 28.25 21.31 28.24 22.01&#10;  C 28.22 24.76 28.70 28.68 27.80 31.39&#10;  Q 27.30 32.89 27.53 34.86&#10;  Q 27.60 35.43 28.15 35.25&#10;  Z&#10;  M 24.7037 25.2686&#10;  A 0.37 0.37 0.0 0 0 24.3350 24.8973&#10;  L 20.1350 24.8827&#10;  A 0.37 0.37 0.0 0 0 19.7638 25.2514&#10;  L 19.7563 27.3914&#10;  A 0.37 0.37 0.0 0 0 20.1250 27.7627&#10;  L 24.3250 27.7773&#10;  A 0.37 0.37 0.0 0 0 24.6962 27.4086&#10;  L 24.7037 25.2686&#10;  Z&#10;  M 23.7256 31.3933&#10;  A 0.42 0.42 0.0 0 0 23.2912 30.9882&#10;  L 21.3924 31.0545&#10;  A 0.42 0.42 0.0 0 0 20.9873 31.4889&#10;  L 21.1144 35.1267&#10;  A 0.42 0.42 0.0 0 0 21.5488 35.5318&#10;  L 23.4476 35.4655&#10;  A 0.42 0.42 0.0 0 0 23.8527 35.0311&#10;  L 23.7256 31.3933&#10;  Z"/>
<rect fill="#ffffff" x="-2.47" y="-1.44" transform="translate(22.23,26.33) rotate(0.2)" width="4.94" height="2.88" rx="0.37"/>
<rect fill="#ffffff" x="-1.37" y="-2.24" transform="translate(22.42,33.26) rotate(-2.0)" width="2.74" height="4.48" rx="0.42"/>
</svg>