<?xml version="1.0" standalone="no"?><!DOCTYPE svg PUBLIC "-//W3C//DTD SVG 1.1//EN" "http://www.w3.org/Graphics/SVG/1.1/DTD/svg11.dtd"><svg t="1707717195470" class="icon" viewBox="0 0 1024 1024" version="1.1" xmlns="http://www.w3.org/2000/svg" p-id="5824" xmlns:xlink="http://www.w3.org/1999/xlink" width="48" height="48"><path d="M328.178326 0h367.600683c114.128578 0 155.51352 11.860839 197.239782 34.174576a232.608975 232.608975 0 0 1 96.763968 96.763968c22.313737 41.726261 34.174576 83.111204 34.174576 197.239782v367.600683c0 114.128578-11.860839 155.51352-34.174576 197.239782a232.608975 232.608975 0 0 1-96.763968 96.763968c-41.726261 22.313737-83.111204 34.174576-197.239782 34.174576H328.178326c-114.128578 0-155.51352-11.860839-197.239782-34.174576A232.608975 232.608975 0 0 1 34.174576 892.976126C11.860839 851.292529 0 809.907587 0 695.779009V328.178326c0-114.128578 11.860839-155.51352 34.174576-197.239782A232.608975 232.608975 0 0 1 130.981209 34.174576C172.664806 11.860839 214.049748 0 328.178326 0z m-11.818174 131.066539a16.767301 16.767301 0 0 0-4.693138 12.287488c-0.08533 60.242823 0 120.485646-0.042665 180.72847H261.962418a45.99275 45.99275 0 0 0-23.593683 6.570392c-15.53002 9.044956-25.513604 27.646848-25.086955 46.547394l0.042665 242.549894c0.08533 21.503104 14.079413 41.768926 33.107954 48.424649 9.044956 3.498521 18.772551 2.645223 28.158826 2.730553h36.990459v209.697929c0 4.693138 1.621266 9.77026 5.205117 12.714137 3.83984 3.071872 9.087621 3.327861 13.43944 1.493271 8.106329-3.114537 14.292738-9.77026 20.905795-15.44469 27.860172-24.532311 55.67768-49.149952 83.580518-73.682263 1.493271-1.365276 2.986542-3.114537 3.114537-5.333111 0.17066-2.602558-1.450606-4.735803-2.730553-6.783717l-18.687222-28.201492c-1.493271-2.773218-4.821132-1.578601-6.741052-0.042665-16.383317 12.116828-32.083997 25.214949-48.424649 37.374443-0.17066-43.944836 0-87.889671-0.042665-131.791842 17.151285-0.08533 34.302571 0.08533 51.453856-0.08533 18.985876-0.469314 36.777134-14.207408 43.518187-33.193283 2.303904-6.314404 3.327861-13.098121 3.285196-19.881839V375.237698c-0.127995-21.03379-13.482105-40.958293-31.998666-47.955335a46.590059 46.590059 0 0 0-17.577935-3.199866H361.243615c0-34.302571-0.127995-68.562477 0.042665-102.822383 16.340652 12.159493 32.041332 25.257614 48.424649 37.374443 1.91992 1.578601 5.247781 2.730553 6.741052 0 6.698388-10.239573 13.6101-20.351152 20.180493-30.63339a6.911712 6.911712 0 0 0-1.407942-9.258281l-88.998958-78.503396a51.795175 51.795175 0 0 0-16.639307-11.34886 12.970126 12.970126 0 0 0-13.226115 2.175909zM269.300779 378.181576c2.261239-1.109287 4.778468-0.981292 7.167701-0.981293 11.69018 0.08533 23.423024 0 35.155869 0v240.544644h-37.929086c-5.75976 0.17066-10.964876-5.333111-10.751552-11.51952V388.762468a11.43419 11.43419 0 0 1 6.399733-10.538227z m91.942836-0.938628h37.929086c5.75976-0.255989 10.922212 5.333111 10.708887 11.476855v217.548269c0.213324 6.143744-4.949127 11.732844-10.708887 11.51952l-37.971751-0.042665V377.242948zM459.500854 264.095663c-0.08533 9.68493-0.042665 19.412524 0 29.097454-0.127995 6.143744 4.991792 11.60485 10.708887 11.51952 31.273364 0.08533 62.546727 0 93.820091 0v519.786342c-0.426649 6.143744 4.138494 12.074164 9.898254 12.415483 7.85034 0.255989 15.658014 0 23.465689 0.127995 3.199867-0.08533 6.613058 0.341319 9.556935-1.407942a12.074164 12.074164 0 0 0 5.802425-11.092871V304.755302c47.784676-0.08533 95.569351 0 143.396692-0.08533 5.75976 0.127995 10.836882-5.333111 10.751552-11.476855 0.08533-9.386276 0-18.772551 0-28.158827a12.159493 12.159493 0 0 0-5.205116-10.751552c-3.541186-2.389234-7.935669-1.621266-11.946169-1.706595h-278.601725c-6.058414-0.511979-11.775509 4.991792-11.647515 11.51952z m227.147869 171.342194a8.788967 8.788967 0 0 0-5.973084 5.119786c-1.962585 4.351819-1.407941 9.258281-1.450607 13.908754v150.692388c0 4.266489 0.767968 9.215616 4.138495 11.988834 3.114537 2.431899 7.338361 1.578601 10.623557 0 4.991792-2.346569 8.746302-6.655723 12.842131-10.367568l64.509313-58.450898c3.583851-3.199867 7.466356-6.229074 9.940919-10.623557 3.626516-5.887755 5.631765-13.482105 3.327861-20.351152-1.791925-6.143744-6.399733-10.580892-11.050206-14.292738-24.7883-21.417774-49.661931-42.664889-74.407567-64.167993a15.27403 15.27403 0 0 0-12.500812-3.455856z" fill="#FF8500" p-id="5825"></path></svg>