<svg xmlns="http://www.w3.org/2000/svg" version="1.1" viewBox="0.00 0.00 48.00 48.00" width="48.00" height="48.00">
<g stroke-width="2.00" fill="none" stroke-linecap="butt">
<path stroke="#fcaa80" d="&#10;  M 29.26 0.00&#10;  L 29.24 10.01&#10;  Q 29.24 10.78 29.90 10.38&#10;  L 33.26 8.32&#10;  A 0.78 0.77 -45.3 0 1 34.08 8.31&#10;  L 37.60 10.43&#10;  A 0.37 0.37 0.0 0 0 38.16 10.11&#10;  L 38.11 0.00"/>
<path stroke="#fcaa80" d="&#10;  M 48.00 27.62&#10;  Q 32.88 12.34 12.74 19.05&#10;  Q 5.89 21.33 0.00 27.87"/>
<path stroke="#f44a00" d="&#10;  M 43.62 48.00&#10;  Q 42.67 46.26 43.06 43.92&#10;  Q 43.71 40.09 43.71 39.99&#10;  Q 43.87 34.47 40.97 29.85&#10;  Q 39.52 27.54 36.29 24.58&#10;  Q 35.79 24.13 35.14 23.97&#10;  Q 34.49 23.80 34.20 23.09&#10;  Q 33.97 22.54 33.38 22.42&#10;  Q 31.76 22.10 30.34 21.29&#10;  C 29.23 20.66 28.10 21.02 26.91 20.55&#10;  Q 25.67 20.07 24.34 20.08&#10;  Q 20.18 20.12 16.26 21.93&#10;  Q 15.00 22.51 13.83 23.04&#10;  Q 12.72 23.56 11.85 24.40&#10;  Q 10.09 26.11 8.54 27.87&#10;  Q 7.18 29.40 6.47 31.28&#10;  Q 5.71 33.27 5.09 35.36&#10;  Q 3.83 39.58 4.36 41.25&#10;  Q 5.42 44.59 6.29 48.00"/>
<path stroke="#e42f00" d="&#10;  M 33.45 48.00&#10;  L 35.87 40.78"/>
<path stroke="#f7a080" d="&#10;  M 35.87 40.78&#10;  L 37.58 40.21&#10;  A 1.22 1.22 0.0 0 0 37.77 37.98&#10;  Q 36.23 37.15 34.17 37.62"/>
<path stroke="#e42f00" d="&#10;  M 34.17 37.62&#10;  Q 33.94 34.03 31.80 33.44"/>
<path stroke="#f7a080" d="&#10;  M 31.80 33.44&#10;  Q 33.48 32.67 34.54 31.01&#10;  A 1.59 1.59 0.0 0 0 33.39 28.58&#10;  Q 31.79 28.39 30.53 30.24"/>
<path stroke="#e42f00" d="&#10;  M 30.53 30.24&#10;  Q 28.71 28.14 25.28 28.07"/>
<path stroke="#f7a080" d="&#10;  M 25.28 28.07&#10;  Q 25.59 25.90 24.59 24.98&#10;  A 1.33 1.33 0.0 0 0 22.36 25.85&#10;  L 22.18 28.18"/>
<path stroke="#e42f00" d="&#10;  M 22.18 28.18&#10;  Q 21.40 27.90 20.95 27.51&#10;  Q 20.51 27.12 20.04 27.48&#10;  Q 19.53 27.85 18.90 27.85&#10;  Q 18.39 27.85 18.06 28.23&#10;  Q 17.26 29.16 16.23 29.20"/>
<path stroke="#f7a080" d="&#10;  M 16.23 29.20&#10;  L 14.91 28.68&#10;  A 1.42 1.41 -84.6 0 0 13.01 30.26&#10;  Q 13.41 32.43 15.85 33.42"/>
<path stroke="#e42f00" d="&#10;  M 15.85 33.42&#10;  Q 14.06 33.69 13.54 37.35"/>
<path stroke="#f7a080" d="&#10;  M 13.54 37.35&#10;  Q 10.83 36.77 9.85 38.06&#10;  A 1.30 1.30 0.0 0 0 10.47 40.08&#10;  Q 12.43 40.75 14.44 40.00"/>
<path stroke="#e42f00" d="&#10;  M 14.44 40.00&#10;  Q 13.54 40.93 13.93 42.49&#10;  Q 14.16 43.38 15.13 44.56&#10;  Q 16.54 46.26 17.83 48.00"/>
<path stroke="#ed8e80" d="&#10;  M 25.28 28.07&#10;  Q 24.97 29.63 24.09 31.04&#10;  A 0.47 0.46 -40.0 0 1 23.26 30.97&#10;  L 22.18 28.18"/>
<path stroke="#ed8e80" d="&#10;  M 30.53 30.24&#10;  Q 29.55 31.76 29.38 33.41&#10;  Q 29.32 33.94 29.85 33.91&#10;  Q 30.78 33.88 31.80 33.44"/>
<path stroke="#ed8e80" d="&#10;  M 34.17 37.62&#10;  Q 32.72 37.92 31.74 38.77&#10;  Q 31.33 39.13 31.76 39.45&#10;  Q 33.23 40.51 35.87 40.78"/>
<path stroke="#ed8e80" d="&#10;  M 14.44 40.00&#10;  L 15.74 39.27&#10;  A 0.52 0.51 -47.2 0 0 15.71 38.35&#10;  L 13.54 37.35"/>
<path stroke="#ed8e80" d="&#10;  M 15.85 33.42&#10;  Q 19.95 35.56 16.23 29.20"/>
</g>
<path fill="#ffffff" d="&#10;  M 3.65 0.00&#10;  L 29.26 0.00&#10;  L 29.24 10.01&#10;  Q 29.24 10.78 29.90 10.38&#10;  L 33.26 8.32&#10;  A 0.78 0.77 -45.3 0 1 34.08 8.31&#10;  L 37.60 10.43&#10;  A 0.37 0.37 0.0 0 0 38.16 10.11&#10;  L 38.11 0.00&#10;  L 44.45 0.00&#10;  Q 47.02 1.04 48.00 3.65&#10;  L 48.00 27.62&#10;  Q 32.88 12.34 12.74 19.05&#10;  Q 5.89 21.33 0.00 27.87&#10;  L 0.00 3.54&#10;  Q 1.02 0.93 3.65 0.00&#10;  Z"/>
<path fill="#f95400" d="&#10;  M 29.26 0.00&#10;  L 38.11 0.00&#10;  L 38.16 10.11&#10;  A 0.37 0.37 0.0 0 1 37.60 10.43&#10;  L 34.08 8.31&#10;  A 0.78 0.77 -45.3 0 0 33.26 8.32&#10;  L 29.90 10.38&#10;  Q 29.24 10.78 29.24 10.01&#10;  L 29.26 0.00&#10;  Z"/>
<path fill="#f95400" d="&#10;  M 48.00 27.62&#10;  L 48.00 44.45&#10;  Q 46.84 47.02 44.35 48.00&#10;  L 43.62 48.00&#10;  Q 42.67 46.26 43.06 43.92&#10;  Q 43.71 40.09 43.71 39.99&#10;  Q 43.87 34.47 40.97 29.85&#10;  Q 39.52 27.54 36.29 24.58&#10;  Q 35.79 24.13 35.14 23.97&#10;  Q 34.49 23.80 34.20 23.09&#10;  Q 33.97 22.54 33.38 22.42&#10;  Q 31.76 22.10 30.34 21.29&#10;  C 29.23 20.66 28.10 21.02 26.91 20.55&#10;  Q 25.67 20.07 24.34 20.08&#10;  Q 20.18 20.12 16.26 21.93&#10;  Q 15.00 22.51 13.83 23.04&#10;  Q 12.72 23.56 11.85 24.40&#10;  Q 10.09 26.11 8.54 27.87&#10;  Q 7.18 29.40 6.47 31.28&#10;  Q 5.71 33.27 5.09 35.36&#10;  Q 3.83 39.58 4.36 41.25&#10;  Q 5.42 44.59 6.29 48.00&#10;  L 3.56 48.00&#10;  Q 0.95 46.94 0.00 44.36&#10;  L 0.00 27.87&#10;  Q 5.89 21.33 12.74 19.05&#10;  Q 32.88 12.34 48.00 27.62&#10;  Z"/>
<path fill="#ee4000" d="&#10;  M 43.62 48.00&#10;  L 33.45 48.00&#10;  L 35.87 40.78&#10;  L 37.58 40.21&#10;  A 1.22 1.22 0.0 0 0 37.77 37.98&#10;  Q 36.23 37.15 34.17 37.62&#10;  Q 33.94 34.03 31.80 33.44&#10;  Q 33.48 32.67 34.54 31.01&#10;  A 1.59 1.59 0.0 0 0 33.39 28.58&#10;  Q 31.79 28.39 30.53 30.24&#10;  Q 28.71 28.14 25.28 28.07&#10;  Q 25.59 25.90 24.59 24.98&#10;  A 1.33 1.33 0.0 0 0 22.36 25.85&#10;  L 22.18 28.18&#10;  Q 21.40 27.90 20.95 27.51&#10;  Q 20.51 27.12 20.04 27.48&#10;  Q 19.53 27.85 18.90 27.85&#10;  Q 18.39 27.85 18.06 28.23&#10;  Q 17.26 29.16 16.23 29.20&#10;  L 14.91 28.68&#10;  A 1.42 1.41 -84.6 0 0 13.01 30.26&#10;  Q 13.41 32.43 15.85 33.42&#10;  Q 14.06 33.69 13.54 37.35&#10;  Q 10.83 36.77 9.85 38.06&#10;  A 1.30 1.30 0.0 0 0 10.47 40.08&#10;  Q 12.43 40.75 14.44 40.00&#10;  Q 13.54 40.93 13.93 42.49&#10;  Q 14.16 43.38 15.13 44.56&#10;  Q 16.54 46.26 17.83 48.00&#10;  L 6.29 48.00&#10;  Q 5.42 44.59 4.36 41.25&#10;  Q 3.83 39.58 5.09 35.36&#10;  Q 5.71 33.27 6.47 31.28&#10;  Q 7.18 29.40 8.54 27.87&#10;  Q 10.09 26.11 11.85 24.40&#10;  Q 12.72 23.56 13.83 23.04&#10;  Q 15.00 22.51 16.26 21.93&#10;  Q 20.18 20.12 24.34 20.08&#10;  Q 25.67 20.07 26.91 20.55&#10;  C 28.10 21.02 29.23 20.66 30.34 21.29&#10;  Q 31.76 22.10 33.38 22.42&#10;  Q 33.97 22.54 34.20 23.09&#10;  Q 34.49 23.80 35.14 23.97&#10;  Q 35.79 24.13 36.29 24.58&#10;  Q 39.52 27.54 40.97 29.85&#10;  Q 43.87 34.47 43.71 39.99&#10;  Q 43.71 40.09 43.06 43.92&#10;  Q 42.67 46.26 43.62 48.00&#10;  Z"/>
<path fill="#ffffff" d="&#10;  M 25.28 28.07&#10;  Q 24.97 29.63 24.09 31.04&#10;  A 0.47 0.46 -40.0 0 1 23.26 30.97&#10;  L 22.18 28.18&#10;  L 22.36 25.85&#10;  A 1.33 1.33 0.0 0 1 24.59 24.98&#10;  Q 25.59 25.90 25.28 28.07&#10;  Z"/>
<path fill="#da1d00" d="&#10;  M 22.18 28.18&#10;  L 23.26 30.97&#10;  A 0.47 0.46 -40.0 0 0 24.09 31.04&#10;  Q 24.97 29.63 25.28 28.07&#10;  Q 28.71 28.14 30.53 30.24&#10;  Q 29.55 31.76 29.38 33.41&#10;  Q 29.32 33.94 29.85 33.91&#10;  Q 30.78 33.88 31.80 33.44&#10;  Q 33.94 34.03 34.17 37.62&#10;  Q 32.72 37.92 31.74 38.77&#10;  Q 31.33 39.13 31.76 39.45&#10;  Q 33.23 40.51 35.87 40.78&#10;  L 33.45 48.00&#10;  L 17.83 48.00&#10;  Q 16.54 46.26 15.13 44.56&#10;  Q 14.16 43.38 13.93 42.49&#10;  Q 13.54 40.93 14.44 40.00&#10;  L 15.74 39.27&#10;  A 0.52 0.51 -47.2 0 0 15.71 38.35&#10;  L 13.54 37.35&#10;  Q 14.06 33.69 15.85 33.42&#10;  Q 19.95 35.56 16.23 29.20&#10;  Q 17.26 29.16 18.06 28.23&#10;  Q 18.39 27.85 18.90 27.85&#10;  Q 19.53 27.85 20.04 27.48&#10;  Q 20.51 27.12 20.95 27.51&#10;  Q 21.40 27.90 22.18 28.18&#10;  Z"/>
<path fill="#ffffff" d="&#10;  M 16.23 29.20&#10;  Q 19.95 35.56 15.85 33.42&#10;  Q 13.41 32.43 13.01 30.26&#10;  A 1.42 1.41 -84.6 0 1 14.91 28.68&#10;  L 16.23 29.20&#10;  Z"/>
<path fill="#ffffff" d="&#10;  M 31.80 33.44&#10;  Q 30.78 33.88 29.85 33.91&#10;  Q 29.32 33.94 29.38 33.41&#10;  Q 29.55 31.76 30.53 30.24&#10;  Q 31.79 28.39 33.39 28.58&#10;  A 1.59 1.59 0.0 0 1 34.54 31.01&#10;  Q 33.48 32.67 31.80 33.44&#10;  Z"/>
<path fill="#ffffff" d="&#10;  M 13.54 37.35&#10;  L 15.71 38.35&#10;  A 0.52 0.51 -47.2 0 1 15.74 39.27&#10;  L 14.44 40.00&#10;  Q 12.43 40.75 10.47 40.08&#10;  A 1.30 1.30 0.0 0 1 9.85 38.06&#10;  Q 10.83 36.77 13.54 37.35&#10;  Z"/>
<path fill="#ffffff" d="&#10;  M 34.17 37.62&#10;  Q 36.23 37.15 37.77 37.98&#10;  A 1.22 1.22 0.0 0 1 37.58 40.21&#10;  L 35.87 40.78&#10;  Q 33.23 40.51 31.76 39.45&#10;  Q 31.33 39.13 31.74 38.77&#10;  Q 32.72 37.92 34.17 37.62&#10;  Z"/>
</svg>