<?xml version="1.0" standalone="no"?><!DOCTYPE svg PUBLIC "-//W3C//DTD SVG 1.1//EN" "http://www.w3.org/Graphics/SVG/1.1/DTD/svg11.dtd"><svg t="1707723886501" class="icon" viewBox="0 0 1024 1024" version="1.1" xmlns="http://www.w3.org/2000/svg" p-id="73629" xmlns:xlink="http://www.w3.org/1999/xlink" width="48" height="48"><path d="M102.4 0h819.2c56.32 0 102.4 46.08 102.4 102.4v819.2c0 56.32-46.08 102.4-102.4 102.4H102.4c-56.32 0-102.4-46.08-102.4-102.4V102.4c0-56.32 46.08-102.4 102.4-102.4z" fill="#1E6CE9" p-id="73630"></path><path d="M715.707733 577.194667c40.072533 7.441067 49.425067 19.933867 44.714667 59.562666-9.216 78.165333-56.149333 127.658667-144.0768 151.7568-151.893333 41.642667-306.005333-47.7184-340.6848-199.68-12.8-55.842133-5.870933-111.5136 17.373867-164.590933 6.144-14.097067 21.538133-28.125867 5.5296-44.373333-15.0528-15.428267-32.529067-7.543467-49.220267-2.423467-5.2224 1.6384-10.4448 3.515733-19.114667 6.485333 0.341333-21.845333 9.216-35.2256 22.903467-46.8992 23.6544-20.206933 53.930667-32.187733 81.237333-26.7264 41.301333 8.192 64.887467-13.038933 92.808534-34.338133 50.551467-38.570667 106.871467-61.508267 172.544-55.637333 42.530133 3.822933 70.5536 22.766933 82.056533 63.488 5.0176 17.408 13.312 22.050133 29.661867 21.333333 15.701333-0.7168 27.579733 7.168 30.788266 23.04 3.2768 16.1792-7.304533 26.112-19.7632 33.8944-14.9504 9.4208-36.420267 11.400533-78.677333 7.7824-4.778667 5.870933 1.6384 7.202133 4.334933 9.352533 3.447467 2.7648 7.714133 4.608 13.824 8.192-13.858133 4.061867-25.6 7.2704-37.137066 10.922667-28.125867 8.874667-51.712 16.384-52.599467 56.661333-0.887467 41.472-52.224 75.093333-95.675733 72.704 0.238933-2.286933 0-4.846933 0.9216-6.826666 7.7824-15.223467 32.0512-30.378667 9.966933-47.479467-16.827733-13.073067-32.221867 6.826667-44.7488 17.237333-51.541333 42.8032-72.021333 116.599467-50.926933 177.834667 21.4016 62.3616 77.7216 105.710933 152.098133 108.987733-47.240533-21.640533-78.6432-47.547733-94.8224-87.2448-16.418133-40.277333-16.0768-80.7936 3.1744-121.0368-5.9392 61.781333-6.656 120.832 62.0544 151.552 83.968 22.9376 141.858133-12.970667 157.696-96.597333 4.4032-23.825067 9.557333-49.5616 43.7248-46.967467h0.068267z" fill="#FFFFFF" p-id="73631"></path><path d="M580.266667 307.2m-34.133334 0a34.133333 34.133333 0 1 0 68.266667 0 34.133333 34.133333 0 1 0-68.266667 0Z" fill="#1E6CE9" p-id="73632"></path><path d="M588.8 298.666667m-8.533333 0a8.533333 8.533333 0 1 0 17.066666 0 8.533333 8.533333 0 1 0-17.066666 0Z" fill="#FFFFFF" p-id="73633"></path><path d="M715.707733 577.194667c-28.5696 6.997333-32.5632 28.672-34.6112 53.725866-6.826667 83.968-91.477333 129.092267-166.912 89.770667 90.9312-1.365333 133.0176-47.684267 124.074667-135.9872-2.389333-23.04 2.4576-42.7008 29.218133-47.3088 30.9248-5.461333 45.943467 9.8304 48.128 39.765333h0.1024z" fill="#FD9814" p-id="73634"></path></svg>