<?xml version="1.0" standalone="no"?><!DOCTYPE svg PUBLIC "-//W3C//DTD SVG 1.1//EN" "http://www.w3.org/Graphics/SVG/1.1/DTD/svg11.dtd"><svg t="1707705066326" class="icon" viewBox="0 0 1024 1024" version="1.1" xmlns="http://www.w3.org/2000/svg" p-id="2111" xmlns:xlink="http://www.w3.org/1999/xlink" width="48" height="48"><path d="M849.92 51.2H174.08c-67.8656 0-122.88 55.0144-122.88 122.88v675.84c0 67.8656 55.0144 122.88 122.88 122.88h675.84c67.8656 0 122.88-55.0144 122.88-122.88V174.08c0-67.8656-55.0144-122.88-122.88-122.88zM445.09696 727.35232a49.152 49.152 0 0 1-49.152 49.152h-48.6912s44.93824-13.88032 44.93824-54.01088V296.05888c0-13.65504-11.00288-24.71936-24.576-24.71936H282.28096c-13.568 0-24.576 11.06432-24.576 24.71936v401.71008c0 13.64992 11.00288 24.71936 24.576 24.71936h28.10368v0.03072a26.9824 26.9824 0 0 1 0 53.95456v0.03072H253.952a49.152 49.152 0 0 1-49.152-49.152V268.28288a49.152 49.152 0 0 1 49.152-49.152h141.99296a49.152 49.152 0 0 1 49.152 49.152v459.06944z m332.22656-269.91616v290.70336c0 56.43776-52.80256 58.25024-52.80256 58.25024v-347.5968h-170.19904v289.34656c0 56.43776-52.79744 58.25024-52.79744 58.25024V271.33952c0-52.64896 50.9696-53.7344 50.9696-53.7344h266.69568c0 56.5504-56.43264 53.7344-56.43264 53.7344h-179.30752c-30.94528 0-29.12256 27.1616-29.12256 27.1616v106.56256H819.2c0 37.76512-25.15456 49.03936-41.87648 52.37248z" fill="#ED2400" p-id="2112"></path></svg>