<svg xmlns="http://www.w3.org/2000/svg" version="1.1" viewBox="0 0 48 48" width="48" height="48"><g stroke-width="2" fill="none" stroke-linecap="butt"><path stroke="#f6958c" d="M 17.52 12.23 Q 17.54 11.71 17.40 11.23 Q 17.14 10.37 16.57 11.05 Q 15.61 12.17 15.18 13.67 A 0.42 0.42 0.0 0 1 14.47 13.85 Q 14.17 13.55 14.18 13.10 Q 14.19 12.48 13.62 12.71 Q 13.30 12.83 13.17 13.14 C 12.28 15.25 10.63 17.98 11.55 20.23 C 14.34 27.08 33.41 23.81 29.50 15.05 A 1.57 1.57 0.0 0 1 30.01 13.14 Q 30.72 12.61 30.76 11.76 Q 30.79 11.08 30.14 11.28 Q 28.79 11.71 27.47 12.58 Q 25.54 13.86 26.36 11.70 Q 26.58 11.13 26.87 10.58 Q 27.68 9.05 26.10 9.76 C 24.89 10.30 23.67 12.20 22.58 12.38 A 0.61 0.61 0.0 0 1 21.96 11.47 Q 22.56 10.49 22.58 9.45 Q 22.60 8.49 21.76 8.95 Q 20.03 9.87 18.93 11.94 Q 18.77 12.23 18.52 12.44 Q 18.42 12.52 18.32 12.61 Q 17.46 13.40 17.52 12.23" data-c-stroke="f6958c"/><path stroke="#ae8985" d="M8.56 26.07C9.63 24.81 12.83 25.67 13.94 26.31Q14.44 26.6 14.61 26.05L15.02 24.73A.66.65-73.1 0 0 14.59 23.91Q9.34 22.3 5.71 25.24C3.96 26.67 4.59 29.2 6.93 29.45Q8.29 29.6 9.54 30.06 10.93 30.59 9.53 31.1 6.86 32.08 3.97 30.12A.19.19 0 0 0 3.68 30.23L3.07 32.48A.3.3 0 0 0 3.26 32.85C6.54 33.93 11.99 34.01 13.79 30.39A1.94 1.93-70.2 0 0 12.51 27.65L8.79 26.77A.43.43 0 0 1 8.56 26.07M27.02 25.94 28.01 25.92Q29.47 25.89 29.04 27.28L27.27 33.08A.33.33 0 0 0 27.59 33.51L30.09 33.49Q30.62 33.49 30.79 32.98 31.75 29.98 32.71 26.7C34.19 21.66 25.53 23.63 23.25 24.35A1.48 1.46-89.9 0 0 22.3 25.31L19.93 33.03Q19.79 33.49 20.28 33.49L22.76 33.5Q23.3 33.5 23.46 32.98L25.15 27.37A2.01 1.99 7.4 0 1 27.02 25.94M41.39 26.73C40.93 29.04 40.49 31.98 37.18 31.33A.88.87-62.6 0 1 36.72 29.87Q37.63 28.92 39 28.95A1.15 1.15 0 0 0 40.14 28.09L40.24 27.71A.55.55 0 0 0 39.7 27.02C37.02 27.03 33.04 28 32.8 31.19A1.98 1.98 0 0 0 34.41 33.28Q38.58 34.07 42.37 31.82C44.15 30.76 44.53 27.83 44.95 25.97A1.81 1.8 13.6 0 0 43.64 23.83Q40.65 23.06 36.66 23.69 35.81 23.83 35.57 24.66L35.38 25.35Q35.13 26.23 36 25.95 38.22 25.25 40.63 25.64A.93.92-80 0 1 41.39 26.73" data-c-stroke="ae8985"/><path stroke="#ae8985" d="M 15.64 37.43 Q 18.27 31.89 20.26 25.26 A 0.25 0.25 0.0 0 0 20.04 24.94 L 16.75 24.79 Q 16.46 24.78 16.40 25.06 Q 15.34 29.60 14.34 35.30 Q 14.17 36.22 14.17 37.09 Q 14.13 40.58 15.64 37.43" data-c-stroke="ae8985"/><path stroke="#f6958c" d="M 26.4582 18.1130 A 6.51 3.97 -6.5 0 0 19.5406 14.9055 A 6.51 3.97 -6.5 0 0 13.5218 19.5870 A 6.51 3.97 -6.5 0 0 20.4394 22.7945 A 6.51 3.97 -6.5 0 0 26.4582 18.1130" data-c-stroke="f6958c"/><path stroke="#cb8882" d="M 21.8892 17.3599 A 3.20 2.69 -33.8 0 0 17.7336 16.9047 A 3.20 2.69 -33.8 0 0 16.5708 20.9201 A 3.20 2.69 -33.8 0 0 20.7264 21.3753 A 3.20 2.69 -33.8 0 0 21.8892 17.3599" data-c-stroke="cb8882"/><path stroke="#cb8882" d="M 19.24 18.61 Q 17.79 18.60 17.54 19.61 Q 17.43 20.02 17.69 20.36 Q 17.98 20.76 18.51 20.68 A 0.65 0.64 7.1 0 0 19.02 20.29 L 19.52 19.02 Q 19.68 18.61 19.24 18.61" data-c-stroke="cb8882"/></g><path fill="#ffffff" d="M 9.13 0.00 L 38.98 0.00 Q 46.47 1.58 48.00 9.14 L 48.00 38.98 Q 46.41 46.36 39.11 48.00 L 8.78 48.00 Q 1.55 46.28 0.00 39.12 L 0.00 8.78 Q 1.74 1.43 9.13 0.00 Z M 17.52 12.23 Q 17.54 11.71 17.40 11.23 Q 17.14 10.37 16.57 11.05 Q 15.61 12.17 15.18 13.67 A 0.42 0.42 0.0 0 1 14.47 13.85 Q 14.17 13.55 14.18 13.10 Q 14.19 12.48 13.62 12.71 Q 13.30 12.83 13.17 13.14 C 12.28 15.25 10.63 17.98 11.55 20.23 C 14.34 27.08 33.41 23.81 29.50 15.05 A 1.57 1.57 0.0 0 1 30.01 13.14 Q 30.72 12.61 30.76 11.76 Q 30.79 11.08 30.14 11.28 Q 28.79 11.71 27.47 12.58 Q 25.54 13.86 26.36 11.70 Q 26.58 11.13 26.87 10.58 Q 27.68 9.05 26.10 9.76 C 24.89 10.30 23.67 12.20 22.58 12.38 A 0.61 0.61 0.0 0 1 21.96 11.47 Q 22.56 10.49 22.58 9.45 Q 22.60 8.49 21.76 8.95 Q 20.03 9.87 18.93 11.94 Q 18.77 12.23 18.52 12.44 Q 18.42 12.52 18.32 12.61 Q 17.46 13.40 17.52 12.23 Z M 8.56 26.07 C 9.63 24.81 12.83 25.67 13.94 26.31 Q 14.44 26.60 14.61 26.05 L 15.02 24.73 A 0.66 0.65 -73.1 0 0 14.59 23.91 Q 9.34 22.30 5.71 25.24 C 3.96 26.67 4.59 29.20 6.93 29.45 Q 8.29 29.60 9.54 30.06 Q 10.93 30.59 9.53 31.10 Q 6.86 32.08 3.97 30.12 A 0.19 0.19 0.0 0 0 3.68 30.23 L 3.07 32.48 A 0.30 0.30 0.0 0 0 3.26 32.85 C 6.54 33.93 11.99 34.01 13.79 30.39 A 1.94 1.93 -70.2 0 0 12.51 27.65 L 8.79 26.77 A 0.43 0.43 0.0 0 1 8.56 26.07 Z M 27.02 25.94 L 28.01 25.92 Q 29.47 25.89 29.04 27.28 L 27.27 33.08 A 0.33 0.33 0.0 0 0 27.59 33.51 L 30.09 33.49 Q 30.62 33.49 30.79 32.98 Q 31.75 29.98 32.71 26.70 C 34.19 21.66 25.53 23.63 23.25 24.35 A 1.48 1.46 -89.9 0 0 22.30 25.31 L 19.93 33.03 Q 19.79 33.49 20.28 33.49 L 22.76 33.50 Q 23.30 33.50 23.46 32.98 L 25.15 27.37 A 2.01 1.99 7.4 0 1 27.02 25.94 Z M 41.39 26.73 C 40.93 29.04 40.49 31.98 37.18 31.33 A 0.88 0.87 -62.6 0 1 36.72 29.87 Q 37.63 28.92 39.00 28.95 A 1.15 1.15 0.0 0 0 40.14 28.09 L 40.24 27.71 A 0.55 0.55 0.0 0 0 39.70 27.02 C 37.02 27.03 33.04 28.00 32.80 31.19 A 1.98 1.98 0.0 0 0 34.41 33.28 Q 38.58 34.07 42.37 31.82 C 44.15 30.76 44.53 27.83 44.95 25.97 A 1.81 1.80 13.6 0 0 43.64 23.83 Q 40.65 23.06 36.66 23.69 Q 35.81 23.83 35.57 24.66 L 35.38 25.35 Q 35.13 26.23 36.00 25.95 Q 38.22 25.25 40.63 25.64 A 0.93 0.92 -80.0 0 1 41.39 26.73 Z M 15.64 37.43 Q 18.27 31.89 20.26 25.26 A 0.25 0.25 0.0 0 0 20.04 24.94 L 16.75 24.79 Q 16.46 24.78 16.40 25.06 Q 15.34 29.60 14.34 35.30 Q 14.17 36.22 14.17 37.09 Q 14.13 40.58 15.64 37.43 Z" data-c-fill="ffffff"/><path fill="#ec2b19" d="M 18.32 12.61 Q 18.42 12.52 18.52 12.44 Q 18.77 12.23 18.93 11.94 Q 20.03 9.87 21.76 8.95 Q 22.60 8.49 22.58 9.45 Q 22.56 10.49 21.96 11.47 A 0.61 0.61 0.0 0 0 22.58 12.38 C 23.67 12.20 24.89 10.30 26.10 9.76 Q 27.68 9.05 26.87 10.58 Q 26.58 11.13 26.36 11.70 Q 25.54 13.86 27.47 12.58 Q 28.79 11.71 30.14 11.28 Q 30.79 11.08 30.76 11.76 Q 30.72 12.61 30.01 13.14 A 1.57 1.57 0.0 0 0 29.50 15.05 C 33.41 23.81 14.34 27.08 11.55 20.23 C 10.63 17.98 12.28 15.25 13.17 13.14 Q 13.30 12.83 13.62 12.71 Q 14.19 12.48 14.18 13.10 Q 14.17 13.55 14.47 13.85 A 0.42 0.42 0.0 0 0 15.18 13.67 Q 15.61 12.17 16.57 11.05 Q 17.14 10.37 17.40 11.23 Q 17.54 11.71 17.52 12.23 Q 17.46 13.40 18.32 12.61 Z M 26.4582 18.1130 A 6.51 3.97 -6.5 0 0 19.5406 14.9055 A 6.51 3.97 -6.5 0 0 13.5218 19.5870 A 6.51 3.97 -6.5 0 0 20.4394 22.7945 A 6.51 3.97 -6.5 0 0 26.4582 18.1130 Z" data-c-fill="ec2b19"/><path fill="#ffffff" d="M 26.4582 18.1130 A 6.51 3.97 -6.5 0 1 20.4394 22.7945 A 6.51 3.97 -6.5 0 1 13.5218 19.5870 A 6.51 3.97 -6.5 0 1 19.5406 14.9055 A 6.51 3.97 -6.5 0 1 26.4582 18.1130 Z M 21.8892 17.3599 A 3.20 2.69 -33.8 0 0 17.7336 16.9047 A 3.20 2.69 -33.8 0 0 16.5708 20.9201 A 3.20 2.69 -33.8 0 0 20.7264 21.3753 A 3.20 2.69 -33.8 0 0 21.8892 17.3599 Z" data-c-fill="ffffff"/><path fill="#961104" d="M 21.8892 17.3599 A 3.20 2.69 -33.8 0 1 20.7264 21.3753 A 3.20 2.69 -33.8 0 1 16.5708 20.9201 A 3.20 2.69 -33.8 0 1 17.7336 16.9047 A 3.20 2.69 -33.8 0 1 21.8892 17.3599 Z M 19.24 18.61 Q 17.79 18.60 17.54 19.61 Q 17.43 20.02 17.69 20.36 Q 17.98 20.76 18.51 20.68 A 0.65 0.64 7.1 0 0 19.02 20.29 L 19.52 19.02 Q 19.68 18.61 19.24 18.61 Z" data-c-fill="961104"/><path fill="#ffffff" d="M 19.24 18.61 Q 19.68 18.61 19.52 19.02 L 19.02 20.29 A 0.65 0.64 7.1 0 1 18.51 20.68 Q 17.98 20.76 17.69 20.36 Q 17.43 20.02 17.54 19.61 Q 17.79 18.60 19.24 18.61 Z" data-c-fill="ffffff"/><path fill="#5c130b" d="M8.56 26.07A.43.43 0 0 0 8.79 26.77L12.51 27.65A1.94 1.93-70.2 0 1 13.79 30.39C11.99 34.01 6.54 33.93 3.26 32.85A.3.3 0 0 1 3.07 32.48L3.68 30.23A.19.19 0 0 1 3.97 30.12Q6.86 32.08 9.53 31.1 10.93 30.59 9.54 30.06 8.29 29.6 6.93 29.45C4.59 29.2 3.96 26.67 5.71 25.24Q9.34 22.3 14.59 23.91A.66.65-73.1 0 1 15.02 24.73L14.61 26.05Q14.44 26.6 13.94 26.31C12.83 25.67 9.63 24.81 8.56 26.07ZM25.15 27.37 23.46 32.98Q23.3 33.5 22.76 33.5L20.28 33.49Q19.79 33.49 19.93 33.03L22.3 25.31A1.48 1.46-89.9 0 1 23.25 24.35C25.53 23.63 34.19 21.66 32.71 26.7Q31.75 29.98 30.79 32.98 30.62 33.49 30.09 33.49L27.59 33.51A.33.33 0 0 1 27.27 33.08L29.04 27.28Q29.47 25.89 28.01 25.92L27.02 25.94A2.01 1.99 7.4 0 0 25.15 27.37ZM40.63 25.64Q38.22 25.25 36 25.95 35.13 26.23 35.38 25.35L35.57 24.66Q35.81 23.83 36.66 23.69 40.65 23.06 43.64 23.83A1.81 1.8 13.6 0 1 44.95 25.97C44.53 27.83 44.15 30.76 42.37 31.82Q38.58 34.07 34.41 33.28A1.98 1.98 0 0 1 32.8 31.19C33.04 28 37.02 27.03 39.7 27.02A.55.55 0 0 1 40.24 27.71L40.14 28.09A1.15 1.15 0 0 1 39 28.95Q37.63 28.92 36.72 29.87A.88.87-62.6 0 0 37.18 31.33C40.49 31.98 40.93 29.04 41.39 26.73A.93.92-80 0 0 40.63 25.64ZM15.64 37.43Q14.13 40.58 14.17 37.09 14.17 36.22 14.34 35.3 15.34 29.6 16.4 25.06 16.46 24.78 16.75 24.79L20.04 24.94A.25.25 0 0 1 20.26 25.26Q18.27 31.89 15.64 37.43Z" data-c-fill="5c130b"/></svg>