<?xml version="1.0" standalone="no"?><!DOCTYPE svg PUBLIC "-//W3C//DTD SVG 1.1//EN" "http://www.w3.org/Graphics/SVG/1.1/DTD/svg11.dtd"><svg t="1707712196309" class="icon" viewBox="0 0 1024 1024" version="1.1" xmlns="http://www.w3.org/2000/svg" p-id="28981" width="48" height="48" xmlns:xlink="http://www.w3.org/1999/xlink"><path d="M0 0m113.777778 0l796.444444 0q113.777778 0 113.777778 113.777778l0 796.444444q0 113.777778-113.777778 113.777778l-796.444444 0q-113.777778 0-113.777778-113.777778l0-796.444444q0-113.777778 113.777778-113.777778Z" fill="#EA1024" p-id="28982"></path><path d="M726.698667 710.200889m-82.602667 0a82.602667 82.602667 0 1 0 165.205333 0 82.602667 82.602667 0 1 0-165.205333 0Z" fill="#FFFFFF" p-id="28983"></path><path d="M512 181.703111c36.465778 0 66.048 29.582222 66.048 65.991111v479.004445a66.048 66.048 0 1 1-132.096 0V412.899556H363.349333a49.550222 49.550222 0 0 1-14.392889-96.995556c63.943111-35.157333 64.398222-35.84 106.040889-101.205333l-1.649777 2.56A66.048 66.048 0 0 1 512 181.703111z" fill="#FFFFFF" p-id="28984"></path></svg>