<?xml version="1.0" standalone="no"?><!DOCTYPE svg PUBLIC "-//W3C//DTD SVG 1.1//EN" "http://www.w3.org/Graphics/SVG/1.1/DTD/svg11.dtd"><svg t="1707717685628" class="icon" viewBox="0 0 1024 1024" version="1.1" xmlns="http://www.w3.org/2000/svg" p-id="15358" xmlns:xlink="http://www.w3.org/1999/xlink" width="48" height="48"><path d="M265.72554827 395.80323522c37.38491691-5.88729262 67.64947386-26.67415294 90.79367083-55.37017574 42.14492184-52.26332977 176.13222465-269.28020675 353.03813717-295.11720543-16.0873017-9.22685111-114.51510922-46.79007971-229.7646202-37.70225068-105.51492513 7.67040624-203.5196227 49.14137087-273.57478846 104.38159196-22.01086204 17.35361318-55.98671032 49.44963725-72.83561058 73.98103479-18.86170277 27.46597735-27.66242205 61.9223582-22.07432849 97.42745092 11.60232077 73.67579027 80.74175118 124.00187321 154.41753973 112.39955418z m748.57177409 78.57481553c-7.35005059-105.53305812-48.52785994-203.67677776-103.56256718-273.88607674-17.29316862-22.05921732-49.27737103-56.12875427-73.76343519-73.05019008-27.40553282-18.94632582-61.83773691-27.85282127-97.36700814-22.3705056-73.70601255 11.38774127-124.23760582 80.37606217-112.8528864 154.07905104 5.77547093 37.40607356 26.46864261 67.73107502 55.09515349 90.96291519 52.13337329 42.29603315 268.75433899 176.93009104 294.06849176 353.91458109 9.28125187-16.06614506 47.13763576-114.37306525 38.38225166-229.6497749z m-615.18287108 286.0142635c-5.74827053-37.41513917-26.42330922-67.74920802-55.03470896-90.99615929-52.10919481-42.33834294-268.62740616-177.12049201-293.82066992-354.12311506-9.27822999 16.0601013-47.21016955 114.33075377-38.53336296 229.6255981 7.27751678 105.53608175 48.37977049 203.70095629 103.36612419 273.95256502 17.27503562 22.07130659 49.24110504 56.16502027 73.7120563 73.10156726 27.39344355 18.96143696 61.81355839 27.89513278 97.35189701 22.43095013 73.7090344-11.32427489 124.28898473-80.27934986 112.95866434-153.99140616z m365.51085809-136.40206033c-37.39700615 5.84498285-67.67969611 26.6046428-90.85109171 55.27648706-42.19327711 52.22101823-176.39817953 269.10793878-353.32827058 294.77569311 16.0873017 9.23591849 114.46675395 46.90190313 229.72835416 37.92589582 105.51794698-7.56765017 203.57099983-48.94190427 273.68056463-104.11563531 22.02597318-17.33245827 56.0259982-49.38919273 72.90512253-73.90245726 18.89192504-27.44784258 27.72286483-61.89213592 22.17103901-97.41536343-11.54489809-73.6909014-80.61784025-124.07742886-154.30571804-112.54461999z" fill="#F4F4F5" p-id="15359"></path><path d="M265.72554827 395.80323522c37.38491691-5.88729262 67.64947386-26.67415294 90.79367083-55.37017574 42.14492184-52.26332977 176.13222465-269.28020675 353.03813717-295.11720543-16.0873017-9.22685111-114.51510922-46.79007971-229.7646202-37.70225068-105.51492513 7.67040624-203.5196227 49.14137087-273.57478846 104.38159196-22.01086204 17.35361318-55.98671032 49.44963725-72.83561058 73.98103479-18.86170277 27.46597735-27.66242205 61.9223582-22.07432849 97.42745092 11.60232077 73.67579027 80.74175118 124.00187321 154.41753973 112.39955418" fill="#F0C52E" p-id="15360"></path><path d="M265.72554827 395.80323522c37.38491691-5.88729262 67.64947386-26.67415294 90.79367083-55.37017574 42.14492184-52.26332977 176.13222465-269.28020675 353.03813717-295.11720543-16.0873017-9.22685111-114.51510922-46.79007971-229.7646202-37.70225068-105.51492513 7.67040624-203.5196227 49.14137087-273.57478846 104.38159196-22.01086204 17.35361318-55.98671032 49.44963725-72.83561058 73.98103479-18.86170277 27.46597735-27.66242205 61.9223582-22.07432849 97.42745092 11.60232077 73.67579027 80.74175118 124.00187321 154.41753973 112.39955418" fill="#F0C52E" p-id="15361"></path><path d="M268.33675052 396.2414563c36.61727278-6.26809456 66.0446737-27.06402051 88.38797892-55.52733081 40.68216388-51.84323992 169.34128598-266.57833769 342.63261951-294.24982538-15.90898997-8.8490728-112.99795401-44.42670105-225.99288438-34.00304863-103.45074549 8.90347356-199.09508628 50.88217297-267.13442767 106.01359247-21.3731726 17.31734715-54.30333087 49.25923802-70.5145435 73.5579231-18.15752507 27.20002069-26.34473165 61.13355742-20.39699277 95.91331754 12.34880999 72.15258777 80.85659474 120.64720359 153.01824989 108.29537171" fill="#F8DA22" p-id="15362"></path><path d="M626.75444731 259.15335124c5.77547093 37.40607356 26.46864261 67.73107502 55.09515351 90.96291519 52.13337329 42.29603315 268.75433899 176.93009104 294.06849177 353.91458283 9.27822999-16.06916867 47.13461389-114.37608714 38.37922977-229.65279851-7.35005059-105.53305812-48.52785994-203.67677776-103.56256718-273.88607674-17.29316862-22.05921732-49.27737103-56.12875427-73.76343519-73.05019008-27.40553282-18.94632582-61.83773691-27.85282127-97.36700814-22.3705056-73.70299069 11.39076491-124.23760582 80.37606217-112.84986454 154.08207291" fill="#41B035" p-id="15363"></path><path d="M631.13365206 261.44117598c5.69387152 36.83789427 26.07273128 66.70653989 54.27008495 89.59082402 51.3506163 41.66438748 264.7106028 174.27053348 289.64697729 348.5924459 9.13014056-15.83041244 46.41532503-112.65341982 37.80198483-226.20141835-7.24427264-103.94336911-47.79345819-200.60317589-102.0031004-269.76074111-17.03627939-21.72375055-48.53994921-55.28253085-72.65427701-71.9500993-27.00357601-18.65921431-60.90386858-27.43273143-95.90425193-22.03201696-72.59383428 11.21245319-122.36987091 79.16414969-111.15741773 151.7610058" fill="#54B332" p-id="15364"></path><path d="M399.11445128 760.39231425c-5.74827053-37.41513917-26.42330922-67.74920802-55.03470896-90.99615929-52.10919481-42.33834294-268.62740616-177.12049201-293.82066992-354.12311506-9.27822999 16.0601013-47.21016955 114.33075377-38.53336296 229.6255981 7.27751678 105.53608175 48.37977049 203.70095629 103.36612419 273.95256502 17.27503562 22.07130659 49.24110504 56.16502027 73.7120563 73.10156726 27.39344355 18.96143696 61.81355839 27.89513278 97.35189701 22.43095013 73.7090344-11.32427489 124.28898473-80.27934986 112.95866434-153.99140616" fill="#0A99CE" p-id="15365"></path><path d="M394.94982602 757.84457839c-6.39502736-36.14882765-27.1093539-65.1047616-55.3611084-87.02495513-51.45941786-39.89940862-264.36909225-165.83248313-292.69035861-336.90248021-8.64356246 15.78507904-43.260122 111.9039087-32.3106018 223.50559301 9.38098431 102.16932286 51.39594969 196.44761801 106.25536883 263.35966828 17.23876963 21.0195711 48.98421578 53.37550804 73.08645611 69.2633431 26.97939922 17.78276865 60.55329065 25.68286372 94.88576233 19.60517017 71.22476496-12.61174299 118.74924641-80.58157252 106.13448154-151.80633922" fill="#22A3D9" p-id="15366"></path><path d="M764.62530937 623.99025392c-37.39700615 5.84498285-67.67969611 26.6046428-90.85109171 55.27648706-42.19327711 52.22101823-176.39817953 269.10793878-353.32827058 294.77569311 16.0873017 9.23591849 114.46675395 46.90190313 229.72835416 37.92589582 105.51794698-7.56765017 203.57099983-48.94190427 273.68056463-104.11563531 22.02597318-17.33245827 56.0259982-49.38919273 72.90512253-73.90245726 18.89192504-27.44784258 27.72286483-61.89213592 22.17103901-97.41536343-11.54489809-73.6909014-80.61784025-124.07742886-154.30571804-112.54461999" fill="#D41C27" p-id="15367"></path><path d="M760.85659543 627.29052276c-37.08269424 5.79662582-67.10245123 26.37797582-90.07438026 54.80804198-41.84269919 51.77977349-174.90217917 266.82615955-350.33626809 292.27933615 15.94827963 9.15734096 113.49964324 46.50599182 227.78203998 37.59647277 104.61430268-7.50418379 201.84228875-48.52181443 271.34740823-103.22710213 21.8446396-17.19041261 55.56057672-48.9751484 72.28254421-73.28289907 18.73779184-27.21815372 27.49317598-61.36324628 21.9897072-96.5842529-11.43609832-73.06227759-79.93481744-123.01662773-152.99105127-111.5895968" fill="#E36657" p-id="15368"></path></svg>