<?xml version="1.0" standalone="no"?><!DOCTYPE svg PUBLIC "-//W3C//DTD SVG 1.1//EN" "http://www.w3.org/Graphics/SVG/1.1/DTD/svg11.dtd"><svg t="1707713166938" class="icon" viewBox="0 0 1024 1024" version="1.1" xmlns="http://www.w3.org/2000/svg" p-id="43855" xmlns:xlink="http://www.w3.org/1999/xlink" width="48" height="48"><path d="M854 1024H170C76.11 1024 0 947.89 0 854V170C0 76.11 76.11 0 170 0h684c93.89 0 170 76.11 170 170v684c0 93.89-76.11 170-170 170z" fill="#387DFF" p-id="43856"></path><path d="M809.34 485.32c14.68-15 14.6-39.05-0.28-53.93-0.22-0.22-0.46-0.4-0.68-0.61 0.01-0.01 0.01-0.03 0.03-0.04L612.32 234.65c-0.02 0.02-0.04 0.03-0.06 0.05-14.29-13.15-36.1-13.48-50.76-0.98-0.04-0.03-0.08-0.06-0.13-0.09l-251.41 251.4v0.02c-0.04 0.04-0.09 0.08-0.13 0.12-6.71 6.7-10.39 15.29-11.09 24.05-0.04 0.01-0.09 0.03-0.13 0.05l-20.86 217.75-0.06 0.62-0.1 1.05h0.05c-0.58 10.04 2.92 20.26 10.58 27.93 8.14 8.14 19.17 11.61 29.78 10.45l215.73-20.78c-0.02-0.03-0.05-0.06-0.07-0.09 9.44-0.28 18.79-3.98 26-11.18 0.87-0.87 1.67-1.77 2.44-2.7 0.06 0.03 0.12 0.05 0.17 0.09l247.08-247.08-0.01-0.01" fill="#FFFFFF" p-id="43857"></path><path d="M809.35 485.34s-0.01-0.01-0.02-0.01c14.68-15 14.6-39.05-0.28-53.93-0.22-0.22-0.46-0.4-0.68-0.61 0.01-0.01 0.01-0.03 0.02-0.04l-97.15-97.15-423.02 423.02c8.14 8.14 19.17 11.6 29.78 10.44l215.73-20.78c-0.02-0.03-0.05-0.06-0.07-0.09 9.44-0.28 18.8-3.98 26-11.18 0.87-0.87 1.67-1.77 2.44-2.7 0.06 0.03 0.12 0.05 0.17 0.09l247.08-247.06z" fill="#ECF6FF" p-id="43858"></path></svg>