<svg id="svg" version="1.1" xmlns="http://www.w3.org/2000/svg" xmlns:xlink="http://www.w3.org/1999/xlink" width="47" height="47" viewBox="0 0 400 400"><g id="svgg"><path id="path0" d="M165.016 186.500 C 164.929 186.775,164.786 188.022,164.698 189.271 C 164.487 192.285,164.025 192.784,157.800 196.715 C 157.360 196.993,156.280 197.585,155.400 198.031 C 154.520 198.477,152.990 199.359,152.000 199.990 C 151.010 200.621,149.480 201.530,148.600 202.011 C 146.042 203.408,144.314 204.387,142.600 205.413 C 141.720 205.940,140.190 206.834,139.200 207.400 C 138.210 207.966,136.680 208.866,135.800 209.400 C 134.920 209.935,133.660 210.664,133.000 211.021 C 132.340 211.378,130.966 212.149,129.947 212.735 C 127.309 214.251,121.812 217.434,113.596 222.200 C 110.941 223.740,108.191 225.311,107.485 225.692 C 106.778 226.072,105.930 226.569,105.600 226.795 C 105.270 227.022,104.010 227.831,102.800 228.594 C 101.590 229.357,100.225 230.301,99.767 230.691 C 99.308 231.081,98.322 231.850,97.574 232.400 C 92.329 236.260,86.685 243.215,82.793 250.614 C 82.206 251.728,81.594 253.171,81.432 253.820 C 81.270 254.469,80.902 255.270,80.614 255.600 C 80.326 255.930,79.885 257.178,79.634 258.373 C 79.383 259.568,78.985 260.777,78.749 261.061 C 76.417 263.871,76.084 281.042,78.196 289.600 C 79.540 295.048,79.848 295.897,82.697 302.000 C 86.926 311.060,97.967 322.587,106.000 326.328 C 106.550 326.585,107.270 326.964,107.600 327.171 C 109.759 328.527,116.404 331.076,119.108 331.585 C 120.268 331.804,122.248 332.288,123.508 332.662 C 126.694 333.606,140.724 333.590,144.000 332.639 C 145.210 332.287,147.190 331.808,148.400 331.573 C 149.610 331.338,151.332 330.798,152.226 330.373 C 153.121 329.948,154.086 329.600,154.372 329.600 C 154.657 329.600,155.546 329.248,156.346 328.817 C 157.145 328.386,158.430 327.749,159.200 327.401 C 159.970 327.054,161.140 326.460,161.800 326.082 C 162.460 325.705,163.900 324.895,165.000 324.283 C 166.100 323.672,167.720 322.734,168.600 322.200 C 169.480 321.665,170.740 320.951,171.400 320.612 C 172.060 320.274,174.220 319.010,176.200 317.805 C 178.180 316.599,180.520 315.242,181.400 314.789 C 182.280 314.336,183.652 313.569,184.448 313.083 C 185.244 312.597,187.468 311.300,189.389 310.200 C 191.310 309.100,193.539 307.803,194.341 307.317 C 195.144 306.831,196.520 306.063,197.400 305.609 C 198.280 305.156,200.440 303.892,202.200 302.800 C 203.960 301.708,206.120 300.444,207.000 299.991 C 207.880 299.537,209.320 298.726,210.200 298.189 C 211.080 297.651,212.520 296.838,213.400 296.381 C 216.140 294.960,217.630 294.095,218.328 293.521 C 218.697 293.217,219.630 292.657,220.400 292.276 C 221.170 291.895,222.520 291.148,223.400 290.617 C 225.906 289.102,227.666 288.098,229.400 287.193 C 230.280 286.734,231.810 285.828,232.800 285.180 C 233.790 284.532,235.140 283.718,235.800 283.370 C 237.662 282.389,248.185 276.351,251.780 274.200 C 252.516 273.760,254.690 272.500,256.611 271.400 C 258.532 270.300,260.756 269.003,261.552 268.517 C 262.348 268.031,263.720 267.257,264.600 266.796 C 266.354 265.878,268.355 264.739,273.025 262.000 C 277.628 259.300,279.671 258.136,281.000 257.454 C 281.660 257.115,282.818 256.294,283.573 255.629 L 284.946 254.420 283.541 253.833 C 282.768 253.510,281.913 252.977,281.641 252.649 C 281.368 252.320,280.630 251.938,280.000 251.800 C 279.370 251.662,278.632 251.280,278.359 250.951 C 278.087 250.623,277.309 250.088,276.632 249.763 C 275.954 249.438,274.680 248.729,273.800 248.187 C 272.920 247.645,271.459 246.844,270.553 246.406 C 269.647 245.968,268.695 245.355,268.436 245.044 C 268.178 244.733,267.507 244.363,266.943 244.222 C 266.380 244.080,265.443 243.638,264.860 243.240 C 263.221 242.119,261.499 241.054,260.400 240.483 C 259.267 239.894,257.031 238.613,252.575 236.000 C 246.630 232.514,245.787 232.037,244.400 231.377 C 243.630 231.010,242.910 230.571,242.800 230.400 C 242.690 230.229,241.970 229.799,241.200 229.444 C 240.430 229.088,238.990 228.265,238.000 227.614 C 237.010 226.963,235.660 226.145,235.000 225.797 C 234.340 225.449,232.955 224.677,231.922 224.082 C 230.889 223.487,228.689 222.225,227.032 221.277 C 225.375 220.330,223.923 219.399,223.805 219.208 C 223.687 219.017,223.065 218.746,222.423 218.605 C 221.781 218.464,221.039 218.088,220.775 217.770 C 220.511 217.451,219.553 216.832,218.647 216.394 C 217.741 215.956,216.280 215.155,215.400 214.613 C 214.520 214.071,213.246 213.362,212.568 213.037 C 211.891 212.712,211.113 212.177,210.841 211.849 C 210.568 211.520,209.830 211.138,209.200 211.000 C 208.570 210.862,207.832 210.480,207.559 210.151 C 207.287 209.823,206.509 209.288,205.832 208.963 C 205.154 208.638,203.880 207.931,203.000 207.392 C 202.120 206.853,200.680 206.038,199.800 205.581 C 197.060 204.160,195.570 203.295,194.872 202.721 C 194.503 202.417,193.570 201.857,192.800 201.476 C 192.030 201.095,190.680 200.343,189.800 199.806 C 188.920 199.268,187.646 198.562,186.968 198.237 C 186.291 197.912,185.513 197.377,185.241 197.049 C 184.968 196.720,184.230 196.338,183.600 196.200 C 182.970 196.062,182.232 195.680,181.959 195.351 C 181.687 195.023,180.909 194.493,180.232 194.174 C 179.554 193.855,178.280 193.151,177.400 192.610 C 176.520 192.068,175.080 191.243,174.200 190.775 C 173.320 190.308,171.763 189.447,170.740 188.863 C 165.241 185.720,165.261 185.729,165.016 186.500 " stroke="none" fill="#fb7c05" fill-rule="evenodd"></path><path id="path1" d="M124.600 44.796 C 123.720 44.958,121.927 45.386,120.616 45.746 C 119.305 46.105,117.955 46.406,117.616 46.414 C 117.277 46.421,116.280 46.775,115.400 47.200 C 114.520 47.625,113.530 47.981,113.200 47.990 C 110.517 48.066,99.399 55.155,94.580 59.863 C 88.841 65.470,85.736 69.600,82.749 75.600 C 79.046 83.040,76.375 93.884,76.409 101.340 C 76.423 104.352,78.215 115.555,78.961 117.287 C 79.312 118.105,79.600 119.061,79.600 119.412 C 79.600 120.295,83.104 127.993,84.419 130.000 C 84.780 130.550,85.593 131.810,86.225 132.800 C 90.197 139.014,101.715 150.000,104.260 150.000 C 104.412 150.000,104.854 150.287,105.241 150.637 C 105.939 151.269,107.122 151.974,110.200 153.593 C 111.080 154.055,112.520 154.870,113.400 155.403 C 114.280 155.935,115.810 156.834,116.800 157.400 C 117.790 157.966,119.320 158.866,120.200 159.400 C 121.080 159.935,122.340 160.664,123.000 161.021 C 123.660 161.378,125.025 162.149,126.033 162.735 C 127.042 163.321,128.647 164.250,129.600 164.800 C 130.553 165.350,132.158 166.279,133.167 166.865 C 134.175 167.451,135.540 168.222,136.200 168.579 C 136.860 168.936,138.120 169.665,139.000 170.200 C 139.880 170.734,141.410 171.633,142.400 172.197 C 144.960 173.656,147.152 174.919,149.000 176.000 C 150.767 177.034,151.842 177.654,156.973 180.600 C 158.889 181.700,161.028 182.920,161.728 183.312 C 162.428 183.704,163.810 184.548,164.800 185.188 C 166.375 186.207,172.419 189.745,177.801 192.800 C 178.770 193.350,180.066 194.095,180.682 194.456 C 181.297 194.816,182.496 195.483,183.348 195.937 C 184.199 196.391,185.189 197.003,185.548 197.297 C 185.906 197.591,186.830 198.143,187.600 198.524 C 188.370 198.905,189.720 199.657,190.600 200.194 C 191.480 200.731,192.650 201.407,193.200 201.695 C 193.750 201.983,195.251 202.844,196.536 203.609 C 201.167 206.367,201.824 206.745,203.400 207.562 C 204.280 208.018,205.720 208.849,206.600 209.410 C 207.480 209.970,208.773 210.689,209.473 211.008 C 210.173 211.327,210.855 211.765,210.989 211.983 C 211.123 212.200,211.991 212.743,212.917 213.190 C 213.842 213.637,215.320 214.444,216.200 214.984 C 217.080 215.524,218.520 216.341,219.400 216.800 C 220.280 217.259,221.652 218.031,222.448 218.517 C 223.244 219.003,225.468 220.300,227.389 221.400 C 229.310 222.500,231.539 223.794,232.341 224.275 C 234.116 225.339,235.673 226.247,238.246 227.714 C 239.321 228.327,240.920 229.257,241.800 229.781 C 242.680 230.304,244.120 231.113,245.000 231.579 C 245.880 232.044,247.256 232.824,248.059 233.312 C 248.861 233.801,251.090 235.100,253.011 236.200 C 254.932 237.300,257.156 238.599,257.952 239.086 C 258.748 239.573,260.030 240.266,260.800 240.626 C 261.570 240.985,262.470 241.511,262.800 241.794 C 263.130 242.077,264.390 242.837,265.600 243.483 C 267.609 244.555,270.020 245.940,273.936 248.272 C 275.628 249.280,277.550 250.359,279.748 251.535 C 280.599 251.990,281.632 252.667,282.044 253.040 C 283.331 254.205,286.428 254.254,287.818 253.132 C 289.071 252.120,291.745 250.330,292.881 249.742 C 295.266 248.507,307.695 236.081,308.944 233.681 C 309.309 232.979,312.346 228.236,313.659 226.316 C 314.066 225.720,314.400 225.104,314.400 224.948 C 314.400 224.791,314.958 223.479,315.640 222.032 C 318.507 215.950,319.072 214.412,320.793 208.000 C 323.737 197.036,323.929 180.888,321.232 171.200 C 320.834 169.770,320.318 167.880,320.085 167.000 C 319.395 164.390,318.407 161.507,317.616 159.800 C 314.565 153.210,313.724 151.540,312.485 149.600 C 311.711 148.390,310.617 146.680,310.054 145.800 C 308.509 143.388,303.716 137.674,301.216 135.265 C 297.000 131.202,294.196 128.687,293.200 128.077 C 291.853 127.253,284.462 122.466,283.154 121.571 C 282.579 121.178,281.499 120.567,280.754 120.214 C 280.009 119.861,278.744 119.173,277.941 118.686 C 277.139 118.199,274.910 116.900,272.989 115.800 C 271.068 114.700,268.844 113.403,268.048 112.917 C 267.252 112.431,265.880 111.661,265.000 111.204 C 264.120 110.748,261.780 109.398,259.800 108.206 C 257.820 107.013,255.660 105.752,255.000 105.404 C 254.340 105.056,253.144 104.373,252.341 103.886 C 251.539 103.399,249.310 102.100,247.389 101.000 C 245.468 99.900,243.244 98.603,242.448 98.117 C 241.652 97.631,240.280 96.859,239.400 96.400 C 238.520 95.941,237.080 95.130,236.200 94.597 C 235.320 94.065,233.790 93.166,232.800 92.600 C 231.810 92.034,230.280 91.135,229.400 90.603 C 228.520 90.070,227.080 89.259,226.200 88.800 C 225.320 88.341,223.880 87.530,223.000 86.998 C 220.229 85.322,215.059 82.318,213.400 81.421 C 212.740 81.064,211.480 80.335,210.600 79.800 C 209.720 79.266,208.190 78.366,207.200 77.800 C 206.210 77.234,204.680 76.334,203.800 75.800 C 202.920 75.265,201.660 74.547,201.000 74.204 C 200.340 73.861,198.972 73.090,197.960 72.490 C 196.947 71.891,194.544 70.500,192.618 69.400 C 190.693 68.300,188.461 67.001,187.659 66.514 C 186.856 66.027,185.660 65.336,185.000 64.979 C 183.356 64.090,180.532 62.471,177.737 60.815 C 174.673 58.999,174.114 58.673,172.128 57.548 C 171.209 57.026,168.452 55.462,166.003 54.072 C 159.485 50.371,156.448 48.811,154.200 48.006 C 153.100 47.613,151.660 47.099,151.000 46.864 C 149.862 46.459,146.099 45.524,142.600 44.777 C 140.672 44.365,126.854 44.379,124.600 44.796 " stroke="none" fill="#08bafb" fill-rule="evenodd"></path><path id="path2" d="M67.600 0.400 C 67.600 0.621,66.550 0.800,65.250 0.800 C 61.788 0.800,60.400 1.158,60.400 2.050 C 60.400 2.712,60.071 2.800,57.600 2.800 C 54.880 2.800,54.800 2.829,54.800 3.800 C 54.800 4.771,54.720 4.800,52.000 4.800 C 49.523 4.800,49.200 4.887,49.200 5.555 C 49.200 6.142,48.802 6.369,47.400 6.579 C 45.978 6.792,45.600 7.012,45.600 7.625 C 45.600 8.216,45.321 8.400,44.421 8.400 C 43.717 8.400,42.806 8.803,42.162 9.400 C 41.569 9.950,40.839 10.400,40.542 10.400 C 40.244 10.400,40.000 10.750,40.000 11.178 C 40.000 11.823,39.674 11.977,38.100 12.078 C 36.479 12.182,36.181 12.332,36.072 13.100 C 35.990 13.678,35.668 14.000,35.172 14.000 C 34.682 14.000,34.400 14.276,34.400 14.755 C 34.400 15.342,34.002 15.569,32.600 15.779 C 31.178 15.992,30.800 16.212,30.800 16.825 C 30.800 17.385,30.523 17.600,29.800 17.600 C 29.000 17.600,28.800 17.800,28.800 18.600 C 28.800 19.400,28.600 19.600,27.800 19.600 C 27.067 19.600,26.800 19.813,26.800 20.400 C 26.800 20.933,26.533 21.200,26.000 21.200 C 25.413 21.200,25.200 21.467,25.200 22.200 C 25.200 23.000,25.000 23.200,24.200 23.200 C 23.400 23.200,23.200 23.400,23.200 24.200 C 23.200 25.000,23.000 25.200,22.200 25.200 C 21.467 25.200,21.200 25.413,21.200 26.000 C 21.200 26.533,20.933 26.800,20.400 26.800 C 19.813 26.800,19.600 27.067,19.600 27.800 C 19.600 28.600,19.400 28.800,18.600 28.800 C 17.800 28.800,17.600 29.000,17.600 29.800 C 17.600 30.523,17.385 30.800,16.825 30.800 C 16.212 30.800,15.992 31.178,15.779 32.600 C 15.569 34.002,15.342 34.400,14.755 34.400 C 14.276 34.400,14.000 34.682,14.000 35.172 C 14.000 35.668,13.678 35.990,13.100 36.072 C 12.456 36.164,12.164 36.512,12.073 37.300 C 12.002 37.922,11.701 38.400,11.381 38.400 C 11.070 38.400,10.705 38.895,10.570 39.500 C 10.084 41.684,9.962 41.917,9.187 42.119 C 8.566 42.282,8.400 42.671,8.400 43.963 C 8.400 45.302,8.262 45.600,7.643 45.600 C 6.781 45.600,6.400 46.345,6.400 48.033 C 6.400 48.933,6.217 49.200,5.600 49.200 C 4.876 49.200,4.800 49.467,4.800 52.000 C 4.800 54.720,4.771 54.800,3.800 54.800 C 2.829 54.800,2.800 54.880,2.800 57.600 C 2.800 60.081,2.714 60.400,2.043 60.400 C 1.072 60.400,0.800 61.151,0.800 63.833 C 0.800 65.025,0.620 66.000,0.400 66.000 C 0.134 66.000,0.000 110.933,0.000 200.000 C 0.000 284.790,0.140 334.000,0.382 334.000 C 0.592 334.000,0.817 335.215,0.882 336.700 C 0.989 339.153,1.082 339.412,1.900 339.528 C 2.734 339.646,2.800 339.858,2.800 342.428 C 2.800 345.118,2.830 345.200,3.800 345.200 C 4.771 345.200,4.800 345.280,4.800 348.000 C 4.800 350.506,4.882 350.800,5.577 350.800 C 6.205 350.800,6.378 351.126,6.477 352.500 C 6.579 353.913,6.752 354.222,7.500 354.328 C 8.279 354.438,8.400 354.695,8.400 356.228 C 8.400 357.203,8.567 358.000,8.771 358.000 C 9.525 358.000,10.400 359.290,10.400 360.402 C 10.400 361.182,10.646 361.624,11.175 361.792 C 11.601 361.927,12.006 362.434,12.075 362.919 C 12.154 363.479,12.528 363.847,13.100 363.928 C 13.795 364.027,14.000 364.318,14.000 365.205 C 14.000 365.871,14.313 366.575,14.743 366.877 C 15.151 367.165,15.607 367.786,15.756 368.257 C 15.905 368.728,16.381 369.206,16.813 369.319 C 17.280 369.441,17.600 369.866,17.600 370.363 C 17.600 370.989,17.852 371.200,18.600 371.200 C 19.400 371.200,19.600 371.400,19.600 372.200 C 19.600 372.933,19.813 373.200,20.400 373.200 C 20.933 373.200,21.200 373.467,21.200 374.000 C 21.200 374.587,21.467 374.800,22.200 374.800 C 23.000 374.800,23.200 375.000,23.200 375.800 C 23.200 376.600,23.400 376.800,24.200 376.800 C 25.000 376.800,25.200 377.000,25.200 377.800 C 25.200 378.533,25.413 378.800,26.000 378.800 C 26.533 378.800,26.800 379.067,26.800 379.600 C 26.800 380.187,27.067 380.400,27.800 380.400 C 28.600 380.400,28.800 380.600,28.800 381.400 C 28.800 382.148,29.011 382.400,29.637 382.400 C 30.134 382.400,30.559 382.720,30.681 383.187 C 30.794 383.619,31.272 384.095,31.743 384.244 C 32.214 384.393,32.835 384.849,33.123 385.257 C 33.425 385.687,34.129 386.000,34.795 386.000 C 35.682 386.000,35.973 386.205,36.072 386.900 C 36.153 387.472,36.521 387.846,37.081 387.925 C 37.566 387.994,38.073 388.399,38.208 388.825 C 38.376 389.354,38.818 389.600,39.598 389.600 C 40.710 389.600,42.000 390.475,42.000 391.229 C 42.000 391.433,42.797 391.600,43.772 391.600 C 45.305 391.600,45.562 391.721,45.672 392.500 C 45.778 393.248,46.087 393.421,47.500 393.523 C 48.874 393.622,49.200 393.795,49.200 394.423 C 49.200 395.118,49.494 395.200,52.000 395.200 C 54.720 395.200,54.800 395.229,54.800 396.200 C 54.800 397.170,54.882 397.200,57.572 397.200 C 60.142 397.200,60.354 397.266,60.472 398.100 C 60.588 398.918,60.847 399.011,63.300 399.118 C 64.785 399.183,66.000 399.408,66.000 399.618 C 66.000 399.860,115.210 400.000,200.000 400.000 C 289.067 400.000,334.000 399.866,334.000 399.600 C 334.000 399.380,334.975 399.200,336.167 399.200 C 338.849 399.200,339.600 398.928,339.600 397.957 C 339.600 397.286,339.919 397.200,342.400 397.200 C 345.120 397.200,345.200 397.171,345.200 396.200 C 345.200 395.229,345.280 395.200,348.000 395.200 C 350.533 395.200,350.800 395.124,350.800 394.400 C 350.800 393.783,351.067 393.600,351.967 393.600 C 353.655 393.600,354.400 393.219,354.400 392.357 C 354.400 391.738,354.698 391.600,356.037 391.600 C 357.341 391.600,357.718 391.436,357.885 390.796 C 358.004 390.342,358.554 389.890,359.148 389.758 C 361.277 389.287,361.600 389.135,361.600 388.600 C 361.600 388.299,362.095 387.996,362.700 387.927 C 363.488 387.836,363.836 387.544,363.928 386.900 C 364.010 386.322,364.332 386.000,364.828 386.000 C 365.318 386.000,365.600 385.724,365.600 385.245 C 365.600 384.658,365.998 384.431,367.400 384.221 C 368.822 384.008,369.200 383.788,369.200 383.175 C 369.200 382.615,369.477 382.400,370.200 382.400 C 371.000 382.400,371.200 382.200,371.200 381.400 C 371.200 380.600,371.400 380.400,372.200 380.400 C 372.933 380.400,373.200 380.187,373.200 379.600 C 373.200 379.067,373.467 378.800,374.000 378.800 C 374.587 378.800,374.800 378.533,374.800 377.800 C 374.800 377.000,375.000 376.800,375.800 376.800 C 376.600 376.800,376.800 376.600,376.800 375.800 C 376.800 375.000,377.000 374.800,377.800 374.800 C 378.533 374.800,378.800 374.587,378.800 374.000 C 378.800 373.467,379.067 373.200,379.600 373.200 C 380.187 373.200,380.400 372.933,380.400 372.200 C 380.400 371.400,380.600 371.200,381.400 371.200 C 382.200 371.200,382.400 371.000,382.400 370.200 C 382.400 369.477,382.615 369.200,383.175 369.200 C 383.788 369.200,384.008 368.822,384.221 367.400 C 384.431 365.998,384.658 365.600,385.245 365.600 C 385.724 365.600,386.000 365.318,386.000 364.828 C 386.000 364.332,386.322 364.010,386.900 363.928 C 387.668 363.819,387.818 363.521,387.922 361.900 C 388.023 360.326,388.177 360.000,388.822 360.000 C 389.250 360.000,389.600 359.756,389.600 359.458 C 389.600 359.161,390.050 358.431,390.600 357.838 C 391.197 357.194,391.600 356.283,391.600 355.579 C 391.600 354.679,391.784 354.400,392.375 354.400 C 392.988 354.400,393.208 354.022,393.421 352.600 C 393.631 351.198,393.858 350.800,394.445 350.800 C 395.113 350.800,395.200 350.477,395.200 348.000 C 395.200 345.280,395.229 345.200,396.200 345.200 C 397.171 345.200,397.200 345.120,397.200 342.400 C 397.200 339.929,397.288 339.600,397.950 339.600 C 398.842 339.600,399.200 338.212,399.200 334.750 C 399.200 333.450,399.379 332.400,399.600 332.400 C 399.866 332.400,400.000 288.000,400.000 200.000 C 400.000 112.000,399.866 67.600,399.600 67.600 C 399.375 67.600,399.200 66.475,399.200 65.026 C 399.200 62.104,398.695 60.400,397.828 60.400 C 397.376 60.400,397.209 59.763,397.118 57.700 C 397.011 55.247,396.918 54.988,396.100 54.872 C 395.266 54.754,395.200 54.542,395.200 51.972 C 395.200 49.530,395.111 49.200,394.451 49.200 C 393.889 49.200,393.640 48.808,393.451 47.627 C 393.277 46.540,392.952 45.975,392.400 45.800 C 391.889 45.638,391.600 45.195,391.600 44.573 C 391.600 43.796,391.394 43.600,390.576 43.600 C 390.008 43.600,389.661 43.425,389.796 43.207 C 390.299 42.393,389.539 40.000,388.777 40.000 C 388.186 40.000,388.020 39.632,387.922 38.100 C 387.818 36.479,387.668 36.181,386.900 36.072 C 386.322 35.990,386.000 35.668,386.000 35.172 C 386.000 34.667,385.724 34.400,385.200 34.400 C 384.760 34.400,384.386 34.175,384.369 33.900 C 384.285 32.519,383.971 31.743,383.264 31.171 C 382.836 30.825,382.420 30.195,382.339 29.771 C 382.256 29.337,381.800 28.944,381.296 28.872 C 380.649 28.780,380.400 28.474,380.400 27.772 C 380.400 27.067,380.181 26.800,379.600 26.800 C 379.067 26.800,378.800 26.533,378.800 26.000 C 378.800 25.413,378.533 25.200,377.800 25.200 C 377.000 25.200,376.800 25.000,376.800 24.200 C 376.800 23.400,376.600 23.200,375.800 23.200 C 375.000 23.200,374.800 23.000,374.800 22.200 C 374.800 21.467,374.587 21.200,374.000 21.200 C 373.467 21.200,373.200 20.933,373.200 20.400 C 373.200 19.819,372.933 19.600,372.228 19.600 C 371.526 19.600,371.220 19.351,371.128 18.704 C 371.056 18.200,370.663 17.744,370.229 17.661 C 369.805 17.580,369.175 17.164,368.829 16.736 C 368.257 16.029,367.481 15.715,366.100 15.631 C 365.825 15.614,365.600 15.240,365.600 14.800 C 365.600 14.276,365.333 14.000,364.828 14.000 C 364.332 14.000,364.010 13.678,363.928 13.100 C 363.819 12.332,363.521 12.182,361.900 12.078 C 360.368 11.980,360.000 11.814,360.000 11.223 C 360.000 10.461,357.607 9.701,356.793 10.204 C 356.575 10.339,356.400 9.992,356.400 9.424 C 356.400 8.606,356.204 8.400,355.427 8.400 C 354.805 8.400,354.362 8.111,354.200 7.600 C 354.025 7.048,353.460 6.723,352.373 6.549 C 351.192 6.360,350.800 6.111,350.800 5.549 C 350.800 4.889,350.470 4.800,348.028 4.800 C 345.458 4.800,345.246 4.734,345.128 3.900 C 345.012 3.082,344.753 2.989,342.300 2.882 C 340.237 2.791,339.600 2.624,339.600 2.172 C 339.600 1.305,337.896 0.800,334.974 0.800 C 333.525 0.800,332.400 0.625,332.400 0.400 C 332.400 0.134,288.000 0.000,200.000 0.000 C 112.000 0.000,67.600 0.134,67.600 0.400 M142.600 44.777 C 146.099 45.524,149.862 46.459,151.000 46.864 C 151.660 47.099,153.100 47.613,154.200 48.006 C 156.448 48.811,159.485 50.371,166.003 54.072 C 168.452 55.462,171.209 57.026,172.128 57.548 C 174.114 58.673,174.673 58.999,177.737 60.815 C 180.532 62.471,183.356 64.090,185.000 64.979 C 185.660 65.336,186.856 66.027,187.659 66.514 C 188.461 67.001,190.693 68.300,192.618 69.400 C 194.544 70.500,196.947 71.891,197.960 72.490 C 198.972 73.090,200.340 73.861,201.000 74.204 C 201.660 74.547,202.920 75.265,203.800 75.800 C 204.680 76.334,206.210 77.234,207.200 77.800 C 208.190 78.366,209.720 79.266,210.600 79.800 C 211.480 80.335,212.740 81.064,213.400 81.421 C 215.059 82.318,220.229 85.322,223.000 86.998 C 223.880 87.530,225.320 88.341,226.200 88.800 C 227.080 89.259,228.520 90.070,229.400 90.603 C 230.280 91.135,231.810 92.034,232.800 92.600 C 233.790 93.166,235.320 94.065,236.200 94.597 C 237.080 95.130,238.520 95.941,239.400 96.400 C 240.280 96.859,241.652 97.631,242.448 98.117 C 243.244 98.603,245.468 99.900,247.389 101.000 C 249.310 102.100,251.539 103.399,252.341 103.886 C 253.144 104.373,254.340 105.056,255.000 105.404 C 255.660 105.752,257.820 107.013,259.800 108.206 C 261.780 109.398,264.120 110.748,265.000 111.204 C 265.880 111.661,267.252 112.431,268.048 112.917 C 268.844 113.403,271.068 114.700,272.989 115.800 C 274.910 116.900,277.139 118.199,277.941 118.686 C 278.744 119.173,280.009 119.861,280.754 120.214 C 281.499 120.567,282.579 121.178,283.154 121.571 C 284.462 122.466,291.853 127.253,293.200 128.077 C 294.196 128.687,297.000 131.202,301.216 135.265 C 303.716 137.674,308.509 143.388,310.054 145.800 C 314.075 152.079,313.834 151.633,317.616 159.800 C 318.407 161.507,319.395 164.390,320.085 167.000 C 320.318 167.880,320.834 169.770,321.232 171.200 C 323.929 180.888,323.737 197.036,320.793 208.000 C 319.072 214.412,318.507 215.950,315.640 222.032 C 314.958 223.479,314.400 224.791,314.400 224.948 C 314.400 225.104,314.066 225.720,313.659 226.316 C 312.346 228.236,309.309 232.979,308.944 233.681 C 307.695 236.081,295.266 248.507,292.881 249.742 C 291.767 250.318,289.082 252.112,287.869 253.089 C 287.247 253.590,286.212 254.000,285.569 254.000 C 284.926 254.000,284.445 254.144,284.500 254.321 C 284.629 254.735,282.014 257.040,280.763 257.614 C 279.780 258.065,278.438 258.825,273.025 262.000 C 268.355 264.739,266.354 265.878,264.600 266.796 C 263.720 267.257,262.348 268.031,261.552 268.517 C 260.756 269.003,258.532 270.300,256.611 271.400 C 254.690 272.500,252.516 273.760,251.780 274.200 C 248.185 276.351,237.662 282.389,235.800 283.370 C 235.140 283.718,233.790 284.532,232.800 285.180 C 231.810 285.828,230.280 286.734,229.400 287.193 C 227.666 288.098,225.906 289.102,223.400 290.617 C 222.520 291.148,221.170 291.895,220.400 292.276 C 219.630 292.657,218.697 293.217,218.328 293.521 C 217.630 294.095,216.140 294.960,213.400 296.381 C 212.520 296.838,211.080 297.651,210.200 298.189 C 209.320 298.726,207.880 299.537,207.000 299.991 C 206.120 300.444,203.960 301.708,202.200 302.800 C 200.440 303.892,198.280 305.156,197.400 305.609 C 196.520 306.063,195.144 306.831,194.341 307.317 C 193.539 307.803,191.310 309.100,189.389 310.200 C 187.468 311.300,185.244 312.597,184.448 313.083 C 183.652 313.569,182.280 314.336,181.400 314.789 C 180.520 315.242,178.180 316.599,176.200 317.805 C 174.220 319.010,172.060 320.274,171.400 320.612 C 170.740 320.951,169.480 321.665,168.600 322.200 C 167.720 322.734,166.100 323.672,165.000 324.283 C 163.900 324.895,162.460 325.705,161.800 326.082 C 161.140 326.460,159.970 327.054,159.200 327.401 C 158.430 327.749,157.145 328.386,156.346 328.817 C 155.546 329.248,154.657 329.600,154.372 329.600 C 154.086 329.600,153.121 329.948,152.226 330.373 C 151.332 330.798,149.610 331.338,148.400 331.573 C 147.190 331.808,145.210 332.287,144.000 332.639 C 140.724 333.590,126.694 333.606,123.508 332.662 C 122.248 332.288,120.268 331.804,119.108 331.585 C 116.404 331.076,109.759 328.527,107.600 327.171 C 107.270 326.964,106.550 326.585,106.000 326.328 C 97.967 322.587,86.926 311.060,82.697 302.000 C 79.848 295.897,79.540 295.048,78.196 289.600 C 76.084 281.042,76.417 263.871,78.749 261.061 C 78.985 260.777,79.383 259.568,79.634 258.373 C 79.885 257.178,80.326 255.930,80.614 255.600 C 80.902 255.270,81.270 254.469,81.432 253.820 C 81.851 252.142,83.495 249.062,86.353 244.600 C 88.923 240.586,94.105 234.953,97.574 232.400 C 98.322 231.850,99.308 231.081,99.767 230.691 C 100.225 230.301,101.590 229.357,102.800 228.594 C 104.010 227.831,105.270 227.022,105.600 226.795 C 105.930 226.569,106.778 226.072,107.485 225.692 C 108.191 225.311,110.941 223.740,113.596 222.200 C 121.812 217.434,127.309 214.251,129.947 212.735 C 130.966 212.149,132.340 211.378,133.000 211.021 C 133.660 210.664,134.920 209.935,135.800 209.400 C 136.680 208.866,138.210 207.966,139.200 207.400 C 140.190 206.834,141.720 205.940,142.600 205.413 C 144.314 204.387,146.042 203.408,148.600 202.011 C 149.480 201.530,151.010 200.621,152.000 199.990 C 152.990 199.359,154.520 198.477,155.400 198.031 C 156.280 197.585,157.360 196.993,157.800 196.715 C 164.148 192.706,164.472 192.341,164.770 188.871 C 164.961 186.651,165.118 186.209,165.700 186.256 C 166.737 186.338,166.566 186.109,164.900 185.182 C 164.075 184.722,162.744 183.954,161.941 183.473 C 161.139 182.993,158.909 181.700,156.986 180.600 C 152.520 178.045,150.979 177.157,149.000 176.000 C 147.152 174.919,144.960 173.656,142.400 172.197 C 141.410 171.633,139.880 170.734,139.000 170.200 C 138.120 169.665,136.860 168.936,136.200 168.579 C 135.540 168.222,134.175 167.451,133.167 166.865 C 132.158 166.279,130.553 165.350,129.600 164.800 C 128.647 164.250,127.042 163.321,126.033 162.735 C 125.025 162.149,123.660 161.378,123.000 161.021 C 122.340 160.664,121.080 159.935,120.200 159.400 C 119.320 158.866,117.790 157.966,116.800 157.400 C 115.810 156.834,114.280 155.935,113.400 155.403 C 112.520 154.870,111.080 154.055,110.200 153.593 C 107.122 151.974,105.939 151.269,105.241 150.637 C 104.854 150.287,104.412 150.000,104.260 150.000 C 101.715 150.000,90.197 139.014,86.225 132.800 C 85.593 131.810,84.780 130.550,84.419 130.000 C 83.104 127.993,79.600 120.295,79.600 119.412 C 79.600 119.061,79.312 118.105,78.961 117.287 C 75.319 108.818,76.124 91.524,80.687 80.200 C 83.989 72.008,87.680 66.603,94.580 59.863 C 99.399 55.155,110.517 48.066,113.200 47.990 C 113.530 47.981,114.520 47.625,115.400 47.200 C 116.280 46.775,117.277 46.421,117.616 46.414 C 117.955 46.406,119.305 46.105,120.616 45.746 C 121.927 45.386,123.720 44.958,124.600 44.796 C 126.854 44.379,140.672 44.365,142.600 44.777 " stroke="none" fill="#fbfbfb" fill-rule="evenodd"></path></g></svg>