<svg id="svg" version="1.1" xmlns="http://www.w3.org/2000/svg" xmlns:xlink="http://www.w3.org/1999/xlink" width="48" height="48" viewBox="0 0 400 400"><g id="svgg"><path id="path0" d="M197.182 54.800 C 194.952 55.001,192.854 55.997,192.737 56.909 C 192.703 57.179,192.658 60.640,192.637 64.600 C 192.605 70.763,192.495 71.992,191.871 73.135 L 191.143 74.471 184.071 74.178 C 174.861 73.797,174.457 73.533,174.091 67.667 C 173.775 62.598,172.720 61.968,167.243 63.576 C 165.789 64.003,163.157 64.621,161.393 64.950 C 159.629 65.279,156.659 66.093,154.793 66.760 C 152.927 67.427,149.960 68.344,148.200 68.799 C 146.440 69.254,143.529 70.250,141.731 71.013 C 139.932 71.776,138.262 72.400,138.020 72.400 C 137.550 72.400,133.520 74.355,130.200 76.194 C 129.100 76.803,126.912 77.977,125.338 78.803 C 123.764 79.629,120.794 81.432,118.738 82.810 C 116.682 84.187,114.100 85.913,113.000 86.644 C 111.900 87.376,110.550 88.388,110.000 88.895 C 109.450 89.401,106.839 91.543,104.197 93.656 C 92.577 102.949,78.964 120.026,72.356 133.600 C 71.017 136.350,69.309 139.792,68.561 141.248 C 67.812 142.704,67.200 144.107,67.200 144.366 C 67.200 144.625,66.566 146.191,65.791 147.846 C 65.016 149.501,64.013 152.238,63.560 153.928 C 63.108 155.617,62.413 157.900,62.015 159.000 C 61.618 160.100,60.819 163.340,60.241 166.200 C 59.663 169.060,58.787 173.290,58.295 175.600 C 56.893 182.179,56.918 218.714,58.328 225.400 C 58.839 227.820,59.611 231.600,60.043 233.800 C 60.709 237.191,62.286 243.068,64.067 248.800 C 64.836 251.277,70.240 263.429,72.872 268.600 C 74.393 271.589,75.792 273.865,79.755 279.800 C 81.825 282.901,90.056 293.901,91.278 295.200 C 91.795 295.750,93.493 297.730,95.051 299.600 C 101.365 307.182,112.887 316.266,124.000 322.425 C 125.870 323.462,128.750 325.066,130.400 325.991 C 134.731 328.417,139.939 330.700,145.154 332.457 C 147.659 333.301,149.909 334.156,150.154 334.358 C 150.399 334.559,152.580 335.292,155.000 335.987 C 157.420 336.682,160.390 337.617,161.600 338.066 C 163.556 338.791,166.848 339.418,181.800 341.918 C 185.126 342.474,188.663 342.581,202.800 342.554 L 219.800 342.522 227.400 341.261 C 231.580 340.567,236.260 339.809,237.800 339.576 C 245.250 338.448,269.760 329.819,273.911 326.864 C 274.578 326.389,275.292 326.000,275.498 326.000 C 276.181 326.000,290.461 317.174,292.968 315.204 C 293.390 314.872,294.830 313.606,296.168 312.391 C 297.505 311.176,299.860 309.177,301.400 307.949 C 302.940 306.722,306.540 303.216,309.400 300.159 C 312.259 297.101,314.874 294.330,315.210 294.000 C 316.810 292.430,323.943 282.472,326.815 277.800 C 330.501 271.802,333.195 266.906,333.198 266.200 C 333.199 265.980,333.892 264.360,334.738 262.600 C 337.039 257.811,338.810 253.640,339.491 251.400 C 339.825 250.300,340.551 247.960,341.102 246.200 C 345.679 231.599,346.785 221.356,346.794 193.487 C 346.802 168.772,347.713 171.000,337.600 171.000 C 327.503 171.000,327.600 171.105,327.600 160.261 C 327.600 151.155,326.659 152.003,336.780 151.987 C 347.568 151.971,346.568 152.914,346.723 142.607 C 346.853 133.950,346.529 132.068,344.890 131.950 C 344.510 131.923,340.721 131.878,336.469 131.850 C 326.370 131.785,327.465 134.071,327.814 113.774 C 328.197 91.485,329.193 93.450,317.428 93.295 C 313.043 93.237,309.353 93.087,309.228 92.963 C 309.103 92.838,308.910 89.073,308.800 84.597 C 308.616 77.119,308.532 76.366,307.757 75.329 L 306.915 74.200 299.357 74.097 C 288.347 73.946,288.310 73.986,288.674 85.400 C 288.951 94.088,289.724 93.400,279.694 93.400 C 273.354 93.400,271.582 93.282,271.031 92.825 C 270.390 92.294,270.346 90.919,270.442 74.468 L 270.546 56.685 269.451 55.742 C 267.856 54.371,252.725 54.265,251.275 55.616 C 250.263 56.559,250.287 56.327,250.393 64.280 C 250.529 74.368,250.582 74.318,240.067 74.006 C 231.257 73.744,231.949 74.540,232.027 64.765 C 232.092 56.585,231.934 55.904,229.801 55.200 C 228.538 54.784,201.097 54.447,197.182 54.800 M230.633 75.376 C 231.071 75.976,231.201 77.751,231.205 83.176 C 231.214 94.593,229.321 93.598,251.047 93.606 C 263.733 93.610,268.043 93.734,268.800 94.117 L 269.800 94.622 270.011 102.411 C 270.320 113.860,270.053 113.577,280.250 113.292 C 289.261 113.040,288.632 112.431,288.889 121.647 C 289.182 132.115,289.098 132.206,279.474 131.914 C 269.462 131.610,270.323 129.784,270.361 151.254 C 270.399 173.181,269.424 171.197,280.170 171.206 C 284.366 171.209,288.019 171.351,288.286 171.521 C 288.631 171.740,288.852 174.525,289.049 181.107 L 289.325 190.384 297.563 190.292 C 309.155 190.162,308.600 189.697,308.600 199.560 C 308.600 210.255,308.822 210.000,299.512 210.000 C 288.822 210.000,289.080 210.270,288.800 198.800 L 288.600 190.600 281.200 190.483 C 268.086 190.274,269.604 186.430,269.581 219.900 C 269.568 239.557,269.405 249.339,269.011 254.200 C 268.708 257.940,268.169 265.140,267.813 270.200 C 267.249 278.224,266.722 282.592,264.726 295.800 C 263.589 303.326,260.713 310.117,257.166 313.650 C 256.190 314.623,250.261 318.800,249.857 318.800 C 249.759 318.800,248.176 319.510,246.339 320.378 C 244.503 321.246,241.380 322.328,239.400 322.782 C 237.420 323.236,234.090 324.063,232.000 324.620 C 218.929 328.103,185.098 327.687,170.000 323.857 C 145.159 317.555,138.726 307.963,136.026 273.200 C 135.795 270.230,135.429 265.550,135.212 262.800 C 133.956 246.891,133.598 160.340,134.742 149.200 C 135.763 139.256,136.408 132.423,136.802 127.400 C 137.409 119.648,139.738 105.817,141.030 102.289 C 141.371 101.360,142.106 99.289,142.665 97.686 C 144.934 91.182,152.036 85.245,160.467 82.804 C 162.080 82.337,164.660 81.532,166.200 81.014 C 167.740 80.496,170.440 79.885,172.200 79.655 C 173.960 79.426,178.546 78.828,182.390 78.328 C 188.985 77.469,189.458 77.349,190.751 76.214 C 192.643 74.553,193.506 74.488,213.133 74.548 C 229.400 74.598,230.087 74.630,230.633 75.376 M307.600 94.400 C 308.342 95.142,308.400 95.733,308.399 102.500 C 308.398 113.518,308.523 113.398,297.383 113.093 C 288.423 112.847,289.200 113.767,289.200 103.409 C 289.200 92.627,288.239 93.600,298.889 93.600 C 306.267 93.600,306.854 93.654,307.600 94.400 M326.624 132.567 C 327.548 133.242,328.061 149.591,327.208 151.185 C 326.580 152.359,309.367 152.467,308.887 151.300 C 308.227 149.692,308.593 134.671,309.326 133.300 L 310.021 132.000 317.934 132.000 C 324.132 132.000,326.015 132.123,326.624 132.567 M308.434 158.800 C 308.885 171.555,309.063 171.350,297.751 171.137 C 293.296 171.053,289.504 170.838,289.325 170.659 C 289.146 170.481,288.939 166.737,288.863 162.339 C 288.677 151.441,288.060 152.006,300.000 152.121 L 308.200 152.200 308.434 158.800 " stroke="none" fill="#f5f8fb" fill-rule="evenodd"></path><path id="path1" d="M67.600 0.600 C 67.600 1.086,66.959 1.200,64.227 1.200 C 61.205 1.200,60.827 1.283,60.600 2.000 C 60.394 2.649,59.992 2.801,58.473 2.805 C 55.832 2.813,54.800 3.162,54.800 4.047 C 54.800 4.708,54.479 4.800,52.163 4.800 C 49.905 4.800,49.496 4.910,49.326 5.562 C 49.198 6.049,48.631 6.418,47.754 6.582 C 47.000 6.724,46.163 7.191,45.895 7.620 C 45.627 8.049,45.020 8.400,44.546 8.400 C 44.072 8.400,43.260 8.847,42.742 9.393 C 42.224 9.939,41.395 10.389,40.900 10.393 C 40.278 10.398,40.000 10.640,40.000 11.177 C 40.000 11.805,39.674 11.978,38.300 12.077 C 36.887 12.179,36.578 12.352,36.472 13.100 C 36.380 13.751,36.076 14.000,35.372 14.000 C 34.602 14.000,34.400 14.208,34.400 15.000 C 34.400 15.866,34.222 16.000,33.072 16.000 C 32.154 16.000,31.476 16.309,30.875 17.000 C 30.397 17.550,29.734 18.000,29.403 18.000 C 29.071 18.000,28.800 18.347,28.800 18.772 C 28.800 19.268,28.478 19.590,27.900 19.672 C 27.322 19.754,26.954 20.122,26.872 20.700 C 26.790 21.278,26.468 21.600,25.972 21.600 C 25.467 21.600,25.200 21.876,25.200 22.400 C 25.200 22.987,24.933 23.200,24.200 23.200 C 23.400 23.200,23.200 23.400,23.200 24.200 C 23.200 24.933,22.987 25.200,22.400 25.200 C 21.876 25.200,21.600 25.467,21.600 25.972 C 21.600 26.468,21.278 26.790,20.700 26.872 C 20.122 26.954,19.754 27.322,19.672 27.900 C 19.592 28.466,19.267 28.800,18.799 28.800 C 18.377 28.800,17.931 29.190,17.770 29.700 C 17.613 30.195,17.151 30.835,16.743 31.123 C 16.264 31.459,16.000 32.135,16.000 33.023 C 16.000 34.225,15.873 34.400,15.000 34.400 C 14.200 34.400,14.000 34.600,14.000 35.400 C 14.000 36.200,13.800 36.400,13.000 36.400 C 12.252 36.400,12.000 36.611,12.000 37.237 C 12.000 37.697,11.640 38.531,11.200 39.091 C 10.760 39.650,10.400 40.513,10.400 41.007 C 10.400 41.566,10.101 41.985,9.611 42.113 C 9.055 42.258,8.747 42.792,8.566 43.925 C 8.391 45.017,8.071 45.593,7.566 45.725 C 7.060 45.857,6.740 46.432,6.566 47.525 C 6.389 48.628,6.073 49.192,5.554 49.328 C 4.912 49.496,4.800 49.914,4.800 52.135 C 4.800 54.536,4.728 54.755,3.900 54.872 C 3.082 54.988,2.989 55.247,2.882 57.700 C 2.778 60.072,2.668 60.400,1.982 60.400 C 1.251 60.400,1.200 60.703,1.200 65.000 C 1.200 68.822,1.099 69.600,0.600 69.600 C 0.068 69.600,0.000 84.356,0.000 200.000 C 0.000 315.644,0.068 330.400,0.600 330.400 C 1.098 330.400,1.200 331.175,1.200 334.973 C 1.200 339.159,1.266 339.567,1.981 339.794 C 2.627 339.999,2.784 340.473,2.881 342.521 C 2.988 344.745,3.093 345.013,3.900 345.128 C 4.734 345.246,4.800 345.458,4.800 348.028 C 4.800 350.533,4.877 350.800,5.600 350.800 C 6.244 350.800,6.400 351.067,6.400 352.171 C 6.400 353.456,7.220 354.800,8.004 354.800 C 8.195 354.800,8.408 355.475,8.476 356.300 C 8.567 357.403,8.838 357.905,9.500 358.195 C 10.116 358.465,10.400 358.933,10.400 359.679 C 10.400 360.279,10.741 361.091,11.157 361.484 C 11.573 361.878,11.980 362.560,12.061 363.000 C 12.146 363.464,12.584 363.854,13.104 363.928 C 13.687 364.011,14.000 364.332,14.000 364.846 C 14.000 365.281,14.450 366.086,15.000 366.636 C 15.550 367.186,16.000 367.988,16.000 368.418 C 16.000 368.852,16.271 369.200,16.610 369.200 C 16.945 369.200,17.391 369.650,17.600 370.200 C 17.833 370.812,18.294 371.200,18.790 371.200 C 19.387 371.200,19.600 371.463,19.600 372.200 C 19.600 373.000,19.800 373.200,20.600 373.200 C 21.333 373.200,21.600 373.413,21.600 374.000 C 21.600 374.533,21.867 374.800,22.400 374.800 C 22.987 374.800,23.200 375.067,23.200 375.800 C 23.200 376.600,23.400 376.800,24.200 376.800 C 25.000 376.800,25.200 377.000,25.200 377.800 C 25.200 378.533,25.413 378.800,26.000 378.800 C 26.533 378.800,26.800 379.067,26.800 379.600 C 26.800 380.181,27.067 380.400,27.772 380.400 C 28.476 380.400,28.780 380.649,28.872 381.300 C 28.954 381.878,29.322 382.246,29.900 382.328 C 30.478 382.410,30.800 382.732,30.800 383.228 C 30.800 383.653,31.035 384.000,31.322 384.000 C 31.610 384.000,32.455 384.450,33.200 385.000 C 33.945 385.550,34.970 386.000,35.478 386.000 C 36.195 386.000,36.400 386.222,36.400 387.000 C 36.400 387.787,36.603 388.000,37.353 388.000 C 37.966 388.000,38.380 388.282,38.513 388.789 C 38.658 389.345,39.192 389.653,40.325 389.834 C 41.428 390.011,41.992 390.327,42.128 390.846 C 42.280 391.427,42.694 391.600,43.935 391.600 C 45.299 391.600,45.564 391.737,45.672 392.500 C 45.778 393.248,46.087 393.421,47.500 393.523 C 48.874 393.622,49.200 393.795,49.200 394.423 C 49.200 395.118,49.494 395.200,52.000 395.200 C 54.720 395.200,54.800 395.229,54.800 396.200 C 54.800 397.171,54.880 397.200,57.600 397.200 C 60.081 397.200,60.400 397.286,60.400 397.957 C 60.400 398.928,61.151 399.200,63.833 399.200 C 65.025 399.200,66.000 399.380,66.000 399.600 C 66.000 399.866,110.933 400.000,200.000 400.000 C 289.067 400.000,334.000 399.866,334.000 399.600 C 334.000 399.378,335.057 399.200,336.371 399.200 C 338.649 399.200,340.000 398.594,340.000 397.571 C 340.000 397.367,341.170 397.200,342.600 397.200 C 345.107 397.200,345.200 397.164,345.200 396.200 C 345.200 395.229,345.280 395.200,348.000 395.200 C 350.506 395.200,350.800 395.118,350.800 394.423 C 350.800 393.795,351.126 393.622,352.500 393.523 C 353.913 393.421,354.222 393.248,354.328 392.500 C 354.432 391.767,354.709 391.600,355.824 391.600 C 356.760 391.600,357.351 391.347,357.693 390.800 C 357.968 390.360,358.573 390.000,359.038 390.000 C 359.503 390.000,360.355 389.563,360.931 389.029 C 361.507 388.495,362.388 388.000,362.889 387.929 C 363.478 387.846,363.845 387.482,363.928 386.900 C 364.010 386.322,364.332 386.000,364.828 386.000 C 365.316 386.000,365.600 385.724,365.600 385.251 C 365.600 384.684,365.997 384.439,367.240 384.240 C 368.385 384.057,368.941 383.746,369.081 383.211 C 369.191 382.790,369.668 382.390,370.141 382.322 C 370.679 382.246,371.048 381.863,371.128 381.300 C 371.220 380.649,371.524 380.400,372.228 380.400 C 372.933 380.400,373.200 380.181,373.200 379.600 C 373.200 379.067,373.467 378.800,374.000 378.800 C 374.587 378.800,374.800 378.533,374.800 377.800 C 374.800 377.000,375.000 376.800,375.800 376.800 C 376.600 376.800,376.800 376.600,376.800 375.800 C 376.800 375.000,377.000 374.800,377.800 374.800 C 378.533 374.800,378.800 374.587,378.800 374.000 C 378.800 373.467,379.067 373.200,379.600 373.200 C 380.181 373.200,380.400 372.933,380.400 372.228 C 380.400 371.524,380.649 371.220,381.300 371.128 C 381.863 371.048,382.246 370.679,382.322 370.141 C 382.390 369.668,382.790 369.191,383.211 369.081 C 383.746 368.941,384.057 368.385,384.240 367.240 C 384.439 365.997,384.684 365.600,385.251 365.600 C 385.724 365.600,386.000 365.316,386.000 364.828 C 386.000 364.332,386.322 364.010,386.900 363.928 C 387.668 363.819,387.818 363.521,387.922 361.900 C 388.032 360.185,388.139 360.000,389.022 360.000 C 389.748 360.000,390.000 359.784,390.000 359.163 C 390.000 358.703,390.360 357.869,390.800 357.309 C 391.240 356.750,391.600 355.887,391.600 355.393 C 391.600 354.834,391.899 354.415,392.389 354.287 C 392.949 354.141,393.254 353.605,393.440 352.440 C 393.639 351.197,393.884 350.800,394.451 350.800 C 395.111 350.800,395.200 350.470,395.200 348.028 C 395.200 345.458,395.266 345.246,396.100 345.128 C 396.918 345.012,397.011 344.753,397.118 342.300 C 397.209 340.237,397.376 339.600,397.828 339.600 C 398.695 339.600,399.200 337.896,399.200 334.974 C 399.200 333.525,399.375 332.400,399.600 332.400 C 399.866 332.400,400.000 288.000,400.000 200.000 C 400.000 112.000,399.866 67.600,399.600 67.600 C 399.380 67.600,399.200 66.633,399.200 65.450 C 399.200 62.344,398.819 60.860,397.952 60.585 C 397.339 60.390,397.200 59.950,397.200 58.206 C 397.200 55.551,396.926 54.800,395.957 54.800 C 395.293 54.800,395.200 54.485,395.200 52.227 C 395.200 50.005,395.091 49.619,394.400 49.400 C 393.898 49.241,393.600 48.795,393.600 48.202 C 393.600 47.672,393.162 46.914,392.600 46.471 C 391.990 45.992,391.600 45.278,391.600 44.642 C 391.600 43.877,391.394 43.600,390.823 43.600 C 390.195 43.600,390.022 43.274,389.923 41.900 C 389.821 40.487,389.648 40.178,388.900 40.072 C 388.121 39.962,388.000 39.705,388.000 38.172 C 388.000 36.549,387.916 36.400,387.000 36.400 C 386.200 36.400,386.000 36.200,386.000 35.400 C 386.000 34.667,385.787 34.400,385.200 34.400 C 384.688 34.400,384.400 34.133,384.400 33.658 C 384.400 33.251,383.964 32.447,383.432 31.872 C 382.900 31.298,382.404 30.507,382.330 30.114 C 382.256 29.721,381.791 29.222,381.298 29.005 C 380.804 28.788,380.400 28.276,380.400 27.868 C 380.400 27.459,380.057 27.035,379.637 26.926 C 379.217 26.816,378.784 26.383,378.674 25.963 C 378.558 25.519,378.125 25.200,377.637 25.200 C 377.011 25.200,376.800 24.948,376.800 24.200 C 376.800 23.400,376.600 23.200,375.800 23.200 C 375.067 23.200,374.800 22.987,374.800 22.400 C 374.800 21.876,374.533 21.600,374.028 21.600 C 373.532 21.600,373.210 21.278,373.128 20.700 C 373.046 20.122,372.678 19.754,372.100 19.672 C 371.605 19.602,371.200 19.282,371.200 18.962 C 371.200 18.642,370.757 18.212,370.216 18.006 C 369.675 17.800,368.865 17.265,368.416 16.816 C 367.967 16.367,367.150 16.000,366.600 16.000 C 365.800 16.000,365.600 15.800,365.600 15.000 C 365.600 14.312,365.380 14.000,364.895 14.000 C 364.507 14.000,364.012 13.595,363.795 13.100 C 363.490 12.405,363.013 12.172,361.700 12.077 C 360.326 11.978,360.000 11.805,360.000 11.177 C 360.000 10.523,359.716 10.400,358.200 10.400 C 356.547 10.400,356.400 10.319,356.400 9.400 C 356.400 8.595,356.201 8.400,355.381 8.400 C 354.808 8.400,353.956 7.962,353.435 7.400 C 352.925 6.850,352.145 6.400,351.701 6.400 C 351.230 6.400,350.806 6.067,350.684 5.600 C 350.502 4.902,350.138 4.800,347.837 4.800 C 345.525 4.800,345.200 4.708,345.200 4.050 C 345.200 3.226,343.829 2.800,341.177 2.800 C 340.005 2.800,339.595 2.615,339.400 2.000 C 339.173 1.283,338.795 1.200,335.773 1.200 C 333.041 1.200,332.400 1.086,332.400 0.600 C 332.400 0.068,317.422 0.000,200.000 0.000 C 82.578 0.000,67.600 0.068,67.600 0.600 M229.801 55.200 C 231.934 55.904,232.092 56.585,232.027 64.765 C 231.949 74.540,231.257 73.744,240.067 74.006 C 250.582 74.318,250.529 74.368,250.393 64.280 C 250.287 56.327,250.263 56.559,251.275 55.616 C 252.725 54.265,267.856 54.371,269.451 55.742 L 270.546 56.685 270.442 74.468 C 270.346 90.919,270.390 92.294,271.031 92.825 C 271.582 93.282,273.354 93.400,279.694 93.400 C 289.724 93.400,288.951 94.088,288.674 85.400 C 288.310 73.986,288.347 73.946,299.357 74.097 L 306.915 74.200 307.757 75.329 C 308.532 76.366,308.616 77.119,308.800 84.597 C 308.910 89.073,309.103 92.838,309.228 92.963 C 309.353 93.087,313.043 93.237,317.428 93.295 C 329.193 93.450,328.197 91.485,327.814 113.774 C 327.465 134.071,326.370 131.785,336.469 131.850 C 340.721 131.878,344.510 131.923,344.890 131.950 C 346.529 132.068,346.853 133.950,346.723 142.607 C 346.568 152.914,347.568 151.971,336.780 151.987 C 326.659 152.003,327.600 151.155,327.600 160.261 C 327.600 171.105,327.503 171.000,337.600 171.000 C 347.713 171.000,346.802 168.772,346.794 193.487 C 346.785 221.356,345.679 231.599,341.102 246.200 C 340.551 247.960,339.825 250.300,339.491 251.400 C 338.810 253.640,337.039 257.811,334.738 262.600 C 333.892 264.360,333.199 265.980,333.198 266.200 C 333.195 266.906,330.501 271.802,326.815 277.800 C 323.943 282.472,316.810 292.430,315.210 294.000 C 314.874 294.330,312.259 297.101,309.400 300.159 C 306.540 303.216,302.940 306.722,301.400 307.949 C 299.860 309.177,297.505 311.176,296.168 312.391 C 294.830 313.606,293.390 314.872,292.968 315.204 C 290.461 317.174,276.181 326.000,275.498 326.000 C 275.292 326.000,274.578 326.389,273.911 326.864 C 269.760 329.819,245.250 338.448,237.800 339.576 C 236.260 339.809,231.580 340.567,227.400 341.261 L 219.800 342.522 202.800 342.554 C 188.663 342.581,185.126 342.474,181.800 341.918 C 166.848 339.418,163.556 338.791,161.600 338.066 C 160.390 337.617,157.420 336.682,155.000 335.987 C 152.580 335.292,150.399 334.559,150.154 334.358 C 149.909 334.156,147.659 333.301,145.154 332.457 C 139.939 330.700,134.731 328.417,130.400 325.991 C 128.750 325.066,125.870 323.462,124.000 322.425 C 112.887 316.266,101.365 307.182,95.051 299.600 C 93.493 297.730,91.795 295.750,91.278 295.200 C 87.252 290.920,75.832 274.416,72.872 268.600 C 70.240 263.429,64.836 251.277,64.067 248.800 C 62.286 243.068,60.709 237.191,60.043 233.800 C 59.611 231.600,58.839 227.820,58.328 225.400 C 56.918 218.714,56.893 182.179,58.295 175.600 C 58.787 173.290,59.663 169.060,60.241 166.200 C 60.819 163.340,61.618 160.100,62.015 159.000 C 62.413 157.900,63.108 155.617,63.560 153.928 C 64.013 152.238,65.016 149.501,65.791 147.846 C 66.566 146.191,67.200 144.625,67.200 144.366 C 67.200 144.107,67.812 142.704,68.561 141.248 C 69.309 139.792,71.017 136.350,72.356 133.600 C 78.964 120.026,92.577 102.949,104.197 93.656 C 106.839 91.543,109.450 89.401,110.000 88.895 C 110.550 88.388,111.900 87.376,113.000 86.644 C 114.100 85.913,116.682 84.187,118.738 82.810 C 120.794 81.432,123.764 79.629,125.338 78.803 C 126.912 77.977,129.100 76.803,130.200 76.194 C 133.520 74.355,137.550 72.400,138.020 72.400 C 138.262 72.400,139.932 71.776,141.731 71.013 C 143.529 70.250,146.440 69.254,148.200 68.799 C 149.960 68.344,152.927 67.427,154.793 66.760 C 156.659 66.093,159.629 65.279,161.393 64.950 C 163.157 64.621,165.789 64.003,167.243 63.576 C 172.720 61.968,173.775 62.598,174.091 67.667 C 174.457 73.533,174.861 73.797,184.071 74.178 L 191.143 74.471 191.871 73.135 C 192.495 71.992,192.605 70.763,192.637 64.600 C 192.683 55.821,192.579 56.563,193.882 55.709 C 195.637 54.559,226.530 54.121,229.801 55.200 M194.161 74.754 C 192.702 74.938,191.731 75.353,190.751 76.214 C 189.458 77.349,188.985 77.469,182.390 78.328 C 178.546 78.828,173.960 79.426,172.200 79.655 C 170.440 79.885,167.740 80.496,166.200 81.014 C 164.660 81.532,162.080 82.337,160.467 82.804 C 152.036 85.245,144.934 91.182,142.665 97.686 C 142.106 99.289,141.371 101.360,141.030 102.289 C 139.738 105.817,137.409 119.648,136.802 127.400 C 136.408 132.423,135.763 139.256,134.742 149.200 C 133.598 160.340,133.956 246.891,135.212 262.800 C 135.429 265.550,135.795 270.230,136.026 273.200 C 138.406 303.840,143.934 314.501,160.950 321.266 C 175.830 327.182,215.381 329.049,232.000 324.620 C 234.090 324.063,237.420 323.236,239.400 322.782 C 241.380 322.328,244.503 321.246,246.339 320.378 C 248.176 319.510,249.759 318.800,249.857 318.800 C 250.261 318.800,256.190 314.623,257.166 313.650 C 260.713 310.117,263.589 303.326,264.726 295.800 C 266.722 282.592,267.249 278.224,267.813 270.200 C 268.169 265.140,268.708 257.940,269.011 254.200 C 269.405 249.339,269.568 239.557,269.581 219.900 C 269.604 186.430,268.086 190.274,281.200 190.483 L 288.600 190.600 288.800 198.800 C 289.080 210.270,288.822 210.000,299.512 210.000 C 308.822 210.000,308.600 210.255,308.600 199.560 C 308.600 189.697,309.155 190.162,297.563 190.292 L 289.325 190.384 289.049 181.107 C 288.852 174.525,288.631 171.740,288.286 171.521 C 288.019 171.351,284.366 171.209,280.170 171.206 C 269.424 171.197,270.399 173.181,270.361 151.254 C 270.323 129.784,269.462 131.610,279.474 131.914 C 289.098 132.206,289.182 132.115,288.889 121.647 C 288.632 112.431,289.261 113.040,280.250 113.292 C 270.053 113.577,270.320 113.860,270.011 102.411 L 269.800 94.622 268.800 94.117 C 268.043 93.734,263.733 93.610,251.047 93.606 C 229.321 93.598,231.214 94.593,231.205 83.176 C 231.201 77.751,231.071 75.976,230.633 75.376 C 230.044 74.571,199.715 74.053,194.161 74.754 M290.089 94.223 C 289.217 94.833,289.200 95.013,289.200 103.409 C 289.200 113.767,288.423 112.847,297.383 113.093 C 308.523 113.398,308.398 113.518,308.399 102.500 C 308.400 92.839,309.214 93.600,298.889 93.600 C 292.376 93.600,290.821 93.710,290.089 94.223 M309.326 133.300 C 308.593 134.671,308.227 149.692,308.887 151.300 C 309.367 152.467,326.580 152.359,327.208 151.185 C 328.061 149.591,327.548 133.242,326.624 132.567 C 326.015 132.123,324.132 132.000,317.934 132.000 L 310.021 132.000 309.326 133.300 M291.000 152.374 C 288.808 153.283,288.716 153.711,288.863 162.339 C 288.939 166.737,289.146 170.481,289.325 170.659 C 289.504 170.838,293.296 171.053,297.751 171.137 C 309.063 171.350,308.885 171.555,308.434 158.800 L 308.200 152.200 300.000 152.121 C 295.490 152.078,291.440 152.192,291.000 152.374 " stroke="none" fill="#4ca0ed" fill-rule="evenodd"></path></g></svg>