<?xml version="1.0" standalone="no"?><!DOCTYPE svg PUBLIC "-//W3C//DTD SVG 1.1//EN" "http://www.w3.org/Graphics/SVG/1.1/DTD/svg11.dtd"><svg t="1707724570386" class="icon" viewBox="0 0 1024 1024" version="1.1" xmlns="http://www.w3.org/2000/svg" p-id="81723" xmlns:xlink="http://www.w3.org/1999/xlink" width="48" height="48"><path d="M507.195629 697.302768c-30.042523-34.54282-59.841786-68.84238-88.668013-102.047274 91.587124-92.803421 182.68773-184.998693 273.788336-277.193966-180.011878 0-360.753534 0-542.224967 0 0-46.219266 0-91.587124 0-137.80639 2.797482-0.12163 5.473334-0.364889 8.027557-0.364889 215.406105 0 430.690581 0 646.096686 0 36.367265 0 60.571564 17.879558 67.990973 49.746526 0.608148 2.675852 1.216296 5.351704 1.216296 8.027557-0.12163 26.880152 0.608148 53.760304-0.851408 80.640456-0.851408 14.473928-8.514075 27.245041-19.095855 37.583561-88.181494 87.086827-176.362988 174.052025-264.422853 261.017223-25.298967 25.055707-50.719563 49.989785-76.01853 75.045492C511.209407 693.653878 509.384963 695.235064 507.195629 697.302768z" fill="#d81e06" p-id="81724"></path><path d="M155.929208 706.424991c239.245516 0 472.652809 0 712.019955 0 5.959853 0 5.959853 3.40563 5.959853 5.959853 0 53.881934-0.243259 85.140753 0 125.643426 0 6.203112-5.108445 5.959853-11.919705 5.959853-234.137071-0.243259-465.963179 0-700.100249 0C157.632023 844.109752 149.969355 844.83953 149.969355 838.028269c0.243259-42.448747 0-83.194679 0-125.643426C149.969355 711.290177 152.645207 707.154769 155.929208 706.424991z" fill="#d81e06" p-id="81725"></path></svg>