<svg id="svg" version="1.1" xmlns="http://www.w3.org/2000/svg" xmlns:xlink="http://www.w3.org/1999/xlink" width="48" height="48" viewBox="0 0 400 400"><g id="svgg"><path id="path0" d="M187.000 37.174 C 182.047 37.336,178.982 37.608,178.200 37.955 C 177.540 38.248,174.999 38.631,172.553 38.806 C 169.806 39.003,167.626 39.373,166.851 39.774 C 166.161 40.130,164.361 40.577,162.852 40.767 C 161.342 40.957,159.678 41.387,159.153 41.724 C 158.629 42.060,157.120 42.463,155.800 42.619 C 154.480 42.775,152.732 43.240,151.916 43.652 C 151.100 44.063,150.018 44.400,149.513 44.400 C 149.007 44.400,147.748 44.850,146.715 45.400 C 145.682 45.950,144.445 46.400,143.966 46.400 C 143.486 46.400,142.533 46.745,141.847 47.166 C 141.161 47.588,139.880 48.064,139.000 48.224 C 138.120 48.385,136.971 48.850,136.446 49.258 C 135.921 49.666,135.246 50.000,134.946 50.000 C 134.485 50.000,131.830 51.232,129.600 52.480 C 129.270 52.665,128.370 53.099,127.600 53.445 C 123.914 55.103,119.038 57.682,118.072 58.486 C 117.703 58.793,116.950 59.263,116.400 59.529 C 115.850 59.795,114.590 60.543,113.600 61.191 C 112.610 61.840,111.260 62.644,110.600 62.979 C 109.940 63.314,108.590 64.221,107.600 64.994 C 106.610 65.768,105.530 66.522,105.200 66.670 C 104.870 66.819,104.211 67.314,103.735 67.770 C 103.259 68.227,102.449 68.906,101.935 69.281 C 97.249 72.692,95.276 74.207,94.564 74.940 C 94.104 75.413,92.034 77.328,89.964 79.197 C 85.246 83.454,83.454 85.246,79.197 89.964 C 77.328 92.034,75.413 94.104,74.940 94.564 C 74.207 95.276,72.692 97.249,69.281 101.935 C 68.906 102.449,68.227 103.259,67.770 103.735 C 67.314 104.211,66.819 104.870,66.670 105.200 C 66.522 105.530,65.768 106.610,64.994 107.600 C 64.221 108.590,63.314 109.940,62.979 110.600 C 62.644 111.260,61.840 112.610,61.191 113.600 C 60.543 114.590,59.795 115.850,59.529 116.400 C 59.263 116.950,58.793 117.703,58.486 118.072 C 57.682 119.038,55.103 123.914,53.445 127.600 C 53.099 128.370,52.665 129.270,52.480 129.600 C 51.232 131.830,50.000 134.485,50.000 134.946 C 50.000 135.246,49.666 135.921,49.258 136.446 C 48.850 136.971,48.385 138.120,48.224 139.000 C 48.064 139.880,47.588 141.161,47.166 141.847 C 46.745 142.533,46.400 143.486,46.400 143.966 C 46.400 144.445,45.950 145.682,45.400 146.715 C 44.850 147.748,44.400 149.007,44.400 149.513 C 44.400 150.018,44.063 151.100,43.652 151.916 C 43.240 152.732,42.775 154.480,42.619 155.800 C 42.463 157.120,42.060 158.629,41.724 159.153 C 41.387 159.678,40.957 161.342,40.767 162.852 C 40.577 164.361,40.130 166.161,39.774 166.851 C 39.374 167.623,39.000 169.816,38.801 172.553 C 38.623 174.999,38.171 177.810,37.798 178.800 C 36.763 181.543,36.761 218.483,37.796 221.200 C 38.188 222.231,38.616 224.981,38.798 227.637 C 38.996 230.545,39.353 232.736,39.755 233.514 C 40.108 234.196,40.561 235.910,40.761 237.324 C 40.961 238.738,41.389 240.413,41.711 241.047 C 42.034 241.681,42.428 243.267,42.587 244.572 C 42.746 245.876,43.219 247.584,43.638 248.366 C 44.057 249.148,44.402 250.151,44.404 250.594 C 44.406 251.037,44.850 252.300,45.391 253.400 C 45.932 254.500,46.381 255.760,46.389 256.200 C 46.397 256.640,46.741 257.555,47.155 258.233 C 47.569 258.912,48.032 260.206,48.185 261.110 C 48.338 262.014,48.707 262.957,49.006 263.205 C 49.304 263.452,49.673 264.228,49.824 264.928 C 49.976 265.627,50.413 266.650,50.797 267.200 C 51.181 267.750,51.632 268.650,51.800 269.200 C 51.968 269.750,52.441 270.678,52.852 271.262 C 53.264 271.846,53.600 272.523,53.600 272.767 C 53.600 273.375,57.523 280.808,58.367 281.800 C 58.741 282.240,59.266 283.050,59.533 283.600 C 60.912 286.436,66.146 294.418,68.582 297.400 C 69.481 298.500,70.753 300.206,71.408 301.192 C 72.582 302.957,73.856 304.437,77.800 308.617 C 78.900 309.783,80.784 311.876,81.987 313.268 C 83.190 314.661,85.080 316.593,86.187 317.562 C 88.564 319.644,94.975 325.454,96.166 326.606 C 96.625 327.050,97.810 327.946,98.800 328.598 C 99.790 329.250,101.500 330.516,102.600 331.412 C 104.654 333.084,105.032 333.355,108.800 335.851 C 110.010 336.652,111.453 337.618,112.008 337.998 C 112.562 338.377,113.417 338.815,113.908 338.971 C 114.398 339.126,114.800 339.428,114.800 339.641 C 114.800 339.854,115.565 340.384,116.500 340.818 C 117.435 341.253,119.010 342.144,120.000 342.798 C 120.990 343.452,122.070 344.095,122.400 344.226 C 123.453 344.646,124.582 345.183,125.200 345.560 C 125.530 345.761,127.060 346.506,128.600 347.216 C 130.140 347.926,131.670 348.664,132.000 348.856 C 132.330 349.049,133.050 349.401,133.600 349.639 C 134.150 349.877,135.437 350.505,136.459 351.036 C 137.481 351.566,138.720 352.000,139.212 352.000 C 139.703 352.000,140.667 352.338,141.353 352.751 C 142.039 353.165,143.320 353.630,144.200 353.785 C 145.080 353.941,146.070 354.304,146.400 354.593 C 146.730 354.883,147.990 355.390,149.200 355.721 C 150.410 356.052,152.120 356.603,153.000 356.944 C 153.880 357.286,155.195 357.573,155.922 357.582 C 156.649 357.592,157.999 357.938,158.922 358.352 C 159.845 358.765,161.680 359.234,163.000 359.393 C 164.319 359.552,165.935 359.959,166.589 360.298 C 167.282 360.656,169.621 361.050,172.189 361.241 C 174.615 361.421,177.410 361.871,178.400 362.240 C 182.297 363.693,217.627 363.673,221.767 362.215 C 222.848 361.835,225.728 361.378,228.167 361.202 C 230.813 361.010,233.089 360.628,233.814 360.254 C 234.482 359.909,236.102 359.504,237.414 359.353 C 238.726 359.202,240.427 358.746,241.194 358.339 C 241.961 357.933,243.221 357.592,243.994 357.582 C 244.767 357.573,246.120 357.286,247.000 356.944 C 247.880 356.603,249.590 356.052,250.800 355.721 C 252.010 355.390,253.270 354.890,253.600 354.610 C 253.930 354.330,254.920 353.973,255.800 353.817 C 256.680 353.661,257.961 353.188,258.647 352.766 C 259.333 352.345,260.299 352.000,260.793 352.000 C 261.287 352.000,262.346 351.660,263.146 351.244 C 264.500 350.539,271.743 347.079,274.000 346.058 C 274.550 345.809,275.270 345.429,275.600 345.213 C 275.930 344.996,276.830 344.549,277.600 344.218 C 279.216 343.523,280.142 342.958,281.728 341.700 C 282.351 341.205,283.052 340.800,283.286 340.800 C 283.519 340.800,284.906 340.035,286.368 339.100 C 287.831 338.165,289.309 337.220,289.654 337.000 C 292.383 335.258,294.156 334.002,296.372 332.242 C 297.787 331.119,299.337 329.930,299.818 329.600 C 300.299 329.270,301.392 328.523,302.246 327.939 C 303.101 327.356,304.898 325.826,306.241 324.539 C 307.583 323.253,310.013 321.031,311.641 319.602 C 315.336 316.358,316.358 315.336,319.602 311.641 C 321.031 310.013,323.253 307.583,324.539 306.241 C 325.826 304.898,327.356 303.101,327.939 302.246 C 328.523 301.392,329.270 300.299,329.600 299.818 C 329.930 299.337,331.119 297.787,332.242 296.372 C 334.002 294.156,335.258 292.383,337.000 289.654 C 337.220 289.309,338.165 287.831,339.100 286.368 C 340.035 284.906,340.800 283.519,340.800 283.286 C 340.800 283.052,341.205 282.351,341.700 281.728 C 342.958 280.142,343.523 279.216,344.218 277.600 C 344.549 276.830,344.996 275.930,345.213 275.600 C 345.429 275.270,345.809 274.550,346.058 274.000 C 347.079 271.743,350.539 264.500,351.244 263.146 C 351.660 262.346,352.000 261.287,352.000 260.793 C 352.000 260.299,352.345 259.333,352.766 258.647 C 353.188 257.961,353.661 256.680,353.817 255.800 C 353.973 254.920,354.330 253.930,354.610 253.600 C 354.890 253.270,355.390 252.010,355.721 250.800 C 356.052 249.590,356.603 247.880,356.944 247.000 C 357.286 246.120,357.574 244.770,357.585 244.000 C 357.596 243.230,357.885 242.062,358.228 241.405 C 358.571 240.748,359.097 238.802,359.397 237.080 C 359.698 235.358,360.159 233.690,360.422 233.373 C 360.686 233.056,361.041 230.757,361.212 228.265 C 361.383 225.773,361.835 222.848,362.215 221.767 C 363.684 217.595,363.682 182.335,362.213 178.400 C 361.843 177.410,361.399 174.615,361.227 172.189 C 361.039 169.555,360.662 167.293,360.289 166.571 C 359.945 165.907,359.483 164.057,359.262 162.459 C 359.040 160.861,358.654 159.306,358.403 159.004 C 358.153 158.702,357.774 157.233,357.563 155.741 C 357.352 154.248,356.934 152.654,356.635 152.198 C 356.336 151.741,355.881 150.354,355.624 149.115 C 355.367 147.875,354.910 146.657,354.609 146.408 C 354.309 146.158,353.938 145.214,353.785 144.310 C 353.632 143.406,353.169 142.112,352.755 141.433 C 352.341 140.755,352.002 139.843,352.001 139.406 C 352.001 138.969,351.572 137.709,351.049 136.606 C 350.525 135.503,349.897 134.150,349.652 133.600 C 349.406 133.050,349.040 132.330,348.838 132.000 C 348.636 131.670,347.262 128.916,345.785 125.881 C 344.307 122.845,342.669 119.729,342.144 118.955 C 341.619 118.182,340.931 116.930,340.615 116.174 C 340.299 115.418,339.864 114.800,339.647 114.800 C 339.431 114.800,339.126 114.398,338.971 113.908 C 338.815 113.417,338.379 112.562,338.001 112.008 C 337.624 111.453,336.974 110.478,336.557 109.840 C 336.141 109.203,335.530 108.284,335.200 107.800 C 334.870 107.316,334.250 106.397,333.822 105.760 C 333.395 105.122,332.311 103.700,331.414 102.600 C 330.517 101.500,329.250 99.790,328.598 98.800 C 327.946 97.810,327.050 96.624,326.606 96.165 C 326.163 95.706,324.272 93.636,322.405 91.565 C 318.065 86.751,313.201 81.892,308.425 77.596 C 306.348 75.728,304.278 73.837,303.825 73.394 C 303.371 72.950,302.190 72.054,301.200 71.402 C 300.210 70.750,298.500 69.481,297.400 68.582 C 294.418 66.146,286.436 60.912,283.600 59.533 C 283.050 59.266,282.240 58.741,281.800 58.367 C 280.808 57.523,273.375 53.600,272.767 53.600 C 272.523 53.600,271.846 53.265,271.262 52.856 C 270.678 52.446,269.539 51.897,268.732 51.635 C 267.925 51.373,267.063 50.917,266.818 50.621 C 266.572 50.326,265.766 49.970,265.026 49.831 C 264.286 49.692,263.472 49.328,263.217 49.021 C 262.962 48.714,261.999 48.339,261.077 48.189 C 260.155 48.039,258.839 47.574,258.153 47.158 C 257.467 46.741,256.567 46.398,256.153 46.396 C 255.739 46.394,254.500 45.950,253.400 45.409 C 252.300 44.868,250.988 44.419,250.484 44.413 C 249.980 44.406,248.881 44.050,248.042 43.621 C 247.203 43.193,245.545 42.719,244.358 42.567 C 243.171 42.415,241.674 42.025,241.031 41.699 C 240.387 41.374,238.677 40.958,237.231 40.775 C 235.784 40.593,233.986 40.136,233.235 39.760 C 232.356 39.320,230.295 38.972,227.435 38.780 C 224.996 38.617,222.280 38.220,221.400 37.898 C 219.490 37.199,199.272 36.774,187.000 37.174 M210.992 76.755 C 212.042 77.220,213.090 77.600,213.319 77.600 C 213.549 77.600,214.921 78.177,216.368 78.882 C 224.916 83.044,227.426 87.475,225.394 94.813 C 225.061 96.016,224.596 98.080,224.360 99.400 C 224.124 100.720,223.575 103.427,223.140 105.416 C 221.494 112.940,222.259 114.155,227.277 111.986 C 230.324 110.668,237.288 107.438,238.500 106.780 C 240.854 105.502,245.058 103.600,245.529 103.600 C 245.776 103.600,246.748 103.254,247.689 102.832 C 260.997 96.856,274.000 100.814,274.000 110.841 C 274.000 116.293,270.704 118.992,260.200 122.141 C 259.320 122.405,257.790 122.905,256.800 123.253 C 255.810 123.600,253.380 124.374,251.400 124.971 C 249.420 125.569,246.990 126.328,246.000 126.659 C 245.010 126.990,243.210 127.489,242.000 127.769 C 240.790 128.048,238.900 128.566,237.800 128.919 C 235.658 129.607,232.802 130.386,228.000 131.592 C 224.160 132.556,220.887 133.499,220.459 133.763 C 220.004 134.044,219.127 143.579,219.057 149.000 L 219.000 153.400 220.108 153.527 C 220.731 153.599,221.804 153.292,222.556 152.827 C 223.292 152.372,224.150 152.000,224.463 152.000 C 224.775 152.000,225.744 151.623,226.615 151.161 C 227.487 150.700,228.740 150.177,229.400 149.999 C 230.697 149.650,234.009 148.346,236.644 147.148 C 237.548 146.736,238.498 146.400,238.756 146.400 C 239.013 146.400,240.261 145.964,241.528 145.430 C 247.002 143.126,257.214 143.835,263.000 146.921 C 263.440 147.155,264.284 147.592,264.877 147.891 C 269.635 150.296,271.265 156.530,269.317 164.874 C 268.371 168.927,268.367 182.982,269.311 186.830 C 269.666 188.276,270.142 191.268,270.368 193.479 C 270.595 195.689,270.952 197.947,271.161 198.497 C 271.370 199.048,271.750 201.006,272.005 202.849 C 272.260 204.692,272.797 207.460,273.199 209.000 C 273.600 210.540,274.045 212.970,274.187 214.400 C 274.330 215.830,274.695 217.990,274.998 219.200 C 275.302 220.410,275.667 222.750,275.809 224.400 C 275.951 226.050,276.416 229.599,276.843 232.286 C 280.167 253.223,273.023 260.253,258.917 249.925 C 256.530 248.177,255.836 248.096,252.696 249.200 C 251.444 249.640,250.056 250.000,249.612 250.000 C 249.167 250.000,247.767 250.341,246.502 250.757 C 244.298 251.482,242.660 251.924,236.000 253.590 C 232.663 254.425,229.497 255.278,225.600 256.392 C 224.170 256.801,222.370 257.251,221.600 257.391 C 220.830 257.531,219.210 257.977,218.000 258.383 C 216.790 258.789,214.902 259.274,213.805 259.460 C 211.818 259.798,211.802 259.813,210.205 262.831 C 207.206 268.494,205.172 269.918,201.605 268.849 C 199.712 268.282,195.054 263.388,194.344 261.221 C 194.088 260.440,193.653 259.440,193.377 259.000 C 193.101 258.560,192.750 257.030,192.597 255.600 C 192.443 254.170,191.992 251.560,191.595 249.800 C 191.198 248.040,190.759 245.430,190.620 244.000 C 190.481 242.570,190.116 240.500,189.809 239.400 C 189.503 238.300,189.061 235.659,188.827 233.530 C 188.594 231.402,188.230 229.205,188.018 228.648 C 187.806 228.090,187.361 225.602,187.029 223.117 C 186.697 220.633,186.238 217.970,186.009 217.200 C 185.779 216.430,185.407 214.187,185.182 212.215 C 184.957 210.243,184.519 207.723,184.208 206.615 C 183.898 205.507,183.453 202.980,183.220 201.000 C 182.986 199.020,182.550 196.590,182.251 195.600 C 181.952 194.610,181.578 192.582,181.421 191.094 C 181.264 189.605,180.790 187.405,180.367 186.204 C 179.945 185.003,179.596 183.790,179.591 183.510 C 179.581 182.922,177.635 179.127,175.603 175.733 C 171.354 168.635,175.384 163.963,185.200 164.609 C 194.306 165.207,197.667 164.501,198.158 161.885 C 198.391 160.646,199.150 152.472,199.661 145.696 C 200.234 138.111,200.305 138.183,194.058 140.043 C 192.660 140.459,191.029 140.800,190.433 140.800 C 189.838 140.800,188.012 141.147,186.375 141.571 C 177.555 143.855,162.035 143.641,157.134 141.167 C 149.016 137.069,156.067 131.536,174.200 127.777 C 175.740 127.457,177.496 126.995,178.103 126.748 C 178.709 126.502,180.419 126.065,181.903 125.778 C 185.054 125.167,188.750 124.247,192.400 123.165 C 193.830 122.741,195.776 122.281,196.723 122.142 C 200.041 121.657,200.218 121.272,200.073 114.885 C 199.915 107.964,199.097 102.589,197.536 98.200 C 197.301 97.540,196.770 96.029,196.356 94.843 C 195.942 93.657,195.446 92.487,195.254 92.243 C 195.062 91.999,194.674 91.080,194.391 90.200 C 194.109 89.320,193.612 88.189,193.285 87.687 C 192.631 86.681,192.152 81.844,192.550 80.258 C 193.581 76.147,204.800 74.016,210.992 76.755 M130.000 97.200 C 131.116 97.640,132.338 98.003,132.715 98.006 C 133.092 98.009,133.850 98.266,134.400 98.576 C 134.950 98.886,136.120 99.517,137.000 99.979 C 143.813 103.552,146.097 106.762,146.324 113.085 C 146.465 116.991,146.379 117.793,145.666 119.285 C 145.215 120.228,144.549 121.810,144.186 122.800 C 142.705 126.836,141.214 130.795,138.952 136.698 C 138.382 138.184,137.583 140.300,137.176 141.400 C 136.457 143.343,135.596 145.616,133.386 151.400 C 132.798 152.940,131.983 155.100,131.576 156.200 C 131.169 157.300,130.359 159.460,129.776 161.000 C 129.193 162.540,128.393 164.720,127.997 165.845 C 127.601 166.970,126.990 168.447,126.638 169.126 C 125.439 171.445,125.775 173.253,127.736 175.028 C 132.161 179.033,134.774 184.392,135.399 190.737 C 135.536 192.133,135.822 193.732,136.035 194.292 C 136.248 194.851,136.686 197.579,137.010 200.354 C 137.333 203.129,137.778 206.025,137.997 206.790 C 138.216 207.554,138.582 210.164,138.809 212.590 C 139.036 215.015,139.485 218.260,139.806 219.800 C 140.127 221.340,140.582 224.760,140.817 227.400 C 141.052 230.040,141.419 232.866,141.632 233.680 C 141.845 234.494,142.281 237.878,142.600 241.200 C 142.919 244.522,143.357 247.906,143.573 248.720 C 143.789 249.534,144.168 252.630,144.415 255.600 C 144.662 258.570,145.106 262.170,145.403 263.600 C 145.699 265.030,146.060 268.000,146.205 270.200 C 146.349 272.400,146.799 276.360,147.204 279.000 C 147.608 281.640,148.059 285.600,148.205 287.800 C 148.351 290.000,148.724 293.145,149.033 294.788 C 150.791 304.135,150.654 314.828,148.747 316.999 C 145.427 320.780,141.116 320.194,136.369 315.315 C 126.421 305.090,124.669 300.484,124.003 282.800 C 123.783 276.970,123.419 270.382,123.194 268.159 C 122.969 265.936,122.523 258.106,122.204 250.759 C 121.885 243.412,121.447 236.320,121.231 235.000 C 121.015 233.680,120.643 230.080,120.405 227.000 C 120.167 223.920,119.797 220.745,119.582 219.944 C 119.368 219.143,118.920 216.546,118.587 214.174 C 118.254 211.801,117.730 208.947,117.422 207.830 C 117.115 206.714,116.749 204.900,116.610 203.800 C 116.471 202.700,116.107 200.990,115.801 200.000 C 115.495 199.010,115.047 197.435,114.807 196.500 C 114.241 194.302,114.037 194.349,112.184 197.100 C 111.332 198.365,110.357 199.702,110.017 200.071 C 109.678 200.439,108.950 201.392,108.400 202.187 C 107.437 203.579,105.861 205.725,104.572 207.400 C 104.233 207.840,102.571 210.025,100.878 212.256 C 94.164 221.103,92.484 223.130,89.157 226.400 C 85.383 230.110,81.463 233.030,79.714 233.436 C 79.101 233.579,78.185 233.954,77.678 234.271 C 74.842 236.043,72.308 233.713,73.404 230.343 C 74.093 228.226,77.417 221.283,79.601 217.400 C 80.219 216.300,81.091 214.680,81.537 213.800 C 81.983 212.920,83.241 210.670,84.331 208.800 C 85.422 206.930,87.075 203.960,88.006 202.200 C 88.936 200.440,90.565 197.380,91.625 195.400 C 94.160 190.664,96.396 186.062,99.495 179.200 C 101.398 174.988,101.270 175.304,103.855 168.400 C 104.391 166.970,105.352 164.180,105.992 162.200 C 106.632 160.220,107.448 157.700,107.806 156.600 C 108.164 155.500,108.719 153.520,109.038 152.200 C 109.357 150.880,109.876 149.170,110.191 148.400 C 110.507 147.630,110.957 145.674,111.193 144.053 C 111.429 142.433,111.792 140.789,112.000 140.400 C 112.208 140.011,112.577 138.367,112.820 136.747 C 113.063 135.126,113.525 132.757,113.846 131.483 C 114.705 128.077,115.213 119.772,115.165 109.888 C 115.119 100.203,115.120 100.195,117.936 97.706 C 119.820 96.041,126.363 95.766,130.000 97.200 M231.200 165.574 C 229.990 165.985,227.968 166.531,226.707 166.788 C 225.446 167.044,224.318 167.410,224.200 167.600 C 224.082 167.790,222.983 168.154,221.756 168.409 C 220.530 168.664,218.778 169.212,217.863 169.627 C 216.949 170.043,215.840 170.387,215.400 170.394 C 214.960 170.400,214.060 170.687,213.400 171.032 C 212.740 171.377,211.275 171.901,210.145 172.196 C 209.015 172.491,207.575 172.996,206.945 173.318 C 206.315 173.640,205.170 174.033,204.400 174.191 C 203.630 174.349,202.640 174.696,202.200 174.962 C 201.760 175.228,200.637 175.667,199.704 175.938 C 197.531 176.568,197.411 177.083,198.176 182.511 C 199.079 188.922,199.627 189.495,203.242 187.812 C 204.429 187.260,205.675 186.806,206.011 186.804 C 206.347 186.802,206.982 186.548,207.423 186.239 C 207.863 185.931,209.028 185.466,210.012 185.207 C 210.995 184.947,212.163 184.503,212.606 184.220 C 213.049 183.937,214.039 183.576,214.806 183.418 C 215.573 183.260,217.370 182.775,218.800 182.341 C 222.963 181.076,230.376 181.108,232.937 182.401 C 238.751 185.336,238.584 190.951,232.633 192.672 C 231.735 192.932,230.190 193.417,229.200 193.750 C 228.210 194.083,225.780 194.823,223.800 195.394 C 221.820 195.965,219.390 196.709,218.400 197.046 C 217.410 197.384,215.610 197.885,214.400 198.161 C 213.190 198.436,211.840 198.853,211.400 199.086 C 210.960 199.319,209.524 199.732,208.208 200.003 C 202.070 201.266,201.415 202.217,202.747 207.936 C 203.191 209.841,203.699 212.480,203.877 213.800 C 204.249 216.561,205.470 217.111,208.367 215.825 C 209.155 215.475,210.700 214.942,211.800 214.640 C 212.900 214.337,214.340 213.897,215.000 213.661 C 229.076 208.623,237.772 209.299,241.035 215.684 C 242.469 218.491,240.428 221.327,236.340 222.208 C 235.603 222.366,234.523 222.740,233.941 223.037 C 233.358 223.335,232.008 223.770,230.941 224.003 C 229.873 224.237,228.100 224.765,227.000 225.177 C 225.900 225.588,223.380 226.402,221.400 226.984 C 219.420 227.567,217.260 228.235,216.600 228.469 C 215.940 228.702,214.410 229.154,213.200 229.473 C 210.358 230.223,207.622 231.476,207.365 232.148 C 207.031 233.018,207.980 239.196,209.424 245.548 C 209.653 246.555,212.245 246.559,213.457 245.553 C 213.730 245.326,214.999 244.805,216.277 244.394 C 220.086 243.169,223.348 242.025,224.200 241.614 C 225.237 241.114,229.302 239.687,231.600 239.016 C 232.590 238.727,234.030 238.213,234.800 237.875 C 238.050 236.446,248.193 233.604,250.051 233.601 C 252.278 233.598,252.460 230.771,250.761 222.600 C 250.349 220.620,250.006 218.280,249.998 217.400 C 249.990 216.520,249.720 214.630,249.399 213.200 C 249.078 211.770,248.541 208.530,248.206 206.000 C 247.871 203.471,247.420 200.861,247.204 200.200 C 246.988 199.540,246.543 197.110,246.214 194.800 C 245.885 192.490,245.346 189.430,245.016 188.000 C 244.687 186.570,244.413 184.849,244.408 184.175 C 244.404 183.502,244.056 181.612,243.636 179.975 C 243.216 178.339,242.757 176.010,242.615 174.800 C 241.634 166.439,237.793 163.335,231.200 165.574 M163.674 204.831 C 164.705 205.254,165.752 205.600,166.001 205.600 C 166.597 205.600,169.098 207.448,170.576 208.980 C 173.280 211.786,175.222 217.941,176.008 226.200 C 176.238 228.620,176.597 231.140,176.805 231.800 C 177.013 232.460,177.453 235.430,177.783 238.400 C 178.113 241.370,178.558 244.398,178.772 245.128 C 178.986 245.859,179.352 248.513,179.586 251.027 C 179.820 253.541,180.267 256.724,180.579 258.099 C 180.891 259.475,181.345 262.580,181.588 265.000 C 181.831 267.420,182.290 270.480,182.609 271.800 C 182.927 273.120,183.190 274.938,183.194 275.840 C 183.210 280.142,184.532 280.667,190.600 278.784 C 191.920 278.374,193.720 277.925,194.600 277.785 C 195.480 277.645,197.236 277.186,198.502 276.765 C 199.767 276.344,201.224 276.000,201.738 276.000 C 202.252 276.000,203.556 275.715,204.636 275.368 C 206.534 274.757,209.574 274.012,216.500 272.461 C 218.315 272.055,220.661 271.425,221.714 271.061 C 222.767 270.698,224.065 270.400,224.600 270.400 C 225.135 270.400,226.433 270.102,227.486 269.739 C 228.539 269.375,230.840 268.760,232.600 268.372 C 234.360 267.984,236.610 267.456,237.600 267.198 C 238.590 266.941,241.200 266.284,243.400 265.739 C 245.600 265.194,248.750 264.397,250.400 263.968 C 252.050 263.539,254.313 263.022,255.429 262.818 C 256.545 262.614,257.895 262.256,258.429 262.021 C 258.963 261.786,260.660 261.333,262.200 261.016 C 265.397 260.355,268.955 259.494,273.000 258.400 C 276.771 257.380,280.577 256.442,283.000 255.935 C 284.100 255.705,286.080 255.182,287.400 254.774 C 288.720 254.365,290.610 253.908,291.600 253.759 C 292.590 253.609,294.210 253.176,295.200 252.796 C 296.190 252.417,297.898 251.975,298.995 251.815 C 300.092 251.654,301.532 251.225,302.195 250.861 C 303.680 250.047,315.086 249.880,316.039 250.659 C 316.347 250.912,317.500 251.384,318.600 251.709 C 324.505 253.453,329.352 257.946,329.844 262.132 C 330.599 268.556,327.216 271.645,318.596 272.400 C 316.041 272.624,313.189 272.978,312.257 273.187 C 311.326 273.396,308.141 273.757,305.182 273.990 C 302.222 274.222,298.450 274.672,296.800 274.990 C 295.150 275.307,291.820 275.755,289.400 275.986 C 286.980 276.217,284.319 276.594,283.487 276.825 C 282.655 277.056,279.865 277.492,277.287 277.794 C 272.899 278.309,271.096 278.611,262.700 280.240 C 260.885 280.592,257.863 281.112,255.985 281.395 C 254.107 281.679,251.716 282.201,250.671 282.555 C 249.627 282.910,248.283 283.203,247.686 283.206 C 247.089 283.210,245.520 283.489,244.200 283.828 C 242.880 284.166,240.360 284.782,238.600 285.196 C 231.758 286.807,227.819 287.873,223.000 289.417 C 221.900 289.769,219.936 290.325,218.636 290.651 C 217.336 290.978,215.806 291.481,215.236 291.769 C 214.666 292.057,213.480 292.423,212.600 292.583 C 211.720 292.742,210.245 293.216,209.322 293.636 C 208.399 294.056,207.352 294.400,206.996 294.400 C 206.640 294.400,205.505 294.741,204.474 295.157 C 202.673 295.885,199.407 296.994,195.600 298.170 C 193.187 298.916,190.192 299.963,188.000 300.827 C 185.531 301.800,182.687 302.740,179.600 303.604 C 178.170 304.004,176.565 304.497,176.032 304.700 C 174.621 305.236,169.394 304.029,167.538 302.738 C 166.954 302.332,166.315 302.000,166.117 302.000 C 165.920 302.000,164.826 301.087,163.687 299.972 C 160.536 296.887,160.396 295.894,161.605 285.200 C 161.907 282.524,161.911 279.211,161.619 274.000 C 161.391 269.930,161.104 264.800,160.980 262.600 C 160.857 260.400,160.501 257.070,160.190 255.200 C 159.878 253.330,159.449 249.602,159.235 246.916 C 159.021 244.230,158.571 240.630,158.235 238.916 C 157.900 237.202,157.455 234.540,157.247 233.000 C 156.582 228.082,155.347 225.409,150.979 219.445 C 145.917 212.534,145.219 210.019,147.589 207.248 C 150.303 204.074,158.740 202.807,163.674 204.831 " stroke="none" fill="#f24033" fill-rule="evenodd"></path><path id="path1" d="M67.600 0.400 C 67.600 0.621,66.550 0.800,65.250 0.800 C 61.788 0.800,60.400 1.158,60.400 2.050 C 60.400 2.712,60.071 2.800,57.600 2.800 C 54.880 2.800,54.800 2.829,54.800 3.800 C 54.800 4.771,54.720 4.800,52.000 4.800 C 49.523 4.800,49.200 4.887,49.200 5.555 C 49.200 6.142,48.802 6.369,47.400 6.579 C 45.978 6.792,45.600 7.012,45.600 7.625 C 45.600 8.216,45.321 8.400,44.421 8.400 C 43.717 8.400,42.806 8.803,42.162 9.400 C 41.569 9.950,40.839 10.400,40.542 10.400 C 40.244 10.400,40.000 10.750,40.000 11.178 C 40.000 11.823,39.674 11.977,38.100 12.078 C 36.479 12.182,36.181 12.332,36.072 13.100 C 35.990 13.678,35.668 14.000,35.172 14.000 C 34.682 14.000,34.400 14.276,34.400 14.755 C 34.400 15.342,34.002 15.569,32.600 15.779 C 31.178 15.992,30.800 16.212,30.800 16.825 C 30.800 17.385,30.523 17.600,29.800 17.600 C 29.000 17.600,28.800 17.800,28.800 18.600 C 28.800 19.400,28.600 19.600,27.800 19.600 C 27.067 19.600,26.800 19.813,26.800 20.400 C 26.800 20.933,26.533 21.200,26.000 21.200 C 25.413 21.200,25.200 21.467,25.200 22.200 C 25.200 23.000,25.000 23.200,24.200 23.200 C 23.400 23.200,23.200 23.400,23.200 24.200 C 23.200 25.000,23.000 25.200,22.200 25.200 C 21.467 25.200,21.200 25.413,21.200 26.000 C 21.200 26.533,20.933 26.800,20.400 26.800 C 19.813 26.800,19.600 27.067,19.600 27.800 C 19.600 28.600,19.400 28.800,18.600 28.800 C 17.800 28.800,17.600 29.000,17.600 29.800 C 17.600 30.523,17.385 30.800,16.825 30.800 C 16.212 30.800,15.992 31.178,15.779 32.600 C 15.569 34.002,15.342 34.400,14.755 34.400 C 14.276 34.400,14.000 34.682,14.000 35.172 C 14.000 35.668,13.678 35.990,13.100 36.072 C 12.456 36.164,12.164 36.512,12.073 37.300 C 12.002 37.922,11.701 38.400,11.381 38.400 C 11.070 38.400,10.705 38.895,10.570 39.500 C 10.084 41.684,9.962 41.917,9.187 42.119 C 8.566 42.282,8.400 42.671,8.400 43.963 C 8.400 45.302,8.262 45.600,7.643 45.600 C 6.781 45.600,6.400 46.345,6.400 48.033 C 6.400 48.933,6.217 49.200,5.600 49.200 C 4.876 49.200,4.800 49.467,4.800 52.000 C 4.800 54.720,4.771 54.800,3.800 54.800 C 2.829 54.800,2.800 54.880,2.800 57.600 C 2.800 60.081,2.714 60.400,2.043 60.400 C 1.072 60.400,0.800 61.151,0.800 63.833 C 0.800 65.025,0.620 66.000,0.400 66.000 C 0.134 66.000,0.000 110.933,0.000 200.000 C 0.000 284.790,0.140 334.000,0.382 334.000 C 0.592 334.000,0.817 335.215,0.882 336.700 C 0.989 339.153,1.082 339.412,1.900 339.528 C 2.734 339.646,2.800 339.858,2.800 342.428 C 2.800 345.118,2.830 345.200,3.800 345.200 C 4.771 345.200,4.800 345.280,4.800 348.000 C 4.800 350.506,4.882 350.800,5.577 350.800 C 6.205 350.800,6.378 351.126,6.477 352.500 C 6.579 353.913,6.752 354.222,7.500 354.328 C 8.279 354.438,8.400 354.695,8.400 356.228 C 8.400 357.203,8.567 358.000,8.771 358.000 C 9.525 358.000,10.400 359.290,10.400 360.402 C 10.400 361.182,10.646 361.624,11.175 361.792 C 11.601 361.927,12.006 362.434,12.075 362.919 C 12.154 363.479,12.528 363.847,13.100 363.928 C 13.795 364.027,14.000 364.318,14.000 365.205 C 14.000 365.871,14.313 366.575,14.743 366.877 C 15.151 367.165,15.607 367.786,15.756 368.257 C 15.905 368.728,16.381 369.206,16.813 369.319 C 17.280 369.441,17.600 369.866,17.600 370.363 C 17.600 370.989,17.852 371.200,18.600 371.200 C 19.400 371.200,19.600 371.400,19.600 372.200 C 19.600 372.933,19.813 373.200,20.400 373.200 C 20.933 373.200,21.200 373.467,21.200 374.000 C 21.200 374.587,21.467 374.800,22.200 374.800 C 23.000 374.800,23.200 375.000,23.200 375.800 C 23.200 376.600,23.400 376.800,24.200 376.800 C 25.000 376.800,25.200 377.000,25.200 377.800 C 25.200 378.533,25.413 378.800,26.000 378.800 C 26.533 378.800,26.800 379.067,26.800 379.600 C 26.800 380.187,27.067 380.400,27.800 380.400 C 28.600 380.400,28.800 380.600,28.800 381.400 C 28.800 382.148,29.011 382.400,29.637 382.400 C 30.134 382.400,30.559 382.720,30.681 383.187 C 30.794 383.619,31.272 384.095,31.743 384.244 C 32.214 384.393,32.835 384.849,33.123 385.257 C 33.425 385.687,34.129 386.000,34.795 386.000 C 35.682 386.000,35.973 386.205,36.072 386.900 C 36.153 387.472,36.521 387.846,37.081 387.925 C 37.566 387.994,38.073 388.399,38.208 388.825 C 38.376 389.354,38.818 389.600,39.598 389.600 C 40.710 389.600,42.000 390.475,42.000 391.229 C 42.000 391.433,42.797 391.600,43.772 391.600 C 45.305 391.600,45.562 391.721,45.672 392.500 C 45.778 393.248,46.087 393.421,47.500 393.523 C 48.874 393.622,49.200 393.795,49.200 394.423 C 49.200 395.118,49.494 395.200,52.000 395.200 C 54.720 395.200,54.800 395.229,54.800 396.200 C 54.800 397.170,54.882 397.200,57.572 397.200 C 60.142 397.200,60.354 397.266,60.472 398.100 C 60.588 398.918,60.847 399.011,63.300 399.118 C 64.785 399.183,66.000 399.408,66.000 399.618 C 66.000 399.860,115.210 400.000,200.000 400.000 C 289.067 400.000,334.000 399.866,334.000 399.600 C 334.000 399.380,334.975 399.200,336.167 399.200 C 338.849 399.200,339.600 398.928,339.600 397.957 C 339.600 397.286,339.919 397.200,342.400 397.200 C 345.120 397.200,345.200 397.171,345.200 396.200 C 345.200 395.229,345.280 395.200,348.000 395.200 C 350.533 395.200,350.800 395.124,350.800 394.400 C 350.800 393.783,351.067 393.600,351.967 393.600 C 353.655 393.600,354.400 393.219,354.400 392.357 C 354.400 391.738,354.698 391.600,356.037 391.600 C 357.341 391.600,357.718 391.436,357.885 390.796 C 358.004 390.342,358.554 389.890,359.148 389.758 C 361.277 389.287,361.600 389.135,361.600 388.600 C 361.600 388.299,362.095 387.996,362.700 387.927 C 363.488 387.836,363.836 387.544,363.928 386.900 C 364.010 386.322,364.332 386.000,364.828 386.000 C 365.318 386.000,365.600 385.724,365.600 385.245 C 365.600 384.658,365.998 384.431,367.400 384.221 C 368.822 384.008,369.200 383.788,369.200 383.175 C 369.200 382.615,369.477 382.400,370.200 382.400 C 371.000 382.400,371.200 382.200,371.200 381.400 C 371.200 380.600,371.400 380.400,372.200 380.400 C 372.933 380.400,373.200 380.187,373.200 379.600 C 373.200 379.067,373.467 378.800,374.000 378.800 C 374.587 378.800,374.800 378.533,374.800 377.800 C 374.800 377.000,375.000 376.800,375.800 376.800 C 376.600 376.800,376.800 376.600,376.800 375.800 C 376.800 375.000,377.000 374.800,377.800 374.800 C 378.533 374.800,378.800 374.587,378.800 374.000 C 378.800 373.467,379.067 373.200,379.600 373.200 C 380.187 373.200,380.400 372.933,380.400 372.200 C 380.400 371.400,380.600 371.200,381.400 371.200 C 382.200 371.200,382.400 371.000,382.400 370.200 C 382.400 369.477,382.615 369.200,383.175 369.200 C 383.788 369.200,384.008 368.822,384.221 367.400 C 384.431 365.998,384.658 365.600,385.245 365.600 C 385.724 365.600,386.000 365.318,386.000 364.828 C 386.000 364.332,386.322 364.010,386.900 363.928 C 387.668 363.819,387.818 363.521,387.922 361.900 C 388.023 360.326,388.177 360.000,388.822 360.000 C 389.250 360.000,389.600 359.756,389.600 359.458 C 389.600 359.161,390.050 358.431,390.600 357.838 C 391.197 357.194,391.600 356.283,391.600 355.579 C 391.600 354.679,391.784 354.400,392.375 354.400 C 392.988 354.400,393.208 354.022,393.421 352.600 C 393.631 351.198,393.858 350.800,394.445 350.800 C 395.113 350.800,395.200 350.477,395.200 348.000 C 395.200 345.280,395.229 345.200,396.200 345.200 C 397.171 345.200,397.200 345.120,397.200 342.400 C 397.200 339.929,397.288 339.600,397.950 339.600 C 398.842 339.600,399.200 338.212,399.200 334.750 C 399.200 333.450,399.379 332.400,399.600 332.400 C 399.866 332.400,400.000 288.000,400.000 200.000 C 400.000 112.000,399.866 67.600,399.600 67.600 C 399.375 67.600,399.200 66.475,399.200 65.026 C 399.200 62.104,398.695 60.400,397.828 60.400 C 397.376 60.400,397.209 59.763,397.118 57.700 C 397.011 55.247,396.918 54.988,396.100 54.872 C 395.266 54.754,395.200 54.542,395.200 51.972 C 395.200 49.530,395.111 49.200,394.451 49.200 C 393.889 49.200,393.640 48.808,393.451 47.627 C 393.277 46.540,392.952 45.975,392.400 45.800 C 391.889 45.638,391.600 45.195,391.600 44.573 C 391.600 43.886,391.378 43.600,390.845 43.600 C 390.258 43.600,390.031 43.202,389.821 41.800 C 389.611 40.399,389.384 40.000,388.797 40.000 C 388.182 40.000,388.021 39.651,387.922 38.100 C 387.818 36.479,387.668 36.181,386.900 36.072 C 386.322 35.990,386.000 35.668,386.000 35.172 C 386.000 34.667,385.724 34.400,385.200 34.400 C 384.610 34.400,384.400 34.133,384.400 33.382 C 384.400 32.822,383.964 31.928,383.432 31.396 C 382.900 30.863,382.403 30.106,382.328 29.714 C 382.253 29.321,381.789 28.942,381.296 28.872 C 380.649 28.780,380.400 28.474,380.400 27.772 C 380.400 27.067,380.181 26.800,379.600 26.800 C 379.067 26.800,378.800 26.533,378.800 26.000 C 378.800 25.413,378.533 25.200,377.800 25.200 C 377.000 25.200,376.800 25.000,376.800 24.200 C 376.800 23.400,376.600 23.200,375.800 23.200 C 375.000 23.200,374.800 23.000,374.800 22.200 C 374.800 21.467,374.587 21.200,374.000 21.200 C 373.467 21.200,373.200 20.933,373.200 20.400 C 373.200 19.819,372.933 19.600,372.228 19.600 C 371.526 19.600,371.220 19.351,371.128 18.704 C 371.058 18.211,370.679 17.747,370.286 17.672 C 369.894 17.597,369.137 17.100,368.604 16.568 C 368.072 16.036,367.178 15.600,366.618 15.600 C 365.867 15.600,365.600 15.390,365.600 14.800 C 365.600 14.276,365.333 14.000,364.828 14.000 C 364.332 14.000,364.010 13.678,363.928 13.100 C 363.819 12.332,363.521 12.182,361.900 12.078 C 360.349 11.979,360.000 11.818,360.000 11.203 C 360.000 10.616,359.601 10.389,358.200 10.179 C 356.798 9.969,356.400 9.742,356.400 9.155 C 356.400 8.622,356.114 8.400,355.427 8.400 C 354.805 8.400,354.362 8.111,354.200 7.600 C 354.025 7.048,353.460 6.723,352.373 6.549 C 351.192 6.360,350.800 6.111,350.800 5.549 C 350.800 4.889,350.470 4.800,348.028 4.800 C 345.458 4.800,345.246 4.734,345.128 3.900 C 345.012 3.082,344.753 2.989,342.300 2.882 C 340.237 2.791,339.600 2.624,339.600 2.172 C 339.600 1.305,337.896 0.800,334.974 0.800 C 333.525 0.800,332.400 0.625,332.400 0.400 C 332.400 0.134,288.000 0.000,200.000 0.000 C 112.000 0.000,67.600 0.134,67.600 0.400 M221.400 37.898 C 222.280 38.220,224.996 38.617,227.435 38.780 C 230.295 38.972,232.356 39.320,233.235 39.760 C 233.986 40.136,235.784 40.593,237.231 40.775 C 238.677 40.958,240.387 41.374,241.031 41.699 C 241.674 42.025,243.171 42.415,244.358 42.567 C 245.545 42.719,247.203 43.193,248.042 43.621 C 248.881 44.050,249.980 44.406,250.484 44.413 C 250.988 44.419,252.300 44.868,253.400 45.409 C 254.500 45.950,255.739 46.394,256.153 46.396 C 256.567 46.398,257.467 46.741,258.153 47.158 C 258.839 47.574,260.155 48.039,261.077 48.189 C 261.999 48.339,262.962 48.714,263.217 49.021 C 263.472 49.328,264.286 49.692,265.026 49.831 C 265.766 49.970,266.572 50.326,266.818 50.621 C 267.063 50.917,267.925 51.373,268.732 51.635 C 269.539 51.897,270.678 52.446,271.262 52.856 C 271.846 53.265,272.523 53.600,272.767 53.600 C 273.375 53.600,280.808 57.523,281.800 58.367 C 282.240 58.741,283.050 59.266,283.600 59.533 C 286.436 60.912,294.418 66.146,297.400 68.582 C 298.500 69.481,300.210 70.750,301.200 71.402 C 302.190 72.054,303.371 72.950,303.825 73.394 C 304.278 73.837,306.348 75.728,308.425 77.596 C 313.201 81.892,318.065 86.751,322.405 91.565 C 324.272 93.636,326.163 95.706,326.606 96.165 C 327.050 96.624,327.946 97.810,328.598 98.800 C 329.250 99.790,330.517 101.500,331.414 102.600 C 332.311 103.700,333.395 105.122,333.822 105.760 C 334.250 106.397,334.870 107.316,335.200 107.800 C 335.530 108.284,336.141 109.203,336.557 109.840 C 336.974 110.478,337.624 111.453,338.001 112.008 C 338.379 112.562,338.815 113.417,338.971 113.908 C 339.126 114.398,339.431 114.800,339.647 114.800 C 339.864 114.800,340.299 115.418,340.615 116.174 C 340.931 116.930,341.619 118.182,342.144 118.955 C 342.669 119.729,344.307 122.845,345.785 125.881 C 347.262 128.916,348.636 131.670,348.838 132.000 C 349.040 132.330,349.406 133.050,349.652 133.600 C 349.897 134.150,350.525 135.503,351.049 136.606 C 351.572 137.709,352.001 138.969,352.001 139.406 C 352.002 139.843,352.341 140.755,352.755 141.433 C 353.169 142.112,353.632 143.406,353.785 144.310 C 353.938 145.214,354.309 146.158,354.609 146.408 C 354.910 146.657,355.367 147.875,355.624 149.115 C 355.881 150.354,356.336 151.741,356.635 152.198 C 356.934 152.654,357.352 154.248,357.563 155.741 C 357.774 157.233,358.153 158.702,358.403 159.004 C 358.654 159.306,359.040 160.861,359.262 162.459 C 359.483 164.057,359.945 165.907,360.289 166.571 C 360.662 167.293,361.039 169.555,361.227 172.189 C 361.399 174.615,361.843 177.410,362.213 178.400 C 363.682 182.335,363.684 217.595,362.215 221.767 C 361.835 222.848,361.383 225.773,361.212 228.265 C 361.041 230.757,360.686 233.056,360.422 233.373 C 360.159 233.690,359.698 235.358,359.397 237.080 C 359.097 238.802,358.571 240.748,358.228 241.405 C 357.885 242.062,357.596 243.230,357.585 244.000 C 357.574 244.770,357.286 246.120,356.944 247.000 C 356.603 247.880,356.052 249.590,355.721 250.800 C 355.390 252.010,354.890 253.270,354.610 253.600 C 354.330 253.930,353.973 254.920,353.817 255.800 C 353.661 256.680,353.188 257.961,352.766 258.647 C 352.345 259.333,352.000 260.299,352.000 260.793 C 352.000 261.287,351.660 262.346,351.244 263.146 C 350.539 264.500,347.079 271.743,346.058 274.000 C 345.809 274.550,345.429 275.270,345.213 275.600 C 344.996 275.930,344.549 276.830,344.218 277.600 C 343.523 279.216,342.958 280.142,341.700 281.728 C 341.205 282.351,340.800 283.052,340.800 283.286 C 340.800 283.519,340.035 284.906,339.100 286.368 C 338.165 287.831,337.220 289.309,337.000 289.654 C 335.258 292.383,334.002 294.156,332.242 296.372 C 331.119 297.787,329.930 299.337,329.600 299.818 C 329.270 300.299,328.523 301.392,327.939 302.246 C 327.356 303.101,325.826 304.898,324.539 306.241 C 323.253 307.583,321.031 310.013,319.602 311.641 C 316.358 315.336,315.336 316.358,311.641 319.602 C 310.013 321.031,307.583 323.253,306.241 324.539 C 304.898 325.826,303.101 327.356,302.246 327.939 C 301.392 328.523,300.299 329.270,299.818 329.600 C 299.337 329.930,297.787 331.119,296.372 332.242 C 294.156 334.002,292.383 335.258,289.654 337.000 C 289.309 337.220,287.831 338.165,286.368 339.100 C 284.906 340.035,283.519 340.800,283.286 340.800 C 283.052 340.800,282.351 341.205,281.728 341.700 C 280.142 342.958,279.216 343.523,277.600 344.218 C 276.830 344.549,275.930 344.996,275.600 345.213 C 275.270 345.429,274.550 345.809,274.000 346.058 C 271.743 347.079,264.500 350.539,263.146 351.244 C 262.346 351.660,261.287 352.000,260.793 352.000 C 260.299 352.000,259.333 352.345,258.647 352.766 C 257.961 353.188,256.680 353.661,255.800 353.817 C 254.920 353.973,253.930 354.330,253.600 354.610 C 253.270 354.890,252.010 355.390,250.800 355.721 C 249.590 356.052,247.880 356.603,247.000 356.944 C 246.120 357.286,244.767 357.573,243.994 357.582 C 243.221 357.592,241.961 357.933,241.194 358.339 C 240.427 358.746,238.726 359.202,237.414 359.353 C 236.102 359.504,234.482 359.909,233.814 360.254 C 233.089 360.628,230.813 361.010,228.167 361.202 C 225.728 361.378,222.848 361.835,221.767 362.215 C 217.627 363.673,182.297 363.693,178.400 362.240 C 177.410 361.871,174.615 361.421,172.189 361.241 C 169.621 361.050,167.282 360.656,166.589 360.298 C 165.935 359.959,164.319 359.552,163.000 359.393 C 161.680 359.234,159.845 358.765,158.922 358.352 C 157.999 357.938,156.649 357.592,155.922 357.582 C 155.195 357.573,153.880 357.286,153.000 356.944 C 152.120 356.603,150.410 356.052,149.200 355.721 C 147.990 355.390,146.730 354.883,146.400 354.593 C 146.070 354.304,145.080 353.941,144.200 353.785 C 143.320 353.630,142.039 353.165,141.353 352.751 C 140.667 352.338,139.703 352.000,139.212 352.000 C 138.720 352.000,137.481 351.566,136.459 351.036 C 135.437 350.505,134.150 349.877,133.600 349.639 C 133.050 349.401,132.330 349.049,132.000 348.856 C 131.670 348.664,130.140 347.926,128.600 347.216 C 127.060 346.506,125.530 345.761,125.200 345.560 C 124.582 345.183,123.453 344.646,122.400 344.226 C 122.070 344.095,120.990 343.452,120.000 342.798 C 119.010 342.144,117.435 341.253,116.500 340.818 C 115.565 340.384,114.800 339.854,114.800 339.641 C 114.800 339.428,114.398 339.126,113.908 338.971 C 113.417 338.815,112.562 338.377,112.008 337.998 C 111.453 337.618,110.010 336.652,108.800 335.851 C 105.032 333.355,104.654 333.084,102.600 331.412 C 101.500 330.516,99.790 329.250,98.800 328.598 C 97.810 327.946,96.625 327.050,96.166 326.606 C 94.975 325.454,88.564 319.644,86.187 317.562 C 85.080 316.593,83.190 314.661,81.987 313.268 C 80.784 311.876,78.900 309.783,77.800 308.617 C 73.856 304.437,72.582 302.957,71.408 301.192 C 70.753 300.206,69.481 298.500,68.582 297.400 C 66.146 294.418,60.912 286.436,59.533 283.600 C 59.266 283.050,58.741 282.240,58.367 281.800 C 57.523 280.808,53.600 273.375,53.600 272.767 C 53.600 272.523,53.264 271.846,52.852 271.262 C 52.441 270.678,51.968 269.750,51.800 269.200 C 51.632 268.650,51.181 267.750,50.797 267.200 C 50.413 266.650,49.976 265.627,49.824 264.928 C 49.673 264.228,49.304 263.452,49.006 263.205 C 48.707 262.957,48.338 262.014,48.185 261.110 C 48.032 260.206,47.569 258.912,47.155 258.233 C 46.741 257.555,46.397 256.640,46.389 256.200 C 46.381 255.760,45.932 254.500,45.391 253.400 C 44.850 252.300,44.406 251.037,44.404 250.594 C 44.402 250.151,44.057 249.148,43.638 248.366 C 43.219 247.584,42.746 245.876,42.587 244.572 C 42.428 243.267,42.034 241.681,41.711 241.047 C 41.389 240.413,40.961 238.738,40.761 237.324 C 40.561 235.910,40.108 234.196,39.755 233.514 C 39.353 232.736,38.996 230.545,38.798 227.637 C 38.616 224.981,38.188 222.231,37.796 221.200 C 36.761 218.483,36.763 181.543,37.798 178.800 C 38.171 177.810,38.623 174.999,38.801 172.553 C 39.000 169.816,39.374 167.623,39.774 166.851 C 40.130 166.161,40.577 164.361,40.767 162.852 C 40.957 161.342,41.387 159.678,41.724 159.153 C 42.060 158.629,42.463 157.120,42.619 155.800 C 42.775 154.480,43.240 152.732,43.652 151.916 C 44.063 151.100,44.400 150.018,44.400 149.513 C 44.400 149.007,44.850 147.748,45.400 146.715 C 45.950 145.682,46.400 144.445,46.400 143.966 C 46.400 143.486,46.745 142.533,47.166 141.847 C 47.588 141.161,48.064 139.880,48.224 139.000 C 48.385 138.120,48.850 136.971,49.258 136.446 C 49.666 135.921,50.000 135.246,50.000 134.946 C 50.000 134.485,51.232 131.830,52.480 129.600 C 52.665 129.270,53.099 128.370,53.445 127.600 C 55.103 123.914,57.682 119.038,58.486 118.072 C 58.793 117.703,59.263 116.950,59.529 116.400 C 59.795 115.850,60.543 114.590,61.191 113.600 C 61.840 112.610,62.644 111.260,62.979 110.600 C 63.314 109.940,64.221 108.590,64.994 107.600 C 65.768 106.610,66.522 105.530,66.670 105.200 C 66.819 104.870,67.314 104.211,67.770 103.735 C 68.227 103.259,68.906 102.449,69.281 101.935 C 72.692 97.249,74.207 95.276,74.940 94.564 C 75.413 94.104,77.328 92.034,79.197 89.964 C 83.454 85.246,85.246 83.454,89.964 79.197 C 92.034 77.328,94.104 75.413,94.564 74.940 C 95.276 74.207,97.249 72.692,101.935 69.281 C 102.449 68.906,103.259 68.227,103.735 67.770 C 104.211 67.314,104.870 66.819,105.200 66.670 C 105.530 66.522,106.610 65.768,107.600 64.994 C 108.590 64.221,109.940 63.314,110.600 62.979 C 111.260 62.644,112.610 61.840,113.600 61.191 C 114.590 60.543,115.850 59.795,116.400 59.529 C 116.950 59.263,117.703 58.793,118.072 58.486 C 119.038 57.682,123.914 55.103,127.600 53.445 C 128.370 53.099,129.270 52.665,129.600 52.480 C 131.830 51.232,134.485 50.000,134.946 50.000 C 135.246 50.000,135.921 49.666,136.446 49.258 C 136.971 48.850,138.120 48.385,139.000 48.224 C 139.880 48.064,141.161 47.588,141.847 47.166 C 142.533 46.745,143.486 46.400,143.966 46.400 C 144.445 46.400,145.682 45.950,146.715 45.400 C 147.748 44.850,149.007 44.400,149.513 44.400 C 150.018 44.400,151.100 44.063,151.916 43.652 C 152.732 43.240,154.480 42.775,155.800 42.619 C 157.120 42.463,158.629 42.060,159.153 41.724 C 159.678 41.387,161.342 40.957,162.852 40.767 C 164.361 40.577,166.161 40.130,166.851 39.774 C 167.626 39.373,169.806 39.003,172.553 38.806 C 174.999 38.631,177.540 38.248,178.200 37.955 C 180.913 36.751,218.133 36.702,221.400 37.898 M197.923 75.952 C 196.089 76.343,192.889 78.907,192.550 80.258 C 192.152 81.844,192.631 86.681,193.285 87.687 C 193.612 88.189,194.109 89.320,194.391 90.200 C 194.674 91.080,195.062 91.999,195.254 92.243 C 195.446 92.487,195.942 93.657,196.356 94.843 C 196.770 96.029,197.301 97.540,197.536 98.200 C 199.097 102.589,199.915 107.964,200.073 114.885 C 200.218 121.272,200.041 121.657,196.723 122.142 C 195.776 122.281,193.830 122.741,192.400 123.165 C 188.750 124.247,185.054 125.167,181.903 125.778 C 180.419 126.065,178.709 126.502,178.103 126.748 C 177.496 126.995,175.740 127.457,174.200 127.777 C 156.067 131.536,149.016 137.069,157.134 141.167 C 162.035 143.641,177.555 143.855,186.375 141.571 C 188.012 141.147,189.838 140.800,190.433 140.800 C 191.029 140.800,192.660 140.459,194.058 140.043 C 200.305 138.183,200.234 138.111,199.661 145.696 C 199.150 152.472,198.391 160.646,198.158 161.885 C 197.667 164.501,194.306 165.207,185.200 164.609 C 175.384 163.963,171.354 168.635,175.603 175.733 C 177.635 179.127,179.581 182.922,179.591 183.510 C 179.596 183.790,179.945 185.003,180.367 186.204 C 180.790 187.405,181.264 189.605,181.421 191.094 C 181.578 192.582,181.952 194.610,182.251 195.600 C 182.550 196.590,182.986 199.020,183.220 201.000 C 183.453 202.980,183.898 205.507,184.208 206.615 C 184.519 207.723,184.957 210.243,185.182 212.215 C 185.407 214.187,185.779 216.430,186.009 217.200 C 186.238 217.970,186.697 220.633,187.029 223.117 C 187.361 225.602,187.806 228.090,188.018 228.648 C 188.230 229.205,188.594 231.402,188.827 233.530 C 189.061 235.659,189.503 238.300,189.809 239.400 C 190.116 240.500,190.481 242.570,190.620 244.000 C 190.759 245.430,191.198 248.040,191.595 249.800 C 191.992 251.560,192.443 254.170,192.597 255.600 C 192.750 257.030,193.101 258.560,193.377 259.000 C 193.653 259.440,194.088 260.440,194.344 261.221 C 195.054 263.388,199.712 268.282,201.605 268.849 C 205.172 269.918,207.206 268.494,210.205 262.831 C 211.802 259.813,211.818 259.798,213.805 259.460 C 214.902 259.274,216.790 258.789,218.000 258.383 C 219.210 257.977,220.830 257.531,221.600 257.391 C 222.370 257.251,224.170 256.801,225.600 256.392 C 229.497 255.278,232.663 254.425,236.000 253.590 C 242.660 251.924,244.298 251.482,246.502 250.757 C 247.767 250.341,249.167 250.000,249.612 250.000 C 250.056 250.000,251.444 249.640,252.696 249.200 C 255.836 248.096,256.530 248.177,258.917 249.925 C 265.020 254.394,268.317 255.546,271.266 254.242 C 277.500 251.485,278.971 245.693,276.843 232.286 C 276.416 229.599,275.951 226.050,275.809 224.400 C 275.667 222.750,275.302 220.410,274.998 219.200 C 274.695 217.990,274.330 215.830,274.187 214.400 C 274.045 212.970,273.600 210.540,273.199 209.000 C 272.797 207.460,272.260 204.692,272.005 202.849 C 271.750 201.006,271.370 199.048,271.161 198.497 C 270.952 197.947,270.595 195.689,270.368 193.479 C 270.142 191.268,269.666 188.276,269.311 186.830 C 268.367 182.982,268.371 168.927,269.317 164.874 C 271.265 156.530,269.635 150.296,264.877 147.891 C 264.284 147.592,263.440 147.155,263.000 146.921 C 257.214 143.835,247.002 143.126,241.528 145.430 C 240.261 145.964,239.013 146.400,238.756 146.400 C 238.498 146.400,237.548 146.736,236.644 147.148 C 234.009 148.346,230.697 149.650,229.400 149.999 C 228.740 150.177,227.487 150.700,226.615 151.161 C 225.744 151.623,224.775 152.000,224.463 152.000 C 224.150 152.000,223.292 152.372,222.556 152.827 C 221.804 153.292,220.731 153.599,220.108 153.527 L 219.000 153.400 219.057 149.000 C 219.127 143.579,220.004 134.044,220.459 133.763 C 220.887 133.499,224.160 132.556,228.000 131.592 C 232.802 130.386,235.658 129.607,237.800 128.919 C 238.900 128.566,240.790 128.048,242.000 127.769 C 243.210 127.489,245.010 126.990,246.000 126.659 C 246.990 126.328,249.420 125.569,251.400 124.971 C 253.380 124.374,255.810 123.600,256.800 123.253 C 257.790 122.905,259.320 122.405,260.200 122.141 C 270.704 118.992,274.000 116.293,274.000 110.841 C 274.000 100.814,260.997 96.856,247.689 102.832 C 246.748 103.254,245.776 103.600,245.529 103.600 C 245.058 103.600,240.854 105.502,238.500 106.780 C 237.288 107.438,230.324 110.668,227.277 111.986 C 222.259 114.155,221.494 112.940,223.140 105.416 C 223.575 103.427,224.124 100.720,224.360 99.400 C 224.596 98.080,225.061 96.016,225.394 94.813 C 227.426 87.475,224.916 83.044,216.368 78.882 C 214.921 78.177,213.549 77.600,213.319 77.600 C 213.090 77.600,212.042 77.220,210.992 76.755 C 208.898 75.829,200.829 75.333,197.923 75.952 M117.936 97.706 C 115.120 100.195,115.119 100.203,115.165 109.888 C 115.213 119.772,114.705 128.077,113.846 131.483 C 113.525 132.757,113.063 135.126,112.820 136.747 C 112.577 138.367,112.208 140.011,112.000 140.400 C 111.792 140.789,111.429 142.433,111.193 144.053 C 110.957 145.674,110.507 147.630,110.191 148.400 C 109.876 149.170,109.357 150.880,109.038 152.200 C 108.719 153.520,108.164 155.500,107.806 156.600 C 107.448 157.700,106.632 160.220,105.992 162.200 C 105.352 164.180,104.391 166.970,103.855 168.400 C 101.270 175.304,101.398 174.988,99.495 179.200 C 96.396 186.062,94.160 190.664,91.625 195.400 C 90.565 197.380,88.936 200.440,88.006 202.200 C 87.075 203.960,85.422 206.930,84.331 208.800 C 83.241 210.670,81.983 212.920,81.537 213.800 C 81.091 214.680,80.219 216.300,79.601 217.400 C 77.417 221.283,74.093 228.226,73.404 230.343 C 72.308 233.713,74.842 236.043,77.678 234.271 C 78.185 233.954,79.101 233.579,79.714 233.436 C 81.463 233.030,85.383 230.110,89.157 226.400 C 92.484 223.130,94.164 221.103,100.878 212.256 C 102.571 210.025,104.233 207.840,104.572 207.400 C 105.861 205.725,107.437 203.579,108.400 202.187 C 108.950 201.392,109.678 200.439,110.017 200.071 C 110.357 199.702,111.332 198.365,112.184 197.100 C 114.037 194.349,114.241 194.302,114.807 196.500 C 115.047 197.435,115.495 199.010,115.801 200.000 C 116.107 200.990,116.471 202.700,116.610 203.800 C 116.749 204.900,117.115 206.714,117.422 207.830 C 117.730 208.947,118.254 211.801,118.587 214.174 C 118.920 216.546,119.368 219.143,119.582 219.944 C 119.797 220.745,120.167 223.920,120.405 227.000 C 120.643 230.080,121.015 233.680,121.231 235.000 C 121.447 236.320,121.885 243.412,122.204 250.759 C 122.523 258.106,122.969 265.936,123.194 268.159 C 123.419 270.382,123.783 276.970,124.003 282.800 C 124.669 300.484,126.421 305.090,136.369 315.315 C 141.116 320.194,145.427 320.780,148.747 316.999 C 150.654 314.828,150.791 304.135,149.033 294.788 C 148.724 293.145,148.351 290.000,148.205 287.800 C 148.059 285.600,147.608 281.640,147.204 279.000 C 146.799 276.360,146.349 272.400,146.205 270.200 C 146.060 268.000,145.699 265.030,145.403 263.600 C 145.106 262.170,144.662 258.570,144.415 255.600 C 144.168 252.630,143.789 249.534,143.573 248.720 C 143.357 247.906,142.919 244.522,142.600 241.200 C 142.281 237.878,141.845 234.494,141.632 233.680 C 141.419 232.866,141.052 230.040,140.817 227.400 C 140.582 224.760,140.127 221.340,139.806 219.800 C 139.485 218.260,139.036 215.015,138.809 212.590 C 138.582 210.164,138.216 207.554,137.997 206.790 C 137.778 206.025,137.333 203.129,137.010 200.354 C 136.686 197.579,136.248 194.851,136.035 194.292 C 135.822 193.732,135.536 192.133,135.399 190.737 C 134.774 184.392,132.161 179.033,127.736 175.028 C 125.775 173.253,125.439 171.445,126.638 169.126 C 126.990 168.447,127.601 166.970,127.997 165.845 C 128.393 164.720,129.193 162.540,129.776 161.000 C 130.359 159.460,131.169 157.300,131.576 156.200 C 131.983 155.100,132.798 152.940,133.386 151.400 C 135.596 145.616,136.457 143.343,137.176 141.400 C 137.583 140.300,138.382 138.184,138.952 136.698 C 141.214 130.795,142.705 126.836,144.186 122.800 C 144.549 121.810,145.215 120.228,145.666 119.285 C 147.916 114.579,146.325 107.582,142.069 103.456 C 140.449 101.886,139.843 101.470,137.000 99.979 C 136.120 99.517,134.950 98.886,134.400 98.576 C 133.850 98.266,133.092 98.009,132.715 98.006 C 132.338 98.003,131.116 97.640,130.000 97.200 C 126.363 95.766,119.820 96.041,117.936 97.706 M237.713 165.348 C 240.206 166.411,242.047 169.961,242.615 174.800 C 242.757 176.010,243.216 178.339,243.636 179.975 C 244.056 181.612,244.404 183.502,244.408 184.175 C 244.413 184.849,244.687 186.570,245.016 188.000 C 245.346 189.430,245.885 192.490,246.214 194.800 C 246.543 197.110,246.988 199.540,247.204 200.200 C 247.420 200.861,247.871 203.471,248.206 206.000 C 248.541 208.530,249.078 211.770,249.399 213.200 C 249.720 214.630,249.990 216.520,249.998 217.400 C 250.006 218.280,250.349 220.620,250.761 222.600 C 252.460 230.771,252.278 233.598,250.051 233.601 C 248.193 233.604,238.050 236.446,234.800 237.875 C 234.030 238.213,232.590 238.727,231.600 239.016 C 229.302 239.687,225.237 241.114,224.200 241.614 C 223.348 242.025,220.086 243.169,216.277 244.394 C 214.999 244.805,213.730 245.326,213.457 245.553 C 212.245 246.559,209.653 246.555,209.424 245.548 C 207.980 239.196,207.031 233.018,207.365 232.148 C 207.622 231.476,210.358 230.223,213.200 229.473 C 214.410 229.154,215.940 228.702,216.600 228.469 C 217.260 228.235,219.420 227.567,221.400 226.984 C 223.380 226.402,225.900 225.588,227.000 225.177 C 228.100 224.765,229.873 224.237,230.941 224.003 C 232.008 223.770,233.358 223.335,233.941 223.037 C 234.523 222.740,235.603 222.366,236.340 222.208 C 240.428 221.327,242.469 218.491,241.035 215.684 C 237.772 209.299,229.076 208.623,215.000 213.661 C 214.340 213.897,212.900 214.337,211.800 214.640 C 210.700 214.942,209.155 215.475,208.367 215.825 C 205.470 217.111,204.249 216.561,203.877 213.800 C 203.699 212.480,203.191 209.841,202.747 207.936 C 201.415 202.217,202.070 201.266,208.208 200.003 C 209.524 199.732,210.960 199.319,211.400 199.086 C 211.840 198.853,213.190 198.436,214.400 198.161 C 215.610 197.885,217.410 197.384,218.400 197.046 C 219.390 196.709,221.820 195.965,223.800 195.394 C 225.780 194.823,228.210 194.083,229.200 193.750 C 230.190 193.417,231.735 192.932,232.633 192.672 C 238.584 190.951,238.751 185.336,232.937 182.401 C 230.376 181.108,222.963 181.076,218.800 182.341 C 217.370 182.775,215.573 183.260,214.806 183.418 C 214.039 183.576,213.049 183.937,212.606 184.220 C 212.163 184.503,210.995 184.947,210.012 185.207 C 209.028 185.466,207.863 185.931,207.423 186.239 C 206.982 186.548,206.347 186.802,206.011 186.804 C 205.675 186.806,204.429 187.260,203.242 187.812 C 199.627 189.495,199.079 188.922,198.176 182.511 C 197.411 177.083,197.531 176.568,199.704 175.938 C 200.637 175.667,201.760 175.228,202.200 174.962 C 202.640 174.696,203.630 174.349,204.400 174.191 C 205.170 174.033,206.315 173.640,206.945 173.318 C 207.575 172.996,209.015 172.491,210.145 172.196 C 211.275 171.901,212.740 171.377,213.400 171.032 C 214.060 170.687,214.960 170.400,215.400 170.394 C 215.840 170.387,216.949 170.043,217.863 169.627 C 218.778 169.212,220.530 168.664,221.756 168.409 C 222.983 168.154,224.082 167.790,224.200 167.600 C 224.318 167.410,225.446 167.044,226.707 166.788 C 227.968 166.531,229.990 165.985,231.200 165.574 C 233.835 164.679,235.969 164.605,237.713 165.348 M155.000 204.030 C 144.948 205.729,143.894 209.771,150.979 219.445 C 155.347 225.409,156.582 228.082,157.247 233.000 C 157.455 234.540,157.900 237.202,158.235 238.916 C 158.571 240.630,159.021 244.230,159.235 246.916 C 159.449 249.602,159.878 253.330,160.190 255.200 C 160.501 257.070,160.857 260.400,160.980 262.600 C 161.104 264.800,161.391 269.930,161.619 274.000 C 161.911 279.211,161.907 282.524,161.605 285.200 C 160.396 295.894,160.536 296.887,163.687 299.972 C 164.826 301.087,165.920 302.000,166.117 302.000 C 166.315 302.000,166.954 302.332,167.538 302.738 C 169.394 304.029,174.621 305.236,176.032 304.700 C 176.565 304.497,178.170 304.004,179.600 303.604 C 182.687 302.740,185.531 301.800,188.000 300.827 C 190.192 299.963,193.187 298.916,195.600 298.170 C 199.407 296.994,202.673 295.885,204.474 295.157 C 205.505 294.741,206.640 294.400,206.996 294.400 C 207.352 294.400,208.399 294.056,209.322 293.636 C 210.245 293.216,211.720 292.742,212.600 292.583 C 213.480 292.423,214.666 292.057,215.236 291.769 C 215.806 291.481,217.336 290.978,218.636 290.651 C 219.936 290.325,221.900 289.769,223.000 289.417 C 227.819 287.873,231.758 286.807,238.600 285.196 C 240.360 284.782,242.880 284.166,244.200 283.828 C 245.520 283.489,247.089 283.210,247.686 283.206 C 248.283 283.203,249.627 282.910,250.671 282.555 C 251.716 282.201,254.107 281.679,255.985 281.395 C 257.863 281.112,260.885 280.592,262.700 280.240 C 271.096 278.611,272.899 278.309,277.287 277.794 C 279.865 277.492,282.655 277.056,283.487 276.825 C 284.319 276.594,286.980 276.217,289.400 275.986 C 291.820 275.755,295.150 275.307,296.800 274.990 C 298.450 274.672,302.222 274.222,305.182 273.990 C 308.141 273.757,311.326 273.396,312.257 273.187 C 313.189 272.978,316.041 272.624,318.596 272.400 C 333.994 271.050,333.997 256.257,318.600 251.709 C 317.500 251.384,316.347 250.912,316.039 250.659 C 315.086 249.880,303.680 250.047,302.195 250.861 C 301.532 251.225,300.092 251.654,298.995 251.815 C 297.898 251.975,296.190 252.417,295.200 252.796 C 294.210 253.176,292.590 253.609,291.600 253.759 C 290.610 253.908,288.720 254.365,287.400 254.774 C 286.080 255.182,284.100 255.705,283.000 255.935 C 280.577 256.442,276.771 257.380,273.000 258.400 C 268.955 259.494,265.397 260.355,262.200 261.016 C 260.660 261.333,258.963 261.786,258.429 262.021 C 257.895 262.256,256.545 262.614,255.429 262.818 C 254.313 263.022,252.050 263.539,250.400 263.968 C 248.750 264.397,245.600 265.194,243.400 265.739 C 241.200 266.284,238.590 266.941,237.600 267.198 C 236.610 267.456,234.360 267.984,232.600 268.372 C 230.840 268.760,228.539 269.375,227.486 269.739 C 226.433 270.102,225.135 270.400,224.600 270.400 C 224.065 270.400,222.767 270.698,221.714 271.061 C 220.661 271.425,218.315 272.055,216.500 272.461 C 209.574 274.012,206.534 274.757,204.636 275.368 C 203.556 275.715,202.252 276.000,201.738 276.000 C 201.224 276.000,199.767 276.344,198.502 276.765 C 197.236 277.186,195.480 277.645,194.600 277.785 C 193.720 277.925,191.920 278.374,190.600 278.784 C 184.532 280.667,183.210 280.142,183.194 275.840 C 183.190 274.938,182.927 273.120,182.609 271.800 C 182.290 270.480,181.831 267.420,181.588 265.000 C 181.345 262.580,180.891 259.475,180.579 258.099 C 180.267 256.724,179.820 253.541,179.586 251.027 C 179.352 248.513,178.986 245.859,178.772 245.128 C 178.558 244.398,178.113 241.370,177.783 238.400 C 177.453 235.430,177.013 232.460,176.805 231.800 C 176.597 231.140,176.238 228.620,176.008 226.200 C 175.222 217.941,173.280 211.786,170.576 208.980 C 169.098 207.448,166.597 205.600,166.001 205.600 C 165.752 205.600,164.705 205.254,163.674 204.831 C 161.424 203.908,157.737 203.567,155.000 204.030 " stroke="none" fill="#fcfbfb" fill-rule="evenodd"></path></g></svg>