<?xml version="1.0" standalone="no"?><!DOCTYPE svg PUBLIC "-//W3C//DTD SVG 1.1//EN" "http://www.w3.org/Graphics/SVG/1.1/DTD/svg11.dtd"><svg t="1707718645147" class="icon" viewBox="0 0 1024 1024" version="1.1" xmlns="http://www.w3.org/2000/svg" p-id="57139" xmlns:xlink="http://www.w3.org/1999/xlink" width="48" height="48"><path d="M208.2816 0h607.4368A208.2816 208.2816 0 0 1 1024 208.2816v607.4368A208.2816 208.2816 0 0 1 815.7184 1024H208.2816A208.2816 208.2816 0 0 1 0 815.7184V208.2816A208.2816 208.2816 0 0 1 208.2816 0z" fill="#1772F6" p-id="57140"></path><path d="M460.8 359.4752H287.1296v311.7568h42.5472l5.6832 37.5296 57.5488-37.5296H460.8V359.424z m-73.4208 272.7936l-33.792 22.016-3.2768-22.016h-24.32V398.1824h95.5904v234.0864h-34.2016zM255.0784 499.712H192c0-6.8608 0.4608-13.9264 0.512-21.248V398.1824h72.0384v-18.944c0-5.2736-2.048-10.2912-5.6832-13.9776a19.0976 19.0976 0 0 0-13.6704-5.7856H132.7616l1.1776-3.7376C137.728 343.808 150.1696 307.2 150.1696 307.2a58.624 58.624 0 0 0-33.9968 10.24c-8.0384 5.7856-12.8512 9.9328-19.3536 28.3648-7.4752 21.1968-14.0288 41.6768-18.432 53.9136-6.8096 19.456-23.2448 53.76-23.2448 53.76 12.3392-0.1536 24.4736-3.1744 35.5328-8.8576 15.7696-8.704 23.6544-21.9136 28.9792-42.0864l1.28-4.4032h32.8704v80.2816c0 7.3216-0.6144 14.336-1.024 21.3504H94.72a37.2736 37.2736 0 0 0-26.7264 11.264 39.168 39.168 0 0 0-11.008 27.392H148.992a266.496 266.496 0 0 1-10.9568 53.248 247.4496 247.4496 0 0 1-42.496 76.9536c-13.824 15.4624-28.672 30.0032-44.3392 43.4688 0 0 44.1344 17.152 76.4928-13.9264 19.5584-18.8416 37.12-55.6544 45.568-83.6096 7.5776-24.832 12.8512-50.432 15.7696-76.288h84.1216v-20.0192a18.6368 18.6368 0 0 0-5.2736-13.1072 17.7152 17.7152 0 0 0-12.8-5.4272z" fill="#FFFFFF" p-id="57141"></path><path d="M188.0064 576.1536L153.6 598.4768l74.9568 111.6672c5.1712-10.3936 8.5504-21.6576 10.0352-33.1776a47.4112 47.4112 0 0 0-4.1984-32.4608l-46.3872-68.352z m598.016-67.072V368.9984a32925.696 32925.696 0 0 0 140.4416-7.2192l12.6464-0.768c5.7856-5.9392 13.2096-35.84 10.24-45.2096-1.024-3.7376-3.1232-9.984-9.472-8.3456a492.544 492.544 0 0 1-63.6416 10.9056c-41.1648 4.8128-59.0848 6.0416-116.1728 10.24-99.9424 7.2704-189.1328 10.752-189.1328 10.752a38.0928 38.0928 0 0 0 39.7312 38.0416c33.9456-1.4336 83.3536-3.7376 133.9392-6.144v137.8304h-190.208a39.5776 39.5776 0 0 0 39.7824 39.68h150.4256v105.984c0 13.2608-6.912 17.8176-18.3296 18.1248h-58.368a62.2592 62.2592 0 0 0 33.3312 39.1168c13.0048 4.352 26.7776 5.7856 40.3456 4.1472 20.2752-1.024 44.1856-12.3392 44.1856-53.4528v-113.92h167.8848a19.1488 19.1488 0 0 0 19.1488-19.0976v-20.5824h-186.7776z" fill="#FFFFFF" p-id="57142"></path><path d="M653.4144 420.864a41.5232 41.5232 0 0 0-23.3984-9.3696c-9.4208-1.024-19.0976 0.512-26.8288 4.096l-5.8368 2.7648 66.048 59.4944 34.816-16.4352-44.8-40.4992z m228.864-1.9456l-48.5376 41.6768 34.816 16.896 70.144-60.2624-5.8368-2.816a50.8928 50.8928 0 0 0-26.7776-4.608 42.8032 42.8032 0 0 0-23.8592 9.1136z" fill="#FFFFFF" p-id="57143"></path></svg>