<svg id="svg" version="1.1" xmlns="http://www.w3.org/2000/svg" xmlns:xlink="http://www.w3.org/1999/xlink" width="48" height="48" viewBox="0 0 400 400"><g id="svgg"><path id="path0" d="M231.769 84.453 C 229.992 86.839,227.660 90.364,226.644 92.200 C 226.279 92.860,225.259 94.660,224.377 96.200 C 222.389 99.672,219.473 105.708,218.834 107.673 C 218.471 108.790,218.095 109.193,217.278 109.340 C 216.685 109.447,214.149 109.858,211.643 110.253 C 209.137 110.648,206.858 111.199,206.580 111.477 C 205.457 112.601,205.271 131.070,206.356 133.755 L 206.822 134.910 227.511 134.637 C 248.424 134.360,264.840 134.765,266.393 135.597 C 267.969 136.440,268.584 149.988,267.113 151.459 C 264.984 153.587,199.537 155.697,197.541 153.701 C 196.361 152.521,195.501 127.706,196.352 119.416 C 196.888 114.202,196.868 114.164,193.176 113.555 C 188.114 112.719,173.574 113.283,170.520 114.434 C 168.821 115.073,167.748 130.156,168.216 146.800 C 168.331 150.870,168.599 162.210,168.812 172.000 C 169.025 181.790,169.377 191.690,169.595 194.000 C 169.812 196.310,170.159 202.700,170.365 208.200 C 170.900 222.419,172.530 244.294,173.827 254.646 C 174.248 258.012,175.243 258.249,193.800 259.392 C 199.080 259.718,205.830 260.167,208.800 260.391 C 213.786 260.768,221.335 261.054,251.400 262.010 C 257.560 262.206,268.401 262.374,275.491 262.383 L 288.382 262.400 288.958 261.500 C 289.797 260.189,290.337 255.706,290.801 246.200 C 291.027 241.580,291.386 234.290,291.600 230.000 C 292.024 221.509,292.131 199.531,291.756 198.133 C 291.394 196.782,288.339 195.924,282.000 195.393 C 280.350 195.255,277.290 194.894,275.200 194.592 C 273.110 194.291,269.420 193.935,267.000 193.802 C 264.580 193.669,259.394 193.292,255.477 192.964 C 246.002 192.171,213.610 191.967,212.729 192.695 C 211.531 193.685,211.023 199.493,211.153 210.700 C 211.223 216.769,209.688 216.233,227.841 216.526 C 253.032 216.934,267.135 217.784,268.333 218.968 C 269.787 220.405,268.807 234.332,267.156 235.700 C 265.957 236.694,241.867 236.823,216.000 235.974 C 200.505 235.466,200.637 235.519,200.223 229.700 C 200.085 227.775,199.712 224.130,199.393 221.600 C 199.074 219.070,198.626 214.030,198.398 210.400 C 198.170 206.770,197.812 202.283,197.602 200.428 C 197.087 195.884,196.613 180.401,196.947 179.068 L 197.215 178.000 214.908 177.998 C 224.638 177.997,236.380 177.815,241.000 177.594 C 245.620 177.374,255.250 176.927,262.400 176.602 C 269.550 176.277,276.570 175.843,278.000 175.638 C 279.430 175.434,282.451 175.142,284.713 174.989 C 288.727 174.718,288.839 174.684,289.423 173.556 C 291.644 169.261,291.216 113.456,288.945 111.185 C 287.737 109.977,281.216 109.505,264.000 109.379 C 254.430 109.309,246.465 109.240,246.300 109.226 C 245.674 109.172,246.058 107.992,247.824 104.553 C 250.182 99.957,253.200 93.062,253.200 92.267 C 253.200 90.132,240.217 83.028,235.384 82.518 L 233.368 82.305 231.769 84.453 M120.513 121.666 C 109.846 123.006,103.178 135.733,107.341 146.807 C 111.307 157.356,128.265 160.210,138.675 152.081 C 143.470 148.336,144.802 135.946,141.091 129.600 C 138.184 124.627,129.661 120.513,123.800 121.253 C 123.580 121.281,122.101 121.466,120.513 121.666 M98.320 167.266 C 97.376 168.560,95.868 173.339,95.375 176.600 C 95.242 177.480,94.872 179.029,94.553 180.043 C 93.717 182.702,93.609 189.994,94.400 190.412 C 94.730 190.587,96.440 191.012,98.200 191.357 C 99.960 191.702,102.840 192.271,104.600 192.621 C 106.360 192.971,109.510 193.501,111.600 193.799 C 121.658 195.231,121.494 195.063,118.637 201.000 C 117.790 202.760,116.867 204.740,116.587 205.400 C 116.306 206.060,115.710 207.410,115.262 208.400 C 114.480 210.125,113.791 211.930,112.587 215.400 C 112.282 216.280,111.569 218.260,111.004 219.800 C 110.062 222.363,109.316 224.624,107.167 231.428 C 105.829 235.664,106.647 236.391,115.664 238.975 C 116.690 239.268,117.744 239.642,118.006 239.804 C 118.545 240.137,122.816 241.279,126.991 242.207 C 130.058 242.889,131.600 243.696,131.600 244.620 C 131.600 247.740,124.053 265.852,118.590 275.844 C 117.331 278.147,117.447 279.022,119.090 279.609 C 119.700 279.827,120.678 280.274,121.262 280.603 C 121.846 280.931,122.538 281.200,122.801 281.200 C 123.064 281.200,123.846 281.462,124.540 281.783 C 125.233 282.103,127.427 282.900,129.414 283.552 C 131.402 284.205,133.472 284.915,134.014 285.130 C 135.022 285.531,139.521 286.887,144.704 288.353 C 146.301 288.805,148.821 289.522,150.304 289.946 C 152.936 290.700,155.331 291.344,160.200 292.608 C 161.520 292.950,163.819 293.486,165.308 293.797 C 166.798 294.108,168.159 294.451,168.333 294.559 C 168.617 294.734,171.939 295.461,179.600 297.025 C 183.875 297.898,186.412 298.434,190.074 299.237 C 191.984 299.657,193.953 300.000,194.450 300.000 C 194.946 300.000,197.253 300.351,199.576 300.781 C 210.010 302.709,219.051 303.824,219.814 303.277 C 221.944 301.750,229.133 289.748,232.199 282.600 C 232.482 281.940,233.081 280.590,233.529 279.600 C 235.714 274.777,236.398 275.045,219.800 274.238 C 212.100 273.864,203.820 273.396,201.400 273.197 C 191.851 272.411,186.774 271.933,181.600 271.331 C 178.630 270.985,174.760 270.560,173.000 270.386 C 169.190 270.008,161.065 268.578,157.216 267.608 C 154.325 266.879,153.804 265.501,155.325 262.600 C 155.555 262.160,155.978 260.900,156.265 259.800 C 156.551 258.700,157.134 256.540,157.559 255.000 C 159.605 247.589,160.538 244.000,160.992 241.800 C 161.263 240.480,161.679 238.680,161.914 237.800 C 162.150 236.920,162.536 235.030,162.773 233.600 C 163.009 232.170,163.309 230.608,163.440 230.130 C 163.860 228.594,160.434 226.900,150.200 223.582 C 147.340 222.655,144.100 221.603,143.000 221.245 C 140.313 220.370,140.308 219.830,142.946 214.563 C 144.147 212.163,145.607 209.120,146.190 207.800 C 146.773 206.480,147.418 205.088,147.624 204.707 C 147.829 204.326,148.333 203.156,148.742 202.107 C 149.152 201.058,150.323 198.169,151.344 195.688 C 155.465 185.673,157.680 178.071,156.700 177.309 C 155.778 176.593,147.505 174.264,143.400 173.566 C 142.300 173.379,140.320 172.966,139.000 172.649 C 137.680 172.332,134.350 171.681,131.600 171.203 C 128.850 170.724,124.755 169.988,122.501 169.566 C 120.246 169.145,117.906 168.800,117.301 168.800 C 116.695 168.800,114.400 168.457,112.200 168.038 C 110.000 167.619,106.580 167.085,104.600 166.853 C 102.620 166.620,100.616 166.317,100.147 166.180 C 99.489 165.988,99.070 166.237,98.320 167.266 " stroke="none" fill="#faf8f8" fill-rule="evenodd"></path><path id="path1" d="M72.401 0.295 C 71.411 0.384,70.330 0.701,69.999 1.001 C 69.667 1.301,68.407 1.676,67.198 1.834 C 65.989 1.993,64.640 2.348,64.200 2.623 C 63.760 2.898,62.645 3.244,61.723 3.393 C 60.801 3.541,59.838 3.914,59.583 4.221 C 59.328 4.528,58.463 4.900,57.660 5.047 C 56.857 5.195,55.771 5.650,55.246 6.058 C 54.721 6.466,53.978 6.800,53.595 6.800 C 53.212 6.800,52.683 7.058,52.421 7.374 C 52.159 7.690,51.405 8.067,50.745 8.212 C 50.086 8.357,49.453 8.717,49.340 9.013 C 49.226 9.309,48.610 9.666,47.971 9.806 C 47.332 9.947,46.695 10.246,46.556 10.472 C 46.416 10.697,45.739 11.139,45.051 11.454 C 44.363 11.768,43.327 12.335,42.749 12.713 C 38.556 15.454,36.838 16.710,35.738 17.833 C 35.043 18.542,34.143 19.233,33.738 19.367 C 33.332 19.502,31.948 20.600,30.663 21.806 C 29.378 23.013,28.270 24.000,28.201 24.000 C 27.995 24.000,24.000 27.912,24.000 28.114 C 24.000 28.216,23.351 28.997,22.558 29.850 C 21.764 30.702,20.429 32.318,19.590 33.439 C 18.751 34.560,17.817 35.730,17.513 36.039 C 16.643 36.924,14.400 40.304,14.400 40.729 C 14.400 40.941,14.157 41.208,13.861 41.321 C 13.564 41.435,12.824 42.489,12.216 43.664 C 11.608 44.839,10.875 46.070,10.586 46.400 C 10.298 46.730,9.942 47.482,9.795 48.071 C 9.648 48.660,9.291 49.233,9.002 49.344 C 8.712 49.455,8.357 50.086,8.212 50.745 C 8.067 51.405,7.690 52.159,7.374 52.421 C 7.058 52.683,6.800 53.212,6.800 53.595 C 6.800 53.978,6.440 54.750,6.000 55.309 C 5.560 55.869,5.200 56.663,5.200 57.074 C 5.200 57.485,4.932 58.204,4.605 58.671 C 4.278 59.138,3.743 60.549,3.415 61.808 C 3.087 63.066,2.659 64.299,2.463 64.548 C 2.267 64.796,1.980 65.989,1.826 67.198 C 1.672 68.407,1.243 69.731,0.873 70.140 C 0.246 70.833,0.192 79.462,0.078 196.942 C -0.044 323.029,-0.001 329.141,1.016 330.159 C 1.315 330.458,1.679 331.669,1.826 332.851 C 1.972 334.033,2.314 335.360,2.586 335.800 C 2.857 336.240,3.209 337.299,3.368 338.154 C 3.527 339.009,4.004 340.356,4.428 341.148 C 4.853 341.940,5.200 342.884,5.200 343.245 C 5.200 343.606,5.458 344.117,5.774 344.379 C 6.090 344.641,6.462 345.370,6.600 346.000 C 6.738 346.630,7.110 347.359,7.426 347.621 C 7.742 347.883,8.000 348.381,8.000 348.727 C 8.000 349.074,8.409 349.997,8.910 350.778 C 10.488 353.244,10.801 353.769,11.421 355.000 C 11.753 355.660,12.335 356.666,12.713 357.236 C 13.091 357.806,14.194 359.471,15.165 360.936 C 16.135 362.401,17.080 363.600,17.265 363.600 C 17.449 363.600,17.600 363.876,17.600 364.213 C 17.600 364.549,17.846 364.920,18.147 365.035 C 18.448 365.151,19.250 366.090,19.928 367.123 C 21.081 368.877,27.658 376.000,28.126 376.000 C 28.242 376.000,29.477 377.076,30.869 378.390 C 32.261 379.705,33.623 380.785,33.897 380.790 C 34.170 380.796,34.618 381.160,34.893 381.600 C 35.168 382.040,35.576 382.400,35.800 382.400 C 36.024 382.400,36.432 382.760,36.707 383.200 C 36.982 383.640,37.447 384.000,37.741 384.000 C 38.035 384.000,38.602 384.360,39.000 384.800 C 39.398 385.240,39.965 385.600,40.259 385.600 C 40.553 385.600,41.018 385.960,41.293 386.400 C 41.568 386.840,42.017 387.200,42.292 387.200 C 42.567 387.200,43.828 387.920,45.096 388.799 C 46.363 389.679,47.687 390.399,48.038 390.399 C 48.389 390.400,49.002 390.760,49.400 391.200 C 49.798 391.640,50.524 392.000,51.013 392.000 C 51.502 392.000,52.117 392.258,52.379 392.574 C 52.641 392.890,53.370 393.262,54.000 393.400 C 54.630 393.538,55.350 393.898,55.600 394.200 C 55.850 394.502,56.565 394.861,57.189 394.997 C 57.812 395.134,59.008 395.596,59.846 396.023 C 60.684 396.450,61.787 396.800,62.299 396.800 C 62.810 396.800,63.658 397.082,64.183 397.426 C 64.708 397.770,66.142 398.155,67.369 398.282 C 68.596 398.408,69.600 398.645,69.600 398.807 C 69.600 399.981,73.049 400.009,200.658 399.905 C 318.620 399.809,329.579 399.745,330.258 399.154 C 330.666 398.798,331.888 398.392,332.974 398.251 C 334.060 398.110,335.320 397.753,335.774 397.456 C 336.228 397.160,337.440 396.792,338.467 396.639 C 339.494 396.486,340.536 396.118,340.782 395.822 C 341.027 395.526,341.834 395.170,342.574 395.031 C 343.314 394.892,344.140 394.514,344.409 394.189 C 344.678 393.865,345.212 393.600,345.595 393.600 C 345.978 393.600,346.750 393.240,347.309 392.800 C 347.869 392.360,348.705 392.000,349.167 392.000 C 349.629 392.000,350.316 391.640,350.693 391.200 C 351.070 390.760,351.653 390.395,351.989 390.389 C 352.325 390.382,353.676 389.662,354.991 388.789 C 356.307 387.915,357.605 387.200,357.877 387.200 C 358.149 387.200,358.565 386.840,358.800 386.400 C 359.035 385.960,359.464 385.600,359.752 385.600 C 360.040 385.600,360.602 385.240,361.000 384.800 C 361.398 384.360,361.921 383.997,362.162 383.994 C 362.403 383.991,363.363 383.316,364.295 382.494 C 365.227 381.672,366.628 380.550,367.409 380.000 C 369.502 378.526,376.714 371.395,379.140 368.400 C 380.298 366.970,381.821 365.105,382.523 364.256 C 383.225 363.407,383.894 362.507,384.008 362.256 C 384.602 360.958,386.126 358.800,386.449 358.800 C 386.653 358.800,386.998 358.332,387.215 357.760 C 387.433 357.187,388.239 355.774,389.005 354.618 C 389.772 353.463,390.400 352.249,390.400 351.921 C 390.400 351.592,390.760 350.998,391.200 350.600 C 391.640 350.202,392.000 349.476,392.000 348.987 C 392.000 348.498,392.258 347.883,392.574 347.621 C 392.890 347.359,393.262 346.630,393.400 346.000 C 393.538 345.370,393.898 344.650,394.200 344.400 C 394.502 344.150,394.861 343.435,394.997 342.811 C 395.134 342.188,395.596 340.992,396.023 340.154 C 396.450 339.316,396.800 338.213,396.800 337.701 C 396.800 337.190,397.069 336.361,397.398 335.860 C 397.726 335.358,398.110 334.060,398.251 332.974 C 398.392 331.888,398.798 330.666,399.154 330.258 C 400.149 329.116,400.148 71.284,399.154 70.142 C 398.798 69.734,398.399 68.432,398.266 67.249 C 398.134 66.067,397.750 64.678,397.413 64.163 C 397.076 63.649,396.798 62.817,396.796 62.314 C 396.794 61.811,396.350 60.500,395.809 59.400 C 395.268 58.300,394.819 57.107,394.813 56.749 C 394.806 56.391,394.542 55.883,394.226 55.621 C 393.910 55.359,393.538 54.630,393.400 54.000 C 393.262 53.370,392.890 52.641,392.574 52.379 C 392.258 52.117,392.000 51.502,392.000 51.013 C 392.000 50.524,391.640 49.798,391.200 49.400 C 390.760 49.002,390.400 48.389,390.399 48.038 C 390.399 47.687,389.679 46.363,388.799 45.096 C 387.920 43.828,387.200 42.626,387.200 42.424 C 387.200 42.222,386.904 41.761,386.542 41.400 C 385.693 40.551,384.000 38.056,384.000 37.654 C 384.000 37.484,383.595 36.972,383.100 36.517 C 382.605 36.063,381.840 35.213,381.400 34.629 C 377.162 29.008,367.400 19.200,366.042 19.200 C 365.814 19.200,365.435 18.840,365.200 18.400 C 364.965 17.960,364.508 17.600,364.186 17.600 C 363.864 17.600,363.600 17.449,363.600 17.265 C 363.600 17.080,362.401 16.135,360.936 15.165 C 359.471 14.194,357.806 13.086,357.236 12.701 C 356.666 12.317,355.705 11.804,355.100 11.562 C 354.495 11.320,354.000 10.979,354.000 10.804 C 354.000 10.630,353.295 10.205,352.434 9.860 C 351.573 9.516,350.761 9.060,350.629 8.848 C 350.498 8.635,349.865 8.346,349.223 8.205 C 348.581 8.064,347.850 7.702,347.600 7.400 C 347.350 7.098,346.630 6.738,346.000 6.600 C 345.370 6.462,344.641 6.090,344.379 5.774 C 344.117 5.458,343.540 5.200,343.098 5.200 C 342.656 5.200,341.733 4.855,341.047 4.434 C 340.361 4.012,339.080 3.535,338.200 3.373 C 337.320 3.212,336.240 2.857,335.800 2.586 C 335.360 2.314,334.011 1.969,332.802 1.819 C 331.593 1.669,330.269 1.243,329.860 0.873 C 329.163 0.243,79.283 -0.318,72.401 0.295 M240.200 83.868 C 245.784 86.135,253.200 90.926,253.200 92.267 C 253.200 93.062,250.182 99.957,247.824 104.553 C 246.058 107.992,245.674 109.172,246.300 109.226 C 246.465 109.240,254.430 109.309,264.000 109.379 C 281.216 109.505,287.737 109.977,288.945 111.185 C 291.216 113.456,291.644 169.261,289.423 173.556 C 288.839 174.684,288.727 174.718,284.713 174.989 C 282.451 175.142,279.430 175.434,278.000 175.638 C 276.570 175.843,269.550 176.277,262.400 176.602 C 255.250 176.927,245.620 177.374,241.000 177.594 C 236.380 177.815,224.638 177.997,214.908 177.998 L 197.215 178.000 196.947 179.068 C 196.613 180.401,197.087 195.884,197.602 200.428 C 197.812 202.283,198.170 206.770,198.398 210.400 C 198.626 214.030,199.074 219.070,199.393 221.600 C 199.712 224.130,200.085 227.775,200.223 229.700 C 200.637 235.519,200.505 235.466,216.000 235.974 C 241.867 236.823,265.957 236.694,267.156 235.700 C 268.807 234.332,269.787 220.405,268.333 218.968 C 267.135 217.784,253.032 216.934,227.841 216.526 C 209.688 216.233,211.223 216.769,211.153 210.700 C 211.023 199.493,211.531 193.685,212.729 192.695 C 213.610 191.967,246.002 192.171,255.477 192.964 C 259.394 193.292,264.580 193.669,267.000 193.802 C 269.420 193.935,273.110 194.291,275.200 194.592 C 277.290 194.894,280.350 195.255,282.000 195.393 C 288.339 195.924,291.394 196.782,291.756 198.133 C 292.131 199.531,292.024 221.509,291.600 230.000 C 291.386 234.290,291.027 241.580,290.801 246.200 C 290.337 255.706,289.797 260.189,288.958 261.500 L 288.382 262.400 275.491 262.383 C 268.401 262.374,257.560 262.206,251.400 262.010 C 221.335 261.054,213.786 260.768,208.800 260.391 C 205.830 260.167,199.080 259.718,193.800 259.392 C 175.243 258.249,174.248 258.012,173.827 254.646 C 172.530 244.294,170.900 222.419,170.365 208.200 C 170.159 202.700,169.812 196.310,169.595 194.000 C 169.377 191.690,169.025 181.790,168.812 172.000 C 168.599 162.210,168.331 150.870,168.216 146.800 C 167.748 130.156,168.821 115.073,170.520 114.434 C 173.574 113.283,188.114 112.719,193.176 113.555 C 196.868 114.164,196.888 114.202,196.352 119.416 C 195.501 127.706,196.361 152.521,197.541 153.701 C 199.537 155.697,264.984 153.587,267.113 151.459 C 268.584 149.988,267.969 136.440,266.393 135.597 C 264.840 134.765,248.424 134.360,227.511 134.637 L 206.822 134.910 206.356 133.755 C 205.271 131.070,205.457 112.601,206.580 111.477 C 206.858 111.199,209.137 110.648,211.643 110.253 C 214.149 109.858,216.685 109.447,217.278 109.340 C 218.095 109.193,218.471 108.790,218.834 107.673 C 219.473 105.708,222.389 99.672,224.377 96.200 C 225.259 94.660,226.279 92.860,226.644 92.200 C 227.660 90.364,229.992 86.839,231.769 84.453 L 233.368 82.305 235.384 82.518 C 236.493 82.635,238.660 83.242,240.200 83.868 M127.735 121.636 C 141.063 123.270,147.394 136.458,140.967 149.200 C 135.328 160.379,111.815 158.706,107.341 146.807 C 103.178 135.733,109.846 123.006,120.513 121.666 C 122.101 121.466,123.580 121.281,123.800 121.253 C 124.020 121.225,125.791 121.397,127.735 121.636 M104.600 166.853 C 106.580 167.085,110.000 167.619,112.200 168.038 C 114.400 168.457,116.695 168.800,117.301 168.800 C 117.906 168.800,120.246 169.145,122.501 169.566 C 124.755 169.988,128.850 170.724,131.600 171.203 C 134.350 171.681,137.680 172.332,139.000 172.649 C 140.320 172.966,142.300 173.379,143.400 173.566 C 147.505 174.264,155.778 176.593,156.700 177.309 C 157.680 178.071,155.465 185.673,151.344 195.688 C 150.323 198.169,149.152 201.058,148.742 202.107 C 148.333 203.156,147.829 204.326,147.624 204.707 C 147.418 205.088,146.773 206.480,146.190 207.800 C 145.607 209.120,144.147 212.163,142.946 214.563 C 140.308 219.830,140.313 220.370,143.000 221.245 C 144.100 221.603,147.340 222.655,150.200 223.582 C 160.434 226.900,163.860 228.594,163.440 230.130 C 163.309 230.608,163.009 232.170,162.773 233.600 C 162.536 235.030,162.150 236.920,161.914 237.800 C 161.679 238.680,161.263 240.480,160.992 241.800 C 160.538 244.000,159.605 247.589,157.559 255.000 C 157.134 256.540,156.551 258.700,156.265 259.800 C 155.978 260.900,155.555 262.160,155.325 262.600 C 153.804 265.501,154.325 266.879,157.216 267.608 C 161.065 268.578,169.190 270.008,173.000 270.386 C 174.760 270.560,178.630 270.985,181.600 271.331 C 186.774 271.933,191.851 272.411,201.400 273.197 C 203.820 273.396,212.100 273.864,219.800 274.238 C 236.398 275.045,235.714 274.777,233.529 279.600 C 233.081 280.590,232.482 281.940,232.199 282.600 C 229.133 289.748,221.944 301.750,219.814 303.277 C 219.051 303.824,210.010 302.709,199.576 300.781 C 197.253 300.351,194.946 300.000,194.450 300.000 C 193.953 300.000,191.984 299.657,190.074 299.237 C 186.412 298.434,183.875 297.898,179.600 297.025 C 171.939 295.461,168.617 294.734,168.333 294.559 C 168.159 294.451,166.798 294.108,165.308 293.797 C 163.819 293.486,161.520 292.950,160.200 292.608 C 155.331 291.344,152.936 290.700,150.304 289.946 C 148.821 289.522,146.301 288.805,144.704 288.353 C 139.521 286.887,135.022 285.531,134.014 285.130 C 133.472 284.915,131.402 284.205,129.414 283.552 C 127.427 282.900,125.233 282.103,124.540 281.783 C 123.846 281.462,123.064 281.200,122.801 281.200 C 122.538 281.200,121.846 280.931,121.262 280.603 C 120.678 280.274,119.700 279.827,119.090 279.609 C 117.447 279.022,117.331 278.147,118.590 275.844 C 124.053 265.852,131.600 247.740,131.600 244.620 C 131.600 243.696,130.058 242.889,126.991 242.207 C 122.816 241.279,118.545 240.137,118.006 239.804 C 117.744 239.642,116.690 239.268,115.664 238.975 C 106.647 236.391,105.829 235.664,107.167 231.428 C 109.316 224.624,110.062 222.363,111.004 219.800 C 111.569 218.260,112.282 216.280,112.587 215.400 C 113.791 211.930,114.480 210.125,115.262 208.400 C 115.710 207.410,116.306 206.060,116.587 205.400 C 116.867 204.740,117.790 202.760,118.637 201.000 C 121.494 195.063,121.658 195.231,111.600 193.799 C 109.510 193.501,106.360 192.971,104.600 192.621 C 102.840 192.271,99.960 191.702,98.200 191.357 C 96.440 191.012,94.730 190.587,94.400 190.412 C 93.609 189.994,93.717 182.702,94.553 180.043 C 94.872 179.029,95.242 177.480,95.375 176.600 C 96.292 170.531,98.504 165.701,100.147 166.180 C 100.616 166.317,102.620 166.620,104.600 166.853 " stroke="none" fill="#c10f0c" fill-rule="evenodd"></path></g></svg>